<?xml version="1.0" standalone="no"?>
<!DOCTYPE svg PUBLIC "-//W3C//DTD SVG 1.1//EN" "http://www.w3.org/Graphics/SVG/1.1/DTD/svg11.dtd">
<svg xmlns="http://www.w3.org/2000/svg">
<metadata>Copyright (C) 2017 by original authors @ fontello.com</metadata>
<defs>
<font id="k-icons" horiz-adv-x="1024">
<font-face units-per-em="1024" ascent="870.4" descent="-153.6" />
<missing-glyph horiz-adv-x="1024" />
<glyph unicode="&#x20;" horiz-adv-x="0" d="" />
<glyph unicode="&#xe800;" glyph-name="archived" data-tags="archived" d="M691.2 172.8h-358.4v256h358.4v-256zM716.8 480h-409.6v51.2h409.6v-51.2zM716.8 582.4h-409.6c-28.672 0-51.2-22.528-51.2-51.2v-76.8c0-14.336 11.264-25.6 25.6-25.6v-256c0-28.672 22.528-51.2 51.2-51.2h358.4c28.672 0 51.2 22.528 51.2 51.2v256c14.336 0 25.6 11.264 25.6 25.6v76.8c0 28.672-22.528 51.2-51.2 51.2v0zM588.8 403.2h-153.6v-76.8h153.6v76.8z" />
<glyph unicode="&#xe801;" glyph-name="tag" data-tags="tag" d="M307.2 413.44l256-256 143.36 143.36-256 256h-143.36v-143.36zM563.2 96c-6.144 0-13.312 3.072-18.432 7.168l-281.6 281.6c-4.096 5.12-7.168 11.264-7.168 18.432v179.2c0 14.336 11.264 25.6 25.6 25.6h179.2c7.168 0 13.312-3.072 18.432-7.168l281.6-281.6c9.216-10.24 9.216-26.624 0-36.864l-179.2-179.2c-5.12-4.096-12.288-7.168-18.432-7.168v0zM435.2 480c0-28.672-22.528-51.2-51.2-51.2s-51.2 22.528-51.2 51.2c0 28.672 22.528 51.2 51.2 51.2s51.2-22.528 51.2-51.2" />
<glyph unicode="&#xe802;" glyph-name="print" data-tags="print" d="M716.8 198.4h-25.6v51.2h-358.4v-51.2h-25.6v179.2c0 14.336 11.264 25.6 25.6 25.6v-51.2h358.4v51.2c14.336 0 25.6-11.264 25.6-25.6v-179.2zM640 96h-256v102.4h256v-102.4zM768 377.6c0 41.984-34.816 76.8-76.8 76.8h-51.2v-51.2h-256v51.2h-51.2c-41.984 0-76.8-34.816-76.8-76.8v-230.4h76.8v-102.4h358.4v102.4h76.8v230.4zM384 582.4h256v-102.4h51.2v153.6h-358.4v-153.6h51.2v102.4zM640 326.4c-14.336 0-25.6-11.264-25.6-25.6s11.264-25.6 25.6-25.6c14.336 0 25.6 11.264 25.6 25.6s-11.264 25.6-25.6 25.6" />
<glyph unicode="&#xe803;" glyph-name="settings" data-tags="settings" d="M512 224c-70.656 0-128 57.344-128 128s57.344 128 128 128c70.656 0 128-57.344 128-128s-57.344-128-128-128v0zM768 300.8v102.4h-58.368c-5.12 23.552-15.36 45.056-28.672 63.488l38.912 38.912-54.272 54.272-38.912-38.912c-18.432 13.312-39.936 23.552-63.488 28.672v58.368h-102.4v-58.368c-22.528-5.12-45.056-15.36-63.488-28.672l-38.912 38.912-54.272-54.272 38.912-38.912c-13.312-18.432-23.552-39.936-28.672-63.488h-58.368v-102.4h58.368c5.12-23.552 15.36-45.056 28.672-63.488l-38.912-38.912 54.272-54.272 38.912 38.912c18.432-13.312 40.96-23.552 63.488-28.672v-58.368h102.4v58.368c23.552 5.12 45.056 15.36 63.488 28.672l38.912-38.912 54.272 54.272-38.912 38.912c13.312 18.432 23.552 39.936 28.672 63.488h58.368z" />
<glyph unicode="&#xe804;" glyph-name="report" data-tags="report" d="M691.2 198.4h-358.4v256h358.4v-256zM307.2 531.2h409.6v-25.6h-409.6v25.6zM768 480v76.8c0 14.336-12.288 25.6-25.6 25.6h-460.8c-14.336 0-25.6-11.264-25.6-25.6v-76.8c0-14.336 11.264-25.6 25.6-25.6v-256h-25.6v-51.2h230.4v-51.2h51.2v51.2h230.4v51.2h-25.6v256c13.312 0 25.6 11.264 25.6 25.6v0zM560.128 414.464c-4.096 9.216-13.312 15.36-23.552 14.336-10.24 0-19.456-7.168-22.528-16.384l-36.864-91.136-23.552 23.552c-9.216 8.192-22.528 9.216-32.768 3.072l-62.464-41.984v-61.44l73.728 49.152 35.84-36.864c6.144-6.144 15.36-8.192 23.552-6.144 8.192 1.024 15.36 7.168 18.432 15.36l29.696 74.752 26.624-51.2c3.072-7.168 9.216-11.264 15.36-13.312 7.168-2.048 15.36-1.024 21.504 3.072l62.464 41.984v61.44l-66.56-44.032-38.912 75.776z" />
<glyph unicode="&#xe805;" glyph-name="deploy" data-tags="deploy" d="M405.504 173.824c7.168 6.144 11.264 14.336 13.312 22.528l38.912-37.888c-4.096-8.192-9.216-14.336-15.36-21.504-34.816-34.816-141.312-41.984-161.792-43.008l-28.672-2.048 2.048 28.672c1.024 20.48 8.192 126.976 43.008 161.792 7.168 6.144 13.312 11.264 21.504 15.36l37.888-38.912c-8.192-2.048-16.384-6.144-22.528-12.288-11.264-11.264-21.504-56.32-26.624-99.328 43.008 5.12 87.040 15.36 98.304 26.624zM694.272 464.64l-69.632 69.632c35.84 24.576 80.896 34.816 103.424 34.816h1.024c0-20.48-9.216-66.56-34.816-104.448zM561.152 162.56l-46.080 47.104 46.080 47.104v-94.208zM405.504 318.208l181.248 181.248 72.704-72.704-181.248-181.248-72.704 72.704zM416.768 401.152l-47.104-46.080-47.104 46.080h94.208zM768 608c-8.192 8.192-20.48 12.288-39.936 12.288-36.864 0-110.592-17.408-158.72-66.56l-101.376-101.376h-171.008c-6.144 0-13.312-2.048-17.408-7.168l-18.432-18.432c-10.24-10.24-10.24-25.6 0-35.84l289.792-289.792c5.12-5.12 11.264-7.168 18.432-7.168 6.144 0 12.288 2.048 17.408 7.168l18.432 18.432c5.12 4.096 7.168 11.264 7.168 17.408v171.008l101.376 101.376c36.864 36.864 53.248 83.968 59.392 108.544 5.12 20.48 15.36 69.632-5.12 90.112v0z" />
<glyph unicode="&#xe806;" glyph-name="close" data-tags="close" d="M512 388.864l-193.536 193.536-36.864-36.864 193.536-193.536-193.536-193.536 36.864-36.864 193.536 193.536 193.536-193.536 36.864 36.864-193.536 193.536 193.536 193.536-36.864 36.864-193.536-193.536z" />
<glyph unicode="&#xe807;" glyph-name="linkedin" data-tags="linkedin" d="M550.912 396.032c21.504 27.648 48.128 45.056 81.92 49.152 69.632 6.144 123.904-24.576 141.312-97.28 5.12-17.408 7.168-34.816 7.168-53.248 1.024-60.416 0-121.856 0-183.296 0-10.24-3.072-13.312-13.312-13.312-28.672 1.024-58.368 0-87.040 0-15.36 0-15.36 0-15.36 15.36 0 55.296 0 110.592 0 165.888 0 9.216 0 19.456-2.048 28.672-4.096 21.504-14.336 39.936-37.888 45.056-25.6 5.12-47.104-2.048-62.464-23.552-9.216-12.288-12.288-27.648-12.288-43.008 0-57.344 0-115.712 0-173.056v-13.312c-3.072-1.024-6.144-1.024-9.216-1.024-31.744-1.024-63.488 0-94.208-1.024-9.216 0-10.24 3.072-10.24 11.264 0 105.472 0 211.968 0 317.44 0 9.216 3.072 11.264 11.264 11.264 29.696 0 60.416 0 91.136 0 9.216 1.024 12.288-3.072 11.264-11.264 0-10.24 0-20.48 0-30.72zM377.856 268.032c0-52.224 0-104.448 0-155.648 1.024-10.24-2.048-14.336-13.312-14.336-29.696 1.024-59.392 1.024-90.112 0-8.192 0-12.288 2.048-12.288 12.288 0 105.472 0 210.944 0 315.392 0 10.24 4.096 13.312 13.312 12.288 29.696 0 60.416 0 90.112 0 10.24 1.024 12.288-3.072 12.288-13.312 0-52.224 0-104.448 0-156.672zM385.024 540.416c0-34.816-27.648-59.392-64.512-59.392-36.864-1.024-64.512 25.6-64.512 59.392 0 34.816 28.672 60.416 65.536 60.416 36.864-1.024 63.488-25.6 63.488-60.416z" />
<glyph unicode="&#xe808;" glyph-name="email" data-tags="email" d="M307.2 249.6v200.704l191.488-119.808c4.096-3.072 8.192-4.096 13.312-4.096s9.216 1.024 13.312 4.096l191.488 119.808v-200.704h-409.6zM668.672 480l-156.672-97.28-156.672 97.28h313.344zM716.8 531.2h-409.6c-28.672 0-51.2-22.528-51.2-51.2v-230.4c0-28.672 22.528-51.2 51.2-51.2h409.6c28.672 0 51.2 22.528 51.2 51.2v230.4c0 28.672-22.528 51.2-51.2 51.2v0z" />
<glyph unicode="&#xe809;" glyph-name="comment" data-tags="comment" d="M307.2 556.8v-307.2h102.4v-51.2l68.608 51.2h238.592v307.2h-409.6zM358.4 96v102.4h-51.2c-28.672 0-51.2 22.528-51.2 51.2v307.2c0 28.672 22.528 51.2 51.2 51.2h409.6c28.672 0 51.2-22.528 51.2-51.2v-307.2c0-28.672-22.528-51.2-51.2-51.2h-222.208l-136.192-102.4z" />
<glyph unicode="&#xe80a;" glyph-name="next" data-tags="next" d="M637.952 364.288v0l-217.088-217.088-35.84 35.84 181.248 182.272-180.224 181.248 36.864 35.84 216.064-217.088-1.024-1.024z" />
<glyph unicode="&#xe80b;" glyph-name="prev" data-tags="prev" d="M386.048 364.288v0l217.088-217.088 35.84 35.84-181.248 182.272 180.224 181.248-35.84 35.84-217.088-217.088 1.024-1.024z" />
<glyph unicode="&#xe80c;" glyph-name="language" data-tags="language" d="M512 608c141.312 0 256-114.688 256-256s-114.688-256-256-256c-141.312 0-256 114.688-256 256s114.688 256 256 256zM614.4 174.848c30.72 18.432 57.344 44.032 74.752 74.752h-74.752v-74.752zM460.8 154.368c16.384-5.12 33.792-7.168 51.2-7.168s34.816 2.048 51.2 7.168v95.232h-102.4v-95.232zM334.848 249.6c18.432-30.72 44.032-56.32 74.752-74.752v74.752h-74.752zM314.368 403.2c-5.12-16.384-7.168-33.792-7.168-51.2s2.048-34.816 7.168-51.2h95.232v102.4h-95.232zM409.6 529.152c-30.72-17.408-56.32-44.032-74.752-74.752h74.752v74.752zM563.2 550.656c-16.384 4.096-33.792 6.144-51.2 6.144s-34.816-2.048-51.2-6.144v-96.256h102.4v96.256zM460.8 300.8h102.4v102.4h-102.4v-102.4zM716.8 352c0 17.408-2.048 34.816-6.144 51.2h-96.256v-102.4h96.256c4.096 16.384 6.144 33.792 6.144 51.2zM689.152 454.4c-17.408 30.72-44.032 57.344-74.752 74.752v-74.752h74.752z" />
<glyph unicode="&#xe80d;" glyph-name="twitter" data-tags="twitter" d="M604.16 556.8c39.936 1.024 61.44-14.336 82.944-32.768 17.408 1.024 39.936 11.264 53.248 18.432 4.096 2.048 12.288 3.072 16.384 6.144-8.192-21.504-21.504-36.864-36.864-49.152-4.096-2.048-7.168-6.144-12.288-7.168v-1.024c23.552 0 41.984 11.264 59.392 16.384v0c-9.216-15.36-21.504-30.72-34.816-40.96-6.144-4.096-11.264-9.216-16.384-13.312 0-23.552-1.024-47.104-5.12-67.584-26.624-117.76-96.256-197.632-205.824-231.424-38.912-12.288-103.424-17.408-148.48-6.144-22.528 5.12-41.984 12.288-61.44 20.48-10.24 4.096-20.48 9.216-29.696 15.36-3.072 1.024-6.144 3.072-9.216 5.12 10.24 0 22.528-1.024 33.792-1.024 10.24 0 20.48 1.024 29.696 3.072 23.552 5.12 45.056 12.288 62.464 22.528 9.216 5.12 22.528 11.264 28.672 18.432-11.264 0-22.528 3.072-30.72 6.144-33.792 12.288-54.272 33.792-66.56 66.56 10.24-1.024 39.936-3.072 46.080 2.048-12.288 1.024-24.576 8.192-33.792 14.336-27.648 17.408-49.152 46.080-49.152 90.112 3.072-2.048 7.168-4.096 10.24-5.12 7.168-3.072 14.336-5.12 22.528-6.144 3.072-1.024 10.24-3.072 14.336-2.048h-1.024c-5.12 6.144-13.312 10.24-18.432 17.408-18.432 21.504-38.912 53.248-27.648 93.184 2.048 10.24 10.24 20.48 15.36 28.672 0 0 0 0 0 0 2.048-4.096 6.144-7.168 9.216-11.264 9.216-10.24 20.48-20.48 31.744-29.696 37.888-29.696 72.704-48.128 128-61.44 14.336-4.096 30.72-6.144 47.104-6.144-5.12 13.312-3.072 35.84 0 49.152 10.24 32.768 29.696 57.344 59.392 70.656 7.168 3.072 15.36 5.12 23.552 7.168 4.096 0 8.192 1.024 13.312 1.024" />
<glyph unicode="&#xe80e;" glyph-name="follow" data-tags="follow" d="M409.6 403.2c-28.672 0-51.2-22.528-51.2-51.2s22.528-51.2 51.2-51.2c28.672 0 51.2 22.528 51.2 51.2s-22.528 51.2-51.2 51.2M409.6 249.6c-56.32 0-102.4 46.080-102.4 102.4s46.080 102.4 102.4 102.4c56.32 0 102.4-46.080 102.4-102.4s-46.080-102.4-102.4-102.4zM260.096 96c15.36 46.080 72.704 76.8 149.504 76.8s134.144-30.72 149.504-76.8h-299.008zM614.4 44.8h-409.6v25.6c0 90.112 83.968 153.6 204.8 153.6s204.8-63.488 204.8-153.6v-25.6zM665.6 659.2l44.032-109.568h109.568l-95.232-79.872 51.2-117.76-109.568 72.704-109.568-72.704 51.2 117.76-95.232 79.872h109.568l44.032 109.568z" />
<glyph unicode="&#xe80f;" glyph-name="lock" data-tags="lock" d="M384 147.2v179.2h256v-179.2h-256zM435.2 480c0 41.984 34.816 76.8 76.8 76.8s76.8-34.816 76.8-76.8v-102.4h-153.6v102.4zM640 377.6v102.4c0 70.656-57.344 128-128 128s-128-57.344-128-128v-102.4c-28.672 0-51.2-22.528-51.2-51.2v-179.2c0-28.672 22.528-51.2 51.2-51.2h256c28.672 0 51.2 22.528 51.2 51.2v179.2c0 28.672-22.528 51.2-51.2 51.2v0zM550.912 237.312c0-21.504-17.408-38.912-38.912-38.912s-37.888 17.408-37.888 38.912c0 20.48 16.384 37.888 37.888 37.888s38.912-17.408 38.912-37.888" />
<glyph unicode="&#xe810;" glyph-name="subscribe" data-tags="subscribe" d="M358.4 198.4c-14.336 0-25.6-11.264-25.6-25.6s11.264-25.6 25.6-25.6c14.336 0 25.6 11.264 25.6 25.6s-11.264 25.6-25.6 25.6M358.4 96c-41.984 0-76.8 34.816-76.8 76.8s34.816 76.8 76.8 76.8c41.984 0 76.8-34.816 76.8-76.8s-34.816-76.8-76.8-76.8zM614.4 121.6h-51.2c0 141.312-114.688 256-256 256v51.2c168.96 0 307.2-138.24 307.2-307.2zM768 121.6h-51.2c0 226.304-183.296 409.6-409.6 409.6v51.2c253.952 0 460.8-206.848 460.8-460.8z" />
<glyph unicode="&#xe811;" glyph-name="expand" data-tags="expand" d="M281.6 531.2v-76.8h-51.2v76.8c0 28.672 22.528 51.2 51.2 51.2h76.8v-51.2h-76.8zM742.4 582.4c28.672 0 51.2-22.528 51.2-51.2v-76.8h-51.2v76.8h-76.8v51.2h76.8zM358.4 121.6h-76.8c-28.672 0-51.2 22.528-51.2 51.2v76.8h51.2v-76.8h76.8v-51.2zM742.4 172.8v76.8h51.2v-76.8c0-28.672-22.528-51.2-51.2-51.2h-76.8v51.2h76.8zM384 428.8h256v-153.6h-256v153.6zM332.8 224h358.4v256h-358.4v-256z" />
<glyph unicode="&#xe812;" glyph-name="folder-public" data-tags="folder-public" d="M560.128 480h-105.472c-16.384 0-31.744 8.192-40.96 20.48l-41.984 56.32h-115.712v-332.8h153.6v-51.2h-153.6c-28.672 0-51.2 22.528-51.2 51.2v332.8c0 28.672 22.528 51.2 51.2 51.2h115.712c15.36 0 30.72-7.168 40.96-20.48l41.984-56.32h210.944c28.672 0 51.2-22.528 51.2-51.2h-156.672zM526.336 168.704h33.792v-33.792c-13.312 9.216-24.576 20.48-33.792 33.792v0zM560.128 363.264v-34.816h-33.792c9.216 14.336 20.48 25.6 33.792 34.816v0zM679.936 382.72v-54.272h-79.872v54.272c12.288 4.096 26.624 6.144 39.936 6.144 14.336 0 27.648-2.048 39.936-6.144v0zM754.688 328.448h-34.816v34.816c13.312-9.216 24.576-20.48 34.816-34.816v0zM773.12 208.64h-53.248v80.896h53.248c4.096-13.312 6.144-26.624 6.144-40.96 0-13.312-2.048-26.624-6.144-39.936v0zM719.872 134.912v33.792h34.816c-10.24-13.312-21.504-24.576-34.816-33.792v0zM600.064 168.704h79.872v-53.248c-12.288-4.096-25.6-6.144-39.936-6.144-13.312 0-27.648 2.048-39.936 6.144v53.248zM560.128 289.536v-80.896h-53.248c-4.096 13.312-6.144 26.624-6.144 39.936 0 14.336 2.048 27.648 6.144 40.96h53.248zM600.064 208.64h79.872v80.896h-79.872v-80.896zM659.456 70.4c90.112 10.24 159.744 86.016 159.744 178.176 0 99.328-79.872 180.224-179.2 180.224-98.304 0-179.2-80.896-179.2-180.224 0-92.16 69.632-167.936 159.744-178.176h38.912z" />
<glyph unicode="&#xe813;" glyph-name="replace" data-tags="replace" d="M665.6 216.832c31.744 35.84 51.2 82.944 51.2 135.168 0 113.664-91.136 204.8-204.8 204.8-17.408 0-34.816-2.048-51.2-6.144v52.224c16.384 3.072 33.792 5.12 51.2 5.12 141.312 0 256-114.688 256-256 0-57.344-19.456-110.592-51.2-153.6h51.2v-51.2h-153.6v153.6h51.2v-83.968zM358.4 487.168c-31.744-35.84-51.2-82.944-51.2-135.168 0-112.64 92.16-204.8 204.8-204.8 17.408 0 34.816 2.048 51.2 6.144v-52.224c-16.384-3.072-33.792-5.12-51.2-5.12-141.312 0-256 114.688-256 256 0 57.344 19.456 110.592 51.2 153.6h-51.2v51.2h102.4c0 0 0 0 0 0v0h51.2v-25.6h3.072c-1.024-1.024-2.048-1.024-3.072-2.048v-125.952h-51.2v83.968z" />
<glyph unicode="&#xe814;" glyph-name="edit" data-tags="edit" d="M701.44 541.44c19.456-19.456 19.456-53.248 0-72.704l-18.432-18.432-72.704 72.704 18.432 18.432c19.456 19.456 53.248 19.456 72.704 0v0zM316.416 156.416l15.36 61.44 46.080-46.080-61.44-15.36zM573.44 487.168l73.728-73.728-219.136-219.136-73.728 73.728 219.136 219.136zM738.304 578.304c-19.456 19.456-46.080 29.696-73.728 29.696-26.624 0-53.248-10.24-72.704-29.696l-291.84-292.864c0 0 0 0 0 0-2.048-2.048-6.144-7.168-7.168-11.264l-35.84-146.432c-2.048-8.192 0-17.408 6.144-24.576v0 0c7.168-6.144 16.384-8.192 24.576-6.144l146.432 35.84c4.096 1.024 9.216 5.12 11.264 7.168 0 0 0 0 0 0l292.864 291.84c19.456 19.456 29.696 46.080 29.696 72.704 0 27.648-10.24 54.272-29.696 73.728v0z" />
<glyph unicode="&#xe815;" glyph-name="trash" data-tags="trash" d="M332.8 147.2v307.2h358.4v-307.2c0-28.672-22.528-51.2-51.2-51.2h-256c-28.672 0-51.2 22.528-51.2 51.2zM384 403.2v-256h256v256h-256zM435.2 198.4h51.2v153.6h-51.2v-153.6zM537.6 198.4h51.2v153.6h-51.2v-153.6zM588.8 531.2v51.2h-153.6v-51.2h-153.6v-51.2h460.8v51.2h-153.6z" />
<glyph unicode="&#xe816;" glyph-name="library" data-tags="library" d="M716.8 147.2h-102.4v358.4h102.4v-358.4zM460.8 454.4h102.4v-307.2h-102.4v307.2zM307.2 556.8h102.4v-409.6h-102.4v409.6zM742.4 556.8h-153.6c-14.336 0-25.6-11.264-25.6-25.6v-25.6h-102.4v76.8c0 14.336-11.264 25.6-25.6 25.6h-153.6c-14.336 0-25.6-11.264-25.6-25.6v-460.8c0-14.336 11.264-25.6 25.6-25.6h460.8c14.336 0 25.6 11.264 25.6 25.6v409.6c0 14.336-11.264 25.6-25.6 25.6v0zM332.8 326.4h51.2v204.8h-51.2v-204.8zM486.4 275.2h51.2v153.6h-51.2v-153.6zM691.2 480h-51.2v-179.2h51.2v179.2z" />
<glyph unicode="&#xe817;" glyph-name="logout" data-tags="logout" d="M691.2 96h-281.6c-28.672 0-51.2 22.528-51.2 51.2v76.8h51.2v-76.8h281.6v409.6h-281.6v-76.8h-51.2v76.8c0 28.672 22.528 51.2 51.2 51.2h281.6c28.672 0 51.2-22.528 51.2-51.2v-409.6c0-28.672-22.528-51.2-51.2-51.2zM530.432 472.832l119.808-120.832-119.808-120.832-36.864 36.864 59.392 58.368h-220.16v51.2h220.16l-59.392 58.368 36.864 36.864z" />
<glyph unicode="&#xe818;" glyph-name="folder-move-to" data-tags="folder-move-to" d="M512 224v-51.2h-256c-28.672 0-51.2 22.528-51.2 51.2v332.8c0 28.672 22.528 51.2 51.2 51.2h115.712c15.36 0 30.72-7.168 40.96-20.48l41.984-56.32h210.944c28.672 0 51.2-22.528 51.2-51.2v-128h-51.2v128h-210.944c-16.384 0-31.744 8.192-40.96 20.48l-41.984 56.32h-115.712v-332.8h256zM715.776 298.752l101.376-100.352-101.376-100.352-37.888 37.888 34.816 34.816h-125.952v55.296h125.952l-34.816 34.816 37.888 37.888z" />
<glyph unicode="&#xe819;" glyph-name="drafts" data-tags="drafts" d="M512 454.4v-51.2h-204.8v51.2h204.8zM307.2 275.2v51.2h153.6v-51.2h-153.6zM256 608v-460.8h179.2v-51.2h-179.2c-28.672 0-51.2 22.528-51.2 51.2v460.8c0 28.672 22.528 51.2 51.2 51.2h291.84l117.76-117.76v-112.64h-51.2v76.8h-102.4v102.4h-256zM716.8 234.24l-40.96 40.96 40.96 40.96 40.96-40.96-40.96-40.96zM601.088 119.552l-54.272-14.336 14.336 54.272 78.848 79.872 40.96-40.96-79.872-78.848zM812.032 293.632l-76.8 76.8c-10.24 10.24-26.624 10.24-36.864 0l-179.2-179.2c-3.072-3.072-5.12-7.168-6.144-12.288l-25.6-102.4c-2.048-8.192 0-17.408 6.144-24.576 7.168-6.144 16.384-8.192 24.576-6.144l102.4 25.6c4.096 1.024 9.216 3.072 12.288 6.144l179.2 179.2c9.216 10.24 9.216 26.624 0 36.864v0z" />
<glyph unicode="&#xe81a;" glyph-name="attach" data-tags="attach" d="M460.8 70.4c-73.728 0-128 59.392-128 141.312v217.088c0 102.4 71.68 179.2 166.912 179.2 94.208 0 165.888-76.8 165.888-179.2v-179.2h-51.2v179.2c0 73.728-48.128 128-114.688 128-67.584 0-115.712-54.272-115.712-128v-217.088c0-45.056 23.552-90.112 76.8-90.112s76.8 45.056 76.8 90.112v191.488c0 15.36-4.096 51.2-37.888 51.2-34.816 0-38.912-35.84-38.912-51.2v-179.2h-51.2v179.2c0 61.44 35.84 102.4 90.112 102.4 53.248 0 89.088-40.96 89.088-102.4v-191.488c0-81.92-54.272-141.312-128-141.312" />
<glyph unicode="&#xe81b;" glyph-name="folder-shared" data-tags="folder-shared" d="M256 608c-28.672 0-51.2-22.528-51.2-51.2v-332.8c0-28.672 22.528-51.2 51.2-51.2h153.6v51.2h-153.6v332.8h115.712l41.984-56.32c9.216-12.288 24.576-20.48 40.96-20.48h262.144c0 28.672-22.528 51.2-51.2 51.2h-210.944l-41.984 56.32c-10.24 13.312-25.6 20.48-40.96 20.48h-115.712zM550.912 339.712c0 49.152 39.936 89.088 89.088 89.088s90.112-39.936 90.112-89.088c0-50.176-40.96-90.112-90.112-90.112s-89.088 39.936-89.088 90.112zM594.944 339.712c0-25.6 20.48-45.056 45.056-45.056s45.056 19.456 45.056 45.056c0 24.576-20.48 44.032-45.056 44.032s-45.056-19.456-45.056-44.032zM460.8 92.928c0 78.848 73.728 134.144 179.2 134.144s179.2-55.296 179.2-134.144v-22.528h-358.4v22.528zM640 182.016c-67.584 0-117.76-26.624-131.072-66.56h262.144c-13.312 39.936-63.488 66.56-131.072 66.56z" />
<glyph unicode="&#xe81c;" glyph-name="alert" data-tags="alert" d="M512 556.8c-112.64 0-204.8-92.16-204.8-204.8s92.16-204.8 204.8-204.8c112.64 0 204.8 92.16 204.8 204.8s-92.16 204.8-204.8 204.8M512 96c-141.312 0-256 114.688-256 256s114.688 256 256 256c141.312 0 256-114.688 256-256s-114.688-256-256-256M537.6 326.4h-51.2v179.2h51.2v-179.2zM543.744 249.6c0-17.408-14.336-31.744-31.744-31.744s-31.744 14.336-31.744 31.744c0 17.408 14.336 31.744 31.744 31.744s31.744-14.336 31.744-31.744" />
<glyph unicode="&#xe81d;" glyph-name="globe" data-tags="globe" d="M512 147.2c-112.64 0-204.8 92.16-204.8 204.8 0 52.224 19.456 99.328 51.2 135.168v-135.168h58.368l56.32-169.984 141.312 106.496v165.888h-76.8v100.352c101.376-12.288 179.2-98.304 179.2-202.752 0-112.64-92.16-204.8-204.8-204.8v0zM409.6 529.152c23.552 13.312 49.152 22.528 76.8 25.6v-151.552h76.8v-89.088l-63.488-48.128-46.080 137.216h-44.032v125.952zM512 608c-141.312 0-256-114.688-256-256s114.688-256 256-256c141.312 0 256 114.688 256 256s-114.688 256-256 256v0z" />
<glyph unicode="&#xe81e;" glyph-name="arrow-first" data-tags="arrow-first" d="M665.6 136.96l-215.040 215.040 215.040 215.040 35.84-35.84-179.2-179.2 179.2-179.2-35.84-35.84zM537.6 136.96l-215.040 215.040 215.040 215.040 35.84-35.84-179.2-179.2 179.2-179.2-35.84-35.84z" />
<glyph unicode="&#xe81f;" glyph-name="question" data-tags="question" d="M716.8 198.4h-409.6v307.2h307.2v-102.4h102.4v-204.8zM650.24 556.8h-343.040c-28.672 0-51.2-22.528-51.2-51.2v-307.2c0-28.672 22.528-51.2 51.2-51.2h409.6c28.672 0 51.2 22.528 51.2 51.2v240.64l-117.76 117.76zM537.6 403.2h-179.2v-51.2h179.2v51.2zM358.4 249.6h281.6v51.2h-281.6v-51.2z" />
<glyph unicode="&#xe820;" glyph-name="more" data-tags="more" d="M640 352c0 28.672 22.528 51.2 51.2 51.2s51.2-22.528 51.2-51.2c0-28.672-22.528-51.2-51.2-51.2s-51.2 22.528-51.2 51.2zM460.8 352c0 28.672 22.528 51.2 51.2 51.2s51.2-22.528 51.2-51.2c0-28.672-22.528-51.2-51.2-51.2s-51.2 22.528-51.2 51.2zM281.6 352c0 28.672 22.528 51.2 51.2 51.2s51.2-22.528 51.2-51.2c0-28.672-22.528-51.2-51.2-51.2s-51.2 22.528-51.2 51.2z" />
<glyph unicode="&#xe821;" glyph-name="share" data-tags="share" d="M640 96h-409.6v25.6c0 90.112 83.968 153.6 204.8 153.6s204.8-63.488 204.8-153.6v-25.6zM285.696 147.2h299.008c-15.36 46.080-72.704 76.8-149.504 76.8s-134.144-30.72-149.504-76.8zM793.6 531.2v-51.2h-76.8v-76.8h-51.2v76.8h-76.8v51.2h76.8v76.8h51.2v-76.8h76.8zM435.2 300.8c-56.32 0-102.4 46.080-102.4 102.4s46.080 102.4 102.4 102.4c56.32 0 102.4-46.080 102.4-102.4s-46.080-102.4-102.4-102.4zM435.2 454.4c-28.672 0-51.2-22.528-51.2-51.2s22.528-51.2 51.2-51.2c28.672 0 51.2 22.528 51.2 51.2s-22.528 51.2-51.2 51.2z" />
<glyph unicode="&#xe822;" glyph-name="folder" data-tags="folder" d="M256 198.4v332.8h115.712l41.984-56.32c9.216-12.288 24.576-20.48 40.96-20.48h210.944v-256h-409.6zM665.6 505.6h-210.944l-41.984 56.32c-10.24 13.312-25.6 20.48-40.96 20.48h-115.712c-28.672 0-51.2-22.528-51.2-51.2v-332.8c0-28.672 22.528-51.2 51.2-51.2h409.6c28.672 0 51.2 22.528 51.2 51.2v256c0 28.672-22.528 51.2-51.2 51.2v0z" />
<glyph unicode="&#xe823;" glyph-name="time" data-tags="time" d="M512 505.6c-98.304 0-179.2-79.872-179.2-179.2 0-98.304 80.896-179.2 179.2-179.2 99.328 0 179.2 80.896 179.2 179.2 0 99.328-79.872 179.2-179.2 179.2M512 96c-126.976 0-230.4 103.424-230.4 230.4s103.424 230.4 230.4 230.4c126.976 0 230.4-103.424 230.4-230.4s-103.424-230.4-230.4-230.4M748.544 452.352c13.312 13.312 21.504 32.768 21.504 53.248 0 41.984-33.792 76.8-76.8 76.8-20.48 0-38.912-8.192-53.248-21.504l108.544-108.544zM278.528 452.352c-14.336 13.312-22.528 32.768-22.528 53.248 0 41.984 34.816 76.8 76.8 76.8 20.48 0 39.936-8.192 54.272-21.504l-108.544-108.544zM570.368 231.168l-76.8 76.8c-4.096 5.12-7.168 11.264-7.168 18.432v128h51.2v-117.76l69.632-68.608-36.864-36.864z" />
<glyph unicode="&#xe824;" glyph-name="deployed" data-tags="deployed" d="M332.8 121.6v460.8h256v-102.4h102.4v-358.4h-358.4zM624.64 633.6h-291.84c-28.672 0-51.2-22.528-51.2-51.2v-460.8c0-28.672 22.528-51.2 51.2-51.2h358.4c28.672 0 51.2 22.528 51.2 51.2v394.24l-117.76 117.76zM401.408 241.408c-14.336-13.312-17.408-65.536-17.408-65.536s54.272 3.072 68.608 16.384c7.168 6.144 10.24 14.336 11.264 22.528l-38.912 36.864c-8.192-1.024-17.408-4.096-23.552-10.24M502.784 210.688l27.648-27.648 17.408 17.408v65.536l36.864 34.816c7.168 8.192 14.336 16.384 20.48 24.576l12.288 21.504c9.216 18.432 10.24 24.576 19.456 55.296 1.024 4.096 0 8.192-3.072 11.264s-8.192 4.096-12.288 3.072c-31.744-8.192-38.912-9.216-58.368-17.408l-21.504-12.288c-9.216-6.144-18.432-12.288-26.624-19.456l-36.864-35.84h-68.608l-17.408-16.384 28.672-26.624 6.144-6.144 68.608-65.536 7.168-6.144z" />
<glyph unicode="&#xe825;" glyph-name="inactive" data-tags="inactive" d="M332.8 121.6v460.8h256v-102.4h102.4v-358.4h-358.4zM624.64 633.6h-291.84c-28.672 0-51.2-22.528-51.2-51.2v-460.8c0-28.672 22.528-51.2 51.2-51.2h358.4c28.672 0 51.2 22.528 51.2 51.2v394.24l-117.76 117.76zM512 217.856c-16.384 0-30.72 4.096-43.008 12.288l113.664 113.664c8.192-12.288 12.288-26.624 12.288-43.008 0-46.080-36.864-82.944-82.944-82.944M512 383.744c16.384 0 30.72-4.096 44.032-12.288l-114.688-113.664c-8.192 12.288-12.288 26.624-12.288 43.008 0 46.080 36.864 82.944 82.944 82.944M512 422.656c-66.56 0-121.856-54.272-121.856-121.856 0-66.56 55.296-121.856 121.856-121.856 67.584 0 121.856 55.296 121.856 121.856 0 67.584-54.272 121.856-121.856 121.856" />
<glyph unicode="&#xe826;" glyph-name="questions-block" data-tags="questions-block" d="M793.6 275.2h-409.6v307.2h307.2v-102.4h102.4v-204.8zM727.040 633.6h-343.040c-28.672 0-51.2-22.528-51.2-51.2v-307.2c0-28.672 22.528-51.2 51.2-51.2h409.6c28.672 0 51.2 22.528 51.2 51.2v240.64l-117.76 117.76zM614.4 480h-179.2v-51.2h179.2v51.2zM435.2 326.4h281.6v51.2h-281.6v-51.2zM307.2 531.2h-51.2v-332.8c0-28.672 22.528-51.2 51.2-51.2h384v51.2h-384v332.8zM230.4 454.4h-51.2v-332.8c0-28.672 22.528-51.2 51.2-51.2h384v51.2h-384v332.8z" />
<glyph unicode="&#xe827;" glyph-name="notification" data-tags="notification" d="M423.936 172.8c17.408-30.72 50.176-51.2 88.064-51.2s70.656 20.48 88.064 51.2h-176.128zM359.424 249.6h305.152c-30.72 25.6-50.176 64.512-50.176 106.496v72.704c0 56.32-46.080 102.4-102.4 102.4s-102.4-46.080-102.4-102.4v-72.704c0-41.984-19.456-80.896-50.176-106.496v0zM742.4 198.4h-460.8v69.632l17.408 6.144c35.84 11.264 59.392 45.056 59.392 81.92v72.704c0 84.992 68.608 153.6 153.6 153.6s153.6-68.608 153.6-153.6v-72.704c0-36.864 23.552-70.656 59.392-81.92l17.408-6.144v-69.632z" />
<glyph unicode="&#xe828;" glyph-name="group" data-tags="group" d="M486.4 147.2v128h51.2c28.672 0 51.2 22.528 51.2 51.2v51.2h128v-230.4h-230.4zM537.6 326.4h-51.2v51.2h51.2v-51.2zM307.2 326.4v230.4h230.4v-128h-51.2c-28.672 0-51.2-22.528-51.2-51.2v-51.2h-128zM716.8 428.8h-128v128c0 28.672-22.528 51.2-51.2 51.2h-230.4c-28.672 0-51.2-22.528-51.2-51.2v-230.4c0-28.672 22.528-51.2 51.2-51.2h128v-128c0-28.672 22.528-51.2 51.2-51.2h230.4c28.672 0 51.2 22.528 51.2 51.2v230.4c0 28.672-22.528 51.2-51.2 51.2v0z" />
<glyph unicode="&#xe829;" glyph-name="photo-gallery" data-tags="photo-gallery" d="M691.2 198.4h-358.4v256h358.4v-256zM307.2 531.2h409.6v-25.6h-409.6v25.6zM768 480v76.8c0 14.336-12.288 25.6-25.6 25.6h-460.8c-14.336 0-25.6-11.264-25.6-25.6v-76.8c0-14.336 11.264-25.6 25.6-25.6v-256h-25.6v-51.2h230.4v-51.2h51.2v51.2h230.4v51.2h-25.6v256c13.312 0 25.6 11.264 25.6 25.6v0zM665.6 224v51.2h-32.768l-46.080 136.192c-3.072 10.24-12.288 17.408-23.552 17.408s-21.504-7.168-24.576-17.408l-34.816-104.448-21.504 33.792c-10.24 14.336-33.792 14.336-43.008 0l-43.008-65.536h-37.888v-51.2h307.2zM409.6 377.6c14.336 0 25.6 11.264 25.6 25.6s-11.264 25.6-25.6 25.6c-14.336 0-25.6-11.264-25.6-25.6s11.264-25.6 25.6-25.6" />
<glyph unicode="&#xe82a;" glyph-name="help" data-tags="help" d="M512 556.8c-112.64 0-204.8-92.16-204.8-204.8s92.16-204.8 204.8-204.8c112.64 0 204.8 92.16 204.8 204.8s-92.16 204.8-204.8 204.8M512 96c-141.312 0-256 114.688-256 256s114.688 256 256 256c141.312 0 256-114.688 256-256s-114.688-256-256-256M537.6 275.2h-51.2v76.8h25.6c28.672 0 51.2 22.528 51.2 51.2s-22.528 51.2-51.2 51.2c-28.672 0-51.2-22.528-51.2-51.2h-51.2c0 56.32 46.080 102.4 102.4 102.4s102.4-46.080 102.4-102.4c0-47.104-32.768-88.064-76.8-99.328v-28.672zM543.744 224c0-17.408-14.336-31.744-31.744-31.744s-31.744 14.336-31.744 31.744c0 17.408 14.336 31.744 31.744 31.744s31.744-14.336 31.744-31.744" />
<glyph unicode="&#xe82b;" glyph-name="github" data-tags="github" d="M510.976 608c-141.312 0-254.976-113.664-254.976-254.976 0-123.904 89.088-227.328 205.824-249.856 1.024 2.048 2.048 4.096 2.048 6.144 0 1.024 0 6.144 0 16.384 0 11.264 0 20.48 0 27.648l-7.168-1.024c-5.12-1.024-10.24-1.024-17.408-1.024s-14.336 1.024-21.504 2.048c-7.168 1.024-14.336 4.096-20.48 9.216s-11.264 11.264-13.312 19.456l-3.072 6.144c-2.048 5.12-6.144 10.24-10.24 16.384-4.096 5.12-9.216 9.216-13.312 11.264l-2.048 2.048c-1.024 1.024-3.072 2.048-4.096 3.072-1.024 2.048-2.048 3.072-3.072 5.12 0 1.024 0 2.048 2.048 3.072 1.024 1.024 4.096 1.024 9.216 1.024l6.144-1.024c4.096 0 9.216-3.072 14.336-7.168 6.144-4.096 11.264-9.216 15.36-15.36 5.12-9.216 10.24-15.36 17.408-19.456 6.144-5.12 13.312-7.168 19.456-7.168 7.168 0 13.312 1.024 18.432 2.048 4.096 1.024 9.216 2.048 13.312 4.096 2.048 14.336 7.168 24.576 15.36 31.744-12.288 2.048-22.528 3.072-31.744 6.144-9.216 2.048-18.432 6.144-28.672 12.288-10.24 5.12-18.432 12.288-24.576 20.48-7.168 8.192-12.288 18.432-16.384 31.744s-6.144 28.672-6.144 46.080c0 25.6 8.192 46.080 23.552 63.488-7.168 19.456-6.144 39.936 2.048 63.488 6.144 2.048 15.36 0 26.624-4.096 12.288-5.12 20.48-9.216 25.6-12.288 6.144-3.072 10.24-6.144 13.312-8.192 19.456 5.12 38.912 8.192 59.392 8.192s39.936-3.072 59.392-8.192l11.264 7.168c8.192 5.12 17.408 10.24 28.672 14.336s19.456 5.12 24.576 3.072c9.216-23.552 10.24-44.032 3.072-63.488 16.384-17.408 24.576-37.888 24.576-63.488 0-17.408-2.048-32.768-7.168-46.080-4.096-13.312-9.216-24.576-16.384-31.744-6.144-8.192-14.336-15.36-24.576-20.48-10.24-6.144-19.456-10.24-28.672-12.288-9.216-3.072-20.48-4.096-31.744-6.144 10.24-9.216 16.384-23.552 16.384-43.008v-65.536c0 0 0 0 0-1.024 106.496 30.72 184.32 129.024 184.32 244.736 0 141.312-114.688 254.976-254.976 254.976" />
<glyph unicode="&#xe82c;" glyph-name="download" data-tags="download" d="M665.6 198.4v-51.2h-307.2v51.2h-51.2v-51.2c0-28.672 22.528-51.2 51.2-51.2h307.2c28.672 0 51.2 22.528 51.2 51.2v51.2h-51.2zM460.8 377.6c14.336 0 25.6 11.264 25.6 25.6v153.6h51.2v-153.6c0-14.336 11.264-25.6 25.6-25.6h15.36l-66.56-66.56-66.56 66.56h15.36zM493.568 256.768c5.12-5.12 12.288-7.168 18.432-7.168s13.312 2.048 18.432 7.168l128 128c7.168 8.192 9.216 18.432 5.12 28.672-4.096 9.216-13.312 15.36-23.552 15.36h-51.2v153.6c0 14.336-11.264 25.6-25.6 25.6h-102.4c-14.336 0-25.6-11.264-25.6-25.6v-153.6h-51.2c-10.24 0-19.456-6.144-23.552-15.36-4.096-10.24-2.048-20.48 5.12-28.672l128-128z" />
<glyph unicode="&#xe82d;" glyph-name="form" data-tags="form" d="M665.6 147.2h-307.2v409.6h204.8v-102.4h102.4v-307.2zM599.040 608h-240.64c-28.672 0-51.2-22.528-51.2-51.2v-409.6c0-28.672 22.528-51.2 51.2-51.2h307.2c28.672 0 51.2 22.528 51.2 51.2v343.040l-117.76 117.76z" />
<glyph unicode="&#xe82e;" glyph-name="view-all" data-tags="view-all" d="M409.6 480h358.4v51.2h-358.4v-51.2zM409.6 300.8h358.4v51.2h-358.4v-51.2zM409.6 121.6h358.4v51.2h-358.4v-51.2zM281.6 198.4c0 14.336 11.264 25.6 25.6 25.6h25.6c14.336 0 25.6-11.264 25.6-25.6v-76.8c0-14.336-11.264-25.6-25.6-25.6h-25.6c-14.336 0-25.6 11.264-25.6 25.6v76.8zM307.2 186.112c0 7.168 6.144 12.288 13.312 12.288v0c6.144 0 12.288-5.12 12.288-12.288v-52.224c0-6.144-6.144-12.288-12.288-12.288v0c-7.168 0-13.312 5.12-13.312 12.288v52.224zM281.6 286.464v0 116.736h38.912c20.48 0 37.888-17.408 37.888-37.888 0-10.24-4.096-19.456-10.24-25.6 6.144-7.168 10.24-16.384 10.24-25.6 0-21.504-17.408-38.912-37.888-38.912h-38.912v11.264zM307.2 300.8h13.312c6.144 0 12.288 6.144 12.288 13.312 0 6.144-6.144 12.288-12.288 12.288v0h-13.312v-25.6zM307.2 352h13.312c6.144 0 12.288 6.144 12.288 13.312 0 6.144-6.144 12.288-12.288 12.288h-13.312v-25.6zM332.8 172.8h25.6v-25.6h-25.6v25.6zM307.2 556.8h25.6v-25.6h-25.6v25.6zM294.912 582.4c-7.168 0-13.312-7.168-13.312-16.384v-111.616h25.6v51.2h26.624l-1.024-51.2h25.6v111.616c0 9.216-6.144 16.384-12.288 16.384h-51.2z" />
<glyph unicode="&#xe82f;" glyph-name="forms" data-tags="forms" d="M716.8 249.6h-256v358.4h153.6v-102.4h102.4v-256zM650.24 659.2h-189.44c-28.672 0-51.2-22.528-51.2-51.2v-358.4c0-28.672 22.528-51.2 51.2-51.2h256c28.672 0 51.2 22.528 51.2 51.2v291.84l-117.76 117.76zM384 582.4h-51.2v-409.6c0-28.672 22.528-51.2 51.2-51.2h307.2v51.2h-307.2v409.6zM307.2 505.6h-51.2v-409.6c0-28.672 22.528-51.2 51.2-51.2h307.2v51.2h-307.2v409.6z" />
<glyph unicode="&#xe830;" glyph-name="view" data-tags="view" d="M819.2 352l-11.264-15.36c-5.12-6.144-125.952-163.84-295.936-163.84s-290.816 157.696-295.936 163.84l-11.264 15.36 11.264 15.36c5.12 7.168 125.952 163.84 295.936 163.84s290.816-156.672 295.936-163.84l11.264-15.36zM512 221.952c109.568 0 202.752 91.136 237.568 130.048-34.816 38.912-128 130.048-237.568 130.048s-202.752-91.136-236.544-130.048c33.792-38.912 126.976-130.048 236.544-130.048zM512 275.2c-41.984 0-76.8 34.816-76.8 76.8s34.816 76.8 76.8 76.8c41.984 0 76.8-34.816 76.8-76.8s-34.816-76.8-76.8-76.8z" />
<glyph unicode="&#xe831;" glyph-name="map-view" data-tags="map-view" d="M537.6 149.248l-76.8 61.44v292.864l76.8-61.44v-292.864zM307.2 441.088l102.4 67.584v-296.96l-102.4-67.584v296.96zM731.136 176.896c7.168 5.12 11.264 13.312 11.264 21.504v76.8h-51.2v-63.488l-102.4-67.584v310.272c0 8.192-3.072 15.36-9.216 20.48l-128 102.4c-4.096 2.048-10.24 5.12-15.36 5.12-6.144 0-11.264-2.048-15.36-4.096l-153.6-102.4c-7.168-5.12-11.264-13.312-11.264-21.504v-358.4c0-9.216 5.12-18.432 13.312-22.528 4.096-2.048 8.192-3.072 12.288-3.072 5.12 0 10.24 1.024 14.336 4.096l138.24 92.16 112.64-90.112c5.12-4.096 10.24-6.144 16.384-6.144 7.168 0 10.24 2.048 14.336 4.096l153.6 102.4zM716.8 582.4c28.672 0 51.2-22.528 51.2-51.2 0-40.96-28.672-96.256-51.2-133.12-22.528 36.864-51.2 92.16-51.2 133.12 0 28.672 22.528 51.2 51.2 51.2v0zM716.8 308.992l20.48 27.648c3.072 4.096 81.92 110.592 81.92 194.56 0 56.32-46.080 102.4-102.4 102.4s-102.4-46.080-102.4-102.4c0-83.968 78.848-190.464 81.92-194.56l20.48-27.648zM742.4 531.2c0 14.336-11.264 25.6-25.6 25.6s-25.6-11.264-25.6-25.6c0-14.336 11.264-25.6 25.6-25.6s25.6 11.264 25.6 25.6" />
<glyph unicode="&#xe833;" glyph-name="projects" data-tags="projects" d="M384 275.2h51.2v51.2h-51.2v-51.2zM435.2 428.8h-51.2v-51.2h51.2v51.2zM384 172.8h51.2v51.2h-51.2v-51.2zM486.4 275.2h153.6v51.2h-153.6v-51.2zM588.8 428.8h-102.4v-51.2h102.4v51.2zM486.4 172.8h153.6v51.2h-153.6v-51.2zM384 608v51.2h256v-51.2h51.2c28.672 0 51.2-22.528 51.2-51.2v-460.8c0-27.648-22.528-51.2-51.2-51.2h-358.4c-28.672 0-51.2 23.552-51.2 51.2v460.8c0 28.672 22.528 51.2 51.2 51.2h51.2zM384 556.8h-51.2v-460.8h358.4v460.8h-51.2v-51.2h-256v51.2zM435.2 608v-51.2h153.6v51.2h-153.6z" />
<glyph unicode="&#xe834;" glyph-name="table" data-tags="table" d="M691.2 198.4h-358.4v256h358.4v-256zM307.2 531.2h409.6v-25.6h-409.6v25.6zM768 480v76.8c0 14.336-12.288 25.6-25.6 25.6h-460.8c-14.336 0-25.6-11.264-25.6-25.6v-76.8c0-14.336 11.264-25.6 25.6-25.6v-256h-25.6v-51.2h230.4v-51.2h51.2v51.2h230.4v51.2h-25.6v256c13.312 0 25.6 11.264 25.6 25.6v0zM358.4 224h76.8v51.2h-76.8v-51.2zM460.8 224h204.8v51.2h-204.8v-51.2zM358.4 300.8h76.8v51.2h-76.8v-51.2zM460.8 300.8h204.8v51.2h-204.8v-51.2zM358.4 377.6h76.8v51.2h-76.8v-51.2zM460.8 377.6h204.8v51.2h-204.8v-51.2z" />
<glyph unicode="&#xe835;" glyph-name="grid" data-tags="grid" d="M307.2 556.8v-51.2h51.2v51.2h-51.2zM358.4 454.4h-51.2c-28.672 0-51.2 22.528-51.2 51.2v51.2c0 28.672 22.528 51.2 51.2 51.2h51.2c28.672 0 51.2-22.528 51.2-51.2v-51.2c0-28.672-22.528-51.2-51.2-51.2v0zM307.2 377.6v-51.2h51.2v51.2h-51.2zM358.4 275.2h-51.2c-28.672 0-51.2 22.528-51.2 51.2v51.2c0 28.672 22.528 51.2 51.2 51.2h51.2c28.672 0 51.2-22.528 51.2-51.2v-51.2c0-28.672-22.528-51.2-51.2-51.2v0zM307.2 198.4v-51.2h51.2v51.2h-51.2zM358.4 96h-51.2c-28.672 0-51.2 22.528-51.2 51.2v51.2c0 28.672 22.528 51.2 51.2 51.2h51.2c28.672 0 51.2-22.528 51.2-51.2v-51.2c0-28.672-22.528-51.2-51.2-51.2v0zM486.4 556.8v-51.2h51.2v51.2h-51.2zM537.6 454.4h-51.2c-28.672 0-51.2 22.528-51.2 51.2v51.2c0 28.672 22.528 51.2 51.2 51.2h51.2c28.672 0 51.2-22.528 51.2-51.2v-51.2c0-28.672-22.528-51.2-51.2-51.2v0zM486.4 377.6v-51.2h51.2v51.2h-51.2zM537.6 275.2h-51.2c-28.672 0-51.2 22.528-51.2 51.2v51.2c0 28.672 22.528 51.2 51.2 51.2h51.2c28.672 0 51.2-22.528 51.2-51.2v-51.2c0-28.672-22.528-51.2-51.2-51.2v0zM486.4 198.4v-51.2h51.2v51.2h-51.2zM537.6 96h-51.2c-28.672 0-51.2 22.528-51.2 51.2v51.2c0 28.672 22.528 51.2 51.2 51.2h51.2c28.672 0 51.2-22.528 51.2-51.2v-51.2c0-28.672-22.528-51.2-51.2-51.2v0zM665.6 556.8v-51.2h51.2v51.2h-51.2zM716.8 454.4h-51.2c-28.672 0-51.2 22.528-51.2 51.2v51.2c0 28.672 22.528 51.2 51.2 51.2h51.2c28.672 0 51.2-22.528 51.2-51.2v-51.2c0-28.672-22.528-51.2-51.2-51.2v0zM665.6 377.6v-51.2h51.2v51.2h-51.2zM716.8 275.2h-51.2c-28.672 0-51.2 22.528-51.2 51.2v51.2c0 28.672 22.528 51.2 51.2 51.2h51.2c28.672 0 51.2-22.528 51.2-51.2v-51.2c0-28.672-22.528-51.2-51.2-51.2v0zM665.6 198.4v-51.2h51.2v51.2h-51.2zM716.8 96h-51.2c-28.672 0-51.2 22.528-51.2 51.2v51.2c0 28.672 22.528 51.2 51.2 51.2h51.2c28.672 0 51.2-22.528 51.2-51.2v-51.2c0-28.672-22.528-51.2-51.2-51.2v0z" />
<glyph unicode="&#xe836;" glyph-name="clone" data-tags="clone" d="M691.2 224v256h-102.4v102.4h-153.6v-358.4h256zM624.64 633.6l117.76-117.76v-291.84c0-28.672-22.528-51.2-51.2-51.2h-256c-28.672 0-51.2 22.528-51.2 51.2v358.4c0 28.672 22.528 51.2 51.2 51.2h189.44zM332.8 531.2v-409.6h307.2v-51.2h-307.2c-28.672 0-51.2 22.528-51.2 51.2v409.6h51.2z" />
<glyph unicode="&#xe837;" glyph-name="cascading" data-tags="cascading" d="M742.4 275.2h-256v51.2h256v-51.2zM281.6 147.2h256v-51.2h-256v51.2zM332.8 608h256v-51.2h-256v51.2zM665.6 377.6c0 41.984-34.816 76.8-76.8 76.8h-76.8c-14.336 0-25.6 11.264-25.6 25.6v25.6h128c14.336 0 25.6 11.264 25.6 25.6v102.4c0 14.336-11.264 25.6-25.6 25.6h-307.2c-14.336 0-25.6-11.264-25.6-25.6v-102.4c0-14.336 11.264-25.6 25.6-25.6h128v-25.6c0-41.984 34.816-76.8 76.8-76.8h76.8c14.336 0 25.6-11.264 25.6-25.6h-153.6c-14.336 0-25.6-11.264-25.6-25.6v-102.4c0-14.336 11.264-25.6 25.6-25.6h179.2v-51.2c0-14.336-11.264-25.6-25.6-25.6h-25.6v25.6c0 14.336-11.264 25.6-25.6 25.6h-307.2c-14.336 0-25.6-11.264-25.6-25.6v-102.4c0-14.336 11.264-25.6 25.6-25.6h307.2c14.336 0 25.6 11.264 25.6 25.6v25.6h25.6c41.984 0 76.8 34.816 76.8 76.8v51.2h76.8c14.336 0 25.6 11.264 25.6 25.6v102.4c0 14.336-11.264 25.6-25.6 25.6h-102.4z" />
<glyph unicode="&#xe838;" glyph-name="link-anyone" data-tags="link-anyone" d="M409.6 409.344c28.672 0 51.2-23.552 51.2-51.2 0-28.672-22.528-51.2-51.2-51.2s-51.2 22.528-51.2 51.2c0 27.648 22.528 51.2 51.2 51.2M409.6 255.744c56.32 0 102.4 45.056 102.4 102.4 0 56.32-46.080 102.4-102.4 102.4s-102.4-46.080-102.4-102.4c0-57.344 46.080-102.4 102.4-102.4M260.096 102.144c15.36 46.080 72.704 76.8 149.504 76.8s134.144-30.72 149.504-76.8h-299.008zM409.6 230.144c-120.832 0-204.8-63.488-204.8-153.6v-25.6h409.6v25.6c0 90.112-83.968 153.6-204.8 153.6v0zM561.152 469.76l26.624 27.648-4.096 4.096c-2.048 2.048-2.048 4.096-2.048 5.12s0 2.048 2.048 4.096l108.544 108.544c1.024 2.048 3.072 2.048 4.096 2.048s3.072 0 5.12-2.048l4.096-4.096 27.648 26.624-5.12 5.12c-16.384 16.384-46.080 16.384-63.488 0l-108.544-108.544c-8.192-9.216-13.312-20.48-13.312-31.744 0-12.288 5.12-23.552 13.312-31.744l5.12-5.12zM795.648 578.304l-26.624-26.624 4.096-5.12c3.072-2.048 3.072-6.144 0-8.192l-108.544-108.544c-1.024-2.048-3.072-2.048-4.096-2.048s-3.072 0-5.12 2.048l-4.096 4.096-26.624-27.648 4.096-4.096c8.192-8.192 19.456-13.312 31.744-13.312s23.552 5.12 31.744 13.312l108.544 108.544c17.408 17.408 17.408 46.080 0 63.488l-5.12 4.096zM710.656 529.152l-27.648 26.624 90.112 91.136 27.648-27.648-90.112-90.112zM583.68 402.176l-27.648 27.648 91.136 90.112 26.624-27.648-90.112-90.112z" />
<glyph unicode="&#xe839;" glyph-name="link-off" data-tags="link-off" d="M409.6 198.4h-25.6c-14.336 0-25.6-11.264-25.6-25.6v-76.8h-51.2v76.8c0 14.336-11.264 25.6-25.6 25.6h-25.6v25.6c0 41.984 34.816 76.8 76.8 76.8s76.8-34.816 76.8-76.8v-25.6zM332.8 442.112c14.336 0 25.6-12.288 25.6-25.6 0-14.336-11.264-25.6-25.6-25.6s-25.6 11.264-25.6 25.6c0 13.312 11.264 25.6 25.6 25.6v0zM460.8 224c0 59.392-39.936 108.544-95.232 122.88 26.624 12.288 44.032 38.912 44.032 69.632 0 41.984-34.816 76.8-76.8 76.8s-76.8-34.816-76.8-76.8c0-30.72 18.432-57.344 44.032-69.632-55.296-14.336-95.232-63.488-95.232-122.88v-51.2c0-14.336 11.264-25.6 25.6-25.6h25.6v-76.8c0-14.336 11.264-25.6 25.6-25.6h102.4c14.336 0 25.6 11.264 25.6 25.6v76.8h25.6c14.336 0 25.6 11.264 25.6 25.6v51.2zM512 96c0 28.672 22.528 51.2 51.2 51.2s51.2-22.528 51.2-51.2h-102.4zM608.256 187.136c19.456 14.336 31.744 36.864 31.744 62.464h-51.2c0-14.336-11.264-25.6-25.6-25.6s-25.6 11.264-25.6 25.6h-51.2c0-25.6 12.288-48.128 31.744-62.464-33.792-16.384-57.344-51.2-57.344-91.136v-25.6c0-14.336 11.264-25.6 25.6-25.6h153.6c14.336 0 25.6 11.264 25.6 25.6v25.6c0 39.936-23.552 74.752-57.344 91.136v0zM768 377.6h-153.6v128h153.6v-128zM691.2 608c28.672 0 51.2-22.528 51.2-51.2h-102.4c0 28.672 22.528 51.2 51.2 51.2v0zM793.6 556.8c0 56.32-46.080 102.4-102.4 102.4s-102.4-46.080-102.4-102.4c-14.336 0-25.6-11.264-25.6-25.6v-179.2c0-14.336 11.264-25.6 25.6-25.6h204.8c14.336 0 25.6 11.264 25.6 25.6v179.2c0 14.336-11.264 25.6-25.6 25.6v0zM716.8 454.4c0-14.336-11.264-25.6-25.6-25.6s-25.6 11.264-25.6 25.6c0 14.336 11.264 25.6 25.6 25.6s25.6-11.264 25.6-25.6" />
<glyph unicode="&#xe83a;" glyph-name="arrow-last" data-tags="arrow-last" d="M358.4 136.96l-35.84 35.84 179.2 179.2-179.2 179.2 35.84 35.84 215.040-215.040-215.040-215.040zM486.4 136.96l-35.84 35.84 179.2 179.2-179.2 179.2 35.84 35.84 215.040-215.040-215.040-215.040z" />
<glyph unicode="&#xe83c;" glyph-name="camera" data-tags="camera" d="M512 249.6c-41.984 0-76.8 34.816-76.8 76.8s34.816 76.8 76.8 76.8c41.984 0 76.8-34.816 76.8-76.8s-34.816-76.8-76.8-76.8M512 454.4c-70.656 0-128-57.344-128-128s57.344-128 128-128c70.656 0 128 57.344 128 128s-57.344 128-128 128M307.2 172.8v281.6h115.712l51.2 76.8h74.752l51.2-76.8h116.736v-281.6h-409.6zM716.8 505.6h-89.088l-35.84 54.272c-9.216 14.336-25.6 22.528-43.008 22.528h-74.752c-17.408 0-32.768-8.192-41.984-22.528l-35.84-54.272h-89.088c-28.672 0-51.2-22.528-51.2-51.2v-281.6c0-27.648 22.528-51.2 51.2-51.2h409.6c27.648 0 51.2 23.552 51.2 51.2v281.6c0 28.672-23.552 51.2-51.2 51.2v0z" />
<glyph unicode="&#xe83e;" glyph-name="comment-reply" data-tags="comment-reply" d="M588.8 300.8v-102.4h-187.392l-68.608-51.2v51.2h-76.8v230.4h204.8v51.2h-204.8c-28.672 0-51.2-22.528-51.2-51.2v-230.4c0-28.672 22.528-51.2 51.2-51.2h25.6v-102.4l136.192 102.4h171.008c28.672 0 51.2 22.528 51.2 51.2v102.4h-51.2zM665.6 659.2c-84.992 0-153.6-68.608-153.6-153.6h51.2c0 56.32 46.080 102.4 102.4 102.4s102.4-46.080 102.4-102.4c0-56.32-46.080-102.4-102.4-102.4-27.648 0-53.248 10.24-70.656 28.672l-2.048 1.024 47.104 47.104h-128v-128l45.056 45.056c28.672-28.672 67.584-45.056 108.544-45.056 84.992 0 153.6 68.608 153.6 153.6s-68.608 153.6-153.6 153.6" />
<glyph unicode="&#xe83f;" glyph-name="data-sync" data-tags="data-sync" d="M435.2 608c116.736 0 179.2-35.84 179.2-51.2 0-14.336-62.464-51.2-179.2-51.2s-179.2 36.864-179.2 51.2c0 15.36 62.464 51.2 179.2 51.2v0zM460.8 199.424c-8.192-1.024-16.384-1.024-25.6-1.024-116.736 0-179.2 36.864-179.2 51.2v35.84c44.032-23.552 111.616-35.84 179.2-35.84 8.192 0 17.408 0 25.6 1.024v51.2c-8.192-1.024-16.384-1.024-25.6-1.024-116.736 0-179.2 36.864-179.2 51.2v35.84c44.032-23.552 111.616-35.84 179.2-35.84 8.192 0 17.408 0 25.6 1.024v51.2c-8.192-1.024-16.384-1.024-25.6-1.024-116.736 0-179.2 36.864-179.2 51.2v35.84c44.032-23.552 111.616-35.84 179.2-35.84s135.168 12.288 179.2 35.84v-35.84c0 0 0 0 0 0h51.2v102.4c0 67.584-115.712 102.4-230.4 102.4s-230.4-34.816-230.4-102.4v-307.2c0-67.584 115.712-102.4 230.4-102.4 8.192 0 17.408 0 25.6 1.024v51.2zM665.6 96c-27.648 0-53.248 11.264-71.68 30.72l46.080 46.080h-128v-128l45.056 45.056c28.672-28.672 67.584-45.056 108.544-45.056 84.992 0 153.6 68.608 153.6 153.6h-51.2c0-56.32-46.080-102.4-102.4-102.4M774.144 306.944c-28.672 28.672-67.584 45.056-108.544 45.056-84.992 0-153.6-68.608-153.6-153.6h51.2c0 56.32 46.080 102.4 102.4 102.4 27.648 0 53.248-11.264 71.68-30.72l-46.080-46.080h128v128l-45.056-45.056z" />
<glyph unicode="&#xe840;" glyph-name="date-and-time" data-tags="date-and-time" d="M409.6 198.4h-153.6v256h460.8v76.8c0 28.672-22.528 51.2-51.2 51.2h-25.6v76.8h-51.2v-128h-25.6v51.2h-179.2v76.8h-51.2v-128h-25.6v51.2h-51.2c-28.672 0-51.2-22.528-51.2-51.2v-332.8c0-28.672 22.528-51.2 51.2-51.2h153.6v51.2zM640 352c-70.656 0-128-57.344-128-128s57.344-128 128-128c70.656 0 128 57.344 128 128s-57.344 128-128 128M640 44.8c-98.304 0-179.2 80.896-179.2 179.2 0 99.328 80.896 179.2 179.2 179.2 99.328 0 179.2-79.872 179.2-179.2 0-98.304-79.872-179.2-179.2-179.2M716.8 198.4h-102.4v128h51.2v-76.8h51.2v-51.2z" />
<glyph unicode="&#xe841;" glyph-name="date" data-tags="date" d="M742.4 556.8c28.672 0 51.2-22.528 51.2-51.2v-384c0-28.672-22.528-51.2-51.2-51.2h-460.8c-28.672 0-51.2 22.528-51.2 51.2v384c0 28.672 22.528 51.2 51.2 51.2h51.2v-51.2h-51.2v-384h460.8v384h-76.8v-51.2h-51.2v153.6h51.2v-51.2h76.8zM409.6 505.6v-51.2h-51.2v153.6h51.2v-51.2h179.2v-51.2h-179.2zM435.2 403.2v-102.4h-102.4v102.4h102.4zM563.2 403.2v-102.4h-102.4v102.4h102.4zM588.8 300.8v102.4h102.4v-102.4h-102.4zM332.8 172.8v102.4h102.4v-102.4h-102.4zM460.8 172.8v102.4h102.4v-102.4h-102.4z" />
<glyph unicode="&#xe842;" glyph-name="form-overview" data-tags="form-overview" d="M256 608h256v-102.4h102.4v-51.2h51.2v87.040l-117.76 117.76h-291.84c-28.672 0-51.2-22.528-51.2-51.2v-460.8c0-28.672 22.528-51.2 51.2-51.2h153.6v51.2h-153.6v460.8zM307.2 275.2h76.8v51.2h-76.8v-51.2zM307.2 377.6h128v51.2h-128v-51.2zM640 96c-70.656 0-128 57.344-128 128s57.344 128 128 128c70.656 0 128-57.344 128-128s-57.344-128-128-128M640 403.2c-98.304 0-179.2-79.872-179.2-179.2 0-98.304 80.896-179.2 179.2-179.2 99.328 0 179.2 80.896 179.2 179.2 0 99.328-79.872 179.2-179.2 179.2M614.4 121.6h51.2v102.4h-51.2v-102.4zM640 300.8c-14.336 0-25.6-11.264-25.6-25.6s11.264-25.6 25.6-25.6c14.336 0 25.6 11.264 25.6 25.6s-11.264 25.6-25.6 25.6" />
<glyph unicode="&#xe843;" glyph-name="gps" data-tags="gps" d="M512 403.2c-28.672 0-51.2 22.528-51.2 51.2s22.528 51.2 51.2 51.2c28.672 0 51.2-22.528 51.2-51.2s-22.528-51.2-51.2-51.2M512 96c-122.88 0-256 31.744-256 102.4 0 24.576 16.384 58.368 95.232 81.92l15.36-49.152c-49.152-14.336-59.392-30.72-59.392-32.768 0-13.312 70.656-51.2 204.8-51.2s204.8 37.888 204.8 51.2c0 2.048-10.24 18.432-58.368 32.768l14.336 49.152c78.848-23.552 95.232-57.344 95.232-81.92 0-70.656-133.12-102.4-256-102.4M512 556.8c-56.32 0-102.4-46.080-102.4-102.4 0-63.488 63.488-148.48 102.4-192.512 39.936 44.032 102.4 129.024 102.4 192.512 0 56.32-46.080 102.4-102.4 102.4v0zM512 188.16l-18.432 17.408c-5.12 6.144-135.168 137.216-135.168 248.832 0 84.992 68.608 153.6 153.6 153.6s153.6-68.608 153.6-153.6c0-111.616-130.048-242.688-135.168-248.832l-18.432-17.408z" />
<glyph unicode="&#xe844;" glyph-name="heatmap" data-tags="heatmap" d="M332.8 403.2c-41.984 0-76.8 34.816-76.8 76.8s34.816 76.8 76.8 76.8c41.984 0 76.8-34.816 76.8-76.8s-34.816-76.8-76.8-76.8zM691.2 454.4c-41.984 0-76.8 34.816-76.8 76.8s34.816 76.8 76.8 76.8c41.984 0 76.8-34.816 76.8-76.8s-34.816-76.8-76.8-76.8zM716.8 198.4c-28.672 0-51.2 22.528-51.2 51.2s22.528 51.2 51.2 51.2c28.672 0 51.2-22.528 51.2-51.2s-22.528-51.2-51.2-51.2zM525.312 96c-35.84 0-64.512 28.672-64.512 64.512 0 34.816 28.672 63.488 64.512 63.488 34.816 0 63.488-28.672 63.488-63.488 0-35.84-28.672-64.512-63.488-64.512zM294.912 96c-21.504 0-38.912 17.408-38.912 38.912 0 20.48 17.408 37.888 38.912 37.888 20.48 0 37.888-17.408 37.888-37.888 0-21.504-17.408-38.912-37.888-38.912zM537.6 249.6c-70.656 0-128 57.344-128 128s57.344 128 128 128c70.656 0 128-57.344 128-128s-57.344-128-128-128z" />
<glyph unicode="&#xe845;" glyph-name="information" data-tags="information" d="M512 556.8c-112.64 0-204.8-92.16-204.8-204.8s92.16-204.8 204.8-204.8c112.64 0 204.8 92.16 204.8 204.8s-92.16 204.8-204.8 204.8M512 96c-141.312 0-256 114.688-256 256s114.688 256 256 256c141.312 0 256-114.688 256-256s-114.688-256-256-256M537.6 275.2v102.4c0 14.336-11.264 25.6-25.6 25.6h-51.2v-51.2h25.6v-76.8h-51.2v-51.2h153.6v51.2h-51.2zM543.744 454.4c0-17.408-14.336-31.744-31.744-31.744s-31.744 14.336-31.744 31.744c0 17.408 14.336 31.744 31.744 31.744s31.744-14.336 31.744-31.744" />
<glyph unicode="&#xe846;" glyph-name="instagram" data-tags="instagram" d="M510.976 137.984v0c37.888 0 74.752-1.024 112.64 0 30.72 1.024 57.344 12.288 75.776 37.888 13.312 17.408 18.432 37.888 18.432 58.368 1.024 72.704 1.024 145.408 0 218.112-1.024 62.464-35.84 97.28-98.304 99.328-71.68 1.024-144.384 1.024-216.064 0-62.464-2.048-97.28-35.84-99.328-98.304-1.024-72.704-1.024-145.408 0-218.112 2.048-60.416 36.864-95.232 97.28-97.28 36.864-1.024 73.728 0 109.568 0M256 242.432v204.8c1.024 5.12 2.048 11.264 2.048 17.408 4.096 65.536 46.080 115.712 109.568 129.024 14.336 3.072 27.648 4.096 41.984 6.144h203.776c5.12-1.024 10.24-2.048 16.384-2.048 74.752-4.096 132.096-58.368 133.12-134.144 2.048-79.872 2.048-158.72 0-238.592-2.048-73.728-58.368-130.048-132.096-132.096-79.872-2.048-159.744-2.048-239.616 0-65.536 1.024-115.712 46.080-129.024 109.568-3.072 13.312-4.096 26.624-6.144 39.936M595.968 344.832c0 47.104-37.888 84.992-84.992 84.992s-84.992-37.888-83.968-84.992c0-47.104 36.864-83.968 83.968-84.992 47.104 0 84.992 37.888 84.992 84.992M509.952 213.76c-72.704 1.024-131.072 59.392-130.048 132.096 1.024 73.728 60.416 131.072 133.12 130.048s129.024-59.392 129.024-132.096c-1.024-72.704-59.392-130.048-132.096-130.048M647.168 511.744c17.408 0 30.72-13.312 30.72-30.72s-13.312-30.72-30.72-30.72c-16.384 0-30.72 14.336-30.72 30.72s13.312 30.72 30.72 30.72" />
<glyph unicode="&#xe847;" glyph-name="layer" data-tags="layer" d="M345.088 441.088l166.912-74.752 166.912 74.752-166.912 73.728-166.912-73.728zM512 313.088c-3.072 0-7.168 0-10.24 2.048l-230.4 102.4c-9.216 4.096-15.36 13.312-15.36 23.552s6.144 19.456 15.36 23.552l230.4 102.4c6.144 2.048 14.336 2.048 20.48 0l230.4-102.4c9.216-4.096 15.36-13.312 15.36-23.552s-6.144-19.456-15.36-23.552l-230.4-102.4c-3.072-2.048-6.144-2.048-10.24-2.048v0zM768 380.672l-256-116.736-256 106.496v-55.296l245.76-102.4c3.072-2.048 7.168-2.048 10.24-2.048 4.096 0 7.168 0 10.24 2.048l245.76 111.616v56.32zM768 278.272l-256-116.736-256 106.496v-55.296l245.76-102.4c3.072-2.048 7.168-2.048 10.24-2.048 4.096 0 7.168 0 10.24 2.048l245.76 111.616v56.32z" />
<glyph unicode="&#xe848;" glyph-name="link" data-tags="link" d="M294.912 243.456l35.84 36.864-17.408 17.408c-10.24 10.24-10.24 26.624 0 36.864l217.088 217.088c4.096 5.12 11.264 7.168 17.408 7.168 7.168 0 13.312-2.048 18.432-7.168l18.432-18.432 35.84 36.864-18.432 17.408c-28.672 29.696-78.848 29.696-108.544 0l-217.088-217.088c-29.696-29.696-29.696-78.848 0-108.544l18.432-18.432zM747.52 443.136l-18.432 17.408-35.84-35.84 17.408-18.432c5.12-4.096 8.192-11.264 8.192-17.408 0-7.168-3.072-13.312-8.192-18.432l-217.088-217.088c-9.216-9.216-26.624-9.216-35.84 0l-18.432 18.432-35.84-36.864 18.432-17.408c14.336-15.36 33.792-22.528 54.272-22.528s39.936 7.168 54.272 22.528l217.088 217.088c14.336 14.336 22.528 33.792 22.528 54.272s-8.192 39.936-22.528 54.272M566.272 370.432l-35.84 35.84 180.224 181.248 36.864-35.84-181.248-181.248zM313.344 117.504l-36.864 35.84 181.248 181.248 35.84-36.864-180.224-180.224z" />
<glyph unicode="&#xe849;" glyph-name="menu" data-tags="menu" d="M716.8 480h-409.6v51.2h409.6v-51.2zM716.8 377.6h-409.6v51.2h409.6v-51.2zM716.8 275.2h-409.6v51.2h409.6v-51.2zM716.8 172.8h-409.6v51.2h409.6v-51.2z" />
<glyph unicode="&#xe84b;" glyph-name="mobile-form" data-tags="mobile-form" d="M384 96v76.8h281.6v-76.8h-281.6zM665.6 480v-256h-281.6v256h281.6zM665.6 531.2h-281.6v76.8h281.6v-76.8zM653.312 659.2h-256c-35.84 0-64.512-27.648-64.512-61.44v-491.52c0-33.792 28.672-61.44 64.512-61.44h256c34.816 0 63.488 27.648 63.488 61.44v491.52c0 33.792-28.672 61.44-63.488 61.44v0zM435.2 275.2h179.2v51.2h-179.2v-51.2zM537.6 428.8h-102.4v-51.2h102.4v51.2z" />
<glyph unicode="&#xe84c;" glyph-name="number" data-tags="number" d="M549.888 291.584h-105.472l28.672 95.232h105.472l-28.672-95.232zM667.648 531.2h-46.080l-28.672-96.256h-105.472l28.672 96.256h-45.056l-28.672-96.256h-92.16v-48.128h77.824l-28.672-95.232h-92.16v-48.128h77.824l-28.672-96.256h45.056l28.672 96.256h105.472l-28.672-96.256h46.080l28.672 96.256h92.16v48.128h-77.824l28.672 95.232h92.16v48.128h-77.824l28.672 96.256z" />
<glyph unicode="&#xe84d;" glyph-name="pins" data-tags="pins" d="M358.4 556.8c-56.32 0-102.4-46.080-102.4-102.4 0-75.776 58.368-163.84 102.4-222.208 3.072 4.096 20.48 27.648 22.528 30.72-9.216 22.528-15.36 44.032-19.456 63.488-1.024-2.048-2.048-4.096-3.072-5.12-22.528 36.864-51.2 92.16-51.2 133.12 0 28.672 22.528 51.2 51.2 51.2 24.576 0 45.056-17.408 50.176-39.936 13.312 11.264 27.648 21.504 44.032 27.648-15.36 37.888-51.2 63.488-94.208 63.488M665.6 556.8c-43.008 0-78.848-25.6-94.208-63.488 16.384-6.144 30.72-16.384 44.032-27.648 5.12 22.528 25.6 39.936 50.176 39.936 28.672 0 51.2-22.528 51.2-51.2 0-40.96-28.672-96.256-51.2-133.12-1.024 1.024-2.048 3.072-3.072 5.12-4.096-19.456-10.24-40.96-19.456-63.488 3.072-4.096 19.456-25.6 22.528-30.72 44.032 58.368 102.4 145.408 102.4 222.208 0 56.32-46.080 102.4-102.4 102.4M512 218.88c-22.528 36.864-51.2 92.16-51.2 133.12 0 28.672 22.528 51.2 51.2 51.2s51.2-22.528 51.2-51.2c0-40.96-28.672-96.256-51.2-133.12M512 454.4c-56.32 0-102.4-46.080-102.4-102.4 0-75.776 58.368-163.84 102.4-222.208 44.032 59.392 102.4 145.408 102.4 222.208 0 56.32-46.080 102.4-102.4 102.4" />
<glyph unicode="&#xe84e;" glyph-name="plus" data-tags="plus" d="M537.6 377.6v204.8h-51.2v-204.8h-204.8v-51.2h204.8v-204.8h51.2v204.8h204.8v51.2h-204.8z" />
<glyph unicode="&#xe84f;" glyph-name="public-collection" data-tags="public-collection" d="M384 511.744v-57.344h-49.152c13.312 22.528 29.696 40.96 49.152 57.344v0zM384 300.8h-69.632c-4.096 16.384-7.168 33.792-7.168 51.2s3.072 34.816 7.168 51.2h69.632v-102.4zM384 192.256c-19.456 16.384-35.84 35.84-49.152 57.344h49.152v-57.344zM256 352c0-141.312 114.688-256 256-256v51.2c-26.624 0-53.248 5.12-76.8 15.36v87.040h76.8v51.2h-76.8v102.4h76.8v51.2h-76.8v87.040c23.552 10.24 50.176 15.36 76.8 15.36v51.2c-141.312 0-256-114.688-256-256v0zM665.6 505.6c-14.336 0-25.6 11.264-25.6 25.6s11.264 25.6 25.6 25.6c14.336 0 25.6-11.264 25.6-25.6s-11.264-25.6-25.6-25.6M742.4 531.2c0 41.984-34.816 76.8-76.8 76.8s-76.8-34.816-76.8-76.8c0-41.984 34.816-76.8 76.8-76.8s76.8 34.816 76.8 76.8M742.4 275.2h-25.6c-14.336 0-25.6-11.264-25.6-25.6v-102.4h-51.2v102.4c0 14.336-11.264 25.6-25.6 25.6h-25.6v51.2c0 41.984 34.816 76.8 76.8 76.8s76.8-34.816 76.8-76.8v-51.2zM665.6 454.4c-70.656 0-128-57.344-128-128v-76.8c0-14.336 11.264-25.6 25.6-25.6h25.6v-102.4c0-14.336 11.264-25.6 25.6-25.6h102.4c14.336 0 25.6 11.264 25.6 25.6v102.4h25.6c14.336 0 25.6 11.264 25.6 25.6v76.8c0 70.656-57.344 128-128 128v0z" />
<glyph unicode="&#xe850;" glyph-name="remove" data-tags="remove" d="M512 556.8c-112.64 0-204.8-92.16-204.8-204.8s92.16-204.8 204.8-204.8c112.64 0 204.8 92.16 204.8 204.8s-92.16 204.8-204.8 204.8M512 96c-141.312 0-256 114.688-256 256s114.688 256 256 256c141.312 0 256-114.688 256-256s-114.688-256-256-256M632.832 435.968l-36.864 36.864-83.968-84.992-83.968 84.992-36.864-36.864 84.992-83.968-84.992-83.968 36.864-36.864 83.968 84.992 83.968-84.992 36.864 36.864-84.992 83.968 84.992 83.968z" />
<glyph unicode="&#xe851;" glyph-name="report-menu" data-tags="report-menu" d="M665.6 480h-409.6v51.2h409.6v-51.2zM665.6 377.6h-409.6v51.2h409.6v-51.2zM512 275.2h-256v51.2h256v-51.2zM358.4 172.8h-102.4v51.2h102.4v-51.2zM611.328 286.464l38.912-75.776 66.56 44.032v-61.44l-62.464-41.984c-6.144-4.096-14.336-5.12-21.504-3.072-6.144 2.048-12.288 6.144-15.36 13.312l-26.624 51.2-29.696-74.752c-3.072-8.192-10.24-14.336-18.432-15.36-8.192-2.048-17.408 0-23.552 6.144l-35.84 36.864-73.728-49.152v61.44l62.464 41.984c10.24 6.144 23.552 5.12 32.768-3.072l23.552-23.552 36.864 91.136c3.072 9.216 12.288 16.384 22.528 16.384 10.24 1.024 19.456-5.12 23.552-14.336z" />
<glyph unicode="&#xe852;" glyph-name="restore" data-tags="restore" d="M512 96c-22.528 0-43.008 3.072-63.488 8.192v44.032c19.456-6.144 40.96-9.216 63.488-9.216 117.76 0 212.992 95.232 212.992 212.992s-95.232 212.992-212.992 212.992c-117.76 0-212.992-95.232-212.992-212.992 0-59.392 24.576-112.64 63.488-151.552v66.56h43.008v-128h-128v41.984h44.032c-40.96 46.080-65.536 105.472-65.536 171.008 0 141.312 114.688 256 256 256s256-114.688 256-256c0-141.312-114.688-256-256-256M490.496 501.504v-158.72l92.16-91.136 29.696 29.696-78.848 79.872v140.288h-43.008z" />
<glyph unicode="&#xe853;" glyph-name="search" data-tags="search" d="M460.8 249.6c-40.96 0-79.872 16.384-108.544 45.056s-45.056 67.584-45.056 108.544c0 40.96 16.384 79.872 45.056 108.544s67.584 45.056 108.544 45.056c40.96 0 79.872-16.384 108.544-45.056s45.056-67.584 45.056-108.544c0-40.96-16.384-79.872-45.056-108.544s-67.584-45.056-108.544-45.056v0zM760.832 140.032l-138.24 138.24c27.648 34.816 43.008 78.848 43.008 124.928 0 54.272-21.504 106.496-60.416 144.384-37.888 38.912-90.112 60.416-144.384 60.416s-106.496-21.504-144.384-60.416c-38.912-37.888-60.416-90.112-60.416-144.384s21.504-106.496 60.416-144.384c37.888-38.912 90.112-60.416 144.384-60.416 46.080 0 90.112 15.36 125.952 43.008l137.216-138.24 36.864 36.864z" />
<glyph unicode="&#xe854;" glyph-name="select-many" data-tags="select-many" d="M389.12 474.88h-40.96v40.96h40.96v-40.96zM409.6 556.8c11.264 0 20.48-9.216 20.48-20.48v-81.92c0-11.264-9.216-20.48-20.48-20.48h-81.92c-11.264 0-20.48 9.216-20.48 20.48v81.92c0 11.264 9.216 20.48 20.48 20.48h81.92zM389.12 331.52h-40.96v40.96h40.96v-40.96zM409.6 413.44c11.264 0 20.48-9.216 20.48-20.48v-81.92c0-11.264-9.216-20.48-20.48-20.48h-81.92c-11.264 0-20.48 9.216-20.48 20.48v81.92c0 11.264 9.216 20.48 20.48 20.48h81.92zM389.12 188.16h-40.96v40.96h40.96v-40.96zM409.6 270.080c11.264 0 20.48-9.216 20.48-20.48v-81.92c0-11.264-9.216-20.48-20.48-20.48h-81.92c-11.264 0-20.48 9.216-20.48 20.48v81.92c0 11.264 9.216 20.48 20.48 20.48h81.92zM471.040 474.88v40.96h245.76v-40.96h-245.76zM471.040 331.52v40.96h245.76v-40.96h-245.76zM471.040 188.16v40.96h245.76v-40.96h-245.76z" />
<glyph unicode="&#xe855;" glyph-name="select-one" data-tags="select-one" d="M512 515.84c-90.112 0-163.84-73.728-163.84-163.84s73.728-163.84 163.84-163.84c90.112 0 163.84 73.728 163.84 163.84s-73.728 163.84-163.84 163.84M512 147.2c-112.64 0-204.8 92.16-204.8 204.8s92.16 204.8 204.8 204.8c112.64 0 204.8-92.16 204.8-204.8s-92.16-204.8-204.8-204.8M512 290.56c33.792 0 61.44 27.648 61.44 61.44s-27.648 61.44-61.44 61.44c-33.792 0-61.44-27.648-61.44-61.44s27.648-61.44 61.44-61.44z" />
<glyph unicode="&#xe857;" glyph-name="text" data-tags="text" d="M646.144 556.8h-268.288c-11.264 0-19.456-9.216-19.456-20.48v-61.44h38.912v40.96h95.232v-327.68h-57.344v-40.96h153.6v40.96h-57.344v327.68h95.232v-40.96h38.912v61.44c0 11.264-9.216 20.48-19.456 20.48" />
<glyph unicode="&#xe858;" glyph-name="dropdown-arrow" data-tags="dropdown-arrow" d="M640 403.2l-128-128-128 128h256z" />
<glyph unicode="&#xe859;" glyph-name="upload" data-tags="upload" d="M665.6 96h-307.2c-28.672 0-51.2 22.528-51.2 51.2v51.2h51.2v-51.2h307.2v51.2h51.2v-51.2c0-28.672-22.528-51.2-51.2-51.2M486.4 300.8h51.2v153.6c0 14.336 11.264 25.6 25.6 25.6h15.36l-66.56 66.56-66.56-66.56h15.36c14.336 0 25.6-11.264 25.6-25.6v-153.6zM563.2 249.6h-102.4c-14.336 0-25.6 11.264-25.6 25.6v153.6h-51.2c-10.24 0-19.456 6.144-23.552 15.36-4.096 10.24-2.048 21.504 5.12 28.672l128 128c10.24 10.24 26.624 10.24 36.864 0l128-128c7.168-7.168 9.216-18.432 5.12-28.672-4.096-9.216-13.312-15.36-23.552-15.36h-51.2v-153.6c0-14.336-11.264-25.6-25.6-25.6v0z" />
<glyph unicode="&#xe85a;" glyph-name="video" data-tags="video" d="M691.2 316.16l-51.2 25.6v20.48l51.2 25.6v-71.68zM588.8 249.6h-230.4v204.8h230.4v-204.8zM730.112 450.304c-7.168 5.12-16.384 5.12-24.576 1.024l-65.536-32.768v35.84c0 28.672-22.528 51.2-51.2 51.2h-230.4c-28.672 0-51.2-22.528-51.2-51.2v-204.8c0-28.672 22.528-51.2 51.2-51.2h230.4c28.672 0 51.2 22.528 51.2 51.2v35.84l65.536-32.768c3.072-2.048 7.168-3.072 11.264-3.072 5.12 0 9.216 1.024 13.312 4.096 8.192 4.096 12.288 12.288 12.288 21.504v153.6c0 9.216-4.096 17.408-12.288 21.504v0z" />
<glyph unicode="&#xe85b;" glyph-name="webform" data-tags="webform" d="M266.24 147.2l33.792 102.4h423.936l33.792-102.4h-491.52zM716.8 300.8h-409.6v256h409.6v-256zM808.96 154.368l-40.96 124.928v303.104c0 14.336-12.288 25.6-25.6 25.6h-460.8c-14.336 0-25.6-11.264-25.6-25.6v-303.104l-41.984-124.928c-4.096-14.336-3.072-29.696 5.12-40.96s21.504-17.408 36.864-17.408h512c14.336 0 27.648 6.144 35.84 17.408s10.24 26.624 5.12 40.96v0zM460.8 172.8h102.4v51.2h-102.4v-51.2zM358.4 352h51.2v51.2h-51.2v-51.2zM409.6 505.6h-51.2v-51.2h51.2v51.2zM460.8 352h153.6v51.2h-153.6v-51.2zM563.2 505.6h-102.4v-51.2h102.4v51.2z" />
<glyph unicode="&#xe85c;" glyph-name="xls-file" data-tags="xls-file" d="M335.872 582.4v-128h-51.2v128c0 28.672 23.552 51.2 51.2 51.2h292.864l116.736-117.76v-61.44h-51.2v25.6h-102.4v102.4h-256zM694.272 121.6v25.6h51.2v-25.6c0-28.672-22.528-51.2-51.2-51.2h-358.4c-27.648 0-51.2 22.528-51.2 51.2v25.6h51.2v-25.6h358.4zM463.872 403.2h51.2v-153.6h76.8v-51.2h-128v204.8zM681.984 352c-7.168 0-13.312-6.144-13.312-12.288 0-7.168 6.144-13.312 13.312-13.312h25.6c34.816 0 63.488-28.672 63.488-63.488 0-35.84-28.672-64.512-63.488-64.512h-90.112v51.2h90.112c7.168 0 12.288 6.144 12.288 13.312 0 6.144-5.12 12.288-12.288 12.288h-25.6c-35.84 0-64.512 28.672-64.512 64.512 0 34.816 28.672 63.488 64.512 63.488h89.088v-51.2h-89.088zM315.392 198.4h-59.392l61.44 102.4-61.44 102.4h59.392l31.744-52.224 31.744 52.224h59.392l-61.44-102.4 61.44-102.4h-59.392l-31.744 52.224-31.744-52.224z" />
<glyph unicode="&#xe85d;" glyph-name="xml-file" data-tags="xml-file" d="M335.872 582.4h256v-102.4h102.4v-25.6h51.2v61.44l-116.736 117.76h-292.864c-27.648 0-51.2-22.528-51.2-51.2v-128h51.2v128zM694.272 121.6h-358.4v25.6h-51.2v-25.6c0-28.672 23.552-51.2 51.2-51.2h358.4c28.672 0 51.2 22.528 51.2 51.2v25.6h-51.2v-25.6zM640 403.2v-204.8h128v51.2h-76.8v153.6h-51.2zM512 292.608l4.096-6.144c10.24-14.336 33.792-14.336 43.008 0l4.096 6.144v-94.208h51.2v179.2c0 11.264-7.168 21.504-18.432 24.576-10.24 3.072-22.528-1.024-28.672-10.24l-29.696-45.056-29.696 45.056c-6.144 9.216-18.432 13.312-28.672 10.24-11.264-3.072-18.432-13.312-18.432-24.576v-179.2h51.2v94.208zM315.392 198.4l31.744 52.224 31.744-52.224h59.392l-61.44 102.4 61.44 102.4h-59.392l-31.744-52.224-31.744 52.224h-59.392l61.44-102.4-61.44-102.4h59.392z" />
<glyph unicode="&#xe900;" glyph-name="template" data-tags="Template" d="M665.626 147.2h-307.226v409.6h204.8v-102.4h102.4l0.026-307.2zM599.398 608h-240.998c-28.237 0-51.2-22.989-51.2-51.2v-409.6c0-28.237 22.963-51.2 51.2-51.2h307.2c28.237 0 51.2 22.963 51.2 51.2v343.398l-117.402 117.402zM563.2 377.6h-153.6v-51.2h153.6v51.2zM409.6 224h204.8v51.2h-204.8v-51.2z" />
</font>
</defs>
</svg>
