<?xml version="1.0" standalone="no"?>
<!DOCTYPE svg PUBLIC "-//W3C//DTD SVG 1.1//EN" "http://www.w3.org/Graphics/SVG/1.1/DTD/svg11.dtd">
<svg xmlns="http://www.w3.org/2000/svg">
<metadata>Copyright (C) 2017 by original authors @ fontello.com</metadata>
<defs>
<font id="fontello" horiz-adv-x="1000" >
<font-face font-family="fontello" font-weight="400" font-stretch="normal" units-per-em="1000" ascent="850" descent="-150" />
<missing-glyph horiz-adv-x="1000" />
<glyph glyph-name="archived" unicode="&#xe800;" d="M675 175l-350 0 0 250 350 0 0-250z m25 300l-400 0 0 50 400 0 0-50z m0 100l-400 0c-28 0-50-22-50-50l0-75c0-14 11-25 25-25l0-250c0-28 22-50 50-50l350 0c28 0 50 22 50 50l0 250c14 0 25 11 25 25l0 75c0 28-22 50-50 50l0 0z m-125-175l-150 0 0-75 150 0 0 75z" horiz-adv-x="1000" />

<glyph glyph-name="tag" unicode="&#xe801;" d="M300 410l250-250 140 140-250 250-140 0 0-140z m250-310c-6 0-13 3-18 7l-275 275c-4 5-7 11-7 18l0 175c0 14 11 25 25 25l175 0c7 0 13-3 18-7l275-275c9-10 9-26 0-36l-175-175c-5-4-12-7-18-7l0 0z m-125 375c0-28-22-50-50-50-28 0-50 22-50 50 0 28 22 50 50 50 28 0 50-22 50-50" horiz-adv-x="1000" />

<glyph glyph-name="print" unicode="&#xe802;" d="M700 200l-25 0 0 50-350 0 0-50-25 0 0 175c0 14 11 25 25 25l0-50 350 0 0 50c14 0 25-11 25-25l0-175z m-75-100l-250 0 0 100 250 0 0-100z m125 275c0 41-34 75-75 75l-50 0 0-50-250 0 0 50-50 0c-41 0-75-34-75-75l0-225 75 0 0-100 350 0 0 100 75 0 0 225z m-375 200l250 0 0-100 50 0 0 150-350 0 0-150 50 0 0 100z m250-250c-14 0-25-11-25-25 0-14 11-25 25-25 14 0 25 11 25 25 0 14-11 25-25 25" horiz-adv-x="1000" />

<glyph glyph-name="settings" unicode="&#xe803;" d="M500 225c-69 0-125 56-125 125 0 69 56 125 125 125 69 0 125-56 125-125 0-69-56-125-125-125l0 0z m250 75l0 100-57 0c-5 23-15 44-28 62l38 38-53 53-38-38c-18 13-39 23-62 28l0 57-100 0 0-57c-22-5-44-15-62-28l-38 38-53-53 38-38c-13-18-23-39-28-62l-57 0 0-100 57 0c5-23 15-44 28-62l-38-38 53-53 38 38c18-13 40-23 62-28l0-57 100 0 0 57c23 5 44 15 62 28l38-38 53 53-38 38c13 18 23 39 28 62l57 0z" horiz-adv-x="1000" />

<glyph glyph-name="report" unicode="&#xe804;" d="M675 200l-350 0 0 250 350 0 0-250z m-375 325l400 0 0-25-400 0 0 25z m450-50l0 75c0 14-12 25-25 25l-450 0c-14 0-25-11-25-25l0-75c0-14 11-25 25-25l0-250-25 0 0-50 225 0 0-50 50 0 0 50 225 0 0 50-25 0 0 250c13 0 25 11 25 25l0 0z m-203-64c-4 9-13 15-23 14-10 0-19-7-22-16l-36-89-23 23c-9 8-22 9-32 3l-61-41 0-60 72 48 35-36c6-6 15-8 23-6 8 1 15 7 18 15l29 73 26-50c3-7 9-11 15-13 7-2 15-1 21 3l61 41 0 60-65-43-38 74z" horiz-adv-x="1000" />

<glyph glyph-name="deploy" unicode="&#xe805;" d="M396 176c7 6 11 14 13 22l38-37c-4-8-9-14-15-21-34-34-138-41-158-42l-28-2 2 28c1 20 8 124 42 158 7 6 13 11 21 15l37-38c-8-2-16-6-22-12-11-11-21-55-26-97 42 5 85 15 96 26z m282 284l-68 68c35 24 79 34 101 34l1 0c0-20-9-65-34-102z m-130-295l-45 46 45 46 0-92z m-152 152l177 177 71-71-177-177-71 71z m11 81l-46-45-46 45 92 0z m343 202c-8 8-20 12-39 12-36 0-108-17-155-65l-99-99-167 0c-6 0-13-2-17-7l-18-18c-10-10-10-25 0-35l283-283c5-5 11-7 18-7 6 0 12 2 17 7l18 18c5 4 7 11 7 17l0 167 99 99c36 36 52 82 58 106 5 20 15 68-5 88l0 0z" horiz-adv-x="1000" />

<glyph glyph-name="close" unicode="&#xe806;" d="M500 386l-189 189-36-36 189-189-189-189 36-36 189 189 189-189 36 36-189 189 189 189-36 36-189-189z" horiz-adv-x="1000" />

<glyph glyph-name="linkedin" unicode="&#xe807;" d="M538 393c21 27 47 44 80 48 68 6 121-24 138-95 5-17 7-34 7-52 1-59 0-119 0-179 0-10-3-13-13-13-28 1-57 0-85 0-15 0-15 0-15 15 0 54 0 108 0 162 0 9 0 19-2 28-4 21-14 39-37 44-25 5-46-2-61-23-9-12-12-27-12-42 0-56 0-113 0-169l0-13c-3-1-6-1-9-1-31-1-62 0-92-1-9 0-10 3-10 11 0 103 0 207 0 310 0 9 3 11 11 11 29 0 59 0 89 0 9 1 12-3 11-11 0-10 0-20 0-30z m-169-125c0-51 0-102 0-152 1-10-2-14-13-14-29 1-58 1-88 0-8 0-12 2-12 12 0 103 0 206 0 308 0 10 4 13 13 12 29 0 59 0 88 0 10 1 12-3 12-13 0-51 0-102 0-153z m7 266c0-34-27-58-63-58-36-1-63 25-63 58 0 34 28 59 64 59 36-1 62-25 62-59z" horiz-adv-x="1000" />

<glyph glyph-name="email" unicode="&#xe808;" d="M300 250l0 196 187-117c4-3 8-4 13-4 5 0 9 1 13 4l187 117 0-196-400 0z m353 225l-153-95-153 95 306 0z m47 50l-400 0c-28 0-50-22-50-50l0-225c0-28 22-50 50-50l400 0c28 0 50 22 50 50l0 225c0 28-22 50-50 50l0 0z" horiz-adv-x="1000" />

<glyph glyph-name="comment" unicode="&#xe809;" d="M300 550l0-300 100 0 0-50 67 50 233 0 0 300-400 0z m50-450l0 100-50 0c-28 0-50 22-50 50l0 300c0 28 22 50 50 50l400 0c28 0 50-22 50-50l0-300c0-28-22-50-50-50l-217 0-133-100z" horiz-adv-x="1000" />

<glyph glyph-name="next" unicode="&#xe80a;" d="M623 362l0 0-212-212-35 35 177 178-176 177 36 35 211-212-1-1z" horiz-adv-x="1000" />

<glyph glyph-name="prev" unicode="&#xe80b;" d="M377 362l0 0 212-212 35 35-177 178 176 177-35 35-212-212 1-1z" horiz-adv-x="1000" />

<glyph glyph-name="language" unicode="&#xe80c;" d="M500 600c138 0 250-112 250-250 0-138-112-250-250-250-138 0-250 112-250 250 0 138 112 250 250 250z m100-423c30 18 56 43 73 73l-73 0 0-73z m-150-20c16-5 33-7 50-7 17 0 34 2 50 7l0 93-100 0 0-93z m-123 93c18-30 43-55 73-73l0 73-73 0z m-20 150c-5-16-7-33-7-50 0-17 2-34 7-50l93 0 0 100-93 0z m93 123c-30-17-55-43-73-73l73 0 0 73z m150 21c-16 4-33 6-50 6-17 0-34-2-50-6l0-94 100 0 0 94z m-100-244l100 0 0 100-100 0 0-100z m250 50c0 17-2 34-6 50l-94 0 0-100 94 0c4 16 6 33 6 50z m-27 100c-17 30-43 56-73 73l0-73 73 0z" horiz-adv-x="1000" />

<glyph glyph-name="twitter" unicode="&#xe80d;" d="M590 550c39 1 60-14 81-32 17 1 39 11 52 18 4 2 12 3 16 6-8-21-21-36-36-48-4-2-7-6-12-7l0-1c23 0 41 11 58 16l0 0c-9-15-21-30-34-40-6-4-11-9-16-13 0-23-1-46-5-66-26-115-94-193-201-226-38-12-101-17-145-6-22 5-41 12-60 20-10 4-20 9-29 15-3 1-6 3-9 5 10 0 22-1 33-1 10 0 20 1 29 3 23 5 44 12 61 22 9 5 22 11 28 18-11 0-22 3-30 6-33 12-53 33-65 65 10-1 39-3 45 2-12 1-24 8-33 14-27 17-48 45-48 88 3-2 7-4 10-5 7-3 14-5 22-6 3-1 10-3 14-2l-1 0c-5 6-13 10-18 17-18 21-38 52-27 91 2 10 10 20 15 28 0 0 0 0 0 0 2-4 6-7 9-11 9-10 20-20 31-29 37-29 71-47 125-60 14-4 30-6 46-6-5 13-3 35 0 48 10 32 29 56 58 69 7 3 15 5 23 7 4 0 8 1 13 1" horiz-adv-x="1000" />

<glyph glyph-name="follow" unicode="&#xe80e;" d="M400 400c-28 0-50-22-50-50 0-28 22-50 50-50 28 0 50 22 50 50 0 28-22 50-50 50m0-150c-55 0-100 45-100 100 0 55 45 100 100 100 55 0 100-45 100-100 0-55-45-100-100-100z m-146-150c15 45 71 75 146 75 75 0 131-30 146-75l-292 0z m346-50l-400 0 0 25c0 88 82 150 200 150 118 0 200-62 200-150l0-25z m50 600l43-107 107 0-93-78 50-115-107 71-107-71 50 115-93 78 107 0 43 107z" horiz-adv-x="1000" />

<glyph glyph-name="lock" unicode="&#xe80f;" d="M375 150l0 175 250 0 0-175-250 0z m50 325c0 41 34 75 75 75 41 0 75-34 75-75l0-100-150 0 0 100z m200-100l0 100c0 69-56 125-125 125-69 0-125-56-125-125l0-100c-28 0-50-22-50-50l0-175c0-28 22-50 50-50l250 0c28 0 50 22 50 50l0 175c0 28-22 50-50 50l0 0z m-87-137c0-21-17-38-38-38-21 0-37 17-37 38 0 20 16 37 37 37 21 0 38-17 38-37" horiz-adv-x="1000" />

<glyph glyph-name="subscribe" unicode="&#xe810;" d="M350 200c-14 0-25-11-25-25 0-14 11-25 25-25 14 0 25 11 25 25 0 14-11 25-25 25m0-100c-41 0-75 34-75 75 0 41 34 75 75 75 41 0 75-34 75-75 0-41-34-75-75-75z m250 25l-50 0c0 138-112 250-250 250l0 50c165 0 300-135 300-300z m150 0l-50 0c0 221-179 400-400 400l0 50c248 0 450-202 450-450z" horiz-adv-x="1000" />

<glyph glyph-name="expand" unicode="&#xe811;" d="M275 525l0-75-50 0 0 75c0 28 22 50 50 50l75 0 0-50-75 0z m450 50c28 0 50-22 50-50l0-75-50 0 0 75-75 0 0 50 75 0z m-375-450l-75 0c-28 0-50 22-50 50l0 75 50 0 0-75 75 0 0-50z m375 50l0 75 50 0 0-75c0-28-22-50-50-50l-75 0 0 50 75 0z m-350 250l250 0 0-150-250 0 0 150z m-50-200l350 0 0 250-350 0 0-250z" horiz-adv-x="1000" />

<glyph glyph-name="folder-public" unicode="&#xe812;" d="M547 475l-103 0c-16 0-31 8-40 20l-41 55-113 0 0-325 150 0 0-50-150 0c-28 0-50 22-50 50l0 325c0 28 22 50 50 50l113 0c15 0 30-7 40-20l41-55 206 0c28 0 50-22 50-50l-153 0z m-33-304l33 0 0-33c-13 9-24 20-33 33l0 0z m33 190l0-34-33 0c9 14 20 25 33 34l0 0z m117 19l0-53-78 0 0 53c12 4 26 6 39 6 14 0 27-2 39-6l0 0z m73-53l-34 0 0 34c13-9 24-20 34-34l0 0z m18-117l-52 0 0 79 52 0c4-13 6-26 6-40 0-13-2-26-6-39l0 0z m-52-72l0 33 34 0c-10-13-21-24-34-33l0 0z m-117 33l78 0 0-52c-12-4-25-6-39-6-13 0-27 2-39 6l0 52z m-39 118l0-79-52 0c-4 13-6 26-6 39 0 14 2 27 6 40l52 0z m39-79l78 0 0 79-78 0 0-79z m58-135c88 10 156 84 156 174 0 97-78 176-175 176-96 0-175-79-175-176 0-90 68-164 156-174l38 0z" horiz-adv-x="1000" />

<glyph glyph-name="replace" unicode="&#xe813;" d="M650 218c31 35 50 81 50 132 0 111-89 200-200 200-17 0-34-2-50-6l0 51c16 3 33 5 50 5 138 0 250-112 250-250 0-56-19-108-50-150l50 0 0-50-150 0 0 25 0 125 50 0 0-82z m-300 264c-31-35-50-81-50-132 0-110 90-200 200-200 17 0 34 2 50 6l0-51c-16-3-33-5-50-5-138 0-250 112-250 250 0 56 19 108 50 150l-50 0 0 50 100 0c0 0 0 0 0 0l0 0 50 0 0-25 3 0c-1-1-2-1-3-2l0-11 0-112-50 0 0 82z" horiz-adv-x="1000" />

<glyph glyph-name="edit" unicode="&#xe814;" d="M685 535c19-19 19-52 0-71l-18-18-71 71 18 18c19 19 52 19 71 0l0 0z m-376-376l15 60 45-45-60-15z m251 323l72-72-214-214-72 72 214 214z m161 89c-19 19-45 29-72 29-26 0-52-10-71-29l-285-286c0 0 0 0 0 0-2-2-6-7-7-11l-35-143c-2-8 0-17 6-24l0 0 0 0c7-6 16-8 24-6l143 35c4 1 9 5 11 7 0 0 0 0 0 0l286 285c19 19 29 45 29 71 0 27-10 53-29 72l0 0z" horiz-adv-x="1000" />

<glyph glyph-name="trash" unicode="&#xe815;" d="M325 150l0 300 350 0 0-300c0-28-22-50-50-50l-250 0c-28 0-50 22-50 50z m50 250l0-250 250 0 0 250-250 0z m50-200l50 0 0 150-50 0 0-150z m100 0l50 0 0 150-50 0 0-150z m50 325l0 50-150 0 0-50-150 0 0-50 450 0 0 50-150 0z" horiz-adv-x="1000" />

<glyph glyph-name="library" unicode="&#xe816;" d="M700 150l-100 0 0 325 0 25 100 0 0-350z m-250 300l100 0 0-300-100 0 0 300z m-150 100l100 0 0-75 0-325-100 0 0 400z m425 0l-150 0c-14 0-25-11-25-25l0-25-100 0 0 75c0 14-11 25-25 25l-150 0c-14 0-25-11-25-25l0-450c0-14 11-25 25-25l450 0c14 0 25 11 25 25l0 400c0 14-11 25-25 25l0 0z m-400-225l50 0 0 200-50 0 0-200z m150-50l50 0 0 150-50 0 0-150z m200 200l-50 0 0-175 50 0 0 175z" horiz-adv-x="1000" />

<glyph glyph-name="logout" unicode="&#xe817;" d="M675 100l-275 0c-28 0-50 22-50 50l0 75 50 0 0-75 275 0 0 400-275 0 0-75-50 0 0 75c0 28 22 50 50 50l275 0c28 0 50-22 50-50l0-400c0-28-22-50-50-50z m-157 368l117-118-117-118-36 36 58 57-215 0 0 50 215 0-58 57 36 36z" horiz-adv-x="1000" />

<glyph glyph-name="folder-move-to" unicode="&#xe818;" d="M500 225l0-50-250 0c-28 0-50 22-50 50l0 325c0 28 22 50 50 50l113 0c15 0 30-7 40-20l41-55 206 0c28 0 50-22 50-50l0-125-50 0 0 125-206 0c-16 0-31 8-40 20l-41 55-113 0 0-325 250 0z m199 73l99-98-99-98-37 37 34 34-123 0 0 54 123 0-34 34 37 37z" horiz-adv-x="1000" />

<glyph glyph-name="drafts" unicode="&#xe819;" d="M500 450l0-50-200 0 0 50 200 0z m-200-175l0 50 150 0 0-50-150 0z m-50 325l0-450 175 0 0-50-175 0c-28 0-50 22-50 50l0 450c0 28 22 50 50 50l285 0 115-115 0-110-50 0 0 75-100 0 0 100-250 0z m450-365l-40 40 40 40 40-40-40-40z m-113-112l-53-14 14 53 77 78 40-40-78-77z m206 170l-75 75c-10 10-26 10-36 0l-175-175c-3-3-5-7-6-12l-25-100c-2-8 0-17 6-24 7-6 16-8 24-6l100 25c4 1 9 3 12 6l175 175c9 10 9 26 0 36l0 0z" horiz-adv-x="1000" />

<glyph glyph-name="attach" unicode="&#xe81a;" d="M450 75c-72 0-125 58-125 138l0 212c0 100 70 175 163 175 92 0 162-75 162-175l0-175-50 0 0 175c0 72-47 125-112 125-66 0-113-53-113-125l0-212c0-44 23-88 75-88 52 0 75 44 75 88l0 187c0 15-4 50-37 50-34 0-38-35-38-50l0-175-50 0 0 175c0 60 35 100 88 100 52 0 87-40 87-100l0-187c0-80-53-138-125-138" horiz-adv-x="1000" />

<glyph glyph-name="folder-shared" unicode="&#xe81b;" d="M250 600c-28 0-50-22-50-50l0-325c0-28 22-50 50-50l150 0 0 50-150 0 0 325 113 0 41-55c9-12 24-20 40-20l103 0 153 0c0 28-22 50-50 50l-206 0-41 55c-10 13-25 20-40 20l-113 0z m288-262c0 48 39 87 87 87 48 0 88-39 88-87 0-49-40-88-88-88-48 0-87 39-87 88z m43 0c0-25 20-44 44-44 24 0 44 19 44 44 0 24-20 43-44 43-24 0-44-19-44-43z m-131-241c0 77 72 131 175 131 103 0 175-54 175-131l0-22-350 0 0 22z m175 87c-66 0-115-26-128-65l256 0c-13 39-62 65-128 65z" horiz-adv-x="1000" />

<glyph glyph-name="alert" unicode="&#xe81c;" d="M500 550c-110 0-200-90-200-200 0-110 90-200 200-200 110 0 200 90 200 200 0 110-90 200-200 200m0-450c-138 0-250 112-250 250 0 138 112 250 250 250 138 0 250-112 250-250 0-138-112-250-250-250m25 225l-50 0 0 175 50 0 0-175z m6-75c0-17-14-31-31-31-17 0-31 14-31 31 0 17 14 31 31 31 17 0 31-14 31-31" horiz-adv-x="1000" />

<glyph glyph-name="globe" unicode="&#xe81d;" d="M500 150c-110 0-200 90-200 200 0 51 19 97 50 132l0-132 57 0 55-166 138 104 0 162-75 0 0 98c99-12 175-96 175-198 0-110-90-200-200-200l0 0z m-100 373c23 13 48 22 75 25l0-148 75 0 0-87-62-47-45 134-43 0 0 123z m100 77c-138 0-250-112-250-250 0-138 112-250 250-250 138 0 250 112 250 250 0 138-112 250-250 250l0 0z" horiz-adv-x="1000" />

<glyph glyph-name="arrow-first" unicode="&#xe81e;" d="M650 140l-210 210 210 210 35-35-175-175 175-175-35-35z m-125 0l-210 210 210 210 35-35-175-175 175-175-35-35z" horiz-adv-x="1000" />

<glyph glyph-name="question" unicode="&#xe81f;" d="M700 200l-400 0 0 300 300 0 0-100 100 0 0-200z m-65 350l-335 0c-28 0-50-22-50-50l0-300c0-28 22-50 50-50l400 0c28 0 50 22 50 50l0 235-115 115z m-110-150l-175 0 0-50 175 0 0 50z m-175-150l275 0 0 50-275 0 0-50z" horiz-adv-x="1000" />

<glyph glyph-name="more" unicode="&#xe820;" d="M625 350c0 28 22 50 50 50 28 0 50-22 50-50 0-28-22-50-50-50-28 0-50 22-50 50z m-175 0c0 28 22 50 50 50 28 0 50-22 50-50 0-28-22-50-50-50-28 0-50 22-50 50z m-175 0c0 28 22 50 50 50 28 0 50-22 50-50 0-28-22-50-50-50-28 0-50 22-50 50z" horiz-adv-x="1000" />

<glyph glyph-name="share" unicode="&#xe821;" d="M625 100l-400 0 0 25c0 88 82 150 200 150 118 0 200-62 200-150l0-25z m-346 50l292 0c-15 45-71 75-146 75-75 0-131-30-146-75z m496 375l0-50-75 0 0-75-50 0 0 75-75 0 0 50 75 0 0 75 50 0 0-75 75 0z m-350-225c-55 0-100 45-100 100 0 55 45 100 100 100 55 0 100-45 100-100 0-55-45-100-100-100z m0 150c-28 0-50-22-50-50 0-28 22-50 50-50 28 0 50 22 50 50 0 28-22 50-50 50z" horiz-adv-x="1000" />

<glyph glyph-name="folder" unicode="&#xe822;" d="M250 200l0 325 113 0 41-55c9-12 24-20 40-20l206 0 0-250-400 0z m400 300l-206 0-41 55c-10 13-25 20-40 20l-113 0c-28 0-50-22-50-50l0-325c0-28 22-50 50-50l400 0c28 0 50 22 50 50l0 250c0 28-22 50-50 50l0 0z" horiz-adv-x="1000" />

<glyph glyph-name="time" unicode="&#xe823;" d="M500 500c-96 0-175-78-175-175 0-96 79-175 175-175 97 0 175 79 175 175 0 97-78 175-175 175m0-400c-124 0-225 101-225 225 0 124 101 225 225 225 124 0 225-101 225-225 0-124-101-225-225-225m231 348c13 13 21 32 21 52 0 41-33 75-75 75-20 0-38-8-52-21l106-106z m-459 0c-14 13-22 32-22 52 0 41 34 75 75 75 20 0 39-8 53-21l-106-106z m285-216l-75 75c-4 5-7 11-7 18l0 125 50 0 0-115 68-67-36-36z" horiz-adv-x="1000" />

<glyph glyph-name="deployed" unicode="&#xe824;" d="M325 125l0 450 250 0 0-100 100 0 0-350-350 0z m285 500l-285 0c-28 0-50-22-50-50l0-450c0-28 22-50 50-50l350 0c28 0 50 22 50 50l0 385-115 115z m-218-383c-14-13-17-64-17-64 0 0 53 3 67 16 7 6 10 14 11 22l-38 36c-8-1-17-4-23-10m99-30l27-27 17 17 0 52 0 12 36 34c7 8 14 16 20 24l12 21c9 18 10 24 19 54 1 4 0 8-3 11-3 3-8 4-12 3-31-8-38-9-57-17l-21-12c-9-6-18-12-26-19l-36-35-12 0-55 0-17-16 28-26 6-6 67-64 7-6z" horiz-adv-x="1000" />

<glyph glyph-name="inactive" unicode="&#xe825;" d="M325 125l0 450 250 0 0-100 100 0 0-350-350 0z m285 500l-285 0c-28 0-50-22-50-50l0-450c0-28 22-50 50-50l350 0c28 0 50 22 50 50l0 385-115 115z m-110-406c-16 0-30 4-42 12l111 111c8-12 12-26 12-42 0-45-36-81-81-81m0 162c16 0 30-4 43-12l-112-111c-8 12-12 26-12 42 0 45 36 81 81 81m0 38c-65 0-119-53-119-119 0-65 54-119 119-119 66 0 119 54 119 119 0 66-53 119-119 119" horiz-adv-x="1000" />

<glyph glyph-name="questions-block" unicode="&#xe826;" d="M775 275l-400 0 0 300 300 0 0-100 100 0 0-200z m-65 350l-335 0c-28 0-50-22-50-50l0-300c0-28 22-50 50-50l400 0c28 0 50 22 50 50l0 235-115 115z m-110-150l-175 0 0-50 175 0 0 50z m-175-150l275 0 0 50-275 0 0-50z m-125 200l-50 0 0-325c0-28 22-50 50-50l375 0 0 50-375 0 0 325z m-75-75l-50 0 0-325c0-28 22-50 50-50l375 0 0 50-375 0 0 325z" horiz-adv-x="1000" />

<glyph glyph-name="notification" unicode="&#xe827;" d="M414 175c17-30 49-50 86-50 37 0 69 20 86 50l-172 0z m-63 75l298 0c-30 25-49 63-49 104l0 71c0 55-45 100-100 100-55 0-100-45-100-100l0-71c0-41-19-79-49-104l0 0z m374-50l-450 0 0 68 17 6c35 11 58 44 58 80l0 71c0 83 67 150 150 150 83 0 150-67 150-150l0-71c0-36 23-69 58-80l17-6 0-68z" horiz-adv-x="1000" />

<glyph glyph-name="group" unicode="&#xe828;" d="M475 150l0 125 50 0c28 0 50 22 50 50l0 50 125 0 0-225-225 0z m50 175l-50 0 0 50 50 0 0-50z m-225 0l0 225 225 0 0-125-50 0c-28 0-50-22-50-50l0-50-125 0z m400 100l-125 0 0 125c0 28-22 50-50 50l-225 0c-28 0-50-22-50-50l0-225c0-28 22-50 50-50l125 0 0-125c0-28 22-50 50-50l225 0c28 0 50 22 50 50l0 225c0 28-22 50-50 50l0 0z" horiz-adv-x="1000" />

<glyph glyph-name="photo-gallery" unicode="&#xe829;" d="M675 200l-350 0 0 250 350 0 0-250z m-375 325l400 0 0-25-400 0 0 25z m450-50l0 75c0 14-12 25-25 25l-450 0c-14 0-25-11-25-25l0-75c0-14 11-25 25-25l0-250-25 0 0-50 225 0 0-50 50 0 0 50 225 0 0 50-25 0 0 250c13 0 25 11 25 25l0 0z m-100-250l0 50-32 0-45 133c-3 10-12 17-23 17-11 0-21-7-24-17l-34-102-21 33c-10 14-33 14-42 0l-42-64-37 0 0-50 300 0z m-250 150c14 0 25 11 25 25 0 14-11 25-25 25-14 0-25-11-25-25 0-14 11-25 25-25" horiz-adv-x="1000" />

<glyph glyph-name="help" unicode="&#xe82a;" d="M500 550c-110 0-200-90-200-200 0-110 90-200 200-200 110 0 200 90 200 200 0 110-90 200-200 200m0-450c-138 0-250 112-250 250 0 138 112 250 250 250 138 0 250-112 250-250 0-138-112-250-250-250m25 175l-50 0 0 75 25 0c28 0 50 22 50 50 0 28-22 50-50 50-28 0-50-22-50-50l-50 0c0 55 45 100 100 100 55 0 100-45 100-100 0-46-32-86-75-97l0-28z m6-50c0-17-14-31-31-31-17 0-31 14-31 31 0 17 14 31 31 31 17 0 31-14 31-31" horiz-adv-x="1000" />

<glyph glyph-name="github" unicode="&#xe82b;" d="M499 600c-138 0-249-111-249-249 0-121 87-222 201-244 1 2 2 4 2 6 0 1 0 6 0 16 0 11 0 20 0 27l-7-1c-5-1-10-1-17-1-7 0-14 1-21 2-7 1-14 4-20 9-6 5-11 11-13 19l-3 6c-2 5-6 10-10 16-4 5-9 9-13 11l-2 2c-1 1-3 2-4 3-1 2-2 3-3 5 0 1 0 2 2 3 1 1 4 1 9 1l6-1c4 0 9-3 14-7 6-4 11-9 15-15 5-9 10-15 17-19 6-5 13-7 19-7 7 0 13 1 18 2 4 1 9 2 13 4 2 14 7 24 15 31-12 2-22 3-31 6-9 2-18 6-28 12-10 5-18 12-24 20-7 8-12 18-16 31-4 13-6 28-6 45 0 25 8 45 23 62-7 19-6 39 2 62 6 2 15 0 26-4 12-5 20-9 25-12 6-3 10-6 13-8 19 5 38 8 58 8 20 0 39-3 58-8l11 7c8 5 17 10 28 14 11 4 19 5 24 3 9-23 10-43 3-62 16-17 24-37 24-62 0-17-2-32-7-45-4-13-9-24-16-31-6-8-14-15-24-20-10-6-19-10-28-12-9-3-20-4-31-6 10-9 16-23 16-42l0-64c0 0 0 0 0-1 104 30 180 126 180 239 0 138-112 249-249 249" horiz-adv-x="1000" />

<glyph glyph-name="download" unicode="&#xe82c;" d="M650 200l0-50-300 0 0 50-50 0 0-50c0-28 22-50 50-50l300 0c28 0 50 22 50 50l0 50-50 0z m-200 175c14 0 25 11 25 25l0 150 50 0 0-150c0-14 11-25 25-25l15 0-65-65-65 65 15 0z m32-118c5-5 12-7 18-7 6 0 13 2 18 7l125 125c7 8 9 18 5 28-4 9-13 15-23 15l-50 0 0 150c0 14-11 25-25 25l-100 0c-14 0-25-11-25-25l0-150-50 0c-10 0-19-6-23-15-4-10-2-20 5-28l125-125z" horiz-adv-x="1000" />

<glyph glyph-name="form" unicode="&#xe82d;" d="M650 150l-300 0 0 400 200 0 0-100 100 0 0-300z m-65 450l-235 0c-28 0-50-22-50-50l0-400c0-28 22-50 50-50l300 0c28 0 50 22 50 50l0 335-115 115z" horiz-adv-x="1000" />

<glyph glyph-name="view-all" unicode="&#xe82e;" d="M400 475l350 0 0 50-350 0 0-50z m0-175l350 0 0 50-350 0 0-50z m0-175l350 0 0 50-350 0 0-50z m-125 75c0 14 11 25 25 25l25 0c14 0 25-11 25-25l0-75c0-14-11-25-25-25l-25 0c-14 0-25 11-25 25l0 75z m25-12c0 7 6 12 13 12l0 0c6 0 12-5 12-12l0-51c0-6-6-12-12-12l0 0c-7 0-13 5-13 12l0 51z m-25 98l0 0 0 100 0 0 0 14 38 0c20 0 37-17 37-37 0-10-4-19-10-25 6-7 10-16 10-25 0-21-17-38-37-38l-38 0 0 11z m25 14l13 0c6 0 12 6 12 13 0 6-6 12-12 12l0 0-13 0 0-25z m0 50l13 0 0 0c6 0 12 6 12 13 0 6-6 12-12 12l-13 0 0-25z m25-175l25 0 0-25-25 0 0 25z m-25 375l25 0 0-25-25 0 0 25z m-12 25c-7 0-13-7-13-16l0-109 25 0 0 50 26 0-1-50 25 0 0 109c0 9-6 16-12 16l-50 0z" horiz-adv-x="1000" />

<glyph glyph-name="forms" unicode="&#xe82f;" d="M700 250l-250 0 0 350 150 0 0-100 100 0 0-250z m-65 400l-185 0c-28 0-50-22-50-50l0-350c0-28 22-50 50-50l250 0c28 0 50 22 50 50l0 285-115 115z m-260-75l-50 0 0-400c0-28 22-50 50-50l300 0 0 50-300 0 0 400z m-75-75l-50 0 0-400c0-28 22-50 50-50l300 0 0 50-300 0 0 400z" horiz-adv-x="1000" />

<glyph glyph-name="view" unicode="&#xe830;" d="M800 350l-11-15c-5-6-123-160-289-160-166 0-284 154-289 160l-11 15 11 15c5 7 123 160 289 160 166 0 284-153 289-160l11-15z m-300-127c107 0 198 89 232 127-34 38-125 127-232 127-107 0-198-89-231-127 33-38 124-127 231-127z m0 52c-41 0-75 34-75 75 0 41 34 75 75 75 41 0 75-34 75-75 0-41-34-75-75-75z" horiz-adv-x="1000" />

<glyph glyph-name="map-view" unicode="&#xe831;" d="M525 152l-75 60 0 286 75-60 0-286z m-225 285l100 66 0-290-100-66 0 290z m414-258c7 5 11 13 11 21l0 75-50 0 0-62-100-66 0 303c0 8-3 15-9 20l-125 100c-4 2-10 5-15 5-6 0-11-2-15-4l-150-100c-7-5-11-13-11-21l0-350c0-9 5-18 13-22 4-2 8-3 12-3 5 0 10 1 14 4l135 90 110-88c5-4 10-6 16-6 7 0 10 2 14 4l150 100z m-14 396c28 0 50-22 50-50 0-40-28-94-50-130-22 36-50 90-50 130 0 28 22 50 50 50l0 0z m0-267l20 27c3 4 80 108 80 190 0 55-45 100-100 100-55 0-100-45-100-100 0-82 77-186 80-190l20-27z m25 217c0 14-11 25-25 25-14 0-25-11-25-25 0-14 11-25 25-25 14 0 25 11 25 25" horiz-adv-x="1000" />

<glyph glyph-name="projects" unicode="&#xe833;" d="M375 275l50 0 0 50-50 0 0-50z m50 150l-50 0 0-50 50 0 0 50z m-50-250l50 0 0 50-50 0 0-50z m100 100l150 0 0 50-150 0 0-50z m100 150l-100 0 0-50 100 0 0 50z m-100-250l150 0 0 50-150 0 0-50z m-100 425l0 50 250 0 0-50 50 0c28 0 50-22 50-50l0-450c0-27-22-50-50-50l-350 0c-28 0-50 23-50 50l0 450c0 28 22 50 50 50l50 0z m0-50l-50 0 0-450 350 0 0 450-50 0 0-50-250 0 0 50z m50 50l0-50 150 0 0 50-150 0z" horiz-adv-x="1000" />

<glyph glyph-name="table" unicode="&#xe834;" d="M675 200l-350 0 0 250 350 0 0-250z m-375 325l400 0 0-25-400 0 0 25z m450-50l0 75c0 14-12 25-25 25l-450 0c-14 0-25-11-25-25l0-75c0-14 11-25 25-25l0-250-25 0 0-50 225 0 0-50 50 0 0 50 225 0 0 50-25 0 0 250c13 0 25 11 25 25l0 0z m-400-250l75 0 0 50-75 0 0-50z m100 0l200 0 0 50-200 0 0-50z m-100 75l75 0 0 50-75 0 0-50z m100 0l200 0 0 50-200 0 0-50z m-100 75l75 0 0 50-75 0 0-50z m100 0l200 0 0 50-200 0 0-50z" horiz-adv-x="1000" />

<glyph glyph-name="grid" unicode="&#xe835;" d="M300 550l0-50 50 0 0 50-50 0z m50-100l-50 0c-28 0-50 22-50 50l0 50c0 28 22 50 50 50l50 0c28 0 50-22 50-50l0-50c0-28-22-50-50-50l0 0z m-50-75l0-50 50 0 0 50-50 0z m50-100l-50 0c-28 0-50 22-50 50l0 50c0 28 22 50 50 50l50 0c28 0 50-22 50-50l0-50c0-28-22-50-50-50l0 0z m-50-75l0-50 50 0 0 50-50 0z m50-100l-50 0c-28 0-50 22-50 50l0 50c0 28 22 50 50 50l50 0c28 0 50-22 50-50l0-50c0-28-22-50-50-50l0 0z m125 450l0-50 50 0 0 50-50 0z m50-100l-50 0c-28 0-50 22-50 50l0 50c0 28 22 50 50 50l50 0c28 0 50-22 50-50l0-50c0-28-22-50-50-50l0 0z m-50-75l0-50 50 0 0 50-50 0z m50-100l-50 0c-28 0-50 22-50 50l0 50c0 28 22 50 50 50l50 0c28 0 50-22 50-50l0-50c0-28-22-50-50-50l0 0z m-50-75l0-50 50 0 0 50-50 0z m50-100l-50 0c-28 0-50 22-50 50l0 50c0 28 22 50 50 50l50 0c28 0 50-22 50-50l0-50c0-28-22-50-50-50l0 0z m125 450l0-50 50 0 0 50-50 0z m50-100l-50 0c-28 0-50 22-50 50l0 50c0 28 22 50 50 50l50 0c28 0 50-22 50-50l0-50c0-28-22-50-50-50l0 0z m-50-75l0-50 50 0 0 50-50 0z m50-100l-50 0c-28 0-50 22-50 50l0 50c0 28 22 50 50 50l50 0c28 0 50-22 50-50l0-50c0-28-22-50-50-50l0 0z m-50-75l0-50 50 0 0 50-50 0z m50-100l-50 0c-28 0-50 22-50 50l0 50c0 28 22 50 50 50l50 0c28 0 50-22 50-50l0-50c0-28-22-50-50-50l0 0z" horiz-adv-x="1000" />

<glyph glyph-name="clone" unicode="&#xe836;" d="M675 225l0 250-100 0 0 100-150 0 0-350 250 0z m-65 400l115-115 0-285c0-28-22-50-50-50l-250 0c-28 0-50 22-50 50l0 350c0 28 22 50 50 50l185 0z m-285-100l0-400 300 0 0-50-300 0c-28 0-50 22-50 50l0 400 50 0z" horiz-adv-x="1000" />

<glyph glyph-name="cascading" unicode="&#xe837;" d="M725 275l-250 0 0 50 250 0 0-50z m-450-125l250 0 0-50-250 0 0 50z m50 450l250 0 0-50-250 0 0 50z m325-225c0 41-34 75-75 75l-75 0c-14 0-25 11-25 25l0 25 125 0c14 0 25 11 25 25l0 100c0 14-11 25-25 25l-300 0c-14 0-25-11-25-25l0-100c0-14 11-25 25-25l125 0 0-25c0-41 34-75 75-75l75 0c14 0 25-11 25-25l-150 0c-14 0-25-11-25-25l0-100c0-14 11-25 25-25l175 0 0-50c0-14-11-25-25-25l-25 0 0 25c0 14-11 25-25 25l-300 0c-14 0-25-11-25-25l0-100c0-14 11-25 25-25l300 0c14 0 25 11 25 25l0 25 25 0c41 0 75 34 75 75l0 50 75 0c14 0 25 11 25 25l0 100c0 14-11 25-25 25l-100 0z" horiz-adv-x="1000" />

<glyph glyph-name="link-anyone" unicode="&#xe838;" d="M400 406c28 0 50-23 50-50 0-28-22-50-50-50-28 0-50 22-50 50 0 27 22 50 50 50m0-150c55 0 100 44 100 100 0 55-45 100-100 100-55 0-100-45-100-100 0-56 45-100 100-100m-146-150c15 45 71 75 146 75 75 0 131-30 146-75l-292 0z m146 125c-118 0-200-62-200-150l0-25 400 0 0 25c0 88-82 150-200 150l0 0z m148 234l26 27-4 4c-2 2-2 4-2 5 0 1 0 2 2 4l106 106c1 2 3 2 4 2 1 0 3 0 5-2l4-4 27 26-5 5c-16 16-45 16-62 0l-106-106c-8-9-13-20-13-31 0-12 5-23 13-31l5-5z m229 106l-26-26 4-5c3-2 3-6 0-8l-106-106c-1-2-3-2-4-2-1 0-3 0-5 2l-4 4-26-27 4-4c8-8 19-13 31-13 12 0 23 5 31 13l106 106c17 17 17 45 0 62l-5 4z m-83-48l-27 26 88 89 27-27-88-88z m-124-124l-27 27 89 88 26-27-88-88z" horiz-adv-x="1000" />

<glyph glyph-name="link-off" unicode="&#xe839;" d="M400 200l-25 0c-14 0-25-11-25-25l0-75-50 0 0 75c0 14-11 25-25 25l-25 0 0 25c0 41 34 75 75 75 41 0 75-34 75-75l0-25z m-75 238c14 0 25-12 25-25 0-14-11-25-25-25-14 0-25 11-25 25 0 13 11 25 25 25l0 0z m125-213c0 58-39 106-93 120 26 12 43 38 43 68 0 41-34 75-75 75-41 0-75-34-75-75 0-30 18-56 43-68-54-14-93-62-93-120l0-50c0-14 11-25 25-25l25 0 0-75c0-14 11-25 25-25l100 0c14 0 25 11 25 25l0 75 25 0c14 0 25 11 25 25l0 50z m50-125c0 28 22 50 50 50 28 0 50-22 50-50l-100 0z m94 89c19 14 31 36 31 61l-50 0c0-14-11-25-25-25-14 0-25 11-25 25l-50 0c0-25 12-47 31-61-33-16-56-50-56-89l0-25c0-14 11-25 25-25l150 0c14 0 25 11 25 25l0 25c0 39-23 73-56 89l0 0z m156 186l-150 0 0 125 150 0 0-125z m-75 225c28 0 50-22 50-50l-100 0c0 28 22 50 50 50l0 0z m100-50c0 55-45 100-100 100-55 0-100-45-100-100-14 0-25-11-25-25l0-175c0-14 11-25 25-25l200 0c14 0 25 11 25 25l0 175c0 14-11 25-25 25l0 0z m-75-100c0-14-11-25-25-25-14 0-25 11-25 25 0 14 11 25 25 25 14 0 25-11 25-25" horiz-adv-x="1000" />

<glyph glyph-name="arrow-last" unicode="&#xe83a;" d="M350 140l-35 35 175 175-175 175 35 35 210-210-210-210z m125 0l-35 35 175 175-175 175 35 35 210-210-210-210z" horiz-adv-x="1000" />

<glyph glyph-name="camera" unicode="&#xe83c;" d="M500 250c-41 0-75 34-75 75 0 41 34 75 75 75 41 0 75-34 75-75 0-41-34-75-75-75m0 200c-69 0-125-56-125-125 0-69 56-125 125-125 69 0 125 56 125 125 0 69-56 125-125 125m-200-275l0 275 113 0 50 75 73 0 50-75 114 0 0-275-400 0z m400 325l-87 0-35 53c-9 14-25 22-42 22l-73 0c-17 0-32-8-41-22l-35-53-87 0c-28 0-50-22-50-50l0-275c0-27 22-50 50-50l400 0c27 0 50 23 50 50l0 275c0 28-23 50-50 50l0 0z" horiz-adv-x="1000" />

<glyph glyph-name="comment-reply" unicode="&#xe83e;" d="M575 300l0-100-183 0-67-50 0 50-75 0 0 225 200 0 0 50-200 0c-28 0-50-22-50-50l0-225c0-28 22-50 50-50l25 0 0-100 133 100 167 0c28 0 50 22 50 50l0 100-50 0z m75 350c-83 0-150-67-150-150l50 0c0 55 45 100 100 100 55 0 100-45 100-100 0-55-45-100-100-100-27 0-52 10-69 28l-2 1 46 46-125 0 0-125 44 44c28-28 66-44 106-44 83 0 150 67 150 150 0 83-67 150-150 150" horiz-adv-x="1000" />

<glyph glyph-name="data-sync" unicode="&#xe83f;" d="M425 600c114 0 175-35 175-50 0-14-61-50-175-50-114 0-175 36-175 50 0 15 61 50 175 50l0 0z m25-399c-8-1-16-1-25-1-114 0-175 36-175 50l0 35c43-23 109-35 175-35 8 0 17 0 25 1l0 50c-8-1-16-1-25-1-114 0-175 36-175 50l0 35c43-23 109-35 175-35 8 0 17 0 25 1l0 50c-8-1-16-1-25-1-114 0-175 36-175 50l0 35c43-23 109-35 175-35 66 0 132 12 175 35l0-35c0 0 0 0 0 0l50 0 0 100c0 66-113 100-225 100-112 0-225-34-225-100l0-300c0-66 113-100 225-100 8 0 17 0 25 1l0 50z m200-101c-27 0-52 11-70 30l45 45-125 0 0-125 44 44c28-28 66-44 106-44 83 0 150 67 150 150l-50 0c0-55-45-100-100-100m106 206c-28 28-66 44-106 44-83 0-150-67-150-150l50 0c0 55 45 100 100 100 27 0 52-11 70-30l-45-45 125 0 0 125-44-44z" horiz-adv-x="1000" />

<glyph glyph-name="date-and-time" unicode="&#xe840;" d="M400 200l-150 0 0 250 450 0 0 75c0 28-22 50-50 50l-25 0 0 75-50 0 0-125-25 0 0 50-175 0 0 75-50 0 0-125-25 0 0 50-50 0c-28 0-50-22-50-50l0-325c0-28 22-50 50-50l150 0 0 50z m225 150c-69 0-125-56-125-125 0-69 56-125 125-125 69 0 125 56 125 125 0 69-56 125-125 125m0-300c-96 0-175 79-175 175 0 97 79 175 175 175 97 0 175-78 175-175 0-96-78-175-175-175m75 150l-100 0 0 125 50 0 0-75 50 0 0-50z" horiz-adv-x="1000" />

<glyph glyph-name="date" unicode="&#xe841;" d="M725 550c28 0 50-22 50-50l0-375c0-28-22-50-50-50l-450 0c-28 0-50 22-50 50l0 375c0 28 22 50 50 50l50 0 0-50-50 0 0-375 450 0 0 375-75 0 0-50-50 0 0 150 50 0 0-50 75 0z m-325-50l0-50-50 0 0 150 50 0 0-50 175 0 0-50-175 0z m25-100l0-100-100 0 0 100 100 0z m125 0l0-100-100 0 0 100 100 0z m25-100l0 100 100 0 0-100-100 0z m-250-125l0 100 100 0 0-100-100 0z m125 0l0 100 100 0 0-100-100 0z" horiz-adv-x="1000" />

<glyph glyph-name="form-overview" unicode="&#xe842;" d="M250 600l250 0 0-100 100 0 0-50 50 0 0 85-115 115-285 0c-28 0-50-22-50-50l0-450c0-28 22-50 50-50l150 0 0 50-150 0 0 450z m50-325l75 0 0 50-75 0 0-50z m0 100l125 0 0 50-125 0 0-50z m325-275c-69 0-125 56-125 125 0 69 56 125 125 125 69 0 125-56 125-125 0-69-56-125-125-125m0 300c-96 0-175-78-175-175 0-96 79-175 175-175 97 0 175 79 175 175 0 97-78 175-175 175m-25-275l50 0 0 100-50 0 0-100z m25 175c-14 0-25-11-25-25 0-14 11-25 25-25 14 0 25 11 25 25 0 14-11 25-25 25" horiz-adv-x="1000" />

<glyph glyph-name="gps" unicode="&#xe843;" d="M500 400c-28 0-50 22-50 50 0 28 22 50 50 50 28 0 50-22 50-50 0-28-22-50-50-50m0-300c-120 0-250 31-250 100 0 24 16 57 93 80l15-48c-48-14-58-30-58-32 0-13 69-50 200-50 131 0 200 37 200 50 0 2-10 18-57 32l14 48c77-23 93-56 93-80 0-69-130-100-250-100m0 450c-55 0-100-45-100-100 0-62 62-145 100-188 39 43 100 126 100 188 0 55-45 100-100 100l0 0z m0-360l-18 17c-5 6-132 134-132 243 0 83 67 150 150 150 83 0 150-67 150-150 0-109-127-237-132-243l-18-17z" horiz-adv-x="1000" />

<glyph glyph-name="heatmap" unicode="&#xe844;" d="M325 400c-41 0-75 34-75 75 0 41 34 75 75 75 41 0 75-34 75-75 0-41-34-75-75-75z m350 50c-41 0-75 34-75 75 0 41 34 75 75 75 41 0 75-34 75-75 0-41-34-75-75-75z m25-250c-28 0-50 22-50 50 0 28 22 50 50 50 28 0 50-22 50-50 0-28-22-50-50-50z m-187-100c-35 0-63 28-63 63 0 34 28 62 63 62 34 0 62-28 62-62 0-35-28-63-62-63z m-225 0c-21 0-38 17-38 38 0 20 17 37 38 37 20 0 37-17 37-37 0-21-17-38-37-38z m237 150c-69 0-125 56-125 125 0 69 56 125 125 125 69 0 125-56 125-125 0-69-56-125-125-125z" horiz-adv-x="1000" />

<glyph glyph-name="information" unicode="&#xe845;" d="M500 550c-110 0-200-90-200-200 0-110 90-200 200-200 110 0 200 90 200 200 0 110-90 200-200 200m0-450c-138 0-250 112-250 250 0 138 112 250 250 250 138 0 250-112 250-250 0-138-112-250-250-250m25 175l0 100c0 14-11 25-25 25l-50 0 0-50 25 0 0-75-50 0 0-50 150 0 0 50-50 0z m6 175c0-17-14-31-31-31-17 0-31 14-31 31 0 17 14 31 31 31 17 0 31-14 31-31" horiz-adv-x="1000" />

<glyph glyph-name="instagram" unicode="&#xe846;" d="M499 141l0 0c37 0 73-1 110 0 30 1 56 12 74 37 13 17 18 37 18 57 1 71 1 142 0 213-1 61-35 95-96 97-70 1-141 1-211 0-61-2-95-35-97-96-1-71-1-142 0-213 2-59 36-93 95-95 36-1 72 0 107 0m-249 102l0 200c1 5 2 11 2 17 4 64 45 113 107 126 14 3 27 4 41 6l199 0c5-1 10-2 16-2 73-4 129-57 130-131 2-78 2-155 0-233-2-72-57-127-129-129-78-2-156-2-234 0-64 1-113 45-126 107-3 13-4 26-6 39m332 100c0 46-37 83-83 83-46 0-83-37-82-83 0-46 36-82 82-83 46 0 83 37 83 83m-84-128c-71 1-128 58-127 129 1 72 59 128 130 127 71-1 126-58 126-129-1-71-58-127-129-127m134 291c17 0 30-13 30-30 0-17-13-30-30-30-16 0-30 14-30 30 0 16 13 30 30 30" horiz-adv-x="1000" />

<glyph glyph-name="layer" unicode="&#xe847;" d="M337 437l163-73 163 73-163 72-163-72z m163-125c-3 0-7 0-10 2l-225 100c-9 4-15 13-15 23 0 10 6 19 15 23l225 100c6 2 14 2 20 0l225-100c9-4 15-13 15-23 0-10-6-19-15-23l-225-100c-3-2-6-2-10-2l0 0z m250 66l-250-114-250 104 0-54 240-100c3-2 7-2 10-2 4 0 7 0 10 2l240 109 0 55z m0-100l-250-114-250 104 0-54 240-100c3-2 7-2 10-2 4 0 7 0 10 2l240 109 0 55z" horiz-adv-x="1000" />

<glyph glyph-name="link" unicode="&#xe848;" d="M288 244l35 36-17 17c-10 10-10 26 0 36l212 212c4 5 11 7 17 7 7 0 13-2 18-7l18-18 35 36-18 17c-28 29-77 29-106 0l-212-212c-29-29-29-77 0-106l18-18z m442 195l-18 17-35-35 17-18c5-4 8-11 8-17 0-7-3-13-8-18l-212-212c-9-9-26-9-35 0l-18 18-35-36 18-17c14-15 33-22 53-22 20 0 39 7 53 22l212 212c14 14 22 33 22 53 0 20-8 39-22 53m-177-71l-35 35 176 177 36-35-177-177z m-247-247l-36 35 177 177 35-36-176-176z" horiz-adv-x="1000" />

<glyph glyph-name="menu" unicode="&#xe849;" d="M700 475l-400 0 0 50 400 0 0-50z m0-100l-400 0 0 50 400 0 0-50z m0-100l-400 0 0 50 400 0 0-50z m0-100l-400 0 0 50 400 0 0-50z" horiz-adv-x="1000" />

<glyph glyph-name="mobile-form" unicode="&#xe84b;" d="M375 100l0 75 275 0 0-75-275 0z m275 375l0-250-275 0 0 250 275 0z m0 50l-275 0 0 75 275 0 0-75z m-12 125l-250 0c-35 0-63-27-63-60l0-480c0-33 28-60 63-60l250 0c34 0 62 27 62 60l0 480c0 33-28 60-62 60l0 0z m-213-375l175 0 0 50-175 0 0-50z m100 150l-100 0 0-50 100 0 0 50z" horiz-adv-x="1000" />

<glyph glyph-name="number" unicode="&#xe84c;" d="M537 291l-103 0 28 93 103 0-28-93z m115 234l-45 0-28-94-103 0 28 94-44 0-28-94-90 0 0-47 76 0-28-93-90 0 0-47 76 0-28-94 44 0 28 94 103 0-28-94 45 0 28 94 90 0 0 47-76 0 28 93 90 0 0 47-76 0 28 94z" horiz-adv-x="1000" />

<glyph glyph-name="pins" unicode="&#xe84d;" d="M350 550c-55 0-100-45-100-100 0-74 57-160 100-217 3 4 20 27 22 30-9 22-15 43-19 62-1-2-2-4-3-5-22 36-50 90-50 130 0 28 22 50 50 50 24 0 44-17 49-39 13 11 27 21 43 27-15 37-50 62-92 62m300 0c-42 0-77-25-92-62 16-6 30-16 43-27 5 22 25 39 49 39 28 0 50-22 50-50 0-40-28-94-50-130-1 1-2 3-3 5-4-19-10-40-19-62 3-4 19-25 22-30 43 57 100 142 100 217 0 55-45 100-100 100m-150-330c-22 36-50 90-50 130 0 28 22 50 50 50 28 0 50-22 50-50 0-40-28-94-50-130m0 230c-55 0-100-45-100-100 0-74 57-160 100-217 43 58 100 142 100 217 0 55-45 100-100 100" horiz-adv-x="1000" />

<glyph glyph-name="plus" unicode="&#xe84e;" d="M525 375l0 200-50 0 0-200-200 0 0-50 200 0 0-200 50 0 0 200 200 0 0 50-200 0z" horiz-adv-x="1000" />

<glyph glyph-name="public-collection" unicode="&#xe84f;" d="M375 506l0-56-48 0c13 22 29 40 48 56l0 0z m0-206l-68 0c-4 16-7 33-7 50 0 17 3 34 7 50l68 0 0-100z m0-106c-19 16-35 35-48 56l48 0 0-56z m-125 156c0-138 112-250 250-250l0 50c-26 0-52 5-75 15l0 85 75 0 0 50-75 0 0 100 75 0 0 50-75 0 0 85c23 10 49 15 75 15l0 50c-138 0-250-112-250-250l0 0z m400 150c-14 0-25 11-25 25 0 14 11 25 25 25 14 0 25-11 25-25 0-14-11-25-25-25m75 25c0 41-34 75-75 75-41 0-75-34-75-75 0-41 34-75 75-75 41 0 75 34 75 75m0-250l-25 0c-14 0-25-11-25-25l0-100-50 0 0 100c0 14-11 25-25 25l-25 0 0 50c0 41 34 75 75 75 41 0 75-34 75-75l0-50z m-75 175c-69 0-125-56-125-125l0-75c0-14 11-25 25-25l25 0 0-100c0-14 11-25 25-25l100 0c14 0 25 11 25 25l0 100 25 0c14 0 25 11 25 25l0 75c0 69-56 125-125 125l0 0z" horiz-adv-x="1000" />

<glyph glyph-name="remove" unicode="&#xe850;" d="M500 550c-110 0-200-90-200-200 0-110 90-200 200-200 110 0 200 90 200 200 0 110-90 200-200 200m0-450c-138 0-250 112-250 250 0 138 112 250 250 250 138 0 250-112 250-250 0-138-112-250-250-250m118 332l-36 36-82-83-82 83-36-36 83-82-83-82 36-36 82 83 82-83 36 36-83 82 83 82z" horiz-adv-x="1000" />

<glyph glyph-name="report-menu" unicode="&#xe851;" d="M650 475l-400 0 0 50 400 0 0-50z m0-100l-400 0 0 50 400 0 0-50z m-150-100l-250 0 0 50 250 0 0-50z m-150-100l-100 0 0 50 100 0 0-50z m247 111l38-74 65 43 0-60-61-41c-6-4-14-5-21-3-6 2-12 6-15 13l-26 50-29-73c-3-8-10-14-18-15-8-2-17 0-23 6l-35 36-72-48 0 60 61 41c10 6 23 5 32-3l23-23 36 89c3 9 12 16 22 16 10 1 19-5 23-14z" horiz-adv-x="1000" />

<glyph glyph-name="restore" unicode="&#xe852;" d="M500 100c-22 0-42 3-62 8l0 43c19-6 40-9 62-9 115 0 208 93 208 208 0 115-93 208-208 208-115 0-208-93-208-208 0-58 24-110 62-148l0 65 42 0 0-125-125 0 0 41 43 0c-40 45-64 103-64 167 0 138 112 250 250 250 138 0 250-112 250-250 0-138-112-250-250-250m-21 396l0-155 90-89 29 29-77 78 0 137-42 0z" horiz-adv-x="1000" />

<glyph glyph-name="search" unicode="&#xe853;" d="M450 250c-40 0-78 16-106 44-28 28-44 66-44 106 0 40 16 78 44 106 28 28 66 44 106 44 40 0 78-16 106-44 28-28 44-66 44-106 0-40-16-78-44-106-28-28-66-44-106-44l0 0z m293-107l-135 135c27 34 42 77 42 122 0 53-21 104-59 141-37 38-88 59-141 59-53 0-104-21-141-59-38-37-59-88-59-141 0-53 21-104 59-141 37-38 88-59 141-59 45 0 88 15 123 42l134-135 36 36z" horiz-adv-x="1000" />

<glyph glyph-name="select-many" unicode="&#xe854;" d="M380 470l-40 0 0 40 40 0 0-40z m20 80c11 0 20-9 20-20l0-80c0-11-9-20-20-20l-80 0c-11 0-20 9-20 20l0 80c0 11 9 20 20 20l80 0z m-20-220l-40 0 0 40 40 0 0-40z m20 80c11 0 20-9 20-20l0-80c0-11-9-20-20-20l-80 0c-11 0-20 9-20 20l0 80c0 11 9 20 20 20l80 0z m-20-220l-40 0 0 40 40 0 0-40z m20 80c11 0 20-9 20-20l0-80c0-11-9-20-20-20l-80 0c-11 0-20 9-20 20l0 80c0 11 9 20 20 20l80 0z m60 200l0 40 240 0 0-40-240 0z m0-140l0 40 240 0 0-40-240 0z m0-140l0 40 240 0 0-40-240 0z" horiz-adv-x="1000" />

<glyph glyph-name="select-one" unicode="&#xe855;" d="M500 510c-88 0-160-72-160-160 0-88 72-160 160-160 88 0 160 72 160 160 0 88-72 160-160 160m0-360c-110 0-200 90-200 200 0 110 90 200 200 200 110 0 200-90 200-200 0-110-90-200-200-200m0 140c33 0 60 27 60 60 0 33-27 60-60 60-33 0-60-27-60-60 0-33 27-60 60-60z" horiz-adv-x="1000" />

<glyph glyph-name="text" unicode="&#xe857;" d="M631 550l-262 0c-11 0-19-9-19-20l0-60 38 0 0 40 93 0 0-320-56 0 0-40 150 0 0 40-56 0 0 320 93 0 0-40 38 0 0 60c0 11-9 20-19 20" horiz-adv-x="1000" />

<glyph glyph-name="dropdown-arrow" unicode="&#xe858;" d="M625 400l-125-125-125 125 250 0z" horiz-adv-x="1000" />

<glyph glyph-name="upload" unicode="&#xe859;" d="M650 100l-300 0c-28 0-50 22-50 50l0 50 50 0 0-50 300 0 0 50 50 0 0-50c0-28-22-50-50-50m-175 200l50 0 0 150c0 14 11 25 25 25l15 0-65 65-65-65 15 0c14 0 25-11 25-25l0-150z m75-50l-100 0c-14 0-25 11-25 25l0 150-50 0c-10 0-19 6-23 15-4 10-2 21 5 28l125 125c10 10 26 10 36 0l125-125c7-7 9-18 5-28-4-9-13-15-23-15l-50 0 0-150c0-14-11-25-25-25l0 0z" horiz-adv-x="1000" />

<glyph glyph-name="video" unicode="&#xe85a;" d="M675 315l-50 25 0 20 50 25 0-70z m-100-65l-225 0 0 200 225 0 0-200z m138 196c-7 5-16 5-24 1l-64-32 0 35c0 28-22 50-50 50l-225 0c-28 0-50-22-50-50l0-200c0-28 22-50 50-50l225 0c28 0 50 22 50 50l0 35 64-32c3-2 7-3 11-3 5 0 9 1 13 4 8 4 12 12 12 21l0 150c0 9-4 17-12 21l0 0z" horiz-adv-x="1000" />

<glyph glyph-name="webform" unicode="&#xe85b;" d="M260 150l33 100 414 0 33-100-480 0z m440 150l-400 0 0 250 400 0 0-250z m90-143l-40 122 0 296c0 14-12 25-25 25l-450 0c-14 0-25-11-25-25l0-296-41-122c-4-14-3-29 5-40 8-11 21-17 36-17l500 0c14 0 27 6 35 17 8 11 10 26 5 40l0 0z m-340 18l100 0 0 50-100 0 0-50z m-100 175l50 0 0 50-50 0 0-50z m50 150l-50 0 0-50 50 0 0 50z m50-150l150 0 0 50-150 0 0-50z m100 150l-100 0 0-50 100 0 0 50z" horiz-adv-x="1000" />

<glyph glyph-name="xls-file" unicode="&#xe85c;" d="M328 575l0-125-50 0 0 125c0 28 23 50 50 50l286 0 114-115 0-60-50 0 0 25-100 0 0 100-250 0z m350-450l0 25 50 0 0-25c0-28-22-50-50-50l-350 0c-27 0-50 22-50 50l0 25 50 0 0-25 350 0z m-225 275l50 0 0-150 75 0 0-50-125 0 0 200z m213-50c-7 0-13-6-13-12 0-7 6-13 13-13l25 0c34 0 62-28 62-62 0-35-28-63-62-63l-88 0 0 50 88 0c7 0 12 6 12 13 0 6-5 12-12 12l-25 0c-35 0-63 28-63 63 0 34 28 62 63 62l87 0 0-50-87 0z m-358-150l-58 0 60 100-60 100 58 0 31-51 31 51 58 0-60-100 60-100-58 0-31 51-31-51z" horiz-adv-x="1000" />

<glyph glyph-name="xml-file" unicode="&#xe85d;" d="M328 575l250 0 0-100 100 0 0-25 50 0 0 60-114 115-286 0c-27 0-50-22-50-50l0-125 50 0 0 125z m350-450l-350 0 0 25-50 0 0-25c0-28 23-50 50-50l350 0c28 0 50 22 50 50l0 25-50 0 0-25z m-53 275l0-200 125 0 0 50-75 0 0 150-50 0z m-125-108l4-6c10-14 33-14 42 0l4 6 0-92 50 0 0 175c0 11-7 21-18 24-10 3-22-1-28-10l-29-44-29 44c-6 9-18 13-28 10-11-3-18-13-18-24l0-175 50 0 0 92z m-192-92l31 51 31-51 58 0-60 100 60 100-58 0-31-51-31 51-58 0 60-100-60-100 58 0z" horiz-adv-x="1000" />
</font>
</defs>
</svg>
