<svg id="Layer_1" data-name="Layer 1" xmlns="http://www.w3.org/2000/svg" viewBox="0 0 547.68 418.3"><defs><style>.cls-1{fill:#213339;}</style></defs><path class="cls-1" d="M235.18,127.52a4.57,4.57,0,1,0,4.57,4.57A4.57,4.57,0,0,0,235.18,127.52Zm36.49,33.62a8,8,0,1,0-8-8A8,8,0,0,0,271.67,161.14Zm-18.24-8a6.09,6.09,0,1,0-6.09,6.09A6.09,6.09,0,0,0,253.43,153.15Zm42.56-8a8,8,0,1,0,8,8A8,8,0,0,0,296,145.16Zm0-28a6.09,6.09,0,1,0-6.08-6.09A6.09,6.09,0,0,0,296,117.11Zm-36.48,21.06a6.09,6.09,0,1,0-6.09-6.08A6.08,6.08,0,0,0,259.51,138.17Zm-12.17-23.72a3.43,3.43,0,1,0-3.42-3.43A3.43,3.43,0,0,0,247.34,114.45ZM223,107.6a3.43,3.43,0,1,0,3.42,3.42A3.42,3.42,0,0,0,223,107.6Zm97.3-4.57a8,8,0,1,0,8,8A8,8,0,0,0,320.32,103Zm-12.17,21a8,8,0,1,0,8,8A8,8,0,0,0,308.15,124ZM283.83,138.1a6.09,6.09,0,1,0-6.09-6.09A6.09,6.09,0,0,0,283.83,138.1Zm-24.32,28.13a8,8,0,1,0,8,8A8,8,0,0,0,259.51,166.23Zm24.32,1.9a6.09,6.09,0,1,0,6.09,6.09A6.09,6.09,0,0,0,283.83,168.13ZM271.67,189.2a6.09,6.09,0,1,0,6.09,6.08A6.09,6.09,0,0,0,271.67,189.2Z"/><path class="cls-1" d="M182.51,261.1c-15.55,0-25.59,10.26-25.59,27.47s9.82,26.59,25.81,26.59c13.1,0,19.72-6,22.36-15.44a.58.58,0,0,0-.41-.71l-7.29-2a.58.58,0,0,0-.7.39c-1.7,5.49-5,9.83-14,9.83-9.92,0-15.44-5.73-16.21-16.21h38.3a.59.59,0,0,0,.58-.53c.19-2.14.28-4.22.28-5.65C205.68,270.59,198,261.1,182.51,261.1Zm-15.88,22.95c1.11-10.26,6.62-15.34,15.67-15.34,9.48,0,14,5.52,14.45,15.34Zm93.43-21.63h-8.45a.57.57,0,0,0-.57.58v50.37a.56.56,0,0,0,.57.57h8.45a.57.57,0,0,0,.57-.57V263A.58.58,0,0,0,260.06,262.42Zm-17.56-.55h-1.18c-7.95,0-13.24,4-15.89,15.23l-.77-.11V263a.58.58,0,0,0-.58-.58H216a.58.58,0,0,0-.58.58v50.37a.57.57,0,0,0,.58.57h8.44a.57.57,0,0,0,.58-.57V288.46c0-11.58,4.52-16,15.66-16h1.85a.8.8,0,0,0,.8-.8v-9A.8.8,0,0,0,242.5,261.87Zm179.21-.77c-15.56,0-25.6,10.26-25.6,27.47s9.82,26.59,25.82,26.59c13.09,0,19.71-6,22.35-15.44a.57.57,0,0,0-.41-.71l-7.28-2a.57.57,0,0,0-.7.39c-1.71,5.49-5,9.83-14,9.83-9.93,0-15.45-5.73-16.22-16.21H444a.59.59,0,0,0,.58-.53c.19-2.14.28-4.22.28-5.65C444.87,270.59,437.15,261.1,421.71,261.1Zm-15.89,22.95c1.1-10.26,6.62-15.34,15.67-15.34,9.49,0,14,5.52,14.45,15.34ZM366.09,261.1c-15.55,0-25.59,10.26-25.59,27.47s9.82,26.59,25.81,26.59c13.1,0,19.72-6,22.36-15.44a.58.58,0,0,0-.41-.71L381,297a.58.58,0,0,0-.7.39c-1.7,5.49-5,9.83-14,9.83-9.92,0-15.44-5.73-16.21-16.21h38.3a.59.59,0,0,0,.58-.53c.19-2.14.28-4.22.28-5.65C389.26,270.59,381.54,261.1,366.09,261.1Zm-15.88,22.95c1.1-10.26,6.62-15.34,15.67-15.34,9.48,0,14,5.52,14.45,15.34ZM154.9,262.42h-9.11a.58.58,0,0,0-.55.39l-15.12,42.62a.37.37,0,0,1-.34.24H129a.35.35,0,0,1-.33-.24l-15.24-42.62a.58.58,0,0,0-.54-.39h-9.33a.5.5,0,0,0-.47.69l20,50.47a.58.58,0,0,0,.54.36h11.46a.56.56,0,0,0,.53-.36l19.78-50.47A.51.51,0,0,0,154.9,262.42Zm146.15,42.76a26.15,26.15,0,0,1-7.2,1.15c-5.74,0-7.94-3-7.94-8.82V270.37h15.86a.58.58,0,0,0,.58-.58V263a.58.58,0,0,0-.58-.58H285.91V248.55a.58.58,0,0,0-.58-.58h-8.45a.58.58,0,0,0-.57.58v13.87h-7.26a.57.57,0,0,0-.57.58v6.79a.57.57,0,0,0,.57.58h7.26v28.24c0,9.6,4.74,16.66,15.56,16.66a32.18,32.18,0,0,0,10.55-1.62.58.58,0,0,0,.41-.64l-1.05-7.35Zm36.42-43.31h-1.18c-7.94,0-13.24,4-15.89,15.23l-.77-.11V263a.58.58,0,0,0-.57-.58h-8.12a.57.57,0,0,0-.57.58v50.37a.56.56,0,0,0,.57.57h8.45a.57.57,0,0,0,.57-.57V288.46c0-11.58,4.53-16,15.67-16h1.84a.8.8,0,0,0,.8-.8v-9A.8.8,0,0,0,337.47,261.87Zm-81.85-18.63a6,6,0,1,0,6,6A6,6,0,0,0,255.62,243.24Z"/></svg>