<?xml version="1.0" encoding="UTF-8"?>
<!DOCTYPE svg PUBLIC "-//W3C//DTD SVG 1.1//EN" "http://www.w3.org/Graphics/SVG/1.1/DTD/svg11.dtd">
<svg version="1.1" xmlns="http://www.w3.org/2000/svg" xmlns:xlink="http://www.w3.org/1999/xlink" x="0" y="0" width="85" height="85" viewBox="0, 0, 85, 85">
  <g id="Capa_1">
    <path d="M11.23,37.48 C11.07,37.99 10.74,38.34 10.26,38.55 C9.77,38.75 9.27,38.77 8.77,38.62 C8.26,38.46 7.9,38.14 7.68,37.65 C7.46,37.16 7.44,36.66 7.63,36.16 L16.38,12.8 C16.57,12.29 16.91,11.93 17.4,11.71 C17.88,11.49 18.38,11.47 18.89,11.66 C19.45,11.85 19.83,12.23 20.02,12.8 L29.24,35.92 C29.43,36.43 29.42,36.92 29.22,37.41 C29.01,37.9 28.66,38.24 28.16,38.43 C27.65,38.59 27.15,38.57 26.67,38.38 C26.18,38.19 25.84,37.84 25.65,37.34 L18.27,18.85 L11.23,37.48 z M11.23,37.48" fill="#F2F2F2" id="logo-bezier"/>
    <path d="M43.38,23.14 L49.43,23.14 C50.53,23.14 51.55,23.33 52.48,23.71 C53.41,24.08 54.21,24.62 54.89,25.31 C55.57,26.01 56.1,26.82 56.48,27.75 C56.85,28.68 57.04,29.7 57.04,30.8 C57.04,31.9 56.85,32.93 56.48,33.87 C56.1,34.82 55.58,35.65 54.92,36.36 C54.25,37.07 53.46,37.63 52.53,38.04 C51.6,38.45 50.56,38.65 49.43,38.65 L36.55,38.65 C36.02,38.65 35.55,38.45 35.16,38.06 C34.76,37.66 34.57,37.18 34.57,36.62 C34.57,36.08 34.76,35.62 35.16,35.22 C35.55,34.83 36.02,34.63 36.55,34.63 L49.43,34.63 C50.53,34.6 51.41,34.22 52.05,33.5 C52.7,32.77 53.02,31.87 53.02,30.8 C53.02,29.82 52.72,28.97 52.1,28.25 C51.49,27.52 50.67,27.16 49.67,27.16 C48.44,27.16 47.19,27.17 45.93,27.21 C44.67,27.24 43.41,27.22 42.15,27.16 C41.01,27.13 39.98,26.91 39.05,26.5 C38.12,26.09 37.32,25.54 36.66,24.87 C36,24.19 35.49,23.37 35.12,22.41 C34.76,21.45 34.58,20.4 34.58,19.26 C34.58,18.19 34.77,17.18 35.15,16.23 C35.53,15.29 36.05,14.48 36.71,13.8 C37.37,13.12 38.17,12.59 39.1,12.21 C40.03,11.84 41.04,11.65 42.15,11.65 L42.15,11.6 L55.02,11.6 C55.59,11.6 56.07,11.81 56.46,12.21 C56.86,12.62 57.06,13.1 57.06,13.63 C57.06,14.17 56.86,14.64 56.46,15.05 C56.07,15.46 55.59,15.67 55.02,15.67 L42.15,15.67 C41.07,15.64 40.22,15.97 39.57,16.66 C38.92,17.35 38.6,18.24 38.6,19.31 C38.6,20.38 38.91,21.28 39.55,22 C40.18,22.73 41.04,23.11 42.15,23.14 L43.38,23.14 z M43.38,23.14" fill="#F2F2F2" id="logo-bezier2"/>
    <path d="M67.35,13.56 C67.35,13.03 67.54,12.57 67.91,12.19 C68.29,11.81 68.75,11.62 69.29,11.62 C69.82,11.62 70.28,11.81 70.66,12.19 C71.04,12.57 71.23,13.03 71.23,13.56 L71.23,36.69 C71.23,37.22 71.04,37.68 70.66,38.06 C70.28,38.44 69.82,38.63 69.29,38.63 C68.75,38.63 68.29,38.44 67.91,38.06 C67.54,37.68 67.35,37.22 67.35,36.69 L67.35,13.56 z M67.35,13.56" fill="#F2F2F2" id="logo-bezier3"/>
    <path d="M51.63,52.54 C50.89,51.63 50.02,50.9 49.02,50.37 C48.03,49.83 46.95,49.57 45.79,49.57 C44.66,49.57 43.59,49.83 42.6,50.37 C41.6,50.9 40.73,51.63 39.99,52.54 C39.25,53.46 38.67,54.53 38.24,55.77 C37.81,57 37.59,58.34 37.59,59.77 C37.59,61.17 37.81,62.49 38.24,63.73 C38.67,64.96 39.25,66.04 39.99,66.95 C40.73,67.87 41.6,68.59 42.6,69.12 C43.59,69.66 44.66,69.92 45.79,69.92 C46.95,69.92 48.03,69.66 49.02,69.12 C50.02,68.59 50.89,67.87 51.63,66.95 C52.37,66.04 52.95,64.96 53.38,63.73 C53.81,62.49 54.03,61.17 54.03,59.77 C54.03,58.34 53.81,57 53.38,55.77 C52.95,54.53 52.37,53.46 51.63,52.54 z M45.79,45.82 C47.37,45.82 48.83,46.19 50.19,46.92 C51.54,47.65 52.74,48.65 53.77,49.93 C54.79,51.21 55.59,52.69 56.18,54.36 C56.76,56.03 57.05,57.84 57.05,59.79 C57.05,61.71 56.76,63.51 56.18,65.2 C55.59,66.89 54.79,68.37 53.77,69.65 C52.74,70.93 51.54,71.92 50.19,72.62 C48.83,73.32 47.37,73.67 45.79,73.67 C44.24,73.67 42.78,73.32 41.41,72.62 C40.05,71.92 38.85,70.93 37.81,69.65 C36.79,68.37 36,66.89 35.43,65.2 C34.85,63.51 34.57,61.71 34.57,59.79 C34.57,57.84 34.85,56.03 35.43,54.36 C36,52.69 36.79,51.21 37.81,49.93 C38.85,48.65 40.05,47.65 41.41,46.92 C42.78,46.19 44.24,45.82 45.79,45.82 z M45.79,45.82" fill="#F2F2F2" id="logo-bezier4"/>
    <path d="M69.18,65.72 L76.56,47.23 C76.75,46.73 77.09,46.37 77.58,46.17 C78.07,45.96 78.56,45.95 79.07,46.14 C79.57,46.37 79.93,46.71 80.13,47.18 C80.34,47.66 80.34,48.15 80.16,48.65 L70.93,71.78 C70.74,72.34 70.37,72.72 69.8,72.91 C69.26,73.07 68.76,73.04 68.29,72.84 C67.81,72.63 67.48,72.28 67.29,71.78 L58.54,48.41 C58.39,47.91 58.4,47.42 58.59,46.95 C58.78,46.48 59.14,46.14 59.68,45.95 C60.18,45.77 60.67,45.78 61.14,46 C61.62,46.22 61.95,46.59 62.14,47.09 L69.18,65.72 z M69.18,65.72" fill="#F2F2F2" id="logo-bezier5"/>
    <path d="M7.75,47.46 C7.91,46.95 8.19,46.56 8.6,46.27 C9.04,45.99 9.52,45.9 10.04,46.01 C10.56,46.12 10.98,46.4 11.3,46.84 L18.81,58.52 L26,46.79 C26.29,46.32 26.69,46.02 27.21,45.89 C27.73,45.77 28.21,45.85 28.65,46.13 C29,46.35 29.26,46.65 29.43,47.03 C29.6,47.41 29.65,47.79 29.55,48.16 C29.58,48.26 29.6,48.39 29.6,48.54 L29.6,71.67 C29.6,72.2 29.41,72.66 29.03,73.04 C28.65,73.42 28.19,73.61 27.66,73.61 C27.12,73.61 26.67,73.42 26.29,73.04 C25.91,72.66 25.72,72.2 25.72,71.67 L25.72,54.69 L20.56,63.16 C20.28,63.63 19.87,63.93 19.34,64.05 C18.8,64.18 18.31,64.1 17.87,63.82 C17.71,63.72 17.59,63.62 17.49,63.51 C17.4,63.4 17.3,63.28 17.21,63.16 L11.3,54.03 L7.75,47.46 z M7.75,47.46" fill="#F2F2F2" id="logo-bezier6"/>
    <path d="M7.75,47.83 C7.75,47.28 7.94,46.81 8.32,46.42 C8.69,46.03 9.15,45.84 9.69,45.84 C10.22,45.84 10.68,46.03 11.06,46.42 C11.44,46.81 11.63,47.28 11.63,47.83 L11.63,71.58 C11.63,72.13 11.44,72.6 11.06,72.99 C10.68,73.37 10.22,73.57 9.69,73.57 C9.15,73.57 8.69,73.37 8.32,72.99 C7.94,72.6 7.75,72.13 7.75,71.58 L7.75,47.83 z M7.75,47.83" fill="#F2F2F2" id="logo-bezier7"/>
    <path d="M64.26,15.5 C63.72,15.5 63.26,15.31 62.89,14.93 C62.51,14.56 62.32,14.1 62.32,13.56 C62.32,13.03 62.51,12.57 62.89,12.19 C63.26,11.81 63.72,11.62 64.26,11.62 L69.29,11.62 C69.82,11.62 70.28,11.81 70.66,12.19 C71.04,12.57 71.23,13.03 71.23,13.56 C71.23,14.1 71.04,14.56 70.66,14.93 C70.28,15.31 69.82,15.5 69.29,15.5 L64.26,15.5 z M64.26,15.5" fill="#F2F2F2" id="logo-bezier8"/>
    <text transform="matrix(1, 0, 0, 1, 79.252, 99.2)">
      <tspan x="-2.579" y="-26" font-family="Helvetica" font-size="7" fill="#FFFFFF">®</tspan>
    </text>
  </g>
</svg>
