<?xml version="1.0" encoding="UTF-8"?>
<svg width="40px" height="40px" viewBox="0 0 40 40" version="1.1" xmlns="http://www.w3.org/2000/svg" xmlns:xlink="http://www.w3.org/1999/xlink">
    <!-- Generator: Sketch 50.2 (55047) - http://www.bohemiancoding.com/sketch -->
    <title>Icons/alert</title>
    <desc>Created with Sketch.</desc>
    <defs>
        <path d="M20,12 C15.589,12 12,15.589 12,20 C12,24.411 15.589,28 20,28 C24.411,28 28,24.411 28,20 C28,15.589 24.411,12 20,12 M20,30 C14.486,30 10,25.515 10,20 C10,14.486 14.486,10 20,10 C25.514,10 30,14.486 30,20 C30,25.515 25.514,30 20,30 M21,21 L19,21 L19,14 L21,14 L21,21 Z M21.25,24 C21.25,24.69 20.69,25.25 20,25.25 C19.31,25.25 18.75,24.69 18.75,24 C18.75,23.31 19.31,22.75 20,22.75 C20.69,22.75 21.25,23.31 21.25,24" id="path-1"></path>
    </defs>
    <g id="Icons/alert" stroke="none" stroke-width="1" fill="none" fill-rule="evenodd">
        <mask id="mask-2" fill="white">
            <use xlink:href="#path-1"></use>
        </mask>
        <use id="Mask" fill="#000000" xlink:href="#path-1"></use>
    </g>
</svg>