<svg height="642" viewBox="0 0 642 642" width="642" xmlns="http://www.w3.org/2000/svg"><path d="m321 46c151.877917 0 275 123.121625 275 275 0 151.877917-123.122083 275-275 275-151.878375 0-275-123.122083-275-275 0-151.878375 123.121625-275 275-275zm0 366.666667c-25.31375 0-45.833333 20.519583-45.833333 45.833333s20.519583 45.833333 45.833333 45.833333 45.833333-20.519583 45.833333-45.833333-20.519583-45.833333-45.833333-45.833333zm22.916667-275h-45.833334c-12.656875 0-22.916666 10.26025-22.916666 22.916666v183.333334c0 12.656875 10.259791 22.916666 22.916666 22.916666h45.833334c12.656875 0 22.916666-10.259791 22.916666-22.916666v-183.333334c0-12.656416-10.259791-22.916666-22.916666-22.916666z" fill-rule="evenodd"/></svg>