<svg height="280" viewBox="0 0 280 280" width="280" xmlns="http://www.w3.org/2000/svg"><path d="m56.6655 20c10.2567168 0 18.7101432 7.7208038 19.8654454 17.6675775l.1345546 2.3324225v200c0 11.045695-8.954305 20-20 20-10.2567168 0-18.7101432-7.720804-19.8654454-17.667577l-.1345546-2.332423v-200c0-11.045695 8.954305-20 20-20zm180.811065 5.8577937c7.209715 7.2096431 7.764363 18.5542615 1.663904 26.4001161l-1.663763 1.8841551-85.851206 85.8579351 85.851206 85.857935c7.209644 7.209715 7.764178 18.554339 1.66364 26.400133l-1.663781 1.884138c-7.209715 7.209644-18.554339 7.764178-26.400133 1.66364l-1.884138-1.663781-99.999-100c-7.209593-7.209664-7.764177-18.554191-1.663752-26.399988l1.663752-1.884142 99.999-99.9999999c7.810446-7.8105249 20.473746-7.8105882 28.284271-.0001414z" transform="matrix(-1 0 0 -1 280 280)"/></svg>