<svg height="642" viewBox="0 0 642 642" width="642" xmlns="http://www.w3.org/2000/svg"><path d="m496 124.125c24.128125 0 43.75 19.64375 43.75 43.75v65.625c0 12.075-9.8 21.875-21.875 21.875v218.75c0 24.128125-19.621875 43.75-43.75 43.75h-306.25c-24.128125 0-43.75-19.621875-43.75-43.75v-218.75c-12.075 0-21.875-9.8-21.875-21.875v-65.625c0-24.10625 19.621875-43.75 43.75-43.75zm-21.875 131.25h-306.25v218.75h306.25zm-87.5 21.875v65.625h-131.25v-65.625zm109.375-109.375h-350v43.75h350z" fill-rule="evenodd"/></svg>