<svg height="642" viewBox="0 0 642 642" width="642" xmlns="http://www.w3.org/2000/svg"><path d="m359.851936 39.3842865 182.101737 182.0231905c10.728436 10.724085 10.728436 28.109788 0 38.833873l-29.828665 29.815841c-10.728436 10.724085-28.122612 10.724085-38.851048 0l-106.474155-106.427896v412.170797c0 12.647229-10.252344 22.900031-22.900031 22.900031h-45.800063c-12.647688 0-22.900032-10.252802-22.900032-22.900031v-412.170797l-106.473696 106.427896c-10.728665 10.724085-28.123529 10.724085-38.852193 0l-29.827291-29.815841c-10.7286652-10.724085-10.7286652-28.109788 0-38.833873l182.10105-182.0231905c21.457329-21.4458795 56.247057-21.4458795 77.704387 0z"/></svg>