<svg height="642" viewBox="0 0 642 642" width="642" xmlns="http://www.w3.org/2000/svg"><path d="m602.615713 359.851936-182.02319 182.101737c-10.724085 10.728436-28.109788 10.728436-38.833873 0l-29.815841-29.828665c-10.724085-10.728436-10.724085-28.122612 0-38.851048l106.427896-106.474155h-412.1707966c-12.6472294 0-22.9000315-10.252344-22.9000315-22.900031v-45.800063c0-12.647688 10.2528021-22.900032 22.9000315-22.900032h412.1707966l-106.427896-106.473696c-10.724085-10.728665-10.724085-28.123529 0-38.852193l29.815841-29.827291c10.724085-10.7286652 28.109788-10.7286652 38.833873 0l182.02319 182.10105c21.44588 21.457329 21.44588 56.247057 0 77.704387z"/></svg>