<svg height="280" viewBox="0 0 280 280" width="280" xmlns="http://www.w3.org/2000/svg"><path d="m239.975855 63.9098498.024145 111.9295742c0 6.594362-5.342912 11.938611-11.937274 11.937274l-18.334323-.003942c-6.594362-.001338-11.941216-5.348192-11.942553-11.942553l-.01422-65.444671-126.6985539 126.698554c-3.887674 3.887674-10.1908192 3.887815-14.0786339 0l-14.0786339-14.078634c-3.8878148-3.887815-3.887674-10.19096 0-14.078634l126.6985537-126.6985537-65.444529-.0140786c-6.5944325-.0014079-11.9414977-5.348473-11.9429055-11.9429052l-.0035197-18.333901c-.0014079-6.5944321 5.3428416-11.9372739 11.9372732-11.9372739l111.929364.0239339c13.18816.0035197 23.88229 10.69765 23.88581 23.8858103z"/></svg>