<svg height="280" viewBox="0 0 280 280" width="280" xmlns="http://www.w3.org/2000/svg"><path d="m156.965975 17.0242938 79.52 79.4856c4.685 4.6831002 4.685 12.2751002 0 16.9581002l-13.025 13.02c-4.685 4.683-12.281 4.683-16.966 0l-46.495-46.4748002v179.9868062c0 5.522994-4.477 10-10 10h-20c-5.523 0-10-4.477006-10-10v-179.9868062l-46.4951 46.4748002c-4.685 4.683-12.2807 4.683-16.9656 0l-13.0256-13.02c-4.6849-4.683-4.6849-12.275 0-16.9581002l79.5203-79.4856c9.37-9.36573005 24.562-9.36572005 33.932 0z"/></svg>