<svg height="280" viewBox="0 0 280 280" width="280" xmlns="http://www.w3.org/2000/svg"><path d="m216.090045 239.975749-111.929575.024145c-6.5943614 0-11.9386109-5.342912-11.9372734-11.937274l.003942-18.334323c.0013375-6.594362 5.3481915-11.941216 11.9425534-11.942553l65.44467-.014219-126.6985537-126.6985545c-3.887674-3.887674-3.8878148-10.1908191 0-14.0786339l14.0786339-14.0786339c3.8878147-3.8878148 10.1909599-3.887674 14.0786339 0l126.6985539 126.6985543.014079-65.44453c.001408-6.5944321 5.348473-11.9414973 11.942905-11.9429051l18.333901-.0035197c6.594432-.0014078 11.937274 5.3428416 11.937274 11.9372738l-.023934 111.929363c-.00352 13.18816-10.69765 23.882291-23.88581 23.88581z"/></svg>