<svg height="642" viewBox="0 0 642 642" width="642" xmlns="http://www.w3.org/2000/svg"><path d="m94.3951521 492.659913-.0555418-257.475205c0-15.169223 12.2904727-27.462772 27.4596957-27.459695l42.175035.009068c15.169222.003076 27.468763 12.302617 27.47184 27.471839l.032709 150.544484 291.448765-291.4487652c8.942942-8.9429416 23.44227-8.9432655 32.385535 0l32.385536 32.3855352c8.943265 8.943265 8.942941 23.442593 0 32.385535l-291.448766 291.448765 150.54416.032386c15.169385.003239 27.469411 12.303265 27.47265 27.472649l.008096 42.174063c.003238 15.169385-12.290311 27.459696-27.459695 27.459696l-257.47472-.055056c-30.33715-.008096-54.9372026-24.608149-54.9452989-54.945299z"/></svg>