<svg height="280" viewBox="0 0 280 280" width="280" xmlns="http://www.w3.org/2000/svg"><path d="m63.9097695 40.0240396c-13.1881743.0035196-23.8823159 10.6976612-23.8858355 23.8858355l-.023934 111.9294809c0 6.594439 5.3428475 11.938695 11.9372866 11.937287l18.3339203-.00352c6.5944391-.001408 11.9415099-5.348479 11.9429178-11.942918l.0140786-65.444599 126.6986877 126.698688c3.887678 3.887678 10.19083 3.887819 14.078649 0l14.078649-14.078649c3.887819-3.887818 3.887678-10.19097 0-14.078648l-126.698688-126.6986881 65.444739-.0142194c6.594369-.0013375 11.941229-5.3481971 11.942566-11.9425658l.003942-18.3343427c.001338-6.5943687-5.342917-11.9372866-11.937286-11.9372866z"/></svg>