<svg height="642" viewBox="0 0 642 642" width="642" xmlns="http://www.w3.org/2000/svg"><path d="m282.148064 602.615713-182.101737-182.02319c-10.7284359-10.724085-10.7284359-28.109788 0-38.833873l29.828665-29.815841c10.728436-10.724085 28.122612-10.724085 38.851048 0l106.474155 106.427896v-412.1707966c0-12.6472294 10.252344-22.9000315 22.900031-22.9000315h45.800063c12.647688 0 22.900032 10.2528021 22.900032 22.9000315v412.1707966l106.473696-106.427896c10.728665-10.724085 28.123529-10.724085 38.852193 0l29.827291 29.815841c10.728665 10.724085 10.728665 28.109788 0 38.833873l-182.10105 182.02319c-21.457329 21.44588-56.247057 21.44588-77.704387 0z"/></svg>