<svg height="280" viewBox="0 0 280 280" width="280" xmlns="http://www.w3.org/2000/svg"><path d="m40.0241451 216.090231-.0241451-111.929693c0-6.5943687 5.3429122-11.9386237 11.9372739-11.9372863l18.3343234.0039421c6.5943617.0013374 11.9412157 5.3481971 11.9425532 11.9425662l.0142194 65.444739 126.6985541-126.6986877c3.887674-3.887678 10.190819-3.8878188 14.078634 0l14.078634 14.0786488c3.887814 3.8878189 3.887674 10.1909707 0 14.0786488l-126.698554 126.6986881 65.444529.014078c6.594433.001408 11.941498 5.348479 11.942906 11.942918l.003519 18.33392c.001408 6.59444-5.342841 11.937287-11.937273 11.937287l-111.9293636-.023934c-13.1881603-.00352-23.8822906-10.697661-23.8858103-23.885835z"/></svg>