<svg height="642" viewBox="0 0 642 642" width="642" xmlns="http://www.w3.org/2000/svg"><path d="m149.340087 94.3951521c-30.33715.0080963-54.9372029 24.6081489-54.9452993 54.9452989l-.055056 257.47472c0 15.169384 12.2903113 27.462933 27.4596963 27.459695l42.174063-.008096c15.169384-.003239 27.46941-12.303265 27.472649-27.47265l.032386-150.54416 291.448765 291.448766c8.942942 8.942941 23.44227 8.943265 32.385535 0l32.385535-32.385536c8.943266-8.943265 8.942942-23.442593 0-32.385535l-291.448765-291.448765 150.544484-.032709c15.169222-.003077 27.468763-12.302618 27.471839-27.47184l.009068-42.175035c.003077-15.169223-12.290472-27.4596957-27.459695-27.4596957z"/></svg>