<svg height="642" viewBox="0 0 642 642" width="642" xmlns="http://www.w3.org/2000/svg"><path d="m547.604848 149.340087.055542 257.475205c0 15.169223-12.290473 27.462772-27.459696 27.459695l-42.175035-.009068c-15.169222-.003076-27.468763-12.302617-27.47184-27.471839l-.032709-150.544484-291.448765 291.448765c-8.942942 8.942942-23.44227 8.943266-32.385535 0l-32.3855355-32.385535c-8.9432655-8.943265-8.9429417-23.442593 0-32.385535l291.4487655-291.448765-150.54416-.032386c-15.169385-.003239-27.469411-12.303265-27.47265-27.472649l-.008096-42.174063c-.003238-15.169385 12.290311-27.4596963 27.459695-27.4596963l257.47472.055056c30.33715.0080964 54.937203 24.6081493 54.945299 54.9452993z"/></svg>