<svg height="642" viewBox="0 0 642 642" width="642" xmlns="http://www.w3.org/2000/svg"><path d="m492.659913 547.604848-257.475205.055542c-15.169223 0-27.462772-12.290473-27.459695-27.459696l.009068-42.175035c.003076-15.169222 12.302617-27.468763 27.471839-27.47184l150.544484-.032709-291.4487652-291.448765c-8.9429416-8.942942-8.9432655-23.44227 0-32.385535l32.3855352-32.3855355c8.943265-8.9432655 23.442593-8.9429417 32.385535 0l291.448765 291.4487655.032386-150.54416c.003239-15.169385 12.303265-27.469411 27.472649-27.47265l42.174063-.008096c15.169385-.003238 27.459696 12.290311 27.459696 27.459695l-.055056 257.47472c-.008096 30.33715-24.608149 54.937203-54.945299 54.945299z"/></svg>