<svg height="642" viewBox="0 0 642 642" width="642" xmlns="http://www.w3.org/2000/svg"><path d="m178.8125 430.375c0 69.715625 46.003125 120.3125 109.375 120.3125s109.375-50.596875 109.375-120.3125v-164.0625c0-52.346875-30.778125-87.5-76.5625-87.5s-76.5625 35.153125-76.5625 87.5v153.125h43.75v-153.125c0-13.16875 3.19375-43.75 32.8125-43.75s32.8125 30.58125 32.8125 43.75v164.0625c0 38.128125-20.3 76.5625-65.625 76.5625s-65.625-38.434375-65.625-76.5625v-185.9375c0-63.371875 41.409375-109.375 98.4375-109.375s98.4375 46.003125 98.4375 109.375v153.125h43.75v-153.125c0-87.303125-61.11875-153.125-142.1875-153.125s-142.1875 65.821875-142.1875 153.125z"/></svg>