<svg height="280" viewBox="0 0 280 280" width="280" xmlns="http://www.w3.org/2000/svg"><path d="m60 210c0 33.137 26.8629 60 60 60 33.137 0 60-26.863 60-60v-120c0-22.0914-17.909-40-40-40s-40 17.9086-40 40v80c0 5.523 4.477 10 10 10h10c5.523 0 10-4.477 10-10v-80c0-5.5228 4.477-10 10-10s10 4.4772 10 10v120c0 16.569-13.431 30-30 30s-30-13.431-30-30v-120c0-27.6142 22.386-50 50-50s50 22.3858 50 50v80c0 5.523 4.477 10 10 10h10c5.523 0 10-4.477 10-10v-80c0-44.1828-35.817-80-80-80-44.1828 0-80 35.8172-80 80z"/></svg>