<svg height="40" viewBox="0 0 40 40" width="40" xmlns="http://www.w3.org/2000/svg"><path d="m15.5157718 21.9966272h-3.5176657v-4h3.5176657l3.4757055-4.973.000999 13.949zm4.238982-10.848c.7502888.31 1.2348295 1.035 1.2348295 1.848v14c0 .812-.4845407 1.539-1.2348295 1.849-.2427699.1-.5005256.151-.7632765.151-.5664631 0-1.1089489-.224-1.524555-.72l-2.9921638-4.28h-2.4766524c-1.1019555 0-1.9981061-.897-1.9981061-2v-4c0-1.103.8961506-2 1.9981061-2h2.4766524l3.1040578-4.414c.5624668-.565 1.4376373-.739 2.1759375-.434zm3.2329356.848c3.8563447 0 6.9933712 3.141 6.9933712 7 0 3.86-3.1370265 7-6.9933712 7v-2c2.7543892 0 4.9952651-2.243 4.9952651-5s-2.2408759-5-4.9952651-5zm2.9971591 7c0 1.654-1.3447254 3-2.9971591 3v-2c.5504782 0 .999053-.448.999053-1 0-.551-.4485748-1-.999053-1v-2c1.6524337 0 2.9971591 1.346 2.9971591 3z" fill-rule="evenodd"/></svg>