<svg height="642" viewBox="0 0 642 642" width="642" xmlns="http://www.w3.org/2000/svg"><path d="m268.036606 136.86997c12.303963-12.359375 31.448316-16.165625 47.598633-9.49375 16.412568 6.78125 27.011896 22.640625 27.011896 40.425v306.25c0 17.7625-10.599328 33.665625-27.011896 40.446875-5.310591 2.1875-10.948997 3.303125-16.696674 3.303125-12.391379 0-24.258256-4.9-33.349639-15.75l-65.453583-93.625h-54.176773c-24.105276 0-43.70857-19.621875-43.70857-43.75v-87.5c0-24.128125 19.603294-43.75 43.70857-43.75h54.176773zm30.901959 31.521875-76.031057 108.784375h-76.948938v87.5h76.948938l76.052912 108.85zm87.41714-22.465625c84.357541 0 152.979996 68.709375 152.979996 153.125 0 84.4375-68.622455 153.125-152.979996 153.125v-43.75c60.252264 0 109.271426-49.065625 109.271426-109.375s-49.019162-109.375-109.271426-109.375zm0 87.5c36.146988 0 65.562856 29.44375 65.562856 65.625s-29.415868 65.625-65.562856 65.625v-43.75c12.041712 0 21.854286-9.8 21.854286-21.875 0-12.053125-9.812574-21.875-21.854286-21.875z" fill-rule="evenodd"/></svg>