<svg height="1200" viewBox="0 0 1200 1200" width="1200" xmlns="http://www.w3.org/2000/svg"><path d="m465.473153 659.898816h-105.529971v-120h105.529971l104.271165-149.19.029972 418.47zm127.169461-325.44c22.508664 9.3 37.044886 31.05 37.044886 55.44v420c0 24.36-14.536222 46.17-37.044886 55.47-7.283097 3-15.015767 4.53-22.898296 4.53-16.993892 0-33.268466-6.72-45.736648-21.6l-89.764914-128.4h-74.299574c-33.058665 0-59.943182-26.91-59.943182-60v-120c0-33.09 26.884517-60 59.943182-60h74.299574l93.121733-132.42c16.874005-16.95 43.129119-22.17 65.278125-13.02zm96.988068 25.44c115.690341 0 209.801136 94.23 209.801136 210 0 115.8-94.110795 210-209.801136 210v-60c82.631676 0 149.857954-67.29 149.857954-150s-67.226278-150-149.857954-150zm89.914773 210c0 49.62-40.341762 90-89.914773 90v-60c16.514346 0 29.971591-13.44 29.971591-30 0-16.53-13.457245-30-29.971591-30v-60c49.573011 0 89.914773 40.38 89.914773 90z" fill-rule="evenodd"/></svg>