<svg height="280" viewBox="0 0 280 280" width="280" xmlns="http://www.w3.org/2000/svg"><path d="m219.464174 160.215118v88.457084c0 9.644201-11.504748 14.473812-18.233959 7.654478l-26.703553-27.062044c-2.002741-2.03078-4.71946-3.171341-7.552338-3.171341h-16.938185c-5.899075 0-10.681622-4.846634-10.681622-10.824817v-21.649635c0-5.979185 4.782547-10.824818 10.681622-10.824818h16.938185c2.832878 0 5.549597-1.140561 7.552338-3.171341l26.703553-27.062043c6.72821-6.819335 18.233959-1.989724 18.233959 7.654477zm25.034268 19.194274c13.825926 0 25.034268 11.208343 25.034268 25.034268 0 13.825926-11.208342 25.034268-25.034268 25.034268-2.764784 0-5.006853-2.242069-5.006853-5.006853v-5.006854c0-2.764785 2.242069-5.006854 5.006853-5.006854 5.530571 0 10.013708-4.483136 10.013708-10.013707 0-5.53057-4.483137-10.013707-10.013708-10.013707-2.764784 0-5.006853-2.242069-5.006853-5.006853v-5.006854c0-2.764785 2.242069-5.006854 5.006853-5.006854zm-115.157632-10.013707c.51871 0 1.026405.039054 1.523085.115158-7.070679 5.695796-11.536792 14.451782-11.536792 24.106998v15.832673h-90.1233647c-5.5300698 0-10.0137071-4.484138-10.0137071-10.013707v-20.027415c0-5.529569 4.4836373-10.013707 10.0137071-10.013707zm50.068536-70.0959499c5.53057 0 10.013707 4.4831369 10.013707 10.0137069v20.027415c0 5.53057-4.483137 10.013707-10.013707 10.013707h-150.2056077c-5.5303702 0-10.0137071-4.483137-10.0137071-10.013707v-20.027415c0-5.53057 4.4833369-10.0137069 10.0137071-10.0137069zm0-70.0959502c5.53057 0 10.013707 4.483337 10.013707 10.0137072v20.0274143c0 5.5303702-4.483137 10.0137072-10.013707 10.0137072h-150.2056077c-5.5303702 0-10.0137071-4.483337-10.0137071-10.0137072v-20.0274143c0-5.5303702 4.4833369-10.0137072 10.0137071-10.0137072z"/></svg>