<svg height="642" viewBox="0 0 642 642" width="642" xmlns="http://www.w3.org/2000/svg"><path d="m503.2 367.350379v202.819456c0 22.112776-26.378744 33.186384-41.807864 17.550624l-61.227432-62.0494c-4.592-4.656288-10.821048-7.271432-17.316432-7.271432h-38.83684c-13.525736 0-24.491432-11.11264-24.491432-24.81976v-49.63952c0-13.709416 10.965696-24.81976 24.491432-24.81976h38.83684c6.495384 0 12.724432-2.615144 17.316432-7.271432l61.227432-62.0494c15.426824-15.63576 41.807864-4.562152 41.807864 17.550624zm57.4 44.009728c31.700872 0 57.4 25.699128 57.4 57.4s-25.699128 57.4-57.4 57.4c-6.339256 0-11.48-5.140744-11.48-11.48v-11.48c0-6.339256 5.140744-11.48 11.48-11.48 12.680808 0 22.96-10.279192 22.96-22.96s-10.279192-22.96-22.96-22.96c-6.339256 0-11.48-5.140744-11.48-11.48v-11.48c0-6.339256 5.140744-11.48 11.48-11.48zm-264.04-22.96c1.189328 0 2.3534.089544 3.492216.26404-16.212056 13.059648-26.452216 33.135872-26.452216 55.273904v36.302056h-206.64c-12.67966 0-22.96-10.281488-22.96-22.96v-45.92c0-12.678512 10.28034-22.96 22.96-22.96zm114.8-160.72c12.680808 0 22.96 10.279192 22.96 22.96v45.92c0 12.680808-10.279192 22.96-22.96 22.96h-344.4c-12.6803488 0-22.96-10.279192-22.96-22.96v-45.92c0-12.680808 10.2796512-22.96 22.96-22.96zm0-160.7200002c12.680808 0 22.96 10.2796512 22.96 22.96v45.9200002c0 12.680349-10.279192 22.96-22.96 22.96h-344.4c-12.6803488 0-22.96-10.279651-22.96-22.96v-45.9200002c0-12.6803488 10.2796512-22.96 22.96-22.96z"/></svg>