<svg height="280" viewBox="0 0 280 280" width="280" xmlns="http://www.w3.org/2000/svg"><path d="m28.5351764 99.5251583v131.5432357h151.9974866v20.237421h-151.9974866c-11.1768818 0-20.26633154-9.076483-20.26633154-20.237421v-131.5432357zm30.3994973-30.3561314v131.5432361h151.9974863v20.237421h-151.9974863c-11.1768818 0-20.2663315-9.076483-20.2663315-20.237421v-131.5432361zm166.3257833-40.4748419 46.470698 46.4044062v95.2575408c0 11.160937-9.08945 20.23742-20.266332 20.23742h-162.130652c-11.1768818 0-20.2663315-9.076483-20.2663315-20.23742v-121.4245261c0-11.1508189 9.0894497-20.2374209 20.2663315-20.2374209zm-14.328297 20.2374209h-121.597989v121.4245261h162.140786l-.010134-80.9496842h-40.532663zm10.133166 80.9496841v20.237421h-111.464823v-20.237421zm-40.532663-40.4748422v20.2374212h-70.93216v-20.2374212z" fill-rule="evenodd"/></svg>