<svg height="642" viewBox="0 0 642 642" width="642" xmlns="http://www.w3.org/2000/svg"><path d="m517.368794 487.427896c71.625577 0 121.631206 37.508023 121.631206 91.223405v15.2039h-243.262411v-15.2039c0-53.715382 50.020833-91.223405 121.631205-91.223405zm-468.900991-259.230926v301.609849l329.124698-.001144c-7.032743 13.615684-10.814723 28.85833-10.814723 45.329077l-.000778 1.072915-318.309197.000667c-25.3707234 0-46.05050819-20.396939-46.46156681-45.635252l-.00623619-.766263v-301.609849zm69.701705-69.602273v301.609849l322.850352.000739c2.726142 4.263782 5.799452 8.285069 9.17979 12.02372-22.861706 7.69121-41.936689 19.444954-56.04966 34.376506l-275.980482.00055c-25.6269938 0-46.4678035-20.81108-46.4678035-46.401515v-301.609849zm399.199286 192.142892c33.539805 0 60.815603 27.275798 60.815603 60.815603s-27.275798 60.815603-60.815603 60.815603-60.815603-27.275798-60.815603-60.815603 27.275798-60.815603 60.815603-60.815603zm-17.838027-284.945922 106.550672 106.398674v218.411932c0 .816392-.02121 1.627921-.063111 2.434064-5.568254-26.710311-22.937141-49.13572-46.387501-61.559493l-.017191-126.480632h-92.935606v-92.80303h-278.806818v278.409091l241.389593-.000802c-1.598757 6.72676-2.445202 13.742046-2.445202 20.951721 0 8.833425 1.27065 17.375041 3.638812 25.451708l-242.583203-.001112c-25.626993 0-46.467803-20.811079-46.467803-46.401515v-278.409091c0-25.5672347 20.84081-46.401515 46.467803-46.401515zm-9.618835 232.007576-.000963 27.453335c-12.362424 3.940814-23.57963 10.469275-33.012263 18.946028l-222.559691.002152v-46.401515zm-92.935606-92.803031v46.401516h-162.637311v-46.401516z" fill-rule="evenodd"/></svg>