<svg height="642" viewBox="0 0 642 642" width="642" xmlns="http://www.w3.org/2000/svg"><path d="m65.427083 228.19697v301.609849h348.508523v46.401515h-348.508523c-25.6269933 0-46.467803-20.81108-46.467803-46.401515v-301.609849zm69.701705-69.602273v301.609849h348.508522v46.401515h-348.508522c-25.626994 0-46.4678035-20.81108-46.4678035-46.401515v-301.609849zm381.361259-92.80303 106.550672 106.398674v218.411932c0 25.590436-20.840809 46.401515-46.467803 46.401515h-371.742424c-25.626993 0-46.467803-20.811079-46.467803-46.401515v-278.409091c0-25.5672347 20.84081-46.401515 46.467803-46.401515zm-32.852737 46.401515h-278.806818v278.409091h371.765658l-.023234-185.606061h-92.935606zm23.233902 185.606061v46.401515h-255.572917v-46.401515zm-92.935606-92.803031v46.401516h-162.637311v-46.401516z" fill-rule="evenodd"/></svg>