<svg height="40" viewBox="0 0 40 40" width="40" xmlns="http://www.w3.org/2000/svg"><path d="m23.414 10 4.586 4.586v13.414c0 1.103-.897 2-2 2h-12c-1.103 0-2-.897-2-2v-16c0-1.102.897-2 2-2zm2.587 18-.001-12h-4v-4h-8v16zm-9.2107702-2v-8.53125h3.0644531c.5273464 0 .9990213.0478511 1.4150391.1435547.4160177.0957036.7685532.2412099 1.0576171.4365234.289064.1953135.5097649.4404282.6621094.7353516.1523445.2949233.2285156.6415996.2285156 1.0400391 0 .1953134-.0214841.3837881-.0644531.5654296-.0429689.1816416-.1123042.3525383-.2080078.5126954-.0957036.160157-.2197258.3037103-.3720703.430664-.1523445.1269538-.3378895.2314449-.5566406.3134766.2539075.0664066.4687491.1621087.6445312.2871094.1757821.1250006.3183588.2695304.4277344.4335937.1093755.1640633.1884763.3408194.2373047.5302734.0488283.1894541.0732422.381835.0732422.5771485 0 .8437542-.2695286 1.4755838-.8085938 1.8955078s-1.3378853.6298828-2.3964844.6298828zm2.0566406-3.6269531v2.0449219h1.3476562c.2070323 0 .3837884-.0253904.5302735-.0761719s.2656245-.1201168.3574219-.2080078c.0917973-.0878911.1591794-.1904291.2021484-.3076172s.0644531-.24414.0644531-.3808594c0-.1640633-.019531-.3124993-.0585937-.4453125s-.1015621-.2451167-.1875-.3369141c-.085938-.0917973-.197265-.1630856-.3339844-.2138671-.1367194-.0507816-.3027334-.0761719-.4980469-.0761719zm0-1.3476563h1.0722656c.449221-.0039062.7695303-.0859367.9609375-.2460937.1914072-.1601571.2871094-.3964828.2871094-.7089844 0-.3593768-.1035146-.6181633-.3105469-.7763672s-.5410133-.2373047-1.0019531-.2373047h-1.0078125z" fill-rule="evenodd"/></svg>