<?xml version="1.0" encoding="UTF-8"?>
<svg width="1200px" height="1200px" viewBox="0 0 1200 1200" version="1.1" xmlns="http://www.w3.org/2000/svg" xmlns:xlink="http://www.w3.org/1999/xlink">
    <title>Icons/block-shared-new</title>
    <g id="Icons/block-shared-new" stroke="none" stroke-width="1" fill="none" fill-rule="evenodd">
        <path d="M881,821 C1004.66375,821 1091,885.75875 1091,978.5 L1091,1004.75 L671,1004.75 L671,978.5 C671,885.75875 757.3625,821 881,821 Z M249.5,472.727273 L249.5,886.363636 L643.970079,886.360189 C632.671935,905.65596 625.296251,927.00655 622.393963,949.998293 L249.5,950 C214.354409,950 185.772727,921.459091 185.772727,886.363636 L185.772727,886.363636 L185.772727,472.727273 L249.5,472.727273 Z M345.090909,377.272727 L345.090909,790.909091 L725.999727,790.909 L725.997559,811.253037 C703.317045,823.048812 683.745521,837.621064 667.85235,854.542291 L345.090909,854.545455 C309.945318,854.545455 281.363636,826.004545 281.363636,790.909091 L281.363636,790.909091 L281.363636,377.272727 L345.090909,377.272727 Z M881,585 C938.9075,585 986,632.0925 986,690 C986,747.9075 938.9075,795 881,795 C823.0925,795 776,747.9075 776,690 C776,632.0925 823.0925,585 881,585 Z M868.100636,250 L1014.22727,395.918182 L1014.22978,610.839822 C999.115645,585.493632 976.976025,564.80333 950.516157,551.474151 L950.5,440.909091 L823.045455,440.909091 L823.045455,313.636364 L440.681818,313.636364 L440.681818,695.454545 L725.999727,695.454 L725.999727,759.09 L440.681818,759.090909 C405.887683,759.090909 377.526835,731.117964 376.963098,696.505421 L376.954545,695.454545 L376.954545,313.636364 C376.954545,278.572727 405.536227,250 440.681818,250 L440.681818,250 L868.100636,250 Z M785.25215,568.178979 C764.212287,584.750091 747.554031,606.646184 737.326487,631.818154 L504.409091,631.818182 L504.409091,568.181818 Z M727.454545,440.909091 L727.454545,504.545455 L504.409091,504.545455 L504.409091,440.909091 L727.454545,440.909091 Z" id="Shape" fill="#000000"></path>
    </g>
</svg>