<svg height="1200" viewBox="0 0 1200 1200" width="1200" xmlns="http://www.w3.org/2000/svg"><path d="m702.42 300 137.58 137.58v402.42c0 33.09-26.91 60-60 60h-360c-33.09 0-60-26.91-60-60v-480c0-33.06 26.91-60 60-60zm77.61 540-.03-360h-120v-120h-240v480zm-276.323107-60v-255.9375h91.933594c15.820391 0 29.97064 1.435533 42.451172 4.306641 12.480531 2.871108 23.056597 7.236298 31.728515 13.095703 8.671919 5.859404 15.292946 13.212846 19.863282 22.060547 4.570335 8.8477 6.855468 19.247987 6.855468 31.201172 0 5.859404-.644525 11.513644-1.933593 16.96289-1.289069 5.449246-3.369127 10.576148-6.240235 15.38086-2.871108 4.804711-6.591774 9.111309-11.162109 12.919921-4.570336 3.808613-10.136686 6.943347-16.699219 9.404297 7.617226 1.992198 14.062474 4.863263 19.335938 8.613282 5.273463 3.750018 9.550764 8.085912 12.832031 13.007812 3.281266 4.9219 5.654289 10.224581 7.11914 15.908203s2.197266 11.455049 2.197266 17.314453c0 25.312627-8.085857 44.267515-24.257812 56.865235-16.171956 12.597719-40.13656 18.896484-71.894532 18.896484zm61.699219-108.808594v61.347657h40.429687c6.210969 0 11.51365-.761712 15.908203-2.285157 4.394554-1.523445 7.968737-3.603502 10.722657-6.240234s4.775384-5.712873 6.064453-9.228516c1.289069-3.515642 1.933594-7.324198 1.933594-11.425781 0-4.9219-.585932-9.37498-1.757813-13.359375s-3.046862-7.353502-5.625-10.107422-5.917948-4.89257-10.019531-6.416015c-4.101583-1.523446-9.082002-2.285157-14.941406-2.285157zm0-40.429687h32.167969c13.476629-.117188 23.085908-2.578101 28.828125-7.382813 5.742216-4.804711 8.613281-11.894484 8.613281-21.269531 0-10.781304-3.105438-18.544898-9.316406-23.291016-6.210969-4.746117-16.2304-7.11914-30.058594-7.11914h-30.234375z" fill-rule="evenodd"/></svg>