<?xml version="1.0" encoding="UTF-8"?>
<svg width="1200px" height="1200px" viewBox="0 0 1200 1200" version="1.1" xmlns="http://www.w3.org/2000/svg" xmlns:xlink="http://www.w3.org/1999/xlink">
    <title>Icons/block-new</title>
    <g id="Icons/block-new" stroke="none" stroke-width="1" fill="none" fill-rule="evenodd">
        <path d="M249.5,472.727273 L249.5,886.363636 L727.454545,886.363636 L727.454545,950 L249.5,950 C214.354409,950 185.772727,921.459091 185.772727,886.363636 L185.772727,886.363636 L185.772727,472.727273 L249.5,472.727273 Z M345.090909,377.272727 L345.090909,790.909091 L823.045455,790.909091 L823.045455,854.545455 L345.090909,854.545455 C309.945318,854.545455 281.363636,826.004545 281.363636,790.909091 L281.363636,790.909091 L281.363636,377.272727 L345.090909,377.272727 Z M868.100636,250 L1014.22727,395.918182 L1014.22727,695.454545 C1014.22727,730.55 985.645591,759.090909 950.5,759.090909 L950.5,759.090909 L440.681818,759.090909 C405.536227,759.090909 376.954545,730.55 376.954545,695.454545 L376.954545,695.454545 L376.954545,313.636364 C376.954545,278.572727 405.536227,250 440.681818,250 L440.681818,250 L868.100636,250 Z M823.045455,313.636364 L440.681818,313.636364 L440.681818,695.454545 L950.531864,695.454545 L950.5,440.909091 L823.045455,440.909091 L823.045455,313.636364 Z M854.909091,568.181818 L854.909091,631.818182 L504.409091,631.818182 L504.409091,568.181818 L854.909091,568.181818 Z M727.454545,440.909091 L727.454545,504.545455 L504.409091,504.545455 L504.409091,440.909091 L727.454545,440.909091 Z" id="Shape" fill="#000000"></path>
    </g>
</svg>