<svg height="642" viewBox="0 0 642 642" width="642" xmlns="http://www.w3.org/2000/svg"><path d="m352.809378 124.125c14.642371 0 28.235736 7.284375 36.36553 19.46875l30.727125 46.15625h75.725098c24.105276 0 43.70857 19.621875 43.70857 43.75v240.625c0 24.10625-19.603294 43.75-43.70857 43.75h-349.668561c-24.105276 0-43.70857-19.64375-43.70857-43.75v-240.625c0-24.128125 19.603294-43.75 43.70857-43.75h75.725098l30.727124-46.15625c8.129795-12.184375 21.72316-19.46875 36.365531-19.46875zm0 43.75h-64.033055l-43.70857 65.625h-99.109183v240.625h349.690415l-.021854-240.625h-99.109183zm-32.016528 65.625c60.252264 0 109.271426 49.065625 109.271426 109.375s-49.019162 109.375-109.271426 109.375c-60.252263 0-109.271425-49.065625-109.271425-109.375s49.019162-109.375 109.271425-109.375zm0 43.75c-36.146987 0-65.562855 29.44375-65.562855 65.625s29.415868 65.625 65.562855 65.625c36.146988 0 65.562855-29.44375 65.562855-65.625s-29.415867-65.625-65.562855-65.625z" fill-rule="evenodd"/></svg>