<svg height="1200" viewBox="0 0 1200 1200" width="1200" xmlns="http://www.w3.org/2000/svg"><path d="m839.488636 420c33.058665 0 59.943182 26.91 59.943182 60v330c0 33.06-26.884517 60-59.943182 60h-479.545454c-33.058665 0-59.943182-26.94-59.943182-60v-330c0-33.09 26.884517-60 59.943182-60h103.851562l42.140057-63.3c11.149432-16.71 29.791762-26.7 49.872727-26.7h87.816762c20.080966 0 38.723295 9.99 49.872727 26.7l42.140057 63.3zm-479.545454 390h479.575426l-.029972-330h-135.921164l-59.943182-90h-87.816762l-59.943181 90h-135.921165zm239.772727-330c82.631676 0 149.857955 67.29 149.857955 150s-67.226279 150-149.857955 150-149.857954-67.29-149.857954-150 67.226278-150 149.857954-150zm0 240c49.573011 0 89.914773-40.38 89.914773-90s-40.341762-90-89.914773-90-89.914773 40.38-89.914773 90 40.341762 90 89.914773 90z" fill-rule="evenodd"/></svg>