<svg height="40" viewBox="0 0 40 40" width="40" xmlns="http://www.w3.org/2000/svg"><path d="m19.9905303 24c-1.6524337 0-2.9971591-1.346-2.9971591-3s1.3447254-3 2.9971591-3 2.9971591 1.346 2.9971591 3-1.3447254 3-2.9971591 3m0-8c-2.7543892 0-4.9952651 2.243-4.9952651 5s2.2408759 5 4.9952651 5 4.9952652-2.243 4.9952652-5-2.240876-5-4.9952652-5m-7.9924242 11v-11h4.5307055l1.998106-3h2.9272254l1.9981061 3h4.5307054l.0009991 11zm15.9848484-13h-3.4617187l-1.4046686-2.11c-.3716477-.557-.9930587-.89-1.6624242-.89h-2.9272254c-.6693655 0-1.2907765.333-1.6624242.89l-1.4046686 2.11h-3.4617187c-1.1019555 0-1.9981061.897-1.9981061 2v11c0 1.102.8961506 2 1.9981061 2h15.9848484c1.1019555 0 1.9981061-.898 1.9981061-2v-11c0-1.103-.8961506-2-1.9981061-2z" fill-rule="evenodd"/></svg>