<svg height="1200" viewBox="0 0 1200 1200" width="1200" xmlns="http://www.w3.org/2000/svg"><path d="m599.715909 720c-49.573011 0-89.914773-40.38-89.914773-90s40.341762-90 89.914773-90 89.914773 40.38 89.914773 90-40.341762 90-89.914773 90m0-240c-82.631676 0-149.857954 67.29-149.857954 150s67.226278 150 149.857954 150 149.857955-67.29 149.857955-150-67.226279-150-149.857955-150m-239.772727 330v-330h135.921165l59.943181-90h87.816762l59.943182 90h135.921164l.029972 330zm479.545454-390h-103.851562l-42.140057-63.3c-11.149432-16.71-29.791761-26.7-49.872727-26.7h-87.816762c-20.080965 0-38.723295 9.99-49.872727 26.7l-42.140057 63.3h-103.851562c-33.058665 0-59.943182 26.91-59.943182 60v330c0 33.06 26.884517 60 59.943182 60h479.545454c33.058665 0 59.943182-26.94 59.943182-60v-330c0-33.09-26.884517-60-59.943182-60z" fill-rule="evenodd"/></svg>