<svg height="40" viewBox="0 0 40 40" width="40" xmlns="http://www.w3.org/2000/svg"><path d="m29 23h-10v-2h10zm-18 5h10v2h-10zm2-18h10v2h-10zm13 9c0-1.654-1.346-3-3-3h-3c-.551 0-1-.449-1-1v-1h5c.552 0 1-.448 1-1v-4c0-.552-.448-1-1-1h-12c-.552 0-1 .448-1 1v4c0 .552.448 1 1 1h5v1c0 1.654 1.346 3 3 3h3c.551 0 1 .449 1 1h-6c-.552 0-1 .448-1 1v4c0 .552.448 1 1 1h7v2c0 .551-.449 1-1 1h-1v-1c0-.552-.448-1-1-1h-12c-.552 0-1 .448-1 1v4c0 .552.448 1 1 1h12c.552 0 1-.448 1-1v-1h1c1.654 0 3-1.346 3-3v-2h3c.552 0 1-.448 1-1v-4c0-.552-.448-1-1-1z" fill-rule="evenodd"/></svg>