<svg height="1200" viewBox="0 0 1200 1200" width="1200" xmlns="http://www.w3.org/2000/svg"><path d="m780 570h120c16.56 0 30 13.44 30 30v120c0 16.56-13.44 30-30 30h-90v60c0 49.62-40.38 90-90 90h-30v30c0 16.56-13.44 30-30 30h-360c-16.56 0-30-13.44-30-30v-120c0-16.56 13.44-30 30-30h360c16.56 0 30 13.44 30 30v30h30c16.53 0 30-13.47 30-30v-60h-210c-16.56 0-30-13.44-30-30v-120c0-16.56 13.44-30 30-30h180c0-16.53-13.47-30-30-30h-90c-49.62 0-90-40.38-90-90v-30h-150c-16.56 0-30-13.44-30-30v-120c0-16.56 13.44-30 30-30h360c16.56 0 30 13.44 30 30v120c0 16.56-13.44 30-30 30h-150v30c0 16.53 13.47 30 30 30h90c49.62 0 90 40.38 90 90zm90 120v-60h-300v60zm-540 150v60h300v-60zm60-540v60h300v-60z" fill-rule="evenodd"/></svg>