<svg height="642" viewBox="0 0 642 642" width="642" xmlns="http://www.w3.org/2000/svg"><path d="m408.5 58.5c12.075 0 21.875 9.8 21.875 21.875v87.5c0 12.075-9.8 21.875-21.875 21.875h-109.375v21.875c0 12.053125 9.821875 21.875 21.875 21.875h65.625c36.18125 0 65.625 29.44375 65.625 65.625h87.5c12.075 0 21.875 9.8 21.875 21.875v87.5c0 12.075-9.8 21.875-21.875 21.875h-65.625v43.75c0 36.18125-29.44375 65.625-65.625 65.625h-21.875v21.875c0 12.075-9.8 21.875-21.875 21.875h-262.5c-12.075 0-21.875-9.8-21.875-21.875v-87.5c0-12.075 9.8-21.875 21.875-21.875h262.5c12.075 0 21.875 9.8 21.875 21.875v21.875h21.875c12.053125 0 21.875-9.821875 21.875-21.875v-43.75h-153.125c-12.075 0-21.875-9.8-21.875-21.875v-87.5c0-12.075 9.8-21.875 21.875-21.875h131.25c0-12.053125-9.821875-21.875-21.875-21.875h-65.625c-36.18125 0-65.625-29.44375-65.625-65.625v-21.875h-109.375c-12.075 0-21.875-9.8-21.875-21.875v-87.5c0-12.075 9.8-21.875 21.875-21.875zm-65.625 437.5h-218.75v43.75h218.75zm175-153.125h-218.75v43.75h218.75zm-131.25-240.625h-218.75v43.75h218.75z" fill-rule="evenodd"/></svg>