<svg height="1200" viewBox="0 0 1200 1200" width="1200" xmlns="http://www.w3.org/2000/svg"><path d="m870 690h-300v-60h300zm-540 150h300v60h-300zm60-540h300v60h-300zm390 270c0-49.62-40.38-90-90-90h-90c-16.53 0-30-13.47-30-30v-30h150c16.56 0 30-13.44 30-30v-120c0-16.56-13.44-30-30-30h-360c-16.56 0-30 13.44-30 30v120c0 16.56 13.44 30 30 30h150v30c0 49.62 40.38 90 90 90h90c16.53 0 30 13.47 30 30h-180c-16.56 0-30 13.44-30 30v120c0 16.56 13.44 30 30 30h210v60c0 16.53-13.47 30-30 30h-30v-30c0-16.56-13.44-30-30-30h-360c-16.56 0-30 13.44-30 30v120c0 16.56 13.44 30 30 30h360c16.56 0 30-13.44 30-30v-30h30c49.62 0 90-40.38 90-90v-60h90c16.56 0 30-13.44 30-30v-120c0-16.56-13.44-30-30-30z" fill-rule="evenodd"/></svg>