<svg height="280" viewBox="0 0 280 280" width="280" xmlns="http://www.w3.org/2000/svg"><path d="m20 45c0-11.0457 8.9543-20 20-20h100c11.046 0 20 8.9543 20 20v20c0 11.0457-8.954 20-20 20h-55v30c0 8.284 6.7157 15 15 15h20.63c2.22-8.626 10.051-15 19.37-15h100c11.046 0 20 8.954 20 20v20c0 11.046-8.954 20-20 20h-15v20c0 24.853-20.147 45-45 45h-20.63c-2.22 8.626-10.051 15-19.37 15h-100c-11.0457 0-20-8.954-20-20v-20c0-11.046 8.9543-20 20-20h100c9.319 0 17.15 6.374 19.37 15h20.63c8.284 0 15-6.716 15-15v-20h-55c-9.319 0-17.15-6.374-19.37-15h-20.63c-24.8528 0-45-20.147-45-45v-30h-15c-11.0457 0-20-8.9543-20-20z" fill-rule="evenodd"/></svg>