<svg height="642" viewBox="0 0 642 642" width="642" xmlns="http://www.w3.org/2000/svg"><path d="m321 46c151.877917 0 275 123.121625 275 275 0 151.877917-123.122083 275-275 275-151.878375 0-275-123.122083-275-275 0-151.878375 123.121625-275 275-275zm122.569792 168.403813c-10.73875-10.739438-28.150834-10.739438-38.889584 0l-129.513541 129.512854-49.304521-49.305209c-10.739438-10.73875-28.151521-10.73875-38.890958 0l-18.400709 18.402084c-10.739437 10.73875-10.739437 28.150833 0 38.889583l67.704313 67.705c21.479791 21.479792 56.303958 21.479792 77.78375 0l147.913333-147.913333c10.73875-10.73875 10.73875-28.150834 0-38.889584z" fill-rule="evenodd"/></svg>