<svg height="280" viewBox="0 0 280 280" width="280" xmlns="http://www.w3.org/2000/svg"><path d="m140 20c66.274 0 120 53.7258 120 120 0 66.274-53.726 120-120 120-66.2742 0-120-53.726-120-120 0-66.2742 53.7258-120 120-120zm53.485 73.4853c-4.686-4.6863-12.284-4.6863-16.97 0l-56.515 56.5147-21.5147-21.515c-4.6863-4.686-12.2843-4.686-16.9706 0l-8.0294 8.03c-4.6863 4.686-4.6863 12.284 0 16.97l29.5437 29.544c9.373 9.373 24.569 9.373 33.942 0l64.544-64.544c4.686-4.686 4.686-12.284 0-16.97z" fill-rule="evenodd"/></svg>