<svg height="642" viewBox="0 0 642 642" width="642" xmlns="http://www.w3.org/2000/svg"><path d="m320.9998 252.320149-152.273571-152.273799c-10.728466-10.7284665-28.122761-10.7284665-38.850998 0l-29.828767 29.828537c-10.7284661 10.728466-10.7284661 28.122762 0 38.851228l152.27357 152.273799-152.27357 152.274486c-10.7284661 10.72778-10.7284661 28.122075 0 38.849854l29.828767 29.829912c10.728237 10.727779 28.122532 10.727779 38.850998 0l152.273571-152.274487 152.274486 152.274487c10.727779 10.727779 28.122074 10.727779 38.849854 0l29.829911-29.829912c10.727779-10.727779 10.727779-28.122074 0-38.849854l-152.274486-152.274486 152.274486-152.273799c10.727779-10.728466 10.727779-28.122762 0-38.851228l-29.829911-29.828537c-10.72778-10.7284665-28.122075-10.7284665-38.849854 0z"/></svg>