<svg height="280" viewBox="0 0 280 280" width="280" xmlns="http://www.w3.org/2000/svg"><path d="m139.999913 110.008834-66.4950426-66.4951425c-4.6849221-4.684922-12.280688-4.684922-16.96551 0l-13.0256689 13.0255689c-4.684922 4.684922-4.684922 12.2806879 0 16.96561l66.4950425 66.4951416-66.4950425 66.495443c-4.684922 4.684622-4.684922 12.280388 0 16.96501l13.0256689 13.026168c4.684822 4.684623 12.2805879 4.684623 16.96551 0l66.4950426-66.495442 66.495442 66.495442c4.684622 4.684623 12.280388 4.684623 16.96501 0l13.026168-13.026168c4.684623-4.684622 4.684623-12.280388 0-16.96501l-66.495442-66.495443 66.495442-66.4951416c4.684623-4.6849221 4.684623-12.280688 0-16.96561l-13.026168-13.0255689c-4.684622-4.684922-12.280388-4.684922-16.96501 0z"/></svg>