<svg height="1200" viewBox="0 0 1200 1200" width="1200" xmlns="http://www.w3.org/2000/svg"><path d="m690 660v120h-219.99l-80.01 60v-60h-90v-270h240v-60h-240c-33.09 0-60 26.91-60 60v270c0 33.09 26.91 60 60 60h30v120l159.99-120h200.01c33.09 0 60-26.91 60-60v-120zm90-420c-99.27 0-180 80.73-180 180h60c0-66.18 53.82-120 120-120s120 53.82 120 120-53.82 120-120 120c-32.07 0-62.22-12.48-83.4-33.57l-1.41-1.62 54.81-54.81h-150v150l52.71-52.71c33.96 33.99 79.17 52.71 127.29 52.71 99.27 0 180-80.73 180-180s-80.73-180-180-180" fill-rule="evenodd"/></svg>