<?xml version="1.0" encoding="UTF-8"?>
<svg width="40px" height="40px" viewBox="0 0 40 40" version="1.1" xmlns="http://www.w3.org/2000/svg" xmlns:xlink="http://www.w3.org/1999/xlink">
    <!-- Generator: Sketch 50.2 (55047) - http://www.bohemiancoding.com/sketch -->
    <title>Icons/Comment reply</title>
    <desc>Created with Sketch.</desc>
    <defs>
        <path d="M23,22 L23,26 L15.667,26 L13,28 L13,26 L10,26 L10,17 L18,17 L18,15 L10,15 C8.897,15 8,15.897 8,17 L8,26 C8,27.103 8.897,28 10,28 L11,28 L11,32 L16.333,28 L23,28 C24.103,28 25,27.103 25,26 L25,22 L23,22 Z M26,8 C22.691,8 20,10.691 20,14 L22,14 C22,11.794 23.794,10 26,10 C28.206,10 30,11.794 30,14 C30,16.206 28.206,18 26,18 C24.931,18 23.926,17.584 23.22,16.881 L23.173,16.827 L25,15 L20,15 L20,20 L21.757,18.243 C22.889,19.376 24.396,20 26,20 C29.309,20 32,17.309 32,14 C32,10.691 29.309,8 26,8" id="path-1"></path>
    </defs>
    <g id="Icons/Comment-reply" stroke="none" stroke-width="1" fill="none" fill-rule="evenodd">
        <mask id="mask-2" fill="white">
            <use xlink:href="#path-1"></use>
        </mask>
        <use id="Mask" fill="#414453" opacity="0" xlink:href="#path-1"></use>
        <g id="Atoms/Colors/Idle" mask="url(#mask-2)" fill="#59636B" opacity="0.25">
            <rect id="State" x="-2" y="-2" width="40" height="40"></rect>
        </g>
    </g>
</svg>