<svg height="1200" viewBox="0 0 1200 1200" width="1200" xmlns="http://www.w3.org/2000/svg"><path d="m690 660h60v120c0 33.09-26.91 60-60 60h-200.01l-159.99 120v-120h-30c-33.09 0-60-26.91-60-60v-270c0-33.09 26.91-60 60-60h240v60h-240v270h90v60l80.01-60h219.99zm90-420c99.27 0 180 80.73 180 180s-80.73 180-180 180c-48.12 0-93.33-18.72-127.29-52.71l-52.71 52.71v-150h150l-54.81 54.81 1.41 1.62c21.18 21.09 51.33 33.57 83.4 33.57 66.18 0 120-53.82 120-120s-53.82-120-120-120-120 53.82-120 120h-60c0-99.27 80.73-180 180-180z" fill-rule="evenodd"/></svg>