<svg height="642" viewBox="0 0 642 642" width="642" xmlns="http://www.w3.org/2000/svg"><path d="m277.25 211.625v43.75h-175v196.875h65.625v43.75l58.340625-43.75h160.409375v-87.5h43.75v87.5c0 24.128125-19.621875 43.75-43.75 43.75h-145.840625l-116.659375 87.5v-87.5h-21.875c-24.128125 0-43.75-19.621875-43.75-43.75v-196.875c0-24.128125 19.621875-43.75 43.75-43.75zm175-153.125c72.384375 0 131.25 58.865625 131.25 131.25s-58.865625 131.25-131.25 131.25c-35.0875 0-68.053125-13.65-92.815625-38.434375l-38.434375 38.434375v-109.375h109.375l-39.965625 39.965625 1.028125 1.18125c15.44375 15.378125 37.428125 24.478125 60.8125 24.478125 48.25625 0 87.5-39.24375 87.5-87.5s-39.24375-87.5-87.5-87.5-87.5 39.24375-87.5 87.5h-43.75c0-72.384375 58.865625-131.25 131.25-131.25z" fill-rule="evenodd"/></svg>