<svg height="40" viewBox="0 0 40 40" width="40" xmlns="http://www.w3.org/2000/svg"><path d="m25.9820076 18.0641581c-.6981067.0886589-1.3681381.267287-1.9981061.5238959v-5.588054h-13.98674241v10h9.58435791c-.2552993.6306962-.4325041 1.3013599-.5196232 2h-1.0723105v2h-1.998106v-2h-8.9914773v-2h.99905303v-10c-.55147727 0-.99905303-.448-.99905303-1v-3c0-.552.44757576-1 .99905303-1h17.98295457c.5524763 0 .999053.448.999053 1v3c0 .552-.4465767 1-.999053 1zm-16.98390154-8.0641581v1h15.98484844v-1zm9.88941764 4.5534983 1.4915861 2.987 2.6095266-1.742v2.404l-2.4426847 1.63c-.2387737.159-.5314962.209-.810232.135-.2767377-.074-.509517-.263-.6373958-.519l-1.0030493-2.009-1.1718892 2.933c-.1248816.312-.3976231.54-.7263115.608-.3286885.07-.6693656-.035-.9081392-.273l-1.4186553-1.42-2.8702794 1.915v-2.404l2.4436837-1.63c.395625-.264.9241241-.212 1.2608049.125l.9261222.928 1.4356392-3.592c.1458617-.366.4925331-.611.88616-.628.3926279-.022.7592803.2.9351137.552zm14.1031108 12.4465017h-1.1009565c-.1298769.637-.3836363 1.228-.7303077 1.752l.7822585.783-1.4116619 1.415-.7832576-.783c-.5235038.347-1.1149432.602-1.75134.732v1.101h-1.998106v-1.101c-.6363968-.13-1.2278362-.384-1.75134-.731l-.7822585.784-1.4136601-1.413.7822586-.785c-.3476705-.525-.60143-1.116-.7313069-1.754h-1.1009564v-2h1.1009564c.1298769-.637.3836364-1.228.7313069-1.753l-.7822586-.782 1.411662-1.415.7832575.783c.5245029-.347 1.1149432-.602 1.75134-.732v-1.101h1.9981061v1.101c.6363967.13 1.2268371.385 1.7503409.732l.7842566-.785 1.4116619 1.415-.7832575.783c.3486695.525.6024289 1.117.7323058 1.754h1.1009565zm-5.9963163 1c1.1029545 0 1.998106-.897 1.998106-2 0-1.105-.8951515-2-1.998106-2-1.1049527 0-1.9981061.895-1.9981061 2 0 1.103.8931534 2 1.9981061 2z" fill-rule="evenodd"/></svg>