<svg height="642" viewBox="0 0 642 642" width="642" xmlns="http://www.w3.org/2000/svg"><path d="m495.87685 321v24.084375c13.921179 2.84375 26.837062 8.421875 38.288707 16.0125l17.155614-17.171875 30.880104 30.953125-17.133759 17.128125c7.627145 11.484375 13.178134 24.434375 16.019191 38.36875h24.083422v43.75h-24.083422c-2.841057 13.934375-8.392046 26.8625-15.975482 38.325l17.111905 17.128125-30.880105 30.953125-17.133759-17.128125c-11.451646 7.590625-24.389383 13.16875-38.310562 16.0125v24.084375h-43.70857v-24.084375c-13.92118-2.84375-26.858917-8.4-38.310562-15.990625l-17.111905 17.15-30.923813-30.909375 17.111905-17.171875c-7.605291-11.484375-13.15628-24.4125-15.997337-38.36875h-24.083422v-43.75h24.083422c2.841057-13.934375 8.392046-26.8625 15.997337-38.346875l-17.111905-17.10625 30.880104-30.953125 17.13376 17.128125c11.473499-7.590625 24.389382-13.16875 38.310561-16.0125v-24.084375zm-21.87614 87.5c-24.170839 0-43.70857 19.578125-43.70857 43.75 0 24.128125 19.537731 43.75 43.70857 43.75 24.127131 0 43.70857-19.621875 43.70857-43.75 0-24.171875-19.581439-43.75-43.70857-43.75zm-22.144294-350c12.085419 0 21.854285 9.8 21.854285 21.875v65.625c0 12.075-9.768866 21.875-21.854285 21.875l-.00135 110.778629c-15.271235 1.939554-29.928301 5.847223-43.708946 11.460756l.001726-122.239385h-305.959991v218.75l209.657699.000325c-5.584434 13.795969-9.460677 28.466156-11.366455 43.748289l-23.456964.001386v43.75h-43.70857v-43.75h-196.688565v-43.75h21.854285v-218.75c-12.0635653 0-21.854285-9.8-21.854285-21.875v-65.625c0-12.075 9.7907197-21.875 21.854285-21.875zm-175.647446 131.282776c8.588734-.48125 16.609256 4.375 20.45561 12.075l32.628448 65.340625 57.083392-38.10625v52.5875l-53.433726 35.65625c-5.223175 3.478125-11.62648 4.571875-17.723826 2.953125-6.053637-1.61875-11.145685-5.753125-13.943033-11.353125l-21.941703-43.946875-25.635076 64.159375c-2.731786 6.825-8.698005 11.8125-15.888065 13.3-7.19006 1.53125-14.642371-.765625-19.865545-5.971875l-31.033085-31.0625-62.787361 41.890625v-52.5875l53.455581-35.65625c8.654297-5.775 20.215214-4.6375 27.580108 2.734375l20.258922 20.3 31.404608-78.575c3.190725-8.00625 10.774162-13.365625 19.384751-13.7375zm153.793161-87.532776h-349.6685609v21.875h349.6685609z" fill-rule="evenodd"/></svg>