<svg height="1200" viewBox="0 0 1200 1200" width="1200" xmlns="http://www.w3.org/2000/svg"><path d="m779.460227 541.924742c-20.943201 2.659768-41.044146 8.018611-59.943185 15.716881l.000003-167.641623h-419.602272v300h287.530715c-7.658956 18.920885-12.9751 39.040796-15.588675 60h-32.169313v60h-59.943182v-60h-269.744318v-60h29.971591v-300c-16.544318 0-29.971591-13.44-29.971591-30v-90c0-16.56 13.427273-30 29.971591-30h539.488636c16.57429 0 29.971591 13.44 29.971591 30v90c0 16.56-13.397301 30-29.971591 30zm-509.517045-241.924742v30h479.545454v-30zm296.682528 136.60495 44.747585 89.61 78.285796-52.26v72.12l-73.28054 48.9c-7.16321 4.77-15.944886 6.27-24.30696 4.05-8.302131-2.22-15.285511-7.89-19.121875-15.57l-30.091477-60.27-35.156676 87.99c-3.746449 9.36-11.928694 16.2-21.789347 18.24-9.860653 2.1-20.080966-1.05-27.244176-8.19l-42.559659-42.6-86.108381 57.45v-72.12l73.310511-48.9c11.86875-7.92 27.723722-6.36 37.824148 3.75l27.783665 27.84 43.069176-107.76c4.375852-10.98 14.775994-18.33 26.584801-18.84 11.778835-.66 22.778409 6 28.053409 16.56zm423.093324 373.39505h-33.028693c-3.896307 19.11-11.509091 36.84-21.909233 52.56l23.467756 23.49-42.349858 42.45-23.497728-23.49c-15.705113 10.41-33.448295 18.06-52.540198 21.96v33.03h-59.943182v-33.03c-19.091904-3.9-36.835085-11.52-52.540199-21.93l-23.467756 23.52-42.409801-42.39 23.467756-23.55c-10.430114-15.75-18.042898-33.48-21.939205-52.62h-33.028693v-60h33.028693c3.896307-19.11 11.509091-36.84 21.939205-52.59l-23.467756-23.46 42.349858-42.45 23.497727 23.49c15.735086-10.41 33.448296-18.06 52.540199-21.96v-33.03h59.943182v33.03c19.091903 3.9 36.805114 11.55 52.510227 21.96l23.527699-23.55 42.349858 42.45-23.497727 23.49c10.460085 15.75 18.072869 33.51 21.969176 52.62h33.028693zm-179.889489 30c33.088637 0 59.943182-26.91 59.943182-60 0-33.15-26.854545-60-59.943182-60-33.148579 0-59.943181 26.85-59.943181 60 0 33.09 26.794602 60 59.943181 60z" fill-rule="evenodd"/></svg>