<?xml version="1.0" encoding="UTF-8"?>
<svg width="40px" height="40px" viewBox="0 0 40 40" version="1.1" xmlns="http://www.w3.org/2000/svg" xmlns:xlink="http://www.w3.org/1999/xlink">
    <!-- Generator: Sketch 50.2 (55047) - http://www.bohemiancoding.com/sketch -->
    <title>Icons/Custom reports</title>
    <desc>Created with Sketch.</desc>
    <defs>
        <path d="M19.581517,23 L9.99715909,23 L9.99715909,13 L23.9839015,13 L23.9839015,18.588054 C21.9860323,19.4018592 20.3911085,20.9999702 19.581517,23 Z M8.99810606,10 L24.9829545,10 L24.9829545,11 L8.99810606,11 L8.99810606,10 Z M25.9820076,18.0641581 C22.371779,18.5226538 19.5123933,21.3872822 19.0618938,25 L17.9895833,25 L17.9895833,27 L15.9914773,27 L15.9914773,25 L7,25 L7,23 L7.99905303,23 L7.99905303,13 C7.44757576,13 7,12.552 7,12 L7,9 C7,8.448 7.44757576,8 7.99905303,8 L25.9820076,8 C26.5344839,8 26.9810606,8.448 26.9810606,9 L26.9810606,12 C26.9810606,12.552 26.5344839,13 25.9820076,13 L25.9820076,18.0641581 Z M18.8875237,14.5534983 C18.7116903,14.2014983 18.3450379,13.9794983 17.95241,14.0014983 C17.5587831,14.0184983 17.2121117,14.2634983 17.06625,14.6294983 L15.6306108,18.2214983 L14.7044886,17.2934983 C14.3678078,16.9564983 13.8393087,16.9044983 13.4436837,17.1684983 L11,18.7984983 L11,21.2024983 L13.8702794,19.2874983 L15.2889347,20.7074983 C15.5277083,20.9454983 15.8683854,21.0504983 16.1970739,20.9804983 C16.5257623,20.9124983 16.7985038,20.6844983 16.9233854,20.3724983 L18.0952746,17.4394983 L19.0983239,19.4484983 C19.2262027,19.7044983 19.458982,19.8934983 19.7357197,19.9674983 C20.0144555,20.0414983 20.307178,19.9914983 20.5459517,19.8324983 L22.9886364,18.2024983 L22.9886364,15.7984983 L20.3791098,17.5404983 L18.8875237,14.5534983 Z M26.9943182,28 C25.8893655,28 24.9962121,27.103 24.9962121,26 C24.9962121,24.895 25.8893655,24 26.9943182,24 C28.0972727,24 28.9924242,24.895 28.9924242,26 C28.9924242,27.103 28.0972727,28 26.9943182,28 L26.9943182,28 Z M32.9906345,27 L32.9906345,25 L31.889678,25 C31.7598011,24.363 31.5060417,23.771 31.1573722,23.246 L31.9406297,22.463 L30.5289678,21.048 L29.7447112,21.833 C29.2212074,21.486 28.630767,21.231 27.9943703,21.101 L27.9943703,20 L25.9962642,20 L25.9962642,21.101 C25.3598674,21.231 24.7694271,21.486 24.2449242,21.833 L23.4616667,21.05 L22.0500047,22.465 L22.8322633,23.247 C22.4845928,23.772 22.2308333,24.363 22.1009564,25 L21,25 L21,27 L22.1009564,27 C22.2308333,27.638 22.4845928,28.229 22.8322633,28.754 L22.0500047,29.539 L23.4636648,30.952 L24.2459233,30.168 C24.7694271,30.515 25.3608665,30.769 25.9972633,30.899 L25.9972633,32 L27.9953693,32 L27.9953693,30.899 C28.6317661,30.769 29.2232055,30.514 29.7467093,30.167 L30.5299669,30.95 L31.9416288,29.535 L31.1593703,28.752 C31.5060417,28.228 31.7598011,27.637 31.889678,27 L32.9906345,27 Z" id="path-1"></path>
    </defs>
    <g id="Icons/Custom-reports" stroke="none" stroke-width="1" fill="none" fill-rule="evenodd">
        <mask id="mask-2" fill="white">
            <use xlink:href="#path-1"></use>
        </mask>
        <use id="Mask" fill="#414453" opacity="0" xlink:href="#path-1"></use>
        <g id="Atoms/Colors/Idle" mask="url(#mask-2)" fill="#59636B" opacity="0.25">
            <rect id="State" x="-2" y="-2" width="40" height="40"></rect>
        </g>
    </g>
</svg>