<svg height="1200" viewBox="0 0 1200 1200" width="1200" xmlns="http://www.w3.org/2000/svg"><path d="m510 300c136.41 0 210 42.57 210 60s-73.59 60-210 60-210-42.57-210-60 73.59-60 210-60zm30 479.22c-9.66.45-19.59.78-30 .78-136.41 0-210-42.57-210-60v-42c52.08 27.66 131.22 42 210 42 10.02 0 20.04-.24 30-.69v-60.09c-9.66.45-19.59.78-30 .78-136.41 0-210-42.57-210-60v-42c52.08 27.66 131.22 42 210 42 10.02 0 20.04-.24 30-.69v-60.09c-9.66.45-19.59.78-30 .78-136.41 0-210-42.57-210-60v-42c52.08 27.66 131.22 42 210 42s157.92-14.34 210-42v42c0 .06-.03.12-.03.18h60.03v-120.18c0-78.78-135.81-120-270-120s-270 41.22-270 120v360c0 78.78 135.81 120 270 120 10.02 0 20.01-.3 30-.75zm240 120.78c-32.31 0-61.92-13.2-84.33-35.67l54.33-54.33h-150v150l52.83-52.83c33.6 33.75 78.63 52.83 127.17 52.83 99.27 0 180-80.73 180-180h-60c0 66.18-53.82 120-120 120m127.191-247.179c-33.57-33.75-78.66-52.83-127.2-52.83-99.24 0-180 80.76-180 180h60c0-66.15 53.85-120 120-120 32.34 0 61.95 13.23 84.33 35.67l-54.33 54.33h150v-150z" fill-rule="evenodd"/></svg>