<svg height="280" viewBox="0 0 280 280" width="280" xmlns="http://www.w3.org/2000/svg"><path d="m254.485981 197.242991c0 31.569509-25.673481 57.24299-57.24299 57.24299-15.436527 0-29.756815-6.067757-40.442173-16.800817l-16.800818 16.800817v-47.702492h47.702492l-17.277842 17.277843c7.126752 7.145833 16.543224 11.343652 26.818341 11.343652 21.046339 0 38.161993-17.115654 38.161993-38.161993zm-143.107476-171.7289723c42.674649 0 85.864486 13.1086449 85.864486 38.1619938v38.2192365h-19.090538c0-.019081.009541-.038162.009541-.057243v-13.3566976c-16.562306 8.7963396-41.73014 13.3566976-66.783489 13.3566976-25.0533492 0-50.2211841-4.560358-66.7834894-13.3566976v13.3566976c0 5.54303 23.4028427 19.080997 66.7834894 19.080997 3.310553 0 6.468458-.104945 9.540498-.248053v19.109619c-3.167445.143107-6.353972.219431-9.540498.219431-25.0533492 0-50.2211841-4.560358-66.7834894-13.356698v13.356698c0 5.54303 23.4028427 19.080997 66.7834894 19.080997 3.310553 0 6.468458-.104946 9.540498-.248053v19.109618c-3.167445.143108-6.353972.219432-9.540498.219432-25.0533492 0-50.2211841-4.560358-66.7834894-13.356698v13.356698c0 5.543029 23.4028427 19.080997 66.7834894 19.080997 3.310553 0 6.468458-.104946 9.540498-.248053v19.090537c-3.176986.143108-6.353972.238513-9.540498.238513-42.6746499 0-85.8644863-13.108645-85.8644863-38.161994v-114.4859815c0-25.0533489 43.1898364-38.1619938 85.8644863-38.1619938zm143.104614 114.4831193v47.702492h-47.702492l17.277843-17.277843c-7.117212-7.136292-16.533684-11.343652-26.818341-11.343652-21.0368 0-38.161994 17.125194-38.161994 38.161994h-19.080997c0-31.559969 25.683022-57.242991 57.242991-57.242991 15.436526 0 29.775895 6.067757 40.451713 16.800818zm-143.104614-95.4021224c-43.3806467 0-66.7834894 13.5379673-66.7834894 19.0809969s23.4028427 19.0809968 66.7834894 19.0809968c43.380646 0 66.783489-13.5379672 66.783489-19.0809968s-23.402843-19.0809969-66.783489-19.0809969z" fill-rule="evenodd"/></svg>