<svg height="642" viewBox="0 0 642 642" width="642" xmlns="http://www.w3.org/2000/svg"><path d="m583.5 452.25c0 72.384375-58.865625 131.25-131.25 131.25-35.39375 0-68.228125-13.9125-92.728125-38.521875l-38.521875 38.521875v-109.375h109.375l-39.615625 39.615625c16.340625 16.384375 37.93125 26.009375 61.490625 26.009375 48.25625 0 87.5-39.24375 87.5-87.5zm-328.125-393.75c97.846875 0 196.875 30.05625 196.875 87.5v87.63125h-43.771875c0-.04375.021875-.0875.021875-.13125v-30.625c-37.975 20.16875-95.68125 30.625-153.125 30.625s-115.15-10.45625-153.125-30.625v30.625c0 12.709375 53.659375 43.75 153.125 43.75 7.590625 0 14.83125-.240625 21.875-.56875v43.815625c-7.2625.328125-14.56875.503125-21.875.503125-57.44375 0-115.15-10.45625-153.125-30.625v30.625c0 12.709375 53.659375 43.75 153.125 43.75 7.590625 0 14.83125-.240625 21.875-.56875v43.815625c-7.2625.328125-14.56875.503125-21.875.503125-57.44375 0-115.15-10.45625-153.125-30.625v30.625c0 12.709375 53.659375 43.75 153.125 43.75 7.590625 0 14.83125-.240625 21.875-.56875v43.771875c-7.284375.328125-14.56875.546875-21.875.546875-97.846875 0-196.875-30.05625-196.875-87.5v-262.5c0-57.44375 99.028125-87.5 196.875-87.5zm328.118438 262.493438v109.375h-109.375l39.615625-39.615625c-16.31875-16.3625-37.909375-26.009375-61.490625-26.009375-48.234375 0-87.5 39.265625-87.5 87.5h-43.75c0-72.3625 58.8875-131.25 131.25-131.25 35.39375 0 68.271875 13.9125 92.75 38.521875zm-328.118438-218.743438c-99.465625 0-153.125 31.040625-153.125 43.75s53.659375 43.75 153.125 43.75 153.125-31.040625 153.125-43.75-53.659375-43.75-153.125-43.75z" fill-rule="evenodd"/></svg>