<svg height="1200" viewBox="0 0 1200 1200" width="1200" xmlns="http://www.w3.org/2000/svg"><path d="m540 779.22v60.03c-9.99.45-19.98.75-30 .75-134.19 0-270-41.22-270-120v-360c0-78.78 135.81-120 270-120s270 41.22 270 120v120.18h-60.03c0-.06.03-.12.03-.18v-42c-52.08 27.66-131.22 42-210 42s-157.92-14.34-210-42v42c0 17.43 73.59 60 210 60 10.41 0 20.34-.33 30-.78v60.09c-9.96.45-19.98.69-30 .69-78.78 0-157.92-14.34-210-42v42c0 17.43 73.59 60 210 60 10.41 0 20.34-.33 30-.78v60.09c-9.96.45-19.98.69-30 .69-78.78 0-157.92-14.34-210-42v42c0 17.43 73.59 60 210 60 10.41 0 20.34-.33 30-.78zm-30-479.22c-136.41 0-210 42.57-210 60s73.59 60 210 60 210-42.57 210-60-73.59-60-210-60zm270 600c66.18 0 120-53.82 120-120h60c0 99.27-80.73 180-180 180-48.54 0-93.57-19.08-127.17-52.83l-52.83 52.83v-150h150l-54.33 54.33c22.41 22.47 52.02 35.67 84.33 35.67zm127.191-247.179 52.8-52.83v150h-150l54.33-54.33c-22.38-22.44-51.99-35.67-84.33-35.67-66.15 0-120 53.85-120 120h-60c0-99.24 80.76-180 180-180 48.54 0 93.63 19.08 127.2 52.83z" fill-rule="evenodd"/></svg>