<svg height="40" viewBox="0 0 40 40" width="40" xmlns="http://www.w3.org/2000/svg"><path d="m17 10c4.547 0 7 1.419 7 2s-2.453 2-7 2-7-1.419-7-2 2.453-2 7-2zm1 15.974c-.322.015-.653.026-1 .026-4.547 0-7-1.419-7-2v-1.4c1.736.922 4.374 1.4 7 1.4.334 0 .668-.008 1-.023v-2.003c-.322.015-.653.026-1 .026-4.547 0-7-1.419-7-2v-1.4c1.736.922 4.374 1.4 7 1.4.334 0 .668-.008 1-.023v-2.003c-.322.015-.653.026-1 .026-4.547 0-7-1.419-7-2v-1.4c1.736.922 4.374 1.4 7 1.4s5.264-.478 7-1.4v1.4c0 .002-.001.004-.001.006h2.001v-4.006c0-2.626-4.527-4-9-4s-9 1.374-9 4v12c0 2.626 4.527 4 9 4 .334 0 .667-.01 1-.025zm8 4.026c-1.077 0-2.064-.44-2.811-1.189l1.811-1.811h-5v5l1.761-1.761c1.12 1.125 2.621 1.761 4.239 1.761 3.309 0 6-2.691 6-6h-2c0 2.206-1.794 4-4 4m4.2397-8.2393c-1.119-1.125-2.622-1.761-4.24-1.761-3.308 0-6 2.692-6 6h2c0-2.205 1.795-4 4-4 1.078 0 2.065.441 2.811 1.189l-1.811 1.811h5v-5z" fill-rule="evenodd"/></svg>