<svg height="642" viewBox="0 0 642 642" width="642" xmlns="http://www.w3.org/2000/svg"><path d="m452.25 102.25v43.75h65.625c24.15 0 43.75 19.6 43.75 43.75v328.125c0 24.15-19.6 43.75-43.75 43.75h-393.75c-24.15 0-43.75-19.6-43.75-43.75v-328.125c0-24.15 19.6-43.75 43.75-43.75h43.75v43.75h-43.75v328.125h393.75v-328.125h-65.625v43.75h-43.75v-131.25zm-196.875 284.375v87.5h-87.5v-87.5zm109.375 0v87.5h-87.5v-87.5zm-109.375-109.375v87.5h-87.5v-87.5zm109.375 0v87.5h-87.5v-87.5zm109.375 0v87.5h-87.5v-87.5zm-240.625-175v43.75h153.125v43.75h-153.125v43.75h-43.75v-131.25z" fill-rule="evenodd"/></svg>