<svg height="642" viewBox="0 0 642 642" width="642" xmlns="http://www.w3.org/2000/svg"><path d="m430.375 277.25c84.4375 0 153.125 68.6875 153.125 153.125s-68.6875 153.125-153.125 153.125-153.125-68.6875-153.125-153.125 68.6875-153.125 153.125-153.125zm0 43.75c-60.309375 0-109.375 49.065625-109.375 109.375s49.065625 109.375 109.375 109.375 109.375-49.065625 109.375-109.375-49.065625-109.375-109.375-109.375zm-218.75-262.5v65.625h153.125v43.75h21.875v-109.375h43.75v65.625h21.875c24.128125 0 43.75 19.64375 43.75 43.75v65.625h-393.75v218.75h131.25v43.75h-131.25c-24.128125 0-43.75-19.621875-43.75-43.75v-284.375c0-24.10625 19.621875-43.75 43.75-43.75h43.75v43.75h21.875v-109.375zm240.625 284.375v65.625h43.75v43.75h-87.5v-109.375z" fill-rule="evenodd"/></svg>