<svg height="1200" viewBox="0 0 1200 1200" width="1200" xmlns="http://www.w3.org/2000/svg"><path d="m904.491 314.25c23.61 23.58 12.06 81.45 6 105.21-7.47 29.31-26.49 84.96-69.63 128.1l-118.5 118.5.03 199.71c0 7.98-3.15 15.6-8.79 21.24l-21.24 21.21c-5.85 5.85-13.53 8.76-21.21 8.76s-15.36-2.91-21.21-8.79l-339.42-339.39c-11.73-11.7-11.73-30.69 0-42.42l21.21-21.24c5.64-5.64 13.26-8.79 21.24-8.79h199.68l118.5-118.47c57.12-57.15 143.13-77.88 186.99-77.88 21.9 0 36.63 4.5 46.35 14.25zm-424.281 509.109c7.77-7.77 12.72-17.19 15.33-27.12l45.3 45.3c-5.04 8.61-10.83 16.86-18.18 24.24-41.19 41.16-164.91 49.86-189.3 51.18l-33.36 1.8 1.8-33.39c1.32-24.39 9.96-148.11 51.15-189.3 7.35-7.38 15.63-13.14 24.21-18.21l45.3 45.33c-9.9 2.61-19.32 7.53-27.09 15.3-13.14 13.14-25.05 64.83-30.78 115.65 50.61-5.64 102.12-17.28 115.62-30.78zm337.311-341.529c30.54-43.59 41.82-97.62 41.46-121.83h-.84c-27.27 0-79.23 11.7-121.26 41.19zm-155.13 353.97v-109.74l-54.87 54.87zm-182.16-182.16 84.87 84.87 212.1-212.16-84.84-84.84zm12.45-97.29h-109.74l54.87 54.87z" fill-rule="evenodd"/></svg>