<svg height="40" viewBox="0 0 40 40" width="40" xmlns="http://www.w3.org/2000/svg"><path d="m16.007 27.4453c.259-.259.424-.573.511-.904l1.51 1.51c-.168.287-.361.562-.606.808-1.373 1.372-5.497 1.662-6.31 1.706l-1.112.06.06-1.113c.044-.813.332-4.937 1.705-6.31.245-.246.521-.438.807-.607l1.51 1.511c-.33.087-.644.251-.903.51-.438.438-.835 2.161-1.026 3.855 1.687-.188 3.404-.576 3.854-1.026zm11.2437-11.3843-2.688-2.688c1.401-.983 3.133-1.373 4.042-1.373h.028c.012.807-.364 2.608-1.382 4.061zm-5.171 11.799-1.829-1.829 1.829-1.829zm-6.072-6.072 7.071-7.071 2.828 2.828-7.07 7.072zm.415-3.243-1.829 1.829-1.829-1.829zm13.727-8.07c-.324-.325-.815-.475-1.545-.475-1.462 0-4.329.691-6.233 2.596l-3.95 3.949h-6.656c-.266 0-.52.105-.708.293l-.707.708c-.391.391-.391 1.024 0 1.414l11.314 11.313c.195.196.451.293.707.293s.512-.097.707-.292l.708-.707c.188-.188.293-.442.293-.708l-.001-6.657 3.95-3.95c1.438-1.438 2.072-3.293 2.321-4.27.202-.792.587-2.721-.2-3.507z" fill-rule="evenodd"/></svg>