<svg height="642" viewBox="0 0 642 642" width="642" xmlns="http://www.w3.org/2000/svg"><path d="m592.803879 114.920396-43.609194 119.926773c-6.859513 18.865951-17.771543 35.998707-31.964507 50.191672l-150.167474 150.167473v128.6754c0 28.557646-34.526521 42.85822-54.720415 22.666616l-256.8896838-256.89289c-20.1927492-20.191604-5.8914884-54.718125 22.6654708-54.718125h128.675629l150.167473-150.167016c14.192965-14.19388 31.325721-25.1049936 50.191672-31.9649646l119.927002-43.6101105c40.928124-14.8828083 80.608438 24.7975064 65.724027 65.7251721zm-500.4880303 343.181489 91.5822853 91.582285c-14.032009 28.063102-42.715352 45.791143-74.091672 45.791143h-63.2817559v-63.28107c0-31.376091 17.727354-60.059662 45.7911426-74.092358z"/></svg>