<svg height="642" viewBox="0 0 642 642" width="642" xmlns="http://www.w3.org/2000/svg"><path d="m158.5125 377.772187 33.03125 33.053125c-7.21875 1.903125-14.0875 5.490625-19.753125 11.15625-9.58125 9.58125-18.265625 47.271875-22.44375 84.328125 36.903125-4.1125 74.4625-12.6 84.30625-22.44375 5.665625-5.665625 9.275-12.534375 11.178125-19.775l33.03125 33.03125c-3.675 6.278125-7.896875 12.29375-13.25625 17.675-30.034375 30.0125-120.246875 36.35625-138.03125 37.31875l-24.325 1.3125 1.3125-24.346875c.9625-17.784375 7.2625-107.996875 37.296875-138.03125 5.359375-5.38125 11.396875-9.58125 17.653125-13.278125zm350.715313-275.522187c15.96875 0 26.709375 3.28125 33.796875 10.390625 17.215625 17.19375 8.79375 59.390625 4.375 76.715625-5.446875 21.371875-19.315625 61.95-50.771875 93.40625l-86.40625 86.40625.021875 145.621875c0 5.81875-2.296875 11.375-6.409375 15.4875l-15.4875 15.465625c-4.265625 4.265625-9.865625 6.3875-15.465625 6.3875s-11.2-2.121875-15.465625-6.409375l-247.49375-247.471875c-8.553125-8.53125-8.553125-22.378125 0-30.93125l15.465625-15.4875c4.1125-4.1125 9.66875-6.409375 15.4875-6.409375h145.6l86.40625-86.384375c41.65-41.671875 104.365625-56.7875 136.346875-56.7875zm-142.734375 310.66875-40.009375 40.009375 40.009375 40.009375zm21.853125-207.484375-154.678125 154.678125 61.884375 61.884375 154.65625-154.7zm-145.600001 83.7375h-80.01875l40.009375 40.009375zm267.093751-143.171875h-.6125c-19.884375 0-57.771875 8.53125-88.41875 30.034375l58.8 58.8c22.26875-31.784375 30.49375-71.18125 30.23125-88.834375z" fill-rule="evenodd"/></svg>