<svg height="280" viewBox="0 0 280 280" width="280" xmlns="http://www.w3.org/2000/svg"><path d="m258.605329 50.0746226-19.029467 52.3319294c-2.993242 8.232453-7.754854 15.7086-13.948148 21.901923l-65.527625 65.527933v56.149529c0 12.461577-15.066118 18.701857-23.877999 9.890934l-112.0973168-112.099243c-8.8113815-8.810923-2.5708313-23.877112 9.8903872-23.877112h56.1493655l65.5276251-65.5277334c6.193293-6.1937224 13.669405-10.9549579 21.90182-13.9484139l52.331783-19.0299559c17.859544-6.4943468 35.174591 10.820781 28.679575 28.6802098zm-218.3946818 149.7526264 39.9633669 39.963367c-6.1230872 12.245775-18.6395138 19.981684-32.3310632 19.981684h-27.6139872v-27.613688c0-13.691449 7.7356091-26.207976 19.9816835-32.331363z"/></svg>