<svg height="280" viewBox="0 0 280 280" width="280" xmlns="http://www.w3.org/2000/svg"><path d="m160 20v40c0 22.0923 17.908 40 40 40h40v140c0 11.046-8.955 20-20 20h-160c-11.0449 0-20-8.954-20-20v-200c0-11.0461 8.9551-20 20-20zm30 160h-100c-5.5225 0-10 4.478-10 10v10c0 5.522 4.4775 10 10 10h100c5.522 0 10-4.478 10-10v-10c0-5.522-4.478-10-10-10zm0-50h-100c-5.4288983 0-9.8479201 4.32749-9.9961579 9.720137l-.0038421.279863v10c0 5.428407 4.3270066 9.847903 9.7201122 9.996157l.2798878.003843h100c5.428407 0 9.847903-4.32749 9.996157-9.720137l.003843-.279863v-10c0-5.522-4.478-10-10-10zm-60-50h-40c-5.5225 0-10 4.4775-10 10v10c0 5.522 4.4775 10 10 10h40c5.522 0 10-4.478 10-10v-10c0-5.5225-4.478-10-10-10zm50-60 60 60h-40c-11.045 0-20-8.9539-20-20z" fill-rule="evenodd"/></svg>