<svg height="642" viewBox="0 0 642 642" width="642" xmlns="http://www.w3.org/2000/svg"><path d="m189.75 452.25v43.75h262.5v-43.75h43.75v43.75c0 24.128125-19.621875 43.75-43.75 43.75h-262.5c-24.128125 0-43.75-19.621875-43.75-43.75v-43.75zm175-350c12.075 0 21.875 9.8 21.875 21.875v131.25h43.75c8.8375 0 16.821875 5.3375 20.2125 13.496875 3.390625 8.18125 1.509375 17.5875-4.746875 23.84375l-109.375 109.375c-4.265625 4.265625-9.865625 6.409375-15.465625 6.409375s-11.2-2.14375-15.465625-6.409375l-109.375-109.375c-6.25625-6.25625-8.1375-15.6625-4.746875-23.84375 3.390625-8.159375 11.375-13.496875 20.2125-13.496875h43.75v-131.25c0-12.075 9.8-21.875 21.875-21.875zm-21.875 43.75h-43.75v131.25c0 12.075-9.8 21.875-21.875 21.875h-12.81875l56.56875 56.56875 56.56875-56.56875h-12.81875c-12.075 0-21.875-9.8-21.875-21.875z" fill-rule="evenodd"/></svg>