<svg height="280" viewBox="0 0 280 280" width="280" xmlns="http://www.w3.org/2000/svg"><path d="m81.7157 200 30.0003 30c15.621 15.621 40.947 15.621 56.568 0l30-30h31.716c11.046 0 20 8.954 20 20v20c0 11.046-8.954 20-20 20h-180c-11.0457 0-20-8.954-20-20v-20c0-11.046 8.9543-20 20-20zm68.2843-180c5.523 0 10 4.4772 10 10v130l32.929-32.929c3.905-3.905 10.237-3.905 14.142 0l10.858 10.858c3.905 3.905 3.905 10.237 0 14.142l-63.787 63.787c-7.81 7.81-20.474 7.81-28.284 0l-63.7869-63.787c-3.9053-3.905-3.9053-10.237 0-14.142l10.8578-10.858c3.9053-3.905 10.2369-3.905 14.1422 0l32.9289 32.929v-130c0-5.5229 4.477-10 10-10z"/></svg>