<svg height="1200" viewBox="0 0 1200 1200" width="1200" xmlns="http://www.w3.org/2000/svg"><path d="m780 780h60v60c0 33.09-26.91 60-60 60h-360c-33.09 0-60-26.91-60-60v-60h60v60h360zm-201.21-68.79-150-150c-8.58-8.58-11.16-21.48-6.51-32.7 4.65-11.19 15.6-18.51 27.72-18.51h60v-180c0-16.56 13.44-30 30-30h120c16.56 0 30 13.44 30 30v180h60c12.12 0 23.07 7.32 27.72 18.51 4.65 11.22 2.07 24.12-6.51 32.7l-150 150c-5.85 5.85-13.53 8.79-21.21 8.79s-15.36-2.94-21.21-8.79zm-38.79-141.21h-17.58l77.58 77.58 77.58-77.58h-17.58c-16.56 0-30-13.44-30-30v-180h-60v180c0 16.56-13.44 30-30 30z" fill-rule="evenodd"/></svg>