<svg height="642" viewBox="0 0 642 642" width="642" xmlns="http://www.w3.org/2000/svg"><path d="m187.431812 458.5 68.750688 68.75c35.798125 35.798125 93.836875 35.798125 129.635 0l68.75-68.75h72.6825c25.31375 0 45.833333 20.519583 45.833333 45.833333v45.833334c0 25.31375-20.519583 45.833333-45.833333 45.833333h-412.5c-25.3130625 0-45.8333333-20.519583-45.8333333-45.833333v-45.833334c0-25.31375 20.5202708-45.833333 45.8333333-45.833333zm156.484855-412.5c12.656875 0 22.916666 10.26025 22.916666 22.9166667v297.9166663l75.462292-75.462291c8.948958-8.948959 23.459792-8.948959 32.40875 0l24.882917 24.882916c8.948958 8.948959 8.948958 23.459792 0 32.40875l-146.178542 146.178542c-17.897917 17.897917-46.919583 17.897917-64.8175 0l-146.178312-146.178542c-8.949646-8.948958-8.949646-23.459791 0-32.40875l24.882458-24.882916c8.949646-8.948959 23.459562-8.948959 32.409208 0l75.462063 75.462291v-297.9166663c0-12.6566459 10.259791-22.9166667 22.916666-22.9166667z"/></svg>