<svg height="1200" viewBox="0 0 1200 1200" width="1200" xmlns="http://www.w3.org/2000/svg"><path d="m600 480v60h-240v-60zm-240 210v-60h180v60zm-60-390v540h210v60h-210c-33.09 0-60-26.91-60-60v-540c0-33.06 26.91-60 60-60h342.42l137.58 137.58v132.42h-60v-90h-120v-120zm540 437.577-47.58-47.58 47.58-47.58 47.58 47.58zm-135.33 135.33-63.42 15.87 15.84-63.45 92.91-92.91 47.58 47.58zm246.54-204.12-90-90c-11.73-11.73-30.69-11.73-42.42 0l-210 210c-3.84 3.84-6.57 8.67-7.89 13.92l-30 120c-2.55 10.23.42 21.06 7.89 28.5 7.68 7.68 18.6 10.38 28.5 7.92l120-30c5.25-1.32 10.08-4.05 13.92-7.92l210-210c11.73-11.73 11.73-30.69 0-42.42z" fill-rule="evenodd"/></svg>