<?xml version="1.0" encoding="UTF-8"?>
<svg width="40px" height="40px" viewBox="0 0 40 40" version="1.1" xmlns="http://www.w3.org/2000/svg" xmlns:xlink="http://www.w3.org/1999/xlink">
    <!-- Generator: Sketch 50.2 (55047) - http://www.bohemiancoding.com/sketch -->
    <title>Icons/drafts</title>
    <desc>Created with Sketch.</desc>
    <defs>
        <path d="M20,16 L20,18 L12,18 L12,16 L20,16 Z M12,23 L12,21 L18,21 L18,23 L12,23 Z M10,10 L10,28 L17,28 L17,30 L10,30 C8.897,30 8,29.103 8,28 L8,10 C8,8.898 8.897,8 10,8 L21.414,8 L26,12.586 L26,17 L24,17 L24,14 L20,14 L20,10 L10,10 Z M28,24.5859 L26.414,22.9999 L28,21.4139 L29.586,22.9999 L28,24.5859 Z M23.489,29.0969 L21.375,29.6259 L21.903,27.5109 L25,24.4139 L26.586,25.9999 L23.489,29.0969 Z M31.707,22.2929 L28.707,19.2929 C28.316,18.9019 27.684,18.9019 27.293,19.2929 L20.293,26.2929 C20.165,26.4209 20.074,26.5819 20.03,26.7569 L19.03,30.7569 C18.945,31.0979 19.044,31.4589 19.293,31.7069 C19.549,31.9629 19.913,32.0529 20.243,31.9709 L24.243,30.9709 C24.418,30.9269 24.579,30.8359 24.707,30.7069 L31.707,23.7069 C32.098,23.3159 32.098,22.6839 31.707,22.2929 L31.707,22.2929 Z" id="path-1"></path>
    </defs>
    <g id="Icons/drafts" stroke="none" stroke-width="1" fill="none" fill-rule="evenodd">
        <mask id="mask-2" fill="white">
            <use xlink:href="#path-1"></use>
        </mask>
        <use id="Mask" fill="#000000" xlink:href="#path-1"></use>
    </g>
</svg>