<svg height="642" viewBox="0 0 642 642" width="642" xmlns="http://www.w3.org/2000/svg"><path d="m482.733988 371.015324 68.788998 68.788998-153.85118 153.85118c-4.391031 4.391031-9.63046 7.846532-15.397271 10.153256l-56.232713 22.491709c-18.717486 7.486536-37.290515-11.086493-29.80398-29.80398l22.49171-56.232712c2.306724-5.766811 5.762225-11.00624 10.153256-15.397271zm-171.972495-321.015324v91.718664c0 31.659219 25.665175 57.324165 57.324165 57.324165h91.718664v130.047894l-163.348648 163.348647c-8.784355 8.782062-15.69077 19.258627-20.304219 30.792249l-3.317923 8.291367h-156.9742c-25.3274212 0-45.859332-20.531223-45.859332-45.859332v-389.804322c0-25.3274212 20.5319108-45.859332 45.859332-45.859332zm275.155992 286.620825c18.994935 18.994935 18.994935 49.794063 0 68.788998l-11.464833 11.464833-68.788998-68.788998 11.464833-11.464833c18.994935-18.994935 49.794063-18.994935 68.788998 0zm-240.761493-286.620825 114.64833 114.64833h-91.718664c-12.664055 0-22.929666-10.26607-22.929666-22.929666z"/></svg>