<svg height="1200" viewBox="0 0 1200 1200" width="1200" xmlns="http://www.w3.org/2000/svg"><path d="m300 300v540h210v60h-210c-33.09 0-60-26.91-60-60v-540c0-33.06 26.91-60 60-60h342.42l137.58 137.58v132.42h-60v-90h-120v-120zm300 180v60h-240v-60zm-240 210v-60h180v60zm591.21-21.213c11.73 11.73 11.73 30.69 0 42.42l-210 210c-3.84 3.87-8.67 6.6-13.92 7.92l-120 30c-9.9 2.46-20.82-.24-28.5-7.92-7.47-7.44-10.44-18.27-7.89-28.5l30-120c1.32-5.25 4.05-10.08 7.89-13.92l210-210c11.73-11.73 30.69-11.73 42.42 0zm-111.21 68.79 47.58-47.58-47.58-47.58-47.58 47.58zm-135.33 135.33 92.91-92.91-47.58-47.58-92.91 92.91-15.84 63.45z" fill-rule="evenodd"/></svg>