<svg height="642" viewBox="0 0 642 642" width="642" xmlns="http://www.w3.org/2000/svg"><path d="m480.534375 305.532187c8.553125-8.553125 22.378125-8.553125 30.93125 0l65.625 65.625c8.553125 8.553125 8.553125 22.378125 0 30.93125l-153.125 153.125c-2.8 2.821875-6.321875 4.8125-10.15 5.775l-87.5 21.875c-7.21875 1.79375-15.18125-.175-20.78125-5.775-5.446875-5.425-7.6125-13.321875-5.753125-20.78125l21.875-87.5c.9625-3.828125 2.953125-7.35 5.753125-10.15zm-128.603125-247.032187 100.31875 100.31875v96.55625h-43.75v-65.625h-87.5v-87.5h-218.75v393.75h153.125v43.75h-153.125c-24.128125 0-43.75-19.621875-43.75-43.75v-393.75c0-24.10625 19.621875-43.75 43.75-43.75zm78.44375 359.054062-67.746875 67.746875-11.55 46.265625 46.24375-11.571875 67.746875-67.746875zm65.625-65.625-34.69375 34.69375 34.69375 34.69375 34.69375-34.69375zm-218.75-9.054062v43.75h-131.25v-43.75zm43.75-109.375v43.75h-175v-43.75z" fill-rule="evenodd"/></svg>