<svg height="280" viewBox="0 0 280 280" width="280" xmlns="http://www.w3.org/2000/svg"><path d="m204 154 30 30-67.097 67.097c-1.915 1.915-4.2 3.422-6.715 4.428l-24.524 9.809c-8.163 3.265-16.263-4.835-12.998-12.998l9.809-24.524c1.006-2.515 2.513-4.8 4.428-6.715zm-75-140v40c0 13.8071 11.193 25 25 25h40v56.716l-71.239 71.239c-3.831 3.83-6.843 8.399-8.855 13.429l-1.447 3.616h-68.459c-11.0457 0-20-8.954-20-20v-170c0-11.0457 8.9543-20 20-20zm120 125c8.284 8.284 8.284 21.716 0 30l-5 5-30-30 5-5c8.284-8.284 21.716-8.284 30 0zm-105-125 50 50h-40c-5.523 0-10-4.4772-10-10z"/></svg>