<svg height="40" viewBox="0 0 40 40" width="40" xmlns="http://www.w3.org/2000/svg"><path d="m20 16v2h-8v-2zm-8 7v-2h6v2zm-2-13v18h7v2h-7c-1.103 0-2-.897-2-2v-18c0-1.102.897-2 2-2h11.414l4.586 4.586v4.414h-2v-3h-4v-4zm18 14.5859-1.586-1.586 1.586-1.586 1.586 1.586zm-4.511 4.511-2.114.529.528-2.115 3.097-3.097 1.586 1.586zm8.218-6.804-3-3c-.391-.391-1.023-.391-1.414 0l-7 7c-.128.128-.219.289-.263.464l-1 4c-.085.341.014.702.263.95.256.256.62.346.95.264l4-1c.175-.044.336-.135.464-.264l7-7c.391-.391.391-1.023 0-1.414z" fill-rule="evenodd"/></svg>