<svg height="280" viewBox="0 0 280 280" width="280" xmlns="http://www.w3.org/2000/svg"><path d="m86.1071378 217.778c17.1709572 0 31.1069382 13.922 31.1069382 31.11 0 17.206-13.935981 31.112-31.1069382 31.112-17.1867356 0-31.1071378-13.906-31.1071378-31.112 0-17.188 13.9204022-31.11 31.1071378-31.11zm107.7857242 0c17.171158 0 31.107138 13.922 31.107138 31.11 0 17.206-13.93598 31.112-31.107138 31.112-17.186555 0-31.106938-13.906-31.106938-31.112 0-17.188 13.920383-31.11 31.106938-31.11zm-107.7857242-108.8892c17.1709572 0 31.1069382 13.9224 31.1069382 31.1112 0 17.2044-13.935981 31.1112-31.1069382 31.1112-17.1867356 0-31.1071378-13.9068-31.1071378-31.1112 0-17.1888 13.9204022-31.1112 31.1071378-31.1112zm107.7857242 0c17.171158 0 31.107138 13.9224 31.107138 31.1112 0 17.2044-13.93598 31.1112-31.107138 31.1112-17.186555 0-31.106938-13.9068-31.106938-31.1112 0-17.1888 13.920383-31.1112 31.106938-31.1112zm-107.7857242-108.8888c17.1709572 0 31.1069382 13.92222 31.1069382 31.1112 0 17.2044-13.935981 31.111-31.1069382 31.111-17.1867356 0-31.1071378-13.9066-31.1071378-31.111 0-17.18898 13.9204022-31.1112 31.1071378-31.1112zm107.7857242 0c17.171158 0 31.107138 13.92222 31.107138 31.1112 0 17.2044-13.93598 31.111-31.107138 31.111-17.186555 0-31.106938-13.9066-31.106938-31.111 0-17.18898 13.920383-31.1112 31.106938-31.1112z" fill-rule="evenodd"/></svg>