<svg height="280" viewBox="0 0 280 280" width="280" xmlns="http://www.w3.org/2000/svg"><path d="m240 90v140c0 11.046-8.954 20-20 20h-160c-11.0457 0-20-8.954-20-20v-140zm-90 90h-60c-5.5228 0-10 4.477-10 10v10c0 5.523 4.4772 10 10 10h60c5.523 0 10-4.477 10-10v-10c0-5.523-4.477-10-10-10zm40-50h-100c-5.4291932 0-9.8479301 4.326523-9.9961582 9.720088l-.0038418.279912v10c0 5.42939 4.3267167 9.847937 9.7200975 9.996158l.2799025.003842h100c5.42939 0 9.847937-4.326523 9.996158-9.720088l.003842-.279912v-10c0-5.523-4.477-10-10-10zm30-100c11.046 0 20 8.9543 20 20v20h-200v-20c0-11.0457 8.9543-20 20-20z"/></svg>