<svg height="642" viewBox="0 0 642 642" width="642" xmlns="http://www.w3.org/2000/svg"><path d="m451.684932 102.25c23.5375 0 45.653125 9.14375 62.278125 25.790625l.04375.021875c16.625 16.646875 25.76875 38.740625 25.76875 62.278125.021875 23.515625-9.14375 45.63125-25.76875 62.25625l-249.571875 249.571875-.035547.013672c-.019141.008203-.041016.019141-.051953.030078-1.771875 1.771875-6.51875 4.8125-10.084375 5.709375l-124.775 31.215625c-7.459375 1.859375-15.334375-.35-20.759375-5.775l-.04375-.021875-.021875-.021875c-5.425-5.425-7.634375-13.321875-5.753125-20.759375l31.19375-124.796875c.896875-3.565625 3.9375-8.290625 5.709375-10.084375.021875-.021875.04375-.0875.04375-.0875l249.571875-249.55c16.625-16.646875 38.7625-25.790625 62.25625-25.790625zm-284.440625 333.6375-13.015625 51.93125 51.93125-12.971875zm206.5-230.2125-187.425 187.425 62.628125 62.628125 187.425-187.425zm109.33125-46.68125c-16.734375-16.734375-45.915625-16.7125-62.65 0l-15.771875 15.728125 62.69375 62.671875 15.728125-15.75c16.7125-16.734375 16.7125-45.915625 0-62.65z" fill-rule="evenodd"/></svg>