<svg height="40" viewBox="0 0 40 40" width="40" xmlns="http://www.w3.org/2000/svg"><path d="m27.4091683 12.594c.764.765.764 2.099 0 2.864l-.719.72-2.866-2.865.721-.719c.765-.764 2.099-.765 2.864 0zm-15.033 15.032.595-2.374 1.779 1.781zm10.035-12.898 2.863 2.863-8.568 8.568-2.863-2.863zm6.41-3.549c-.76-.761-1.771-1.179-2.847-1.179-1.074 0-2.086.418-2.846 1.179l-11.409 11.408s-.001.003-.002.004c-.081.082-.22.298-.261.461l-1.426 5.705c-.08599998.34.015.701.263.949l.001.001.002.001c.248.248.608.349.949.264l5.704-1.427c.163-.041.38-.18.461-.261.001-.001.004-.002.004-.002l11.409-11.409c.76-.76 1.179-1.771 1.178-2.846 0-1.076-.418-2.086-1.178-2.847z" fill-rule="evenodd"/></svg>