<svg height="1200" viewBox="0 0 1200 1200" width="1200" xmlns="http://www.w3.org/2000/svg"><path d="m864.63505 335.37.06.03c22.8 22.83 35.34 53.13 35.34 85.41.03 32.25-12.54 62.58-35.34 85.38l-342.27 342.27s-.09.03-.12.06c-2.43 2.43-8.94 6.6-13.83 7.83l-171.12 42.81c-10.23 2.55-21.03-.48-28.47-7.92l-.06-.03-.03-.03c-7.44-7.44-10.47-18.27-7.89-28.47l42.78-171.15c1.23-4.89 5.4-11.37 7.83-13.83.03-.03.06-.12.06-.12l342.27-342.24c22.8-22.83 53.16-35.37 85.38-35.37 32.28 0 62.61 12.54 85.41 35.37zm-42.36 42.45c-22.95-22.95-62.97-22.92-85.92 0l-21.63 21.57 85.98 85.95 21.57-21.6c22.92-22.95 22.92-62.97 0-85.92zm-450.99 450.96 71.22-17.79-53.37-53.43zm301.05-386.94-257.04 257.04 85.89 85.89 257.04-257.04z" fill-rule="evenodd"/></svg>