<svg height="1200" viewBox="0 0 1200 1200" width="1200" xmlns="http://www.w3.org/2000/svg"><path d="m822.27505 377.82c22.92 22.95 22.92 62.97 0 85.92l-21.57 21.6-85.98-85.95 21.63-21.57c22.95-22.92 62.97-22.95 85.92 0zm-450.99 450.96 17.85-71.22 53.37 53.43zm301.05-386.94 85.89 85.89-257.04 257.04-85.89-85.89zm192.3-106.47c-22.8-22.83-53.13-35.37-85.41-35.37-32.22 0-62.58 12.54-85.38 35.37l-342.27 342.24s-.03.09-.06.12c-2.43 2.46-6.6 8.94-7.83 13.83l-42.78 171.15c-2.58 10.2.45 21.03 7.89 28.47l.03.03.06.03c7.44 7.44 18.24 10.47 28.47 7.92l171.12-42.81c4.89-1.23 11.4-5.4 13.83-7.83.03-.03.12-.06.12-.06l342.27-342.27c22.8-22.8 35.37-53.13 35.34-85.38 0-32.28-12.54-62.58-35.34-85.41z" fill-rule="evenodd"/></svg>