<svg height="280" viewBox="0 0 280 280" width="280" xmlns="http://www.w3.org/2000/svg"><path d="m239.976036 50.0215672c16.56503 0 29.992811 13.4282814 29.992811 29.9928109v119.9712439c0 16.565029-13.427781 29.992811-29.992811 29.992811h-199.9520724c-16.5645296 0-29.992811-13.427782-29.992811-29.992811v-119.9712439c0-16.5645295 13.4282814-29.9928109 29.992811-29.9928109zm-20.428103 36.5955283-74.117235 47.9582045c-3.304208 2.138488-7.557188 2.138488-10.862396 0l-74.1167348-47.9582045c-4.6356888-2.999581-10.8253052-1.6732989-13.8248863 2.9624899-2.999581 4.6356889-1.6732989 10.8249056 2.96249 13.8251866l74.1167351 47.957505c9.915623 6.416462 22.672565 6.416462 32.588188 0l74.116235-47.957505c4.635889-3.000281 5.962571-9.1894977 2.96329-13.8251866-3.000281-4.6357888-9.189797-5.9620709-13.825686-2.9624899z" fill-rule="evenodd"/></svg>