<svg height="642" viewBox="0 0 642 642" width="642" xmlns="http://www.w3.org/2000/svg"><path d="m68.7692308 0c-37.9801 0-68.7692308 30.7891308-68.7692308 68.7692308v275.0769232c0 37.981246 30.7891308 68.769231 68.7692308 68.769231h458.4615382c37.981246 0 68.769231-30.787985 68.769231-68.769231v-275.0769232c0-37.9801-30.787985-68.7692308-68.769231-68.7692308zm46.8375772 83.9083185c-10.628973-6.8776108-24.8208788-3.8366354-31.6984895 6.7925661-6.8776108 10.6289724-3.8366354 24.8199614 6.7925661 31.6991774l169.9390844 109.959707c22.735108 14.712031 51.984954 14.712031 74.720062 0l169.937938-109.959707c10.629431-6.879216 13.671323-21.070205 6.7944-31.6991774-6.879215-10.6292015-21.070892-13.6701769-31.700323-6.7925661l-169.940231 109.9613125c-7.576077 4.903246-17.327553 4.903246-24.905923 0z" fill-rule="evenodd" transform="translate(23 114.692308)"/></svg>