<svg height="280" viewBox="0 0 280 280" width="280" xmlns="http://www.w3.org/2000/svg"><path d="m250 200c5.523 0 10 4.477 10 10v20c0 5.523-4.477 10-10 10h-140c-5.523 0-10-4.477-10-10v-20c0-5.523 4.477-10 10-10zm-141.328-70c9.586 0 14.822 9.719 8.686 16.121l-38.6725 40.342c-4.5201 4.716-12.8509 4.716-17.371 0l-38.6724-40.342c-6.1366-6.402-.9002-16.121 8.6855-16.121zm141.328 0c5.523 0 10 4.477 10 10v20c0 5.523-4.477 10-10 10h-113.975l2.99-3.119c10.1-10.537 12.961-24.473 9.689-36.881zm-171.3145-86.4635 38.6725 40.3427c6.136 6.4017.9 16.1208-8.686 16.1208h-77.3444c-9.5856 0-14.8221-9.7191-8.6855-16.1208l38.6724-40.3427c4.5201-4.7153 12.8509-4.7153 17.371 0zm171.3145 16.4635c5.523 0 10 4.4771 10 10v20c0 5.5228-4.477 10-10 10h-101.296c3.272-12.4082.411-26.3441-9.689-36.8809l-2.99-3.1191z"/></svg>