<?xml version="1.0" encoding="UTF-8"?>
<svg width="40px" height="40px" viewBox="0 0 40 40" version="1.1" xmlns="http://www.w3.org/2000/svg" xmlns:xlink="http://www.w3.org/1999/xlink">
    <!-- Generator: Sketch 50.2 (55047) - http://www.bohemiancoding.com/sketch -->
    <title>Icons/Expand</title>
    <desc>Created with Sketch.</desc>
    <defs>
        <path d="M11,13 L14,13 L14,11 L11,11 C9.897,11 9,11.897 9,13 L9,16 L11,16 L11,13 Z M29,11 L26,11 L26,13 L29,13 L29,16 L31,16 L31,13 C31,11.897 30.103,11 29,11 M14,29 L14,27 L11,27 L11,24 L9,24 L9,27 C9,28.103 9.897,29 11,29 L14,29 Z M29,27 L26,27 L26,29 L29,29 C30.103,29 31,28.103 31,27 L31,24 L29,24 L29,27 Z M15,17 L25,17 L25,23 L15,23 L15,17 Z M13,25 L27,25 L27,15 L13,15 L13,25 Z" id="path-1"></path>
    </defs>
    <g id="Icons/Expand" stroke="none" stroke-width="1" fill="none" fill-rule="evenodd">
        <mask id="mask-2" fill="white">
            <use xlink:href="#path-1"></use>
        </mask>
        <use id="Mask" fill="#414453" opacity="0" xlink:href="#path-1"></use>
        <g id="Atoms/Colors/Idle" mask="url(#mask-2)" fill="#59636B" opacity="0.25">
            <rect id="State" x="-2" y="-2" width="40" height="40"></rect>
        </g>
    </g>
</svg>