<svg height="280" viewBox="0 0 280 280" width="280" xmlns="http://www.w3.org/2000/svg"><path d="m270 170v36c0 18.778-15.222 34-34 34h-36v-30h30c5.523 0 10-4.477 10-10v-30zm-230 0v30c0 5.523 4.4772 10 10 10h30v30h-36c-18.7777 0-34-15.222-34-34v-36zm164-70c3.314 0 6 2.686 6 6v68c0 3.314-2.686 6-6 6h-128c-3.3137 0-6-2.686-6-6v-68c0-3.314 2.6863-6 6-6zm-124-60v30h-30c-5.5228 0-10 4.4772-10 10v30h-30v-36c0-18.7777 15.2223-34 34-34zm156 0c18.778 0 34 15.2223 34 34v36h-30v-30c0-5.5228-4.477-10-10-10h-30v-30z"/></svg>