<svg height="642" viewBox="0 0 642 642" width="642" xmlns="http://www.w3.org/2000/svg"><path d="m619 389.769231v82.523077c0 43.044954-34.893508 77.938461-77.938462 77.938461h-82.523076v-68.769231h68.76923c12.660416 0 22.923077-10.262661 22.923077-22.923076v-68.769231zm-527.2307692 0v68.769231c0 12.660415 10.2631202 22.923076 22.9230772 22.923076h68.76923v68.769231h-82.523076c-43.0442666 0-77.938462-34.893507-77.938462-77.938461v-82.523077zm375.9384612-160.461539c7.596708 0 13.753846 6.157139 13.753846 13.753846v155.876924c0 7.596707-6.157138 13.753846-13.753846 13.753846h-293.415384c-7.59602 0-13.753846-6.157139-13.753846-13.753846v-155.876924c0-7.596707 6.157826-13.753846 13.753846-13.753846zm-284.246154-137.5384612v68.7692312h-68.76923c-12.659957 0-22.9230772 10.26312-22.9230772 22.923076v68.769231h-68.7692308v-82.523077c0-43.044266 34.8941954-77.9384612 77.938462-77.9384612zm357.6 0c43.044954 0 77.938462 34.8941952 77.938462 77.9384612v82.523077h-68.769231v-68.769231c0-12.659956-10.262661-22.923076-22.923077-22.923076h-68.76923v-68.7692312z"/></svg>