<svg height="642" viewBox="0 0 642 642" width="642" xmlns="http://www.w3.org/2000/svg"><path d="m477.8 97c37.11456 0 67.2 30.08656 67.2 67.2v313.6c0 37.11456-30.08544 67.2-67.2 67.2h-313.6c-37.11344 0-67.2-30.08544-67.2-67.2v-313.6c0-37.11344 30.08656-67.2 67.2-67.2zm-44.8 89.6h-125.12192c-19.95616 0-29.95104 24.127936-15.83904 38.23904l40.16096 40.16096-107.360736 107.36096c-8.747872 8.7472-8.747872 22.93088 0 31.67808l13.121696 13.12192c8.7472 8.7472 22.93088 8.7472 31.67808 0l107.36096-107.36096 40.16096 40.16096c14.112 14.112 38.23904 4.11712 38.23904-15.83904v-125.12192c0-12.371072-10.02848-22.4-22.4-22.4z" fill-rule="evenodd"/></svg>