<svg height="280" viewBox="0 0 280 280" width="280" xmlns="http://www.w3.org/2000/svg"><path d="m210 40c16.569 0 30 13.4315 30 30v140c0 16.569-13.431 30-30 30h-140c-16.5685 0-30-13.431-30-30v-140c0-16.5685 13.4315-30 30-30zm-20 40h-55.858c-8.909 0-13.371 10.7714-7.071 17.071l17.929 17.929-47.9289 47.929c-3.9053 3.905-3.9053 10.237 0 14.142l5.8579 5.858c3.905 3.905 10.237 3.905 14.142 0l47.929-47.929 17.929 17.929c6.3 6.3 17.071 1.838 17.071-7.071v-55.858c0-5.5228-4.477-10-10-10z" fill-rule="evenodd"/></svg>