<svg height="642" viewBox="0 0 642 642" width="642" xmlns="http://www.w3.org/2000/svg"><path d="m124.125 408.5v65.625h65.625v43.75h-65.625c-24.128125 0-43.75-19.621875-43.75-43.75v-65.625zm437.5 0v65.625c0 24.128125-19.621875 43.75-43.75 43.75h-65.625v-43.75h65.625v-65.625zm-87.5-196.875v218.75h-306.25v-218.75zm-43.75 43.75h-218.75v131.25h218.75zm-240.625-131.25v43.75h-65.625v65.625h-43.75v-65.625c0-24.128125 19.621875-43.75 43.75-43.75zm328.125 0c24.128125 0 43.75 19.621875 43.75 43.75v65.625h-43.75v-65.625h-65.625v-43.75z" fill-rule="evenodd"/></svg>