<svg width="20" height="20" viewBox="0 0 20 20" fill="none" stroke="currentColor" xmlns="http://www.w3.org/2000/svg">
<g>
<path d="M3.33325 5C3.33325 5.66304 4.03563 6.29893 5.28587 6.76777C6.53612 7.23661 8.23181 7.5 9.99992 7.5C11.768 7.5 13.4637 7.23661 14.714 6.76777C15.9642 6.29893 16.6666 5.66304 16.6666 5M3.33325 5C3.33325 4.33696 4.03563 3.70107 5.28587 3.23223C6.53612 2.76339 8.23181 2.5 9.99992 2.5C11.768 2.5 13.4637 2.76339 14.714 3.23223C15.9642 3.70107 16.6666 4.33696 16.6666 5M3.33325 5V10M16.6666 5V11.2832M3.33325 10C3.33325 10.663 4.03563 11.2989 5.28587 11.7678C6.53612 12.2366 8.23181 12.5 9.99992 12.5M3.33325 10V15C3.33325 15.663 4.03563 16.2989 5.28587 16.7678C6.53612 17.2366 8.23181 17.5 9.99992 17.5C10.6847 17.5 11.3586 17.4605 12 17.3848M17.9999 14C17.8929 13.2442 17.5358 12.5439 16.9834 12.007C16.4311 11.47 15.7143 11.1263 14.9434 11.0286C14.1725 10.931 13.3903 11.0848 12.7172 11.4666C12.0441 11.8483 11.5176 12.4366 11.2187 13.141M10.9999 11.4231V13.141H12.7499M10.9999 15C11.1069 15.7558 11.4641 16.4561 12.0164 16.993C12.5687 17.53 13.2855 17.8737 14.0564 17.9714C14.8273 18.069 15.6096 17.9152 16.2826 17.5334C16.9557 17.1517 17.4822 16.5634 17.7812 15.859M17.9999 17.5769V15.859H16.2499" stroke-width="1.5" stroke-linecap="round" stroke-linejoin="round"/>
<path d="M3.33325 5C3.33325 5.66304 4.03563 6.29893 5.28587 6.76777C6.53612 7.23661 8.23181 7.5 9.99992 7.5C11.768 7.5 13.4637 7.23661 14.714 6.76777C15.9642 6.29893 16.6666 5.66304 16.6666 5M3.33325 5C3.33325 4.33696 4.03563 3.70107 5.28587 3.23223C6.53612 2.76339 8.23181 2.5 9.99992 2.5C11.768 2.5 13.4637 2.76339 14.714 3.23223C15.9642 3.70107 16.6666 4.33696 16.6666 5M3.33325 5V10M16.6666 5V11.2832M3.33325 10C3.33325 10.663 4.03563 11.2989 5.28587 11.7678C6.53612 12.2366 8.23181 12.5 9.99992 12.5M3.33325 10V15C3.33325 15.663 4.03563 16.2989 5.28587 16.7678C6.53612 17.2366 8.23181 17.5 9.99992 17.5C10.6847 17.5 11.3586 17.4605 12 17.3848M17.9999 14C17.8929 13.2442 17.5358 12.5439 16.9834 12.007C16.4311 11.47 15.7143 11.1263 14.9434 11.0286C14.1725 10.931 13.3903 11.0848 12.7172 11.4666C12.0441 11.8483 11.5176 12.4366 11.2187 13.141M10.9999 11.4231V13.141H12.7499M10.9999 15C11.1069 15.7558 11.4641 16.4561 12.0164 16.993C12.5687 17.53 13.2855 17.8737 14.0564 17.9714C14.8273 18.069 15.6096 17.9152 16.2826 17.5334C16.9557 17.1517 17.4822 16.5634 17.7812 15.859M17.9999 17.5769V15.859H16.2499" stroke-opacity="0.2" stroke-width="1.5" stroke-linecap="round" stroke-linejoin="round"/>
</g>
</svg>
