<?xml version="1.0" encoding="UTF-8"?>
<svg fill="currentColor" xmlns="http://www.w3.org/2000/svg" version="1.1" viewBox="0 0 20 20">
  <path d="M16.9,10.6l-1.9-7.1c-.2-.8-1.1-1.3-2-1.1l-1.9.5h-.1s0,0,0,0c-.3-.3-.7-.5-1.1-.5h-1.7c-.3,0-.6,0-.8.2-.2-.2-.5-.2-.8-.2h-1.7c-.4,0-.8.2-1.1.5-.3.3-.5.7-.5,1.1v11.7c0,.4.2.8.5,1.1.3.3.7.5,1.1.5h1.7c.3,0,.6,0,.8-.2.2.2.5.2.8.2h1.7c.4,0,.8-.2,1.1-.5.3-.3.4-.6.5-1,.6,1.4,2,2.4,3.6,2.4s3.9-1.8,3.9-3.9-.8-2.8-2.1-3.4ZM11.4,4.2l1.9-.5c0,0,.2,0,.2,0l.5,1.9-2.1.5-.5-2s0-.1,0-.1ZM11.4,10.3l.4,1.4s0,0,0,0c-.1.2-.3.4-.4.7v-2.1ZM9.8,3.8h0v8.5h-1.8V3.8s0,0,0,0h0c0,0,1.7,0,1.7,0ZM4.8,3.8h1.7c0,0,0,0,0,0v1.8h-1.8v-1.8h0ZM4.8,15.6h0V7.1h1.8v8.4s0,0,0,0h0c0,0-1.7,0-1.7,0ZM9.8,15.6h-1.7c0,0,0,0,0,0v-1.8h1.8v1.8h0ZM12.1,14c0-.7.2-1.3.6-1.7h0c0,.1,0,.1,0,.2,0,0,0,.2-.1.3-.1.4.2,1.1.3,1.2,0,0,.1.1.2.3.2.2.2.3.3.3,0,0,.2,0,.2,0,0,0,0,0,.1.1,0,0,0,0,.1,0,0,.2,0,.4,0,.5,0,.3.3.4.5.5,0,0,0,.2,0,.4,0,.3,0,.4.1.6-1.3-.3-2.4-1.5-2.4-2.9ZM14.6,13.3c-.2,0-.5,0-.7.3l-.2-.2c0,0-.1-.3-.2-.4,0,0,0,0,0-.1,0-.2.2-.3.1-.7,0,0,0,0,0-.1.1,0,.3-.2.4-.2,0,.1,0,.2.1.4.1.2.3.5.6.6-.2.1-.2.3-.3.4ZM13,10.6l-.7-2.9,2.1-.5.8,2.9c0,0-.1,0-.2,0-.7,0-1.4.2-2,.5ZM15.1,15.1s0,0,0,0c0,0,.2,0,.2,0,0,0,0,0,0,0,0,0,.1,0,.2.1,0,0,0,0,0,0,0,0-.2.1-.2.2,0-.1-.2-.2-.3-.3ZM15.5,16.9c.2-.1.2-.2.4-.3,0,0,.1-.2.3-.3,0,0,.2-.2.3-.2,0,0,.1,0,.2-.1,0,0,.4-.3.5-.7,0,0,.2.1.2.2l.2.2c-.4.7-1.1,1.2-2,1.3ZM17.4,12.5c-.2,0-.5.2-.6.5v.3c0,0,0,0,0,0-.3.3-.3.6-.3.7,0,.1,0,.2,0,.4,0,0-.1,0-.2,0l-.4-.2c0,0-.2-.1-.4-.2h-.1c.2-.2.2-.4.2-.4,0,0,.2,0,.3-.1.3-.2.7-.4.8-.7,0,0,0-.1,0-.2,0,0,0,0,0,0,.3,0,.5-.3.7-.4h0c0,0,.2.2.2.3h-.1Z"/>
</svg>
