<svg width="20" height="20" viewBox="0 0 20 20" fill="none" stroke="currentColor" xmlns="http://www.w3.org/2000/svg">
<g>
<path d="M4 3.83376C4 3.61275 4.0878 3.40079 4.24408 3.24451C4.40036 3.08822 4.61232 3.00043 4.83333 3.00043H6.5C6.72101 3.00043 6.93298 3.08822 7.08926 3.24451C7.24554 3.40079 7.33333 3.61275 7.33333 3.83376V15.5004C7.33333 15.7214 7.24554 15.9334 7.08926 16.0897C6.93298 16.246 6.72101 16.3338 6.5 16.3338H4.83333C4.61232 16.3338 4.40036 16.246 4.24408 16.0897C4.0878 15.9334 4 15.7214 4 15.5004V3.83376Z" stroke-width="1.5" stroke-linecap="round" stroke-linejoin="round"/>
<path d="M7.33325 3.83376C7.33325 3.61275 7.42105 3.40079 7.57733 3.24451C7.73361 3.08822 7.94557 3.00043 8.16659 3.00043H9.83325C10.0543 3.00043 10.2662 3.08822 10.4225 3.24451C10.5788 3.40079 10.6666 3.61275 10.6666 3.83376V15.5004C10.6666 15.7214 10.5788 15.9334 10.4225 16.0897C10.2662 16.246 10.0543 16.3338 9.83325 16.3338H8.16659C7.94557 16.3338 7.73361 16.246 7.57733 16.0897C7.42105 15.9334 7.33325 15.7214 7.33325 15.5004V3.83376Z" stroke-width="1.5" stroke-linecap="round" stroke-linejoin="round"/>
<path d="M4 6.3338H7.33333" stroke-width="1.5" stroke-linecap="round" stroke-linejoin="round"/>
<path d="M7.33325 13.0004H10.6666" stroke-width="1.5" stroke-linecap="round" stroke-linejoin="round"/>
<path d="M16.1975 11L14.2241 3.63544C14.1 3.18378 13.6241 2.91294 13.1558 3.02544L11.3358 3.46711L11.225 3.50128C11.0262 3.57434 10.8618 3.71899 10.7641 3.90689C10.6664 4.09479 10.6423 4.3124 10.6966 4.51711L12.5 11.5" stroke-width="1.5" stroke-linecap="round" stroke-linejoin="round"/>
<path d="M11.5 7.16713L14.8333 6.3338" stroke-width="1.5" stroke-linecap="round" stroke-linejoin="round"/>
<path fill-rule="evenodd" clip-rule="evenodd" d="M14.3948 14.5921C14.3855 14.5884 14.3762 14.5847 14.3668 14.581Z" fill="black"/>
<path fill-rule="evenodd" clip-rule="evenodd" d="M15 10.5732C16.8896 10.5732 18.4268 12.1105 18.4268 14C18.4268 15.8899 16.8896 17.4268 15 17.4268C13.1105 17.4268 11.5732 15.8899 11.5732 14C11.5732 12.1105 13.1105 10.5732 15 10.5732ZM13.0934 12.0321C13.5871 11.5535 14.2598 11.2586 15 11.2586C15.1506 11.2586 15.2984 11.2708 15.4425 11.2943C15.4643 11.5037 15.2509 11.5983 15.0401 11.669L15.021 11.6753C14.919 11.7089 14.8192 11.7375 14.7489 11.7714C14.5947 11.8457 14.5661 11.9381 14.6451 12.0723C14.727 12.2114 15.032 12.6668 15.2411 12.3736C15.2968 12.2954 15.3125 12.1963 15.3572 12.1118C15.3692 12.089 15.3839 12.0592 15.4099 12.0542C15.7044 11.9969 15.9883 12.2444 16.0571 12.5187C16.0701 12.5702 16.0802 12.6274 16.0627 12.6776C15.9803 12.9152 15.3605 13.1256 15.1609 13.298C14.9422 13.487 15.0987 13.6347 14.9521 13.757C14.923 13.7812 14.8917 13.8087 14.8539 13.8153C14.6871 13.8447 14.1227 13.7766 14.2265 14.1367C14.2425 14.1921 14.3487 14.2289 14.4601 14.2649L14.5019 14.2784C14.5784 14.3032 14.6522 14.3285 14.6956 14.3602C14.7415 14.3937 14.9452 14.5956 15.0273 14.6165C15.3195 14.691 15.2316 14.5487 15.3643 14.5809C15.4592 14.6039 15.5344 14.6487 15.6097 14.6943L15.638 14.7114C15.6806 14.737 15.724 14.762 15.7717 14.7825C15.8122 14.8 15.9807 14.8535 16.1466 14.9137L16.1734 14.9235C16.3074 14.9728 16.435 15.0256 16.4866 15.0663C16.5969 15.1533 16.2548 15.4599 16.2506 15.4634C16.0666 15.6134 15.8709 15.7278 15.7175 15.9153C15.2556 16.4799 15.4975 16.304 15.0613 16.5624C15.0503 16.5689 15.0489 16.5869 15.037 16.5916C14.9912 16.6098 14.9399 16.646 14.8936 16.629C14.8167 16.6007 14.8294 16.3779 14.8307 16.349C14.8405 16.135 15.015 15.9873 15.0179 15.8569C15.0226 15.6467 14.8748 15.5856 14.7237 15.5335L14.7069 15.5278L14.6901 15.5221C14.5728 15.482 14.4602 15.4412 14.4225 15.3336C14.361 15.1585 14.4332 15.0712 14.5194 15.0011L14.5298 14.9928L14.535 14.9887L14.5455 14.9805C14.6122 14.9293 14.6801 14.884 14.6967 14.8136C14.7023 14.7896 14.7114 14.7599 14.6967 14.7399C14.6703 14.7037 14.5345 14.6479 14.3948 14.5921L14.3668 14.581L14.3647 14.5801L14.3404 14.5705C14.2358 14.5287 14.1367 14.4883 14.0882 14.4576C14.0229 14.4164 13.9716 14.3561 13.9051 14.3168C13.8545 14.2868 13.7894 14.284 13.7404 14.2517C13.7227 14.24 13.6304 14.1266 13.5363 14.0078L13.5206 13.988L13.5049 13.9682C13.4112 13.8494 13.3237 13.7361 13.3152 13.7246C13.1978 13.5659 13.0318 13.0971 13.0868 12.9215C13.1764 12.6354 13.275 12.662 13.2404 12.3405C13.2284 12.2295 13.1565 12.1313 13.0934 12.0321ZM17.2481 13.3255C17.1573 13.1862 17.3906 13.0783 17.5607 13.0209C17.6775 13.3251 17.7415 13.6552 17.7415 14C17.7415 14.3571 17.6729 14.6984 17.5481 15.0115C17.4467 14.9283 17.3481 14.8419 17.2615 14.7471C17.111 14.5822 16.9414 14.3515 16.932 14.129C16.9252 13.9684 16.9281 13.8516 17.0765 13.7447C17.2012 13.6549 17.3598 13.6526 17.4337 13.5178L17.4127 13.4681C17.4311 13.4345 17.3905 13.4124 17.344 13.3894L17.3332 13.384C17.2988 13.3671 17.2635 13.3491 17.2481 13.3255ZM16.1475 11.6336C16.1431 11.5914 16.1409 11.5491 16.1395 11.5068C16.3901 11.6218 16.6205 11.7735 16.8238 11.9549C16.7244 12.1036 16.4815 12.2543 16.3288 12.1444C16.187 12.0423 16.1617 11.771 16.1475 11.6336Z" fill="black"/>
</g>
</svg>
