<svg height="280" viewBox="0 0 280 280" width="280" xmlns="http://www.w3.org/2000/svg"><g fill="#000" fill-rule="evenodd"><path d="m180 40v40.0006c0 22.0924 17.91 40.0004 40 40.0004h40v99.999c0 11.046-8.954 20-20 20h-200c-11.0457 0-20-8.954-20-20v-160c0-11.0457 8.9543-20 20-20zm-125.0041 100h-8.3771c-4.1522 0-6.8181 4.918-4.8871 9.016l12.7284 27.01c.8456 1.794.8443 3.938-.0032 5.731l-13.8128 29.22c-1.9372 4.098.7285 9.023 4.8838 9.023h7.4762c2.2335 0 4.2469-1.5 5.1009-3.801l3.8887-10.476c1.5207-4.117 3.0415-8.234 4.5622-13.054.0449-.142.1656-.238.3009-.238.1303 0 .2476.089.296.223 1.7332 4.827 3.2587 8.948 4.9985 13.069l4.2788 10.64c.8898 2.213 2.8622 3.637 5.0374 3.637h8.3694c4.1799 0 6.8434-4.977 4.8577-9.077l-13.656-28.198c-.8636-1.783-.8844-3.926-.0555-5.729l12.8856-28.036c1.8821-4.095-.7856-8.96-4.9131-8.96h-7.3985c-2.3306 0-4.4101 1.632-5.1966 4.077l-2.8843 8.969c-1.304 3.634-2.8219 7.983-4.3431 13.048-.0438.146-.1662.244-.3039.244-.128 0-.2439-.085-.2943-.216-.7179-1.872-1.3783-3.646-2.0024-5.322-1.0687-2.871-2.0309-5.455-2.9931-7.754l-3.4449-9.251c-.8555-2.298-2.8674-3.795-5.0986-3.795zm69.6021 0h-10.945c-3.049 0-5.521 2.755-5.521 6.154v67.692c0 3.399 2.472 6.154 5.521 6.154h5.962c3.048 0 5.52-2.755 5.52-6.154v-17.477c0-7.048-1.164-17.34-2.049-25.166-.122-1.083-.239-2.119-.347-3.092-.018-.159.093-.296.237-.296.102 0 .194.074.226.182l5.687 19.018 7.495 22.454c.804 2.41 2.867 4.008 5.174 4.008h2.485c2.306 0 4.37-1.598 5.174-4.008l7.495-22.454 5.906-19.02c.033-.107.124-.18.226-.18.144 0 .256.138.239.297-.108.973-.225 2.009-.348 3.091-.885 7.826-2.049 18.118-2.049 25.166v17.477c0 3.399 2.472 6.154 5.521 6.154h6.183c3.049 0 5.52-2.755 5.52-6.154v-67.692c0-3.399-2.471-6.154-5.52-6.154h-10.891c-2.34 0-4.425 1.644-5.205 4.103l-9.077 28.635c-.729 2.437-1.391 5.023-2.059 7.635-.527 2.057-1.058 4.132-1.629 6.162-.039.139-.156.234-.287.234s-.248-.095-.287-.234c-.571-2.03-1.102-4.104-1.628-6.161-.669-2.611-1.331-5.199-2.06-7.636l-9.489-28.712c-.8-2.419-2.867-4.026-5.18-4.026zm82.721 0h-7.949c-3.049 0-5.521 2.755-5.521 6.154v67.692c0 3.399 2.472 6.154 5.521 6.154h35.11c3.048 0 5.52-2.755 5.52-6.154v-5.415c0-3.399-2.472-6.154-5.52-6.154h-16.12c-3.049 0-5.52-2.755-5.52-6.154v-49.969c0-3.399-2.472-6.154-5.521-6.154z"/><path d="m220 100c-11.045 0-20-8.9539-20-20v-40l60 60z" fill-rule="nonzero"/></g></svg>