<svg height="642" viewBox="0 0 642 642" width="642" xmlns="http://www.w3.org/2000/svg"><path d="m412.666667 91.8333333v91.6680417c0 50.628417 41.04375 91.667583 91.666666 91.667583h91.666667v229.164375c0 25.31375-20.519583 45.833334-45.833333 45.833334h-458.3333337c-25.3130625 0-45.8333333-20.519584-45.8333333-45.833334v-366.666666c0-25.313063 20.5202708-45.8333337 45.8333333-45.8333337zm-78.242084 261.5754167-36.34125 36.338958c-12.656875 12.656875-33.176458 12.656875-45.833333 0-12.656875-12.654583-33.177375-12.654583-45.833792 0l-64.281937 64.283542c-10.105563 10.103958-2.948229 27.383125 11.343292 27.383125h335.04327c14.293125 0 21.45-17.279167 11.34375-27.383125l-100.6225-100.6225c-17.900208-17.900208-46.919583-17.900208-64.8175 0zm-128.007916-169.90875c-37.969479 0-68.75 30.780521-68.75 68.75 0 37.970625 30.780521 68.75 68.75 68.75 37.970625 0 68.75-30.779375 68.75-68.75 0-37.969479-30.779375-68.75-68.75-68.75zm252.083333-91.6666667 137.5 137.4999997h-91.666667c-25.311458 0-45.833333-20.519354-45.833333-45.833333z" fill-rule="evenodd"/></svg>