<svg height="642" viewBox="0 0 642 642" width="642" xmlns="http://www.w3.org/2000/svg"><path d="m412.666667 91.8333333v91.6680417c0 50.628417 41.04375 91.667583 91.666666 91.667583h91.666667v229.164375c0 25.31375-20.519583 45.833334-45.833333 45.833334h-458.3333337c-25.3130625 0-45.8333333-20.519584-45.8333333-45.833334v-366.666666c0-25.313063 20.5202708-45.8333337 45.8333333-45.8333337zm-252.083334 143.1374997v194.975c0 24.163334 29.69725 37.363334 49.258 21.894584l123.270125-97.4875c14.407709-11.394167 14.407709-32.395 0-43.789167l-123.270125-97.4875c-19.56075-15.468521-49.258-2.26875-49.258 21.894583zm297.916667-143.1374997 137.5 137.4999997h-91.666667c-25.311458 0-45.833333-20.519583-45.833333-45.833333z" fill-rule="evenodd"/></svg>