<svg height="642" viewBox="0 0 642 642" width="642" xmlns="http://www.w3.org/2000/svg"><path d="m412.666667 91.8333333v91.6680417c0 50.628417 41.04375 91.667583 91.666666 91.667583h91.666667v229.164375c0 25.31375-20.519583 45.833334-45.833333 45.833334h-458.3333337c-25.3130625 0-45.8333333-20.519584-45.8333333-45.833334v-366.666666c0-25.313063 20.5202708-45.8333337 45.8333333-45.8333337zm-156.312292 144.8058337-61.111417 61.932291c-4.58425 4.6475-10.801771 7.257709-17.284896 7.257709h-38.763541c-13.500438 0-24.444521 11.089375-24.444521 24.772916v49.545834c0 13.68125 10.944083 24.772916 24.444521 24.772916h38.763541c6.483125 0 12.700646 2.610209 17.284896 7.257709l61.111417 61.932291c15.4 15.60625 41.728958 4.553542 41.728958-17.5175v-202.436666c0-22.071042-26.33125-33.12398-41.728958-17.5175zm99.020625 61.444166c-6.327292 0-11.458333 5.131042-11.458333 11.458334v11.458333c0 6.327292 5.131041 11.458333 11.458333 11.458333 12.656875 0 22.916667 10.259792 22.916667 22.916667s-10.259792 22.916667-22.916667 22.916667c-6.327292 0-11.458333 5.131041-11.458333 11.458333v11.458333c0 6.327292 5.131041 11.458334 11.458333 11.458334 31.641042 0 57.291667-25.650625 57.291667-57.291667s-25.650625-57.291667-57.291667-57.291667zm103.125-206.2499997 137.5 137.4999997h-91.666667c-25.311458 0-45.833333-20.519354-45.833333-45.833333z" fill-rule="evenodd"/></svg>