<svg height="280" viewBox="0 0 280 280" width="280" xmlns="http://www.w3.org/2000/svg"><path d="m180 40v40.0006c0 22.0924 17.91 40.0004 40 40.0004h40v99.999c0 11.046-8.954 20-20 20h-200c-11.0457 0-20-8.954-20-20v-160c0-11.0457 8.9543-20 20-20zm4.776 100c-15.306 0-26.086 10.801-26.086 23.976 0 10.9986 6.389456 17.960066 13.798252 21.339331l.322748.144669 8.732 4.036c.526.232 1.034.452 1.523.665 5.009 2.176 7.962 3.46 7.962 6.812 0 3.442-2.371 5.46-7.976 5.46-3.742 0-8.047-1.613-12.019-4.167-2.471389-1.589583-5.690444-1.326543-7.595937.981183l-.160063.202817-3.864 5.124c-1.849 2.451-1.627 6.111.776 7.887 6.893 5.093 15.106 7.539 22.432 7.539 17.462 0 27.379-11.632 27.379-24.688 0-10.523552-4.811104-17.130683-13.301541-20.956032l-.388459-.171968-8.515-3.68c-.598-.256-1.175-.5-1.729-.734-5.345-2.262-8.62-3.647-8.62-6.981 0-3.442 2.803-5.222 7.33-5.222 3.552 0 6.596.895 9.69 2.646 2.465486 1.395943 5.531148 1.035709 7.333312-1.239291l.155688-.205709 3.081-4.261c1.719-2.376 1.554-5.847-.69-7.614-5.916-4.661-13.032-6.893-19.57-6.893zm-130.1353 1.424h-8.1786c-4.054 0-6.6567 4.743-4.7714 8.695l12.427 26.049c.8255 1.73.8243 3.797-.0032 5.526l-13.4857 28.18c-1.8912 3.952.7113 8.702 4.7682 8.702h7.2991c2.1806 0 4.1464-1.447 4.9801-3.666l3.7966-10.103c1.4847-3.97 2.9694-7.941 4.4541-12.589.0439-.137.1617-.23.2939-.23.1271 0 .2416.086.2889.216 1.6922 4.654 3.1816 8.629 4.8801 12.603l4.1775 10.262c.8687 2.133 2.7944 3.507 4.9181 3.507h8.1712c4.0808 0 6.6813-4.8 4.7426-8.754l-13.3326-27.194c-.8432-1.719-.8634-3.786-.0541-5.525l12.5804-27.038c1.8375-3.949-.767-8.641-4.7967-8.641h-7.2234c-2.2754 0-4.3056 1.574-5.0735 3.932l-2.816 8.65c-1.2731 3.505-2.755 7.699-4.2402 12.583-.0427.141-.1622.236-.2967.236-.125 0-.2381-.083-.2873-.209-.7008-1.805-1.3455-3.515-1.9547-5.132-1.0434-2.768-1.9831-5.261-2.9225-7.478l-3.3634-8.922c-.8351-2.216-2.7994-3.66-4.9778-3.66zm65.0283 0h-7.761c-2.976 0-5.389 2.657-5.389 5.935v65.282c0 3.278 2.413 5.935 5.389 5.935h34.278c2.977 0 5.39-2.657 5.39-5.935v-5.223c0-3.277-2.413-5.934-5.39-5.934h-15.737c-2.977 0-5.39-2.657-5.39-5.935v-48.19c0-3.278-2.413-5.935-5.39-5.935zm80.331-101.424 60 60h-40c-11.045 0-20-8.9539-20-20z" fill-rule="evenodd"/></svg>