<svg height="280" viewBox="0 0 280 280" width="280" xmlns="http://www.w3.org/2000/svg"><path d="m180 40v40.0006c0 21.871476 17.553591 39.641822 39.338568 39.995041l.661432.005359h40v99.999c0 10.930937-8.76843 19.813231-19.655501 19.997093l-.344499.002907h-200c-10.9306406 0-19.8132252-8.76843-19.9970929-19.655501l-.0029071-.344499v-160c0-10.9306406 8.7687237-19.8132252 19.6555104-19.9970929l.3444896-.0029071zm-34.142 114.142-15.858 15.857c-5.523 5.523-14.477 5.523-20 0-5.523-5.522-14.4774-5.522-20.0002 0l-28.0503 28.051c-4.4097 4.409-1.2865 11.949 4.9498 11.949h146.2007c6.237 0 9.36-7.54 4.95-11.949l-43.908-43.908c-7.811-7.811-20.474-7.811-28.284 0zm-55.858-74.142c-16.5685 0-30 13.4315-30 30 0 16.569 13.4315 30 30 30 16.569 0 30-13.431 30-30 0-16.5685-13.431-30-30-30zm110-40 60 60h-40c-11.045 0-20-8.9539-20-20z"/></svg>