<svg height="280" viewBox="0 0 280 280" width="280" xmlns="http://www.w3.org/2000/svg"><path d="m180 40v40.0006c0 22.0924 17.91 40.0004 40 40.0004h40v99.999c0 11.046-8.954 20-20 20h-200c-11.0457 0-20-8.954-20-20v-160c0-11.0457 8.9543-20 20-20zm-68.209 63.188-26.6668 27.025c-2.0004 2.028-4.7135 3.167-7.5425 3.167h-16.915c-5.8911 0-10.6667 4.839-10.6667 10.81v21.62c0 5.97 4.7756 10.81 10.6667 10.81h16.915c2.829 0 5.5421 1.139 7.5425 3.167l26.6668 27.025c6.72 6.81 18.209 1.987 18.209-7.644v-88.336c0-9.631-11.49-14.4541-18.209-7.644zm43.209 26.812c-2.761 0-5 2.239-5 5v5c0 2.761 2.239 5 5 5 5.523 0 10 4.477 10 10s-4.477 10-10 10c-2.761 0-5 2.239-5 5v5c0 2.761 2.239 5 5 5 13.807 0 25-11.193 25-25s-11.193-25-25-25zm45-90 60 60h-40c-11.045 0-20-8.9539-20-20z" fill-rule="evenodd"/></svg>