<svg height="1200" viewBox="0 0 1200 1200" width="1200" xmlns="http://www.w3.org/2000/svg"><path d="m780 300c33.09 0 60 26.94 60 60v120c0 7.68-2.94 15.36-8.79 21.21l-141.21 141.21v107.58c0 7.95-3.18 15.6-8.79 21.21l-120 120c-5.73 5.73-13.41 8.79-21.21 8.79-3.87 0-7.77-.75-11.49-2.28-11.19-4.65-18.51-15.6-18.51-27.72v-227.58l-141.21-141.21c-5.85-5.85-8.79-13.53-8.79-21.21v-120c0-33.06 26.91-60 60-60zm-141.21 308.79 141.21-141.21v-107.58h-360v107.58l141.21 141.21c5.61 5.61 8.79 13.26 8.79 21.21v167.58l60-60v-107.58c0-7.95 3.18-15.6 8.79-21.21z" fill-rule="evenodd"/></svg>