<svg height="642" viewBox="0 0 642 642" width="642" xmlns="http://www.w3.org/2000/svg"><path d="m366.833333 447.041667c12.656875 0 22.916667 10.259791 22.916667 22.916666v68.75c0 12.656875-10.259792 22.916667-22.916667 22.916667h-91.666666c-12.656875 0-22.916667-10.259792-22.916667-22.916667v-68.75c0-12.656875 10.259792-22.916666 22.916667-22.916666zm91.666667-183.333334c12.656875 0 22.916667 10.259792 22.916667 22.916667v68.75c0 12.656875-10.259792 22.916667-22.916667 22.916667h-275c-12.656417 0-22.916667-10.259792-22.916667-22.916667v-68.75c0-12.656875 10.26025-22.916667 22.916667-22.916667zm114.583333-183.333333c12.656875 0 22.916667 10.26025 22.916667 22.916667v68.75c0 12.656416-10.259792 22.916666-22.916667 22.916666h-504.1666663c-12.6564167 0-22.9166667-10.26025-22.9166667-22.916666v-68.75c0-12.656417 10.26025-22.916667 22.9166667-22.916667z"/></svg>