<svg height="1200" viewBox="0 0 1200 1200" width="1200" xmlns="http://www.w3.org/2000/svg"><path d="m650 300c27.575 0 50 22.45 50 50v75c0 6.4-2.45 12.8-7.325 17.675l-117.675 117.675v114.65c0 6.625-2.625 13-7.325 17.675l-100 100c-4.775 4.775-11.175 7.325-17.675 7.325-3.225 0-6.475-.625-9.575-1.9-9.325-3.875-15.425-13-15.425-23.1v-214.65l-117.675-117.675c-4.875-4.875-7.325-11.275-7.325-17.675v-75c0-27.55 22.425-50 50-50zm-117.675 232.325 117.675-117.675v-64.65h-300v64.65l117.675 117.675c4.7 4.675 7.325 11.05 7.325 17.675v164.65l50-50v-114.65c0-6.625 2.65-13 7.325-17.675zm342.675 367.675h-250c-13.8 0-25-11.2-25-25v-300c0-13.8 11.2-25 25-25h250c13.8 0 25 11.2 25 25v300c0 13.8-11.2 25-25 25zm-225-50h200v-250h-200zm175-100h-150v-50h150zm0-75h-100v-50h100zm0 150h-150v-50h150z" fill-rule="evenodd"/></svg>