<svg height="642" viewBox="0 0 642 642" width="642" xmlns="http://www.w3.org/2000/svg"><path d="m452.25 102.25c24.128125 0 43.75 19.64375 43.75 43.75v87.5c0 5.6-2.14375 11.2-6.409375 15.465625l-102.965625 102.965625v78.44375c0 5.796875-2.31875 11.375-6.409375 15.465625l-87.5 87.5c-4.178125 4.178125-9.778125 6.409375-15.465625 6.409375-2.821875 0-5.665625-.546875-8.378125-1.6625-8.159375-3.390625-13.496875-11.375-13.496875-20.2125v-165.94375l-102.965625-102.965625c-4.265625-4.265625-6.409375-9.865625-6.409375-15.465625v-87.5c0-24.10625 19.621875-43.75 43.75-43.75zm0 43.75h-262.5v78.44375l102.965625 102.965625c4.090625 4.090625 6.409375 9.66875 6.409375 15.465625v122.19375l43.75-43.75v-78.44375c0-5.796875 2.31875-11.375 6.409375-15.465625l102.965625-102.965625z" fill-rule="evenodd"/></svg>