<svg height="642" viewBox="0 0 642 642" width="642" xmlns="http://www.w3.org/2000/svg"><path d="m521.520833 284.541667c10.0625 0 18.229167 8.166666 18.229167 18.229166v218.75c0 10.0625-8.166667 18.229167-18.229167 18.229167h-182.291666c-10.0625 0-18.229167-8.166667-18.229167-18.229167v-218.75c0-10.0625 8.166667-18.229166 18.229167-18.229166zm-18.229166 36.458333h-145.833334v182.291667h145.833334zm-18.229167 127.604167v36.458333h-109.375v-36.458333zm-127.604167-346.354167c20.106771 0 36.458334 16.369792 36.458334 36.458333v54.6875c0 4.666667-1.786459 9.333334-5.341146 12.888021l-85.804688 85.804688v83.598958c0 4.830729-1.914062 9.479167-5.341146 12.888021l-72.916666 72.916667c-3.481771 3.48177-8.148438 5.341145-12.888021 5.341145-2.351563 0-4.721354-.455729-6.981771-1.385416-6.799479-2.825521-11.247396-9.479167-11.247396-16.84375v-156.515625l-85.804687-85.804688c-3.554688-3.554687-5.341146-8.221354-5.341146-12.888021v-54.6875c0-20.088541 16.351562-36.458333 36.458333-36.458333zm127.604167 291.666667v36.458333h-109.375v-36.458333zm-127.604167-255.208334h-218.75v47.140625l85.804688 85.804688c3.427083 3.408854 5.341146 8.057292 5.341146 12.888021v120.057291l36.458333-36.458333v-83.598958c0-4.830729 1.932292-9.479167 5.341146-12.888021l85.804687-85.804688zm127.604167 200.520834v36.458333h-72.916667v-36.458333z" fill-rule="evenodd"/></svg>