<svg height="1200" viewBox="0 0 1200 1200" width="1200" xmlns="http://www.w3.org/2000/svg"><path d="m638.79 608.79c-5.61 5.61-8.79 13.26-8.79 21.21v107.58l-60 60v-167.58c0-7.95-3.18-15.6-8.79-21.21l-141.21-141.21v-107.58h360v107.58zm141.21-308.79h-360c-33.09 0-60 26.94-60 60v120c0 7.68 2.94 15.36 8.79 21.21l141.21 141.21v227.58c0 12.12 7.32 23.07 18.51 27.72 3.72 1.53 7.62 2.28 11.49 2.28 7.8 0 15.48-3.06 21.21-8.79l120-120c5.61-5.61 8.79-13.26 8.79-21.21v-107.58l141.21-141.21c5.85-5.85 8.79-13.53 8.79-21.21v-120c0-33.06-26.91-60-60-60z" fill-rule="evenodd"/></svg>