<svg height="290" viewBox="0 0 280 290" width="280" xmlns="http://www.w3.org/2000/svg"><path d="m185.996 149.165c3.319-3.253 8.7-3.253 12.019 0l59.496 58.308c3.319 3.253 3.319 8.527 0 11.78l-59.496 58.307c-3.319 3.253-8.7 3.253-12.019 0l-12.02-11.78c-3.32-3.253-3.32-8.527 0-11.78l27.987-27.428h-13.477c-44.713 0-67.965-20.257-87.462-37.243l-.325-.284c-8.0992-7.055-15.5033-13.464-23.8617-18.461 13.5326-4.245 24.6857-10.32 34.1837-16.839 4.209 3.38 8.145 6.809 11.939 10.114l.325.284c18.683 16.275 33.669 29.11 65.201 29.11h6.436l-20.946-20.528c-3.32-3.253-3.32-8.527 0-11.78zm-.001-136.7253c3.32-3.25293 8.701-3.25294 12.02 0l59.496 58.3076c3.319 3.2529 3.319 8.527 0 11.7799l-59.496 58.3078c-3.319 3.253-8.7 3.253-12.02 0l-12.019-11.78c-3.32-3.253-3.32-8.527 0-11.78l24.466-23.9777h-9.956c-31.532 0-46.518 12.8357-65.201 29.1107l-.754.657c-18.132 15.798-39.603 34.507-78.5337 36.87h-23.9973v-33.319h15.498c31.5319 0 46.5181-12.836 65.201-29.1107l.325-.2835c19.497-16.9862 42.749-37.2431 87.462-37.2431h9.957l-24.467-23.9792c-3.32-3.2529-3.32-8.527 0-11.7799z" fill-rule="evenodd"/></svg>