<svg height="1200" viewBox="0 0 1200 1200" width="1200" xmlns="http://www.w3.org/2000/svg"><path d="m900.000003 507.078783c-18.462856-7.777817-38.737561-12.078783-60.000003-12.078783h-247.5c-18.78 0-36.75-8.97-48-24l-49.5-66h-135v390h288.145169c-21.355003 16.954116-38.266527 37.162798-49.900758 59.999982l-238.244411.000018c-33.09 0-60-26.91-60-60v-390c0-33.06 26.91-60 60-60h135c18.78 0 36.75 8.97 48 24l49.5 66h247.5c33.09 0 60 26.94 60 60v12.078763zm-60.000003 247.921217c-57.9075 0-105-47.0925-105-105s47.0925-105 105-105 105 47.0925 105 105-47.0925 105-105 105zm210 209.75h-420v-26.25c0-92.74125 86.3625-157.5 210-157.5 123.66375 0 210 64.75875 210 157.5z" fill-rule="evenodd"/></svg>