<svg height="40" viewBox="0 0 40 40" width="40" xmlns="http://www.w3.org/2000/svg"><path d="m17.75 15h-1.75v10h-6v-13h4.5l1.65 2.2c.375.501.974.8 1.6.8zm10.25 0h-12v12h-6c-1.103 0-2-.897-2-2v-13c0-1.102.897-2 2-2h4.5c.626 0 1.225.299 1.6.8l1.65 2.2h8.25c1.103 0 2 .898 2 2zm-3 9c-1.93025 0-3.5-1.56975-3.5-3.5s1.56975-3.5 3.5-3.5 3.5 1.56975 3.5 3.5-1.56975 3.5-3.5 3.5zm0-5.25c.965125 0 1.75.784 1.75 1.75 0 .965125-.784875 1.75-1.75 1.75s-1.75-.784875-1.75-1.75c0-.966.784875-1.75 1.75-1.75zm6.9997375 12.25h-14v-.875c0-3.091375 2.87875-5.25 7-5.25 4.122125 0 7 2.158625 7 5.25zm-12.110875-1.75h10.222625c-.52325-1.582-2.47975-2.625-5.11175-2.625s-4.587625 1.043-5.110875 2.625z" fill-rule="evenodd"/></svg>