<svg height="280" viewBox="0 0 280 280" width="280" xmlns="http://www.w3.org/2000/svg"><path d="m212.531241 127.261506c35.160865 0 63.766531 28.605666 63.766531 63.766531 0 35.167242-28.605666 63.766532-63.766531 63.766532-35.160866 0-63.766532-28.59929-63.766532-63.766532 0-35.160865 28.605666-63.766531 63.766532-63.766531zm-.02688 12.753306c-13.774276 0-26.29153 5.488379-35.479627 14.392998.138192.217182.278656.434111.419307.651201l.420432.652172c.903116 1.415892 1.726043 2.85618 1.896072 4.435013.644335 5.983076-1.190716 5.487499-2.858081 10.812597-1.023115 3.267542 2.064592 11.991316 4.250047 14.943325.174052.235101 2.113245 2.746753 4.034814 5.171674l.426001.536484c1.626336 2.043681 3.144056 3.897396 3.451149 4.100284.911442.602166 2.123964.6538 3.065359 1.21118 1.237743.732842 2.192669 1.853288 3.407453 2.621236 2.255128 1.42562 10.396883 3.984337 11.322787 5.252252.272565.373246.104849.925352 0 1.370932-.264306 1.12323-1.229222 1.903171-2.280756 2.702435l-.302265.2292c-.050593.038392-.10125.076907-.151905.115582l-.303369.234302-.300127.240051c-1.586373 1.298951-2.898642 2.92343-1.764331 6.156463.694403 1.9792 2.751754 2.744274 4.908302 3.481563l.480352.163866c2.885745.986243 5.78142 2.079315 5.691465 6.091287-.054405 2.426438-3.302056 5.174713-3.483286 9.158024-.024406.536431-.260938 4.683632 1.169521 5.209868.860848.316689 1.815769-.357454 2.667655-.696062.222823-.088567.247871-.422771.453316-.54446 8.115771-4.807147 3.615428-1.533771 12.210881-12.040079 2.85455-3.489144 6.49483-5.619164 9.919024-8.409797.078429-.063918 6.445116-5.770466 4.391604-7.389342-2.208698-1.741216-11.895211-4.672665-13.302884-5.279964-.94018-.405612-1.789955-.902478-2.626954-1.407378l-.835615-.504495c-1.255661-.751514-2.540798-1.458691-4.117413-1.840667-.93225-.225862-1.279582.010462-1.642956.317881l-.110095.093967c-.577518.492478-1.337958 1.061804-4.519223.251612-1.526526-.38877-5.317431-4.147184-6.171163-4.769736-2.131501-1.554317-8.191377-2.292072-8.729281-4.158441-1.931188-6.700658 8.570031-5.433773 11.674991-5.980916.703088-.123895 1.285498-.634233 1.826746-1.085661 2.727701-2.275045-.184288-5.022997 3.886046-8.540207 3.713207-3.208614 15.247331-7.12326 16.781115-11.544522.324366-.935014.13603-1.998618-.104482-2.957041-1.2808-5.103904-6.564541-9.710073-12.044048-8.644535-.483777.094075-.756156.647611-.98078 1.07262-.831394 1.573074-1.123278 3.416554-2.160412 4.870804-2.334797 3.273807-5.311693 1.532615-7.648819-.943183l-.271927-.294401c-1.433711-1.585463-2.595757-3.394051-3.169485-4.368405-1.470679-2.49763-.936772-4.216481 1.931227-5.599467 1.301624-.62766 3.143782-1.156943 5.030954-1.777108l.539988-.179827c3.872561-1.308822 7.735983-3.074261 7.336141-6.921125-2.680827-.436886-5.431132-.664054-8.233465-.664054zm-105.896106-81.1090488c5.972352 0 11.687111 2.8526091 15.264798 7.6323988l15.741822 20.9890966h78.709113c10.523169 0 19.080996 8.5673676 19.080996 19.0809964l.000956 11.304966c-5.726035-1.916329-12.078839-3.008048-19.079679-3.15372l-.002273-8.151246h-78.709113c-5.972352 0-11.68711-2.852609-15.264797-7.6323983l-15.741823-20.9890966h-42.9322425v124.0264799l73.4444515.001461c.902467 7.233149 2.927111 13.561778 5.905126 19.081084l-79.3495775-.001548c-10.5231698 0-19.0809969-8.557827-19.0809969-19.080997v-124.0264799c0-10.5136293 8.5578271-19.0809969 19.0809969-19.0809969zm153.490414 113.9032648c-3.165165 1.067956-7.507461 3.076327-5.817787 5.668095.71037 1.089626 3.682345 1.524487 3.062854 2.655018l.3902.923801c-1.374866 2.50904-4.326156 2.551248-6.645975 4.222569-2.761363 1.989433-2.816162 4.162194-2.689438 7.150363.175627 4.141354 3.331391 8.434138 6.132002 11.502046 1.610773 1.764509 3.446212 3.371924 5.333371 4.919907 2.321063-5.826273 3.597845-12.177475 3.597845-18.821101 0-6.416115-1.190832-12.559489-3.363072-18.220698zm-26.311918-28.239464c.025442.788119.067622 1.575132.148694 2.359577.264183 2.556211.735503 7.605869 3.373749 9.505239 2.841725 2.045863 7.360595-.759905 9.210191-3.525711-3.782484-3.376712-8.069644-6.199363-12.732634-8.339105z" fill-rule="evenodd"/></svg>