<svg height="280" viewBox="0 0 280 280" width="280" xmlns="http://www.w3.org/2000/svg"><path d="m135.229751 58.9057632c5.972352 0 11.68711 2.8526091 15.264797 7.6323988l15.741823 20.9890966h78.709112c10.52317 0 19.080997 8.5673676 19.080997 19.0809964v95.404985c0 10.52317-8.557827 19.080997-19.080997 19.080997h-152.6479752c-10.5231698 0-19.0809969-8.557827-19.0809969-19.080997v-41.660177h19.0809969v41.660177h152.6575152l-.00954-95.404985h-78.709112c-5.972352 0-11.687111-2.852609-15.264798-7.6323983l-15.741822-20.9890966h-42.9322432v41.6601769h-19.0809969v-41.6601769c0-10.5136293 8.5578271-19.0809969 19.0809969-19.0809969zm-13.208462 33.3917446 46.600206 47.5529542-46.450846 47.85203-14.039806-14.355609 22.702665-23.028789h-114.8599878v-20.487178h114.4119088l-22.105226-23.177799z" fill-rule="evenodd"/></svg>