<svg height="280" viewBox="0 0 280 280" width="280" xmlns="http://www.w3.org/2000/svg"><path d="m216.333634 125.278818c34.590449 0 62.732044 28.141595 62.732044 62.732045 0 34.596722-28.141595 62.732044-62.732044 62.732044-34.59045 0-62.732045-28.135322-62.732045-62.732044 0-34.59045 28.141595-62.732045 62.732045-62.732045zm-109.725379-66.3730548c5.972352 0 11.687111 2.8526091 15.264798 7.6323988l15.741822 20.9890966h78.709113c10.523169 0 19.080996 8.5673676 19.080996 19.0809964l.000655 7.55057c-5.756989-1.709347-12.06565-2.621312-18.922643-2.621312l-.15898.00025-.000028-4.929508h-78.709113c-5.972352 0-11.68711-2.852609-15.264797-7.6323983l-15.741823-20.9890966h-42.9322425v124.0264799l77.8187095.0011c1.406262 7.024844 3.887509 13.392065 7.274611 19.081196l-85.0933205-.001299c-10.5231698 0-19.0809969-8.557827-19.0809969-19.080997v-124.0264799c0-10.5136293 8.5578271-19.0809969 19.0809969-19.0809969zm137.802032 99.2211838-42.058145 46.264883-14.174675-14.174675-8.155166 8.155166 22.726528 22.721916 50.194861-55.213425z" fill-rule="evenodd"/></svg>