<svg height="280" viewBox="0 0 280 280" width="280" xmlns="http://www.w3.org/2000/svg"><path d="m218.489207 192.218683c31.238569 0 53.047878 16.358639 53.047878 39.785908v6.630985h-106.095756v-6.630985c0-23.427269 21.81594-39.785908 53.047878-39.785908zm-111.880952-133.3129198c5.972352 0 11.687111 2.8526091 15.264798 7.6323988l15.741822 20.9890966h78.709113c10.523169 0 19.080996 8.5673676 19.080996 19.0809964l.000069 16.832479c-5.129817-2.44081-10.865907-3.807427-16.915846-3.807427-.726362 0-1.448199.0197-2.165007.058592l-.000212-13.083644h-78.709113c-5.972352 0-11.68711-2.852609-15.264797-7.6323983l-15.741823-20.9890966h-42.9322425v124.0264799l99.7757855-.000779c-4.799699 5.514224-8.112947 11.945719-9.655465 19.081035l-90.1203205.000741c-10.5231698 0-19.0809969-8.557827-19.0809969-19.080997v-124.0264799c0-10.5136293 8.5578271-19.0809969 19.0809969-19.0809969zm111.880952 73.6972088c14.627952 0 26.523939 11.895987 26.523939 26.523939s-11.895987 26.523939-26.523939 26.523939-26.523939-11.895987-26.523939-26.523939 11.895987-26.523939 26.523939-26.523939z" fill-rule="evenodd"/></svg>