<svg height="1200" viewBox="0 0 1200 1200" width="1200" xmlns="http://www.w3.org/2000/svg"><path d="m300 664h60v131h480.03l-.03-300h-247.5c-18.78 0-36.75-8.97-48-24l-49.5-66h-135v131h-60v-131c0-33.06 26.91-60 60-60h135c18.78 0 36.75 8.97 48 24l49.5 66h247.5c33.09 0 60 26.94 60 60v300c0 33.09-26.91 60-60 60h-480c-33.09 0-60-26.91-60-60zm-240-63.529781 146.064213-150.470219 44.148026 45.141066-71.388297 72.413793h361.176058v64.421723h-359.767079l69.509658 72.882352-43.208706 45.141066z" fill-rule="evenodd"/></svg>