<svg height="642" viewBox="0 0 642 642" width="642" xmlns="http://www.w3.org/2000/svg"><path d="m500.964539 440.729979c71.625576 0 121.631206 37.508023 121.631206 91.223405v15.2039h-243.262412v-15.2039c0-53.715382 50.020834-91.223405 121.631206-91.223405zm-256.527039-305.667479c13.69375 0 26.796875 6.540625 35 17.5l36.09375 48.125h180.46875c24.128125 0 43.75 19.64375 43.75 43.75l.001573 38.595142c-11.762299-5.596851-24.914832-8.730559-38.787034-8.730559-1.664557 0-3.318752.04512-4.961426.134201l-.003113-29.998784h-180.46875c-13.69375 0-26.796875-6.540625-35-17.5l-36.09375-48.125h-98.4375v284.375l228.77144-.001577c-11.005263 12.643671-18.602134 27.390618-22.138747 43.751391l-206.632693.000186c-24.128125 0-43.75-19.621875-43.75-43.75v-284.375c0-24.10625 19.621875-43.75 43.75-43.75zm256.527039 168.977172c33.539805 0 60.815603 27.275798 60.815603 60.815603s-27.275798 60.815603-60.815603 60.815603-60.815603-27.275798-60.815603-60.815603 27.275798-60.815603 60.815603-60.815603z" fill-rule="evenodd"/></svg>