<svg height="280" viewBox="0 0 280 280" width="280" xmlns="http://www.w3.org/2000/svg"><path d="m106.608255 58.9057632c5.972352 0 11.687111 2.8526091 15.264798 7.6323988l15.741822 20.9890966h78.709113c10.523169 0 19.080996 8.5673676 19.080996 19.0809964v95.404985c0 10.52317-8.557827 19.080997-19.080996 19.080997h-152.6479755c-10.5231698 0-19.0809969-8.557827-19.0809969-19.080997v-124.0264799c0-10.5136293 8.5578271-19.0809969 19.0809969-19.0809969zm0 19.0809969h-42.9322425v124.0264799h152.6575155l-.00954-95.404985h-78.709113c-5.972352 0-11.68711-2.852609-15.264797-7.6323983zm42.937014 37.5895639v28.621495h28.621495v19.080997h-28.621495v28.621496h-19.080997v-28.621496h-28.621496v-19.080997h28.621496v-28.621495z" fill-rule="evenodd"/></svg>