<?xml version="1.0" encoding="UTF-8"?>
<svg width="40px" height="40px" viewBox="0 0 40 40" version="1.1" xmlns="http://www.w3.org/2000/svg" xmlns:xlink="http://www.w3.org/1999/xlink">
    <!-- Generator: Sketch 50.2 (55047) - http://www.bohemiancoding.com/sketch -->
    <title>Icons/Folder public</title>
    <desc>Created with Sketch.</desc>
    <defs>
        <path d="M21.875,15 L17.75,15 C17.124,15 16.525,14.701 16.15,14.2 L14.5,12 L10,12 L10,25 L16,25 L16,27 L10,27 C8.897,27 8,26.103 8,25 L8,12 C8,10.898 8.897,10 10,10 L14.5,10 C15.126,10 15.725,10.299 16.1,10.8 L17.75,13 L26,13 C27.103,13 28,13.898 28,15 L21.875,15 Z M20.539,27.145 L21.889,27.145 L21.889,28.499 C21.364,28.131 20.906,27.672 20.539,27.145 L20.539,27.145 Z M21.889,19.547 L21.889,20.902 L20.539,20.902 C20.906,20.374 21.364,19.916 21.889,19.547 L21.889,19.547 Z M26.556,18.791 L26.556,20.902 L23.444,20.902 L23.444,18.791 C23.938,18.643 24.459,18.561 25,18.561 C25.541,18.561 26.062,18.643 26.556,18.791 L26.556,18.791 Z M29.462,20.902 L28.111,20.902 L28.111,19.547 C28.637,19.916 29.094,20.374 29.462,20.902 L29.462,20.902 Z M30.215,25.583 L28.111,25.583 L28.111,22.462 L30.215,22.462 C30.363,22.958 30.444,23.48 30.444,24.023 C30.444,24.565 30.363,25.089 30.215,25.583 L30.215,25.583 Z M28.111,28.499 L28.111,27.145 L29.462,27.145 C29.094,27.672 28.637,28.131 28.111,28.499 L28.111,28.499 Z M23.444,27.145 L26.556,27.145 L26.556,29.255 C26.062,29.403 25.541,29.485 25,29.485 C24.459,29.485 23.938,29.403 23.444,29.255 L23.444,27.145 Z M21.889,22.462 L21.889,25.583 L19.785,25.583 C19.638,25.089 19.556,24.565 19.556,24.023 C19.556,23.48 19.638,22.958 19.785,22.462 L21.889,22.462 Z M23.444,25.583 L26.555,25.583 L26.555,22.462 L23.444,22.462 L23.444,25.583 Z M25.778,31 C29.273,30.61 32,27.631 32,24.023 C32,20.151 28.86,17 25,17 C21.141,17 18,20.151 18,24.023 C18,27.631 20.728,30.61 24.222,31 L25.778,31 Z" id="path-1"></path>
    </defs>
    <g id="Icons/Folder-public" stroke="none" stroke-width="1" fill="none" fill-rule="evenodd">
        <mask id="mask-2" fill="white">
            <use xlink:href="#path-1"></use>
        </mask>
        <use id="Mask" fill="#414453" opacity="0" xlink:href="#path-1"></use>
        <g id="Atoms/Colors/Idle" mask="url(#mask-2)" fill="#59636B" opacity="0.25">
            <rect id="State" x="-2" y="-2" width="40" height="40"></rect>
        </g>
    </g>
</svg>