<svg height="1200" viewBox="0 0 1200 1200" width="1200" xmlns="http://www.w3.org/2000/svg"><path d="m656.25 450h-176.25v300h-180v-390h135l49.5 66c11.25 15.03 29.22 24 48 24zm183.75 0h-360v360h-180c-33.09 0-60-26.91-60-60v-390c0-33.06 26.91-60 60-60h135c18.78 0 36.75 8.97 48 24l49.5 66h247.5c33.09 0 60 26.94 60 60zm-90 270c-57.9075 0-105-47.0925-105-105s47.0925-105 105-105 105 47.0925 105 105-47.0925 105-105 105zm0-157.5c28.95375 0 52.5 23.52 52.5 52.5 0 28.95375-23.54625 52.5-52.5 52.5s-52.5-23.54625-52.5-52.5c0-28.98 23.54625-52.5 52.5-52.5zm209.992125 367.5h-420v-26.25c0-92.74125 86.3625-157.5 210-157.5 123.66375 0 210 64.75875 210 157.5zm-363.32625-52.5h306.67875c-15.6975-47.46-74.3925-78.75-153.3525-78.75s-137.62875 31.29-153.32625 78.75z" fill-rule="evenodd"/></svg>