<svg height="1200" viewBox="0 0 1200 1200" width="1200" xmlns="http://www.w3.org/2000/svg"><path d="m656.25 450h-123.75c-18.78 0-36.75-8.97-48-24l-49.5-66h-135v390h180v60h-180c-33.09 0-60-26.91-60-60v-390c0-33.06 26.91-60 60-60h135c18.78 0 36.75 8.97 48 24l49.5 66h247.5c33.09 0 60 26.94 60 60zm117.09 480h-46.68c-104.82-11.7-186.66-101.07-186.66-209.31 0-116.16 94.23-210.69 210-210.69 115.8 0 210 94.53 210 210.69 0 108.24-81.81 197.61-186.66 209.31zm-157.17-115.65c11.01 15.81 24.75 29.58 40.5 40.62v-40.62zm40.5-227.94c-15.75 11.07-29.49 24.81-40.5 40.65h40.5zm140.01-22.68c-14.82-4.44-30.45-6.9-46.68-6.9s-31.86 2.46-46.68 6.9v63.33h93.36zm87.18 63.33c-11.04-15.84-24.75-29.58-40.53-40.65v40.65zm22.59 140.43c4.44-14.82 6.87-30.54 6.87-46.8 0-16.29-2.43-31.95-6.87-46.83h-63.12v93.63zm-63.12 87.48c15.78-11.04 29.49-24.81 40.53-40.62h-40.53zm-140.01-40.62v63.3c14.82 4.44 30.45 6.9 46.68 6.9s31.86-2.46 46.68-6.9v-63.3zm-46.65-140.49h-63.12c-4.41 14.88-6.87 30.54-6.87 46.83 0 16.26 2.46 31.98 6.87 46.8h63.12zm46.65 93.63h93.33v-93.63h-93.33z" fill-rule="evenodd"/></svg>