<svg height="642" viewBox="0 0 642 642" width="642" xmlns="http://www.w3.org/2000/svg"><path d="m496.022118 287.246433c79.310958 0 143.835616 64.524657 143.835616 143.835616 0 79.325343-64.524658 143.835617-143.835616 143.835617-79.310959 0-143.835617-64.510274-143.835617-143.835617 0-79.310959 64.524658-143.835616 143.835617-143.835616zm-251.584618-152.183933c13.69375 0 26.796875 6.540625 35 17.5l36.09375 48.125h180.46875c24.128125 0 43.75 19.64375 43.75 43.75l.003588 17.312998c-13.200516-3.919689-27.666071-6.010915-43.389005-6.010915l-.363583.002917-.001-11.305h-180.46875c-13.69375 0-26.796875-6.540625-35-17.5l-36.09375-48.125h-98.4375v284.375l178.427281.003012c3.224386 16.106816 8.913516 30.705818 16.679613 43.75008l-195.106894-.003092c-24.128125 0-43.75-19.621875-43.75-43.75v-284.375c0-24.10625 19.621875-43.75 43.75-43.75zm315.960373 227.5-96.43332 106.078767-32.500504-32.500504-18.69863 18.698631 52.108683 52.098106 115.089645-126.596495z" fill-rule="evenodd"/></svg>