<svg height="40" viewBox="0 0 40 40" width="40" xmlns="http://www.w3.org/2000/svg"><path d="m21.875 15h-4.125c-.626 0-1.225-.299-1.6-.8l-1.65-2.2h-4.5v13h6v2h-6c-1.103 0-2-.897-2-2v-13c0-1.102.897-2 2-2h4.5c.626 0 1.225.299 1.6.8l1.65 2.2h8.25c1.103 0 2 .898 2 2zm-1.336 12.145h1.35v1.354c-.525-.368-.983-.827-1.35-1.354zm1.35-7.598v1.355h-1.35c.367-.528.825-.986 1.35-1.355zm4.667-.756v2.111h-3.112v-2.111c.494-.148 1.015-.23 1.556-.23s1.062.082 1.556.23zm2.906 2.111h-1.351v-1.355c.526.369.983.827 1.351 1.355zm.753 4.681h-2.104v-3.121h2.104c.148.496.229 1.018.229 1.561 0 .542-.081 1.066-.229 1.56zm-2.104 2.916v-1.354h1.351c-.368.527-.825.986-1.351 1.354zm-4.667-1.354h3.112v2.11c-.494.148-1.015.23-1.556.23s-1.062-.082-1.556-.23zm-1.555-4.683v3.121h-2.104c-.147-.494-.229-1.018-.229-1.56 0-.543.082-1.065.229-1.561zm1.555 3.121h3.111v-3.121h-3.111zm2.334 5.417c3.495-.39 6.222-3.369 6.222-6.977 0-3.872-3.14-7.023-7-7.023-3.859 0-7 3.151-7 7.023 0 3.608 2.728 6.587 6.222 6.977z" fill-rule="evenodd"/></svg>