<svg height="642" viewBox="0 0 642 642" width="642" xmlns="http://www.w3.org/2000/svg"><path d="m487.303774 291.792453c80.618841 0 146.207547 65.588705 146.207547 146.207547 0 80.633462-65.588706 146.207547-146.207547 146.207547-80.618842 0-146.207548-65.574085-146.207548-146.207547 0-80.618842 65.588706-146.207547 146.207548-146.207547zm-.061632 29.241509c-31.582446 0-60.282723 12.584069-81.349715 33.001088.089775.141091.179968.282135.270471.423154l.545862.845988c2.465269 3.807154 4.997663 7.627652 5.45649 11.888157 1.477368 13.718338-2.730142 12.582053-6.553172 24.79174-2.345856 7.492008 4.733814 27.494376 9.744752 34.26291.362705.489925 4.068547 5.291587 8.048734 10.336908l.570133.721978c.190445.24092.381182.481952.571877.722658l.571634.720702c3.9008 4.912108 7.645265 9.502599 8.378624 9.98711.975242.644318 2.100825 1.013736 3.24341 1.354392l.980412.290688c.978357.295126 1.941215.620787 2.804609 1.131984 2.837968 1.680301 5.027475 4.249324 7.812802 6.010119 5.170686 3.268742 23.838569 9.135514 25.961533 12.042663.624953.8558.240404 2.1217 0 3.143352-.640646 2.722573-3.076524 4.565506-5.644447 6.511046l-.417315.316548c-4.249127 3.230532-8.612801 6.884269-5.638122 15.362752 1.609858 4.588447 6.414593 6.330868 11.418937 8.039056l1.074324.366542c6.570639 2.249296 13.116692 4.784304 12.91187 13.919302-.124742 5.563475-7.571144 11.864877-7.986678 20.998039-.05596 1.229961-.598293 10.738899 2.681546 11.945485 1.973801.726122 4.163299-.819592 6.116551-1.59597.510901-.203073.568333-.969355 1.039388-1.248371 18.608304-11.022102 8.289661-3.516717 27.997807-27.60618 6.545074-8.000109 14.891716-12.883942 22.742905-19.282464.00367-.002991.013345-.011371.028739-.024949l.063048-.056142c1.247541-1.117955 14.493762-13.301266 9.977532-16.861614-2.223319-1.752743-7.751316-4.031487-13.526909-6.154377l-.964367-.352255c-.321871-.116859-.643981-.23312-.965807-.348667l-.964102-.344378c-6.414673-2.279997-12.505992-4.227283-14.080428-4.906526-2.035937-.878345-3.88698-1.943317-5.703073-3.034176l-1.629097-.984423c-3.074653-1.856271-6.178306-3.647992-10.047644-4.585439-2.265768-.548941-3.024637.092824-3.917729.857298l-.150373.128365c-1.318879 1.119172-3.10803 2.370572-10.313328.535555-3.500105-.891394-12.192109-9.5089-14.149595-10.936324-1.879703-1.370702-5.091832-2.464443-8.403553-3.534978l-.796094-.256613c-5.046044-1.624038-10.094319-3.241364-10.815346-5.743118-4.427938-15.363652 19.649857-12.458867 26.769087-13.713387 1.612081-.284074 2.947463-1.454205 4.188466-2.489266 6.25423-5.216353-.422545-11.517014 8.910149-19.581475 3.370067-2.912104 9.54983-6.077852 16.005022-9.468887l1.021161-.537295c.340903-.179719.6822-.360059 1.023521-.541014l1.023665-.544709c.1705-.091092.340913-.182336.511194-.273733l1.019724-.550204c8.308726-4.508206 16.077406-9.379838 17.872412-14.554097.743726-2.143853.311897-4.582546-.239561-6.780072-2.936691-11.702523-15.051556-22.26381-27.615281-19.820684-1.109233.2157-1.733759 1.48488-2.248789 2.459365-1.906268 3.606832-2.575517 7.83367-4.953518 11.168057-8.92226 12.510618-21.934078-6.919525-25.428314-12.853731-3.372057-5.72671-2.147884-9.667791 4.428027-12.83878 3.095289-1.492588 7.523723-2.742545 12.017781-4.233985l.817542-.27394c8.85843-2.998842 17.673423-7.048399 16.758775-15.848198-6.146753-1.001717-12.452809-1.52258-18.878159-1.52258zm-242.804642-185.971462c13.69375 0 26.796875 6.540625 35 17.5l36.09375 48.125h180.46875c24.128125 0 43.75 19.64375 43.75 43.75l.003333 25.921054c-13.129211-4.394085-27.695582-6.897373-43.747875-7.231407l-.005458-18.689647h-180.46875c-13.69375 0-26.796875-6.540625-35-17.5l-36.09375-48.125h-98.4375v284.375l168.397656.003515c2.069261 16.584698 6.711556 31.095428 13.539824 43.750469l-181.93748-.003984c-24.128125 0-43.75-19.621875-43.75-43.75v-284.375c0-24.10625 19.621875-43.75 43.75-43.75zm351.93159 261.163915c-7.25727 2.448671-17.213535 7.053578-13.339354 12.996131.60325.925318 1.917823 1.644698 3.261898 2.315452l.403426.199925c2.149052 1.060162 4.199085 2.036114 3.357364 3.5722l.894671 2.118143c-2.012151 3.672045-5.496944 5.039661-9.137863 6.545161l-.729876.303662c-1.827942.767369-3.672975 1.609915-5.370532 2.832925-6.331411 4.561485-6.457055 9.543317-6.166497 16.394762.402689 9.495533 7.638404 19.338273 14.059806 26.372549 3.693272 4.045767 7.901671 7.731338 12.228657 11.280642 5.321865-13.358812 8.249346-27.921209 8.249346-43.154096 0-14.711233-2.730409-28.797113-7.711046-41.777456zm-60.329467-64.749057c.058334 1.807043.155046 3.611552.340933 5.410173.605734 5.861025 1.686404 17.439171 7.735524 21.794156 6.51567 4.69087 16.876794-1.742354 21.117652-8.083954-8.672694-7.742317-18.50254-14.214253-29.194109-19.120375z" fill-rule="evenodd"/></svg>