<svg height="642" viewBox="0 0 642 642" width="642" xmlns="http://www.w3.org/2000/svg"><path d="m244.4375 135.0625c13.69375 0 26.796875 6.540625 35 17.5l36.09375 48.125h180.46875c24.128125 0 43.75 19.64375 43.75 43.75v218.75c0 24.128125-19.621875 43.75-43.75 43.75h-350c-24.128125 0-43.75-19.621875-43.75-43.75v-284.375c0-24.10625 19.621875-43.75 43.75-43.75zm0 43.75h-98.4375v284.375h350.021875l-.021875-218.75h-180.46875c-13.69375 0-26.796875-6.540625-35-17.5zm98.448437 86.1875v65.625h65.625v43.75h-65.625v65.625h-43.75v-65.625h-65.625v-43.75h65.625v-65.625z" fill-rule="evenodd"/></svg>