<svg height="1200" viewBox="0 0 1200 1200" width="1200" xmlns="http://www.w3.org/2000/svg"><path d="m840 541c115.794 0 210 94.206 210 210 0 115.815-94.206 210-210 210s-210-94.185-210-210c0-115.794 94.206-210 210-210zm-345-196c18.78 0 36.75 8.97 48 24l49.5 66h247.5c33.09 0 60 26.94 60 60l.003251 7.018261c-19.098238-4.58803-39.023092-7.018261-59.503251-7.018261l-.5.004v-.004h-247.5c-18.78 0-36.75-8.97-48-24l-49.5-66h-135v390l228.711284.002194c3.606018 20.976572 9.764062 41.087132 18.140448 59.998338l-246.851732-.000532c-33.09 0-60-26.91-60-60v-390c0-33.06 26.91-60 60-60zm433.317083 312-132.25141 145.479452-44.572119-44.572119-25.643836 25.643835 71.463336 71.448832 157.837228-173.61805z" fill-rule="evenodd"/></svg>