<svg height="642" viewBox="0 0 642 642" width="642" xmlns="http://www.w3.org/2000/svg"><path d="m189.75 367.666667h43.75v95.520833h350.021875l-.021875-218.75h-180.46875c-13.69375 0-26.796875-6.540625-35-17.5l-36.09375-48.125h-98.4375v95.520833h-43.75v-95.520833c0-24.10625 19.621875-43.75 43.75-43.75h98.4375c13.69375 0 26.796875 6.540625 35 17.5l36.09375 48.125h180.46875c24.128125 0 43.75 19.64375 43.75 43.75v218.75c0 24.128125-19.621875 43.75-43.75 43.75h-350c-24.128125 0-43.75-19.621875-43.75-43.75zm-175-46.323799 106.505155-109.717868 32.191269 32.915361-52.053966 52.801724h263.357542v46.974173h-262.330161l50.684125 53.143381-31.506348 32.915361z" fill-rule="evenodd"/></svg>