<svg height="280" viewBox="0 0 280 280" width="280" xmlns="http://www.w3.org/2000/svg"><path d="m144.770249 58.9057632c5.972352 0 11.687111 2.8526091 15.264798 7.6323988l15.741822 20.9890966h78.709112c10.52317 0 19.080997 8.5673676 19.080997 19.0809964v95.404985c0 10.52317-8.557827 19.080997-19.080997 19.080997h-152.647975c-10.5231696 0-19.0809967-8.557827-19.0809967-19.080997v-41.660177h19.0809967v41.660177h152.657516l-.009541-95.404985h-78.709112c-5.972352 0-11.68711-2.852609-15.264797-7.6323983l-15.741823-20.9890966h-42.932243v41.6601769h-19.0809967v-41.6601769c0-10.5136293 8.5578271-19.0809969 19.0809967-19.0809969zm-91.8863806 33.3917446 14.0398057 14.3556092-22.7026646 23.028789h114.8599875v20.487178h-114.4119086l22.1052261 23.177799-13.7410865 14.355609-46.60020619-47.552954z" fill-rule="evenodd"/></svg>