<svg height="1200" viewBox="0 0 1200 1200" width="1200" xmlns="http://www.w3.org/2000/svg"><path d="m840 450h-183.75-123.75c-18.78 0-36.75-8.97-48-24l-49.5-66h-135v390h180v60h-180c-33.09 0-60-26.91-60-60v-390c0-33.06 26.91-60 60-60h135c18.78 0 36.75 8.97 48 24l49.5 66h247.5c33.09 0 60 26.94 60 60zm-90 270c-57.9075 0-105-47.0925-105-105s47.0925-105 105-105 105 47.0925 105 105-47.0925 105-105 105zm209.992125 210h-420v-26.25c0-92.74125 86.3625-157.5 210-157.5 123.66375 0 210 64.75875 210 157.5z" fill-rule="evenodd"/></svg>