<svg height="1200" viewBox="0 0 1200 1200" width="1200" xmlns="http://www.w3.org/2000/svg"><path d="m480.009 540c-33.09 0-60 26.88-60 60 0 33.09 26.91 60 60 60s60-26.91 60-60c0-33.12-26.91-60-60-60m0 180c-66.18 0-120-53.82-120-120s53.82-120 120-120 120 53.82 120 120-53.82 120-120 120zm-175.239 180c17.94-54.24 84.99-90 175.23-90s157.32 35.76 175.26 90zm415.23 60h-480v-30c0-105.99 98.7-180 240-180 141.33 0 240 74.01 240 180zm60.009-720 51.42 128.58h128.58l-111.24 93.9 59.79 137.52-128.55-85.02-128.58 85.02 59.82-137.52-111.24-93.9h128.55z" fill-rule="evenodd"/></svg>