<svg height="642" viewBox="0 0 642 642" width="642" xmlns="http://www.w3.org/2000/svg"><path d="m567.666348 321.428437c9.662405 0 16.161365 1.985426 20.449885 6.287182 10.416866 10.40363 5.32094 35.936204 2.647234 46.419252-3.262849 12.802422-11.520214 36.994937-30.153332 55.945803l-.567821.572648-52.282876 52.282875.013236 88.113191c0 3.395078-1.2923 6.642465-3.615801 9.101285l-.262397.269925-9.371209 9.357973c-2.581054 2.581053-5.969514 3.864962-9.357973 3.864962-3.267444 0-6.534887-1.193839-9.078379-3.605252l-.279594-.272947-37.967101-37.963211c-.626204.682598-1.264501 1.375365-1.909437 2.072768l-.752304.812382c-.125777.135638-.251724.271369-.3778.407154l-.757707.815025-.75893.814375-.75825.811792-.632269.675568c-5.573788 5.950256-10.805833 11.398833-12.243306 12.842172-17.99153 17.978427-71.671154 21.920315-83.184342 22.562449l-.335897.018459-14.718623.79417.794171-14.731858c.582391-10.761007 4.394409-65.346977 22.567672-83.52024 1.437472-1.443339 6.885383-6.67605 12.835563-12.249913l.675562-.632276.81179-.758253c1.647743-1.53735 3.311395-3.078868 4.918634-4.55347l-37.961466-37.957896c-5.094478-5.081449-5.17408-13.279561-.238804-18.471031l.238804-.244915 9.357973-9.371209c2.399528-2.399529 5.61136-3.777526 8.994618-3.872894l.376591-.005305h88.099955l52.282876-52.269639c25.201669-25.214906 63.149772-34.361101 82.501054-34.361101zm-171.985098-219.178437 100.31875 100.31875.000644 107.556265c-14.255791 5.470049-28.960557 13.783493-40.83535 25.664523l-2.907294 2.905462-.008-105.195h-87.5v-87.5h-175v350l113.683362-.000273c-5.039656 13.793402-7.883853 30.606861-9.460493 43.751999l-104.222869-.001726c-24.128125 0-43.75-19.621875-43.75-43.75v-350c0-24.10625 19.621875-43.75 43.75-43.75zm162.84339 255.151165h-.284061c-9.107994 0-27.389821 3.503372-41.533098 13.197638l-.528407.366442-115.735595 115.735595 28.700325 28.700325 115.72545-115.74574.34942-.504279c9.940581-14.505597 13.347965-33.220174 13.308728-41.466585z" fill-rule="evenodd"/></svg>