<svg height="280" viewBox="0 0 280 280" width="280" xmlns="http://www.w3.org/2000/svg"><path d="m247.580339 140.186857c4.214133 0 7.04857.865918 8.918952 2.742073 4.543182 4.537409 2.32066 15.673111 1.154557 20.245157-1.41306 5.544417-4.973941 15.986982-12.980523 24.225655l-.41811.424137-22.802501 22.8025.005773 38.429429c0 1.445234-.536929 2.829104-1.504905 3.89172l-.186521.195412-4.087132 4.081359c-1.125693 1.125693-2.603526 1.685653-4.081359 1.685653-1.385468 0-2.770936-.492153-3.86625-1.485971l-.215109-.205455-16.558477-16.557581c-.491357.53561-.99979 1.08558-1.511448 1.635856l-.580556.623066c-2.611994 2.797567-5.171766 5.464992-5.841713 6.137673-7.839881 7.834171-31.217332 9.557237-36.266501 9.839579l-.159772.008792-6.419337.346367.346367-6.42511c.254003-4.693274 1.916565-28.500239 9.842599-36.426272.668455-.671184 3.32536-3.221209 6.116103-5.827154l.50847-.474019c.593972-.552793 1.188908-1.103132 1.767108-1.633617l-16.556131-16.555096c-2.196155-2.190538-2.25551-5.709061-.178067-7.976699l.178067-.186019 4.081359-4.087131c1.021443-1.021444 2.380385-1.618458 3.816933-1.68516l.270199-.006266h38.423656l22.8025-22.796728c10.991383-10.997155 27.541957-14.98615 35.981769-14.98615zm-75.009077-95.5918414 43.752726 43.7527258-.000181 46.9094516c-6.217335 2.385693-12.630439 6.011443-17.809349 11.193073l-1.268446 1.26775-.003021-45.88001h-38.161994v-38.1619935h-76.3239877v152.6479755l49.5819547-.001285c-2.19815 6.015769-3.438714 13.348941-4.126408 19.082283l-45.4555467-.000002c-10.5231697 0-19.0809968-8.557827-19.0809968-19.080996v-152.6479755c0-10.5136293 8.5578271-19.0809969 19.0809968-19.0809969zm71.022039 111.2808824h-.12389c-3.936413 0-11.801844 1.500442-17.94635 5.641944l-.398231.273854-50.476584 50.476583 12.517276 12.517276 50.472159-50.481008.261508-.380431c4.21514-6.249691 5.687224-14.22146 5.695428-17.832627z" fill-rule="evenodd"/></svg>