<svg height="280" viewBox="0 0 280 280" width="280" xmlns="http://www.w3.org/2000/svg"><path d="m247.314468 151.962558c6.47333 0 11.756279 5.189138 11.917299 11.618797l.003781.302283v17.88162c0 3.215441-2.550323 5.838842-5.737191 5.956426l-.223349.004114v59.6054c0 6.47333-5.183359 11.756279-11.618529 11.917299l-.302551.003781h-83.447559c-6.47333 0-11.756279-5.183359-11.917299-11.618529l-.003781-.302551v-59.6054c-3.215441 0-5.838842-2.550323-5.956426-5.737191l-.004114-.223349v-17.88162c0-6.467461 5.183359-11.756097 11.618529-11.917294l.302551-.003786zm-74.743206-107.3675424 43.752726 43.7527258-.000976 47.4772746h-19.078l-.002021-33.98701h-38.161994v-38.1619935h-76.3239877v152.6479755l47.0910027-.000972v19.081l-47.0910027.000968c-10.4100174 0-18.8967303-8.374777-19.0780367-18.742229l-.0029601-.338767v-152.6479755c0-10.5136293 8.5578271-19.0809969 19.0809968-19.0809969zm44.940507 153.4526934h-35.76324v17.88162h35.76324zm17.009345-28.639668h-69.781931v9.595016h69.781931z" fill-rule="evenodd"/></svg>