<svg height="642" viewBox="0 0 642 642" width="642" xmlns="http://www.w3.org/2000/svg"><path d="m491.103302 318.775591c8.553125-8.553125 22.378125-8.553125 30.93125 0l65.625 65.625c8.553125 8.553125 8.553125 22.378125 0 30.93125l-153.125 153.125c-2.8 2.821875-6.321875 4.8125-10.15 5.775l-87.5 21.875c-7.21875 1.79375-15.18125-.175-20.78125-5.775-5.446875-5.425-7.6125-13.321875-5.753125-20.78125l21.875-87.5c.9625-3.828125 2.953125-7.35 5.753125-10.15zm-80.159375 142.021875-37.746875 37.746875-11.55 46.265625 46.24375-11.571875 37.746875-37.746875zm-15.262677-358.547466 100.31875 100.31875v65.84325l-43.744 43.744-.006-78.656h-87.5v-87.5h-175v350h101.264l-10.937 43.75h-90.327c-23.886844 0-43.357112-19.2314-43.744129-43.027523l-.005871-.722477v-350c0-24.10625 19.621875-43.75 43.75-43.75z" fill-rule="evenodd"/></svg>