<svg height="1200" viewBox="0 0 1200 1200" width="1200" xmlns="http://www.w3.org/2000/svg"><path d="m300 300v540h180v60h-180c-33.09 0-60-26.91-60-60v-540c0-33.06 26.91-60 60-60h342.42l137.58 137.58v102.42h-60v-60h-120v-120zm60 390v-60h90v60zm0-120v-60h150v60zm390-30c115.77 0 210 94.2 210 210s-94.23 210-210 210-210-94.2-210-210 94.23-210 210-210zm0 360c82.71 0 150-67.29 150-150s-67.29-150-150-150-150 67.29-150 150 67.29 150 150 150zm-30-30v-120h60v120zm30-210c16.59 0 30 13.44 30 30 0 16.59-13.41 30-30 30s-30-13.41-30-30c0-16.56 13.41-30 30-30z" fill-rule="evenodd"/></svg>