<svg height="642" viewBox="0 0 642 642" width="642" xmlns="http://www.w3.org/2000/svg"><path d="m473.271875 320.63549c45.271941 0 81.972101 36.700159 81.972101 81.9721v38.83042h12.943473c14.29475.005347 25.8816 11.592196 25.886946 25.886946v103.538098c-.005346 14.29475-11.592196 25.881599-25.886946 25.886946h-189.831148c-14.29475-.005347-25.8816-11.592196-25.886946-25.886946v-103.538098c.005346-14.29475 11.592196-25.881599 25.886946-25.886946h12.943473v-38.83042c0-45.271941 36.70016-81.9721 81.972101-81.9721zm.377841 171.210372c-14.254161 0-25.809441 11.555281-25.809441 25.809441s11.55528 25.809441 25.809441 25.809441c14.25416 0 25.80944-11.555281 25.80944-25.809441s-11.55528-25.809441-25.80944-25.809441zm-77.968466-389.595862 100.31875 100.31875.001475 90.490339c-7.317475-1.549331-14.923584-2.366344-22.7296-2.366344-7.199108 0-14.228186.694908-21.017635 2.018289l-.00424-59.211034h-87.5v-87.5h-175v350h129.521v43.75h-129.521c-23.886844 0-43.357112-19.2314-43.744129-43.027523l-.005871-.722477v-350c0-24.10625 19.621875-43.75 43.75-43.75zm77.590625 261.527172c-21.445448 0-38.83042 17.38497-38.83042 38.830418v38.869173h77.66084v-38.869173c0-21.445448-17.384972-38.830418-38.83042-38.830418z" fill-rule="evenodd"/></svg>