<svg height="642" viewBox="0 0 642 642" width="642" xmlns="http://www.w3.org/2000/svg"><path d="m430.375 277.25c84.415625 0 153.125 68.6875 153.125 153.125s-68.709375 153.125-153.125 153.125-153.125-68.6875-153.125-153.125 68.709375-153.125 153.125-153.125zm-78.44375-218.75 100.31875 100.31875v74.68125h-43.75v-43.75h-87.5v-87.5h-218.75v393.75h131.25v43.75h-131.25c-24.128125 0-43.75-19.621875-43.75-43.75v-393.75c0-24.10625 19.621875-43.75 43.75-43.75zm78.44375 262.5c-60.309375 0-109.375 49.065625-109.375 109.375s49.065625 109.375 109.375 109.375 109.375-49.065625 109.375-109.375-49.065625-109.375-109.375-109.375zm21.875 109.375v87.5h-43.75v-87.5zm-21.875-65.625c12.096875 0 21.875 9.8 21.875 21.875 0 12.096875-9.778125 21.875-21.875 21.875s-21.875-9.778125-21.875-21.875c0-12.075 9.778125-21.875 21.875-21.875zm-218.75-21.875v43.75h-65.625v-43.75zm43.75-87.5v43.75h-109.375v-43.75z" fill-rule="evenodd"/></svg>