<svg height="1200" viewBox="0 0 1200 1200" width="1200" xmlns="http://www.w3.org/2000/svg"><path d="m300 300h300v120h120v60h60v-102.42l-137.58-137.58h-342.42c-33.09 0-60 26.94-60 60v540c0 33.09 26.91 60 60 60h180v-60h-180zm60 390h90v-60h-90zm0-120h150v-60h-150zm390 330c-82.71 0-150-67.29-150-150s67.29-150 150-150 150 67.29 150 150-67.29 150-150 150m0-360c-115.77 0-210 94.2-210 210s94.23 210 210 210 210-94.2 210-210-94.23-210-210-210m-30 330h60v-120h-60zm30-210c-16.59 0-30 13.44-30 30 0 16.59 13.41 30 30 30s30-13.41 30-30c0-16.56-13.41-30-30-30" fill-rule="evenodd"/></svg>