<svg height="642" viewBox="0 0 642 642" width="642" xmlns="http://www.w3.org/2000/svg"><path d="m146 189.75v350h262.5v43.75h-262.5c-24.128125 0-43.75-19.621875-43.75-43.75v-350zm65.625-65.625v350h262.5v43.75h-262.5c-24.128125 0-43.75-19.621875-43.75-43.75v-350zm227.817188-65.625 100.31875 100.31875v249.68125c0 24.128125-19.621875 43.75-43.75 43.75h-218.75c-24.128125 0-43.75-19.621875-43.75-43.75v-306.25c0-24.10625 19.621875-43.75 43.75-43.75zm-30.93125 43.75h-131.25v306.25h218.771875l-.021875-218.75h-87.5z" fill-rule="evenodd"/></svg>