<svg height="642" viewBox="0 0 642 642" width="642" xmlns="http://www.w3.org/2000/svg"><path d="m567.056746 348.428437c14.92359 0 27.087871 12.028441 27.329665 26.88236l.003668.450974v41c0 7.439222-5.953774 13.496318-13.353169 13.663136l-.313498.00353v136.666667c0 14.92359-12.015046 27.087872-26.881957 27.329665l-.451376.003668h-191.333333c-14.92359 0-27.087872-12.015045-27.329666-26.881957l-.003668-.451376v-136.666667c-7.439222 0-13.496318-5.953773-13.663136-13.353168l-.00353-.313498v-41c0-14.91006 12.015045-27.087601 26.881957-27.329661l.451376-.003673zm-171.375496-246.178437 100.31875 100.31875v108.85925h-43.744l-.006-77.928h-87.5v-87.5h-175v350h107.973v43.75h-107.973c-23.886844 0-43.357112-19.2314-43.744129-43.027523l-.005871-.722477v-350c0-24.10625 19.621875-43.75 43.75-43.75zm103.042162 351.845104h-82v41h82zm39-65.666667h-160v22h160z" fill-rule="evenodd"/></svg>