<svg height="1200" viewBox="0 0 1200 1200" width="1200" xmlns="http://www.w3.org/2000/svg"><path d="m765 376h-60v-91h-480v360h120v60l80.01-60h69.99v60h-50.01l-159.99 120v-120h-60c-33.09 0-60-26.91-60-60v-360c0-33.09 26.91-60 60-60h480c33.09 0 60 26.91 60 60zm180 599-160-120h-170c-33.09 0-60-26.91-60-60v-300c0-33.09 26.91-60 60-60h360c33.09 0 60 26.91 60 60v300c0 33.09-26.91 60-60 60h-30.01zm-330-480v300h190l80 60 .01-60h89.99v-300zm60 60h240v60h-240zm0 120h180v60h-180z" fill-rule="evenodd"/></svg>