<svg height="642" viewBox="0 0 642 642" width="642" xmlns="http://www.w3.org/2000/svg"><path d="m397.5625 47.5625c24.128125 0 43.75 19.621875 43.75 43.75v66.354h-43.75v-66.354h-350v262.5h87.5v43.75l58.340625-43.75h51.034375v43.75h-36.465625l-116.659375 87.5v-87.5h-43.75c-24.128125 0-43.75-19.621875-43.75-43.75v-262.5c0-24.128125 19.621875-43.75 43.75-43.75zm196.875 153.125c24.128125 0 43.75 19.621875 43.75 43.75v218.75c0 24.128125-19.621875 43.75-43.75 43.75h-21.882292l.007292 87.5-116.666667-87.5h-123.958333c-24.128125 0-43.75-19.621875-43.75-43.75v-218.75c0-24.128125 19.621875-43.75 43.75-43.75zm0 43.75h-262.5v218.75h138.541667l58.333333 43.75.007292-43.75h65.617708zm-87.5 131.25v43.75h-131.25v-43.75zm43.75-87.5v43.75h-175v-43.75z" fill-rule="evenodd"/></svg>