<svg height="280" viewBox="0 0 280 280" width="280" xmlns="http://www.w3.org/2000/svg"><path d="m173.391745 20.7437695c10.523169 0 19.080996 8.5578271 19.080996 19.0809969l-.000968 28.9390031h-19.081l.000972-28.9390031h-152.6479755v114.4859816h38.1619937v19.080997l25.4445094-19.080997 22.2575004-.000979v19.081l-15.9035285.000976-50.8794781 38.161993v-38.161993h-19.0809969c-10.5231698 0-19.08099691-8.557828-19.08099691-19.080997v-114.4859816c0-10.5231698 8.55782711-19.0809969 19.08099691-19.0809969zm85.864486 66.7834891c10.523169 0 19.080996 8.5578271 19.080996 19.0809964v95.404985c0 10.52317-8.557827 19.080997-19.080996 19.080997h-9.543679l.00318 38.161994-50.882658-38.161994h-54.062825c-10.52317 0-19.080997-8.557827-19.080997-19.080997v-95.404985c0-10.5231693 8.557827-19.0809964 19.080997-19.0809964zm0 19.0809964h-114.485982v95.404985h60.423157l25.441329 19.080997.00318-19.080997h28.618316zm-38.161994 57.242991v19.080997h-57.242991v-19.080997zm19.080997-38.161994v19.080997h-76.323988v-19.080997z" fill-rule="evenodd"/></svg>