<svg height="642" viewBox="0 0 642 642" width="642" xmlns="http://www.w3.org/2000/svg"><path d="m346.513019 33.4609375h-51.026038l.707019 85.2650625-66.248078-44.5279499-16.644992 44.3866459 83.89607 54.191304 1.289 108.893-93.735-55.403-4.812717-99.468172-46.948717-8.285067 5.071434 80.062239-72.7100706-43.413919-26.4726827 43.905913 74.8827533 42.232006-72.1990696 35.55582 30.138286 35.745409 89.3877836-45.295229 94.43 53.499-94.451 53.511-89.3854989-44.893032-30.1195707 35.723212 72.1990696 35.55482-74.941925 42.266378 26.5693852 43.418264 72.6775398-43.043642-5.088309 80.333682 46.964636-8.978533 4.807673-98.963149 93.736-55.403-1.289 108.893-83.932211 54.215648 16.737152 43.935025 66.192059-44.490673-.706674 85.656062h51.025348l-.707674-85.656062 66.193059 44.490673 16.737152-43.935025-83.933211-54.215648-1.289-108.893 93.736 55.403 4.808673 98.963149 46.964636 8.978533-5.089309-80.333682 72.67854 43.043642 26.569385-43.418264-74.942925-42.266378 72.20007-35.55482-30.119571-35.723212-89.386499 44.893032-94.451-53.511 94.43-53.499 89.388784 45.295229 30.138286-35.745409-72.20007-35.55582 74.883753-42.232006-26.472682-43.905913-72.711071 43.413919 5.072434-80.062239-46.948717 8.285067-4.813717 99.468172-93.735 55.403 1.289-108.893 83.89707-54.191304-16.644992-44.3866459-66.249078 44.5279499z"/></svg>