<svg height="280" viewBox="0 0 280 280" width="280" xmlns="http://www.w3.org/2000/svg"><path d="m90 40c5.4291932 0 9.8479301 4.3267167 9.9961582 9.7200975l.0038418.2799025v180c0 5.42939-4.3267167 9.847937-9.7200975 9.996158l-.2799025.003842h-50c-10.9306406 0-19.8132252-8.76843-19.9970929-19.655501l-.0029071-.344499v-160c0-10.9306406 8.7687237-19.8132252 19.6555104-19.9970929l.3444896-.0029071zm80 110c5.523 0 10 4.477 10 10v70c0 5.523-4.477 10-10 10h-40c-5.523 0-10-4.477-10-10v-70c0-5.523 4.477-10 10-10zm80 0c5.523 0 10 4.477 10 10v60c0 11.046-8.954 20-20 20h-30c-5.523 0-10-4.477-10-10v-70c0-5.523 4.477-10 10-10zm-170-90h-40v160h40zm90-20c5.523 0 10 4.4772 10 10v70c0 5.523-4.477 10-10 10h-40c-5.523 0-10-4.477-10-10v-70c0-5.5228 4.477-10 10-10zm70 0c11.046 0 20 8.9543 20 20v60c0 5.523-4.477 10-10 10h-40c-5.523 0-10-4.477-10-10v-70c0-5.5228 4.477-10 10-10z" fill-rule="evenodd"/></svg>