<svg height="642" viewBox="0 0 642 642" width="642" xmlns="http://www.w3.org/2000/svg"><path d="m201 81c13.25472 0 24 10.74528 24 24v432c0 13.2552-10.74528 24-24 24h-120c-26.50968 0-48-21.4896-48-48v-384c0-26.50968 21.49032-48 48-48zm192 264c13.2552 0 24 10.7448 24 24v168c0 13.2552-10.7448 24-24 24h-96c-13.2552 0-24-10.7448-24-24v-168c0-13.2552 10.7448-24 24-24zm192 0c13.2552 0 24 10.7448 24 24v144c0 26.5104-21.4896 48-48 48h-72c-13.2552 0-24-10.7448-24-24v-168c0-13.2552 10.7448-24 24-24zm-408-216h-96v384h96zm216-48c13.2552 0 24 10.74528 24 24v168c0 13.2552-10.7448 24-24 24h-96c-13.2552 0-24-10.7448-24-24v-168c0-13.25472 10.7448-24 24-24zm168 0c26.5104 0 48 21.49032 48 48v144c0 13.2552-10.7448 24-24 24h-96c-13.2552 0-24-10.7448-24-24v-168c0-13.25472 10.7448-24 24-24z" fill-rule="evenodd"/></svg>