<svg height="280" viewBox="0 0 280 280" width="280" xmlns="http://www.w3.org/2000/svg"><path d="m240 30c11.046 0 20 8.9543 20 20v180c0 11.046-8.954 20-20 20h-200c-11.0457 0-20-8.954-20-20v-180c0-11.0457 8.9543-20 20-20zm-74.343 115.657c-3.124-3.124-8.19-3.124-11.314 0l-28.686 28.686c-3.124 3.124-8.19 3.124-11.314 0l-8.686-8.686c-3.124-3.124-8.1896-3.124-11.3138 0l-30.6863 30.686c-5.0398 5.04-1.4704 13.657 5.6568 13.657h141.3723c7.128 0 10.697-8.617 5.657-13.657zm-70.657-55.657c-13.8071 0-25 11.193-25 25s11.1929 25 25 25c13.807 0 25-11.193 25-25s-11.193-25-25-25z" fill-rule="evenodd"/></svg>