<svg height="642" viewBox="0 0 642 642" width="642" xmlns="http://www.w3.org/2000/svg"><path d="m103.323698 323.003385c0 105.995313 75.778646 194.253646 176.108333 213.667709.878646-1.560417 1.370834-3.295834 1.370834-5.253646 0-.525-.047396-5.264583-.134896-14.222396-.0875-8.957812-.13125-16.774479-.13125-23.439062l-6.059375 1.046354c-3.860938.707291-8.735417 1.009896-14.619792.922396-5.880729-.080209-11.983854-.696355-18.302083-1.844792-6.325521-1.133854-12.20625-3.769792-17.649479-7.896875-5.44323-4.127083-9.307813-9.526563-11.590105-16.194792l-2.632291-6.059375c-1.757292-4.039583-4.517188-8.520312-8.297917-13.434896-3.773437-4.914583-7.594271-8.254166-11.455208-10.007812l-1.844792-1.319792c-1.228646-.878646-2.366146-1.935937-3.423437-3.160937-1.053646-1.228646-1.841146-2.457292-2.369792-3.689584-.525-1.232291-.0875-2.238541 1.316146-3.033333 1.407291-.794792 3.948437-1.177604 7.638021-1.177604l5.268229.783854c3.510937.707292 7.856771 2.810938 13.041146 6.325521 5.177083 3.510937 9.435416 8.075521 12.771354 13.690104 4.039583 7.200521 8.910416 12.6875 14.616146 16.464583 5.709375 3.777084 11.458854 5.66198 17.255729 5.66198 5.793229 0 10.795312-.4375 15.013541-1.3125 4.210938-.882292 8.159375-2.198438 11.852605-3.952084 1.578645-11.772396 5.880729-20.814062 12.902604-27.135937-10.007813-1.05-19.005729-2.632292-26.997396-4.743229-7.988021-2.107292-16.242188-5.527084-24.755208-10.273959-8.520313-4.739583-15.589584-10.623958-21.207813-17.645833-5.618229-7.025521-10.226562-16.245833-13.828646-27.657292-3.594791-11.41875-5.395833-24.583854-5.395833-39.509896 0-21.251562 6.938021-39.338541 20.810417-54.260937-6.496875-15.979688-5.884375-33.888021 1.844791-53.732292 5.089584-1.582291 12.640104-.39375 22.651563 3.554688 10.007812 3.952083 17.335937 7.339062 21.991666 10.142708 4.65573 2.807292 8.389063 5.184375 11.196355 7.109375 16.336979-4.564583 33.191666-6.846875 50.571354-6.846875 17.386979 0 34.245312 2.282292 50.578646 6.846875l10.007812-6.318229c6.846875-4.214583 14.929688-8.079167 24.230208-11.590104 9.307813-3.510938 16.42448-4.477084 21.342709-2.898438 7.896875 19.847917 8.604166 37.75625 2.103646 53.735938 13.86875 14.922396 20.810416 33.013021 20.810416 54.257291 0 14.926042-1.808333 28.138542-5.399479 39.641146-3.598437 11.50625-8.250521 20.719271-13.952604 27.657292-5.713021 6.941667-12.826042 12.778646-21.342708 17.514583-8.516667 4.743229-16.770834 8.166667-24.7625 10.273959-7.988021 2.110937-16.985938 3.693229-26.99375 4.746875 9.12552 7.90052 13.69375 20.36927 13.69375 37.402604v55.569791c0 .266146.054687.506771.06927.765625 90.905209-26.136979 157.441667-109.85625 157.441667-209.16875 0-120.221354-97.456771-217.674479-217.674479-217.674479-120.221354 0-217.678125 97.453125-217.678125 217.674479z" fill-rule="evenodd"/></svg>