<svg height="40" viewBox="0 0 40 40" width="40" xmlns="http://www.w3.org/2000/svg"><path d="m19.951 10c-5.4958333 0-9.951 4.455-9.951 9.9508333 0 4.8455 3.4641667 8.8801667 8.0506667 9.7676667.0401666-.0713333.0626666-.1506667.0626666-.2401667 0-.024-.0021666-.2406666-.0061666-.6501666s-.006-.7668334-.006-1.0715l-.277.0478333c-.1765.0323333-.3993334.0461667-.6683334.0421667-.2688333-.0036667-.5478333-.0318334-.8366666-.0843334-.2891667-.0518333-.558-.1723333-.8068334-.361-.2488333-.1886666-.4255-.4355-.5298333-.7403333l-.1203333-.277c-.0803334-.1846667-.2065-.3895-.3793334-.6141667-.1725-.2246666-.3471666-.3773333-.5236666-.4575l-.0843334-.0603333c-.0561666-.0401667-.1081666-.0885-.1565-.1445-.0481666-.0561667-.0841666-.1123333-.1083333-.1686667-.024-.0563333-.004-.1023333.0601667-.1386666.0643333-.0363334.1805-.0538334.3491666-.0538334l.2408334.0358334c.1605.0323333.3591666.1285.5961666.2891666.2366667.1605.4313334.3691667.5838334.6258334.1846666.3291666.4073333.58.6681666.7526666.261.1726667.5238334.2588334.7888334.2588334.2648333 0 .4935-.02.6863333-.06.1925-.0403334.373-.1005.5418333-.1806667.0721667-.5381667.2688334-.9515.5898334-1.2405-.4575-.048-.8688334-.1203333-1.2341667-.2168333-.3651667-.0963334-.7425-.2526667-1.1316667-.4696667-.3895-.2166667-.7126666-.4856667-.9695-.8066667-.2568333-.3211666-.4675-.7426666-.6321666-1.2643333-.1643334-.522-.2466667-1.1238333-.2466667-1.8061667 0-.9715.3171667-1.7983333.9513333-2.4805-.297-.7305-.269-1.5491666.0843334-2.4563333.2326666-.0723333.5778333-.018 1.0355.1625.4575.1806667.7925.3355 1.0053333.4636667.2128333.1283333.3835.237.5118333.325.7468334-.2086667 1.5173334-.313 2.3118334-.313.7948333 0 1.5655.1043333 2.3121666.313l.4575-.2888334c.313-.1926666.6825-.3693333 1.1076667-.5298333.4255-.1605.7508333-.2046667.9756667-.1325.361.9073333.3933333 1.726.0961666 2.4565.634.6821667.9513334 1.5091667.9513334 2.4803333 0 .6823334-.0826667 1.2863334-.2468334 1.8121667-.1645.526-.3771666.9471667-.6378333 1.2643333-.2611667.3173334-.5863333.5841667-.9756667.8006667-.3893333.2168333-.7666666.3733333-1.132.4696667-.3651666.0965-.7765.1688333-1.234.217.4171667.3611666.626.9311666.626 1.7098333v2.5403333c0 .0121667.0025.0231667.0031667.035 4.1556667-1.1948333 7.1973333-5.022 7.1973333-9.562 0-5.4958333-4.4551666-9.9508333-9.9508333-9.9508333" fill-rule="evenodd"/></svg>