<svg height="642" viewBox="0 0 642 642" width="642" xmlns="http://www.w3.org/2000/svg"><path d="m321 46c151.635 0 275 123.365 275 275s-123.365 275-275 275-275-123.365-275-275 123.365-275 275-275zm27.5 56.8975v108.1025h82.5v178.75l-151.525 113.6575-60.8025-182.4075h-62.6725v-145.035c-34.1275 38.775-55 89.4575-55 145.035 0 121.3025 98.6975 220 220 220s220-98.6975 220-220c0-111.98-84.15-204.49-192.5-218.1025zm-55 0c-29.755 3.74-57.64 13.4475-82.5 27.885v135.2175h47.3275l49.1975 147.5925 68.475-51.3425v-96.25h-82.5z" fill-rule="evenodd"/></svg>