<svg height="642" viewBox="0 0 642 642" width="642" xmlns="http://www.w3.org/2000/svg"><path d="m321 102.25c120.61875 0 218.75 98.13125 218.75 218.75s-98.13125 218.75-218.75 218.75-218.75-98.13125-218.75-218.75 98.13125-218.75 218.75-218.75zm21.875 45.259375v85.990625h65.625v142.1875l-120.53125 90.409375-48.365625-145.096875h-49.853125v-115.36875c-27.146875 30.84375-43.75 71.159375-43.75 115.36875 0 96.490625 78.509375 175 175 175s175-78.509375 175-175c0-89.075-66.9375-162.6625-153.125-173.490625zm-43.75 0c-23.66875 2.975-45.85 10.696875-65.625 22.18125v107.559375h37.646875l39.134375 117.403125 54.46875-40.840625v-76.5625h-65.625z" fill-rule="evenodd"/></svg>