<svg height="1200" viewBox="0 0 1200 1200" width="1200" xmlns="http://www.w3.org/2000/svg"><path d="m600 900c-165.42 0-300-134.55-300-300 0-165.42 134.58-300 300-300s300 134.58 300 300c0 165.45-134.58 300-300 300zm224.177878-385.722228c-14.891032 5.024372-35.320069 14.473079-27.370723 26.666471 3.34205 5.126325 17.324192 7.172197 14.409696 12.490962l1.835756 4.346171c-6.468277 11.804187-20.353103 12.002763-31.267068 19.865763-12.99128 9.359609-13.249088 19.581718-12.652898 33.640044.82627 19.483674 15.673072 39.679773 28.849003 54.113245 7.578142 8.301419 16.213261 15.86376 25.091708 23.146497 10.919816-27.410647 16.926648-57.290904 16.926648-88.546925 0-30.185651-5.602465-59.088152-15.822122-85.722228zm-124.421386-132.549969c.119694 3.70783.318136 7.410461.699553 11.101011 1.242893 12.026107 3.460294 35.783046 15.87235 44.718942 13.369357 9.625093 34.629115-3.575097 43.330839-16.587284-17.795308-15.886287-37.964949-29.165908-59.902742-39.232669zm-61.020819-18.603656c-12.612385-2.055401-25.55164-3.124147-38.735673-3.124147-64.803315 0-123.692772 25.820969-166.919662 67.714195 5.526215 8.685041 11.825002 17.283794 12.871064 26.997168 3.03138 28.148352-5.601917 25.816832-13.446306 50.869618-4.813409 15.372683 9.713206 56.415095 19.995038 70.303299 1.577053 2.130208 33.956682 43.987359 37.223118 46.145408 4.288024 2.832985 9.992535 3.075909 14.42148 5.698194 5.823164 3.447773 10.315764 8.719094 16.030915 12.332029 10.609615 6.707059 48.913826 18.744959 53.269888 24.710072 1.282328 1.755996.49328 4.353469 0 6.449774-3.552775 15.098339-34.012758 17.012515-24.00673 45.531874 7.864839 22.416506 52.892347 11.728148 52.128221 45.807964-.255956 11.415571-15.535062 24.345276-16.387686 43.085408-.114823 2.523729-1.227624 22.034907 5.502203 24.510674 4.049999 1.489912 8.54258-1.681704 12.550415-3.274737 1.048306-.41668 1.16615-1.988996 2.132698-2.561503 38.181962-22.616004 17.009369-7.215873 57.448074-56.644504 13.429691-16.415245 30.55598-26.436273 46.66566-39.565259.368981-.30071 30.32209-27.14809 20.66101-34.764356-10.391176-8.191834-55.96295-21.983313-62.585578-24.840448-12.532484-5.406766-21.650533-14.259973-35.661253-17.654434-11.622697-2.815901-3.920568 9.6381-29.508934 3.121353-7.181788-1.82903-25.016716-19.511099-29.033239-22.439997-10.027991-7.312536-38.537661-10.783423-41.068317-19.564058-9.085587-31.524335 40.319102-25.564071 54.926892-28.138192 3.307792-.582884 6.047833-2.98385 8.59422-5.107668 12.832915-10.703319-.86701-23.631504 18.282536-40.178792 17.469383-15.095445 71.733543-33.512531 78.949479-54.313076 1.526035-4.398924.639974-9.402825-.491551-13.911878-6.02573-24.012146-30.883952-45.682615-56.663178-40.669619-2.27601.44259-3.55746 3.046791-4.61424 5.046315-3.911428 7.400779-5.284644 16.073732-10.164012 22.915486-18.307386 25.670258-45.006045-14.198019-52.17579-26.374283-6.919049-11.750508-4.407195-19.837124 9.08577-26.343605 19.245919-9.28063 63.610771-13.989644 60.723468-41.768275z" fill-rule="evenodd"/></svg>