<svg height="280" viewBox="0 0 280 280" width="280" xmlns="http://www.w3.org/2000/svg"><path d="m140 20.0623053c66.133645 0 119.937695 53.8040498 119.937695 119.9376947 0 66.133645-53.80405 119.937695-119.937695 119.937695-66.1336449 0-119.9376947-53.80405-119.9376947-119.937695 0-66.1336449 53.8040498-119.9376947 119.9376947-119.9376947zm11.993769 24.815109v47.1475078h35.981309v77.9595019l-66.08567 49.570249-26.5182242-79.554673h-27.3338006v-63.2551402c-14.8842679 16.911215-23.987539 39.0157322-23.987539 63.2551402 0 52.904517 43.0456387 95.950156 95.9501558 95.950156 52.904517 0 95.950156-43.045639 95.950156-95.950156 0-48.8386293-36.700935-89.1856698-83.956387-95.1225857zm-23.987538 0c-12.977259 1.6311527-25.138941 5.8649533-35.9813089 12.1616823v58.9733644h20.6412769l21.456854 64.370561 29.864486-22.392368v-41.978193h-35.981308z" fill-rule="evenodd"/></svg>