<svg height="1200" viewBox="0 0 1200 1200" width="1200" xmlns="http://www.w3.org/2000/svg"><path d="m600 300c165.42 0 300 134.58 300 300s-134.58 300-300 300-300-134.58-300-300 134.58-300 300-300zm0 540c132.33 0 240-107.67 240-240 0-122.16-91.8-223.08-210-237.93v117.93h90v195l-165.3 123.99-66.33-198.99h-68.37v-158.22c-37.23 42.3-60 97.59-60 158.22 0 132.33 107.67 240 240 240zm-120-447.51v147.51h51.63l53.67 161.01 74.7-56.01v-105h-90v-177.93c-32.46 4.08-62.88 14.67-90 30.42z" fill-rule="evenodd"/></svg>