<svg height="642" viewBox="0 0 642 642" width="642" xmlns="http://www.w3.org/2000/svg"><path d="m321 46c151.635 0 275 123.365 275 275 0 151.6625-123.365 275-275 275s-275-123.3375-275-275c0-151.635 123.365-275 275-275zm0 55c-59.403039 0-113.385041 23.669221-153.009691 62.071345.330372.519214.663756 1.038092.99862 1.556939l1.67956 2.59539c4.250194 6.581493 8.32817 13.239658 9.120297 20.595075 2.778764 25.802656-5.135092 23.66543-12.325781 46.630483-4.412292 14.091626 8.903772 51.713838 18.328785 64.444691.693903.937292 7.89331 10.264914 15.524201 19.930971l.955669 1.209438c7.975315 10.083626 16.144205 20.170443 17.641321 21.159548 3.930689 2.596904 9.159824 2.819584 13.21969 5.223346 5.3379 3.160458 9.456117 7.992502 14.695005 11.304359 4.279211 2.705181 13.47329 6.356408 22.768843 10.063225l1.267752.505736 1.266298.505924c10.960444 4.384032 21.451448 8.732644 23.527838 11.576015 1.175467 1.609663.452173 3.990679 0 5.912292-3.25671 13.840144-31.178361 15.594805-22.006169 41.737551 3.100057 8.83584 12.498877 12.060681 22.150633 15.35002l1.34779.459968c12.358634 4.230673 24.671026 8.998739 24.285779 26.180646-.234626 10.464273-14.240473 22.316503-15.022045 39.494957-.105254 2.313418-1.125322 20.198665 5.043686 22.468118 2.735526 1.006344 5.691321-.307315 8.527315-1.652603l.605756-.287926c.804898-.382323 1.598034-.753885 2.371476-1.061313.960948-.381957 1.068971-1.823246 1.954973-2.348045 35.000132-20.731337 15.591922-6.61455 52.660735-51.924128 8.931183-10.916674 19.645882-18.748301 30.494328-26.820932l1.760119-1.311713c3.521541-2.629753 7.047771-5.303767 10.522407-8.135509.338233-.275651 27.79525-24.88575 18.93926-31.867327-9.525245-7.50918-51.299371-20.15137-57.370113-22.77041-11.48811-4.956203-19.846322-13.071642-32.689482-16.183231-4.048573-.980872-5.539183.059481-7.118345 1.398779l-.250464.213702c-2.519708 2.156834-5.607446 4.83297-19.681047 1.248759-6.583306-1.676611-22.93199-17.885174-26.613802-20.569998-3.585007-2.614231-9.746822-4.692841-16.067862-6.733443l-.973398-.313706c-.324667-.104513-.649427-.208994-.973954-.313508l-.972553-.313715c-8.902682-2.877889-17.382319-5.832443-18.658191-10.259347-8.328455-28.897307 36.959177-23.433732 50.349651-25.793343 3.032143-.534311 5.543847-2.735196 7.878035-4.682029 11.763505-9.811375-.794759-21.662212 16.758991-36.83056 16.013602-13.837491 65.755748-30.719819 72.370356-49.786986 1.398866-4.032347.586643-8.619255-.450588-12.752555-5.523586-22.011133-28.310289-41.87573-51.941247-37.280484-2.086342.405708-3.261005 2.792893-4.229719 4.625789-1.360009 2.57326-2.38526 5.314302-3.378131 8.067878l-.540172 1.50226c-1.441588 4.004365-2.930982 7.975527-5.398709 11.435724-16.78177 23.531071-41.255541-13.01485-47.827808-24.176425-6.342461-10.7713-4.039928-18.18403 8.328623-24.148305 17.642093-8.507245 58.309874-12.82384 55.663179-38.287585-11.561353-1.884118-23.422336-2.863802-35.5077-2.863802zm205.496388 141.421291c-13.650112 4.605674-32.37673 13.266989-25.08983 24.444265 1.396047 2.141376 4.817478 3.696375 7.875659 5.21611l.505923.253057c3.428565 1.728284 6.213844 3.450541 4.827307 5.980882l1.682776 3.983989c-3.749381 6.842379-10.217282 9.430746-16.996029 12.231658l-.947647.392653c-3.638522 1.513906-7.333939 3.148057-10.717803 5.585973-11.908673 8.579641-12.144997 17.949907-11.59849 30.836707.757414 17.860034 14.366983 36.373124 26.444919 49.603807 6.946631 7.609634 14.862157 14.541781 23.000733 21.217623 10.009832-25.126427 15.516094-52.516662 15.516094-81.168015 0-27.67018-5.135593-54.164139-14.503612-78.578709zm-114.052937-121.504138c.109719 3.398844.291625 6.792922.641257 10.175927 1.139319 11.023931 3.171936 32.801125 14.549654 40.992363 12.255244 8.823002 31.743356-3.277172 39.719936-15.20501-16.312366-14.56243-34.801203-26.735416-54.910847-35.96328z" fill-rule="evenodd"/></svg>