<svg height="1200" viewBox="0 0 1200 1200" width="1200" xmlns="http://www.w3.org/2000/svg"><path d="m600 840c-132.33 0-240-107.67-240-240 0-60.63 22.77-115.92 60-158.22v158.22h68.37l66.33 198.99 165.3-123.99v-195h-90v-117.93c118.2 14.85 210 115.77 210 237.93 0 132.33-107.67 240-240 240zm-120-447.51c27.12-15.75 57.54-26.34 90-30.42v177.93h90v105l-74.7 56.01-53.67-161.01h-51.63zm120-92.49c-165.42 0-300 134.58-300 300s134.58 300 300 300 300-134.58 300-300-134.58-300-300-300z" fill-rule="evenodd"/></svg>