<svg height="642" viewBox="0 0 642 642" width="642" xmlns="http://www.w3.org/2000/svg"><path d="m321 102.25c120.61875 0 218.75 98.13125 218.75 218.75 0 120.640625-98.13125 218.75-218.75 218.75s-218.75-98.109375-218.75-218.75c0-120.61875 98.13125-218.75 218.75-218.75zm0 43.75c-47.252417 0-90.192646 18.82779-121.712254 49.374934.516607.811902 1.042473 1.622771 1.56834 2.434451l.630449.974523c3.356075 5.200793 6.560513 10.465041 7.186363 16.276461 2.210381 20.52484-4.084732 18.824773-9.804599 37.092429-3.509777 11.209248 7.082547 41.136007 14.579715 51.262823 1.149935 1.553276 24.760081 32.074116 27.141857 33.647693 3.126685 2.065719 7.286224 2.242851 10.515663 4.154934 1.85765 1.099875 3.529597 2.454258 5.171736 3.850539l1.403883 1.202114c1.637832 1.402867 3.290397 2.786887 5.113589 3.939451 3.282015 2.074785 10.198575 4.849171 17.317649 7.688248l2.036567.812377c8.992989 3.590928 17.78797 7.188582 19.488411 9.517136.935031 1.280414.359683 3.174404 0 4.70296-2.590565 11.009205-24.800969 12.404958-17.504907 33.200324 2.465954 7.028509 9.942289 9.593723 17.619822 12.210244l1.072105.365883c9.830732 3.365308 19.62468 7.158088 19.318234 20.825514-.186635 8.323854-11.327649 17.751764-11.949354 31.416443-.083725 1.840219-.895143 16.06712 4.012023 17.872367 2.953124 1.086394 6.228965-1.226243 9.151344-2.387829.76439-.30383.850318-1.45031 1.555092-1.867763 27.841014-16.490836 12.402665-5.261574 41.889221-41.303284 6.23158-7.616922 13.5547-13.345745 21.083716-18.971993l1.61619-1.204706c3.776955-2.810352 7.58957-5.626945 11.327137-8.672969.269049-.219268 22.109858-19.795482 15.065321-25.34901-3.636912-2.867141-13.184164-6.675024-22.663934-10.090345l-1.184188-.424775c-9.858092-3.521139-19.372696-6.556042-21.787196-7.597706-3.366731-1.452476-6.395526-3.246055-9.389292-5.056023l-1.281781-.775757c-4.698477-2.841179-9.417311-5.608276-15.331924-7.041245-2.966209-.718641-4.206268-.073331-5.365091.865466l-.198167.163612-.198417.168163c-.033192.02834-.066472.05682-.099877.085414l-.202244.172744c-1.975523 1.679303-4.631388 3.576628-15.453135.820587-5.23672-1.333667-18.241355-14.226843-21.17007-16.362497-2.957694-2.156788-8.12031-3.855254-13.342289-5.537023l-1.739915-.560577c-7.089594-2.291445-13.847509-4.642862-14.863444-8.167859-6.624907-22.986494 29.399345-18.640469 40.050859-20.517432 2.411932-.42502 4.409878-2.175724 6.266618-3.724342 4.201252-3.504062 4.502512-7.335152 4.822675-11.585281l.044144-.582169c.389975-5.068125 1.055147-10.727361 8.464198-17.129585 12.738092-11.007096 52.305708-24.43622 57.567328-39.603285 1.112734-3.207549.466648-6.856226-.358423-10.144077-4.393761-17.508857-22.519548-33.310241-41.3169-29.654931-1.65959.322722-2.593981 2.221619-3.36455 3.679605-2.852083 5.396401-3.853387 11.72043-7.411259 16.709208-13.349135 18.717897-32.816907-10.352722-38.044847-19.231247-5.04514-8.568079-3.21358-14.46457 6.625041-19.20888 14.033483-6.767125 46.382854-10.200781 44.277528-30.456033-9.19653-1.49873-18.631403-2.278024-28.244761-2.278024zm163.463036 112.494208c-10.858044 3.663605-25.754217 10.553288-19.957819 19.444302.923073 1.415889 2.959322 2.509497 5.017492 3.532603l.493822.244321c3.20532 1.580961 6.251529 3.039367 4.995756 5.33107l1.338572 3.169082c-4.716452 8.60722-14.840804 8.752015-22.798903 14.485453-9.472809 6.824715-9.660794 14.278336-9.226072 24.529199.602488 14.206845 11.428282 28.933167 21.035731 39.457574 5.525729 6.053118 11.82217 11.567325 18.296037 16.877654 7.962367-19.98693 12.342348-41.774617 12.342348-64.565466 0-22.010371-4.085131-43.085111-11.536964-62.505792zm-90.723927-96.651018c.087277 2.703626.231974 5.403461.51009 8.094487.906277 8.769036 2.523132 26.091804 11.573589 32.607562 9.748489 7.018297 25.250397-2.606842 31.595403-12.094895-12.975745-11.583751-27.682775-21.266808-43.679082-28.607154z" fill-rule="evenodd"/></svg>