<svg height="280" viewBox="0 0 280 280" width="280" xmlns="http://www.w3.org/2000/svg"><path d="m140 20.0623053c66.133645 0 119.937695 53.8040498 119.937695 119.9376947 0 66.145639-53.80405 119.937695-119.937695 119.937695-66.1336449 0-119.9376947-53.792056-119.9376947-119.937695 0-66.1336449 53.8040498-119.9376947 119.9376947-119.9376947zm0 23.9875389c-25.907867 0-49.4514197 10.3230249-66.7331984 27.0716147 2.2093386 3.4722126 4.7275452 6.9099283 5.1457528 10.7932604 1.2119224 11.2534947-2.2396035 10.3213713-5.3757298 20.3372827-1.9243639 6.14588 3.8832652 22.554321 7.9938624 28.106718.298655.403409 3.3604271 4.370487 6.6394106 8.52631l.5480719.693806.5494751.693829c3.2958218 4.156101 6.5259766 8.125954 7.1445588 8.534635 1.7143193 1.132606 3.9949389 1.229725 5.7655966 2.278094 2.328056 1.378393 4.124164 3.485827 6.409037 4.930251 1.696657 1.072572 5.164848 2.486141 8.827338 3.948925l.847921.338307c5.241262 2.089972 10.630306 4.234159 11.621633 5.591665.512665.702033.197209 1.740483 0 2.578569-.580367 2.466405-2.956726 4.052798-5.291593 5.844363l-.36805.284741c-.061195.047794-.122294.09577-.183264.143947l-.364002.291637c-3.015967 2.453086-5.541514 5.508595-3.390797 11.638606 1.320607 3.764017 5.26205 5.193369 9.367239 6.594639l.587304.200239.58794.201352c5.289547 1.821654 10.462944 3.960024 10.297979 11.317442-.102329 4.563857-6.210798 9.733054-6.551671 17.225215-.045905 1.008967-.490795 8.809386 2.199739 9.799179 1.619158.595655 3.415258-.672332 5.017559-1.309215.419105-.166585.466218-.795185.852636-1.024069 15.264855-9.041705 6.800215-2.884851 22.967299-22.646037 5.369087-6.562689 12.216046-10.569019 18.656572-15.817887.147516-.120221 12.122539-10.853598 8.260113-13.898522-1.806223-1.423927-6.271223-3.271048-10.95919-4.998077l-.939845-.343643c-5.805141-2.107275-11.70243-3.976784-13.122198-4.5893-1.67013-.720528-3.188587-1.594152-4.678374-2.489011l-.990293-.598271c-2.636657-1.596063-5.269093-3.16663-8.588428-3.970825-4.646665-1.125776-1.567413 3.853238-11.797445 1.247893-2.871224-.731233-10.001491-7.800388-11.607266-8.971339-1.520698-1.108912-4.104475-1.99685-6.781278-2.863481l-1.46347-.471794c-3.896093-1.258885-7.61585-2.549496-8.174049-4.486285-3.632348-12.603187 16.119267-10.220319 21.959349-11.249433 1.32243-.233033 2.417877-1.19292 3.435903-2.042006 5.130501-4.279105-.346624-9.447694 7.309217-16.063173 6.984126-6.035043 28.67852-13.398052 31.563396-21.7139501.610097-1.758656.255856-3.7591769-.196519-5.5618619-2.409041-9.5998713-12.347166-18.2635584-22.653503-16.2594011-.909931.176944-1.422245 1.2180838-1.844738 2.017478-1.563758 2.9587746-2.11276 6.4261546-4.063493 9.1614351-7.319153 10.2627722-17.993071-5.6762588-20.859481-10.5442354-2.766182-4.697763-1.761962-7.9307297 3.632422-10.5319711 2.462198-1.1873039 5.952734-2.1874515 9.523517-3.3625541l.670231-.2224704c7.377791-2.4716719 14.84488-5.7838598 14.083027-13.1136107-5.042334-.8217335-10.215349-1.2490101-15.486224-1.2490101zm89.624593 61.6790678c-5.95332 2.008705-14.120692 5.786226-10.942605 10.66105.540136.828507 1.775443 1.455753 2.978619 2.049542l.378034.186596c1.626167.80546 3.048808 1.581346 2.404233 2.757653l.733921 1.737565c-2.585967 4.719224-8.137014 4.798613-12.500333 7.94218-5.193814 3.7419-5.296884 7.82862-5.058532 13.449031.330336 7.789423 6.265974 15.863668 11.53361 21.63406 3.029683 3.318843 6.481937 6.342209 10.031472 9.253791 4.365659-10.958566 6.767144-22.904463 6.767144-35.40038 0-12.067991-2.239823-23.622989-6.325563-34.271088zm-49.742714-52.9924592c.047853 1.482362.127188 2.9626453.279676 4.4380991.496899 4.8079452 1.383399 14.3057866 6.345643 17.8782893 5.344967 3.8480382 13.844455-1.4292964 17.323337-6.6314685-7.114427-6.3512157-15.178095-11.6603061-23.948656-15.6849199z" fill-rule="evenodd"/></svg>