<svg height="1200" viewBox="0 0 1200 1200" width="1200" xmlns="http://www.w3.org/2000/svg"><path d="m600 540c-33.09 0-60-26.91-60-60 0-33.06 26.91-60 60-60s60 26.94 60 60c0 33.09-26.91 60-60 60m0 360c-144.48 0-300-37.53-300-120 0-28.62 19.44-68.52 112.02-96.03l17.07 57.54c-57.09 16.95-69.09 35.55-69.09 38.49 0 15.45 82.5 60 240 60s240-44.55 240-60c0-2.94-11.94-21.48-68.67-38.37l17.1-57.51c92.22 27.45 111.57 67.29 111.57 95.88 0 82.47-155.52 120-300 120m0-540c-66.18 0-120 53.82-120 120 0 74.94 73.8 173.94 120 226.08 46.23-52.14 120-151.14 120-226.08 0-66.18-53.82-120-120-120zm0 432.45-21.21-21.24c-6.48-6.48-158.79-160.26-158.79-291.21 0-99.24 80.73-180 180-180s180 80.76 180 180c0 130.95-152.31 284.73-158.79 291.21z" fill-rule="evenodd"/></svg>