<svg height="40" viewBox="0 0 40 40" width="40" xmlns="http://www.w3.org/2000/svg"><path d="m20 18c-1.103 0-2-.897-2-2 0-1.102.897-2 2-2s2 .898 2 2c0 1.103-.897 2-2 2m0 12c-4.816 0-10-1.251-10-4 0-.954.648-2.284 3.734-3.201l.569 1.918c-1.903.565-2.303 1.185-2.303 1.283 0 .515 2.75 2 8 2s8-1.485 8-2c0-.098-.398-.716-2.289-1.279l.57-1.917c3.074.915 3.719 2.243 3.719 3.196 0 2.749-5.184 4-10 4m0-18c-2.206 0-4 1.794-4 4 0 2.498 2.46 5.798 4 7.536 1.541-1.738 4-5.038 4-7.536 0-2.206-1.794-4-4-4zm0 14.415-.707-.708c-.216-.216-5.293-5.342-5.293-9.707 0-3.308 2.691-6 6-6s6 2.692 6 6c0 4.365-5.077 9.491-5.293 9.707z" fill-rule="evenodd"/></svg>