<svg height="642" viewBox="0 0 642 642" width="642" xmlns="http://www.w3.org/2000/svg"><path d="m183.93125 382.228125 12.446875 41.95625c-41.628125 12.359375-50.378125 25.921875-50.378125 28.065625 0 11.265625 60.15625 43.75 175 43.75s175-32.484375 175-43.75c0-2.14375-8.70625-15.6625-50.071875-27.978125l12.46875-41.934375c67.24375 20.015625 81.353125 49.065625 81.353125 69.9125 0 60.134375-113.4 87.5-218.75 87.5s-218.75-27.365625-218.75-87.5c0-20.86875 14.175-49.9625 81.68125-70.021875zm137.06875-279.978125c72.384375 0 131.25 58.8875 131.25 131.25 0 95.484375-111.059375 207.615625-115.784375 212.340625l-15.465625 15.4875-15.465625-15.4875c-4.725-4.725-115.784375-116.85625-115.784375-212.340625 0-72.3625 58.865625-131.25 131.25-131.25zm0 43.75c-48.25625 0-87.5 39.24375-87.5 87.5 0 54.64375 53.8125 126.83125 87.5 164.85 33.709375-38.01875 87.5-110.20625 87.5-164.85 0-48.25625-39.24375-87.5-87.5-87.5zm0 43.75c24.128125 0 43.75 19.64375 43.75 43.75 0 24.128125-19.621875 43.75-43.75 43.75s-43.75-19.621875-43.75-43.75c0-24.10625 19.621875-43.75 43.75-43.75z" fill-rule="evenodd"/></svg>