<svg height="1200" viewBox="0 0 1200 1200" width="1200" xmlns="http://www.w3.org/2000/svg"><path d="m577.561049 720h-367.561049v-60h59.943182v-270.03c0-16.56 13.427273-30 29.971591-30h119.886363c16.544319 0 29.971591 13.44 29.971591 30v270.03h29.971591v-210.03c0-16.56 13.427273-30 29.971591-30h119.886364c16.544318 0 29.971591 13.44 29.971591 30v143.011269c-39.653082 31.935016-68.938829 76.222735-82.012815 127.018731zm111.984406-147.628668v-302.371332c0-16.56 13.427272-30 29.97159-30h119.886364c16.544318 0 29.971591 13.44 29.971591 30v277.401087c-18.98886-4.832605-38.88198-7.401087-59.375-7.401087-.189445 0-.378839.000219-.568182.000658v-240.000658h-59.943182v247.69327c-21.271177 5.525136-41.395664 13.894584-59.943181 24.678062zm-359.659091-152.401332v240h59.943181v-240zm209.801136 60v180h59.943182v-180zm450.031534 330.03h-33.028693c-3.896307 19.11-11.509091 36.84-21.909233 52.56l23.467756 23.49-42.349858 42.45-23.497728-23.49c-15.705113 10.41-33.448295 18.06-52.540198 21.96v33.03h-59.943182v-33.03c-19.091904-3.9-36.835085-11.52-52.540199-21.93l-23.467756 23.52-42.409801-42.39 23.467756-23.55c-10.430114-15.75-18.042898-33.48-21.939205-52.62h-33.028693v-60h33.028693c3.896307-19.11 11.509091-36.84 21.939205-52.59l-23.467756-23.46 42.349858-42.45 23.497727 23.49c15.735086-10.41 33.448296-18.06 52.540199-21.96v-33.03h59.943182v33.03c19.091903 3.9 36.805114 11.55 52.510227 21.96l23.527699-23.55 42.349858 42.45-23.497727 23.49c10.460085 15.75 18.072869 33.51 21.969176 52.62h33.028693zm-179.889489 30c33.088637 0 59.943182-26.91 59.943182-60 0-33.15-26.854545-60-59.943182-60-33.148579 0-59.943181 26.85-59.943181 60 0 33.09 26.794602 60 59.943181 60z" fill-rule="evenodd"/></svg>