<svg height="642" viewBox="0 0 642 642" width="642" xmlns="http://www.w3.org/2000/svg"><path d="m495.87685 321v24.084375c13.921179 2.84375 26.837062 8.421875 38.288707 16.0125l17.155614-17.171875 30.880104 30.953125-17.133759 17.128125c7.627145 11.484375 13.178134 24.434375 16.019191 38.36875h24.083422v43.75h-24.083422c-2.841057 13.934375-8.392046 26.8625-15.975482 38.325l17.111905 17.128125-30.880105 30.953125-17.133759-17.128125c-11.451646 7.590625-24.389383 13.16875-38.310562 16.0125v24.084375h-43.70857v-24.084375c-13.92118-2.84375-26.858917-8.4-38.310562-15.990625l-17.111905 17.15-30.923813-30.909375 17.111905-17.171875c-7.605291-11.484375-13.15628-24.4125-15.997337-38.36875h-24.083422v-43.75h24.083422c2.841057-13.934375 8.392046-26.8625 15.997337-38.346875l-17.111905-17.10625 30.880104-30.953125 17.13376 17.128125c11.473499-7.590625 24.389382-13.16875 38.310561-16.0125v-24.084375zm-21.87614 87.5c-24.170839 0-43.70857 19.578125-43.70857 43.75 0 24.128125 19.537731 43.75 43.70857 43.75 24.127131 0 43.70857-19.621875 43.70857-43.75 0-24.171875-19.581439-43.75-43.70857-43.75zm-284.395715-262.521875c12.063566 0 21.854285 9.8 21.854285 21.875v196.896875h21.854285v-153.146875c0-12.075 9.79072-21.875 21.854285-21.875h87.417141c12.063565 0 21.854285 9.8 21.854285 21.875l.000271 104.278832c-28.913462 23.285659-50.267575 55.57833-59.800905 92.616579l-268.013642.001464v-43.75h43.7085701v-196.896875c0-12.075 9.7907197-21.875 21.8542849-21.875zm-21.854285 43.75h-43.70857v175h43.70857zm152.979995 43.75h-43.70857v131.25h43.70857zm174.834281-174.978125c12.063565 0 21.854285 9.8 21.854285 21.875l.002319 202.272216c-13.846744-3.524156-28.352928-5.397216-43.29659-5.397216l-.415.003.000701-175.003h-43.70857l-.001136 180.609971c-15.510399 4.0289-30.18464 10.131825-43.708965 17.995015l.001531-220.479986c0-12.075 9.790719-21.875 21.854285-21.875z" fill-rule="evenodd"/></svg>