<svg height="40" viewBox="0 0 40 40" width="40" xmlns="http://www.w3.org/2000/svg"><path d="m10.9962121 13.999h1.9981061v8h-1.9981061zm6.9933712 2h1.9981061v6h-1.9981061zm8.9914773 2.0010219c-.6900507.0015991-1.3595778.0905642-1.9981061.2564204v-8.2564423h1.9981061zm-7.7290256 5.9999781h-12.252035v-2h1.99810606v-9.001c0-.552.44757576-1 .99905303-1h3.99621211c.5514773 0 .999053.448.999053 1v9.001h.9990531v-7.001c0-.552.4475757-1 .999053-1h3.9962121c.5514773 0 .9990531.448.9990531 1v4.7670423c-1.3217694 1.0645005-2.297961 2.5407578-2.7337605 4.2339577zm3.7328135-4.9209556v-10.0790444c0-.552.4475757-1 .999053-1h3.9962121c.5514773 0 .9990531.448.9990531 1v9.2467029c-.632962-.1610868-1.296066-.2467029-1.9791667-.2467029-1.4634072 0-2.8350404.3929309-4.0151515 1.0790444zm10.005786 7.9209556h-1.1009565c-.1298769.637-.3836363 1.228-.7303077 1.752l.7822585.783-1.4116619 1.415-.7832576-.783c-.5235038.347-1.1149432.602-1.75134.732v1.101h-1.998106v-1.101c-.6363968-.13-1.2278362-.384-1.75134-.731l-.7822585.784-1.4136601-1.413.7822586-.785c-.3476705-.525-.60143-1.116-.7313069-1.754h-1.1009564v-2h1.1009564c.1298769-.637.3836364-1.228.7313069-1.753l-.7822586-.782 1.411662-1.415.7832575.783c.5245029-.347 1.1149432-.602 1.75134-.732v-1.101h1.9981061v1.101c.6363967.13 1.2268371.385 1.7503409.732l.7842566-.785 1.4116619 1.415-.7832575.783c.3486695.525.6024289 1.117.7323058 1.754h1.1009565zm-5.9963163 1c-1.1049527 0-1.9981061-.897-1.9981061-2 0-1.105.8931534-2 1.9981061-2 1.1029545 0 1.998106.895 1.998106 2 0 1.103-.8951515 2-1.998106 2z" fill-rule="evenodd"/></svg>