<svg height="1200" viewBox="0 0 1200 1200" width="1200" xmlns="http://www.w3.org/2000/svg"><path d="m420 480h-60c-33.09 0-60-26.91-60-60v-60c0-33.06 26.91-60 60-60h60c33.09 0 60 26.94 60 60v60c0 33.09-26.91 60-60 60zm0 210h-60c-33.09 0-60-26.91-60-60v-60c0-33.06 26.91-60 60-60h60c33.09 0 60 26.94 60 60v60c0 33.09-26.91 60-60 60zm0 210h-60c-33.09 0-60-26.91-60-60v-60c0-33.09 26.91-60 60-60h60c33.09 0 60 26.91 60 60v60c0 33.09-26.91 60-60 60zm210-420h-60c-33.09 0-60-26.91-60-60v-60c0-33.06 26.91-60 60-60h60c33.09 0 60 26.94 60 60v60c0 33.09-26.91 60-60 60zm0 210h-60c-33.09 0-60-26.91-60-60v-60c0-33.06 26.91-60 60-60h60c33.09 0 60 26.94 60 60v60c0 33.09-26.91 60-60 60zm0 210h-60c-33.09 0-60-26.91-60-60v-60c0-33.09 26.91-60 60-60h60c33.09 0 60 26.91 60 60v60c0 33.09-26.91 60-60 60zm210-420h-60c-33.09 0-60-26.91-60-60v-60c0-33.06 26.91-60 60-60h60c33.09 0 60 26.94 60 60v60c0 33.09-26.91 60-60 60zm0 210h-60c-33.09 0-60-26.91-60-60v-60c0-33.06 26.91-60 60-60h60c33.09 0 60 26.94 60 60v60c0 33.09-26.91 60-60 60zm0 210h-60c-33.09 0-60-26.91-60-60v-60c0-33.09 26.91-60 60-60h60c33.09 0 60 26.91 60 60v60c0 33.09-26.91 60-60 60zm-480-540v60h59.91l.09-60zm0 210v60h59.91l.09-60zm0 210v60h59.91l.09-60zm210-420v60h59.91l.09-60zm0 210v60h59.91l.09-60zm0 210v60h59.91l.09-60zm210-420v60h59.91l.09-60zm0 210v60h59.91l.09-60zm0 210v60h59.91l.09-60z" fill-rule="evenodd"/></svg>