<svg height="40" viewBox="0 0 40 40" width="40" xmlns="http://www.w3.org/2000/svg"><path d="m12 12v2h1.997l.003-2zm2 4h-2c-1.103 0-2-.897-2-2v-2c0-1.102.897-2 2-2h2c1.103 0 2 .898 2 2v2c0 1.103-.897 2-2 2zm-2 3v2h1.997l.003-2zm2 4h-2c-1.103 0-2-.897-2-2v-2c0-1.102.897-2 2-2h2c1.103 0 2 .898 2 2v2c0 1.103-.897 2-2 2zm-2 3v2h1.997l.003-2zm2 4h-2c-1.103 0-2-.897-2-2v-2c0-1.103.897-2 2-2h2c1.103 0 2 .897 2 2v2c0 1.103-.897 2-2 2zm5-18v2h1.997l.003-2zm2 4h-2c-1.103 0-2-.897-2-2v-2c0-1.102.897-2 2-2h2c1.103 0 2 .898 2 2v2c0 1.103-.897 2-2 2zm-2 3v2h1.997l.003-2zm2 4h-2c-1.103 0-2-.897-2-2v-2c0-1.102.897-2 2-2h2c1.103 0 2 .898 2 2v2c0 1.103-.897 2-2 2zm-2 3v2h1.997l.003-2zm2 4h-2c-1.103 0-2-.897-2-2v-2c0-1.103.897-2 2-2h2c1.103 0 2 .897 2 2v2c0 1.103-.897 2-2 2zm5-18v2h1.997l.003-2zm2 4h-2c-1.103 0-2-.897-2-2v-2c0-1.102.897-2 2-2h2c1.103 0 2 .898 2 2v2c0 1.103-.897 2-2 2zm-2 3v2h1.997l.003-2zm2 4h-2c-1.103 0-2-.897-2-2v-2c0-1.102.897-2 2-2h2c1.103 0 2 .898 2 2v2c0 1.103-.897 2-2 2zm-2 3v2h1.997l.003-2zm2 4h-2c-1.103 0-2-.897-2-2v-2c0-1.103.897-2 2-2h2c1.103 0 2 .897 2 2v2c0 1.103-.897 2-2 2z" fill-rule="evenodd"/></svg>