<svg height="642" viewBox="0 0 642 642" width="642" xmlns="http://www.w3.org/2000/svg"><path d="m520.728261 301.112772c10.505706 0 19.021739 8.517935 19.021739 19.021739v200.59375c0 10.505706-8.516033 19.021739-19.021739 19.021739h-200.59375c-10.503804 0-19.021739-8.516033-19.021739-19.021739v-100.295924h39.774456v79.545109h159.090218v-159.090218h-79.545109v-39.774456zm-294.336495 79.547011 28.125354 28.121739-84.371495 84.372826-28.12288-28.123641zm95.473723-278.409783c10.503804 0 19.021739 8.516337 19.021739 19.021739v100.296495h-39.774456v-79.545489h-159.090027v159.090027h79.545489v39.774456h-100.296495c-10.505421 0-19.021739-8.517935-19.021739-19.021739v-200.59375c0-10.505421 8.516337-19.021739 19.021739-19.021739zm143.163315 39.772745 28.125544 28.12288-84.372826 84.371495-28.121739-28.123071z"/></svg>