<svg height="280" viewBox="0 0 280 280" width="280" xmlns="http://www.w3.org/2000/svg"><path d="m250 140c5.523 0 10 4.477 10 10v100c0 5.523-4.477 10-10 10h-100c-5.523 0-10-4.477-10-10v-60c0-5.523 4.477-10 10-10h20c5.523 0 10-4.477 10-10v-20c0-5.523 4.477-10 10-10zm-157.0711 27.071c3.9053-3.905 10.2371-3.905 14.1421 0l5.858 5.858c3.905 3.905 3.905 10.237 0 14.142l-35.8579 35.858c-3.9053 3.905-10.2369 3.905-14.1422 0l-5.8578-5.858c-3.9053-3.905-3.9053-10.237 0-14.142zm37.0711-147.071c5.523 0 10 4.4772 10 10v60c0 5.5228-4.477 10-10 10h-20c-5.523 0-10 4.477-10 10v20c0 5.523-4.4772 10-10 10h-60c-5.5228 0-10-4.477-10-10v-100c0-5.5228 4.4772-10 10-10zm72.929 37.0711c3.905-3.9053 10.237-3.9053 14.142 0l5.858 5.8578c3.905 3.9053 3.905 10.2369 0 14.1422l-35.858 35.8579c-3.905 3.905-10.237 3.905-14.142 0l-5.858-5.858c-3.905-3.905-3.905-10.2368 0-14.1421z"/></svg>