<svg height="642" viewBox="0 0 642 642" width="642" xmlns="http://www.w3.org/2000/svg"><path d="m342.875 102.25c24.128125 0 43.75 19.64375 43.75 43.75v109.375h109.375c24.128125 0 43.75 19.64375 43.75 43.75v196.875c0 24.128125-19.621875 43.75-43.75 43.75h-196.875c-24.128125 0-43.75-19.621875-43.75-43.75v-109.375h-109.375c-24.128125 0-43.75-19.621875-43.75-43.75v-196.875c0-24.10625 19.621875-43.75 43.75-43.75zm153.125 196.875h-109.375v43.75c0 24.128125-19.621875 43.75-43.75 43.75h-43.75v109.375h196.91875zm-153.103125 0h-43.771875v43.75h43.79375zm-.021875-153.125h-196.875v196.875h109.375v-43.75c0-24.10625 19.621875-43.75 43.75-43.75h43.771875z" fill-rule="evenodd"/></svg>