<svg height="642" viewBox="0 0 642 642" width="642" xmlns="http://www.w3.org/2000/svg"><path d="m361.865489 102.25c7.003614 0 13.123182 3.785039 16.424715 9.42111l.157203.274149c1.55346 2.75578 2.439821 5.937641 2.439821 9.32648l-.000228 139.840261 139.841261.000772c7.003614 0 13.123182 3.785038 16.424715 9.421109l.157202.27415c1.55346 2.75578 2.439822 5.93764 2.439822 9.32648v240.59375c0 10.503804-8.516337 19.021739-19.021739 19.021739h-240.59375c-10.505421 0-19.021739-8.517935-19.021739-19.021739l-.000772-139.841261-139.840261.000228c-10.505421 0-19.021739-8.517935-19.021739-19.021739v-240.59375c0-10.505421 8.516337-19.021739 19.021739-19.021739zm138.111766 198.635516-119.090255-.000516.000228 60.980489c0 10.503804-8.516337 19.021739-19.021739 19.021739l-60.978489-.000228-.002228 119.088543h199.092483zm-158.862771-158.862771h-199.090027v79.545489l-.002457 119.544538 119.09-.000772.000772-60.977489c0-10.505421 8.516337-19.021739 19.021739-19.021739l60.979489-.000772zm-.000484 158.862255-40.226772.000516-.000228 40.226484 40.227484.000772z"/></svg>