<svg height="40" viewBox="0 0 40 40" width="40" xmlns="http://www.w3.org/2000/svg"><path d="m17 15c-1.105 0-2-.894-2-2 0-1.105.895-2 2-2 1.104 0 2 .895 2 2 0 1.106-.896 2-2 2zm6 0c-1.105 0-2-.894-2-2 0-1.105.895-2 2-2 1.104 0 2 .895 2 2 0 1.106-.896 2-2 2zm-6 7c-1.105 0-2-.894-2-2 0-1.105.895-2 2-2 1.104 0 2 .895 2 2 0 1.106-.896 2-2 2zm6 0c-1.105 0-2-.894-2-2 0-1.105.895-2 2-2 1.104 0 2 .895 2 2 0 1.106-.896 2-2 2zm-6 7c-1.105 0-2-.894-2-2 0-1.105.895-2 2-2 1.104 0 2 .895 2 2 0 1.106-.896 2-2 2zm6 0c-1.105 0-2-.894-2-2 0-1.105.895-2 2-2 1.104 0 2 .895 2 2 0 1.106-.896 2-2 2z" fill-rule="evenodd"/></svg>