<svg height="1200" viewBox="0 0 1200 1200" width="1200" xmlns="http://www.w3.org/2000/svg"><path d="m510 450c-33.15 0-60-26.82-60-60 0-33.15 26.85-60 60-60 33.12 0 60 26.85 60 60 0 33.18-26.88 60-60 60zm180 0c-33.15 0-60-26.82-60-60 0-33.15 26.85-60 60-60 33.12 0 60 26.85 60 60 0 33.18-26.88 60-60 60zm-180 210c-33.15 0-60-26.82-60-60 0-33.15 26.85-60 60-60 33.12 0 60 26.85 60 60 0 33.18-26.88 60-60 60zm180 0c-33.15 0-60-26.82-60-60 0-33.15 26.85-60 60-60 33.12 0 60 26.85 60 60 0 33.18-26.88 60-60 60zm-180 210c-33.15 0-60-26.82-60-60 0-33.15 26.85-60 60-60 33.12 0 60 26.85 60 60 0 33.18-26.88 60-60 60zm180 0c-33.15 0-60-26.82-60-60 0-33.15 26.85-60 60-60 33.12 0 60 26.85 60 60 0 33.18-26.88 60-60 60z" fill-rule="evenodd"/></svg>