<svg height="280" viewBox="0 0 280 280" width="280" xmlns="http://www.w3.org/2000/svg"><path d="m144.770249 187.702492c13.17268 0 23.851246 10.678567 23.851246 23.851246 0 13.17268-10.678566 23.851246-23.851246 23.851246-13.172679 0-23.851246-10.678566-23.851246-23.851246 0-13.172679 10.678567-23.851246 23.851246-23.851246zm-85.8644858 19.080997c7.9036077 0 14.3107477 6.40714 14.3107477 14.310748 0 7.903607-6.40714 14.310747-14.3107477 14.310747s-14.3107476-6.40714-14.3107476-14.310747c0-7.903608 6.4071399-14.310748 14.3107476-14.310748zm157.4182248-47.702492c10.538143 0 19.080996 8.542853 19.080996 19.080997 0 10.538143-8.542853 19.080997-19.080996 19.080997-10.538144 0-19.080997-8.542854-19.080997-19.080997 0-10.538144 8.542853-19.080997 19.080997-19.080997zm-66.78349-76.3239877c26.345359 0 47.702493 21.3571337 47.702493 47.7024927s-21.357134 47.702492-47.702493 47.702492-47.702492-21.357133-47.702492-47.702492 21.357133-47.7024927 47.702492-47.7024927zm-76.3239871-19.0809968c15.8072154 0 28.6214951 12.8142799 28.6214951 28.6214953 0 15.8072152-12.8142797 28.6214952-28.6214951 28.6214952s-28.6214953-12.81428-28.6214953-28.6214952c0-15.8072154 12.8142799-28.6214953 28.6214953-28.6214953zm133.5669781-19.0809969c15.807215 0 28.621495 12.8142799 28.621495 28.6214953s-12.81428 28.6214951-28.621495 28.6214951-28.621495-12.8142797-28.621495-28.6214951 12.81428-28.6214953 28.621495-28.6214953z" fill-rule="evenodd"/></svg>