<svg height="642" viewBox="0 0 642 642" width="642" xmlns="http://www.w3.org/2000/svg"><path d="m331.9375 430.375c30.203072 0 54.6875 24.484428 54.6875 54.6875s-24.484428 54.6875-54.6875 54.6875-54.6875-24.484428-54.6875-54.6875 24.484428-54.6875 54.6875-54.6875zm-196.875 43.75c18.121843 0 32.8125 14.690657 32.8125 32.8125s-14.690657 32.8125-32.8125 32.8125-32.8125-14.690657-32.8125-32.8125 14.690657-32.8125 32.8125-32.8125zm360.9375-109.375c24.162458 0 43.75 19.587542 43.75 43.75s-19.587542 43.75-43.75 43.75-43.75-19.587542-43.75-43.75 19.587542-43.75 43.75-43.75zm-153.125-175c60.406145 0 109.375 48.968855 109.375 109.375s-48.968855 109.375-109.375 109.375-109.375-48.968855-109.375-109.375 48.968855-109.375 109.375-109.375zm-175-43.75c36.243687 0 65.625 29.381313 65.625 65.625s-29.381313 65.625-65.625 65.625-65.625-29.381313-65.625-65.625 29.381313-65.625 65.625-65.625zm306.25-43.75c36.243687 0 65.625 29.381313 65.625 65.625s-29.381313 65.625-65.625 65.625-65.625-29.381313-65.625-65.625 29.381313-65.625 65.625-65.625z" fill-rule="evenodd"/></svg>