<svg height="1200" viewBox="0 0 1200 1200" width="1200" xmlns="http://www.w3.org/2000/svg"><path d="m390 540c-49.705627 0-90-40.294373-90-90s40.294373-90 90-90 90 40.294373 90 90-40.294373 90-90 90zm420-60c-49.705627 0-90-40.294373-90-90s40.294373-90 90-90 90 40.294373 90 90-40.294373 90-90 90zm30 300c-33.137085 0-60-26.862915-60-60s26.862915-60 60-60 60 26.862915 60 60-26.862915 60-60 60zm-225 120c-41.421356 0-75-33.578644-75-75s33.578644-75 75-75 75 33.578644 75 75-33.578644 75-75 75zm-270 0c-24.852814 0-45-20.147186-45-45s20.147186-45 45-45 45 20.147186 45 45-20.147186 45-45 45zm285-180c-82.842712 0-150-67.157288-150-150s67.157288-150 150-150 150 67.157288 150 150-67.157288 150-150 150z" fill-rule="evenodd"/></svg>