<svg height="280" viewBox="0 0 280 280" width="280" xmlns="http://www.w3.org/2000/svg"><path d="m140 20c66.274 0 120 53.7258 120 120 0 66.274-53.726 120-120 120-66.2742 0-120-53.726-120-120 0-66.2742 53.7258-120 120-120zm-5.825 180c-8.284 0-15 6.716-15 15s6.716 15 15 15 15-6.716 15-15-6.716-15-15-15zm5-140c-24.212 0-44.405 17.2096-49.013 40.064-1.0916 5.414 3.4899 9.936 9.0127 9.936h14.0003c3.313 0 5.91-2.746 6.888-5.912 2.521-8.1596 10.124-14.088 19.112-14.088 11.045 0 20 8.9543 20 20 0 11.046-8.955 20-20 20-11.046 0-20 8.954-20 20v20c0 5.523 4.477 10 10 10h10c5.523 0 10-4.477 10-10v-11c22.822-4.633 40-24.81 40-49 0-27.6142-22.386-50-50-50z" fill-rule="evenodd"/></svg>