<svg height="280" viewBox="0 0 280 280" width="280" xmlns="http://www.w3.org/2000/svg"><path d="m140.249118 212.046765c3.699019 0 6.822157-1.273628 9.369411-3.820883 2.547255-2.545098 3.820883-5.668235 3.820883-9.369411 0-3.69902-1.273628-6.822157-3.820883-9.369412-2.547254-2.547255-5.670392-3.820883-9.369411-3.820883-3.69902 0-6.822157 1.273628-9.369412 3.820883s-3.820882 5.670392-3.820882 9.369412c0 3.701176 1.273627 6.824313 3.820882 9.369411 2.547255 2.547255 5.670392 3.820883 9.369412 3.820883zm41.858235-109.152353c0-10.7347061-3.645098-19.4074512-10.935294-26.0182355-7.292353-6.6129412-16.786863-9.9194118-28.48353-9.9194118-8.461372 0-16.143039 1.8505882-23.045 5.5517647-6.90196 3.6990196-12.385784 8.9908824-16.45147 15.8755882-1.177647 1.8743138-1.252059 3.9233334-.223235 6.1470589 1.028823 2.2237255 2.720882 3.8165686 5.076176 4.7785294 2.09.8303921 4.246863.8638231 6.470588.1002941 2.223726-.7635294 4.057059-2.1493137 5.5-4.1573529 2.538628-3.7335295 5.628334-6.545 9.269118-8.4344118 3.642941-1.8915686 7.762549-2.8373529 12.358823-2.8373529 6.619412 0 11.982451 1.8247058 16.089118 5.4741176s6.16 8.3276471 6.16 14.034706c0 3.882353-1.170098 7.815392-3.510294 11.799118-2.340196 3.981568-6.01549 8.129215-11.025882 12.442941-5.607844 5.126862-9.792157 9.847157-12.552942 14.160882-2.762941 4.313726-4.492745 9.216275-5.189411 14.707647-.349412 2.273333.338627 4.35902 2.064117 6.257059 1.72549 1.900196 3.899608 2.850294 6.522353 2.850294 2.355294 0 4.461471-.775392 6.31853-2.326176 1.859215-1.550785 3.029313-3.637549 3.510294-6.260295.647059-3.532941 1.874313-6.71 3.681764-9.531176 1.809608-2.821176 4.871275-6.388627 9.185-10.702353 7.449804-7.447647 12.514118-13.548333 15.192942-18.302059 2.678823-4.753725 4.018235-9.984117 4.018235-15.691176zm-128.7129412 147.105588c-6.537451 0-12.0708824-2.264706-16.6002942-6.794118-4.5294117-4.529411-6.7941176-10.062843-6.7941176-16.600294v-173.2111762c0-6.537451 2.2647059-12.0708824 6.7941176-16.6002942 4.5294118-4.5294117 10.0628432-6.7941176 16.6002942-6.7941176h173.2111762c6.537451 0 12.070883 2.2647059 16.600294 6.7941176 4.529412 4.5294118 6.794118 10.0628432 6.794118 16.6002942v173.2111762c0 6.537451-2.264706 12.070883-6.794118 16.600294-4.529411 4.529412-10.062843 6.794118-16.600294 6.794118zm0-19.411765h173.2111762c.996471 0 1.908824-.415196 2.737059-1.245588.830392-.828235 1.245588-1.740588 1.245588-2.737059v-173.2111762c0-.9964706-.415196-1.9088236-1.245588-2.7370589-.828235-.8303921-1.740588-1.2455882-2.737059-1.2455882h-173.2111762c-.9964706 0-1.9088236.4151961-2.7370589 1.2455882-.8303921.8282353-1.2455882 1.7405883-1.2455882 2.7370589v173.2111762c0 .996471.4151961 1.908824 1.2455882 2.737059.8282353.830392 1.7405883 1.245588 2.7370589 1.245588zm-3.497353-181.1764703v181.1764703z"/></svg>