<svg height="280" viewBox="0 0 280 280" width="280" xmlns="http://www.w3.org/2000/svg"><path d="m133.217232 31.6552148c2.226731 0 4.403957.2371915 6.528318.7120164 1.981386.4428679 3.906146 1.15057 5.758068 2.1129137l.553375.2963321 116.240994 63.0188607c2.488252 1.4705984 4.412079 3.3553773 5.730686 5.6439963 1.233449 2.145748 1.891339 4.468994 1.96447 6.933158l.006857.463673v81.235262c0 2.798996-.983318 5.235914-2.909103 7.1617-1.928214 1.928214-4.367617 2.912864-7.169222 2.912864-2.805699 0-5.244791-.985907-7.164837-2.916007-1.835629-1.842036-2.811505-4.150561-2.892893-6.795772l-.005551-.362785-.000747-75.833152-23.830274 12.677804.000281 56.791919c0 4.739013-1.082415 9.085923-3.245186 12.998628l-.264719.467437-.275088.463254c-2.404972 3.961441-5.627238 7.138649-9.675066 9.526885l-.489703.2828-65.91451 35.674001c-2.085363 1.182452-4.226318 2.021931-6.417832 2.511766-2.124361.474825-4.301587.712016-6.528318.712016s-4.403958-.237191-6.528319-.712016c-2.008887-.449015-3.975291-1.191829-5.861437-2.20452l-.512385-.282862-65.9996367-35.721131c-4.2373245-2.395368-7.6224811-5.66704-10.1230044-9.785874-2.4296635-3.997707-3.6903902-8.467706-3.7804445-13.363587l-.0051955-.566797-.0000648-56.821487-22.7173409-12.593713c-2.227481-1.339049-3.9894562-2.926901-5.2582269-4.767471l-.2471698-.371485-.2339685-.378231c-1.2986936-2.17984-1.950039-4.608142-1.950039-7.235576 0-2.628253.6517761-5.0550793 1.95166-7.2307715 1.2125657-2.0295426 2.9899085-3.7731385 5.2986383-5.2359589l.4391059-.2709897.0927367-.0531342 102.5819811-55.9516527c2.031928-1.130715 4.142141-1.9424435 6.324791-2.4302968 2.124361-.4748249 4.301588-.7120164 6.528319-.7120164zm72.668815 108.2981192-59.636165 32.552371c-2.084308 1.181853-4.219227 2.021175-6.399346 2.510994-2.115093.475827-4.327186.712788-6.633304.712788-2.306119 0-4.518211-.236961-6.632613-.712633-1.999077-.449143-3.959591-1.191835-5.850174-2.207394l-.513856-.28372-59.6725106-32.571386v45.840145c0 1.052191.2064195 2.071371.625119 3.074381l.1474502.333761c.4201448.899641 1.1027063 1.677769 2.0922697 2.35041l.2306905.151499 67.0791712 36.256315c.905554.518422 1.679267.776685 2.322315.816128l.172138.005363c.6193 0 1.369158-.215061 2.292641-.709829l.256196-.14192 67.031578-36.231155.213909-.138044c.955484-.635804 1.63154-1.30825 2.057168-2.009936l.109893-.192088c.421795-.784006.667672-1.851173.703004-3.217156l.004426-.347729zm-72.525901-88.6491898c-.523034 0-1.237171.2152844-2.165973.7168582l-.236686.1313989-95.1481537 51.4019527 95.2030337 51.704713c.909992.520961 1.649577.777107 2.201823.81618l.145956.005311c.524299 0 1.238568-.215773 2.163147-.716629l.235538-.131194 94.876149-51.679401-94.920195-51.4296875c-.910476-.5195469-1.651784-.7752007-2.20765-.8142017z"/></svg>