<svg height="642" viewBox="0 0 642 642" width="642" xmlns="http://www.w3.org/2000/svg"><path d="m321 46c151.877917 0 275 123.121625 275 275 0 151.877917-123.122083 275-275 275-151.878375 0-275-123.122083-275-275 0-151.878375 123.121625-275 275-275zm-13.348958 412.5c-18.984167 0-34.375 15.390833-34.375 34.375s15.390833 34.375 34.375 34.375c18.984166 0 34.375-15.390833 34.375-34.375s-15.390834-34.375-34.375-34.375zm11.458333-320.833333c-55.485833 0-101.761458 39.438666-112.321458 91.813333-2.501584 12.407083 7.997687 22.77 20.654104 22.77h32.084021c7.592291 0 13.54375-6.292917 15.785-13.548333 5.777291-18.699084 23.200833-32.285 43.798333-32.285 25.311458 0 45.833333 20.52027 45.833333 45.833333 0 25.060612-20.113489 45.422462-45.075442 45.827193l-.757891.00614c-25.31375 0-45.833333 20.519584-45.833333 45.833334v45.833333c0 12.656875 10.259791 22.916667 22.916666 22.916667h22.916667c12.656875 0 22.916667-10.259792 22.916667-22.916667v-25.208333c52.300416-10.617292 91.666666-56.85625 91.666666-112.291667 0-63.282542-51.30125-114.583333-114.583333-114.583333z" fill-rule="evenodd"/></svg>