<svg height="642" viewBox="0 0 642 642" width="642" xmlns="http://www.w3.org/2000/svg"><path d="m321 102.25c120.61875 0 218.75 98.13125 218.75 218.75 0 120.640625-98.13125 218.75-218.75 218.75s-218.75-98.109375-218.75-218.75c0-120.61875 98.13125-218.75 218.75-218.75zm0 43.75c-96.490625 0-175 78.509375-175 175s78.509375 175 175 175 175-78.509375 175-175-78.509375-175-175-175zm-.729167 256.666667c15.705598 0 28.4375 12.731902 28.4375 28.4375 0 15.705597-12.731902 28.4375-28.4375 28.4375-15.705597 0-28.4375-12.731903-28.4375-28.4375 0-15.705598 12.731903-28.4375 28.4375-28.4375zm.575659-212.916667c19.524665-.036535 38.470951 6.863232 52.722485 19.887455 15.754622 14.39787 24.503356 34.997161 24.503356 59.059471 0 14.636967-3.770706 27.577423-10.88108 39.44485-5.07805 8.475418-10.411422 14.701116-20.306573 24.82675-.529596.541931-2.333502 2.383571-2.630013 2.686722-8.263013 8.448058-12.062697 12.903078-15.080488 18.041977-3.445804 5.86775-5.154087 11.944448-5.154087 19.765948h-47.105953c0-16.503414 4.053872-30.923827 11.737238-44.007586 5.539191-9.432513 11.254114-16.133094 22.080427-27.201856.149499-.152847.6307-.644229 1.149588-1.17416l.348282-.355706c.463217-.473111.904588-.924007 1.117617-1.141998 13.902164-14.225981 17.619089-20.429641 17.619089-30.884941 0-10.843868-3.285736-18.580283-9.014784-23.815958-5.295623-4.839576-12.881021-7.601989-21.017422-7.586703-8.147537.015306-15.766935 2.814914-21.09321 7.689173-5.743038 5.255654-9.026678 12.967744-9.026678 23.713488h-47.105953c0-23.973322 8.754018-44.533365 24.491462-58.935246 14.231083-13.023359 33.150382-19.974907 52.646697-20.01168z" fill-rule="evenodd"/></svg>