<svg height="280" viewBox="0 0 280 280" width="280" xmlns="http://www.w3.org/2000/svg"><path d="m256.734039 249.982797c-1.101233 1.721236-2.929906 2.698244-5.48602 2.931025-2.558352.232781-4.853706-.667007-6.886063-2.699363l-26.882839-26.886197h-131.1977923c-6.5335339 0-12.1269909-2.32669-16.7803712-6.980071-4.6533802-4.651142-6.9800704-10.244599-6.9800704-16.780371v-8.262603h146.1785879c6.674545 0 12.388869-2.377052 17.142972-7.131155 4.754103-4.754102 7.131154-10.469546 7.131154-17.146329v-92.9735976h8.265961c6.533534 0 12.126991 2.3266901 16.780372 6.9800704 4.65338 4.6533802 6.98007 10.2468373 6.98007 16.7803712v143.697456c0 2.477774-.827044 4.509012-2.481131 6.093713-1.65185 1.584701-3.580126 2.377051-5.78483 2.377051zm-221.5895358-86.671725 19.0096963-19.009696h127.6859335c1.204194 0 2.193513-.387222 2.967957-1.161667.774444-.774444 1.161666-1.764882 1.161666-2.971314v-88.8406166c0-1.206432-.387222-2.19687-1.161666-2.9713143-.774444-.7744442-1.763763-1.1616663-2.967957-1.1616663h-142.5626492c-1.2041936 0-2.1946317.3872221-2.9713142 1.1616663-.7744442.7744443-1.1616664 1.7648823-1.1616664 2.9713143zm-8.047729 31.660444c-3.122398 0-5.9191265-1.135926-8.3901856-3.407778-2.4710591-2.274091-3.7065886-5.272265-3.7065886-8.994521v-131.2414386c0-6.6767837 2.3770514-12.392227 7.1311541-17.1463297 4.7541028-4.7541028 10.469546-7.1311542 17.1463297-7.1311542h142.5626492c6.674546 0 12.38887 2.3770514 17.142972 7.1311542 4.754103 4.7541027 7.131155 10.469546 7.131155 17.1463297v88.8406166c0 6.676784-2.377052 12.392227-7.131155 17.14633-4.754102 4.754102-10.468426 7.131154-17.142972 7.131154h-119.3192499l-26.8828395 26.886197c-1.2579123 1.255674-2.6053558 2.176725-4.0423304 2.763154-1.4392128.584191-2.9388591.876286-4.498939.876286zm8.5513416-54.803121v-92.9735972z" fill="#090000"/></svg>