<svg height="642" viewBox="0 0 642 642" width="642" xmlns="http://www.w3.org/2000/svg"><path d="m525.166667 47.5625v371.875h-320.833334c-24.122075 0-43.684515 19.522125-43.749836 43.628892l-.000164 43.871108c0 24.162458 19.587543 43.75 43.75 43.75h320.833334v43.75h-320.833334c-48.324915 0-87.5-39.175084-87.5-87.5v-371.875c0-48.3249156 39.175085-87.5 87.5-87.5zm-43.75 415.625v43.75h-277.083334v-43.75zm0-371.875h-277.083334c-24.162457 0-43.75 19.587542-43.75 43.75l.000491 252.330658c12.869974-7.444766 27.812149-11.705658 43.749509-11.705658h277.083334zm-161.145834 197.604167c12.081229 0 21.875 9.793771 21.875 21.875s-9.793771 21.875-21.875 21.875-21.875-9.793771-21.875-21.875 9.793771-21.875 21.875-21.875zm.639694-163.333334c15.111397-.028017 29.775149 5.262934 40.805329 15.250303 12.193518 11.040722 18.964727 26.836882 18.964727 45.28859 0 11.22407-2.918392 21.147204-8.421569 30.247506-3.930231 6.499207-8.058071 11.27326-15.716566 19.037903-.409889.41557-1.806048 1.827795-2.035536 2.06026-6.395279 6.478227-9.336099 9.894471-11.671762 13.835135-2.66693 4.499568-3.989081 9.159364-3.989081 15.157127h-36.458333c0-12.655317 3.137553-23.713327 9.084205-33.74635 4.287137-7.233136 8.710284-12.371345 17.089466-20.859207.24427-.247437 1.632711-1.651856 2.024293-2.048866 10.759781-10.908913 13.636549-15.666067 13.636549-23.683508 0-8.315406-2.543043-14.247923-6.977122-18.262798-4.098624-3.711133-9.969452-5.829435-16.266738-5.817714-6.305904.011738-12.203047 2.158562-16.325394 5.896291-4.444908 4.030195-6.986328 9.944059-6.986328 18.184221h-36.458334c0-18.383469 6.775299-34.149533 18.955521-45.193331 11.014353-9.986706 25.657218-15.317363 40.746673-15.345562z" fill-rule="evenodd"/></svg>