<svg height="1200" viewBox="0 0 1200 1200" width="1200" xmlns="http://www.w3.org/2000/svg"><path d="m600 360c-132.33 0-240 107.67-240 240s107.67 240 240 240 240-107.67 240-240-107.67-240-240-240m0 540c-165.42 0-300-134.55-300-300 0-165.42 134.58-300 300-300s300 134.58 300 300c0 165.45-134.58 300-300 300m30-210h-60v-90h30c33.09 0 60-26.91 60-60 0-33.12-26.91-60-60-60s-60 26.88-60 60h-60c0-66.18 53.82-120 120-120s120 53.82 120 120c0 55.8-38.31 102.84-90 116.22zm7.5 60c0 20.7-16.8 37.5-37.5 37.5s-37.5-16.8-37.5-37.5 16.8-37.5 37.5-37.5 37.5 16.8 37.5 37.5" fill-rule="evenodd"/></svg>