<svg height="1200" viewBox="0 0 1200 1200" width="1200" xmlns="http://www.w3.org/2000/svg"><path d="m600 900c-165.42 0-300-134.55-300-300 0-165.42 134.58-300 300-300s300 134.58 300 300c0 165.45-134.58 300-300 300zm0-540c-132.33 0-240 107.67-240 240s107.67 240 240 240 240-107.67 240-240-107.67-240-240-240zm-1 430c-21.539105 0-39-17.460895-39-39s17.460895-39 39-39 39 17.460895 39 39-17.460895 39-39 39zm32.570412-118.050505h-64.60245c0-22.633253 5.559596-42.40982 16.096783-60.353262 7.596605-12.936017 15.434214-22.125386 30.28173-37.305402.432834-.442527 2.893086-2.954243 3.586952-3.664271 19.065825-19.509917 24.163323-28.017792 24.163323-42.35649 0-14.87159-4.506153-25.481531-12.363133-32.661885-7.262568-6.637133-17.6654-10.425586-28.823893-10.404622-11.173765.020992-21.623225 3.860454-28.92783 10.545152-7.876167 7.207754-12.379444 17.784334-12.379444 32.521355h-64.60245c0-32.877698 12.005509-61.074329 33.58829-80.825481 19.516914-17.860605 45.463381-27.394157 72.201185-27.444389 26.776684-.050306 52.760161 9.412232 72.305122 27.274025 21.606339 19.745649 33.604602 47.996105 33.604602 80.995845 0 20.073555-5.171253 37.820466-14.922623 54.095794-6.964183 11.62343-14.278523 20.16153-27.849015 34.048114-.726303.743221-3.200231 3.268898-3.606874 3.684648-11.332133 11.585908-16.543128 17.695649-20.681812 24.743283-4.725675 8.0472-7.068463 16.380956-7.068463 27.107586z" fill-rule="evenodd"/></svg>