<svg height="280" viewBox="0 0 280 280" width="280" xmlns="http://www.w3.org/2000/svg"><path d="m59.390681 211.756272c-4.1417762-2.277977-7.3516527-5.332536-9.6296296-9.163679s-3.4169654-8.128236-3.4169654-12.891279v-59.641577l-29.8207885-16.46356c-2.2779769-1.242533-3.9346874-2.795699-4.9701314-4.659498-1.0354441-1.8638-1.5531661-3.934688-1.5531661-6.212665s.517722-4.3488647 1.5531661-6.2126639c1.035444-1.8637993 2.6921545-3.4169654 4.9701314-4.6594982l104.9940265-57.1565114c1.863799-1.035444 3.779371-1.8120271 5.746714-2.3297491 1.967344-.517722 3.98646-.776583 6.057348-.776583s4.090004.258861 6.057348.776583c1.967343.517722 3.882915 1.2943051 5.746714 2.3297491l118.351255 64.6117085c2.070888 1.035444 3.675826 2.536838 4.814814 4.504182 1.138989 1.967343 1.708483 4.090004 1.708483 6.36798v79.522103c0 3.52051-1.190761 6.471526-3.572282 8.853047s-5.332537 3.572282-8.853047 3.572282c-3.520509 0-6.471525-1.190761-8.853046-3.572282s-3.572282-5.332537-3.572282-8.853047v-73.309438l-24.850657 13.667861v59.641577c0 4.763043-1.138989 9.060136-3.416966 12.891279-2.277976 3.831143-5.487853 6.885702-9.629629 9.163679l-62.126643 33.548387c-1.863799 1.035445-3.779371 1.812028-5.746714 2.32975-1.967344.517722-3.98646.776583-6.057348.776583s-4.090004-.258861-6.057348-.776583c-1.967343-.517722-3.882915-1.294305-5.746714-2.32975zm73.930705-63.058542 85.1135-45.973716-85.1135-45.9737153-85.1135007 45.9737153zm0 74.862605 62.126643-33.548388v-46.905615l-50.011948 27.646356c-1.863799 1.035444-3.831143 1.812027-5.902031 2.329749s-4.141776.776583-6.212664.776583-4.141776-.258861-6.212664-.776583-4.038232-1.294305-5.902031-2.329749l-50.0119479-27.646356v46.905615z"/></svg>