<svg height="280" viewBox="0 0 280 280" width="280" xmlns="http://www.w3.org/2000/svg"><path d="m229.044652 20.7437695v162.1884735h-139.9273104c-10.5381436 0-19.0809968 8.542853-19.0809968 19.080997v19.080997c0 10.538143 8.5428532 19.080997 19.0809968 19.080997h139.9273104v19.080997h-139.9273104c-21.0762871 0-38.1619937-17.085707-38.1619937-38.161994v-162.1884738c0-21.0762871 17.0857066-38.1619937 38.1619937-38.1619937zm-19.080997 181.2694705v19.080997h-120.8463134v-19.080997zm0-162.1884736h-120.8463134c-10.5381436 0-19.0809968 8.5428532-19.0809968 19.0809968l-.0002532 110.0510248c5.6131783-3.247106 12.1301837-5.105542 19.08125-5.105542h120.8463134zm-70.281672 86.1825026c5.269072 0 9.540499 4.271427 9.540499 9.540498 0 5.269072-4.271427 9.540499-9.540499 9.540499-5.269071 0-9.540498-4.271427-9.540498-9.540499 0-5.269071 4.271427-9.540498 9.540498-9.540498zm.278994-71.235722c6.590641-.0122191 12.986047 2.2953605 17.796717 6.6512225 5.318045 4.8152682 8.271221 11.7045592 8.271221 19.7520331 0 4.8952329-1.272819 9.2230795-3.672959 13.1920586-1.714119 2.834545-3.514423 4.9166868-6.854577 8.3031358-.178767.181245-.787684.797169-.887773.898555-2.789218 2.825395-4.071819 4.315346-5.090488 6.034015-1.163147 1.962429-1.739786 3.994739-1.739786 6.610586h-15.90083c0-5.519453 1.368403-10.342261 3.961958-14.718035 1.86978-3.1546385 3.798878-5.3956018 7.45335-9.0974729.106535-.1079168.712086-.7204358.882869-.8935866 4.69274-4.7577814 5.947405-6.8325526 5.947405-10.3292559 0-3.6266568-1.109116-6.2140476-3.042982-7.965083-1.787562-1.6185628-4.348048-2.542433-7.094527-2.5373208-2.750239.0051193-5.322202.9414288-7.12011 2.571591-1.938589 1.7577173-3.046997 4.3369727-3.046997 7.9308128h-15.90083c0-8.0177122 2.954958-14.8938771 8.267205-19.7104872 4.803767-4.3555725 11.190064-6.6804699 17.771134-6.6927684z" fill-rule="evenodd"/></svg>