<?xml version="1.0" encoding="UTF-8"?>
<svg width="40px" height="40px" viewBox="0 0 40 40" version="1.1" xmlns="http://www.w3.org/2000/svg" xmlns:xlink="http://www.w3.org/1999/xlink">
    <!-- Generator: Sketch 50.2 (55047) - http://www.bohemiancoding.com/sketch -->
    <title>Icons/help</title>
    <desc>Created with Sketch.</desc>
    <defs>
        <path d="M20,12 C15.589,12 12,15.589 12,20 C12,24.411 15.589,28 20,28 C24.411,28 28,24.411 28,20 C28,15.589 24.411,12 20,12 M20,30 C14.486,30 10,25.515 10,20 C10,14.486 14.486,10 20,10 C25.514,10 30,14.486 30,20 C30,25.515 25.514,30 20,30 M21,23 L19,23 L19,20 L20,20 C21.103,20 22,19.103 22,18 C22,16.896 21.103,16 20,16 C18.897,16 18,16.896 18,18 L16,18 C16,15.794 17.794,14 20,14 C22.206,14 24,15.794 24,18 C24,19.86 22.723,21.428 21,21.874 L21,23 Z M21.25,25 C21.25,25.69 20.69,26.25 20,26.25 C19.31,26.25 18.75,25.69 18.75,25 C18.75,24.31 19.31,23.75 20,23.75 C20.69,23.75 21.25,24.31 21.25,25" id="path-1"></path>
    </defs>
    <g id="Icons/help" stroke="none" stroke-width="1" fill="none" fill-rule="evenodd">
        <mask id="mask-2" fill="white">
            <use xlink:href="#path-1"></use>
        </mask>
        <use id="Mask" fill="#000000" xlink:href="#path-1"></use>
    </g>
</svg>