<svg height="280" viewBox="0 0 280 280" width="280" xmlns="http://www.w3.org/2000/svg"><path d="m217.782 33.9339c3.906-3.9053 10.237-3.9053 14.143 0l14.142 14.1421c3.905 3.9053 3.905 10.2369 0 14.1421l-25.637 25.6368c28.525 19.9471 46.095 43.5791 47.34 45.2781 2.973 4.063 2.973 9.671 0 13.734-2.179 2.973-54.364 73.133-127.77 73.133-15.566 0-30.178-3.155-43.5604-8.155l-34.2206 34.221c-3.9053 3.905-10.2369 3.905-14.1422 0l-14.1421-14.142c-3.9053-3.905-3.9053-10.237 0-14.142zm-39.137 95.7061-49.005 49.005c3.304.884 6.777 1.355 10.36 1.355 22.091 0 40-17.909 40-40 0-3.583-.471-7.056-1.355-10.36zm-38.644992-69.64c6.337992 0 12.516992.523 18.519992 1.4805l-116.7217 116.7215c-17.9298-15.658-28.6078-30.025-29.5684-31.335-2.97319-4.063-2.97319-9.671 0-13.734 2.1791-2.973 54.3637-73.133 127.770108-73.133z" fill-rule="evenodd"/></svg>