<svg height="642" viewBox="0 0 642 642" width="642" xmlns="http://www.w3.org/2000/svg"><path d="m499.300731 77.8639948c8.953763-8.9521581 23.466378-8.9521581 32.42014 0l32.417848 32.4180772c8.95147 8.952158 8.95147 23.466147 0 32.418076l-58.767951 58.767492c65.388142 45.724936 105.664028 99.896805 108.517954 103.79144 6.815037 9.313655 6.815037 22.16893 0 31.482585-4.994944 6.815038-124.619139 167.643505-292.888444 167.643505-35.682097 0-69.17733-7.232238-99.853939-18.693788l-78.444222 78.445139c-8.952158 8.95147-23.466148 8.95147-32.418306 0l-32.4180769-32.417847c-8.9521581-8.951471-8.9521581-23.466378 0-32.417848zm-89.714135 219.3880462-112.334649 112.33465c7.573792 2.026402 15.534984 3.10608 23.748331 3.10608 50.639419 0 91.692398-41.052979 91.692398-91.692398 0-8.213347-1.079678-16.17454-3.10608-23.748332zm-88.586318-159.636466c14.52866 0 28.692844 1.198879 42.45358 3.393765l-267.5623153 267.561858c-30.0034812-26.201883-51.1483667-50.826715-61.2359638-63.382197l-.8041732-1.004564c-3.2465986-4.070641-5.1893027-6.69204-5.7398009-7.442772-6.8154731-9.313655-6.8154731-22.16893 0-31.482585 4.9951726-6.815038 124.6184512-167.643505 292.8886732-167.643505z" fill-rule="evenodd"/></svg>