<svg width="20" height="20" viewBox="0 0 20 20" fill="none" xmlns="http://www.w3.org/2000/svg">
<g clip-path="url(#clip0_2953_18845)">
<path d="M9.99996 15.5556C11.532 15.5657 13.0354 15.1395 14.3342 14.3269L12.3913 12.3868C11.8072 12.8182 11.0968 13.0551 10.3619 13.0552C9.45573 13.0554 8.58658 12.6955 7.94569 12.0547C7.30479 11.414 6.94465 10.5448 6.94449 9.6385C6.94436 8.90501 7.18002 8.19579 7.60949 7.6122L5.66663 5.67224C4.17774 6.59446 2.8444 8.03705 1.66663 10C3.88885 13.7037 6.66663 15.5556 9.99996 15.5556Z" fill="black"/>
<path d="M9.94786 6.24572L8.31477 4.61113C8.86944 4.49884 9.43405 4.443 9.99996 4.44446C13.3333 4.44446 16.1111 6.29631 18.3333 10C17.7166 11.0278 17.0564 11.9139 16.3537 12.6574L13.7528 10.0541C13.7696 9.91655 13.7782 9.7774 13.7782 9.63736C13.778 8.73102 13.4179 7.86187 12.777 7.22111C12.1361 6.58035 11.2669 6.22046 10.3607 6.22062C10.222 6.22065 10.0842 6.22911 9.94786 6.24572Z" fill="black"/>
<path d="M2.49996 2.5L17.5 17.5M14.3342 14.3269C13.0354 15.1395 11.532 15.5657 9.99996 15.5556C6.66663 15.5556 3.88885 13.7037 1.66663 10C2.8444 8.03705 4.17774 6.59446 5.66663 5.67224L7.60949 7.6122C7.18002 8.19579 6.94436 8.90501 6.94449 9.6385C6.94465 10.5448 7.30479 11.414 7.94569 12.0547C8.58658 12.6955 9.45573 13.0554 10.3619 13.0552C11.0968 13.0551 11.8072 12.8182 12.3913 12.3868L14.3342 14.3269ZM9.94786 6.24572L8.31477 4.61113C8.86944 4.49884 9.43405 4.443 9.99996 4.44446C13.3333 4.44446 16.1111 6.29631 18.3333 10C17.7166 11.0278 17.0564 11.9139 16.3537 12.6574L13.7528 10.0541C13.7696 9.91655 13.7782 9.7774 13.7782 9.63736C13.778 8.73102 13.4179 7.86187 12.777 7.22111C12.1361 6.58035 11.2669 6.22046 10.3607 6.22062C10.222 6.22065 10.0842 6.22911 9.94786 6.24572Z" stroke="black" stroke-width="2" stroke-linecap="round" stroke-linejoin="round"/>
</g>
<defs>
<clipPath id="clip0_2953_18845">
<rect width="20" height="20" fill="white"/>
</clipPath>
</defs>
</svg>
