<svg height="642" viewBox="0 0 642 642" width="642" xmlns="http://www.w3.org/2000/svg"><path d="m417.55625 80.375 100.31875 100.31875v337.18125c0 24.128125-19.621875 43.75-43.75 43.75h-306.25c-24.128125 0-43.75-19.621875-43.75-43.75v-393.75c0-24.128125 19.621875-43.75 43.75-43.75zm-30.93125 43.75h-218.75v393.75h306.271875l-.021875-306.25h-87.5zm-21.875 196.896875 65.625 131.25h-218.75l65.625-87.5 43.75 43.75zm-87.5-65.625c24.15 0 43.75 19.578125 43.75 43.75s-19.6 43.75-43.75 43.75c-24.19375 0-43.75-19.578125-43.75-43.75s19.55625-43.75 43.75-43.75z" fill-rule="evenodd"/></svg>