<svg height="642" viewBox="0 0 642 642" width="642" xmlns="http://www.w3.org/2000/svg"><path d="m321 46c151.877917 0 275 123.121625 275 275 0 151.877917-123.122083 275-275 275-151.878375 0-275-123.122083-275-275 0-151.878375 123.121625-275 275-275zm22.916667 252.083333h-68.75c-12.656875 0-22.916667 10.259792-22.916667 22.916667s10.259792 22.916667 22.916667 22.916667v91.666666c-12.656875 0-22.916667 10.259792-22.916667 22.916667s10.259792 22.916667 22.916667 22.916667h91.666666c12.656875 0 22.916667-10.259792 22.916667-22.916667s-10.259792-22.916667-22.916667-22.916667v-114.583333c0-12.656875-10.259791-22.916667-22.916666-22.916667zm-22.916667-137.5c-25.31375 0-45.833333 20.520271-45.833333 45.833334 0 25.31375 20.519583 45.833333 45.833333 45.833333s45.833333-20.519583 45.833333-45.833333c0-25.313063-20.519583-45.833334-45.833333-45.833334z" fill-rule="evenodd"/></svg>