<?xml version="1.0" encoding="UTF-8"?>
<svg width="40px" height="40px" viewBox="0 0 40 40" version="1.1" xmlns="http://www.w3.org/2000/svg" xmlns:xlink="http://www.w3.org/1999/xlink">
    <!-- Generator: Sketch 50.2 (55047) - http://www.bohemiancoding.com/sketch -->
    <title>Icons/Information</title>
    <desc>Created with Sketch.</desc>
    <defs>
        <path d="M20,12 C15.589,12 12,15.589 12,20 C12,24.411 15.589,28 20,28 C24.411,28 28,24.411 28,20 C28,15.589 24.411,12 20,12 M20,30 C14.486,30 10,25.515 10,20 C10,14.486 14.486,10 20,10 C25.514,10 30,14.486 30,20 C30,25.515 25.514,30 20,30 M21,23 L21,19 C21,18.448 20.552,18 20,18 L18,18 L18,20 L19,20 L19,23 L17,23 L17,25 L23,25 L23,23 L21,23 Z M21.25,16 C21.25,16.69 20.69,17.25 20,17.25 C19.31,17.25 18.75,16.69 18.75,16 C18.75,15.31 19.31,14.75 20,14.75 C20.69,14.75 21.25,15.31 21.25,16" id="path-1"></path>
    </defs>
    <g id="Icons/Information" stroke="none" stroke-width="1" fill="none" fill-rule="evenodd">
        <mask id="mask-2" fill="white">
            <use xlink:href="#path-1"></use>
        </mask>
        <use id="Mask" fill="#414453" opacity="0" xlink:href="#path-1"></use>
        <g id="Atoms/Colors/Idle" mask="url(#mask-2)" fill="#59636B" opacity="0.25">
            <rect id="State" x="-2" y="-2" width="40" height="40"></rect>
        </g>
    </g>
</svg>