<svg height="642" viewBox="0 0 642 642" width="642" xmlns="http://www.w3.org/2000/svg"><path d="m321 102.25c120.61875 0 218.75 98.13125 218.75 218.75 0 120.640625-98.13125 218.75-218.75 218.75s-218.75-98.109375-218.75-218.75c0-120.61875 98.13125-218.75 218.75-218.75zm0 43.75c-96.490625 0-175 78.509375-175 175s78.509375 175 175 175 175-78.509375 175-175-78.509375-175-175-175zm0 131.25c12.075 0 21.875 9.8 21.875 21.875v87.5h43.75v43.75h-131.25v-43.75h43.75v-65.625h-21.875v-43.75zm0-71.09375c15.09375 0 27.34375 12.25 27.34375 27.34375s-12.25 27.34375-27.34375 27.34375-27.34375-12.25-27.34375-27.34375 12.25-27.34375 27.34375-27.34375z" fill-rule="evenodd"/></svg>