<svg height="280" viewBox="0 0 280 280" width="280" xmlns="http://www.w3.org/2000/svg"><path d="m140 20c66.274 0 120 53.7258 120 120 0 66.274-53.726 120-120 120-66.2742 0-120-53.726-120-120 0-66.2742 53.7258-120 120-120zm10 110h-30c-5.523 0-10 4.477-10 10s4.477 10 10 10v40c-5.523 0-10 4.477-10 10s4.477 10 10 10h40c5.523 0 10-4.477 10-10s-4.477-10-10-10v-50c0-5.523-4.477-10-10-10zm-10-60c-11.046 0-20 8.9543-20 20 0 11.046 8.954 20 20 20s20-8.954 20-20c0-11.0457-8.954-20-20-20z" fill-rule="evenodd"/></svg>