<svg height="40" viewBox="0 0 40 40" width="40" xmlns="http://www.w3.org/2000/svg"><path d="m19.9711111 28.0463492v-.0057143c1.4609524 0 2.9225397.0361905 4.3819048-.0111111 1.1895238-.0384127 2.2457143-.447619 2.9742857-1.46.4911111-.6825397.704127-1.4726984.7101587-2.2961905.0206349-2.8384127.0539683-5.6777777-.0012698-8.5152381-.0473016-2.4311111-1.4076191-3.8101587-3.8257143-3.8638095-2.82-.0625397-5.6438095-.0638095-8.464127-.0012698-2.4419048.0546031-3.7990476 1.4050793-3.8523809 3.8336508-.0622223 2.8368254-.06 5.6771428.0019047 8.5139682.0514286 2.3615873 1.4406349 3.7174603 3.7930159 3.7968254 1.4257143.048254 2.8546032.0088889 4.2822222.0088889m-9.9711111-4.0952381v-7.9720635c.031746-.227619.0790476-.4539682.0926984-.6825397.1514286-2.571746 1.7844445-4.5168254 4.2765079-5.0565079.5292064-.1146032 1.0726985-.1619048 1.6098413-.24h7.9720635c.2107937.0311111.4206349.0790476.632381.0907937 2.9536508.1619047 5.1555555 2.2926984 5.2292063 5.2390476.0774603 3.1009524.08 6.2069841-.0031746 9.307619-.0780952 2.8977778-2.2723809 5.0942857-5.1698413 5.171746-3.1171428.0834921-6.2396825.0761905-9.3574603.0009524-2.5746032-.0622222-4.5320635-1.7942857-5.051746-4.2904762-.1076191-.5165079-.1552381-1.0453968-.2304762-1.5685714m13.266-3.9787619c.0022222-1.8555555-1.4533333-3.3136508-3.3063492-3.3123809-1.8530159.0015873-3.3038095 1.4603174-3.2996825 3.3177777.0044444 1.828254 1.4539682 3.2812699 3.2803174 3.288254 1.8574603.0069841 3.3234921-1.4450794 3.3257143-3.2936508m-3.3453968 5.1c-2.8561905-.027619-5.1034921-2.3171429-5.0685715-5.164127.0349207-2.8571428 2.3273016-5.095873 5.1768254-5.0561905 2.8355556.0393651 5.060635 2.3066667 5.0434921 5.1396826-.0171429 2.8536508-2.3031746 5.108254-5.151746 5.0806349m5.3522857-11.6129206c.684127-.0031746 1.1939682.5 1.195873 1.1806349.0015873.6663492-.5288889 1.2088889-1.1847619 1.2111111-.6434921.0022222-1.2088889-.5565079-1.2139683-1.1993651-.0053968-.6520635.536508-1.1892063 1.2028572-1.1923809" fill-rule="evenodd"/></svg>