<svg height="1200" viewBox="0 0 1200 1200" width="1200" xmlns="http://www.w3.org/2000/svg"><path d="m599.133333 841.390476v-.171428c43.828572 0 87.676191 1.085714 131.457143-.333334 35.685714-1.152381 67.371429-13.428571 89.228572-43.8 14.733333-20.47619 21.123809-44.180952 21.304762-68.885714.619047-85.152381 1.619047-170.333333-.038096-255.457143-1.419047-72.933333-42.228571-114.304762-114.771428-115.914286-84.6-1.87619-169.314286-1.914285-253.92381-.038095-73.257143 1.638095-113.971428 42.152381-115.571428 115.009524-1.866667 85.104762-1.8 170.314286.057142 255.419048 1.542858 70.847619 43.219048 111.523809 113.790477 113.904762 42.771428 1.447619 85.638095.266666 128.466666.266666m-299.133333-122.857143v-239.161904c.952381-6.828572 2.371429-13.619048 2.780952-20.476191 4.542858-77.152381 53.533334-135.504762 128.295238-151.695238 15.876191-3.438095 32.180953-4.857143 48.295239-7.2h239.161904c6.32381.933333 12.619048 2.371429 18.971429 2.72381 88.609524 4.857142 154.666667 68.780952 156.87619 157.171428 2.32381 93.028572 2.4 186.209524-.095238 279.228572-2.342857 86.933333-68.171428 152.828571-155.095238 155.15238-93.514286 2.504762-187.190476 2.285715-280.723809.028572-77.238096-1.866667-135.961905-53.828572-151.552381-128.714286-3.228572-15.495238-4.657143-31.361905-6.914286-47.057143m397.98-119.362857c.066667-55.666666-43.6-99.409524-99.190476-99.371428-55.590476.047619-99.114286 43.809523-98.990476 99.533333.133333 54.847619 43.619047 98.438095 98.409523 98.647619 55.72381.209524 99.704762-43.352381 99.771429-98.809524m-100.361905 153c-85.685714-.828571-153.104762-69.514286-152.057143-154.923809 1.047619-85.714286 69.819048-152.876191 155.304762-151.685715 85.066667 1.180953 151.819048 69.2 151.304762 154.190477-.514286 85.609523-69.095238 153.247619-154.552381 152.419047m160.568572-348.387619c20.523809-.095238 35.819047 15 35.87619 35.419048.047619 19.990476-15.866667 36.266666-35.542857 36.333333-19.304762.066667-36.266667-16.695238-36.419048-35.980952-.161904-19.561905 16.095238-35.676191 36.085715-35.771429" fill-rule="evenodd"/></svg>