<svg height="280" viewBox="0 0 280 280" width="280" xmlns="http://www.w3.org/2000/svg"><path d="m140 20.0623053c66.133645 0 119.937695 53.8040498 119.937695 119.9376947 0 66.145639-53.80405 119.937695-119.937695 119.937695-66.1336449 0-119.9376947-53.792056-119.9376947-119.937695 0-66.1336449 53.8040498-119.9376947 119.9376947-119.9376947zm47.000616 51.5732087h-94.4054943c-8.4835769 0-15.3625153 7.2994081-15.3625153 16.3020114v95.5793086c0 9.002603 6.8789384 16.302011 15.3625153 16.302011h71.6634293c1.704314.66458 3.448856 1.345668 5.208536 2.033315l1.587123.620385c1.413205.55255 2.831282 1.107389 4.241385 1.659423l1.055882.413421c13.526146 5.296769 26.016124 10.215774 26.016124 10.215774v-44.507306h-.004469v-82.3163316c0-9.0026033-6.878939-16.3020114-15.362516-16.3020114zm-91.1133033 89.530403c1.4761118-1.818453 4.0495043-2.03121 5.7707503-.4771.241566.214695 13.800592 12.003831 38.337464 12.003831 24.348628 0 37.66006-11.404763 38.309089-11.973215l.023901-.021074c1.721392-1.56168 4.301493-1.35083 5.779697.472329.707358.873847 1.058423 2.012664.975274 3.163697-.083148 1.151032-.59363 2.219059-1.418146 2.967035l-.055561.049672c-1.192227 1.058091-16.323975 14.039086-43.614254 14.039086-27.285896 0-42.4175562-12.980995-43.6097816-14.039086l-.0555611-.049672c-.8258575-.748101-1.337225-1.817108-1.4203932-2.969313s.2687575-2.292091.9775216-3.16619z" fill-rule="evenodd"/></svg>