<svg height="1200" viewBox="0 0 1200 1200" width="1200" xmlns="http://www.w3.org/2000/svg"><path d="m600 900c-165.42 0-300-134.55-300-300 0-165.42 134.58-300 300-300s300 134.58 300 300c0 165.45-134.58 300-300 300zm156-113v-111.326066h-.01118v-205.897734c0-22.5182-17.206279-40.7762-38.426239-40.7762h-236.136342c-21.21996 0-38.426239 18.258-38.426239 40.7762v239.0724c0 22.5182 17.206279 40.7762 38.426239 40.7762h179.251643c42.629983 16.623134 95.322118 37.3752 95.322118 37.3752zm-45.672182-134.045786c1.769315 2.185752 2.647431 5.034275 2.439453 7.91335-.207979 2.879076-1.484846 5.550531-3.547207 7.421443-1.5889 1.432043-39.577027 35.24019-109.231253 35.24019-69.643037 0-107.631165-33.808147-109.220064-35.24019-2.065716-1.871225-3.344799-4.545131-3.552828-7.427139-.208028-2.882009.672243-5.733205 2.445074-7.919587 3.692196-4.548495 10.129019-5.080664 14.434369-1.19337.60423.537017 34.519404 30.025167 95.893449 30.025167 62.146115 0 95.546575-29.702957 95.882259-30.0013 4.305716-3.906229 10.75932-3.378828 14.456748 1.181436z"/></svg>