<svg height="642" viewBox="0 0 642 642" width="642" xmlns="http://www.w3.org/2000/svg"><path d="m321 46c151.635 0 275 123.365 275 275 0 151.6625-123.365 275-275 275s-275-123.3375-275-275c0-151.635 123.365-275 275-275zm107.765699 118.25h-216.458313c-19.45163 0-35.224053 16.7365-35.224053 37.378183v219.1497c0 20.641684 15.772423 37.378184 35.224053 37.378184h164.314006c39.077484 15.237872 87.378608 34.2606 87.378608 34.2606v-102.048894h-.010248v-188.73959c0-20.641683-15.772423-37.378183-35.224053-37.378183zm-208.909789 205.280424c3.384513-4.169454 9.284935-4.657275 13.231506-1.093922.553876.492265 31.642786 27.523069 87.902327 27.523069 55.827927 0 86.349138-26.149493 87.837269-27.45287l.054802-.048321c3.946907-3.58071 9.86271-3.097259 13.252019 1.082983 1.621872 2.003605 2.426812 4.614752 2.236165 7.253904-.190647 2.639153-1.361109 5.087986-3.251606 6.80299-1.456492 1.312706-36.278942 32.303507-100.128649 32.303507-63.83945 0-98.661901-30.990801-100.118392-32.303507-1.893573-1.71529-3.066066-4.16637-3.256759-6.808212-.190692-2.641841.616223-5.255438 2.241318-7.259621z" fill-rule="evenodd"/></svg>