<svg height="642" viewBox="0 0 642 642" width="642" xmlns="http://www.w3.org/2000/svg"><path d="m321 102.25c120.61875 0 218.75 98.13125 218.75 218.75 0 120.640625-98.13125 218.75-218.75 218.75s-218.75-98.109375-218.75-218.75c0-120.61875 98.13125-218.75 218.75-218.75zm85.722715 94.0625h-172.182749c-15.472887 0-28.019133 13.313125-28.019133 29.732646v174.323625c0 16.419521 12.546246 29.732646 28.019133 29.732646h130.704323c31.084363 12.121035 69.505711 27.25275 69.505711 27.25275v-81.175257h-.008152v-150.133764c0-16.419521-12.546245-29.732646-28.019133-29.732646zm-166.178241 163.291247c2.692226-3.316611 7.385743-3.704651 10.525061-.870166.440584.391574 25.170398 21.893351 69.922306 21.893351 45.314876 0 69.669378-21.658406 69.914147-21.875948 3.139585-2.848292 7.845338-2.463729 10.541379.861464 1.290126 1.593777 1.930419 3.670825 1.778768 5.770151s-1.0827 4.047262-2.586505 5.411469c-1.158573 1.044198-28.858249 25.695972-79.647789 25.695972-50.781381 0-78.481057-24.651774-79.63963-25.695972-1.506251-1.364435-2.438916-3.314158-2.590603-5.415623-.151688-2.101465.490177-4.180462 1.782866-5.774698z" fill-rule="evenodd"/></svg>