<svg height="280" viewBox="0 0 280 280" width="280" xmlns="http://www.w3.org/2000/svg"><path d="m165.497869 20c30.179641 0 54.610778 24.4311377 54.610778 54.6107784v3.8323354c-5.269461-2.3952096-11.017964-3.3532934-16.766467-3.3532934-5.269461 0-10.05988.9580838-14.371257 2.3952095v-3.3532934c0-12.9341317-10.538922-23.4730539-23.473054-23.4730539h-51.257485c-12.934132 0-23.4730541 10.5389222-23.4730541 23.4730539v131.2574855c0 12.934131 10.5389221 23.473053 23.4730541 23.473053h51.257485c12.934132 0 23.473054-10.538922 23.473054-23.473053v-23.473054l31.137724-35.928144v59.401198c0 30.17964-24.431137 54.610778-54.610778 54.610778h-51.257485c-30.179641 0-54.6107787-24.431138-54.6107787-54.610778v-130.7784436c0-30.1796407 24.4311377-54.6107784 54.6107787-54.6107784zm20.11976 86.706587c8.622755-9.5808385 23.473054-11.0179642 33.053892-2.39521l.160702.166545c1.780885 1.913084 2.17976 4.678622.31834 6.540042l-55.08982 63.233533c-7.664671 9.101796-21.077844 8.622754-28.263473-.479042l-10.538922-12.934132c-7.185629-9.101796-6.706587-22.035928 1.437126-30.658682l.156092-.178918c2.44188-2.673865 7.080498-2.155138 9.424746.65796l12.45509 15.329341c.958084.958084 1.916167.958084 2.874251 0z"/></svg>