<svg height="642" viewBox="0 0 642 642" width="642" xmlns="http://www.w3.org/2000/svg"><path d="m455.809546 58.5c26.222597 0 47.482121 21.3313465 47.482121 47.642533v429.714934c0 26.311187-21.259524 47.642533-47.482121 47.642533h-269.619092c-26.222597 0-47.482121-21.331346-47.482121-47.642533v-429.714934c0-26.3111865 21.259524-47.642533 47.482121-47.642533zm-84.614782 108.672546h-98.863309c-25.7764 0-46.672103 20.968592-46.672103 46.832074v213.993056c0 25.863482 20.895703 46.827482 46.672103 46.827482h98.863309c25.7764 0 46.672103-20.964 46.672103-46.827482v-213.993056c0-25.863482-20.895703-46.832074-46.672103-46.832074zm-33.040014 58.165629c24.646037 0 44.626466 20.045634 44.626466 44.777231v103.300104c0 24.731597-19.980429 44.779527-44.626466 44.779527h-32.782823c-24.646037 0-44.626466-20.04793-44.626466-44.779527v-103.300104c0-24.731597 19.980429-44.777231 44.626466-44.777231z" fill-rule="evenodd"/></svg>