<svg height="280" viewBox="0 0 280 280" width="280" xmlns="http://www.w3.org/2000/svg"><path d="m198.795441 25.5140187c11.436646 0 20.708713 9.303391 20.708713 20.7786746v187.4146137c0 11.475283-9.272067 20.778674-20.708713 20.778674h-117.5908816c-11.4366465 0-20.7087131-9.303391-20.7087131-20.778674v-187.4146137c0-11.4752836 9.2720666-20.7786746 20.7087131-20.7786746zm-36.903644 47.3961258h-43.117954c-11.242043 0-20.355434 9.1451803-20.355434 20.4252039v93.3303046c0 11.280024 9.113391 20.423201 20.355434 20.423201h43.117954c11.242044 0 20.355435-9.143177 20.355435-20.423201v-93.3303046c0-11.2800236-9.113391-20.4252039-20.355435-20.4252039zm-14.409975 25.3681873c10.749051 0 19.463257 8.7426442 19.463257 19.5290102v45.053005c0 10.786366-8.714206 19.530012-19.463257 19.530012h-14.297804c-10.74905 0-19.463256-8.743646-19.463256-19.530012v-45.053005c0-10.786366 8.714206-19.5290102 19.463256-19.5290102z" fill-rule="evenodd"/></svg>