<svg height="1200" viewBox="0 0 1200 1200" width="1200" xmlns="http://www.w3.org/2000/svg"><path d="m784.881663 240c35.962418 0 65.118337 29.254418 65.118337 65.33833v589.32334c0 36.083912-29.155919 65.33833-65.118337 65.33833h-369.763326c-35.962418 0-65.118337-29.254418-65.118337-65.33833v-589.32334c0-36.083912 29.155919-65.33833 65.118337-65.33833zm-52.035674 506.739669v-293.47619c0-35.469919-28.656963-64.226845-64.007456-64.226845h-135.583966c-35.350492 0-64.007456 28.756926-64.007456 64.226845v293.47619c0 35.46992 28.656964 64.220548 64.007456 64.220548h135.583966c35.350493 0 64.007456-28.750628 64.007456-64.220548zm-109.319475-13.443618h-44.959299c-33.80028 0-61.202011-27.494304-61.202011-61.411923v-141.668714c0-33.917619 27.401731-61.408774 61.202011-61.408774h44.959299c33.80028 0 61.202011 27.491155 61.202011 61.408774v141.668714c0 33.917619-27.401731 61.411923-61.202011 61.411923z" fill-rule="evenodd"/></svg>