<svg height="642" viewBox="0 0 642 642" width="642" xmlns="http://www.w3.org/2000/svg"><path d="m52.609094 366.832863v-320.832863h313.121905v320.832863zm77.095026-48.262417 79.465926-40.699849 79.465927 40.699849 19.995054-40.975011-49.451144-25.345776 4.719235-2.429136c7.459928-3.810536 12.213306-11.547368 12.3647-20.067847l.003727-.419658v-45.833282h44.731545v-45.833282h-89.463453v-45.8332814h-44.731545v45.8332814h-89.4634533v45.833282h44.7319083v45.833282c0 8.545328 4.633057 16.358527 12.00339 20.29695l.364674.190555 4.719234 2.429136-49.450779 25.345776zm79.467018-91.946457-22.365954-11.458138v-31.670846h44.731545v31.670846zm89.464182 369.376011c-12.222763 0-22.165328-10.063268-22.365955-22.536832v-.378717-160.416122h44.731545v137.496933h223.658087v-229.164589h-134.195726v-45.833281h156.561681c12.244022 0 22.165752 10.062197 22.365954 22.537859v.378781 275.000419c0 12.521477-9.79929 22.709959-21.995642 22.915549h-.370312zm87.648699-59.720192-41.108224-18.060189 67.096407-160.416123c3.51231-8.433184 11.63248-13.887638 20.557024-13.887638 8.807246 0 16.795476 5.29042 20.390588 13.506372l.162796.381266 67.097863 160.416123-41.110408 18.060189-13.375896-31.945644h-66.333526zm32.543282-77.780381h28.022048l-14.020123-33.481597z" fill-rule="evenodd"/></svg>