<svg height="642" viewBox="0 0 642 642" width="642" xmlns="http://www.w3.org/2000/svg"><path d="m321 102.25c120.815625 0 218.75 97.934375 218.75 218.75s-97.934375 218.75-218.75 218.75-218.75-97.934375-218.75-218.75 97.934375-218.75 218.75-218.75zm43.75 306.25h-87.5v81.76875c14 3.609375 28.6125 5.73125 43.75 5.73125s29.75-2.121875 43.75-5.73125zm107.646875 0h-63.896875v63.896875c26.490625-15.35625 48.540625-37.384375 63.896875-63.896875zm-238.896875 0h-63.896875c15.35625 26.5125 37.40625 48.540625 63.896875 63.896875zm0-131.25h-81.76875c-3.609375 14-5.73125 28.6125-5.73125 43.75s2.121875 29.75 5.73125 43.75h81.76875zm131.25 0h-87.5v87.5h87.5zm125.51875 0h-81.76875v87.5h81.76875c3.609375-14 5.73125-28.6125 5.73125-43.75s-2.121875-29.75-5.73125-43.75zm-256.76875-107.646875c-26.490625 15.35625-48.540625 37.40625-63.896875 63.896875h63.896875zm87.5-23.603125c-15.1375 0-29.75 2.121875-43.75 5.73125v81.76875h87.5v-81.76875c-14-3.609375-28.6125-5.73125-43.75-5.73125zm87.5 23.603125v63.896875h63.896875c-15.35625-26.490625-37.40625-48.540625-63.896875-63.896875z" fill-rule="evenodd"/></svg>