<svg height="280" viewBox="0 0 280 280" width="280" xmlns="http://www.w3.org/2000/svg"><path d="m216.270277 149.540498v10.504089c6.071543 1.240265 11.704638 3.673092 16.699125 6.983645l7.482199-7.489291 13.467958 13.499805-7.472667 7.47021c3.326481 5.008762 5.747472 10.656737 6.986563 16.734035h10.503673v19.080997h-10.503673c-1.239091 6.077297-3.660082 11.715732-6.9675 16.714953l7.463136 7.47021-13.467959 13.499805-7.472667-7.47021c-4.994487 3.310553-10.637114 5.74338-16.708656 6.983645v10.504089h-19.062928v-10.504089c-6.071543-1.240265-11.714169-3.663551-16.708656-6.974104l-7.463137 7.47975-13.487021-13.480724 7.463136-7.489291c-3.316949-5.008762-5.737941-10.647196-6.977031-16.734034h-10.503674v-19.080997h10.503674c1.23909-6.077298 3.660082-11.715732 6.977031-16.724494l-7.463136-7.46067 13.467958-13.499805 7.472668 7.47021c5.004019-3.310553 10.637114-5.74338 16.708656-6.983645v-10.504089zm-76.270277-104.9454824c52.692173 0 95.404984 42.7128115 95.404984 95.4049844h-19.080996c0-6.602025-.925429-12.975078-2.499611-19.080997h-35.662383v19.080997h-19.080997v-19.080997h-38.161994v38.161994h19.080997v19.080997h-19.080997v35.662383c6.105919 1.574182 12.478972 2.499611 19.080997 2.499611v19.080996c-52.6921729 0-95.4049844-42.712811-95.4049844-95.404984 0-52.6921729 42.7128115-95.4049844 95.4049844-95.4049844zm66.76542 143.1074764c-10.541799 0-19.062928 8.538746-19.062928 19.080997 0 10.52317 8.521129 19.080997 19.062928 19.080997 10.522736 0 19.062928-8.557827 19.062928-19.080997 0-10.542251-8.540192-19.080997-19.062928-19.080997zm-104.927414-9.540498h-27.8677957c6.6974299 11.563084 16.3142523 21.170366 27.8677957 27.867796zm0-57.242991h-35.6623829c-1.5741823 6.105919-2.4996106 12.478972-2.4996106 19.080997s.9254283 12.975078 2.4996106 19.080997h35.6623829zm0-46.9487927c-11.5535434 6.6974299-21.1703658 16.3142523-27.8677957 27.8677957h27.8677957zm38.161994-10.2941978c-6.602025 0-12.975078.9254283-19.080997 2.4996106v35.6623829h38.161994v-35.6623829c-6.105919-1.5741823-12.478972-2.4996106-19.080997-2.4996106zm38.161994 10.2941978v27.8677957h27.867796c-6.69743-11.5535434-16.314253-21.1703658-27.867796-27.8677957z" fill-rule="evenodd"/></svg>