<svg height="280" viewBox="0 0 280 280" width="280" xmlns="http://www.w3.org/2000/svg"><path d="m164 190c3.314 0 6 2.686 6 6v55.568c0 2.738-1.85 5.144-4.526 5.723-8.21 1.774-16.733 2.709-25.474 2.709s-17.264-.935-25.474-2.709c-2.676-.579-4.526-2.985-4.526-5.723v-55.568c0-3.314 2.686-6 6-6zm75.764 0c4.373 0 7.253 4.522 5.124 8.342-10.876 19.51-27.036 35.67-46.546 46.546-3.82 2.129-8.342-.751-8.342-5.124v-43.764c0-3.314 2.686-6 6-6zm-155.764 0c3.3137 0 6 2.686 6 6v43.764c0 4.373-4.5221 7.253-8.342 5.124-19.5098-10.876-35.6705-27.036-46.5457-46.546-2.1293-3.82.7509-8.342 5.1241-8.342zm80-80c3.314 0 6 2.686 6 6v48c0 3.314-2.686 6-6 6h-48c-3.314 0-6-2.686-6-6v-48c0-3.314 2.686-6 6-6zm87.568 0c2.738 0 5.144 1.85 5.723 4.526 1.774 8.21 2.709 16.733 2.709 25.474s-.935 17.264-2.709 25.474c-.579 2.676-2.985 4.526-5.723 4.526h-55.568c-3.314 0-6-2.686-6-6v-48c0-3.314 2.686-6 6-6zm-167.568 0c3.3137 0 6 2.686 6 6v48c0 3.314-2.6863 6-6 6h-55.5682c-2.7377 0-5.144-1.85-5.7225-4.526-1.7747-8.21-2.7093-16.733-2.7093-25.474s.9346-17.264 2.7094-25.474c.5784-2.676 2.9847-4.526 5.7224-4.526zm56-90c8.741 0 17.264.9346 25.474 2.7094 2.676.5784 4.526 2.9847 4.526 5.7224v55.5682c0 3.3137-2.686 6-6 6h-48c-3.314 0-6-2.6863-6-6v-55.5682c0-2.7377 1.85-5.144 4.526-5.7224 8.21-1.7748 16.733-2.7094 25.474-2.7094zm50 20.2364c0-4.3732 4.522-7.2534 8.342-5.1241 19.51 10.8752 35.67 27.0359 46.546 46.5457 2.129 3.8199-.751 8.342-5.124 8.342h-43.764c-3.314 0-6-2.6863-6-6zm-108.342-5.1241c3.8199-2.1293 8.342.7509 8.342 5.1241v43.7636c0 3.3137-2.6863 6-6 6h-43.7636c-4.3732 0-7.2534-4.5221-5.1241-8.342 10.8752-19.5098 27.0359-35.6705 46.5457-46.5457z"/></svg>