<svg height="1200" viewBox="0 0 1200 1200" width="1200" xmlns="http://www.w3.org/2000/svg"><path d="m720 807.63v-87.63h87.63c-21.06 36.36-51.3 66.57-87.63 87.63zm-180 24.51v-112.14h120v112.14c-19.2 4.95-39.24 7.86-60 7.86s-40.8-2.91-60-7.86zm-147.63-112.14h87.63v87.63c-36.33-21.06-66.57-51.27-87.63-87.63zm-24.51-180h112.14v120h-112.14c-4.95-19.2-7.86-39.24-7.86-60s2.91-40.8 7.86-60zm112.14-147.63v87.63h-87.63c21.06-36.33 51.3-66.57 87.63-87.63zm180-24.51v112.14h-120v-112.14c19.2-4.95 39.24-7.86 60-7.86s40.8 2.91 60 7.86zm-120 292.14h120v-120h-120zm300-60c0 20.76-2.91 40.8-7.86 60h-112.14v-120h112.14c4.95 19.2 7.86 39.24 7.86 60zm-32.37-120h-87.63v-87.63c36.33 21.06 66.57 51.3 87.63 87.63zm-207.63-180c-165.69 0-300 134.31-300 300s134.31 300 300 300 300-134.31 300-300-134.31-300-300-300z" fill-rule="evenodd"/></svg>