<svg height="642" viewBox="0 0 642 642" width="642" xmlns="http://www.w3.org/2000/svg"><path d="m495.87685 342.875v24.084375c13.921179 2.84375 26.837062 8.421875 38.288707 16.0125l17.155614-17.171875 30.880104 30.953125-17.133759 17.128125c7.627145 11.484375 13.178134 24.434375 16.019191 38.36875h24.083422v43.75h-24.083422c-2.841057 13.934375-8.392046 26.8625-15.975482 38.325l17.111905 17.128125-30.880105 30.953125-17.133759-17.128125c-11.451646 7.590625-24.389383 13.16875-38.310562 16.0125v24.084375h-43.70857v-24.084375c-13.92118-2.84375-26.858917-8.4-38.310562-15.990625l-17.111905 17.15-30.923813-30.909375 17.111905-17.171875c-7.605291-11.484375-13.15628-24.4125-15.997337-38.36875h-24.083422v-43.75h24.083422c2.841057-13.934375 8.392046-26.8625 15.997337-38.346875l-17.111905-17.10625 30.880104-30.953125 17.13376 17.128125c11.473499-7.590625 24.389382-13.16875 38.310561-16.0125v-24.084375zm-174.87685-240.625c120.815625 0 218.75 97.934375 218.75 218.75h-43.75c0-15.1375-2.121875-29.75-5.73125-43.75h-81.76875v43.75h-43.75v-43.75h-87.5v87.5h43.75v43.75h-43.75v81.76875c14 3.609375 28.6125 5.73125 43.75 5.73125v43.75c-120.815625 0-218.75-97.934375-218.75-218.75s97.934375-218.75 218.75-218.75zm153.08357 328.125c-24.170839 0-43.70857 19.578125-43.70857 43.75 0 24.128125 19.537731 43.75 43.70857 43.75 24.127131 0 43.70857-19.621875 43.70857-43.75 0-24.171875-19.581439-43.75-43.70857-43.75zm-240.58357-21.875h-63.896875c15.35625 26.5125 37.40625 48.540625 63.896875 63.896875zm0-131.25h-81.76875c-3.609375 14-5.73125 28.6125-5.73125 43.75s2.121875 29.75 5.73125 43.75h81.76875zm0-107.646875c-26.490625 15.35625-48.540625 37.40625-63.896875 63.896875h63.896875zm87.5-23.603125c-15.1375 0-29.75 2.121875-43.75 5.73125v81.76875h87.5v-81.76875c-14-3.609375-28.6125-5.73125-43.75-5.73125zm87.5 23.603125v63.896875h63.896875c-15.35625-26.490625-37.40625-48.540625-63.896875-63.896875z" fill-rule="evenodd"/></svg>