<svg height="1200" viewBox="0 0 1200 1200" width="1200" xmlns="http://www.w3.org/2000/svg"><path d="m900 600h-60c0-20.76-2.91-40.8-7.86-60h-112.14v60h-60v-60h-120v120h60v60h-60v112.14c19.2 4.95 39.24 7.86 60 7.86v60c-165.69 0-300-134.31-300-300s134.31-300 300-300 300 134.31 300 300zm-507.63 120c21.06 36.36 51.3 66.57 87.63 87.63v-87.63zm-24.51-180c-4.95 19.2-7.86 39.24-7.86 60s2.91 40.8 7.86 60h112.14v-120zm112.14-147.63c-36.33 21.06-66.57 51.3-87.63 87.63h87.63zm180-24.51c-19.2-4.95-39.24-7.86-60-7.86s-40.8 2.91-60 7.86v112.14h120zm147.63 112.14c-21.06-36.33-51.3-66.57-87.63-87.63v87.63zm2.37 150 51.42 128.58h128.58l-111.24 93.9 59.79 137.52-128.55-85.02-128.58 85.02 59.82-137.52-111.24-93.9h128.55z" fill-rule="evenodd"/></svg>