<svg height="280" viewBox="0 0 280 280" width="280" xmlns="http://www.w3.org/2000/svg"><path d="m247.300602 120.0107c5.340072 0 9.667306 4.388498 9.754622 9.829596v120.103078c0 5.46108-4.273834 9.904655-9.593115 9.994321h-117.216175c-5.3308 0-9.667121-4.388964-9.754622-9.829148v-70.128591h19.509085v59.96751h97.545583v-99.947172h-58.527731v-19.989594zm-58.527731 29.983755c3.841166 0 7.32513 2.307348 8.893091 5.89063l.071002.166284 29.263865 69.963418-17.929773 7.876718-5.833724-13.932679h-28.93051l-5.834041 13.932679-17.928821-7.876718 29.263231-69.963418c1.531849-3.678024 5.073356-6.056914 8.96568-6.056914zm0 35.371577-6.106758 14.602565h12.221453zm-29.264024-165.3037267v139.9271057h-136.5640708v-139.9271057zm-58.527572 19.9895457h-19.5090853v19.9895933h-39.0183286v19.9895933h19.5092437v19.9895934c0 3.726934 2.0206476 7.13456 5.2351231 8.852252l.1590478.083108 2.0582331 1.059437-21.567318 11.054232 8.7205843 17.870721 34.6580364-17.750713 34.6580365 17.750713 8.720584-17.870721-21.567477-11.054232 2.058234-1.059437c3.253551-1.661916 5.326675-5.036235 5.392704-8.752332l.001625-.183028v-19.9895934h19.509085v-19.9895933h-39.018328zm.000476 39.9771229v13.8128303l-9.7544633 4.9973189-9.7546218-4.9973189v-13.8128303z" fill-rule="evenodd"/></svg>