<svg height="642" viewBox="0 0 642 642" width="642" xmlns="http://www.w3.org/2000/svg"><path d="m474.125 342.875 37.49375 93.75625h93.75625l-81.1125 68.46875 43.596875 100.275-93.734375-61.99375-93.75625 61.99375 43.61875-100.275-81.1125-68.46875h93.734375zm-153.125-240.625c120.815625 0 218.75 97.934375 218.75 218.75h-43.75c0-15.1375-2.121875-29.75-5.73125-43.75h-81.76875v43.75h-43.75v-43.75h-87.5v87.5h43.75v43.75h-43.75v81.76875c14 3.609375 28.6125 5.73125 43.75 5.73125v43.75c-120.815625 0-218.75-97.934375-218.75-218.75s97.934375-218.75 218.75-218.75zm-87.5 306.25h-63.896875c15.35625 26.5125 37.40625 48.540625 63.896875 63.896875zm0-131.25h-81.76875c-3.609375 14-5.73125 28.6125-5.73125 43.75s2.121875 29.75 5.73125 43.75h81.76875zm0-107.646875c-26.490625 15.35625-48.540625 37.40625-63.896875 63.896875h63.896875zm87.5-23.603125c-15.1375 0-29.75 2.121875-43.75 5.73125v81.76875h87.5v-81.76875c-14-3.609375-28.6125-5.73125-43.75-5.73125zm87.5 23.603125v63.896875h63.896875c-15.35625-26.490625-37.40625-48.540625-63.896875-63.896875z" fill-rule="evenodd"/></svg>