<svg height="40" viewBox="0 0 40 40" width="40" xmlns="http://www.w3.org/2000/svg"><path d="m24 26.921v-2.921h2.921c-.702 1.212-1.71 2.219-2.921 2.921zm-6 .817v-3.738h4v3.738c-.64.165-1.308.262-2 .262s-1.36-.097-2-.262zm-4.921-3.738h2.921v2.921c-1.211-.702-2.219-1.709-2.921-2.921zm-.817-6h3.738v4h-3.738c-.165-.64-.262-1.308-.262-2s.097-1.36.262-2zm3.738-4.921v2.921h-2.921c.702-1.211 1.71-2.219 2.921-2.921zm6-.817v3.738h-4v-3.738c.64-.165 1.308-.262 2-.262s1.36.097 2 .262zm-4 9.738h4v-4h-4zm10-2c0 .692-.097 1.36-.262 2h-3.738v-4h3.738c.165.64.262 1.308.262 2zm-1.079-4h-2.921v-2.921c1.211.702 2.219 1.71 2.921 2.921zm-6.921-6c-5.523 0-10 4.477-10 10s4.477 10 10 10 10-4.477 10-10-4.477-10-10-10z" fill-rule="evenodd"/></svg>