<svg height="1200" viewBox="0 0 1200 1200" width="1200" xmlns="http://www.w3.org/2000/svg"><path d="m600 300c165.69 0 300 134.31 300 300s-134.31 300-300 300-300-134.31-300-300 134.31-300 300-300zm120 507.63c36.33-21.06 66.57-51.27 87.63-87.63h-87.63zm-180 24.51c19.2 4.95 39.24 7.86 60 7.86s40.8-2.91 60-7.86v-112.14h-120zm-147.63-112.14c21.06 36.36 51.3 66.57 87.63 87.63v-87.63zm-24.51-180c-4.95 19.2-7.86 39.24-7.86 60s2.91 40.8 7.86 60h112.14v-120zm112.14-147.63c-36.33 21.06-66.57 51.3-87.63 87.63h87.63zm180-24.51c-19.2-4.95-39.24-7.86-60-7.86s-40.8 2.91-60 7.86v112.14h120zm-120 292.14h120v-120h-120zm300-60c0-20.76-2.91-40.8-7.86-60h-112.14v120h112.14c4.95-19.2 7.86-39.24 7.86-60zm-32.37-120c-21.06-36.33-51.3-66.57-87.63-87.63v87.63z" fill-rule="evenodd"/></svg>