<svg height="280" viewBox="0 0 280 280" width="280" xmlns="http://www.w3.org/2000/svg"><path d="m206.783489 149.540498 16.352414 40.890577h40.890577l-35.376168 29.86176 19.014213 43.733645-40.881036-27.037773-40.890576 27.037773 19.023754-43.733645-35.376169-29.86176h40.881036zm-66.783489-104.9454824c52.692173 0 95.404984 42.7128115 95.404984 95.4049844h-19.080996c0-6.602025-.925429-12.975078-2.499611-19.080997h-35.662383v19.080997h-19.080997v-19.080997h-38.161994v38.161994h19.080997v19.080997h-19.080997v35.662383c6.105919 1.574182 12.478972 2.499611 19.080997 2.499611v19.080996c-52.6921729 0-95.4049844-42.712811-95.4049844-95.404984 0-52.6921729 42.7128115-95.4049844 95.4049844-95.4049844zm-38.161994 133.5669784h-27.8677957c6.6974299 11.563084 16.3142523 21.170366 27.8677957 27.867796zm0-57.242991h-35.6623829c-1.5741823 6.105919-2.4996106 12.478972-2.4996106 19.080997s.9254283 12.975078 2.4996106 19.080997h35.6623829zm0-46.9487927c-11.5535434 6.6974299-21.1703658 16.3142523-27.8677957 27.8677957h27.8677957zm38.161994-10.2941978c-6.602025 0-12.975078.9254283-19.080997 2.4996106v35.6623829h38.161994v-35.6623829c-6.105919-1.5741823-12.478972-2.4996106-19.080997-2.4996106zm38.161994 10.2941978v27.8677957h27.867796c-6.69743-11.5535434-16.314253-21.1703658-27.867796-27.8677957z" fill-rule="evenodd"/></svg>