<svg height="1200" viewBox="0 0 1200 1200" width="1200" xmlns="http://www.w3.org/2000/svg"><path d="m900 600h-60c0-20.76-2.91-40.8-7.86-60h-112.14v60h-60v-60h-120v120h60v60h-60v112.14c19.2 4.95 39.24 7.86 60 7.86v60c-165.69 0-300-134.31-300-300s134.31-300 300-300 300 134.31 300 300zm-507.63 120c21.06 36.36 51.3 66.57 87.63 87.63v-87.63zm-24.51-180c-4.95 19.2-7.86 39.24-7.86 60s2.91 40.8 7.86 60h112.14v-120zm112.14-147.63c-36.33 21.06-66.57 51.3-87.63 87.63h87.63zm180-24.51c-19.2-4.95-39.24-7.86-60-7.86s-40.8 2.91-60 7.86v112.14h120zm147.63 112.14c-21.06-36.33-51.3-66.57-87.63-87.63v87.63zm182.089034 360h-33.028693c-3.896307 19.11-11.509091 36.84-21.909233 52.56l23.467756 23.49-42.349858 42.45-23.497728-23.49c-15.705113 10.41-33.448295 18.06-52.540198 21.96v33.03h-59.943182v-33.03c-19.091904-3.9-36.835085-11.52-52.540199-21.93l-23.467756 23.52-42.409801-42.39 23.467756-23.55c-10.430114-15.75-18.042898-33.48-21.939205-52.62h-33.028693v-60h33.028693c3.896307-19.11 11.509091-36.84 21.939205-52.59l-23.467756-23.46 42.349858-42.45 23.497727 23.49c15.735086-10.41 33.448296-18.06 52.540199-21.96v-33.03h59.943182v33.03c19.091903 3.9 36.805114 11.55 52.510227 21.96l23.527699-23.55 42.349858 42.45-23.497727 23.49c10.460085 15.75 18.072869 33.51 21.969176 52.62h33.028693zm-179.775852 30c33.088636 0 59.943182-26.91 59.943182-60 0-33.15-26.854546-60-59.943182-60-33.14858 0-59.943182 26.85-59.943182 60 0 33.09 26.794602 60 59.943182 60z" fill-rule="evenodd"/></svg>