<svg height="1200" viewBox="0 0 1200 1200" width="1200" xmlns="http://www.w3.org/2000/svg"><path d="m403.872 479.9775 196.14 87.18 196.11-87.18-196.11-87.18zm196.14 150c-4.17 0-8.31-.87-12.21-2.58l-270-120c-10.8-4.83-17.79-15.54-17.79-27.42s6.99-22.59 17.79-27.39l270-120c7.77-3.45 16.62-3.45 24.39 0l270 120c10.83 4.8 17.82 15.51 17.82 27.39s-6.99 22.59-17.82 27.42l-270 120c-3.9 1.71-8.04 2.58-12.18 2.58zm299.988-79.248-300.54 136.56-299.46-124.77v64.95l288.45 120.24c3.69 1.59 7.62 2.28 11.55 2.28 4.23 0 8.46-.87 12.39-2.64l287.61-130.71zm0 120-300.54 136.56-299.46-124.77v64.95l288.45 120.24c3.69 1.59 7.62 2.28 11.55 2.28 4.23 0 8.46-.87 12.39-2.64l287.61-130.71z" fill-rule="evenodd"/></svg>