<svg height="40" viewBox="0 0 40 40" width="40" xmlns="http://www.w3.org/2000/svg"><path d="m13.4624 15.99925 6.538 2.906 6.537-2.906-6.537-2.906zm6.538 5c-.139 0-.277-.029-.407-.086l-9-4c-.36-.161-.593-.518-.593-.914s.233-.753.593-.913l9-4c.259-.115.554-.115.813 0l9 4c.361.16.594.517.594.913s-.233.753-.594.914l-9 4c-.13.057-.268.086-.406.086zm9.9996-2.6416-10.018 4.552-9.982-4.159v2.165l9.615 4.008c.123.053.254.076.385.076.141 0 .282-.029.413-.088l9.587-4.357zm0 4-10.018 4.552-9.982-4.159v2.165l9.615 4.008c.123.053.254.076.385.076.141 0 .282-.029.413-.088l9.587-4.357z" fill-rule="evenodd"/></svg>