<svg height="1200" viewBox="0 0 1200 1200" width="1200" xmlns="http://www.w3.org/2000/svg"><path d="m600.012 629.9775c-4.17 0-8.31-.87-12.21-2.58l-270-120c-10.8-4.83-17.79-15.54-17.79-27.42s6.99-22.59 17.79-27.39l270-120c7.77-3.45 16.62-3.45 24.39 0l270 120c10.83 4.8 17.82 15.51 17.82 27.39s-6.99 22.59-17.82 27.42l-270 120c-3.9 1.71-8.04 2.58-12.18 2.58zm-196.14-150 196.14 87.18 196.11-87.18-196.11-87.18zm496.128 70.752v65.91l-287.61 130.71c-3.93 1.77-8.16 2.64-12.39 2.64-3.93 0-7.86-.69-11.55-2.28l-288.45-120.24v-64.95l299.46 124.77zm0 120v65.91l-287.61 130.71c-3.93 1.77-8.16 2.64-12.39 2.64-3.93 0-7.86-.69-11.55-2.28l-288.45-120.24v-64.95l299.46 124.77z" fill-rule="evenodd"/></svg>