<svg height="280" viewBox="0 0 280 280" width="280" xmlns="http://www.w3.org/2000/svg"><path d="m235.404984 162.493156v20.960475l-91.464758 41.567952c-1.249805.562889-2.595016.839564-3.940226.839564-1.249805 0-2.499611-.219432-3.673092-.725078l-91.7318924-38.238318v-20.655179l95.2332554 39.678933zm0-38.161994v20.960475l-91.464758 41.567952c-1.249805.56289-2.595016.839564-3.940226.839564-1.249805 0-2.499611-.219431-3.673092-.725078l-91.7318924-38.238318v-20.655179l95.2332554 39.678933zm-91.527725-69.37278 85.864486 38.1619938c3.444119 1.5264797 5.667056 4.9324377 5.667056 8.7104752 0 3.778037-2.222937 7.183995-5.667056 8.720015l-85.864486 38.161994c-1.240265.543809-2.556854.820483-3.873443.820483-1.326129 0-2.642718-.276674-3.882983-.820483l-85.8644856-38.161994c-3.4345795-1.53602-5.6575156-4.941978-5.6575156-8.720015 0-3.7780375 2.2229361-7.1839955 5.6575156-8.7104752l85.8644856-38.1619938c2.470989-1.0971573 5.285436-1.0971573 7.756426 0zm-3.873443 19.1477804-62.3757786 27.7246886 62.3757786 27.724688 62.366239-27.724688z" fill-rule="evenodd"/></svg>