<svg height="642" viewBox="0 0 642 642" width="642" xmlns="http://www.w3.org/2000/svg"><path d="m539.75 372.573594v48.059375l-209.715625 95.309375c-2.865625 1.290625-5.95 1.925-9.034375 1.925-2.865625 0-5.73125-.503125-8.421875-1.6625l-210.328125-87.675v-47.359375l218.35625 90.978125zm0-87.5v48.059375l-209.715625 95.309375c-2.865625 1.290625-5.95 1.925-9.034375 1.925-2.865625 0-5.73125-.503125-8.421875-1.6625l-210.328125-87.675v-47.359375l218.35625 90.978125zm-209.86-159.061875 196.875 87.5c7.896875 3.5 12.99375 11.309375 12.99375 19.971875s-5.096875 16.471875-12.99375 19.99375l-196.875 87.5c-2.84375 1.246875-5.8625 1.88125-8.88125 1.88125-3.040625 0-6.059375-.634375-8.903125-1.88125l-196.875-87.5c-7.875-3.521875-12.971875-11.33125-12.971875-19.99375s5.096875-16.471875 12.971875-19.971875l196.875-87.5c5.665625-2.515625 12.11875-2.515625 17.784375 0zm-8.88125 43.903125-143.01875 63.56875 143.01875 63.56875 142.996875-63.56875z" fill-rule="evenodd"/></svg>