<svg height="1200" viewBox="0 0 1200 1200" width="1200" xmlns="http://www.w3.org/2000/svg"><path d="m900 636.983857c-15.930659-19.469122-36.497317-35.004139-59.999997-44.905074l-.000003-172.078783h-120v30 142.078763c-23.502683 9.900955-44.069341 25.435972-60 44.905094v-156.983857h-120v360h85v16.251769c-22.885797 11.90222-42.606151 26.631364-58.576119 43.748231h-236.423881c-16.56 0-30-13.44-30-30v-540c0-16.56 13.44-30 30-30h180c16.56 0 30 13.44 30 30v90h120v-30c0-16.56 13.44-30 30-30h180c16.56 0 30 13.44 30 30zm-90-54.071562c-9.708223-1.910657-19.739096-2.912295-30-2.912295s-20.291777 1.001638-30 2.912295v-132.912295h60zm-450-222.912295v480h120v-390-90zm30 270v-240h60v240zm180 60v-180h60v180zm210 150c-57.9075 0-105-47.0925-105-105s47.0925-105 105-105 105 47.0925 105 105-47.0925 105-105 105zm210 209.75h-420v-26.25c0-92.74125 86.3625-157.5 210-157.5 123.66375 0 210 64.75875 210 157.5z" fill-rule="evenodd"/></svg>