<svg height="280" viewBox="0 0 280 280" width="280" xmlns="http://www.w3.org/2000/svg"><path d="m70 20c11.0457 0 20 8.9543 20 20v200c0 11.046-8.9543 20-20 20h-20c-11.0457 0-20-8.954-20-20v-200c0-11.0457 8.9543-20 20-20zm80 40c11.046 0 20 8.9543 20 20v160c0 11.046-8.954 20-20 20h-20c-11.046 0-20-8.954-20-20v-160c0-11.0457 8.954-20 20-20zm80-20c11.046 0 20 8.9543 20 20v180c0 11.046-8.954 20-20 20h-20c-11.046 0-20-8.954-20-20v-180c0-11.0457 8.954-20 20-20zm-80 100h-20c-5.523 0-10 4.477-10 10s4.477 10 10 10h20c5.523 0 10-4.477 10-10s-4.477-10-10-10zm80-20h-20c-5.523 0-10 4.477-10 10s4.477 10 10 10h20c5.523 0 10-4.477 10-10s-4.477-10-10-10zm-160-20h-20c-5.5228 0-10 4.477-10 10s4.4772 10 10 10h20c5.5228 0 10-4.477 10-10s-4.4772-10-10-10zm80 0h-20c-5.523 0-10 4.477-10 10 0 5.42939 4.326523 9.847937 9.720088 9.996158l.279912.003842h20c5.523 0 10-4.477 10-10s-4.477-10-10-10zm80-20h-20c-5.523 0-10 4.4771-10 10 0 5.4292915 4.326523 9.8479335 9.720088 9.9961582l.279912.0038418h20c5.523 0 10-4.4771 10-10s-4.477-10-10-10zm-160-20h-20c-5.5228 0-10 4.4772-10 10 0 5.4291932 4.3267167 9.8479301 9.7200975 9.9961582l.2799025.0038418h20c5.5228 0 10-4.4772 10-10s-4.4772-10-10-10z" fill-rule="evenodd"/></svg>