<svg height="642" viewBox="0 0 642 642" width="642" xmlns="http://www.w3.org/2000/svg"><path d="m255.375 102.25c12.075 0 21.875 9.8 21.875 21.875v65.625h87.5v-21.875c0-12.075 9.8-21.875 21.875-21.875h131.25c12.075 0 21.875 9.8 21.875 21.875v350c0 12.075-9.8 21.875-21.875 21.875h-393.75c-12.075 0-21.875-9.8-21.875-21.875v-393.75c0-12.075 9.8-21.875 21.875-21.875zm240.625 87.5h-87.5v306.25h87.5zm-131.25 43.75h-87.5v262.5h87.5zm-131.25-87.5h-87.5v350h87.5zm109.375 109.375v131.25h-43.75v-131.25zm131.25-43.75v153.125h-43.75v-153.125zm-262.5-43.75v175h-43.75v-175z" fill-rule="evenodd"/></svg>