<svg height="642" viewBox="0 0 642 642" width="642" xmlns="http://www.w3.org/2000/svg"><path d="m487.303774 321.792453c80.618841 0 146.207547 65.588705 146.207547 146.207547 0 80.633462-65.588706 146.207547-146.207547 146.207547-80.618842 0-146.207548-65.574085-146.207548-146.207547 0-80.618842 65.588706-146.207547 146.207548-146.207547zm-.061632 29.241509c-31.582446 0-60.282723 12.584069-81.349715 33.001088.089775.141091.179968.282135.270471.423154l.545862.845988.548073.846427c2.280988 3.529141 4.483577 7.096818 4.908417 11.04173 1.477368 13.718338-2.730142 12.582053-6.553172 24.79174-2.345856 7.492008 4.733814 27.494376 9.744752 34.26291.336798.454931 3.556198 4.627634 7.201154 9.26098l.563789.716017c.094414.119796.189025.239784.283791.359911l.570133.721978c.095223.12046.190518.240948.285845.361409l.572004.722009c4.002014 5.045681 7.913041 9.850724 8.664286 10.347052 2.089805 1.38068 4.869947 1.499071 7.028431 2.777064 2.837968 1.680301 5.027475 4.249324 7.812802 6.010119 5.170686 3.268742 23.838569 9.135514 25.961533 12.042663.624953.8558.240404 2.1217 0 3.143352-.657961 2.796156-3.209504 4.664481-5.852914 6.669037l-.417881.317796c-4.181193 3.192385-8.355003 6.864021-5.429089 15.203513 3.832996 10.924874 25.777534 5.715812 25.405131 22.3249-.124742 5.563475-7.571144 11.864877-7.986678 20.998039-.05596 1.229961-.598293 10.738899 2.681546 11.945485 1.442393.530627 2.999973-.151959 4.496371-.860949l.470307-.223384c.389885-.184579.774247-.362334 1.149873-.511637.510901-.203073.568333-.969355 1.039388-1.248371 18.608304-11.022102 8.289661-3.516717 27.997807-27.60618 6.545074-8.000109 14.891716-12.883942 22.742905-19.282464.00367-.002991.013345-.011371.028739-.024949l.063048-.056142c1.247541-1.117955 14.493762-13.301266 9.977532-16.861614-5.064228-3.992359-27.274019-10.713754-30.501613-12.106203-6.107812-2.635034-10.551571-6.949719-17.379814-8.604038-1.88814-.457451-2.729823-.088023-3.474771.490231l-.147981.118252c-.049084.040223-.098021.081191-.14709.122722l-.147887.126093c-1.339638 1.14671-2.981276 2.569515-10.463701.66392-3.500105-.891394-12.192109-9.5089-14.149595-10.936324-1.954891-1.42553-5.350934-2.551499-8.801359-3.663347l-1.194419-.384745c-4.769324-1.540232-9.336136-3.116534-10.019215-5.486617-4.427938-15.363652 19.649857-12.458867 26.769087-13.713387 1.612081-.284074 2.947463-1.454205 4.188466-2.489266 6.25423-5.216353-.422545-11.517014 8.910149-19.581475 8.513853-7.356893 34.959951-16.332616 38.476699-26.469939.743726-2.143853.311897-4.582546-.239561-6.780072-2.936691-11.702523-15.051556-22.26381-27.615281-19.820684-1.109233.2157-1.733759 1.48488-2.248789 2.459365-1.906268 3.606832-2.575517 7.83367-4.953518 11.168057-8.92226 12.510618-21.934078-6.919525-25.428314-12.853731-3.372057-5.72671-2.147884-9.667791 4.428027-12.83878 2.532509-1.221208 5.957454-2.279994 9.580603-3.441511l.808125-.259914c9.594738-3.098207 20.204447-7.04261 19.20537-16.654698-6.146753-1.001717-12.452809-1.52258-18.878159-1.52258zm-231.867142-248.783962c12.075 0 21.875 9.8 21.875 21.875v65.625h87.5v-21.875c0-12.075 9.8-21.875 21.875-21.875h131.25c12.075 0 21.875 9.8 21.875 21.875l.003333 132.483554c-13.129757-4.394268-27.696795-6.897582-43.749881-7.231449l-.003452-103.377105h-87.5l-.002181 124.249876c-16.219334 8.651511-30.964979 19.731776-43.751309 32.753764l.00349-113.25364h-87.5v262.5l37.525872.002426c2.403168 16.642245 7.449564 31.148419 14.730948 43.74874l-205.38182-.001166c-12.075 0-21.875-9.8-21.875-21.875v-393.75c0-12.075 9.8-21.875 21.875-21.875zm340.99409 323.976415c-7.25727 2.448671-17.213535 7.053578-13.339354 12.996131.723901 1.110382 2.472105 1.924213 4.066429 2.713328l.394694.196921c1.820578.91803 3.298071 1.833252 2.561565 3.177328l.894671 2.118143c-3.15237 5.752871-9.919258 5.849648-15.238271 9.681748-6.331411 4.561485-6.457055 9.543317-6.166497 16.394762.402689 9.495533 7.638404 19.338273 14.059806 26.372549 3.693272 4.045767 7.901671 7.731338 12.228657 11.280642 5.321865-13.358812 8.249346-27.921209 8.249346-43.154096 0-14.711233-2.730409-28.797113-7.711046-41.777456zm-362.86909-280.226415h-87.5v350h87.5zm302.539623 215.477358c.058334 1.807043.155046 3.611552.340933 5.410173.605734 5.861025 1.686404 17.439171 7.735524 21.794156 6.51567 4.69087 16.876794-1.742354 21.117652-8.083954-8.672694-7.742317-18.50254-14.214253-29.194109-19.120375zm-193.164623-106.102358-.000993 118.423342c-2.745942 4.157332-5.324282 8.435298-7.725263 12.824115l-36.023744.002543v-131.25zm-131.25-87.5v175h-43.75v-175zm262.5 43.75-.000519 82.381257c-15.220944 1.54582-29.885863 5.012497-43.74936 10.153924l-.000121-92.535181z" fill-rule="evenodd"/></svg>