<svg height="280" viewBox="0 0 280 280" width="280" xmlns="http://www.w3.org/2000/svg"><path d="m213.403515 150.286252c35.160865 0 63.766531 28.605666 63.766531 63.766531 0 35.167242-28.605666 63.766532-63.766531 63.766532s-63.766532-28.59929-63.766532-63.766532c0-35.160865 28.605667-63.766531 63.766532-63.766531zm-.02688 12.753306c-13.774275 0-26.29153 5.488379-35.479626 14.392998.069095.108591.138759.217119.20873.325635l.421434.651375c.982223 1.521491 1.922538 3.061094 2.105646 4.761376.644335 5.983076-1.190716 5.487499-2.858081 10.812597-1.023114 3.267542 2.064592 11.991316 4.250048 14.943325.33521.452786 7.217666 9.349738 7.911963 9.808442.911442.602165 2.123965.6538 3.065359 1.21118 1.237744.732842 2.192669 1.853288 3.407453 2.621236 2.255128 1.425619 10.396884 3.984336 11.322787 5.252252.272565.373246.104849.925352 0 1.370932-.755161 3.209229-7.229585 3.616097-5.102753 9.678032 1.671711 4.764743 11.242538 2.492878 11.080119 9.736717-.054404 2.426438-3.302056 5.174713-3.483286 9.158023-.024406.536432-.260938 4.683632 1.169521 5.209869.860848.316689 1.815769-.357455 2.667655-.696062.222823-.088567.247871-.422771.453316-.54446 8.115771-4.807148 3.615428-1.533771 12.210881-12.040079 2.85455-3.489144 6.49483-5.619165 9.919025-8.409798.078428-.063917 6.445115-5.770465 4.391603-7.389341-2.208698-1.741216-11.895211-4.672665-13.302884-5.279964-2.663844-1.149236-4.601932-3.03103-7.579982-3.75254-.93225-.225862-1.279582.010461-1.642956.31788l-.110095.093968c-.577517.492478-1.337958 1.061804-4.519223.251611-1.526526-.388769-5.317431-4.147183-6.171163-4.769736-.819808-.597814-2.220737-1.074835-3.665101-1.541735l-.86753-.279811c-2.016324-.65419-3.907009-1.331926-4.19665-2.336894-1.931188-6.700658 8.570031-5.433774 11.674992-5.980916.703088-.123895 1.285497-.634233 1.826745-1.085661 2.727701-2.275045-.184288-5.022997 3.886046-8.540208 3.713207-3.208613 15.247331-7.123259 16.781115-11.544521.324366-.935014.13603-1.998618-.104482-2.957041-1.280799-5.103904-6.564541-9.710073-12.044048-8.644535-.483777.094075-.756156.647611-.98078 1.07262-.831394 1.573074-1.123278 3.416554-2.160412 4.870804-3.891329 5.456344-9.566265-3.017862-11.090231-5.605989-1.470679-2.49763-.936772-4.216482 1.931227-5.599468 4.090818-1.972645 13.520794-2.97357 12.907083-8.87806-2.680827-.436886-5.431131-.664053-8.233465-.664053zm-143.3402902-142.9772527c11.0399649 0 19.9896157 8.9496508 19.9896157 19.9896158v199.8961579c0 11.040265-8.9496508 19.989616-19.9896157 19.989616h-19.9896158c-11.039965 0-19.9896158-8.949351-19.9896158-19.989616v-199.8961579c0-11.039965 8.9496508-19.9896158 19.9896158-19.9896158zm79.9584632 39.9792316c11.040265 0 19.989616 8.9496508 19.989616 19.9896157l-.001466 72.5095694c-19.684579 14.245846-32.524045 37.450593-32.524045 63.602571 0 19.415252 7.078447 33.220108 18.780577 42.798895-1.963599.646137-4.063328.995507-6.244682.995507h-19.989616c-11.040265 0-19.989616-8.949351-19.989616-19.989616v-159.9169264c0-11.0399649 8.949351-19.9896157 19.989616-19.9896157zm110.976135 135.7922371c-3.165165 1.067956-7.507461 3.076327-5.817787 5.668095.71037 1.089626 3.682345 1.524487 3.062854 2.655018l.3902.9238c-1.374866 2.509041-4.326156 2.551249-6.645975 4.22257-2.761363 1.989432-2.816161 4.162194-2.689438 7.150363.175627 4.141354 3.331391 8.434138 6.132002 11.502046 1.610773 1.764509 3.446212 3.371923 5.333371 4.919906 2.321063-5.826273 3.597846-12.177474 3.597846-18.821101 0-6.416114-1.190833-12.559488-3.363073-18.220697zm-26.311918-28.239464c.025442.788118.067622 1.575132.148694 2.359577.264183 2.55621.735503 7.605869 3.373749 9.505239 2.841725 2.045863 7.360595-.759905 9.210191-3.525712-3.782483-3.376711-8.069644-6.199362-12.732634-8.339104zm-84.664217-27.59431h-19.989616c-5.520132 0-9.994808 4.474675-9.994808 9.994808 0 5.520132 4.474676 9.994808 9.994808 9.994808h19.989616c5.520132 0 9.994808-4.474676 9.994808-9.994808 0-5.520133-4.474676-9.994808-9.994808-9.994808zm79.958463-99.9480789c11.040265 0 19.989616 8.9496508 19.989616 19.9896158l.000979 87.7818491c-5.152301-3.633792-11.054291-6.382575-17.735079-8.080107 4.433744-1.021391 7.739292-4.993587 7.739292-9.738087 0-5.520132-4.474676-9.994808-9.994808-9.994808h-19.989616c-5.520132 0-9.994808 4.474676-9.994808 9.994808 0 3.602542 1.905815 6.759812 4.764266 8.518633-5.092083.709592-10.02865 1.917049-14.759853 3.568944l.000779-82.0512321c0-11.039965 8.949351-19.9896158 19.989616-19.9896158zm-159.9169262 59.9688469h-19.9896158c-5.5199325 0-9.9948079 4.474676-9.9948079 9.994808 0 5.520133 4.4748754 9.994808 9.9948079 9.994808h19.9896158c5.5199325 0 9.9948078-4.474675 9.9948078-9.994808 0-5.520132-4.4748753-9.994808-9.9948078-9.994808zm79.9584632 0h-19.989616c-5.520132 0-9.994808 4.474676-9.994808 9.994808 0 5.520133 4.474676 9.994808 9.994808 9.994808h19.989616c5.520132 0 9.994808-4.474675 9.994808-9.994808 0-5.520132-4.474676-9.994808-9.994808-9.994808zm79.958463-19.9896154h-19.989616c-5.520132 0-9.994808 4.4747755-9.994808 9.9948079 0 5.5200325 4.474676 9.9948075 9.994808 9.9948075h19.989616c5.520132 0 9.994808-4.474775 9.994808-9.9948075 0-5.5200324-4.474676-9.9948079-9.994808-9.9948079zm-159.9169262-19.9896157h-19.9896158c-5.5199325 0-9.9948079 4.4748754-9.9948079 9.9948079s4.4748754 9.9948078 9.9948079 9.9948078h19.9896158c5.5199325 0 9.9948078-4.4748753 9.9948078-9.9948078s-4.4748753-9.9948079-9.9948078-9.9948079z" fill-rule="evenodd"/></svg>