<svg height="642" viewBox="0 0 642 642" width="642" xmlns="http://www.w3.org/2000/svg"><g fill-rule="evenodd" transform="translate(68.916667 46)"><path d="m0 45.8333333c0-25.3130625 20.5202708-45.8333333 45.8333333-45.8333333h45.8333334c25.3130623 0 45.8333333 20.5202708 45.8333333 45.8333333v458.3333337c0 25.31375-20.520271 45.833333-45.8333333 45.833333h-45.8333334c-25.3130625 0-45.8333333-20.519583-45.8333333-45.833333zm22.9166667 68.7499997c0-12.656416 10.26025-22.9166663 22.9166666-22.9166663h45.8333334c12.6564163 0 22.9166663 10.2602503 22.9166663 22.9166663 0 12.656417-10.26025 22.916667-22.9166663 22.916667h-45.8333334c-12.6564166 0-22.9166666-10.26025-22.9166666-22.916667zm22.9166666 68.75c-12.6564166 0-22.9166666 10.259792-22.9166666 22.916667s10.26025 22.916667 22.9166666 22.916667h45.8333334c12.6564163 0 22.9166663-10.259792 22.9166663-22.916667s-10.26025-22.916667-22.9166663-22.916667z"/><path d="m183.333333 137.5c0-25.313063 20.519584-45.8333333 45.833334-45.8333333h45.833333c25.31375 0 45.833333 20.5202703 45.833333 45.8333333v366.666667c0 25.31375-20.519583 45.833333-45.833333 45.833333h-45.833333c-25.31375 0-45.833334-20.519583-45.833334-45.833333zm22.916667 68.75c0-12.656875 10.259792-22.916667 22.916667-22.916667h45.833333c12.656875 0 22.916667 10.259792 22.916667 22.916667s-10.259792 22.916667-22.916667 22.916667h-45.833333c-12.656875 0-22.916667-10.259792-22.916667-22.916667zm22.916667 68.75c-12.656875 0-22.916667 10.259792-22.916667 22.916667s10.259792 22.916666 22.916667 22.916666h45.833333c12.656875 0 22.916667-10.259791 22.916667-22.916666s-10.259792-22.916667-22.916667-22.916667z"/><path d="m366.666667 91.6666667c0-25.3130625 20.519583-45.8333334 45.833333-45.8333334h45.833333c25.31375 0 45.833334 20.5202709 45.833334 45.8333334v412.5000003c0 25.31375-20.519584 45.833333-45.833334 45.833333h-45.833333c-25.31375 0-45.833333-20.519583-45.833333-45.833333zm22.916666 68.7500003c0-12.656646 10.259792-22.916667 22.916667-22.916667h45.833333c12.656875 0 22.916667 10.260021 22.916667 22.916667 0 12.656645-10.259792 22.916666-22.916667 22.916666h-45.833333c-12.656875 0-22.916667-10.260021-22.916667-22.916666zm22.916667 68.75c-12.656875 0-22.916667 10.259791-22.916667 22.916666s10.259792 22.916667 22.916667 22.916667h45.833333c12.656875 0 22.916667-10.259792 22.916667-22.916667s-10.259792-22.916666-22.916667-22.916666z"/></g></svg>