<svg height="1200" viewBox="0 0 1200 1200" width="1200" xmlns="http://www.w3.org/2000/svg"><path d="m900 582.642086c-18.978971-4.346179-38.72718-6.642086-59-6.642086-.333475 0-.666809.000622-1 .001864v-156.001864h-120v30 155.378247c-21.95307 11.354453-42.132418 25.696621-60 42.486895v-167.865142h-120v360h36.006459c-.004304.623072-.006459 1.246646-.006459 1.870714 0 19.962253 2.205883 39.41589 6.385787 58.129286h-252.385787c-16.56 0-30-13.44-30-30v-540c0-16.56 13.44-30 30-30h180c16.56 0 30 13.44 30 30v90h120v-30c0-16.56 13.44-30 30-30h180c16.56 0 30 13.44 30 30zm-270 98.56629c-2.187981 2.885097-4.318622 5.816214-6.3902 8.791624h-53.6098v-180h60zm180-103.399153c-20.826229 2.446576-40.923269 7.326745-60.000002 14.348546l.000002-142.157769h60zm-450-217.809223v480h120v-390-90zm30 270v-240h60v240zm450 421c-115.794 0-210-94.185-210-210 0-115.794 94.206-210 210-210s210 94.206 210 210c0 115.815-94.206 210-210 210zm156.652081-270c-10.423722 3.517061-24.724049 10.131156-19.159507 18.66653 2.339436 3.588427 12.126935 5.020538 10.086788 8.743673l1.285029 3.04232c-4.527794 8.262931-14.247172 8.401934-21.886947 13.906034-9.093896 6.551726-9.274362 13.707203-8.857029 23.548031.578389 13.638571 10.971151 27.775841 20.194302 37.879271 5.3047 5.810994 11.349283 11.104633 17.564195 16.202548 7.643868-19.187452 11.848658-40.103632 11.848658-61.982847 0-21.129956-3.92173-41.361707-11.075489-60.00556zm-86.652081-93c.083786 2.595481.222695 5.187323.489687 7.770708.870025 8.418275 2.422206 25.048132 11.110645 31.303259 9.35855 6.737565 24.240381-2.502568 30.331587-11.611098-12.456715-11.120402-26.575464-20.416136-41.931919-27.462869zm-42.973552-12.813097c-8.828669-1.438781-17.886148-2.186903-27.114971-2.186903-45.36232 0-86.58494 18.074678-116.843764 47.399936 3.868351 6.079529 8.277502 12.098657 9.009746 18.898018 2.121966 19.703846-3.921342 18.071783-9.412414 35.608732-3.369387 10.760878 6.799244 39.490567 13.996526 49.21231 1.103937 1.491145 23.769678 30.791152 26.056182 32.301785 3.001617 1.98309 6.994775 2.153137 10.095037 3.988737 4.076214 2.413441 7.221034 6.103365 11.22164 8.63242 7.42673 4.694941 34.239678 13.121471 37.288922 17.29705.897629 1.229198.345295 3.047428 0 4.514842-2.486943 10.568837-23.808931 11.90876-16.804712 31.872312 5.505388 15.691554 37.024643 8.209704 36.489755 32.065574-.179169 7.9909-10.874543 17.041694-11.47138 30.159786-.080376 1.76661-.859337 15.424438 3.851542 17.157468 2.835 1.04294 5.979807-1.17719 8.78529-2.292312.733815-.291676.816306-1.392297 1.492889-1.793052 26.727374-15.831203 11.906559-5.051111 40.213652-39.651153 9.400784-11.490671 21.389186-18.505391 32.665962-27.695681.258287-.210497 21.225463-19.003663 14.462707-24.335049-7.273823-5.734284-39.174065-15.388319-43.809905-17.388314-8.772738-3.784737-15.155373-9.981981-24.962877-12.358104-8.135887-1.97113-2.744397 6.74667-20.656253 2.184947-5.027252-1.280321-17.511702-13.657769-20.323267-15.707998-7.019595-5.118775-26.976364-7.548395-28.747822-13.69484-6.359912-22.067034 28.223371-17.89485 38.448824-19.696735 2.315454-.408019 4.233483-2.088695 6.015954-3.575367 8.98304-7.492323-.606907-16.542053 12.797775-28.125155 12.228568-10.566811 50.21348-23.458771 55.264636-38.019153 1.068224-3.079247.447981-6.581977-.344086-9.738315-4.218012-16.808502-21.618766-31.97783-39.664225-28.468733-1.593207.309813-2.490222 2.132754-3.229968 3.532421-2.737999 5.180545-3.699251 11.251612-7.114808 16.04084-12.81517 17.969181-31.504232-9.938613-36.523054-18.461998-4.843333-8.225356-3.085036-13.885987 6.36004-18.440524 13.472143-6.496441 44.527539-9.79275 42.506427-29.237792z" fill-rule="evenodd"/></svg>