<svg height="642" viewBox="0 0 642 642" width="642" xmlns="http://www.w3.org/2000/svg"><path d="m160.583333 46c25.313063 0 45.833334 20.5202708 45.833334 45.8333333v458.3333337c0 25.31375-20.520271 45.833333-45.833334 45.833333h-45.833333c-25.3130625 0-45.8333333-20.519583-45.8333333-45.833333v-458.3333337c0-25.3130625 20.5202708-45.8333333 45.8333333-45.8333333zm366.666667 45.8333333c25.31375 0 45.833333 20.5202707 45.833333 45.8333337v412.5c0 25.31375-20.519583 45.833333-45.833333 45.833333h-45.833333c-25.31375 0-45.833334-20.519583-45.833334-45.833333v-412.5c0-25.313063 20.519584-45.8333337 45.833334-45.8333337zm-183.333333 45.8333337c25.31375 0 45.833333 20.52027 45.833333 45.833333v366.666667c0 25.31375-20.519583 45.833333-45.833333 45.833333h-45.833334c-25.31375 0-45.833333-20.519583-45.833333-45.833333v-366.666667c0-25.313063 20.519583-45.833333 45.833333-45.833333zm0 183.333333h-45.833334c-12.656875 0-22.916666 10.259792-22.916666 22.916667s10.259791 22.916666 22.916666 22.916666h45.833334c12.656875 0 22.916666-10.259791 22.916666-22.916666s-10.259791-22.916667-22.916666-22.916667zm183.333333-45.833333h-45.833333c-12.656875 0-22.916667 10.259791-22.916667 22.916666s10.259792 22.916667 22.916667 22.916667h45.833333c12.656875 0 22.916667-10.259792 22.916667-22.916667s-10.259792-22.916666-22.916667-22.916666zm-366.666667-45.833334h-45.833333c-12.656417 0-22.9166667 10.259792-22.9166667 22.916667s10.2602497 22.916667 22.9166667 22.916667h45.833333c12.656417 0 22.916667-10.259792 22.916667-22.916667s-10.26025-22.916667-22.916667-22.916667zm183.333334 0h-45.833334c-12.656875 0-22.916666 10.259792-22.916666 22.916667s10.259791 22.916667 22.916666 22.916667h45.833334c12.656875 0 22.916666-10.259792 22.916666-22.916667s-10.259791-22.916667-22.916666-22.916667zm183.333333-45.833333h-45.833333c-12.656875 0-22.916667 10.260021-22.916667 22.916667s10.259792 22.916666 22.916667 22.916666h45.833333c12.656875 0 22.916667-10.26002 22.916667-22.916666s-10.259792-22.916667-22.916667-22.916667zm-366.666667-45.833333h-45.833333c-12.656417 0-22.9166667 10.26025-22.9166667 22.916666 0 12.656417 10.2602497 22.916667 22.9166667 22.916667h45.833333c12.656417 0 22.916667-10.26025 22.916667-22.916667 0-12.656416-10.26025-22.916666-22.916667-22.916666z" fill-rule="evenodd"/></svg>