<svg height="642" viewBox="0 0 642 642" width="642" xmlns="http://www.w3.org/2000/svg"><path d="m489.303774 344.584906c80.618841 0 146.207547 65.588705 146.207547 146.207547 0 80.633462-65.588706 146.207547-146.207547 146.207547-80.618842 0-146.207548-65.574085-146.207548-146.207547 0-80.618842 65.588706-146.207547 146.207548-146.207547zm-.061632 29.241509c-31.582446 0-60.282723 12.584068-81.349715 33.001088.17955.282182.360773.564177.5428.846158l.54762.846078c2.375922 3.667663 4.74057 7.362354 5.182403 11.465063 1.477368 13.718338-2.730142 12.582052-6.553172 24.79174-2.345856 7.492008 4.733814 27.494376 9.744752 34.26291.388613.52492 4.61501 5.999538 8.904712 11.420295l.572004.722009c4.002014 5.04568 7.913041 9.850724 8.664286 10.347052.975242.644317 2.100825 1.013736 3.24341 1.354392l.980412.290688c.978357.295126 1.941215.620787 2.804609 1.131984 2.837968 1.680301 5.027475 4.249324 7.812802 6.010119 2.096224 1.325165 6.41076 3.077327 10.941908 4.886178l.908525.362416c6.371585 2.54067 12.906174 5.144066 14.1111 6.794069.624953.8558.240404 2.1217 0 3.143352-.623331 2.648989-2.946166 4.465245-5.43656 6.353505l-.416354.315532c-4.312931 3.270591-8.870414 6.903834-5.84697 15.521308 1.609858 4.588448 6.414593 6.330869 11.418937 8.039057l.715941.244098c6.688752 2.281739 13.478799 4.740657 13.270253 14.041746-.124742 5.563475-7.571144 11.864877-7.986678 20.998039-.05596 1.229961-.598293 10.738899 2.681546 11.945485 1.973801.726121 4.163299-.819592 6.116551-1.595971.510901-.203072.568333-.969354 1.039388-1.24837 18.608304-11.022102 8.289661-3.516717 27.997807-27.60618 4.561718-5.575833 9.998578-9.637884 15.53289-13.754032l1.445433-1.076036c1.928828-1.4391 3.861264-2.90124 5.764582-4.452397.00367-.002991.013345-.01137.028739-.024948l.063048-.056142c1.247541-1.117955 14.493762-13.301266 9.977532-16.861614-2.470355-1.947492-9.020558-4.544369-15.457083-6.855299l-.964102-.344378c-6.414673-2.279998-12.505992-4.227283-14.080428-4.906526-6.107812-2.635034-10.551571-6.949719-17.379814-8.604038-5.66442-1.372353-1.910722 4.697209-14.38143 1.521217-3.500105-.891393-12.192109-9.508899-14.149595-10.936323-1.729326-1.261046-4.586419-2.287672-7.611283-3.277474l-.79227-.257504c-5.298754-1.712856-10.852464-3.366305-11.61144-5.999731-4.427938-15.363653 19.649857-12.458867 26.769087-13.713387 1.612081-.284074 2.947463-1.454205 4.188466-2.489266 6.25423-5.216353-.422545-11.517014 8.910149-19.581475 8.513853-7.356893 34.959951-16.332616 38.476699-26.469939.743726-2.143853.311897-4.582546-.239561-6.780072-2.936691-11.702523-15.051556-22.26381-27.615281-19.820684-1.109233.2157-1.733759 1.48488-2.248789 2.459365-.667194 1.262391-1.182853 2.600733-1.673277 3.950179l-.417129 1.157875c-.764208 2.122211-1.555211 4.22609-2.863112 6.060002-8.92226 12.510619-21.934078-6.919525-25.428314-12.85373-3.372057-5.72671-2.147884-9.667791 4.428027-12.83878 2.813899-1.356898 6.729571-2.513275 10.794708-3.832852l.814738-.266199c9.249889-3.04403 18.941515-7.051129 17.984652-16.257072-6.146753-1.001717-12.452809-1.52258-18.878159-1.52258zm-328.658809-327.826415c25.313063 0 45.833334 20.5202708 45.833334 45.8333333v458.3333337c0 25.31375-20.520271 45.833333-45.833334 45.833333h-45.833333c-25.3130625 0-45.8333333-20.519583-45.8333333-45.833333v-458.3333337c0-25.3130625 20.5202708-45.8333333 45.8333333-45.8333333zm183.333334 91.666667c25.31375 0 45.833333 20.52027 45.833333 45.833333l-.002994 166.253819c-45.134135 32.663667-74.573354 85.868962-74.573354 145.831875 0 44.517468 16.230646 76.170481 43.063111 98.133333-4.50355 1.479813-9.318232 2.280973-14.320096 2.280973h-45.833334c-25.31375 0-45.833333-20.519583-45.833333-45.833333v-366.666667c0-25.313063 20.519583-45.833333 45.833333-45.833333zm254.452423 311.352201c-1.693363.571356-3.533671 1.260108-5.31094 2.055856l-.505894.230258c-5.625946 2.603536-10.406633 6.286117-7.52252 10.710017.60325.925318 1.917823 1.644698 3.261898 2.315452l.403426.199925c2.149052 1.060162 4.199085 2.036113 3.357364 3.5722l.894671 2.118143c-3.15237 5.752871-9.919258 5.849648-15.238271 9.681748-6.331411 4.561485-6.457055 9.543317-6.166497 16.394761.402689 9.495534 7.638404 19.338274 14.059806 26.37255 3.693272 4.045766 7.901671 7.731338 12.228657 11.280641 5.321865-13.358811 8.249346-27.921208 8.249346-43.154095 0-14.711234-2.730409-28.797113-7.711046-41.777456zm-60.329467-64.749057c.058334 1.807043.155046 3.611551.340933 5.410172.605734 5.861026 1.686404 17.439172 7.735524 21.794156 6.51567 4.690871 16.876794-1.742353 21.117652-8.083953-8.672694-7.742317-18.50254-14.214253-29.194109-19.120375zm-194.122956-63.269811h-45.833334c-12.656875 0-22.916666 10.259792-22.916666 22.916667s10.259791 22.916666 22.916666 22.916666h45.833334c12.656875 0 22.916666-10.259791 22.916666-22.916666s-10.259791-22.916667-22.916666-22.916667zm183.333333-229.1666667c25.31375 0 45.833333 20.5202707 45.833333 45.8333337l.002453 201.271384c-11.812711-8.331253-25.344129-14.63357-40.660986-18.525856 10.16419-2.344491 17.741867-11.451457 17.741867-22.328862 0-12.656875-10.259792-22.916666-22.916667-22.916666h-45.833333c-12.656875 0-22.916667 10.259791-22.916667 22.916666 0 8.259659 4.369279 15.498486 10.922698 19.531341-11.675593 1.627959-22.9939 4.396422-33.84138 8.183827l.002015-188.131834c0-25.313063 20.519584-45.8333337 45.833334-45.8333337zm-366.666667 137.4999997h-45.833333c-12.656417 0-22.9166667 10.259792-22.9166667 22.916667s10.2602497 22.916667 22.9166667 22.916667h45.833333c12.656417 0 22.916667-10.259792 22.916667-22.916667s-10.26025-22.916667-22.916667-22.916667zm183.333334 0h-45.833334c-12.656875 0-22.916666 10.259792-22.916666 22.916667s10.259791 22.916667 22.916666 22.916667h45.833334c12.656875 0 22.916666-10.259792 22.916666-22.916667s-10.259791-22.916667-22.916666-22.916667zm183.333333-45.833333h-45.833333c-12.656875 0-22.916667 10.260021-22.916667 22.916667s10.259792 22.916666 22.916667 22.916666h45.833333c12.656875 0 22.916667-10.26002 22.916667-22.916666s-10.259792-22.916667-22.916667-22.916667zm-366.666667-45.833333h-45.833333c-12.656417 0-22.9166667 10.26025-22.9166667 22.916666 0 12.656417 10.2602497 22.916667 22.9166667 22.916667h45.833333c12.656417 0 22.916667-10.26025 22.916667-22.916667 0-12.656416-10.26025-22.916666-22.916667-22.916666z" fill-rule="evenodd"/></svg>