<svg height="642" viewBox="0 0 642 642" width="642" xmlns="http://www.w3.org/2000/svg"><path d="m500.964539 490.729979c71.625576 0 121.631206 37.508023 121.631206 91.223405v15.2039h-243.262412v-15.2039c0-53.715382 50.020834-91.223405 121.631206-91.223405zm-245.589539-388.479979c12.075 0 21.875 9.8 21.875 21.875v65.625h87.5v-21.875c0-12.075 9.8-21.875 21.875-21.875h131.25c12.075 0 21.875 9.8 21.875 21.875l.001573 165.157642c-11.762299-5.596851-24.914832-8.730559-38.787034-8.730559-1.665571 0-3.320768.045175-4.964429.134363l-.00011-134.686446h-87.5l-.002724 296.770067c-23.597912 12.914559-41.081371 31.164325-50.425441 53.228888l-233.946835.001045c-12.075 0-21.875-9.8-21.875-21.875v-393.75c0-12.075 9.8-21.875 21.875-21.875zm109.375 131.25h-87.5v262.5h87.5zm-131.25-87.5h-87.5v350h87.5zm267.464539 208.039672c33.539805 0 60.815603 27.275798 60.815603 60.815603s-27.275798 60.815603-60.815603 60.815603-60.815603-27.275798-60.815603-60.815603 27.275798-60.815603 60.815603-60.815603zm-158.089539-98.664672v131.25h-43.75v-131.25zm131.25-43.75-.000391 116.735145c-17.409167 5.411497-32.582064 15.944226-43.749504 29.829l-.000105-146.564145zm-262.5-43.75v175h-43.75v-175z" fill-rule="evenodd"/></svg>