<svg height="40" viewBox="0 0 40 40" width="40" xmlns="http://www.w3.org/2000/svg"><path d="m16.0003 17.7772c1.103 0 2 .896 2 2 0 1.103-.897 2-2 2s-2-.897-2-2c0-1.104.897-2 2-2m0 6c2.206 0 4-1.794 4-4s-1.794-4-4-4-4 1.794-4 4 1.794 4 4 4m-5.8413 6c.598-1.808 2.833-3 5.841-3s5.244 1.192 5.842 3zm5.841-5c-4.71 0-8 2.467-8 6v1h16v-1c0-3.533-3.289-6-8-6zm5.9046-9.3867 1.0605-1.061-.1765-.1765c-.064-.064-.0735-.1385-.0735-.1775 0-.038.0095-.1125.0735-.1765l4.2425-4.2425c.0635-.0635.138-.073.1765-.073.039 0 .1135.0095.177.073l.177.177 1.0605-1.061-.1765-.1765c-.6615-.6615-1.8145-.661-2.475-.0005l-4.2425 4.243c-.331.33-.513.7695-.513 1.237s.182.907.513 1.238zm9.19215-4.24295-1.0605 1.0605.177.1775c.097.097.097.2555 0 .353l-4.243 4.2425c-.0635.064-.138.0735-.1765.0735-.039 0-.113-.0095-.177-.0735l-.177-.1765-1.0605 1.061.177.1765c.3305.3305.77.5125 1.2375.5125s.9065-.182 1.2375-.5125l4.2425-4.243c.682-.683.682-1.7925 0-2.4745zm-3.35865 1.9446-1.0605-1.061 3.5355-3.5355 1.0605 1.061zm-4.9497 4.9497-1.0605-1.0605 3.5355-3.5355 1.0605 1.0605z" fill-rule="evenodd"/></svg>