<svg height="1200" viewBox="0 0 1200 1200" width="1200" xmlns="http://www.w3.org/2000/svg"><path d="m645.60627 539.016136c25.119403-32.274627 56.373135-52.674627 96.179105-56.57015 81.438806-7.961194 144.761194 28.128359 165.931343 113.247762 5.023881 20.194029 7.414926 41.498507 7.683582 62.346268.922388 71.58806.107463 143.211941.635821 214.808956.089552 12.250746-3.644776 15.832835-15.761194 15.564179-34.101492-.743284-68.229851-.250747-102.349254-.268657-17.498507 0-17.561194-.017911-17.570149-17.077612-.026865-64.871642.116418-129.743284-.143283-194.60597-.044776-11.292537-.725374-22.737314-2.740299-33.814926-4.683582-25.719403-16.925373-46.271641-44.328358-52.441791-29.910448-6.734328-54.707463 2.525374-73.235821 27.39403-11.086567 14.874627-14.247761 32.059702-14.265672 50.032836-.080597 67.826866-.035821 135.635821-.035821 203.453731v15.698508c-4.253731.546269-7.459701 1.298507-10.656716 1.298507-37.074627.080597-74.140298-.259701-111.197015.268657-9.904477.134328-11.829851-3.644776-11.81194-12.582089.241791-124.253732.295522-248.516418-.026866-372.779105-.026866-10.226866 3.555224-13.191045 13.101493-13.110448 35.79403.304478 71.60597.420896 107.4-.062686 10.701492-.143284 14.02388 3.814925 13.370149 14.086567-.752239 11.659701-.179105 23.4-.179105 35.113433zm-202.598507 150.970746c0 60.662687-.304478 121.325373.250746 181.979104.116418 12.510448-3.152239 16.826866-16.244776 16.486568-34.943283-.895523-69.931343-.662687-104.883582-.098508-10.629851.170149-14.79403-2.373134-14.758209-13.925373.358209-123.429851.349254-246.850746.008955-370.271642-.026865-11.408955 4.217911-14.462686 14.838806-14.337313 35.373135.438806 70.773135.564179 106.146269-.044776 12.035821-.20597 14.910448 4.567164 14.829851 15.707462-.402985 61.504478-.18806 123-.18806 184.504478zm7.896716-319.130149c-.026865 39.814925-32.086567 69.259701-75.707462 69.555224-42.573135.286567-75.197015-30.18806-75.197015-70.253732-.008955-40.334328 32.955224-70.504477 76.620895-70.155224 43.298508.358209 74.310448 29.946269 74.283582 70.853732z" fill-rule="evenodd"/></svg>