<svg height="1200" viewBox="0 0 1200 1200" width="1200" xmlns="http://www.w3.org/2000/svg"><path d="m347.535 728.5125-21.21-21.21c-35.1-35.07-35.1-92.16 0-127.26l254.55-254.55c33.96-33.99 93.3-33.99 127.29 0l21.21 21.21-42.45 42.42-21.18-21.21c-5.7-5.67-13.2-8.79-21.24-8.79-8.01 0-15.54 3.12-21.18 8.79l-254.58 254.55c-11.7 11.7-11.7 30.72 0 42.42l21.21 21.21zm530.331-233.289c16.98 16.98 26.34 39.6 26.34 63.66 0 23.97-9.36 46.59-26.34 63.57l-254.55 254.58c-17.01 17.01-39.6 26.37-63.66 26.37-24.03 0-46.62-9.36-63.63-26.37l-21.21-21.21 42.42-42.42 21.21 21.21c11.34 11.31 31.11 11.31 42.45 0l254.55-254.58c5.64-5.64 8.76-13.2 8.76-21.15 0-8.04-3.09-15.54-8.76-21.21l-21.24-21.21 42.45-42.45zm-212.139 84.828-42.42-42.42 212.13-212.13 42.42 42.42zm-296.982 296.967-42.42-42.42 212.13-212.13 42.42 42.42z" fill-rule="evenodd"/></svg>