<svg height="40" viewBox="0 0 40 40" width="40" xmlns="http://www.w3.org/2000/svg"><path d="m16 26h-1c-.552 0-1 .448-1 1v3h-2v-3c0-.552-.448-1-1-1h-1v-1c0-1.654 1.346-3 3-3s3 1.346 3 3zm-3-9.5c.551 0 1 .449 1 1s-.449 1-1 1-1-.449-1-1 .449-1 1-1zm5 8.5c0-2.305-1.577-4.231-3.702-4.808 1.003-.485 1.702-1.504 1.702-2.692 0-1.654-1.346-3-3-3s-3 1.346-3 3c0 1.188.699 2.207 1.702 2.692-2.125.577-3.702 2.503-3.702 4.808v2c0 .552.448 1 1 1h1v3c0 .552.448 1 1 1h4c.552 0 1-.448 1-1v-3h1c.552 0 1-.448 1-1zm2 5c0-1.104.897-2 2-2s2 .896 2 2zm3.754-3.577c.751-.546 1.246-1.425 1.246-2.423h-2c0 .551-.449 1-1 1s-1-.449-1-1h-2c0 .998.495 1.877 1.246 2.423-1.325.652-2.246 2.004-2.246 3.577v1c0 .552.448 1 1 1h6c.552 0 1-.448 1-1v-1c0-1.573-.921-2.925-2.246-3.577zm6.246-7.423h-6v-5h6zm-3-9c1.103 0 2 .896 2 2h-4c0-1.104.897-2 2-2zm4 2c0-2.206-1.794-4-4-4s-4 1.794-4 4c-.552 0-1 .448-1 1v7c0 .552.448 1 1 1h8c.552 0 1-.448 1-1v-7c0-.552-.448-1-1-1zm-3 4c0 .553-.448 1-1 1s-1-.447-1-1c0-.552.448-1 1-1s1 .448 1 1" fill-rule="evenodd"/></svg>