<svg height="1200" viewBox="0 0 1200 1200" width="1200" xmlns="http://www.w3.org/2000/svg"><path d="m540 750v60c0 16.56-13.44 30-30 30h-30v90c0 16.56-13.44 30-30 30h-120c-16.56 0-30-13.44-30-30v-90h-30c-16.56 0-30-13.44-30-30v-60c0-69.15 47.31-126.93 111.06-144.24-30.09-14.55-51.06-45.12-51.06-80.76 0-49.62 40.38-90 90-90s90 40.38 90 90c0 35.64-20.97 66.21-51.06 80.76 63.75 17.31 111.06 75.09 111.06 144.24zm-60 30v-30c0-49.62-40.38-90-90-90s-90 40.38-90 90v30h30c16.56 0 30 13.44 30 30v90h60v-90c0-16.56 13.44-30 30-30zm-90-285c-16.53 0-30 13.47-30 30s13.47 30 30 30 30-13.47 30-30-13.47-30-30-30zm322.62 297.69c39.75 19.56 67.38 60.12 67.38 107.31v30c0 16.56-13.44 30-30 30h-180c-16.56 0-30-13.44-30-30v-30c0-47.19 27.63-87.75 67.38-107.31-22.53-16.38-37.38-42.75-37.38-72.69h60c0 16.53 13.47 30 30 30s30-13.47 30-30h60c0 29.94-14.85 56.31-37.38 72.69zm-112.62 107.31h120c0-33.12-26.91-60-60-60s-60 26.88-60 60zm330-540c16.56 0 30 13.44 30 30v210c0 16.56-13.44 30-30 30h-240c-16.56 0-30-13.44-30-30v-210c0-16.56 13.44-30 30-30 0-66.18 53.82-120 120-120s120 53.82 120 120zm-30 210v-150h-180v150zm-90-270c-33.09 0-60 26.88-60 60h120c0-33.12-26.91-60-60-60zm30 180c0 16.59-13.44 30-30 30s-30-13.41-30-30c0-16.56 13.44-30 30-30s30 13.44 30 30z" fill-rule="evenodd"/></svg>