<svg height="40" viewBox="0 0 40 40" width="40" xmlns="http://www.w3.org/2000/svg"><path d="m21.520209 17.9672045c.8373134-1.0758209 1.8791045-1.7558209 3.2059702-1.8856716 2.7146268-.2653732 4.8253731.9376119 5.5310447 3.7749254.1674627.6731343.2471642 1.3832835.2561194 2.0782089.0307463 2.3862687.0035821 4.7737314.0211941 7.1602985.002985.4083582-.1214926.5277612-.5253732.518806-1.1367164-.0247761-2.2743283-.0083582-3.4116418-.0089552-.5832835 0-.5853731-.0005971-.5856716-.5692538-.0008955-2.162388.0038806-4.3247761-.0047761-6.4868656-.0014925-.3764179-.0241791-.7579105-.0913433-1.1271642-.1561194-.8573135-.5641791-1.5423881-1.4776119-1.7480597-.997015-.2244776-1.8235821.0841791-2.4411941.9131343-.3695522.4958209-.4749253 1.0686567-.4755224 1.6677612-.0026865 2.2608955-.001194 4.521194-.001194 6.781791v.5232836c-.141791.018209-.2486567.0432836-.3552239.0432836-1.2358209.0026866-2.4713432-.0086567-3.7065671.0089552-.3301493.0044776-.3943284-.1214925-.3937314-.4194029.0080597-4.1417911.0098508-8.2838806-.0008955-12.4259702-.0008955-.3408955.1185075-.4397015.4367164-.4370149 1.1931344.0101492 2.3868657.0140298 3.58-.0020896.3567164-.0047761.4674627.1271642.4456717.4695523-.0250747.3886567-.0059702.78-.0059702 1.1704477zm-6.7532836 5.0323582c0 2.0220896-.0101492 4.0441791.0083582 6.0659702.0038806.4170149-.1050746.5608955-.5414925.5495522-1.1647761-.0298507-2.3310448-.0220895-3.4961194-.0032836-.3543284.0056717-.4931343-.0791044-.4919403-.4641791.0119403-4.1143283.0116418-8.2283582.0002985-12.342388-.0008955-.3802985.140597-.4820896.4946269-.4779105 1.1791045.0146269 2.3591045.018806 3.5382089-.0014925.4011941-.0068657.497015.1522388.4943284.5235821-.0134328 2.0501492-.0062687 4.1-.0062687 6.1501492zm.2632239-10.6376716c-.0008955 1.3271642-1.0695522 2.3086567-2.5235821 2.3185075-1.4191045.0095522-2.5065671-1.0062687-2.5065671-2.3417911-.00029855-1.3444776 1.0985074-2.35014925 2.5540298-2.3385075 1.4432836.0119403 2.4770149.998209 2.4761194 2.3617911z" fill-rule="evenodd"/></svg>