<svg height="1200" viewBox="0 0 1200 1200" width="1200" xmlns="http://www.w3.org/2000/svg"><path d="m480 780h-30c-16.56 0-30 13.44-30 30v90h-60v-90c0-16.56-13.44-30-30-30h-30v-30c0-49.62 40.38-90 90-90s90 40.38 90 90zm-90-285c16.53 0 30 13.47 30 30s-13.47 30-30 30-30-13.47-30-30 13.47-30 30-30zm150 255c0-69.15-47.31-126.93-111.06-144.24 30.09-14.55 51.06-45.12 51.06-80.76 0-49.62-40.38-90-90-90s-90 40.38-90 90c0 35.64 20.97 66.21 51.06 80.76-63.75 17.31-111.06 75.09-111.06 144.24v60c0 16.56 13.44 30 30 30h30v90c0 16.56 13.44 30 30 30h120c16.56 0 30-13.44 30-30v-90h30c16.56 0 30-13.44 30-30zm60 150c0-33.12 26.91-60 60-60s60 26.88 60 60zm112.62-107.31c22.53-16.38 37.38-42.75 37.38-72.69h-60c0 16.53-13.47 30-30 30s-30-13.47-30-30h-60c0 29.94 14.85 56.31 37.38 72.69-39.75 19.56-67.38 60.12-67.38 107.31v30c0 16.56 13.44 30 30 30h180c16.56 0 30-13.44 30-30v-30c0-47.19-27.63-87.75-67.38-107.31zm187.38-222.69h-180v-150h180zm-90-270c33.09 0 60 26.88 60 60h-120c0-33.12 26.91-60 60-60zm120 60c0-66.18-53.82-120-120-120s-120 53.82-120 120c-16.56 0-30 13.44-30 30v210c0 16.56 13.44 30 30 30h240c16.56 0 30-13.44 30-30v-210c0-16.56-13.44-30-30-30zm-90 120c0 16.59-13.44 30-30 30s-30-13.41-30-30c0-16.56 13.44-30 30-30s30 13.44 30 30" fill-rule="evenodd"/></svg>