<svg height="1200" viewBox="0 0 1200 1200" width="1200" xmlns="http://www.w3.org/2000/svg"><path d="m347.535 728.5125 42.42-42.42-21.21-21.21c-11.7-11.7-11.7-30.72 0-42.42l254.58-254.55c5.64-5.67 13.17-8.79 21.18-8.79 8.04 0 15.54 3.12 21.24 8.79l21.18 21.21 42.45-42.42-21.21-21.21c-33.99-33.99-93.33-33.99-127.29 0l-254.55 254.55c-35.1 35.1-35.1 92.19 0 127.26zm530.331-233.289-21.21-21.21-42.45 42.45 21.24 21.21c5.67 5.67 8.76 13.17 8.76 21.21 0 7.95-3.12 15.51-8.76 21.15l-254.55 254.58c-11.34 11.31-31.11 11.31-42.45 0l-21.21-21.21-42.42 42.42 21.21 21.21c17.01 17.01 39.6 26.37 63.63 26.37 24.06 0 46.65-9.36 63.66-26.37l254.55-254.58c16.98-16.98 26.34-39.6 26.34-63.57 0-24.06-9.36-46.68-26.34-63.66m-212.139 84.828-42.42-42.42 212.13-212.13 42.42 42.42zm-296.982 296.967-42.42-42.42 212.13-212.13 42.42 42.42z" fill-rule="evenodd"/></svg>