<svg height="1200" viewBox="0 0 1200 1200" width="1200" xmlns="http://www.w3.org/2000/svg"><path d="m480.009 533.316c33.09 0 60 26.88 60 60 0 33.09-26.91 60-60 60s-60-26.91-60-60c0-33.12 26.91-60 60-60m0 180c66.18 0 120-53.82 120-120s-53.82-120-120-120-120 53.82-120 120 53.82 120 120 120m-175.239 180c17.94-54.24 84.99-90 175.23-90s157.32 35.76 175.26 90zm175.23-150c-141.3 0-240 74.01-240 180v30h480v-30c0-105.99-98.67-180-240-180zm177.138-281.601 31.815-31.83-5.295-5.295c-1.92-1.92-2.205-4.155-2.205-5.325 0-1.14.285-3.375 2.205-5.295l127.275-127.275c1.905-1.905 4.14-2.19 5.295-2.19 1.17 0 3.405.285 5.31 2.19l5.31 5.31 31.815-31.83-5.295-5.295c-19.845-19.845-54.435-19.83-74.25-.015l-127.275 127.29c-9.93 9.9-15.39 23.085-15.39 37.11s5.46 27.21 15.39 37.14zm275.7645-127.2885-31.815 31.815 5.31 5.325c2.91 2.91 2.91 7.665 0 10.59l-127.29 127.275c-1.905 1.92-4.14 2.205-5.295 2.205-1.17 0-3.39-.285-5.31-2.205l-5.31-5.295-31.815 31.83 5.31 5.295c9.915 9.915 23.1 15.375 37.125 15.375s27.195-5.46 37.125-15.375l127.275-127.29c20.46-20.49 20.46-53.775 0-74.235zm-100.7595 58.338-31.815-31.83 106.065-106.065 31.815 31.83zm-148.491 148.491-31.815-31.815 106.065-106.065 31.815 31.815z" fill-rule="evenodd"/></svg>