<svg height="642" viewBox="0 0 642 642" width="642" xmlns="http://www.w3.org/2000/svg"><path d="m508.145 229.134844 15.465625 15.465625c12.38125 12.38125 19.20625 28.875 19.20625 46.41875 0 17.478125-6.825 33.971875-19.20625 46.353125l-185.609375 185.63125c-12.403125 12.403125-28.875 19.228125-46.41875 19.228125-17.521875 0-33.99375-6.825-46.396875-19.228125l-15.465625-15.465625 30.93125-30.93125 15.465625 15.465625c8.26875 8.246875 22.684375 8.246875 30.953125 0l185.609375-185.63125c4.1125-4.1125 6.3875-9.625 6.3875-15.421875 0-5.8625-2.253125-11.33125-6.3875-15.465625l-15.4875-15.465625zm-232.021562 108.248437 30.93125 30.93125-154.678125 154.678125-30.93125-30.93125zm30.93125-216.545c24.7625-24.7843747 68.031249-24.7843747 92.815625 0l15.465625 15.465625-30.953126 30.93125-15.443749-15.465625c-4.156251-4.134375-9.625001-6.409375-15.487501-6.409375-5.840625 0-11.331249 2.275-15.44375 6.409375l-185.63125 185.609375c-8.531249 8.53125-8.531249 22.4 0 30.93125l15.465625 15.465625-30.93125 30.93125-15.465624-15.465625c-25.5937505-25.571875-25.5937505-67.2 0-92.79375zm185.618124.006563 30.93125 30.93125-154.678125 154.678125-30.93125-30.93125z" fill-rule="evenodd"/></svg>