<svg height="40" viewBox="0 0 40 40" width="40" xmlns="http://www.w3.org/2000/svg"><path d="m11.5845 24.28375 1.414-1.414-.707-.707c-.39-.39-.39-1.024 0-1.414l8.486-8.485c.188-.189.439-.293.706-.293.268 0 .518.104.708.293l.706.707 1.415-1.414-.707-.707c-1.133-1.133-3.111-1.133-4.243 0l-8.485 8.485c-1.17 1.17-1.17 3.073 0 4.242zm17.6777-7.7763-.707-.707-1.415 1.415.708.707c.189.189.292.439.292.707 0 .265-.104.517-.292.705l-8.485 8.486c-.378.377-1.037.377-1.415 0l-.707-.707-1.414 1.414.707.707c.567.567 1.32.879 2.121.879.802 0 1.555-.312 2.122-.879l8.485-8.486c.566-.566.878-1.32.878-2.119 0-.802-.312-1.556-.878-2.122m-7.0713 2.8276-1.414-1.414 7.071-7.071 1.414 1.414zm-9.8994 9.8989-1.414-1.414 7.071-7.071 1.414 1.414z" fill-rule="evenodd"/></svg>