<svg height="280" viewBox="0 0 280 280" width="280" xmlns="http://www.w3.org/2000/svg"><path d="m86.7106 116.7107 7.071 7.071c3.9053 3.905 3.9053 10.237 0 14.142l-27.9288 27.929c-13.1371 13.137-13.1371 34.437 0 47.574s34.4367 13.137 47.5737 0l27.929-27.929c3.905-3.905 10.237-3.905 14.142 0l7.071 7.071c3.905 3.905 3.905 10.237 0 14.142l-27.929 27.929c-24.853 24.853-65.1471 24.853-89.9999 0s-24.8528-65.147 0-90l27.9288-27.929c3.9053-3.905 10.2369-3.905 14.1422 0zm75.8579-19.9999c3.905-3.9053 10.237-3.9053 14.142 0l5.858 5.8579c3.905 3.905 3.905 10.237 0 14.142l-65.858 65.858c-3.905 3.905-10.237 3.905-14.142 0l-5.8579-5.858c-3.9053-3.905-3.9053-10.237 0-14.142zm-17.929-52.0712c24.853-24.8528 65.147-24.8528 90 0 24.853 24.8529 24.853 65.1471 0 90.0001l-27.929 27.929c-3.905 3.905-10.237 3.905-14.142 0l-7.071-7.071c-3.905-3.905-3.905-10.237 0-14.142l27.929-27.929c13.137-13.137 13.137-34.4368 0-47.5739s-34.437-13.137-47.574 0l-27.929 27.929c-3.905 3.9053-10.237 3.9053-14.142 0l-7.071-7.071c-3.905-3.9053-3.905-10.2369 0-14.1422z"/></svg>