<svg height="642" viewBox="0 0 642 642" width="642" xmlns="http://www.w3.org/2000/svg"><path d="m321 94.9546875c84.4375 0 153.125 68.6874995 153.125 153.1250005 0 86.1-101.521875 230.146875-153.125 298.965625-51.603125-68.840625-153.125-212.865625-153.125-298.965625 0-84.437501 68.6875-153.1250005 153.125-153.1250005zm0 43.7500005c-60.309375 0-109.375 49.065625-109.375 109.375 0 56.678124 67.965625 165.878125 109.375 225.115625 41.3875-59.259376 109.375-168.48125 109.375-225.115625 0-60.309375-49.065625-109.375-109.375-109.375zm0 43.75c36.18125 0 65.625 29.44375 65.625 65.625s-29.44375 65.625-65.625 65.625-65.625-29.44375-65.625-65.625 29.44375-65.625 65.625-65.625zm0 43.75c-12.053125 0-21.875 9.821875-21.875 21.875 0 12.075 9.821875 21.875 21.875 21.875s21.875-9.8 21.875-21.875c0-12.053125-9.821875-21.875-21.875-21.875z" fill-rule="evenodd"/></svg>