<svg height="1200" viewBox="0 0 1200 1200" width="1200" xmlns="http://www.w3.org/2000/svg"><path d="m600 480c-16.53 0-30 13.47-30 30 0 16.56 13.47 30 30 30s30-13.44 30-30c0-16.53-13.47-30-30-30m0 120c-49.62 0-90-40.38-90-90s40.38-90 90-90 90 40.38 90 90-40.38 90-90 90m0-240c-82.71 0-150 67.29-150 150 0 77.73 93.21 227.49 150 308.73 56.76-81.27 150-231.06 150-308.73 0-82.71-67.29-150-150-150m0 560.01c-70.77-94.41-210-291.93-210-410.01 0-115.8 94.2-210 210-210s210 94.2 210 210c0 118.08-139.23 315.63-210 410.01" fill-rule="evenodd"/></svg>