<svg height="642" viewBox="0 0 642 642" width="642" xmlns="http://www.w3.org/2000/svg"><path d="m321 102.25c71.732164 0 129.882573 58.150409 129.882573 129.882573v61.526548h20.503745c22.65029-.000001 41.014348 18.357202 41.022803 41.00749v164.060586c0 22.656269-18.366534 41.022803-41.022803 41.022803h-300.772636c-22.656269 0-41.022803-18.366534-41.022803-41.022803v-164.060586c0-22.656268 18.366534-41.022803 41.022803-41.022803h20.503745v-61.511235c0-71.732164 58.150409-129.882573 129.882573-129.882573zm.597196 271.157817c-22.580155 0-40.884988 18.304833-40.884988 40.884989 0 22.580155 18.304833 40.884988 40.884988 40.884988 22.556258 0 40.851197-18.267506 40.884989-40.823737v-.061251c0-22.580156-18.304833-40.884989-40.884989-40.884989zm-.597196-202.863043c-33.980174 0-61.526548 27.546374-61.526548 61.526548v61.526548h123.053096v-61.526548c0-33.980174-27.546374-61.526548-61.526548-61.526548z"/></svg>