<svg height="280" viewBox="0 0 280 280" width="280" xmlns="http://www.w3.org/2000/svg"><path d="m140 15c34.4625 0 62.5 28.0375 62.5 62.5v50c13.7875 0 25 11.2 25 25v87.5c0 13.7875-11.2125 25-25 25h-125c-13.7875 0-25-11.2125-25-25v-87.5c0-13.8 11.2125-25 25-25v-50c0-34.4625 28.0375-62.5 62.5-62.5zm62.5 137.5h-125v87.5h125.025zm-62.5 25c10.35 0 18.75 8.4 18.75 18.75s-8.4 18.75-18.75 18.75-18.75-8.4-18.75-18.75 8.4-18.75 18.75-18.75zm0-137.5c-20.675 0-37.5 16.825-37.5 37.5v50h75v-50c0-20.675-16.825-37.5-37.5-37.5z" fill-rule="evenodd"/></svg>