<svg height="642" viewBox="0 0 642 642" width="642" xmlns="http://www.w3.org/2000/svg"><path d="m321 102.25c60.309375 0 109.375 49.065625 109.375 109.375v87.5c24.128125 0 43.75 19.6 43.75 43.75v153.125c0 24.128125-19.621875 43.75-43.75 43.75h-218.75c-24.128125 0-43.75-19.621875-43.75-43.75v-153.125c0-24.15 19.621875-43.75 43.75-43.75v-87.5c0-60.309375 49.065625-109.375 109.375-109.375zm109.375 240.625h-218.75v153.125h218.79375zm-109.375 43.75c18.1125 0 32.8125 14.7 32.8125 32.8125s-14.7 32.8125-32.8125 32.8125-32.8125-14.7-32.8125-32.8125 14.7-32.8125 32.8125-32.8125zm0-240.625c-36.18125 0-65.625 29.44375-65.625 65.625v87.5h131.25v-87.5c0-36.18125-29.44375-65.625-65.625-65.625z" fill-rule="evenodd"/></svg>