<svg height="280" viewBox="0 0 280 280" width="280" xmlns="http://www.w3.org/2000/svg"><path d="m179.663428 41.8691589c31.916324 0 57.942238 25.7064017 58.459565 57.5020648l.007848.9653483v79.326856c0 31.916677-25.706402 57.942245-57.502065 58.459565l-.965348.007848h-79.326856c-31.9166767 0-57.9422451-25.706402-58.4595648-57.502065l-.0078483-.965348v-79.326856c0-31.9166767 25.7064017-57.9422451 57.5020648-58.4595648l.9653483-.0078483zm0 19.7439179h-79.326856c-21.1723545 0-38.3763447 16.9919176-38.7183073 38.0831265l-.0051879.6403687v79.326856c0 21.172355 16.9922667 38.376345 38.083137 38.718307l.6403582.005188h79.326856c21.172355 0 38.376345-16.992266 38.718307-38.083137l.005188-.640358v-79.326856c0-21.1727071-16.992266-38.3763517-38.083137-38.7183074zm-39.663428 27.6266685c27.989249 0 50.760255 22.7706487 50.760255 50.7598987 0 27.989249-22.771006 50.760254-50.760255 50.760254s-50.7602547-22.771361-50.7602547-50.760254 22.7710057-50.7598987 50.7602547-50.7598987zm0 19.7439177c-17.129631 0-31.016337 13.886349-31.016337 31.016337s13.886349 31.016337 31.016337 31.016337c17.129631 0 31.016337-13.886706 31.016337-31.016337 0-17.129988-13.886349-31.016337-31.016337-31.016337zm50.857133-31.5249469c6.717353 0 12.162843 5.4454904 12.162843 12.1628433 0 6.7173528-5.44549 12.1628436-12.162843 12.1628436s-12.162843-5.4454908-12.162843-12.1628436c0-6.7173529 5.44549-12.1628433 12.162843-12.1628433z"/></svg>