<svg height="642" viewBox="0 0 642 642" width="642" xmlns="http://www.w3.org/2000/svg"><path d="m96 323.070789c0 109.561515 78.328211 200.789291 182.033481 220.856538.908208-1.612917 1.416955-3.406722 1.416955-5.430405 0-.542663-.048991-5.441709-.139435-14.700907-.090443-9.259197-.135665-17.338854-.135665-24.227667l-6.263242 1.081559c-3.990839.731088-9.029319 1.043873-15.111674.953429-6.078585-.082907-12.387049-.719783-18.917855-1.906859-6.538342-1.172003-12.616928-3.896626-18.243294-8.162565-5.626366-4.265938-9.620973-9.847082-11.980052-16.739664l-2.720855-6.263242c-1.816415-4.175494-4.669168-8.806977-8.577099-13.886911-3.900395-5.079934-7.849779-8.531878-11.840618-10.344525l-1.906859-1.364196c-1.269984-.908207-2.445755-2.001071-3.538619-3.267286-1.089096-1.269984-1.903091-2.539967-2.449523-3.813719-.542664-1.273752-.090444-2.313858 1.360427-3.13539 1.45464-.821532 4.081283-1.217225 7.895002-1.217225l5.445478.810227c3.629062.731089 8.121111 2.905512 13.479914 6.538343 5.351266 3.629062 9.75287 8.347221 13.201045 14.150706 4.175495 7.442782 9.210207 13.11437 15.107905 17.018533 5.901466 3.904163 11.844386 5.852476 17.836296 5.852476 5.988142 0 11.15852-.45222 15.518671-1.356659 4.352614-.911977 8.433896-2.272404 12.251384-4.085051 1.631759-12.168477 6.078585-21.51435 13.336711-28.048924-10.344525-1.085327-19.645175-2.720854-27.905721-4.902814-8.256777-2.178192-16.788654-5.713042-25.588095-10.619625-8.806977-4.899046-16.114093-10.9814-21.921347-18.239526-5.807254-7.261893-10.570634-16.792422-14.293909-28.587818-3.715738-11.802933-5.577376-25.410976-5.577376-40.839203 0-21.966569 7.17145-40.662083 21.510581-56.086541-6.715462-16.517323-6.082354-35.02818 1.90686-55.540109 5.260822-1.635528 13.065379-.406998 23.413672 3.674284 10.344524 4.085051 17.919203 7.585985 22.731574 10.483959 4.812371 2.901743 8.671312 5.358803 11.573054 7.348569 16.886636-4.718158 34.308397-7.077237 52.272823-7.077237 17.971962 0 35.397492 2.359079 52.280359 7.077237l10.344525-6.530805c7.077237-4.356383 15.431995-8.35099 25.045431-11.980052 9.620973-3.629063 16.977079-4.627715 22.060782-2.995955 8.162564 20.515698 8.893653 39.026555 2.174422 55.543878 14.335363 15.424458 21.510581 34.12374 21.510581 56.082772 0 15.428227-1.869174 29.085261-5.581144 40.974869-3.719506 11.893376-8.528108 21.416368-14.422038 28.587818-5.905235 7.175219-13.257572 13.208582-22.060782 18.10386-8.803209 4.902815-17.335086 8.441433-25.595631 10.619625-8.256777 2.18196-17.557428 3.817487-27.901952 4.906583 9.432548 8.166333 14.154474 21.054593 14.154474 38.661011v57.439432c0 .2751.056528.523821.071602.791384 93.963705-27.016355 162.738776-113.552353 162.738776-216.206212 0-124.26619-100.735694-224.9981156-224.998116-224.9981156-124.26619 0-225.001884 100.7319256-225.001884 224.9981156z" fill-rule="evenodd"/></svg>