<svg height="642" viewBox="0 0 642 642" width="642" xmlns="http://www.w3.org/2000/svg"><path d="m546 96v450h-450v-450zm-146.12044 168.269341c-35.475824 0-51.312857 19.523077-60.187252 33.178351v-28.462747h-66.794835c.411725 8.668068.444663 51.864373.360177 95.988774l-.011665 5.757858c-.10649 49.899187-.348512 99.117544-.348512 99.117544h66.794835v-112.179561c0-6.01912.458901-11.985824 2.215384-16.278131 4.832308-12.016484 15.801429-24.421649 34.26033-24.421649 24.17044 0 33.819231 18.424286 33.819231 45.415385v107.463956h66.781978v-115.186154c0-61.692527-32.940989-90.393626-76.889671-90.393626zm-163.912747 4.714615h-66.764176v200.864176h66.764176zm-32.944945-96.832088c-22.85011 0-37.791099 14.992418-37.791099 34.701429 0 19.285714 14.516704 34.715274 36.912857 34.715274h.441099c23.292198 0 37.774286-15.42956 37.774286-34.715274-.437143-19.709011-14.482088-34.701429-37.337143-34.701429z"/></svg>