<svg height="642" viewBox="0 0 642 642" width="642" xmlns="http://www.w3.org/2000/svg"><path d="m535.801286 179.305626c-7.069332 3.135473-14.337533 5.781755-21.763961 7.930135 8.792391-9.943516 15.495917-21.643478 19.588001-34.446661.917416-2.86983-.033387-6.01111-2.392251-7.888039-2.35596-1.878381-5.629336-2.10338-8.22336-.566127-15.771722 9.354163-32.787473 16.07656-50.629189 20.007515-17.97236-17.561556-42.382603-27.555878-67.617359-27.555878-53.266761 0-96.60307 43.334858-96.60307 96.600168 0 4.195147.265644 8.367069.791126 12.480927-66.098977-5.80353-127.549905-38.291972-169.748153-90.054867-1.503867-1.844994-3.820633-2.839345-6.192561-2.649185-2.373379.185806-4.505792 1.524189-5.70482 3.581118-8.558681 14.685919-13.083344 31.482477-13.083344 48.57226 0 23.276537 8.310457 45.361303 22.99057 62.618021-4.463695-1.545963-8.795294-3.478054-12.929474-5.773046-2.219509-1.235319-4.92821-1.216448-7.133202.047903-2.206445 1.264351-3.589827 3.589827-3.647892 6.131593-.010161.428224-.010161.856449-.010161 1.29048 0 34.744241 18.699616 66.024944 47.289039 83.074082-2.456121-.245322-4.910791-.600966-7.349492-1.066932-2.514186-.480482-5.0995.400644-6.794978 2.318218-1.698382 1.916123-2.260154 4.587082-1.477737 7.025784 10.582223 33.038601 37.827456 57.339973 70.764445 64.748981-27.317813 17.110105-58.557872 26.072334-91.352604 26.072334-6.84288 0-13.724955-.402095-20.460416-1.199028-3.345957-.397741-6.5453015 1.577898-7.6848139 4.759823-1.1395124 3.183377.0682255 6.732558 2.9148291 8.55723 42.1300228 27.012976 90.8445408 41.290994 140.8742158 41.290994 98.352258 0 159.87867-46.378881 194.172912-85.286334 42.764376-48.514196 67.290747-112.728985 67.290747-176.177326 0-2.650636-.040645-5.327402-.121935-7.995457 16.872042-12.711733 31.398285-28.095876 43.21873-45.777915 1.795639-2.685475 1.601124-6.234657-.479031-8.706746-2.077251-2.47354-5.539337-3.273376-8.494811-1.964025z"/></svg>