<svg height="642" viewBox="0 0 642 642" width="642" xmlns="http://www.w3.org/2000/svg"><path d="m411.942573 96c73.179573 0 132.853276 58.941107 134.039432 131.84402l.017995 2.213407v181.885146c0 73.180381-58.941107 132.853292-131.84402 134.039432l-2.213407.017995h-181.885146c-73.180381 0-132.8532918-58.941107-134.039432-131.84402l-.017995-2.213407v-181.885146c0-73.180381 58.941107-132.8532918 131.84402-134.039432l2.213407-.017995zm0 45.269983h-181.885146c-48.545185 0-87.991477 38.96004-88.775549 87.319169l-.011895 1.468275v181.885146c0 48.545185 38.96084 87.991477 87.319193 88.775549l1.468251.011895h181.885146c48.545185 0 87.991477-38.96084 88.775549-87.319193l.011895-1.468251v-181.885146c0-48.545994-38.96084-87.991493-87.319193-88.775549zm-90.942573 63.344005c64.17535 0 116.386012 52.209845 116.386012 116.385195 0 64.175351-52.210662 116.386013-116.386012 116.386013s-116.386012-52.211479-116.386012-116.386013c0-64.174533 52.210662-116.385195 116.386012-116.385195zm0 45.269983c-39.275798 0-71.116029 31.839414-71.116029 71.116029s31.839414 71.116029 71.116029 71.116029c39.275798 0 71.116029-31.840231 71.116029-71.116029 0-39.276615-31.839414-71.116029-71.116029-71.116029zm116.60814-72.282201c15.401931 0 27.887662 12.485732 27.887662 27.887663 0 15.40193-12.485731 27.887662-27.887662 27.887662-15.40193 0-27.887662-12.485732-27.887662-27.887662 0-15.401931 12.485732-27.887663 27.887662-27.887663z"/></svg>