<svg height="642" viewBox="0 0 642 642" width="642" xmlns="http://www.w3.org/2000/svg"><path d="m46 323.530964c0 133.908518 95.73448 245.409134 222.485366 269.935769 1.110031-1.971343 1.731833-4.163771 1.731833-6.637161 0-.663256-.059877-6.650979-.170419-17.967775-.110543-11.316797-.165814-21.191934-.165814-29.611594l-7.655074 1.321905c-4.877691.893553-11.035834 1.275846-18.469823 1.165303-7.429382-.101331-15.139727-.879735-23.121823-2.330606-7.991307-1.432448-15.420689-4.762543-22.297359-9.976468s-11.758967-12.035323-14.642286-20.459589l-3.325489-7.655074c-2.220064-5.103382-5.706761-10.764083-10.483122-16.972892-4.767148-6.208808-9.594174-10.42785-14.471866-12.643307l-2.330606-1.667351c-1.552202-1.110031-2.989255-2.445754-4.324978-3.99335-1.331117-1.552202-2.326-3.104404-2.993862-4.661212-.663255-1.556808-.110542-2.828048 1.662745-3.832143 1.777893-1.004095 4.988234-1.487719 9.649446-1.487719l6.655584.990277c4.435521.893553 9.925803 3.551181 16.475451 7.991307 6.540436 4.435522 11.920175 10.202159 16.134611 17.295308 5.103382 9.096733 11.256919 16.028674 18.465216 20.800429 7.212904 4.771755 14.476472 7.153026 21.799918 7.153026 7.31884 0 13.638191-.552713 18.967265-1.658139 5.319861-1.114637 10.308095-2.777382 14.973913-4.992839 1.994373-14.872583 7.429383-26.295317 16.300425-34.282018-12.643308-1.326511-24.01077-3.325489-34.106992-5.992329-10.091616-2.662234-20.519466-6.982606-31.274338-12.979541-10.764084-5.987723-19.695003-13.421712-26.792758-22.292754-7.097755-8.875648-12.919664-20.524072-17.470334-34.940667-4.541457-14.425807-6.816792-31.057859-6.816792-49.914581 0-26.848029 8.765105-49.698101 26.29071-68.550217-8.207786-20.187839-7.433988-42.81222 2.330606-67.882356 6.429894-1.998978 15.968797-.497441 28.616711 4.490792 12.643307 4.99284 21.901248 9.271759 27.783035 12.813728 5.881786 3.546574 10.59827 6.549648 14.144844 8.981584 20.639221-5.766637 41.932485-8.649956 63.889005-8.649956 21.965732 0 43.263602 2.883319 63.898217 8.649956l12.643308-7.982095c8.649957-5.324468 18.861327-10.206765 30.611083-14.642286 11.758966-4.435521 20.749763-5.656095 26.963177-3.661723 9.976468 25.074742 10.87002 47.699123 2.657628 67.886962 17.520999 18.852116 26.29071 41.706794 26.29071 68.545611 0 18.856722-2.284546 35.548652-6.821398 50.080395-4.546064 14.536349-10.423244 26.175562-17.626936 34.940667-7.217509 8.769711-16.2037 16.143823-26.963177 22.12694-10.759478 5.992329-21.187328 10.317307-31.28355 12.979541-10.091617 2.66684-21.459079 4.665818-34.102386 5.996935 11.52867 9.981074 17.299913 25.733391 17.299913 47.252347v70.20375c0 .336234.06909.640226.087513.967248 114.844529-33.01999 198.902949-138.786209 198.902949-264.252038 0-151.880898-123.121404-274.9976965-274.997697-274.9976965-151.880899 0-275.002303 123.1167985-275.002303 274.9976965z" fill-rule="evenodd"/></svg>