<svg height="280" viewBox="0 0 280 280" width="280" xmlns="http://www.w3.org/2000/svg"><path d="m238.130841 41.8691589v196.2616821h-196.2616821v-196.2616821zm-135.216966 75.4447161h-29.1183322v87.604313h29.1183322zm71.488426-2.056219c-15.472323 0-22.37944 8.514738-26.249893 14.470309v-12.413659h-29.131703c.132724 2.794258.175196 13.815479.173444 27.146312l-.000759 2.375271c-.012791 25.566262-.172685 58.082731-.172685 58.082731h29.131703v-48.925665c0-2.625162.200144-5.227463.966212-7.099497 2.107548-5.240834 6.891588-10.651186 14.9422-10.651186 10.541624 0 14.74982 8.035514 14.74982 19.807333v46.869015h29.126096v-50.236952c0-26.906398-14.366786-39.424012-33.534435-39.424012zm-85.856938-40.1758444c-9.96578 0-16.4820992 6.5387491-16.4820992 15.1345795 0 8.4112149 6.3312725 15.1406179 16.0990655 15.1406179h.1923795c10.158591 0 16.4747662-6.729403 16.4747662-15.1406179-.190654-8.5958304-6.3161752-15.1345795-16.284112-15.1345795z"/></svg>