<svg height="280" viewBox="0 0 280 280" width="280" xmlns="http://www.w3.org/2000/svg"><path d="m20.0623053 141.103847c0 58.402469 41.7533558 107.032021 97.0341157 117.728996.484126-.859776.755317-1.815975.755317-2.894712 0-.28927-.026115-2.900738-.074326-7.836413-.048212-4.935674-.072318-9.242588-.072318-12.914714l-3.338661.576532c-2.127342.389712-4.813137.556444-8.055375.508232-3.240229-.044194-6.6029961-.383685-10.0842839-1.016464-3.4853053-.624743-6.7255345-2.077121-9.7247051-4.351107-2.9991705-2.273986-5.1285214-5.249051-6.3860436-8.923185l-1.4503692-3.338662c-.968252-2.225774-2.4889299-4.694616-4.5720778-7.402507-2.0791303-2.707892-4.1843753-4.547972-6.3117173-5.514215l-1.0164637-.727194c-.6769729-.484126-1.3037252-1.066684-1.8862835-1.741648-.5805494-.676973-1.0144548-1.353946-1.305734-2.032927-.2892703-.678982-.0482117-1.233417.7251846-1.67134.7754051-.437923 2.1755538-.648849 4.2084812-.648849l2.9027471.431896c1.9344951.389712 4.3290104 1.548802 7.1855546 3.485306 2.8525266 1.934495 5.1988302 4.449539 7.0369019 7.543125 2.2257743 3.967422 4.9095599 6.990699 8.0533656 9.071838 3.1458145 2.081139 6.3137261 3.1197 9.5077521 3.1197 3.192018 0 5.948121-.241059 8.272327-.723176 2.320189-.486135 4.495743-1.21132 6.530679-2.177563.86982-6.486484 3.240229-11.468362 7.10922-14.951658-5.514215-.578541-10.471987-1.45037-14.875324-2.613477-4.401328-1.161099-8.9493-3.045374-13.6398982-5.660859-4.6946159-2.611468-8.5897209-5.853706-11.6853149-9.722697-3.095594-3.870999-5.6347444-8.951308-7.6194601-15.23892-1.980698-6.291629-2.9730559-13.545484-2.9730559-21.769599 0-11.709421 3.8227874-21.675184 11.4663534-29.897291-3.57972-8.804665-3.242238-18.671996 1.0164637-29.606012 2.8043149-.8718285 6.9645843-.2169527 12.4808082 1.9586011 5.5142148 2.1775625 9.5519468 4.0437577 12.1172118 5.5885415 2.565265 1.5467926 4.622298 2.8565444 6.169091 3.9172024 9.001529-2.515045 18.288311-3.7725673 27.864363-3.7725673 9.58007 0 18.868861 1.2575223 27.868382 3.7725673l5.514215-3.4812881c3.772567-2.3221977 8.226124-4.4515486 13.350628-6.3860437 5.128521-1.9344952 9.049741-2.4668329 11.759641-1.5970132 4.351108 10.936025 4.740819 20.803356 1.15909 29.608021 7.641557 8.222106 11.466354 18.189879 11.466354 29.895282 0 8.224115-.996376 15.504085-2.975065 21.841917-1.982707 6.33984-4.545963 11.416132-7.68776 15.23892-3.147824 3.824796-7.067034 7.040919-11.759642 9.650379-4.692607 2.613476-9.240579 4.49976-13.643915 5.660859-4.401328 1.163107-9.3591 2.034936-14.873315 2.615485 5.02808 4.353117 7.545134 11.223286 7.545134 20.608501v30.618458c0 .146644.030132.279226.038167.421852 50.087957-14.401242 86.74895-60.529811 86.74895-115.25011 0-66.24089-53.697809-119.9366899-119.936691-119.9366899-66.24089 0-119.9386987 53.6957999-119.9386987 119.9366899z" fill-rule="evenodd"/></svg>