<svg height="280" viewBox="0 0 280 280" width="280" xmlns="http://www.w3.org/2000/svg"><path d="m233.682804 78.2018305c-3.083198 1.3674962-6.25313 2.5216378-9.49207 3.458626 3.834687-4.3367359 6.758344-9.4395229 8.543053-15.023466.400119-1.251639-.014561-2.6216677-1.043349-3.4402661-1.027522-.8192316-2.455162-.9173621-3.586512-.2469091-6.878633 4.0796972-14.299833 7.0115839-22.081267 8.7260191-7.838412-7.6592454-18.484624-12.0181397-29.490437-12.0181397-23.231609 0-42.13218 18.899938-42.13218 42.1309143 0 1.829659.115857 3.649189.34504 5.443395-28.828215-2.531135-55.6292422-16.7005486-74.0334629-39.276266-.6558917-.8046702-1.6663195-1.2383438-2.7008051-1.1554077-1.0351187.0810368-1.9651428.6647551-2.4880835 1.561858-3.7327584 6.405074-5.7061315 13.7306755-5.7061315 21.1841633 0 10.1517606 3.6244983 19.7837454 10.0270398 27.3100404-1.9467828-.674252-3.8359536-1.516908-5.6390228-2.517839-.9680101-.538769-2.1493749-.530538-3.111054.020892-.9623122.55143-1.5656566 1.565656-1.5909806 2.674215-.0044317.186764-.0044317.373529-.0044317.562826 0 15.153251 8.1555958 28.795926 20.6245028 36.231687-1.0712054-.106994-2.1417777-.262103-3.2053859-.465329-1.0965295-.209556-2.2240808.174736-2.9635417 1.011061-.7407272.835692-.9857369 2.000597-.644496 3.064205 4.6153 14.409359 16.4979562 25.008088 30.8629981 28.239431-11.9143113 7.462351-25.5392591 11.371111-39.8422572 11.371111-2.984434 0-5.9859617-.175368-8.9235462-.52294-1.4592958-.17347-2.8546485.68818-3.3516321 2.075935-.4969836 1.388389.0297557 2.936318 1.271265 3.732125 18.374465 11.78136 39.6206722 18.008533 61.4404685 18.008533 42.895065 0 69.729014-20.227549 84.686005-37.196531 18.65113-21.15884 29.347989-49.16529 29.347989-76.837463 0-1.156041-.017727-2.323478-.05318-3.487116 7.358523-5.5440577 13.693956-12.2536529 18.84929-19.9654455.783145-1.1712352.698309-2.719165-.208923-3.7973346-.905966-1.0788026-2.41591-1.4276407-3.704902-.8565844z"/></svg>