<svg height="280" viewBox="0 0 280 280" width="280" xmlns="http://www.w3.org/2000/svg"><path d="m240 50c16.569 0 30 13.4315 30 30v120c0 16.569-13.431 30-30 30h-200c-16.5685 0-30-13.431-30-30v-120c0-16.5685 13.4315-30 30-30zm-20.433 36.6043-74.135 47.9697c-3.305 2.139-7.559 2.139-10.865 0l-74.1345-47.9697c-4.6368-3.0003-10.8279-1.6737-13.8282 2.9632-3.0003 4.6368-1.6737 10.8275 2.9632 13.8285l74.1345 47.969c9.918 6.418 22.678 6.418 32.596 0l74.134-47.969c4.637-3.001 5.964-9.1917 2.964-13.8285-3.001-4.6369-9.192-5.9635-13.829-2.9632z" fill-rule="evenodd"/></svg>