<svg height="642" viewBox="0 0 642 642" width="642" xmlns="http://www.w3.org/2000/svg"><path d="m233.772848 124.296469.470902.007906c4.76875.153125 9.821875 2.14375 12.928125 4.615625l109.375 87.5c5.184375 4.15625 8.203125 10.434375 8.203125 17.084375v265.365625l87.5-58.340625v-53.9h43.75v65.625c0 7.30625-3.653125 14.13125-9.734375 18.178125l-131.38125 87.325c-3.36875 2.253125-6.190625 3.871875-12.009375 3.871875-4.878125 0-9.7125-1.640625-13.65-4.8125l-96.90625-77.503125-117.928125 78.61875c-3.675 2.45-7.896875 3.696875-12.140625 3.696875-3.54375 0-7.0875-.853125-10.325-2.603125-7.109375-3.784375-11.55-11.2-11.55-19.271875v-306.25c0-7.328125 3.653125-14.153125 9.734375-18.2l131.25-87.5c3.28125-2.1875 8.18125-3.63125 12.884375-3.5zm-22.147848 62.570406-87.5 58.340625v253.684375l87.5-58.3625zm43.75 4.659375v250.20625l65.625 52.5v-250.228125zm218.75-111.155625c48.25625 0 87.5 39.24375 87.5 87.5 0 72.078125-67.134375 162.44375-70 166.25l-17.5 23.340625-17.5-23.340625c-2.865625-3.80625-70-94.171875-70-166.25 0-48.25625 39.24375-87.5 87.5-87.5zm0 43.75c-24.128125 0-43.75 19.64375-43.75 43.75 0 35.4375 24.2375 82.709375 43.75 114.05625 19.490625-31.4125 43.75-78.728125 43.75-114.05625 0-24.10625-19.621875-43.75-43.75-43.75zm0 21.875c12.096875 0 21.875 9.778125 21.875 21.875 0 12.075-9.778125 21.875-21.875 21.875s-21.875-9.8-21.875-21.875c0-12.096875 9.778125-21.875 21.875-21.875z" fill-rule="evenodd"/></svg>