<svg height="1200" viewBox="0 0 1200 1200" width="1200" xmlns="http://www.w3.org/2000/svg"><path d="m600 837.582-90-72v-343.14l90 71.97zm-270-341.52 120-80.01v347.88l-120 80.04zm496.65 308.88c8.34-5.55 13.35-14.91 13.35-24.93v-90h-60v73.92l-120 80.01v-363.93c0-9.12-4.14-17.73-11.25-23.43l-150-120c-4.26-3.39-11.19-6.12-17.73-6.33-6.45-.18-13.17 1.8-17.67 4.8l-180 120c-8.34 5.55-13.35 14.91-13.35 24.96v420c0 11.07 6.09 21.24 15.84 26.43 4.44 2.4 9.3 3.57 14.16 3.57 5.82 0 11.61-1.71 16.65-5.07l161.73-107.82 132.9 106.29c5.4 4.35 12.03 6.6 18.72 6.6 7.98 0 11.85-2.22 16.47-5.31zm-16.65-474.942c33.09 0 60 26.94 60 60 0 48.45-33.27 113.34-60 156.42-26.76-42.99-60-107.82-60-156.42 0-33.06 26.91-60 60-60zm0 320.01 24-32.01c3.93-5.22 96-129.15 96-228 0-66.18-53.82-120-120-120s-120 53.82-120 120c0 98.85 92.07 222.78 96 228zm30-260.01c0-16.59-13.41-30-30-30s-30 13.41-30 30c0 16.56 13.41 30 30 30s30-13.44 30-30" fill-rule="evenodd"/></svg>