<svg height="1200" viewBox="0 0 1200 1200" width="1200" xmlns="http://www.w3.org/2000/svg"><path d="m826.65 804.942-180.18 119.76c-4.62 3.09-8.49 5.31-16.47 5.31-6.69 0-13.32-2.25-18.72-6.6l-132.9-106.29-161.73 107.82c-5.04 3.36-10.83 5.07-16.65 5.07-4.86 0-9.72-1.17-14.16-3.57-9.75-5.19-15.84-15.36-15.84-26.43v-420c0-10.05 5.01-19.41 13.35-24.96l180-120c4.5-3 11.22-4.98 17.67-4.8 6.54.21 13.47 2.94 17.73 6.33l150 120c7.11 5.7 11.25 14.31 11.25 23.43v363.93l120-80.01v-73.92h60v90c0 10.02-5.01 19.38-13.35 24.93zm-226.65 32.64v-343.17l-90-71.97v343.14zm-270-341.52v347.91l120-80.04v-347.88zm480 153.948-24-32.01c-3.93-5.22-96-129.15-96-228 0-66.18 53.82-120 120-120s120 53.82 120 120c0 98.85-92.07 222.78-96 228zm0-320.01c-33.09 0-60 26.94-60 60 0 48.6 33.24 113.43 60 156.42 26.73-43.08 60-107.97 60-156.42 0-33.06-26.91-60-60-60zm30 60c0 16.56-13.41 30-30 30s-30-13.44-30-30c0-16.59 13.41-30 30-30s30 13.41 30 30z" fill-rule="evenodd"/></svg>