<svg height="40" viewBox="0 0 40 40" width="40" xmlns="http://www.w3.org/2000/svg"><path d="m20 27.9194-3-2.4v-11.438l3 2.399zm-9-11.384 4-2.667v11.596l-4 2.668zm16.555 10.296c.278-.185.445-.497.445-.831v-3h-2v2.464l-4 2.667v-12.131c0-.304-.138-.591-.375-.781l-5-4c-.142-.113-.373-.204-.591-.211-.215-.006-.439.06-.589.16l-6 4c-.278.185-.445.497-.445.832v14c0 .369.203.708.528.881.148.08.31.119.472.119.194 0 .387-.057.555-.169l5.391-3.594 4.43 3.543c.18.145.401.22.624.22.266 0 .395-.074.549-.177zm-.555-15.8314c1.103 0 2 .898 2 2 0 1.615-1.109 3.778-2 5.214-.892-1.433-2-3.594-2-5.214 0-1.102.897-2 2-2zm0 10.667.8-1.067c.131-.174 3.2-4.305 3.2-7.6 0-2.206-1.794-4-4-4s-4 1.794-4 4c0 3.295 3.069 7.426 3.2 7.6zm1-8.667c0-.553-.447-1-1-1s-1 .447-1 1c0 .552.447 1 1 1s1-.448 1-1" fill-rule="evenodd"/></svg>