<svg height="280" viewBox="0 0 280 280" width="280" xmlns="http://www.w3.org/2000/svg"><path d="m140.002428 25c5.522847 0 10 4.4771525 10 10v210c0 5.522847-4.477153 10-10 10h-105.0000001c-5.5228475 0-10-4.477153-10-10v-10c0-5.522847 4.4771525-10 10-10h84.9992711v-170h-84.9992711c-5.4292399 0-9.8479317-4.3266708-9.9961582-9.7200952l-.0038418-.2799048v-10c0-5.5228475 4.4771525-10 10-10zm37.82 47.8248558c3.905243-3.9052429 10.236893-3.9052429 14.142136 0l60.104076 60.1040762c3.905243 3.905243 3.905243 10.236893 0 14.142136l-60.104076 60.104076c-3.905243 3.905243-10.236893 3.905243-14.142136 0l-7.071068-7.071068c-3.905238-3.905237-3.905244-10.236877-.000013-14.142122l45.960886-45.961954-45.960886-45.9619543c-3.834226-3.8342407-3.903934-10.0074452-.209127-13.926732l.20914-.2153901zm-82.8200001 102.1751442c5.5228471 0 10.0000001 4.477153 10.0000001 10v10c0 5.522847-4.477153 10-10.0000001 10h-60c-5.5228475 0-10-4.477153-10-10v-10c0-5.522847 4.4771525-10 10-10zm0-50c5.5228471 0 10.0000001 4.477153 10.0000001 10v10c0 5.522847-4.477153 10-10.0000001 10h-60c-5.5228475 0-10-4.477153-10-10v-10c0-5.522847 4.4771525-10 10-10zm0-50c5.5228471 0 10.0000001 4.4771525 10.0000001 10v10c0 5.522847-4.477153 10-10.0000001 10h-60c-5.5228475 0-10-4.477153-10-10v-10c0-5.5228475 4.4771525-10 10-10z"/></svg>