<?xml version="1.0" encoding="UTF-8"?>
<svg width="40px" height="40px" viewBox="0 0 40 40" version="1.1" xmlns="http://www.w3.org/2000/svg" xmlns:xlink="http://www.w3.org/1999/xlink">
    <!-- Generator: Sketch 50.2 (55047) - http://www.bohemiancoding.com/sketch -->
    <title>Icons/Mobile form</title>
    <desc>Created with Sketch.</desc>
    <defs>
        <path d="M15,30 L15,27 L26,27 L26,30 L15,30 Z M26,15 L26,25 L15,25 L15,15 L26,15 Z M26,13 L15,13 L15,10 L26,10 L26,13 Z M25.5,8 L15.5,8 C14.12125,8 13,9.0764 13,10.4 L13,29.6 C13,30.9236 14.12125,32 15.5,32 L25.5,32 C26.87875,32 28,30.9236 28,29.6 L28,10.4 C28,9.0764 26.87875,8 25.5,8 L25.5,8 Z M17,23 L24,23 L24,21 L17,21 L17,23 Z M21,17 L17,17 L17,19 L21,19 L21,17 Z" id="path-1"></path>
    </defs>
    <g id="Icons/Mobile-form" stroke="none" stroke-width="1" fill="none" fill-rule="evenodd">
        <mask id="mask-2" fill="white">
            <use xlink:href="#path-1"></use>
        </mask>
        <use id="Mask" fill="#3DC2D5" opacity="0" xlink:href="#path-1"></use>
        <g id="Atoms/Colors/Idle" mask="url(#mask-2)" fill="#59636B" opacity="0.25">
            <rect id="State" x="-2" y="-2" width="40" height="40"></rect>
        </g>
    </g>
</svg>