<svg height="642" viewBox="0 0 642 642" width="642" xmlns="http://www.w3.org/2000/svg"><path d="m474.125 277.25c24.171875 0 43.75 19.578125 43.75 43.75 0 24.15-19.578125 43.75-43.75 43.75-24.19375 0-43.75-19.6-43.75-43.75 0-24.171875 19.55625-43.75 43.75-43.75zm-153.125 0c24.171875 0 43.75 19.578125 43.75 43.75 0 24.15-19.578125 43.75-43.75 43.75-24.19375 0-43.75-19.6-43.75-43.75 0-24.171875 19.55625-43.75 43.75-43.75zm-153.125 0c24.171875 0 43.75 19.578125 43.75 43.75 0 24.15-19.578125 43.75-43.75 43.75-24.19375 0-43.75-19.6-43.75-43.75 0-24.171875 19.55625-43.75 43.75-43.75z" fill-rule="evenodd"/></svg>