<svg height="642" viewBox="0 0 642 642" width="642" xmlns="http://www.w3.org/2000/svg"><path d="m396.38125 474.125c-15.18125 26.03125-43.071875 43.75-75.38125 43.75-32.2875 0-60.2-17.71875-75.359375-43.75zm-75.38125-350c72.384375 0 131.25 58.865625 131.25 131.25v62.08125c0 31.9375 20.3875 60.178125 50.684375 70.30625l14.940625 4.965625v59.521875h-393.75v-59.521875l14.9625-4.965625c30.296875-10.128125 50.6625-38.36875 50.6625-70.30625v-62.08125c0-72.384375 58.8875-131.25 131.25-131.25zm0 43.75c-48.234375 0-87.5 39.24375-87.5 87.5v62.08125c0 36.05-16.296875 69.125-42.984375 91.04375h260.990625c-26.709375-21.91875-43.00625-54.99375-43.00625-91.04375v-62.08125c0-48.25625-39.24375-87.5-87.5-87.5z" fill-rule="evenodd"/></svg>