<svg height="1200" viewBox="0 0 1200 1200" width="1200" xmlns="http://www.w3.org/2000/svg"><path d="m496.65 810c20.79 35.7 59.07 60 103.35 60 44.31 0 82.56-24.3 103.38-60zm-75.6-90h357.93c-36.63-30.06-58.98-75.42-58.98-124.86v-85.14c0-66.18-53.82-120-120-120-66.15 0-120 53.82-120 120v85.14c0 49.44-22.35 94.8-58.95 124.86zm448.95 60h-540v-81.63l20.52-6.81c41.55-13.89 69.48-52.62 69.48-96.42v-85.14c0-99.27 80.76-180 180-180 99.27 0 180 80.73 180 180v85.14c0 43.8 27.96 82.53 69.51 96.42l20.49 6.81z" fill-rule="evenodd"/></svg>