<svg height="280" viewBox="0 0 280 280" width="280" xmlns="http://www.w3.org/2000/svg"><path d="m172.876558 206.783489c-6.621106 11.353193-18.785242 19.080997-32.876558 19.080997-14.081776 0-26.255452-7.727804-32.867017-19.080997zm-32.876558-152.647975c31.569509 0 57.242991 25.6734813 57.242991 57.242991v27.075934c0 13.929128 8.891744 26.245911 22.105335 30.663162l6.51616 2.165693v25.959697h-171.728972v-25.959697l6.525701-2.165693c13.2135903-4.417251 22.0957943-16.734034 22.0957943-30.663162v-27.075934c0-31.5695097 25.6830217-57.242991 57.2429907-57.242991zm0 19.0809969c-21.036799 0-38.161994 17.1156542-38.161994 38.1619941v27.075934c0 15.722742-7.1076711 30.147975-18.7470792 39.707555h113.8276872c-11.648949-9.55958-18.75662-23.984813-18.75662-39.707555v-27.075934c0-21.0463399-17.115654-38.1619941-38.161994-38.1619941z" fill-rule="evenodd"/></svg>