<svg height="642" viewBox="0 0 642 642" width="642" xmlns="http://www.w3.org/2000/svg"><path d="m217.8 91.6666667c25.33216 0 45.866667 20.5351943 45.866667 45.8666663v366.933334c0 25.33216-20.534507 45.866666-45.866667 45.866666h-22.933333c-25.331472 0-45.866667-20.534506-45.866667-45.866666v-366.933334c0-25.331472 20.535195-45.8666663 45.866667-45.8666663zm229.333333 0c25.33216 0 45.866667 20.5351943 45.866667 45.8666663v366.933334c0 25.33216-20.534507 45.866666-45.866667 45.866666h-22.933333c-25.33216 0-45.866667-20.534506-45.866667-45.866666v-366.933334c0-25.331472 20.534507-45.8666663 45.866667-45.8666663z"/></svg>