<svg height="1200" viewBox="0 0 1200 1200" width="1200" xmlns="http://www.w3.org/2000/svg"><path d="m390 330h300v120h120v30h60v-72.42l-137.58-137.58h-342.42c-33.09 0-60 26.94-60 60v150h60zm420 540h-420v-30h-60v30c0 33.09 26.91 60 60 60h420c33.09 0 60-26.91 60-60v-30h-60zm-180-210c0 33.09-26.91 60-60 60v-120c33.09 0 60 26.94 60 60zm-120-120v240h60c66.18 0 120-53.82 120-120s-53.82-120-120-120zm390 60v-60h-120c-33.09 0-60 26.94-60 60v180h60v-90h90v-60h-90v-30zm-540 0h30c16.53 0 30 13.44 30 30s-13.47 30-30 30h-30zm0 120h30c49.62 0 90-40.38 90-90s-40.38-90-90-90h-90v240h60z" fill-rule="evenodd"/></svg>