<svg height="280" viewBox="0 0 280 280" width="280" xmlns="http://www.w3.org/2000/svg"><path d="m180 40v40.0006c0 22.0924 17.91 40.0004 40 40.0004h40v99.999c0 11.046-8.954 20-20 20h-200c-11.0457 0-20-8.954-20-20v-160c0-11.0457 8.9543-20 20-20zm-105.8303 100h-19.092c-2.8044 0-5.0777 2.755-5.0777 6.154v67.692c0 3.399 2.2733 6.154 5.0777 6.154h7.3118c2.8043 0 5.0776-2.755 5.0776-6.154v-13.046c0-3.399 2.2734-6.154 5.0777-6.154h2.0311c13.8112 0 26.4041-8.492 26.4041-28.061 0-20.185-12.3898-26.585-26.8103-26.585zm57.1133 0h-14.421c-2.804 0-5.077 2.755-5.077 6.154v67.692c0 3.399 2.273 6.154 5.077 6.154h15.437c19.092 0 32.903-12.062 32.903-40.369 0-28.308-13.811-39.631-33.919-39.631zm83.639 0h-32.903c-2.737238 0-4.969414 2.625371-5.074156 5.912338l-.003844.241662v67.692c0 3.318071 2.167003 6.022444 4.878639 6.149343l.199361.004657h7.312c2.737238 0 4.969414-2.625371 5.074156-5.912338l.003844-.241662v-16.984c0-3.318071 2.16605-6.022444 4.877641-6.149343l.199359-.004657h11.78c2.738214 0 4.96946-2.625371 5.074158-5.912338l.003842-.241662v-5.416c0-3.317095-2.16605-6.021445-4.878571-6.148343l-.199429-.004657h-11.78c-2.737238 0-4.968461-2.626324-5.073158-5.912406l-.003842-.241594v-2.954c0-3.318071 2.16605-6.022444 4.877641-6.149343l.199359-.004657h15.436c2.738214 0 4.96946-2.625371 5.074158-5.912338l.003842-.241662v-5.415c0-3.399-2.273-6.154-5.078-6.154zm-84.655 16.985c9.546 0 17.061 3.938 17.061 22.646 0 18.707-7.515 23.384-17.061 23.384-.56 0-1.015-.551-1.015-1.23v-43.57c0-.679.455-1.23 1.015-1.23zm-56.9098-.247c6.7025 0 10.5616 2.708 10.5616 9.847 0 7.138-3.2497 11.323-10.1554 11.323h-1.2186c-2.8043 0-5.0777-2.755-5.0777-6.154v-8.862c0-3.398 2.2734-6.154 5.0777-6.154zm126.6428-116.738 60 60h-40c-11.045 0-20-8.9539-20-20z"/></svg>