<svg height="642" viewBox="0 0 642 642" width="642" xmlns="http://www.w3.org/2000/svg"><path d="m167.875 496v21.875h306.25v-21.875h43.75v21.875c0 24.128125-19.621875 43.75-43.75 43.75h-306.25c-24.128125 0-43.75-19.621875-43.75-43.75v-21.875zm371.875-218.75v43.75h-87.5v21.875h65.625v43.75h-65.625v65.625h-43.75v-131.25c0-24.10625 19.621875-43.75 43.75-43.75zm-240.625 0c48.25625 0 87.5 39.24375 87.5 87.5s-39.24375 87.5-87.5 87.5h-43.75v-175zm-131.25 0c36.18125 0 65.625 29.44375 65.625 65.625s-29.44375 65.625-65.625 65.625h-21.875v43.75h-43.75v-175zm131.25 43.75v87.5c24.128125 0 43.75-19.621875 43.75-43.75 0-24.10625-19.621875-43.75-43.75-43.75zm-131.25 0h-21.875v43.75h21.875c12.053125 0 21.875-9.8 21.875-21.875s-9.821875-21.875-21.875-21.875zm249.68125-240.625 100.31875 100.31875v52.80625h-43.75v-21.875h-87.5v-87.5h-218.75v109.375h-43.75v-109.375c0-24.10625 19.621875-43.75 43.75-43.75z" fill-rule="evenodd"/></svg>