<svg height="1200" viewBox="0 0 1200 1200" width="1200" xmlns="http://www.w3.org/2000/svg"><path d="m390 330v150h-60v-150c0-33.06 26.91-60 60-60h342.42l137.58 137.58v72.42h-60v-30h-120v-120zm420 540v-30h60v30c0 33.09-26.91 60-60 60h-420c-33.09 0-60-26.91-60-60v-30h60v30zm90-270h-120v30h90v60h-90v90h-60v-180c0-33.06 26.91-60 60-60h120zm-390-60h60c66.18 0 120 53.82 120 120s-53.82 120-120 120h-60zm-150 180v60h-60v-240h90c49.62 0 90 40.38 90 90s-40.38 90-90 90zm0-120v60h30c16.53 0 30-13.44 30-30s-13.47-30-30-30zm270 60c0-33.06-26.91-60-60-60v120c33.09 0 60-26.91 60-60z" fill-rule="evenodd"/></svg>