<svg height="280" viewBox="0 0 280 280" width="280" xmlns="http://www.w3.org/2000/svg"><path d="m225.692829 54.135514c5.261368 0 9.531464 4.2741433 9.531464 9.5404985v28.6214953c0 5.2663551-4.270096 9.5404982-9.531464 9.5404982v95.404985h9.531464v19.080997h-85.783175v19.080996h-19.062928v-19.080996h-85.7831744v-19.080997h9.5314639v-95.404985c-5.2613681 0-9.5314639-4.2741431-9.5314639-9.5404982v-28.6214953c0-5.2663552 4.2700958-9.5404985 9.5314639-9.5404985zm-19.062927 47.702492h-133.4404948v95.404985h133.4404948zm-47.65732 9.540499c4.108061 0 7.739549 2.623637 9.045359 6.525701l16.889754 50.717289h12.190743v19.080997h-114.3775669v-19.080997h13.9635946l16.2320833-24.375973c3.536173-5.304517 12.324182-5.304517 15.860356 0l8.254247 12.393107 12.896071-38.734423c1.30581-3.902064 4.937298-6.525701 9.045359-6.525701zm-57.188783 0c5.270899 0 9.531464 4.274143 9.531464 9.540498s-4.260565 9.540499-9.531464 9.540499c-5.2708997 0-9.531464-4.274144-9.531464-9.540499s4.2605643-9.540498 9.531464-9.540498zm114.377566-38.1619941h-152.5034217v9.5404984h152.5034217z" fill-rule="evenodd"/></svg>