<svg height="642" viewBox="0 0 642 642" width="642" xmlns="http://www.w3.org/2000/svg"><path d="m517.481416 124.125c12.063565 0 21.854285 9.8 21.854285 21.875v65.625c0 12.075-9.79072 21.875-21.854285 21.875v218.75h21.854285v43.75h-196.688566v43.75h-43.70857v-43.75h-196.688565v-43.75h21.854285v-218.75c-12.063565 0-21.854285-9.8-21.854285-21.875v-65.625c0-12.075 9.79072-21.875 21.854285-21.875zm-43.70857 109.375h-305.959991v218.75h305.959991zm-109.271426 21.875c9.419197 0 17.74568 6.015625 20.739717 14.9625l38.725793 116.2875h27.951631v43.75h-262.251421v-43.75h32.016528l37.217847-55.890625c8.10794-12.1625 28.257591-12.1625 36.36553 0l18.925811 28.415625 29.568848-88.8125c2.994037-8.946875 11.32052-14.9625 20.739716-14.9625zm-131.12571 0c12.08542 0 21.854285 9.8 21.854285 21.875s-9.768865 21.875-21.854285 21.875c-12.085419 0-21.854285-9.8-21.854285-21.875s9.768866-21.875 21.854285-21.875zm262.251421-87.5h-349.668561v21.875h349.668561z" fill-rule="evenodd"/></svg>