<svg height="1200" viewBox="0 0 1200 1200" width="1200" xmlns="http://www.w3.org/2000/svg"><path d="m899.431818 450c0 16.56-13.427273 30-29.971591 30v300h29.971591v60h-269.744318v60h-59.943182v-60h-269.744318v-60h29.971591v-300c-16.544318 0-29.971591-13.44-29.971591-30v-90c0-16.56 13.427273-30 29.971591-30h539.488636c16.544318 0 29.971591 13.44 29.971591 30zm-89.914773 330v-300h-419.602272v300zm-449.573863-390v30h479.545454v-30zm419.602273 360h-359.659091v-60h43.90838l51.04162-76.65c11.11946-16.68 38.753267-16.68 49.872727 0l25.955398 38.97 40.551562-121.8c4.106108-12.27 15.525284-20.52 28.44304-20.52s24.336932 8.25 28.44304 20.52l53.109659 159.48h38.333665zm-299.71591-180c-16.574289 0-29.97159-13.44-29.97159-30s13.397301-30 29.97159-30c16.57429 0 29.971591 13.44 29.971591 30s-13.397301 30-29.971591 30z" fill-rule="evenodd"/></svg>