<svg height="1200" viewBox="0 0 1200 1200" width="1200" xmlns="http://www.w3.org/2000/svg"><path d="m809.517045 780h-419.602272v-300h419.602272zm-449.573863-390h479.545454v30h-479.545454zm539.488636 60v-90c0-16.56-13.427273-30-29.971591-30h-539.488636c-16.544318 0-29.971591 13.44-29.971591 30v90c0 16.56 13.427273 30 29.971591 30v300h-29.971591v60h269.744318v60h59.943182v-60h269.744318v-60h-29.971591v-300c16.544318 0 29.971591-13.44 29.971591-30zm-119.886363 300v-60h-38.333665l-53.109659-159.48c-4.106108-12.27-15.525284-20.52-28.44304-20.52s-24.336932 8.25-28.44304 20.52l-40.551562 121.8-25.955398-38.97c-11.11946-16.68-38.753267-16.68-49.872727 0l-51.04162 76.65h-43.90838v60zm-299.71591-180c16.57429 0 29.971591-13.44 29.971591-30s-13.397301-30-29.971591-30c-16.574289 0-29.97159 13.44-29.97159 30s13.397301 30 29.97159 30" fill-rule="evenodd"/></svg>