<svg height="40" viewBox="0 0 40 40" width="40" xmlns="http://www.w3.org/2000/svg"><path d="m26.9839015 26h-13.9867424v-10h13.9867424zm-14.9857954-13h15.9848484v1h-15.9848484zm17.9829545 2v-3c0-.552-.4475758-1-.999053-1h-17.9829546c-.5514772 0-.999053.448-.999053 1v3c0 .552.4475758 1 .999053 1v10h-.999053v2h8.9914773v2h1.998106v-2h8.9914773v-2h-.999053v-10c.5514772 0 .999053-.448.999053-1zm-3.9962121 10v-2h-1.2777888l-1.770322-5.316c-.1368703-.409-.5175095-.684-.9481013-.684-.4305919 0-.8112311.275-.9481014.684l-1.3517187 4.06-.8651799-1.299c-.3706487-.556-1.2917756-.556-1.6624243 0l-1.7013873 2.555h-1.4636127v2zm-9.9905303-6c.5524763 0 .999053-.448.999053-1s-.4465767-1-.999053-1-.999053.448-.999053 1 .4465767 1 .999053 1" fill-rule="evenodd"/></svg>