<svg height="642" viewBox="0 0 642 642" width="642" xmlns="http://www.w3.org/2000/svg"><path d="m320.99125 226.22c48.25625 0 87.5 39.24375 87.5 87.5 0 65.23125-49.984375 139.5625-87.5 189.56875-37.340625-49.809375-87.5-124.403125-87.5-189.56875 0-48.25625 39.265625-87.5 87.5-87.5zm0 43.75c-24.128125 0-43.75 19.64375-43.75 43.75 0 35.415625 24.2375 82.6875 43.75 114.05625 19.5125-31.4125 43.75-78.728125 43.75-114.05625 0-24.10625-19.6-43.75-43.75-43.75zm-131.24125-131.25875c36.334375 0 67.50625 22.26875 80.71875 53.85625-14.109375 5.884375-26.884375 14.284375-37.975 24.434375-4.24375-19.6875-21.765625-34.540625-42.74375-34.540625-24.128125 0-43.75 19.64375-43.75 43.75 0 35.4375 24.2375 82.709375 43.75 114.05625.83125-1.334375 1.70625-2.865625 2.559375-4.265625 3.128125 16.45 9.121875 34.628125 17.084375 53.50625-1.083782 1.504668-5.067681 6.845792-9.200665 12.369123l-.653414.873086c-1.961553 2.620604-3.924069 5.238938-5.595158 7.466613l-.809905 1.079484c-1.565825 2.086667-2.791491 3.717944-3.384608 4.505444-37.428125-49.940625-87.5-124.425-87.5-189.590625 0-48.25625 39.24375-87.5 87.5-87.5zm262.5 0c48.25625 0 87.5 39.24375 87.5 87.5 0 65.296875-50.071875 139.65-87.5 189.590625-2.690625-3.609375-17.040625-22.684375-19.64375-26.315625 7.9625-18.85625 13.934375-37.034375 17.084375-53.440625.853125 1.378125 1.70625 2.8875 2.559375 4.221875 19.490625-31.4125 43.75-78.728125 43.75-114.05625 0-24.10625-19.621875-43.75-43.75-43.75-20.95625 0-38.5 14.853125-42.74375 34.540625-11.090625-10.15-23.865625-18.55-37.975-24.434375 13.2125-31.5875 44.384375-53.85625 80.71875-53.85625z" fill-rule="evenodd"/></svg>