<svg height="40" viewBox="0 0 40 40" width="40" xmlns="http://www.w3.org/2000/svg"><path d="m14 12c-2.206 0-4 1.794-4 4 0 2.979 2.289 6.384 4 8.667.119-.158.795-1.059.898-1.202-.364-.863-.638-1.694-.781-2.446-.039.064-.079.134-.117.195-.892-1.433-2-3.594-2-5.214 0-1.102.897-2 2-2 .959 0 1.76.679 1.954 1.579.507-.464 1.091-.848 1.736-1.117-.604-1.444-2.029-2.462-3.69-2.462m12 0c-1.661 0-3.086 1.018-3.69 2.462.645.269 1.229.653 1.736 1.117.194-.9.996-1.579 1.954-1.579 1.103 0 2 .898 2 2 0 1.615-1.109 3.778-2 5.214-.039-.061-.078-.13-.117-.193-.144.75-.417 1.581-.781 2.443.119.166.775 1.038.898 1.203 1.711-2.283 4-5.682 4-8.667 0-2.206-1.794-4-4-4m-6.0004 13.2144c-.892-1.434-2-3.595-2-5.214 0-1.102.897-2 2-2 1.104 0 2 .898 2 2 0 1.615-1.108 3.778-2 5.214m0-9.214c-2.205 0-4 1.794-4 4 0 2.979 2.293 6.389 4 8.666 1.715-2.286 4-5.684 4-8.666 0-2.206-1.794-4-4-4" fill-rule="evenodd"/></svg>