<svg height="1200" viewBox="0 0 1200 1200" width="1200" xmlns="http://www.w3.org/2000/svg"><path d="m599.988 480.012c66.18 0 120 53.82 120 120 0 89.46-68.55 191.4-120 259.98-51.21-68.31-120-170.61-120-259.98 0-66.18 53.85-120 120-120zm0 276.42c26.76-43.08 60-107.97 60-156.42 0-33.06-26.88-60-60-60-33.09 0-60 26.94-60 60 0 48.57 33.24 113.4 60 156.42zm-179.988-396.432c49.83 0 92.58 30.54 110.7 73.86-19.35 8.07-36.87 19.59-52.08 33.51-5.82-27-29.85-47.37-58.62-47.37-33.09 0-60 26.94-60 60 0 48.6 33.24 113.43 60 156.42 1.14-1.83 2.34-3.93 3.51-5.85 4.29 22.56 12.51 47.49 23.43 73.38-3.09 4.29-23.37 31.32-26.94 36.06-51.33-68.49-120-170.64-120-260.01 0-66.18 53.82-120 120-120zm360 0c66.18 0 120 53.82 120 120 0 89.55-68.67 191.52-120 260.01-3.69-4.95-23.37-31.11-26.94-36.09 10.92-25.86 19.11-50.79 23.43-73.29 1.17 1.89 2.34 3.96 3.51 5.79 26.73-43.08 60-107.97 60-156.42 0-33.06-26.91-60-60-60-28.74 0-52.8 20.37-58.62 47.37-15.21-13.92-32.73-25.44-52.08-33.51 18.12-43.32 60.87-73.86 110.7-73.86z" fill-rule="evenodd"/></svg>