<svg height="280" viewBox="0 0 280 280" width="280" xmlns="http://www.w3.org/2000/svg"><path d="m139.996184 98.6629283c21.046339 0 38.161994 17.1156547 38.161994 38.1619937 0 28.449766-21.800039 60.86838-38.161994 82.67796-16.285631-21.723715-38.161994-54.256815-38.161994-82.67796 0-21.046339 17.125195-38.1619937 38.161994-38.1619937zm0 19.0809967c-10.52317 0-19.080997 8.567368-19.080997 19.080997 0 15.446067 10.570872 36.063084 19.080997 49.744159 8.510124-13.700156 19.080997-34.336254 19.080997-49.744159 0-10.513629-8.548287-19.080997-19.080997-19.080997zm-57.2391747-57.2468066c15.846768 0 29.4419787 9.7122274 35.2044397 23.4887071-6.153622 2.5663941-11.725273 6.2299455-16.562306 10.6567368-1.8508564-8.5864486-9.4927956-15.064447-18.6421337-15.064447-10.5231697 0-19.0809968 8.5673676-19.0809968 19.0809968 0 15.4556079 10.5708722 36.0726249 19.0809968 49.7441589.362539-.58197.7441589-1.249805 1.1162384-1.860397 1.3642912 7.174455 3.9783878 15.102609 7.4511292 23.336059-.9826713 1.364291-7.4320482 9.96028-8.5673676 11.467679-16.3237928-21.780958-38.1619937-54.266355-38.1619937-82.6874999 0-21.0463395 17.1156542-38.1619937 38.1619937-38.1619937zm114.4859817 0c21.046339 0 38.161993 17.1156542 38.161993 38.1619937 0 28.4783879-21.838201 60.9065419-38.161993 82.6874999-.586741-.787091-2.444753-3.260465-4.297995-5.735032l-.504353-.673645c-1.674389-2.237143-3.248966-4.348669-3.76502-5.068542 3.472741-8.22391 6.077298-16.152064 7.451129-23.307438.37208.601051.744159 1.259346 1.116239 1.841316 8.500584-13.700156 19.080997-34.336254 19.080997-49.7441589 0-10.5136292-8.557828-19.0809968-19.080997-19.0809968-9.139798 0-16.791278 6.4779984-18.642134 15.064447-4.837033-4.4267913-10.408684-8.0903427-16.562306-10.6567368 5.762461-13.7764797 19.357672-23.4887071 35.20444-23.4887071z" fill-rule="evenodd"/></svg>