<svg height="1200" viewBox="0 0 1200 1200" width="1200" xmlns="http://www.w3.org/2000/svg"><path d="m420 360c-66.18 0-120 53.82-120 120 0 89.37 68.67 191.52 120 260.01 3.57-4.74 23.85-31.77 26.94-36.06-10.92-25.89-19.14-50.82-23.43-73.38-1.17 1.92-2.37 4.02-3.51 5.85-26.76-42.99-60-107.82-60-156.42 0-33.06 26.91-60 60-60 28.77 0 52.8 20.37 58.62 47.37 15.21-13.92 32.73-25.44 52.08-33.51-18.12-43.32-60.87-73.86-110.7-73.86m360 0c-49.83 0-92.58 30.54-110.7 73.86 19.35 8.07 36.87 19.59 52.08 33.51 5.82-27 29.88-47.37 58.62-47.37 33.09 0 60 26.94 60 60 0 48.45-33.27 113.34-60 156.42-1.17-1.83-2.34-3.9-3.51-5.79-4.32 22.5-12.51 47.43-23.43 73.29 3.57 4.98 23.25 31.14 26.94 36.09 51.33-68.49 120-170.46 120-260.01 0-66.18-53.82-120-120-120m-180.012 396.432c-26.76-43.02-60-107.85-60-156.42 0-33.06 26.91-60 60-60 33.12 0 60 26.94 60 60 0 48.45-33.24 113.34-60 156.42m0-276.42c-66.15 0-120 53.82-120 120 0 89.37 68.79 191.67 120 259.98 51.45-68.58 120-170.52 120-259.98 0-66.18-53.82-120-120-120" fill-rule="evenodd"/></svg>