<svg height="280" viewBox="0 0 280 280" width="280" xmlns="http://www.w3.org/2000/svg"><path d="m158.088148 121.911761.00006-71.6793519c0-5.6511181-4.58114-10.2322584-10.232198-10.2322584h-15.71196c-5.651118 0-10.232258 4.5811403-10.232258 10.2322584l-.000061 71.6793519-71.679533.000242c-5.6509372-.000181-10.232198 4.580959-10.232198 10.231896v15.712322c0 5.650877 4.5812608 10.232018 10.232198 10.232198l71.679533-.000241v71.679775c0 5.650756 4.581141 10.231896 10.231897 10.231896h15.712624c5.650756 0 10.231896-4.58114 10.231896-10.231896v-71.679775l71.679594.000181c5.650937-.000181 10.232258-4.581321 10.232258-10.232258v-15.712262c0-5.650937-4.581321-10.232078-10.232258-10.231897z"/></svg>