<svg height="642" viewBox="0 0 642 642" width="642" xmlns="http://www.w3.org/2000/svg"><path d="m211.625 233.5v43.75h218.75v-43.75h43.75c36.18125 0 65.625 29.44375 65.625 65.625v196.875h-65.625v87.5h-306.25v-87.5h-65.625v-196.875c0-36.18125 29.44375-65.625 65.625-65.625zm218.75 218.75h-218.75v87.5h218.75zm43.75-175v43.75h-306.25v-43.75c-12.053125 0-21.875 9.8-21.875 21.875v153.125h21.875v-43.75h306.25v43.75h21.875v-153.125c0-12.075-9.821875-21.875-21.875-21.875zm-43.75 65.625c12.075 0 21.875 9.8 21.875 21.875 0 12.096875-9.8 21.875-21.875 21.875s-21.875-9.778125-21.875-21.875c0-12.075 9.8-21.875 21.875-21.875zm43.75-262.5v131.25h-43.75v-87.5h-218.75v87.5h-43.75v-131.25z" fill-rule="evenodd"/></svg>