<svg height="280" viewBox="0 0 280 280" width="280" xmlns="http://www.w3.org/2000/svg"><path d="m92.2975078 101.838006v19.080997h95.4049842v-19.080997h19.080997c15.779985 0 28.621495 12.841511 28.621495 28.621496v85.864486h-28.621495v38.161993h-133.5669781v-38.161993h-28.6214953v-85.864486c0-15.779985 12.8415109-28.621496 28.6214953-28.621496zm95.4049842 95.404985h-95.4049842v38.161993h95.4049842zm19.080997-76.323988v19.080997h-133.5669781v-19.080997c-5.2568146 0-9.5404984 4.274143-9.5404984 9.540499v66.783489h9.5404984v-19.080997h133.5669781v19.080997h9.540499v-66.783489c0-5.266356-4.283684-9.540499-9.540499-9.540499zm-19.080997 28.621495c5.266355 0 9.540499 4.274144 9.540499 9.540499 0 5.275896-4.274144 9.540498-9.540499 9.540498s-9.540498-4.264602-9.540498-9.540498c0-5.266355 4.274143-9.540499 9.540498-9.540499zm19.080997-114.4859809v57.2429907h-19.080997v-38.1619938h-95.4049842v38.1619938h-19.0809969v-57.2429907z" fill-rule="evenodd"/></svg>