<svg height="280" viewBox="0 0 280 280" width="280" xmlns="http://www.w3.org/2000/svg"><path d="m206.41141 139.841023c19.744772 0 35.751072 16.006301 35.751072 35.751072v16.935386h5.645128c6.234471.002332 11.287925 5.055786 11.290257 11.290257v45.156803c-.002332 6.23447-5.055786 11.287925-11.290257 11.290257h-82.792401c-6.23447-.002332-11.287925-5.055787-11.290257-11.290257v-45.156803c.002332-6.234471 5.055787-11.287925 11.290257-11.290257h5.645129v-16.935386c0-19.744771 16.0063-35.751072 35.751072-35.751072zm.16479 74.671191c-6.216768 0-11.256454 5.039686-11.256454 11.256454s5.039686 11.256454 11.256454 11.256454 11.256454-5.039686 11.256454-11.256454-5.039686-11.256454-11.256454-11.256454zm-34.004938-169.9171984 43.752726 43.7527258.000064 39.4660686c-3.191244-.675641-6.508355-1.031928-9.912642-1.031928-3.139986 0-6.205806.303112-9.1671.880354l-.001319-25.82423h-38.161994v-38.1619935h-76.3239877v152.6479755l56.4890027-.000972v19.081l-56.4890027.000968c-10.4100174 0-18.8967303-8.374777-19.0780367-18.742229l-.0029601-.338767v-152.6479755c0-10.5136293 8.5578271-19.0809969 19.0809968-19.0809969zm33.840148 114.0616954c-9.353155 0-16.935386 7.58223-16.935386 16.935384v16.952288h33.870771v-16.952288c0-9.353154-7.58223-16.935384-16.935385-16.935384z" fill-rule="evenodd"/></svg>