<svg height="642" viewBox="0 0 642 642" width="642" xmlns="http://www.w3.org/2000/svg"><path d="m160.583333 91.8333333v22.9166667c0 37.969479 30.780521 68.75 68.75 68.75h183.333334c37.970625 0 68.75-30.780521 68.75-68.75v-22.9166667h22.916666c25.31375 0 45.833334 20.5202707 45.833334 45.8333337v412.5c0 25.31375-20.519584 45.833333-45.833334 45.833333h-366.666666c-25.313063 0-45.8333337-20.519583-45.8333337-45.833333v-412.5c0-25.313063 20.5202707-45.8333337 45.8333337-45.8333337zm275 297.9166667h-114.583333c-12.656875 0-22.916667 10.259792-22.916667 22.916667v22.916666c0 12.656875 10.259792 22.916667 22.916667 22.916667h114.583333c12.656875 0 22.916667-10.259792 22.916667-22.916667v-22.916666c0-12.656875-10.259792-22.916667-22.916667-22.916667zm-206.25 0h-22.916666c-12.656417 0-22.916667 10.259792-22.916667 22.916667v22.916666c0 12.656875 10.260021 22.916667 22.916667 22.916667h22.916666c12.656875 0 22.916667-10.259792 22.916667-22.916667v-22.916666c0-12.656875-10.259792-22.916667-22.916667-22.916667zm0-114.583333h-22.916666c-12.656417 0-22.916667 10.259791-22.916667 22.916666v22.916667c0 12.656875 10.260021 22.916667 22.916667 22.916667h22.916666c12.656875 0 22.916667-10.259792 22.916667-22.916667v-22.916667c0-12.656875-10.259792-22.916666-22.916667-22.916666zm206.25 0h-114.583333c-12.656875 0-22.916667 10.259791-22.916667 22.916666v22.916667c0 12.656875 10.259792 22.916667 22.916667 22.916667h114.583333c12.656875 0 22.916667-10.259792 22.916667-22.916667v-22.916667c0-12.656875-10.259792-22.916666-22.916667-22.916666zm-22.916666-229.166667c12.656875 0 22.916666 10.26025 22.916666 22.9166667v45.8333333c0 12.656417-10.259791 22.916667-22.916666 22.916667h-183.333334c-12.656416 0-22.916666-10.26025-22.916666-22.916667v-45.8333333c0-12.6564167 10.26025-22.9166667 22.916666-22.9166667z" fill-rule="evenodd"/></svg>