<svg height="280" viewBox="0 0 280 280" width="280" xmlns="http://www.w3.org/2000/svg"><path d="m187.702492 120.919003c36.816784 0 66.783489 29.957165 66.783489 66.783489s-29.966705 66.783489-66.783489 66.783489c-36.816783 0-66.783489-29.957165-66.783489-66.783489s29.966706-66.783489 66.783489-66.783489zm-34.212227-95.4049843 43.752726 43.7527258v32.5712615h-19.080997v-19.0809967h-38.161994v-38.1619937h-95.4049844v171.7289724h57.2429904v19.080996h-57.2429904c-10.5231698 0-19.0809969-8.557827-19.0809969-19.080996v-171.7289724c0-10.5136293 8.5578271-19.0809969 19.0809969-19.0809969zm34.212227 114.4859813c-26.303154 0-47.702492 21.399338-47.702492 47.702492s21.399338 47.702492 47.702492 47.702492 47.702492-21.399338 47.702492-47.702492-21.399338-47.702492-47.702492-47.702492zm9.540499 47.702492v38.161994h-19.080997v-38.161994zm-9.540499-28.621495c5.275896 0 9.540499 4.274143 9.540499 9.540498 0 5.275896-4.264603 9.540499-9.540499 9.540499-5.275895 0-9.540498-4.264603-9.540498-9.540499 0-5.266355 4.264603-9.540498 9.540498-9.540498zm-95.4049842-9.540499v19.080997h-28.6214953v-19.080997zm19.0809972-38.161993v19.080997h-47.7024925v-19.080997z" fill-rule="evenodd"/></svg>