<svg height="280" viewBox="0 0 280 280" width="280" xmlns="http://www.w3.org/2000/svg"><path d="m70 40v10c0 16.5685 13.4315 30 30 30h80c16.569 0 30-13.4315 30-30v-10h10c11.046 0 20 8.9543 20 20v180c0 11.046-8.954 20-20 20h-160c-11.0457 0-20-8.954-20-20v-180c0-11.0457 8.9543-20 20-20zm120 130h-50c-5.523 0-10 4.477-10 10v10c0 5.523 4.477 10 10 10h50c5.523 0 10-4.477 10-10v-10c0-5.523-4.477-10-10-10zm-90 0h-10c-5.5228 0-10 4.477-10 10v10c0 5.523 4.4771 10 10 10h10c5.523 0 10-4.477 10-10v-10c0-5.523-4.477-10-10-10zm0-50h-10c-5.5228 0-10 4.477-10 10v10c0 5.523 4.4771 10 10 10h10c5.523 0 10-4.477 10-10v-10c0-5.523-4.477-10-10-10zm90 0h-50c-5.523 0-10 4.477-10 10v10c0 5.523 4.477 10 10 10h50c5.523 0 10-4.477 10-10v-10c0-5.523-4.477-10-10-10zm-10-100c5.523 0 10 4.4772 10 10v20c0 5.5228-4.477 10-10 10h-80c-5.5228 0-10-4.4772-10-10v-20c0-5.5228 4.4772-10 10-10z" fill-rule="evenodd"/></svg>