<svg height="642" viewBox="0 0 642 642" width="642" xmlns="http://www.w3.org/2000/svg"><path d="m430.375 58.5v43.75h43.75c24.128125 0 43.75 19.6 43.75 43.75v393.75c0 24.10625-19.621875 43.75-43.75 43.75h-306.25c-24.128125 0-43.75-19.64375-43.75-43.75v-393.75c0-24.15 19.621875-43.75 43.75-43.75h43.75v-43.75zm-218.75 87.5h-43.75v393.75h306.271875l-.021875-393.75h-43.75v43.75h-218.75zm43.75 284.375v43.75h-43.75v-43.75zm175 0v43.75h-131.25v-43.75zm-175-87.5v43.75h-43.75v-43.75zm175 0v43.75h-131.25v-43.75zm-175-87.5v43.75h-43.75v-43.75zm131.25 0v43.75h-87.5v-43.75zm0-153.125h-131.25v43.75h131.25z" fill-rule="evenodd"/></svg>