<svg height="280" viewBox="0 0 280 280" width="280" xmlns="http://www.w3.org/2000/svg"><path d="m249.187 142.543-11.101 30.527c-1.746 4.802-4.524 9.163-8.137 12.776l-38.224 38.225v32.753c0 7.269-8.789 10.91-13.929 5.77l-65.39-65.39c-.642-.643-1.148-1.342-1.526-2.075-2.647-5.125.935-11.854 7.295-11.854h32.754l38.225-38.224c.331-.331.668-.656 1.012-.973 2.405-2.219 5.106-4.087 8.023-5.551 1.211-.608 2.46-1.147 3.741-1.613l30.527-11.101c10.418-3.788 20.518 6.312 16.73 16.73zm-127.398 87.356 23.312 23.312c-3.571 7.143-10.873 11.655-18.859 11.655h-16.108v-16.108c0-7.986 4.512-15.288 11.655-18.859zm13.211-214.899v40c0 13.8071 11.193 25 25 25h40v36.335l-4.905 1.783c-7.549 2.745-14.404 7.111-20.084 12.791l-32.366 32.366h-24.47c-25.087 0-37.6503 30.331-19.911 48.071l6.217 6.216c-2.571 2.203-4.845 4.705-6.782 7.438h-47.699c-11.0457 0-20-8.954-20-20v-170c0-11.0457 8.9543-20 20-20zm15 0 50 50h-40c-5.523 0-10-4.4772-10-10z"/></svg>