<svg height="280" viewBox="0 0 280 280" width="280" xmlns="http://www.w3.org/2000/svg"><path d="m171.818 187v13.5c0 2.485 2.035 4.5 4.546 4.5h27.272c2.511 0 4.546-2.015 4.546-4.5v-13.5h27.273v58.5c0 2.485-2.036 4.5-4.546 4.5h-81.818c-2.51 0-4.546-2.015-4.546-4.5v-58.5zm-26.818-157v40c0 13.8071 11.193 25 25 25h40v45h-65.455c-13.366 0-24.545 10.78-24.545 24.5v9c0 5.337 1.692 10.229 4.545 14.215v52.285h-64.545c-11.0457 0-20-8.954-20-20v-170c0-11.0455 8.9543-20 20-20zm90.455 130c2.51 0 4.545 2.015 4.545 4.5v9c0 2.485-2.035 4.5-4.545 4.5h-90.91c-2.51 0-4.545-2.015-4.545-4.5v-9c0-2.485 2.035-4.5 4.545-4.5zm-75.455-130 50 50h-40c-5.523 0-10-4.4772-10-10z"/></svg>