<svg height="280" viewBox="0 0 280 280" width="280" xmlns="http://www.w3.org/2000/svg"><path d="m214.188356 139.029853c3.730335-3.730335 9.75993-3.730335 13.490265 0l28.621495 28.621495c3.730335 3.730335 3.730335 9.75993 0 13.490265l-66.783489 66.783489c-1.221184 1.230724-2.757204 2.09891-4.426791 2.518692l-38.161994 9.540498c-3.148365.782321-6.621106-.076324-9.063474-2.518691-2.375584-2.366044-3.320093-5.810164-2.509151-9.063474l9.540499-38.161994c.419782-1.669587 1.287967-3.205607 2.509151-4.426791zm-34.960475 61.941005-16.462812 16.462811-5.037383 20.178154 20.168614-5.046923 16.462811-16.462812zm-6.656619-156.3758424 43.752726 43.7527258-.000976 28.7162746-19.078 19.078-.002021-34.30401h-38.161994v-38.1619935h-76.3239877v152.6479755l44.1650027-.000972-4.771 19.081-39.3940027.000968c-10.4100174 0-18.8967303-8.374777-19.0780367-18.742229l-.0029601-.338767v-152.6479755c0-10.5136293 8.5578271-19.0809969 19.0809968-19.0809969z" fill-rule="evenodd"/></svg>