<svg height="1200" viewBox="0 0 1200 1200" width="1200" xmlns="http://www.w3.org/2000/svg"><path d="m450 412.95v67.05h-57.51c14.94-25.74 34.44-48.48 57.51-67.05zm0 247.05h-82.11c-4.95-19.2-7.89-39.24-7.89-60 0-20.73 2.94-40.77 7.89-60h82.11zm0 127.08c-23.07-18.54-42.57-41.31-57.51-67.08h57.51zm-150-187.08c0 165.45 134.58 300 300 300v-60c-31.83 0-62.19-6.36-90-17.67v-102.33h90v-60h-90v-120h90v-60h-90v-102.33c27.81-11.31 58.17-17.67 90-17.67v-60c-165.42 0-300 134.58-300 300zm480-179.988c-16.53 0-30-13.47-30-30s13.47-30 30-30 30 13.47 30 30-13.47 30-30 30m90-30c0-49.62-40.38-90-90-90s-90 40.38-90 90 40.38 90 90 90 90-40.38 90-90m0 300h-30c-16.56 0-30 13.44-30 30v120h-60v-120c0-16.56-13.44-30-30-30h-30v-60c0-49.62 40.38-90 90-90s90 40.38 90 90zm-90-210c-82.71 0-150 67.29-150 150v90c0 16.56 13.44 30 30 30h30v120c0 16.56 13.44 30 30 30h120c16.56 0 30-13.44 30-30v-120h30c16.56 0 30-13.44 30-30v-90c0-82.71-67.29-150-150-150z" fill-rule="evenodd"/></svg>