<svg height="1200" viewBox="0 0 1200 1200" width="1200" xmlns="http://www.w3.org/2000/svg"><path d="m300 600c0-165.42 134.58-300 300-300v60c-31.83 0-62.19 6.36-90 17.67v102.33h90v60h-90v120h90v60h-90v102.33c27.81 11.31 58.17 17.67 90 17.67v60c-165.42 0-300-134.55-300-300zm150-187.05c-23.07 18.57-42.57 41.31-57.51 67.05h57.51zm0 247.05v-120h-82.11c-4.95 19.23-7.89 39.27-7.89 60 0 20.76 2.94 40.8 7.89 60zm0 127.08v-67.08h-57.51c14.94 25.77 34.44 48.54 57.51 67.08zm330-307.068c82.71 0 150 67.29 150 150v90c0 16.56-13.44 30-30 30h-30v120c0 16.56-13.44 30-30 30h-120c-16.56 0-30-13.44-30-30v-120h-30c-16.56 0-30-13.44-30-30v-90c0-82.71 67.29-150 150-150zm90 210v-60c0-49.62-40.38-90-90-90s-90 40.38-90 90v60h30c16.56 0 30 13.44 30 30v120h60v-120c0-16.56 13.44-30 30-30zm0-300c0 49.62-40.38 90-90 90s-90-40.38-90-90 40.38-90 90-90 90 40.38 90 90zm-90 30c16.53 0 30-13.47 30-30s-13.47-30-30-30-30 13.47-30 30 13.47 30 30 30z" fill-rule="evenodd"/></svg>