<svg height="40" viewBox="0 0 40 40" width="40" xmlns="http://www.w3.org/2000/svg"><path d="m15 13.765v2.235h-1.917c.498-.858 1.148-1.616 1.917-2.235zm0 8.235h-2.737c-.165-.64-.263-1.308-.263-2 0-.691.098-1.359.263-2h2.737zm0 4.236c-.769-.618-1.419-1.377-1.917-2.236h1.917zm-5-6.236c0 5.515 4.486 10 10 10v-2c-1.061 0-2.073-.212-3-.589v-3.411h3v-2h-3v-4h3v-2h-3v-3.411c.927-.377 1.939-.589 3-.589v-2c-5.514 0-10 4.486-10 10zm16-5.9996c-.551 0-1-.449-1-1s.449-1 1-1 1 .449 1 1-.449 1-1 1m3-1c0-1.654-1.346-3-3-3s-3 1.346-3 3 1.346 3 3 3 3-1.346 3-3m0 10h-1c-.552 0-1 .448-1 1v4h-2v-4c0-.552-.448-1-1-1h-1v-2c0-1.654 1.346-3 3-3s3 1.346 3 3zm-3-7c-2.757 0-5 2.243-5 5v3c0 .552.448 1 1 1h1v4c0 .552.448 1 1 1h4c.552 0 1-.448 1-1v-4h1c.552 0 1-.448 1-1v-3c0-2.757-2.243-5-5-5z" fill-rule="evenodd"/></svg>