<svg height="280" viewBox="0 0 280 280" width="280" xmlns="http://www.w3.org/2000/svg"><path d="m225.482866 155.391277c20.430751 0 36.993146 16.562396 36.993146 36.993147v17.523987h5.839876c6.451254 0 11.681704 5.228497 11.684112 11.679751v46.727726c0 6.452957-5.231155 11.684112-11.684112 11.684112h-85.666044c-6.452957 0-11.684112-5.231155-11.684112-11.684112v-46.727726c0-6.452957 5.231155-11.684112 11.684112-11.684112h5.839876v-17.519626c0-20.430751 16.562395-36.993147 36.993146-36.993147zm.170094 77.231153c-6.431279 0-11.64486 5.213581-11.64486 11.64486 0 6.431278 5.213581 11.64486 11.64486 11.64486 6.424471 0 11.635235-5.20295 11.644859-11.627415v-.017445c0-6.431279-5.213581-11.64486-11.644859-11.64486zm-6.71215-190.4305297c11.561849 0 20.934579 9.3727305 20.934579 20.9345795v76.7601242c-16.374431-4.485106-33.903849-1.075383-47.403148 9.220592-13.4993 10.295974-21.423255 26.29965-21.428004 43.277228v2.490342c-10.632035 4.629462-17.511986 15.117193-17.523988 26.713396v15.993146h-88.0996883c-11.5618489 0-20.9345794-9.37273-20.9345794-20.934579v-153.5202492c0-11.561849 9.3727305-20.9345795 20.9345794-20.9345795zm6.542056 132.6510907c-9.678231 0-17.523987 7.845756-17.523987 17.523987v17.523988h35.047975v-17.523988c0-9.678231-7.845757-17.523987-17.523988-17.523987zm-30.361682-82.0624977c-1.851008 0-3.62618.7354191-4.934891 2.0444288l-65.451091 65.4510899-30.5295945-30.555763c-1.3087109-1.309009-3.083883-2.044429-4.934891-2.044429-1.8510079 0-3.6261801.73542-4.934891 2.044429l-9.8697819 9.869782c-1.3090097 1.308711-2.0444288 3.083883-2.0444288 4.934891s.7354191 3.62618 2.0444288 4.934891l45.3582554 45.358256c2.724478 2.713087 7.130261 2.711137 9.852337-.004362l80.249221-80.249221c1.309009-1.308711 2.044428-3.083883 2.044428-4.934891s-.735419-3.62618-2.044428-4.934891l-9.869782-9.8697819c-1.308711-1.3090097-3.083883-2.0444288-4.934891-2.0444288z"/></svg>