<svg id="Layer_1" data-name="Layer 1" xmlns="http://www.w3.org/2000/svg" viewBox="0 0 642 642"><path d="M517.18,441.11v.18h-.37v-.2a.67.67,0,0,1,.13-.16H517A.36.36,0,0,1,517.18,441.11ZM352,544.74H150a48,48,0,0,1-48-48v-352a48,48,0,0,1,48-48H502a48,48,0,0,1,48,48v176A124.84,124.84,0,0,0,392.18,441.11v5.71A66.88,66.88,0,0,0,352,508.07Zm-54.67-98.06,184-184a16,16,0,0,0,0-22.63l-22.63-22.63a16,16,0,0,0-22.63,0L286,367.49,216,297.43a16,16,0,0,0-22.63,0l-22.63,22.63a16,16,0,0,0,0,22.63l104,104A16,16,0,0,0,297.33,446.68ZM642,508.07V615.21A26.79,26.79,0,0,1,615.21,642H418.79A26.79,26.79,0,0,1,392,615.21V508.07a26.79,26.79,0,0,1,26.79-26.79h13.39V441.11a84.82,84.82,0,0,1,169.64,0v40.18h13.39A26.79,26.79,0,0,1,642,508.07Zm-97.91,52a26.7,26.7,0,1,0-26.7,26.7A26.7,26.7,0,0,0,544.09,560.11Zm13.09-119a40.18,40.18,0,1,0-80.36,0v40.18h80.36Z"/></svg>