<svg height="642" viewBox="0 0 642 642" width="642" xmlns="http://www.w3.org/2000/svg"><path d="m517.18 441.11v.18h-.37v-.2c.03482-.059721.078672-.113693.13-.16h.06c.079919.036077.143923.100081.18.18zm-165.18 103.63h-202c-26.509668 0-48-21.490332-48-48v-352c0-26.509668 21.490332-48 48-48h352c26.509668 0 48 21.490332 48 48v176c-37.544231-10.283707-77.736683-2.4657-108.688648 21.141499-30.951965 23.607198-49.120463 60.301341-49.131352 99.228501v5.71c-24.377736 10.614693-40.152483 34.661563-40.18 61.25zm-54.67-98.06 184-184c3.001372-3.000687 4.687583-7.070903 4.687583-11.315s-1.686211-8.314313-4.687583-11.315l-22.63-22.63c-3.000687-3.001372-7.070903-4.687583-11.315-4.687583s-8.314313 1.686211-11.315 4.687583l-150.07 150.07-70-70.06c-3.000687-3.001372-7.070903-4.687583-11.315-4.687583s-8.314313 1.686211-11.315 4.687583l-22.63 22.63c-3.001372 3.000687-4.687583 7.070903-4.687583 11.315s1.686211 8.314313 4.687583 11.315l104 104c6.246839 6.220722 16.348671 6.21625 22.59-.01zm344.67 168.53c0 14.795708-11.994292 26.79-26.79 26.79h-196.42c-14.795708 0-26.79-11.994292-26.79-26.79v-107.14c0-14.795708 11.994292-26.79 26.79-26.79h13.39v-40.17c0-46.844792 37.975208-84.82 84.82-84.82s84.82 37.975208 84.82 84.82v40.18h13.39c14.791804 0 26.784479 11.988197 26.79 26.78zm-97.91-55.14c0-14.746003-11.953997-26.7-26.7-26.7s-26.7 11.953997-26.7 26.7 11.953997 26.7 26.7 26.7c14.730396 0 26.677932-11.929621 26.7-26.66zm13.09-119c0-22.190801-17.989199-40.18-40.18-40.18s-40.18 17.989199-40.18 40.18v40.18h80.36z"/></svg>