<svg id="Layer_1" data-name="Layer 1" xmlns="http://www.w3.org/2000/svg" viewBox="0 0 642 642"><path d="M456.28,240.71a28.68,28.68,0,0,1,38.83-11.25,104.69,104.69,0,0,1,54.51,91.16,125.07,125.07,0,0,0-57.24-1.89,47.59,47.59,0,0,0-24.84-39.19A28.6,28.6,0,0,1,456.28,240.71ZM352,508.07a66.88,66.88,0,0,1,40.18-61.26v-5.71a124.46,124.46,0,0,1,5-35.07V121c0-25.56-30.91-38.08-48.78-20.22L242.48,206.69H121a28.57,28.57,0,0,0-28.58,28.58V406.73A28.58,28.58,0,0,0,121,435.31H242.48L348.42,541.23a30,30,0,0,0,3.58,3.06Zm290,0V615.21A26.79,26.79,0,0,1,615.21,642H418.79A26.79,26.79,0,0,1,392,615.21V508.07a26.79,26.79,0,0,1,26.79-26.79h13.39V441.11a84.82,84.82,0,0,1,169.64,0v40.18h13.39A26.79,26.79,0,0,1,642,508.07Zm-97.91,52a26.7,26.7,0,1,0-26.7,26.7A26.7,26.7,0,0,0,544.09,560.11Zm13.09-119a40.18,40.18,0,1,0-80.36,0v40.18h80.36Z"/></svg>