<svg height="642" viewBox="0 0 642 642" width="642" xmlns="http://www.w3.org/2000/svg"><path d="m150 544.48c-26.509668 0-48-21.490332-48-48v-352c0-26.509668 21.490332-48 48-48h352c26.509668 0 48 21.490332 48 48v352c0 26.509668-21.490332 48-48 48zm147.36-98.06 184-184c3.001372-3.000687 4.687583-7.070903 4.687583-11.315s-1.686211-8.314313-4.687583-11.315l-22.63-22.63c-3.000687-3.001372-7.070903-4.687583-11.315-4.687583s-8.314313 1.686211-11.315 4.687583l-150.1 150.07-70-70.06c-3.000687-3.001372-7.070903-4.687583-11.315-4.687583s-8.314313 1.686211-11.315 4.687583l-22.63 22.63c-3.001372 3.000687-4.687583 7.070903-4.687583 11.315s1.686211 8.314313 4.687583 11.315l104 104c3.000687 3.001372 7.070903 4.687583 11.315 4.687583s8.314313-1.686211 11.315-4.687583z"/></svg>