<svg height="280" viewBox="0 0 280 280" width="280" xmlns="http://www.w3.org/2000/svg"><path d="m226.482866 155.391277c20.430751 0 36.993146 16.562396 36.993146 36.993147v17.523987h5.839876c6.451254 0 11.681704 5.228497 11.684112 11.679751v46.727726c0 6.452957-5.231155 11.684112-11.684112 11.684112h-85.666044c-6.452957 0-11.684112-5.231155-11.684112-11.684112v-46.727726c0-6.452957 5.231155-11.684112 11.684112-11.684112h5.839876v-17.519626c0-20.430751 16.562395-36.993147 36.993146-36.993147zm.170094 77.231153c-6.431279 0-11.64486 5.213581-11.64486 11.64486 0 6.431278 5.213581 11.64486 11.64486 11.64486 6.424471 0 11.635235-5.20295 11.644859-11.627415v-.017445c0-6.431279-5.213581-11.64486-11.644859-11.64486zm-73.702804-188.6685359c7.793769-7.7894081 21.274766-2.328972 21.274766 8.8186916v124.3121493c-1.452465 4.968387-2.186796 10.118988-2.180685 15.295327v2.490343c-10.633484 4.630095-17.51372 15.11997-17.523988 26.717757v15.796885c-.554625-.403258-1.07669-.849492-1.56137-1.33458l-46.204362-46.195638h-52.9819313c-6.8841176 0-12.4647983-5.58068-12.4647983-12.464798v-74.780062c0-3.3062247 1.3117233-6.4773672 3.6495772-8.8152212 2.337854-2.3378539 5.5089965-3.6507339 8.8152211-3.6495765h52.9819313zm73.53271 130.8890969c-9.678231 0-17.523987 7.845756-17.523987 17.523987v17.523988h35.047975v-17.523988c0-9.678231-7.845757-17.523987-17.523988-17.523987zm-9.54704-74.766979c14.558251 7.950423 23.65951 23.170946 23.773831 39.758256-8.145728-2.201975-16.691245-2.484138-24.964486-.824299-.401081-7.191171-4.501485-13.660367-10.833645-17.092212-6.03021-3.322359-8.228235-10.902225-4.910903-16.935202 3.336808-6.0124169 10.901103-8.203978 16.935203-4.906543z"/></svg>