<svg height="280" viewBox="0 0 280 280" width="280" xmlns="http://www.w3.org/2000/svg"><path d="m218.94081 42.0785047c11.561849 0 20.934579 9.3727304 20.934579 20.9345794v153.5202489c0 11.561849-9.37273 20.93458-20.934579 20.93458h-153.5202493c-11.5618489 0-20.9345794-9.372731-20.9345794-20.93458v-153.5202489c0-11.561849 9.3727305-20.9345794 20.9345794-20.9345794zm-23.806542 50.588593c-1.851008 0-3.62618.7354191-4.934891 2.0444288l-65.464175 65.4510905-30.5295945-30.555763c-1.3087109-1.30901-3.083883-2.044429-4.934891-2.044429-1.8510079 0-3.6261801.735419-4.934891 2.044429l-9.8697819 9.869782c-1.3090097 1.30871-2.0444288 3.083883-2.0444288 4.93489 0 1.851008.7354191 3.626181 2.0444288 4.934891l45.3582554 45.358256c1.308711 1.30901 3.083883 2.044429 4.934891 2.044429s3.62618-.735419 4.934891-2.044429l-.004361-.004361 80.249221-80.249222c1.309009-1.30871 2.044429-3.083883 2.044429-4.934891s-.73542-3.62618-2.044429-4.934891l-9.869782-9.8697815c-1.308711-1.3090097-3.083883-2.0444288-4.934891-2.0444288z"/></svg>