<svg height="642" viewBox="0 0 642 642" width="642" xmlns="http://www.w3.org/2000/svg"><path d="m348.44 100.57-105.94 105.93h-121.5c-7.580701-.002654-14.851677 3.007592-20.212042 8.367958-5.3603656 5.360365-8.3679598 12.631341-8.3679598 20.212042v171.46c0 15.784298 12.7957038 28.58 28.5800018 28.58h121.5l105.94 105.88c17.9 17.9 48.78 5.32 48.78-20.21v-400c0-25.57-30.91-38.08-48.78-20.22zm117.83937 128.955717c-8.866235 5.294265-14.188409 14.958314-13.923019 25.281537s6.077094 19.701041 15.203649 24.532746c15.335029 8.145352 24.920768 24.09096 24.920768 41.455s-9.585739 33.309648-24.920768 41.455c-9.126555 4.831705-14.938259 14.209523-15.203649 24.532746s5.056784 19.987272 13.923019 25.281537 19.898418 5.395837 28.86063.265717c33.58149-18.204756 54.498249-53.336445 54.498249-91.535s-20.916759-73.330244-54.498249-91.535c-8.962212-5.13012-19.994395-5.028548-28.86063.265717z"/></svg>