<svg height="280" viewBox="0 0 280 280" width="280" xmlns="http://www.w3.org/2000/svg"><path d="m170 58.0400701v163.4312999c0 17.818-21.543 26.742-34.142 14.142l-50.0001-50c-3.7508-3.75-8.8378-5.858-14.1422-5.858h-31.7157c-11.0457 0-20-8.954-20-20v-40c0-11.045 8.9543-19.9999999 20-19.9999999h31.7157c5.3044 0 10.3914-2.1067 14.1422-5.8574l50.0001-50c12.599-12.5993 34.142-3.676 34.142 14.1421zm40 31.7153c27.614 0 50 22.3859999 50 49.9999999s-22.386 50-50 50c-5.523 0-10-4.477-10-10v-10c0-5.523 4.477-10 10-10 11.046 0 20-8.954 20-20s-8.954-20-20-20c-5.523 0-10-4.477-10-10v-9.9999999c0-5.5228 4.477-10 10-10z"/></svg>