<svg id="Layer_1" data-name="Layer 1" xmlns="http://www.w3.org/2000/svg" viewBox="0 0 642 642"><path d="M517.18,441.11v.18h-.36v-.2a.66.66,0,0,1,.13-.16H517A.36.36,0,0,1,517.18,441.11ZM352,508.07a66.89,66.89,0,0,1,40.18-61.26v-5.71A124.84,124.84,0,0,1,541,318.61V148.14A47.16,47.16,0,0,0,493.86,101H148.14A47.16,47.16,0,0,0,101,148.14V493.86A47.16,47.16,0,0,0,148.14,541H352Zm290,0V615.21A26.79,26.79,0,0,1,615.21,642H418.79A26.79,26.79,0,0,1,392,615.21V508.07a26.79,26.79,0,0,1,26.79-26.79h13.39V441.11a84.82,84.82,0,0,1,169.64,0v40.18h13.39A26.79,26.79,0,0,1,642,508.07Zm-97.91,52a26.7,26.7,0,1,0-26.7,26.7A26.7,26.7,0,0,0,544.09,560.11Zm13.09-119a40.18,40.18,0,1,0-80.36,0v40.18h80.36Z"/></svg>