<svg height="280" viewBox="0 0 280 280" width="280" xmlns="http://www.w3.org/2000/svg"><path d="m225.482866 155.391277c20.430751 0 36.993146 16.562396 36.993146 36.993147v17.523987h5.839876c6.451254 0 11.681704 5.228497 11.684112 11.679751v46.727726c0 6.452957-5.231155 11.684112-11.684112 11.684112h-85.666044c-6.452957 0-11.684112-5.231155-11.684112-11.684112v-46.727726c0-6.452957 5.231155-11.684112 11.684112-11.684112h5.839876v-17.519626c0-20.430751 16.562395-36.993147 36.993146-36.993147zm.170094 77.231153c-6.431279 0-11.64486 5.213581-11.64486 11.64486 0 6.431278 5.213581 11.64486 11.64486 11.64486 6.424471 0 11.635235-5.20295 11.644859-11.627415v-.017445c0-6.431279-5.213581-11.64486-11.644859-11.64486zm-10.262306-188.5725858c11.352705.0048136 20.554688 9.2067968 20.559502 20.5595016v74.3482862c-15.967971-3.125423-32.496904 1.054339-45.059757 11.394507-12.562853 10.340169-19.842872 25.756957-19.846162 42.027923v2.490343c-10.632721 4.631-17.512585 15.12031-17.523988 26.717757v14.361994h-88.9109032c-11.3527048-.004814-20.554688-9.206797-20.5595016-20.559502v-150.7813082c.0048136-11.3527048 9.2067968-20.554688 20.5595016-20.5595016zm10.092212 130.7931468c-9.678231 0-17.523987 7.845756-17.523987 17.523987v17.523988h35.047975v-17.523988c0-9.678231-7.845757-17.523987-17.523988-17.523987z"/></svg>