<svg height="642" viewBox="0 0 642 642" width="642" xmlns="http://www.w3.org/2000/svg"><path d="m517.18 441.29h-.36v-.2c.034685-.059814.078553-.113805.13-.16h.05c.079919.036077.143923.100081.18.18zm-165.18 66.78c.026145-26.59129 15.80069-50.641779 40.18-61.26v-5.71c.007544-37.307002 16.699588-72.655494 45.504415-96.364023s66.703309-33.292126 103.315585-26.125977v-170.47c-.011037-26.03013-21.10987-47.128963-47.14-47.14h-345.72c-26.03013.011037-47.128963 21.10987-47.14 47.14v345.72c.011037 26.03013 21.10987 47.128963 47.14 47.14h203.86zm290 0v107.14c0 14.795708-11.994292 26.79-26.79 26.79h-196.42c-14.795708 0-26.79-11.994292-26.79-26.79v-107.14c0-14.795708 11.994292-26.79 26.79-26.79h13.39v-40.17c0-46.844792 37.975208-84.82 84.82-84.82s84.82 37.975208 84.82 84.82v40.18h13.39c14.791804 0 26.784479 11.988197 26.79 26.78zm-97.91 52c0-14.746003-11.953997-26.7-26.7-26.7s-26.7 11.953997-26.7 26.7 11.953997 26.7 26.7 26.7c14.730396 0 26.677932-11.929621 26.7-26.66zm13.09-119c0-22.190801-17.989199-40.18-40.18-40.18s-40.18 17.989199-40.18 40.18v40.18h80.36z"/></svg>