<svg height="280" viewBox="0 0 280 280" width="280" xmlns="http://www.w3.org/2000/svg"><path d="m220 160.832v88.336c0 9.631-11.489 14.454-18.209 7.644l-26.667-27.025c-2-2.028-4.713-3.167-7.542-3.167h-16.915c-5.891 0-10.667-4.84-10.667-10.81v-21.62c0-5.971 4.776-10.81 10.667-10.81h16.915c2.829 0 5.542-1.139 7.542-3.167l26.667-27.025c6.719-6.81 18.209-1.987 18.209 7.644zm25 19.168c13.807 0 25 11.193 25 25s-11.193 25-25 25c-2.761 0-5-2.239-5-5v-5c0-2.761 2.239-5 5-5 5.523 0 10-4.477 10-10s-4.477-10-10-10c-2.761 0-5-2.239-5-5v-5c0-2.761 2.239-5 5-5zm-115-10c.518 0 1.025.039 1.521.115-7.061 5.688-11.521 14.432-11.521 24.074v15.811h-90c-5.5225 0-10-4.478-10-10v-20c0-5.522 4.4775-10 10-10zm50-70c5.523 0 10 4.477 10 10v20c0 5.523-4.477 10-10 10h-150c-5.5228 0-10-4.477-10-10v-20c0-5.523 4.4772-10 10-10zm0-70c5.523 0 10 4.4772 10 10v20c0 5.5228-4.477 10-10 10h-150c-5.5228 0-10-4.4772-10-10v-20c0-5.5228 4.4772-10 10-10z"/></svg>