<svg height="280" viewBox="0 0 280 280" width="280" xmlns="http://www.w3.org/2000/svg"><path d="m225.778894 192.479174c.074186.042346.130897.109691.16.19v.18h-.37v-.2c.03482-.05972.078672-.113692.13-.16h.08zm-.296028-37.087897c20.430751 0 36.993146 16.562396 36.993146 36.993147v17.523987h5.839876c6.451254 0 11.681704 5.228497 11.684112 11.679751v46.727726c0 6.452957-5.231155 11.684112-11.684112 11.684112h-85.666044c-6.452957 0-11.684112-5.231155-11.684112-11.684112v-46.727726c0-6.452957 5.231155-11.684112 11.684112-11.684112h5.839876v-17.519626c0-20.430751 16.562395-36.993147 36.993146-36.993147zm.170094 77.231153c-6.431279 0-11.64486 5.213581-11.64486 11.64486 0 6.431278 5.213581 11.64486 11.64486 11.64486 6.424471 0 11.635235-5.20295 11.644859-11.627415v-.017445c0-6.431279-5.213581-11.64486-11.644859-11.64486zm-99.609346-78.666044v83.738318h-83.738318v-83.738318zm60.915265 0c-10.197907 10.187409-15.923841 24.013444-15.914642 38.428038v2.490342c-8.971328 3.915406-15.386325 12.062682-17.087851 21.702181v-62.620561zm38.523987 20.886605c-9.678231 0-17.523987 7.845756-17.523987 17.523987v17.523988h35.047975v-17.523988c0-9.678231-7.845757-17.523987-17.523988-17.523987zm-127.3520249 7.026168h-27.9127726v27.912772h27.9127726zm139.5638629-139.563863v83.738318h-83.738318v-83.738318zm-111.65109 0v83.738318h-83.738318v-83.738318zm83.738317 27.9127725h-27.912772v27.9127726h27.912772zm-111.6510899 0h-27.9127726v27.9127726h27.9127726z"/></svg>