<svg height="280" viewBox="0 0 280 280" width="280" xmlns="http://www.w3.org/2000/svg"><path d="m225.482866 155.391277c20.430751 0 36.993146 16.562396 36.993146 36.993147v17.523987h5.839876c6.451254 0 11.681704 5.228497 11.684112 11.679751v46.727726c0 6.452957-5.231155 11.684112-11.684112 11.684112h-85.666044c-6.452957 0-11.684112-5.231155-11.684112-11.684112v-46.727726c0-6.452957 5.231155-11.684112 11.684112-11.684112h5.839876v-17.519626c0-20.430751 16.562395-36.993147 36.993146-36.993147zm.170094 77.231153c-6.431279 0-11.64486 5.213581-11.64486 11.64486 0 6.431278 5.213581 11.64486 11.64486 11.64486 6.424471 0 11.635235-5.20295 11.644859-11.627415v-.017445c0-6.431279-5.213581-11.64486-11.644859-11.64486zm-.170094-57.779439c-9.678231 0-17.523987 7.845756-17.523987 17.523987v17.523988h35.047975v-17.523988c0-9.678231-7.845757-17.523987-17.523988-17.523987zm-146.105919-95.348287v121.010592h-23.5950155v-96.268536l-22.4218069.505919v-17.0267911zm80.305919 20.847352v32.889097h25.413707v21.09595h-25.413707v34.053582h-22.343302v-34.053582h-25.496573v-21.09595h25.500934v-32.889097zm86.957009-20.847352v62.729595c-6.693677-2.83177-13.888985-4.286851-21.157009-4.278505-.815576 0-1.62243.021807-2.429283.056698v-33.765732l-22.43053.488474v-17.0093461z"/></svg>