<svg id="Layer_1" data-name="Layer 1" xmlns="http://www.w3.org/2000/svg" viewBox="0 0 642 642"><path d="M517.18,441.11v.18h-.37v-.2a.67.67,0,0,1,.13-.16H517A.36.36,0,0,1,517.18,441.11Zm-5.75-124.69c1.85-.08,3.7-.13,5.57-.13a124.14,124.14,0,0,1,48.51,9.81V182.27L460,201.12v39L511.43,239ZM366.13,431.93V353.85H424.4V305.48H366.13V230.07H314.91v75.41H256.44v48.37h58.46v78.08ZM76.49,240.16,127.9,239V459.73H182V182.27L76.49,201.12ZM642,508.07V615.21A26.79,26.79,0,0,1,615.21,642H418.79A26.79,26.79,0,0,1,392,615.21V508.07a26.79,26.79,0,0,1,26.79-26.79h13.39V441.11a84.82,84.82,0,0,1,169.64,0v40.18h13.39A26.79,26.79,0,0,1,642,508.07Zm-97.91,52a26.7,26.7,0,1,0-26.7,26.7A26.7,26.7,0,0,0,544.09,560.11Zm13.09-119a40.18,40.18,0,1,0-80.36,0v40.18h80.36Z"/></svg>