<svg height="642" viewBox="0 0 642 642" width="642" xmlns="http://www.w3.org/2000/svg"><path d="m586.82 221.38v32.14c-.021935 5.90586-4.80414 10.688065-10.71 10.71h-187.61c7.800915-27.901687 9.134745-57.215161 3.9-85.71h51.6v-46.42c.021935-5.90586 4.80414-10.688065 10.71-10.71h35.71c5.90586.021935 10.688065 4.80414 10.71 10.71v46.43h42.87c23.649112.02758 42.808983 19.200874 42.82 42.85zm-10.71 71.43h-198.2c-30.22 64.98-96.12 110.19-172.37 110.19-6.313333 0-12.55-.306667-18.71-.92v133.59c.00552 23.668637 19.191363 42.85448 42.86 42.86h314.31c23.668637-.00552 42.85448-19.191363 42.86-42.86v-232.14c-.016536-5.925342-4.824635-10.72-10.75-10.72zm-220.57-79.81c0 82.842712-67.157288 150-150 150s-150-67.157288-150-150 67.157288-150 150-150 150 67.157288 150 150zm-94.05 39.31c3.33612-4.173219 2.660285-10.260213-1.51-13.6l-35.09-25.71v-87.1c0-5.346116-4.333884-9.68-9.68-9.68h-19.35c-5.346116 0-9.680004 4.333884-9.680004 9.68v94.08c-.002331 7.347349 3.334785 14.297527 9.070004 18.89l40.52 30.07c4.173219 3.33612 10.260213 2.660285 13.6-1.51l12.1-15.12z"/></svg>