<svg id="Layer_1" data-name="Layer 1" xmlns="http://www.w3.org/2000/svg" viewBox="0 0 642 642"><path d="M201.15,460H147.06V239.26L95.65,240.4v-39l105.5-18.85Z"/><path d="M342.44,460H288.93V410.84h53.51Z"/><path d="M546.39,351.23q0,55.42-22,84.08T465.46,464q-37.33,0-59.41-28.66T384,351.23v-59.6q0-55.22,22-84.07t59.13-28.85q37.13,0,59.22,28.85t22.09,84.07Zm-54.08-64.37q0-33.51-7-48.94t-19.61-14.47h-1.14q-12.76-1-19.61,14.47T438,286.87v68.75q0,33.9,7,49.42t19.8,14.38H466q12.57,1.14,19.42-14.28t6.86-49.51Z"/></svg>