<svg height="280" viewBox="0 0 280 280" width="280" xmlns="http://www.w3.org/2000/svg"><path d="m225.482866 155.391277c20.430751 0 36.993146 16.562396 36.993146 36.993147v17.523987h5.839876c6.451254 0 11.681704 5.228497 11.684112 11.679751v46.727726c0 6.452957-5.231155 11.684112-11.684112 11.684112h-85.666044c-6.452957 0-11.684112-5.231155-11.684112-11.684112v-46.727726c0-6.452957 5.231155-11.684112 11.684112-11.684112h5.839876v-17.519626c0-20.430751 16.562395-36.993147 36.993146-36.993147zm.170094 77.231153c-6.431279 0-11.64486 5.213581-11.64486 11.64486 0 6.431278 5.213581 11.64486 11.64486 11.64486 6.424471 0 11.635235-5.20295 11.644859-11.627415v-.017445c0-6.431279-5.213581-11.64486-11.644859-11.64486zm25.531464-104.799377c2.575764.009567 4.661461 2.095263 4.671028 4.671028v14.73271c-16.686306-11.236177-38.210316-12.350022-55.967305-2.896247-17.756988 9.453774-28.849833 27.932748-28.84391 48.049518v2.490343c-10.633484 4.630095-17.51372 15.11997-17.523988 26.717757v30.843614h-53.426791c-10.3227703-.002408-18.6904273-8.370065-18.6928349-18.692835v-58.280997c2.6866043.267497 5.4066459.401246 8.1601246.401246 33.2598133 0 62.0012463-19.687227 75.1813083-48.036137zm-25.701558 47.019938c-9.678231 0-17.523987 7.845756-17.523987 17.523987v17.523988h35.047975v-17.523988c0-9.678231-7.845757-17.523987-17.523988-17.523987zm-135.917757-147.2747667c36.130778 0 65.420561 29.2897827 65.420561 65.4205607s-29.289783 65.420561-65.420561 65.420561-65.4205607-29.289783-65.4205607-65.420561 29.2897827-65.4205607 65.4205607-65.4205607zm4.2174455 23.2155763h-8.4392523c-2.3316396 0-4.2218069 1.8901673-4.2218069 4.2218069v41.0317757c0 3.2051863 1.457149 6.2365468 3.9601246 8.2386288l17.6722741 13.114642c1.820095 1.455006 4.474859 1.160249 5.931464-.658567l5.277259-6.594392c1.455006-1.820096 1.160249-4.47486-.658567-5.931464l-15.2996886-11.2130846v-37.9875389c0-1.1196928-.4447963-2.1935259-1.2365386-2.9852683-.7917424-.7917423-1.8655755-1.2365386-2.9852683-1.2365386zm120.0118385 2.2722742c2.575764.0095665 4.661461 2.0952635 4.671028 4.671028v20.2498442h18.692834c10.322771.0024077 18.690428 8.3700647 18.692835 18.6928349v14.0174451c-.009566 2.575765-2.095263 4.661462-4.671028 4.671028h-81.819314c3.402116-12.168984 3.983847-24.9536418 1.700934-37.381308h22.487228v-20.2498442c.009566-2.5757645 2.095263-4.6614615 4.671028-4.671028z"/></svg>