<svg height="280" viewBox="0 0 280 280" width="280" xmlns="http://www.w3.org/2000/svg"><path d="m225.482866 155.391277c20.430751 0 36.993146 16.562396 36.993146 36.993147v17.523987h5.839876c6.451254 0 11.681704 5.228497 11.684112 11.679751v46.727726c0 6.452957-5.231155 11.684112-11.684112 11.684112h-85.666044c-6.452957 0-11.684112-5.231155-11.684112-11.684112v-46.727726c0-6.452957 5.231155-11.684112 11.684112-11.684112h5.839876v-17.519626c0-20.430751 16.562395-36.993147 36.993146-36.993147zm.170094 77.231153c-6.431279 0-11.64486 5.213581-11.64486 11.64486 0 6.431278 5.213581 11.64486 11.64486 11.64486 6.424471 0 11.635235-5.20295 11.644859-11.627415v-.017445c0-6.431279-5.213581-11.64486-11.644859-11.64486zm-.170094-57.779439c-9.678231 0-17.523987 7.845756-17.523987 17.523987v17.523988h35.047975v-17.523988c0-9.678231-7.845757-17.523987-17.523988-17.523987zm-76.14081 4.191277v21.427414h-23.337695v-21.427414zm-61.6436136-99.5788163v121.0062303h-23.5862929v-96.259813l-22.4043613.501558v-17.0398756zm115.1009346-1.6616822c10.795846 0 19.405192 4.1941848 25.828037 12.5825545 6.422846 8.3883697 9.634268 20.610384 9.634268 36.666044v12.408099c-7.736293-1.863074-15.78641-2.01193-23.586293-.436137v-14.047975c.011631-9.731672-1.006022-16.846521-3.052959-21.344548-2.046937-4.4980271-4.897819-6.6016616-8.552648-6.3109036h-.497196c-3.707165-.2791277-6.558048 1.8245068-8.552648 6.3109036-1.994601 4.486397-2.991901 11.601246-2.991901 21.344548v25.29595c-9.631446 7.860767-16.286931 18.777301-18.862928 30.939564-3.166355-7.469574-4.749533-16.858151-4.749533-28.165732v-25.993769c0-16.05566 3.198339-28.2776743 9.595016-36.666044s14.992939-12.5825545 25.788785-12.5825545z"/></svg>