<svg id="Layer_1" data-name="Layer 1" xmlns="http://www.w3.org/2000/svg" viewBox="0 0 642 642"><path d="M586.82,221.38v32.14a10.75,10.75,0,0,1-10.71,10.71H388.5a190.49,190.49,0,0,0,3.9-85.71H444V132.1a10.75,10.75,0,0,1,10.71-10.71h35.71a10.75,10.75,0,0,1,10.71,10.71v46.43H544A42.87,42.87,0,0,1,586.82,221.38Zm-10.71,71.43H377.91C347.69,357.79,281.79,403,205.54,403q-9.47,0-18.71-.92V535.67a42.87,42.87,0,0,0,42.86,42.86H544a42.87,42.87,0,0,0,42.86-42.86V303.53A10.75,10.75,0,0,0,576.11,292.81ZM355.54,213a150,150,0,1,1-150-150A150,150,0,0,1,355.54,213Zm-94.05,39.31a9.68,9.68,0,0,0-1.51-13.6L224.89,213v-87.1a9.68,9.68,0,0,0-9.68-9.68H195.86a9.68,9.68,0,0,0-9.68,9.68v94.08a24.19,24.19,0,0,0,9.07,18.89l40.52,30.07h0a9.68,9.68,0,0,0,13.6-1.51l12.1-15.12h0Z"/></svg>