<svg height="280" viewBox="0 0 280 280" width="280" xmlns="http://www.w3.org/2000/svg"><path d="m239.714019 112.087227v27.747041c-10.135903-2.742041-20.848243-2.496685-30.847975.706542-.714259-.354916-1.500865-.54-2.298443-.54081h-17.445483c-2.890462 0-5.233644 2.343183-5.233644 5.233645v12.072274c-8.303387 9.801099-12.855404 22.232974-12.844237 35.078505v2.490342c-6.727268 2.942222-12.104877 8.30271-15.068536 15.020561v-8.836137c0-2.890462-2.343183-5.233645-5.233645-5.233645h-17.445483c-2.890462 0-5.233645 2.343183-5.233645 5.233645v17.445483c0 2.890462 2.343183 5.233645 5.233645 5.233645h17.445483c.984285-.001263 1.947884-.282627 2.778193-.811215v28.723987h-88.261059c-11.5618489 0-20.9345794-9.37273-20.9345794-20.934579v-118.629284zm-144.7975081 83.738318h-17.4454829c-2.8904622 0-5.2336448 2.343183-5.2336448 5.233645v17.445483c0 2.890462 2.3431826 5.233645 5.2336448 5.233645h17.4454829c2.8904622 0 5.2336451-2.343183 5.2336451-5.233645v-17.445483c0-2.890462-2.3431829-5.233645-5.2336451-5.233645zm130.8482871-3.33919c.079918.036077.143923.100081.18.18v.18h-.36v-.2c.034684-.059813.078553-.113805.13-.16zm-75.022742-52.486355h-17.445483c-2.890462 0-5.233645 2.343183-5.233645 5.233645v17.445483c0 2.890462 2.343183 5.233645 5.233645 5.233645h17.445483c2.890462 0 5.233645-2.343183 5.233645-5.233645v-17.445483c0-2.890462-2.343183-5.233645-5.233645-5.233645zm-55.8255451 0h-17.4454829c-2.8904622 0-5.2336448 2.343183-5.2336448 5.233645v17.445483c0 2.890462 2.3431826 5.233645 5.2336448 5.233645h17.4454829c2.8904622 0 5.2336451-2.343183 5.2336451-5.233645v-17.445483c0-2.890462-2.3431829-5.233645-5.2336451-5.233645zm12.2118381-111.6510903c3.85395 0 6.978193 3.1242434 6.978193 6.9781931v20.9345794h55.825545v-20.9345794c0-3.8539497 3.124244-6.9781931 6.978193-6.9781931h13.956387c3.853949 0 6.978193 3.1242434 6.978193 6.9781931v20.9345794h20.934579c11.561849 0 20.93458 9.3727305 20.93458 20.9345795v20.9345794h-195.3894084v-20.9345794c0-11.561849 9.3727305-20.9345795 20.9345794-20.9345795h20.9345795v-20.9345794c0-3.8539497 3.1242435-6.9781931 6.9781931-6.9781931zm118.354517 127.0423673c20.430751 0 36.993146 16.562396 36.993146 36.993147v17.523987h5.839876c6.451254 0 11.681704 5.228497 11.684112 11.679751v46.727726c0 6.452957-5.231155 11.684112-11.684112 11.684112h-85.666044c-6.452957 0-11.684112-5.231155-11.684112-11.684112v-46.727726c0-6.452957 5.231155-11.684112 11.684112-11.684112h5.839876v-17.519626c0-20.430751 16.562395-36.993147 36.993146-36.993147zm.170094 77.231153c-6.431279 0-11.64486 5.213581-11.64486 11.64486 0 6.431278 5.213581 11.64486 11.64486 11.64486 6.424471 0 11.635235-5.20295 11.644859-11.627415v-.017445c0-6.431279-5.213581-11.64486-11.644859-11.64486zm-.170094-57.779439c-9.678231 0-17.523987 7.845756-17.523987 17.523987v17.523988h35.047975v-17.523988c0-9.678231-7.845757-17.523987-17.523988-17.523987z"/></svg>