<svg id="Layer_1" data-name="Layer 1" xmlns="http://www.w3.org/2000/svg" viewBox="0 0 642 642"><path d="M517.18,441.11v.18h-.36v-.2a.66.66,0,0,1,.13-.16H517A.36.36,0,0,1,517.18,441.11ZM549.63,177a48,48,0,0,0-48-48h-48V81a16,16,0,0,0-16-16h-32a16,16,0,0,0-16,16v48h-128V81a16,16,0,0,0-16-16h-32a16,16,0,0,0-16,16v48h-48a48,48,0,0,0-48,48v48h448ZM352,577H149.63a48,48,0,0,1-48-48V257h448v63.62a124.92,124.92,0,0,0-70.73,1.62,11.87,11.87,0,0,0-5.27-1.24h-40a12,12,0,0,0-12,12v27.68a124.26,124.26,0,0,0-29.45,80.43v5.71a67.19,67.19,0,0,0-34.55,34.44V461a12,12,0,0,0-12-12h-40a12,12,0,0,0-12,12v40a12,12,0,0,0,12,12h40a11.89,11.89,0,0,0,6.37-1.86ZM293.63,373a12,12,0,0,0,12,12h40a12,12,0,0,0,12-12V333a12,12,0,0,0-12-12h-40a12,12,0,0,0-12,12Zm-64,88a12,12,0,0,0-12-12h-40a12,12,0,0,0-12,12v40a12,12,0,0,0,12,12h40a12,12,0,0,0,12-12Zm0-128a12,12,0,0,0-12-12h-40a12,12,0,0,0-12,12v40a12,12,0,0,0,12,12h40a12,12,0,0,0,12-12ZM642,508.07V615.21A26.79,26.79,0,0,1,615.21,642H418.79A26.79,26.79,0,0,1,392,615.21V508.07a26.79,26.79,0,0,1,26.79-26.79h13.39V441.11a84.82,84.82,0,0,1,169.64,0v40.18h13.39A26.79,26.79,0,0,1,642,508.07Zm-97.91,52a26.7,26.7,0,1,0-26.7,26.7A26.7,26.7,0,0,0,544.09,560.11Zm13.09-119a40.18,40.18,0,1,0-80.36,0v40.18h80.36Z"/></svg>