<svg height="280" viewBox="0 0 280 280" width="280" xmlns="http://www.w3.org/2000/svg"><path d="m251.262928 127.705296c2.584272 0 4.681262 2.091128 4.688474 4.675389v101.24486c-.002408 10.32277-8.370065 18.690427-18.692835 18.692835h-137.082243c-10.3227702-.002408-18.6904273-8.370065-18.6928349-18.692835v-58.263551c2.6866044.267497 5.4066459.401246 8.1601246.401246 33.2554513 0 61.9968843-19.717757 75.1769473-48.057944zm-161.6193143-100.2286605c36.1307783 0 65.4205603 29.2897827 65.4205603 65.4205608 0 36.1307777-29.289782 65.4205607-65.4205603 65.4205607-36.130778 0-65.4205607-29.289783-65.4205607-65.4205607 0-36.1307781 29.2897827-65.4205608 65.4205607-65.4205608zm4.2174455 23.211215h-8.4392523c-2.3316396 0-4.2218085 1.8901673-4.2218085 4.2218068v41.0317757c-.0010167 3.2044515 1.4544231 6.235682 3.9557648 8.238629l17.6722738 13.114642c1.820096 1.455006 4.47486 1.160249 5.931465-.658567l5.277258-6.594392h.008723c1.455006-1.820096 1.160249-4.47486-.658567-5.931465l-15.30405-11.2130837v-37.987539c0-2.3316395-1.8901673-4.2218068-4.2218068-4.2218068zm120.0292838 2.2548286c2.575764.0095666 4.661461 2.0952635 4.671028 4.6710281v20.2498442h18.697196c10.314255.0120286 18.670585 8.3742131 18.675389 18.6884735v14.0174451c-.009566 2.575765-2.095263 4.661462-4.671028 4.671028h-81.823676c3.402269-12.16896 3.984001-24.9536523 1.700935-37.381308h22.504673v-20.2454828c.009566-2.5757646 2.095263-4.6614615 4.671028-4.6710281z"/></svg>