<svg height="280" viewBox="0 0 280 280" width="280" xmlns="http://www.w3.org/2000/svg"><path d="m239.722741 112.087227v118.629284c0 11.561849-9.37273 20.934579-20.934579 20.934579h-153.5202492c-11.561849 0-20.9345795-9.37273-20.9345795-20.934579v-118.629284zm-33.146417 83.738318h-17.445483c-2.890462 0-5.233645 2.343183-5.233645 5.233645v17.445483c0 2.890462 2.343183 5.233645 5.233645 5.233645h17.445483c2.890462 0 5.233645-2.343183 5.233645-5.233645v-17.445483c0-2.890462-2.343183-5.233645-5.233645-5.233645zm-55.825545 0h-17.445483c-2.890462 0-5.233645 2.343183-5.233645 5.233645v17.445483c0 2.890462 2.343183 5.233645 5.233645 5.233645h17.445483c2.890462 0 5.233645-2.343183 5.233645-5.233645v-17.445483c0-2.890462-2.343183-5.233645-5.233645-5.233645zm-55.8255454 0h-17.4454828c-2.8904623 0-5.2336449 2.343183-5.2336449 5.233645v17.445483c0 2.890462 2.3431826 5.233645 5.2336449 5.233645h17.4454828c2.8904623 0 5.2336454-2.343183 5.2336454-5.233645v-17.445483c0-2.890462-2.3431831-5.233645-5.2336454-5.233645zm111.6510904-55.825545h-17.445483c-2.890462 0-5.233645 2.343183-5.233645 5.233645v17.445483c0 2.890462 2.343183 5.233645 5.233645 5.233645h17.445483c2.890462 0 5.233645-2.343183 5.233645-5.233645v-17.445483c0-2.890462-2.343183-5.233645-5.233645-5.233645zm-55.825545 0h-17.445483c-2.890462 0-5.233645 2.343183-5.233645 5.233645v17.445483c0 2.890462 2.343183 5.233645 5.233645 5.233645h17.445483c2.890462 0 5.233645-2.343183 5.233645-5.233645v-17.445483c0-2.890462-2.343183-5.233645-5.233645-5.233645zm-55.8255454 0h-17.4454828c-2.8904623 0-5.2336449 2.343183-5.2336449 5.233645v17.445483c0 2.890462 2.3431826 5.233645 5.2336449 5.233645h17.4454828c2.8904623 0 5.2336454-2.343183 5.2336454-5.233645v-17.445483c0-2.890462-2.3431831-5.233645-5.2336454-5.233645zm12.2118384-111.6510903c3.853949 0 6.978193 3.1242434 6.978193 6.9781931v20.9345794h55.825545v-20.9345794c0-3.8539497 3.124243-6.9781931 6.978193-6.9781931h13.956386c3.85395 0 6.978194 3.1242434 6.978194 6.9781931v20.9345794h20.934579c11.561849 0 20.934579 9.3727305 20.934579 20.9345795v20.9345794h-195.3894077v-20.9345794c0-11.561849 9.3727305-20.9345795 20.9345795-20.9345795h20.9345794v-20.9345794c0-3.8539497 3.1242435-6.9781931 6.9781932-6.9781931z"/></svg>