<svg height="280" viewBox="0 0 280 280" width="280" xmlns="http://www.w3.org/2000/svg"><g fill="#000" fill-rule="nonzero"><path d="m87.728972 200.623053h-23.5906542v-96.272897l-22.4218069.497196v-17.0093458l46.0124611-8.2211838z"/><path d="m149.350779 200.623053h-23.337695v-21.440498h23.337695z"/><path d="m202.860436 77.9420561c10.795846 0 19.405192 4.1941848 25.828038 12.5825545 6.422845 8.3883697 9.634267 20.6103844 9.634267 36.6660434l-.021806 25.99377c0 16.113811-3.198339 28.337279-9.595016 36.670405-6.396677 8.333125-14.963863 12.50405-25.701558 12.512772-10.853998 0-19.490965-4.166563-25.910903-12.499688-6.419938-8.333126-9.625545-20.560956-9.61684-36.683489v-25.99377c0-16.055659 3.198356-28.2776737 9.595033-36.6660434s14.992939-12.5825545 25.788785-12.5825545zm-8.801246 25.8236759c-1.991693 4.498027-3.002077 11.61433-3.031153 21.34891v29.984423c0 9.856698 1.017654 17.04133 3.05296 21.553895 2.035306 4.512564 4.913811 6.603115 8.635514 6.271651h.523364c3.654829.331464 6.47809-1.744549 8.469782-6.228038 1.991693-4.483489 2.988993-11.681204 2.991901-21.593146l.013084-29.993147c0-9.743302-1.017653-16.858151-3.05296-21.344548-2.035306-4.4863966-4.886189-6.5900311-8.552648-6.3109033h-.497196c-3.710073-.2907581-6.560955 1.8128764-8.552648 6.3109033z"/></g></svg>