<svg id="Layer_1" data-name="Layer 1" xmlns="http://www.w3.org/2000/svg" viewBox="0 0 642 642"><path d="M517.18,441.11v.18h-.37v-.2a.67.67,0,0,1,.13-.16H517A.36.36,0,0,1,517.18,441.11ZM438,344.53v-58q0-33.51,6.86-48.94t19.61-14.47h1.14q12.57-1,19.61,14.47t7,48.94v32.21a125.14,125.14,0,0,1,54.08,1V291.29q0-55.22-22.09-84.07t-59.22-28.85q-37.13,0-59.13,28.85t-22,84.07v59.6q0,38.89,10.89,64.58A125,125,0,0,1,438,344.53ZM288.91,459.63h53.51V410.5H288.91ZM95.63,240.07,147,238.92V459.63h54.08V182.18L95.63,201ZM642,508.07V615.21A26.79,26.79,0,0,1,615.21,642H418.79A26.79,26.79,0,0,1,392,615.21V508.07a26.79,26.79,0,0,1,26.79-26.79h13.39V441.11a84.82,84.82,0,0,1,169.64,0v40.18h13.39A26.79,26.79,0,0,1,642,508.07Zm-97.91,52a26.7,26.7,0,1,0-26.7,26.7A26.7,26.7,0,0,0,544.09,560.11Zm13.09-119a40.18,40.18,0,1,0-80.36,0v40.18h80.36Z"/></svg>