<svg id="Layer_1" data-name="Layer 1" xmlns="http://www.w3.org/2000/svg" viewBox="0 0 642 642"><path d="M388.32,264.5a190.5,190.5,0,0,0,3.9-85.71h51.56V132.36a10.75,10.75,0,0,1,10.71-10.71h35.71a10.75,10.75,0,0,1,10.71,10.71v46.43h42.86a42.87,42.87,0,0,1,42.86,42.86v32.14a10.75,10.75,0,0,1-10.71,10.71ZM517,440.92h-.07a.67.67,0,0,0-.13.16v.2h.37v-.18A.36.36,0,0,0,517,440.92ZM205.36,363.21a150,150,0,1,1,150-150A150,150,0,0,1,205.36,363.21ZM195.08,239.09l40.52,30.07h0a9.68,9.68,0,0,0,13.6-1.51l12.1-15.12h0a9.68,9.68,0,0,0-1.51-13.6l-35.08-25.71v-87.1a9.68,9.68,0,0,0-9.68-9.68H195.68a9.68,9.68,0,0,0-9.68,9.68V220.2A24.19,24.19,0,0,0,195.08,239.09ZM352,508.07a66.88,66.88,0,0,1,40.18-61.26v-5.71A124.77,124.77,0,0,1,586.64,337.57V303.79a10.75,10.75,0,0,0-10.71-10.71H377.73c-30.22,65-96.12,110.14-172.38,110.14q-9.47,0-18.71-.92V535.93a42.87,42.87,0,0,0,42.86,42.86H352Zm290,0V615.21A26.79,26.79,0,0,1,615.21,642H418.79A26.79,26.79,0,0,1,392,615.21V508.07a26.79,26.79,0,0,1,26.79-26.79h13.39V441.11a84.82,84.82,0,0,1,169.64,0v40.18h13.39A26.79,26.79,0,0,1,642,508.07Zm-97.91,52a26.7,26.7,0,1,0-26.7,26.7A26.7,26.7,0,0,0,544.09,560.11Zm13.09-119a40.18,40.18,0,1,0-80.36,0v40.18h80.36Z"/></svg>