<svg height="642" viewBox="0 0 642 642" width="642" xmlns="http://www.w3.org/2000/svg"><path d="m517.18 441.29h-.36v-.2c.034685-.059814.078553-.113805.13-.16h.05c.079919.036077.143923.100081.18.18zm32.45-264.29c0-26.509668-21.490332-48-48-48h-48v-48c0-8.836556-7.163444-16-16-16h-32c-8.836556 0-16 7.163444-16 16v48h-128v-48c0-8.836556-7.163444-16-16-16h-32c-8.836556 0-16 7.163444-16 16v48h-48c-26.509668 0-48 21.490332-48 48v48h448zm-197.63 400h-202.37c-26.509668 0-48-21.490332-48-48v-272h448v63.62c-23.240176-6.287108-47.802043-5.724542-70.73 1.62-1.637694-.813772-3.441268-1.238142-5.27-1.24h-40c-6.627417 0-12 5.372583-12 12v27.68c-19.038479 22.47252-29.475604 50.977034-29.45 80.43v5.71c-15.424664 6.746094-27.754753 19.036927-34.55 34.44v-20.26c0-6.627417-5.372583-12-12-12h-40c-6.627417 0-12 5.372583-12 12v40c0 6.627417 5.372583 12 12 12h40c2.256825-.002894 4.466219-.648023 6.37-1.86zm-58.37-204c0 6.627417 5.372583 12 12 12h40c6.627417 0 12-5.372583 12-12v-40c0-6.627417-5.372583-12-12-12h-40c-6.627417 0-12 5.372583-12 12zm-64 88c0-6.627417-5.372583-12-12-12h-40c-6.627417 0-12 5.372583-12 12v40c0 6.627417 5.372583 12 12 12h40c6.627417 0 12-5.372583 12-12zm0-128c0-6.627417-5.372583-12-12-12h-40c-6.627417 0-12 5.372583-12 12v40c0 6.627417 5.372583 12 12 12h40c6.627417 0 12-5.372583 12-12zm412.37 175.07v107.14c0 14.795708-11.994292 26.79-26.79 26.79h-196.42c-14.795708 0-26.79-11.994292-26.79-26.79v-107.14c0-14.795708 11.994292-26.79 26.79-26.79h13.39v-40.17c0-46.844792 37.975208-84.82 84.82-84.82s84.82 37.975208 84.82 84.82v40.18h13.39c14.791804 0 26.784479 11.988197 26.79 26.78zm-97.91 52c0-14.746003-11.953997-26.7-26.7-26.7s-26.7 11.953997-26.7 26.7 11.953997 26.7 26.7 26.7c14.730396 0 26.677932-11.929621 26.7-26.66zm13.09-119c0-22.190801-17.989199-40.18-40.18-40.18s-40.18 17.989199-40.18 40.18v40.18h80.36z"/></svg>