<svg height="642" viewBox="0 0 642 642" width="642" xmlns="http://www.w3.org/2000/svg"><path d="m101.65 529c0 26.509668 21.490332 48 48 48h352c26.509668 0 48-21.490332 48-48v-272h-448zm320-196c0-6.627417 5.372583-12 12-12h40c6.627417 0 12 5.372583 12 12v40c0 6.627417-5.372583 12-12 12h-40c-6.627417 0-12-5.372583-12-12zm0 128c0-6.627417 5.372583-12 12-12h40c6.627417 0 12 5.372583 12 12v40c0 6.627417-5.372583 12-12 12h-40c-6.627417 0-12-5.372583-12-12zm-128-128c0-6.627417 5.372583-12 12-12h40c6.627417 0 12 5.372583 12 12v40c0 6.627417-5.372583 12-12 12h-40c-6.627417 0-12-5.372583-12-12zm0 128c0-6.627417 5.372583-12 12-12h40c6.627417 0 12 5.372583 12 12v40c0 6.627417-5.372583 12-12 12h-40c-6.627417 0-12-5.372583-12-12zm-128-128c0-6.627417 5.372583-12 12-12h40c6.627417 0 12 5.372583 12 12v40c0 6.627417-5.372583 12-12 12h-40c-6.627417 0-12-5.372583-12-12zm0 128c0-6.627417 5.372583-12 12-12h40c6.627417 0 12 5.372583 12 12v40c0 6.627417-5.372583 12-12 12h-40c-6.627417 0-12-5.372583-12-12zm288-332v-48c0-8.836556-7.163444-16-16-16h-32c-8.836556 0-16 7.163444-16 16v48h-128v-48c0-8.836556-7.163444-16-16-16h-32c-8.836556 0-16 7.163444-16 16v48h-48c-26.509668 0-48 21.490332-48 48v48h448v-48c0-26.509668-21.490332-48-48-48z"/></svg>