<svg id="Layer_1" data-name="Layer 1" xmlns="http://www.w3.org/2000/svg" viewBox="0 0 642 642"><path d="M101.65,529a48,48,0,0,0,48,48h352a48,48,0,0,0,48-48V257h-448Zm320-196a12,12,0,0,1,12-12h40a12,12,0,0,1,12,12v40a12,12,0,0,1-12,12h-40a12,12,0,0,1-12-12Zm0,128a12,12,0,0,1,12-12h40a12,12,0,0,1,12,12v40a12,12,0,0,1-12,12h-40a12,12,0,0,1-12-12Zm-128-128a12,12,0,0,1,12-12h40a12,12,0,0,1,12,12v40a12,12,0,0,1-12,12h-40a12,12,0,0,1-12-12Zm0,128a12,12,0,0,1,12-12h40a12,12,0,0,1,12,12v40a12,12,0,0,1-12,12h-40a12,12,0,0,1-12-12Zm-128-128a12,12,0,0,1,12-12h40a12,12,0,0,1,12,12v40a12,12,0,0,1-12,12h-40a12,12,0,0,1-12-12Zm0,128a12,12,0,0,1,12-12h40a12,12,0,0,1,12,12v40a12,12,0,0,1-12,12h-40a12,12,0,0,1-12-12Zm336-332h-48V81a16,16,0,0,0-16-16h-32a16,16,0,0,0-16,16v48h-128V81a16,16,0,0,0-16-16h-32a16,16,0,0,0-16,16v48h-48a48,48,0,0,0-48,48v48h448V177A48,48,0,0,0,501.65,129Z"/></svg>