<svg height="642" viewBox="0 0 642 642" width="642" xmlns="http://www.w3.org/2000/svg"><path d="m517 356.29c46.844792 0 84.82 37.975208 84.82 84.82v40.18h13.39c14.791804 0 26.784479 11.988197 26.79 26.78v107.14c0 14.795708-11.994292 26.79-26.79 26.79h-196.42c-14.795708 0-26.79-11.994292-26.79-26.79v-107.14c0-14.795708 11.994292-26.79 26.79-26.79h13.39v-40.17c0-46.844792 37.975208-84.82 84.82-84.82zm.39 177.08c-14.746003 0-26.7 11.953997-26.7 26.7s11.953997 26.7 26.7 26.7c14.730396 0 26.677932-11.929621 26.7-26.66v-.04c0-14.746003-11.953997-26.7-26.7-26.7zm-126.29-468.3703548c6.371168-.0152687 12.487095 2.5030543 17 7.0003548l97.9 98c4.48024 4.483423 7 10.561733 7 16.9v129.46c-36.453835 1.219656-68.835925 17.96194-90.877388 43.754578l-.004627-109.920335c.019026-12.576653-4.880351-24.401751-13.775336-33.296736-8.894985-8.894986-20.720083-13.794363-33.315763-13.794363l-6.725941-.009513.009513 40.365158h6.716428c2.435418 0 4.033662 1.236736 4.775703 1.978777.723015.723015 1.959751 2.321259 1.959751 4.756677v161.441605c0 2.416392-1.236736 4.014635-1.969264 4.747164-.742042.742041-2.340285 1.978777-4.756677 1.978777h-6.735454l.009513 40.365158 5.484476-.000216c-13.439819 12.2691-21.550134 29.742784-21.789509 48.54628l-.005425.796989v68.93015h-199c-6.370083.015835-12.483869-2.507595-16.988212-7.011938-4.397096-4.397097-6.906487-10.327909-7.011938-16.53366v-464.454552c-.015835-6.3700828 2.507595-12.4838688 7.011938-16.9882117 4.397097-4.3970967 10.327909-6.9064872 16.53366-7.0121431zm-90.061317 292.8163098v134.537842l40.365158.009513v-134.537842zm215.961317 43.074045c-22.190801 0-40.18 17.989199-40.18 40.18v40.18h80.36v-40.18c0-22.190801-17.989199-40.18-40.18-40.18zm-242.875544-197.80398-6.725941.009514c-12.576653 0-24.401751 4.899377-33.296737 13.794362-8.894985 8.894985-13.784849 20.71057-13.794362 33.296736l.009513 161.451119c.019027 25.971454 21.129158 47.081585 47.081586 47.081585h6.735454v-40.355644l-6.744968-.009514c-3.691181 0-6.706914-3.015733-6.716427-6.716427l.009513-161.451119c-.009513-2.425905 1.227223-4.024148 1.959751-4.756676.742042-.742042 2.330772-1.969264 4.76619-1.969264l6.725941-.009514zm67.269872-33.623044h-40.355645v134.537842h40.355645z"/></svg>