<svg height="642" viewBox="0 0 642 642" width="642" xmlns="http://www.w3.org/2000/svg"><path d="m391.17 64.7398561c6.371168-.0154796 12.487095 2.5028434 17 7.0001439l97.9 98c4.48024 4.483423 7.00015 10.561733 7.00015 16.9v366.1c.015835 6.370083-2.507595 12.483869-7.011938 16.988212-4.397097 4.397096-10.327909 6.906487-16.53366 7.011938h-336.454552c-6.370083.015835-12.483869-2.507595-16.988212-7.011938-4.397096-4.397097-6.906487-10.327909-7.011938-16.53366v-464.454552c-.015835-6.3700828 2.507595-12.4838688 7.011938-16.9882117 4.397097-4.3970967 10.327909-6.9064872 16.53366-7.0119322zm-90.131317 293.0760989v134.537842l40.365158.009513v-134.537842zm67.262262-154.722324.009513 40.365158h6.716428c2.435418 0 4.033662 1.236736 4.775703 1.978777.723015.723015 1.959751 2.321259 1.959751 4.756677v161.441605c0 2.416392-1.236736 4.014635-1.969264 4.747164-.742042.742041-2.340285 1.978777-4.756677 1.978777h-6.735454l.009513 40.365158h6.716428c25.172333 0 47.100612-21.947306 47.100612-47.081585l-.009513-161.451119c.019026-12.576653-4.880351-24.401751-13.775336-33.296736-8.894985-8.894986-20.720083-13.794363-33.315763-13.794363zm-94.176489-.007611-6.725941.009514c-12.576653 0-24.401751 4.899377-33.296737 13.794362-8.894985 8.894985-13.784849 20.71057-13.794362 33.296736l.009513 161.451119c.019027 25.971454 21.129158 47.081585 47.081586 47.081585h6.735454v-40.355644l-6.744968-.009514c-3.691181 0-6.706914-3.015733-6.716427-6.716427l.009513-161.451119c-.009513-2.425905 1.227223-4.024148 1.959751-4.756676.742042-.742042 2.330772-1.969264 4.76619-1.969264l6.725941-.009514zm67.269872-33.623044h-40.355645v134.537842h40.355645z"/></svg>