<svg height="280" viewBox="0 0 280 280" width="280" xmlns="http://www.w3.org/2000/svg"><path d="m225.482866 155.391277c20.430751 0 36.993146 16.562396 36.993146 36.993147v17.523987h5.839876c6.451254 0 11.681704 5.228497 11.684112 11.679751v46.727726c0 6.452957-5.231155 11.684112-11.684112 11.684112h-85.666044c-6.452957 0-11.684112-5.231155-11.684112-11.684112v-46.727726c0-6.452957 5.231155-11.684112 11.684112-11.684112h5.839876v-17.519626c0-20.430751 16.562395-36.993147 36.993146-36.993147zm.170094 77.231153c-6.431279 0-11.64486 5.213581-11.64486 11.64486 0 6.431278 5.213581 11.64486 11.64486 11.64486 6.424471 0 11.635235-5.20295 11.644859-11.627415v-.017445c0-6.431279-5.213581-11.64486-11.644859-11.64486zm-55.079751-204.2736751c2.778702-.0066592 5.446085 1.0916748 7.41433 3.0531143l42.697819 42.741433c1.953999 1.955387 3.05296 4.6063631 3.05296 7.3707165v56.4623053c-15.899296.531952-30.022658 7.834261-39.635773 19.0839l-.001243-47.941239c.008298-5.485145-2.128502-10.6425088-6.007935-14.5219416-3.879433-3.8794329-9.036796-6.0162328-14.530239-6.0162328l-2.933432-.0041491.004149 17.6047415h2.929283c1.062176 0 1.759229.539387 2.082861.863018.315334.315334.85472 1.012387.85472 2.074564v70.410668c0 1.053878-.539386 1.750932-.858869 2.070414-.323632.323632-1.020685.863019-2.074563.863019h-2.937581l.004149 17.604741 2.391755.000114c-5.861467 5.350999-9.398586 12.971829-9.502985 21.172625l-.002366.347596v30.062994h-86.791277c-2.7782293.006906-5.444678-1.093656-7.4091889-3.058166-1.9177369-1.917737-3.0121751-4.504384-3.0581664-7.210942v-202.5658486c-.0069062-2.7782293 1.0936554-5.444678 3.0581664-7.4091889 1.9177368-1.9177369 4.5043838-3.0121751 7.210942-3.0582556zm-39.279079 127.7080481v58.67694l17.604742.004149v-58.67694zm94.188736 18.786188c-9.678231 0-17.523987 7.845756-17.523987 17.523987v17.523988h35.047975v-17.523988c0-9.678231-7.845757-17.523987-17.523988-17.523987zm-105.927029-86.2696488-2.933432.0041491c-5.485144 0-10.642508 2.1367999-14.521941 6.0162328-3.8794328 3.8794328-6.0120836 9.0326469-6.0162327 14.5219409l.0041491 70.414818c.0082983 11.327114 9.2152086 20.534025 20.5340246 20.534025h2.937581v-17.600593l-2.94173-.004149c-1.609861 0-2.925134-1.315273-2.929283-2.929283l.004149-70.414818c-.004149-1.058027.535237-1.75508.85472-2.074563.323632-.323632 1.016536-.858869 2.078712-.858869l2.933432-.004149zm29.338885-14.6642562h-17.600592v58.676941h17.600592z"/></svg>