<svg height="280" viewBox="0 0 280 280" width="280" xmlns="http://www.w3.org/2000/svg"><path d="m170.603738 28.2354513c2.778703-.0067513 5.446085 1.0915827 7.414331 3.0530222l42.697819 42.741433c1.953999 1.9553871 3.053025 4.6063632 3.053025 7.3707166v159.6697819c.006906 2.778229-1.093656 5.444678-3.058166 7.409189-1.917737 1.917737-4.504384 3.012175-7.210942 3.058166h-146.7403034c-2.7782293.006906-5.444678-1.093655-7.409189-3.058166-1.9177368-1.917737-3.012175-4.504384-3.0581663-7.210942v-202.5658483c-.0069062-2.7782292 1.0936554-5.4446779 3.0581663-7.4091889 1.9177369-1.9177368 4.5043839-3.0121751 7.2109421-3.0581635zm-39.309608 127.8213517v58.67694l17.604742.004149v-58.67694zm29.335566-67.4801415.004149 17.6047415h2.929283c1.062176 0 1.759229.539387 2.082861.863018.315334.315334.85472 1.012387.85472 2.074564v70.410668c0 1.053878-.539386 1.750932-.858869 2.070414-.323632.323632-1.020685.863019-2.074563.863019h-2.937581l.004149 17.604741h2.929283c10.978587 0 20.542323-9.572033 20.542323-20.534024l-.004149-70.414818c.008298-5.485145-2.128502-10.6425088-6.007935-14.5219416-3.879433-3.8794329-9.036796-6.0162328-14.530239-6.0162328zm-41.073859-.0033193-2.933432.0041491c-5.485144 0-10.642508 2.1367999-14.521941 6.0162328-3.8794328 3.8794328-6.0120836 9.0326469-6.0162327 14.5219409l.0041491 70.414818c.0082983 11.327114 9.2152086 20.534025 20.5340246 20.534025h2.937581v-17.600593l-2.94173-.004149c-1.609861 0-2.925134-1.315273-2.929283-2.929283l.004149-70.414818c-.004149-1.058027.535237-1.75508.85472-2.074563.323632-.323632 1.016536-.858869 2.078712-.858869l2.933432-.004149zm29.338885-14.6642562h-17.600592v58.676941h17.600592z"/></svg>