<svg height="642" viewBox="0 0 642 642" width="642" xmlns="http://www.w3.org/2000/svg"><path d="m513 193h-128v-128.0000723h6.1c6.371168-.0155512 12.487095 2.5027718 17 7.0000723l97.9 98c4.48024 4.483423 6.997883 10.561733 7 16.9zm-161 315.07c.023543-26.592068 15.79894-50.643855 40.18-61.26v-5.71c.1024-67.334754 53.522824-122.488401 120.82-124.74v-91.36h-136c-13.238877-.038445-23.961555-10.761123-24-24v-136.0000755h-200c-6.370083-.0159097-12.483869 2.5075209-16.988212 7.0118638s-7.027773 10.6181289-7.011863 16.9882117v464c-.01591 6.370083 2.50752 12.483869 7.011863 16.988212s10.618129 7.027773 16.988212 7.011863h199zm290 0v107.14c0 14.795708-11.994292 26.79-26.79 26.79h-196.42c-14.795708 0-26.79-11.994292-26.79-26.79v-107.14c0-14.795708 11.994292-26.79 26.79-26.79h13.39v-40.17c0-46.844792 37.975208-84.82 84.82-84.82s84.82 37.975208 84.82 84.82v40.18h13.39c14.791804 0 26.784479 11.988197 26.79 26.78zm-97.91 52c0-14.746003-11.953997-26.7-26.7-26.7s-26.7 11.953997-26.7 26.7 11.953997 26.7 26.7 26.7c14.730396 0 26.677932-11.929621 26.7-26.66zm13.09-119c0-22.190801-17.989199-40.18-40.18-40.18s-40.18 17.989199-40.18 40.18v40.18h80.36z"/></svg>