<svg height="280" viewBox="0 0 280 280" width="280" xmlns="http://www.w3.org/2000/svg"><path d="m153.986916 28.2354811v59.3146747c.016767 5.7739649 4.693325 10.4505222 10.46729 10.4672897h59.314674v143.0529595c.006939 2.778229-1.093623 5.444678-3.058133 7.409189-1.964511 1.964511-4.63096 3.065072-7.409189 3.058134h-146.5420564c-2.7782293.006938-5.444678-1.093623-7.409189-3.058134-1.9645109-1.964511-3.0650725-4.63096-3.0581337-7.409189v-202.3676013c-.0069388-2.7782292 1.0936228-5.4446779 3.0581337-7.4091889 1.964511-1.9645109 4.6309597-3.0650725 7.409189-3.0581337zm16.616822-.0000298c2.778703-.0067513 5.446085 1.0915827 7.414331 3.0530222l42.697819 42.741433c1.953999 1.9553871 3.052036 4.6063632 3.052959 7.3707166v2.6604361h-55.825545v-55.8256079z"/></svg>