<svg height="280" viewBox="0 0 280 280" width="280" xmlns="http://www.w3.org/2000/svg"><path d="m225.482866 155.391277c20.430751 0 36.993146 16.562396 36.993146 36.993147v17.523987h5.839876c6.451254 0 11.681704 5.228497 11.684112 11.679751v46.727726c0 6.452957-5.231155 11.684112-11.684112 11.684112h-85.666044c-6.452957 0-11.684112-5.231155-11.684112-11.684112v-46.727726c0-6.452957 5.231155-11.684112 11.684112-11.684112h5.839876v-17.519626c0-20.430751 16.562395-36.993147 36.993146-36.993147zm.170094 77.231153c-6.431279 0-11.64486 5.213581-11.64486 11.64486 0 6.431278 5.213581 11.64486 11.64486 11.64486 6.424471 0 11.635235-5.20295 11.644859-11.627415v-.017445c0-6.431279-5.213581-11.64486-11.644859-11.64486zm-71.696574-204.2735533v59.3146747c.016768 5.7739649 4.693325 10.4505222 10.46729 10.4672897h59.314642v39.8454829c-29.350794.982006-52.649421 25.036556-52.694081 54.403738v2.490343c-10.633484 4.630095-17.51372 15.11997-17.523988 26.717757v30.062961h-86.791277c-2.7782293.006939-5.444678-1.093623-7.4091889-3.058133-1.964511-1.964511-3.0650726-4.63096-3.0581338-7.409189v-202.3676016c-.0069388-2.7782293 1.0936228-5.444678 3.0581338-7.4091889 1.9645109-1.964511 4.6309596-3.0650726 7.4091889-3.0581338zm71.52648 146.4941143c-9.678231 0-17.523987 7.845756-17.523987 17.523987v17.523988h35.047975v-17.523988c0-9.678231-7.845757-17.523987-17.523988-17.523987zm-54.909657-146.4941129c2.778702-.0067824 5.446085 1.0915516 7.41433 3.0529911l42.697819 42.741433c1.953999 1.955387 3.052037 4.6063631 3.05296 7.3707165v2.6604361h-55.825545v-55.8255767z"/></svg>