<svg id="Layer_1" data-name="Layer 1" xmlns="http://www.w3.org/2000/svg" viewBox="0 0 642 642"><path d="M513,193H385V65h6.1a24,24,0,0,1,17,7L506,170a23.92,23.92,0,0,1,7,16.9ZM352,508.07a66.88,66.88,0,0,1,40.18-61.26v-5.71A125,125,0,0,1,513,316.36V225H377a24.07,24.07,0,0,1-24-24V65H153a23.94,23.94,0,0,0-24,24V553a23.94,23.94,0,0,0,24,24H352Zm290,0V615.21A26.79,26.79,0,0,1,615.21,642H418.79A26.79,26.79,0,0,1,392,615.21V508.07a26.79,26.79,0,0,1,26.79-26.79h13.39V441.11a84.82,84.82,0,0,1,169.64,0v40.18h13.39A26.79,26.79,0,0,1,642,508.07Zm-97.91,52a26.7,26.7,0,1,0-26.7,26.7A26.7,26.7,0,0,0,544.09,560.11Zm13.09-119a40.18,40.18,0,1,0-80.36,0v40.18h80.36Z"/></svg>