<svg height="642" viewBox="0 0 642 642" width="642" xmlns="http://www.w3.org/2000/svg"><path d="m353.07 200.74v-136.0000755h-200c-6.370083-.0159097-12.483869 2.5075209-16.988212 7.0118638s-7.027773 10.6181289-7.011863 16.9882117v464c-.01591 6.370083 2.50752 12.483869 7.011863 16.988212s10.618129 7.027773 16.988212 7.011863h336c6.370083.01591 12.483869-2.50752 16.988212-7.011863s7.027773-10.618129 7.011863-16.988212v-328h-136.000075c-13.238877-.038445-23.961555-10.761123-24-24zm160-8h-128v-128.0001439h6.1c6.371168-.0154796 12.487095 2.5028434 17 7.0001439l97.9 98c4.48024 4.483423 6.997883 10.561733 7 16.9z"/></svg>