<svg height="642" viewBox="0 0 642 642" width="642" xmlns="http://www.w3.org/2000/svg"><path d="m178.28 331.7-104.9-81.07c-13.79 17.3-26.48 35.59-36.72 55.59-4.6392709 9.176998-4.6392709 20.013002 0 29.19 54.23 105.81 161.59 177.4 284.52 177.4 26.91 0 52.87-4 77.89-10.46l-51.89-40.15c-8.569761 1.655456-17.272183 2.529046-26 2.61-75.85 0-137.25-58.71-142.9-133.11zm456.72 191.21-110.55-85.44c33.581708-28.300934 61.200593-62.997053 81.25-102.07 4.639271-9.176998 4.639271-20.013002 0-29.19-54.23-105.81-161.59-177.4-284.52-177.4-51.485002.062388-102.133833 13.023703-147.32 37.7l-127.22-98.33c-3.3517141-2.6060636-7.6017903-3.7731305-11.814367-3.2442139s-8.0422149 2.7104445-10.645633 6.0642139l-19.63 25.26c-5.42252309 6.975607-4.16453325 17.026096 2.81 22.45l588.36 454.73c6.972985 5.42478 17.023076 4.171316 22.45-2.8l19.64-25.27c2.607161-3.350474 3.775884-7.599744 3.248852-11.81225-.527032-4.212505-2.706608-8.042865-6.058852-10.64775zm-183.72-142-39.28-30.38c11.585126-33.497627 3.507362-70.660188-20.937742-96.326179-24.445103-25.66599-61.170198-35.543924-95.192258-25.603821 6.030108 8.171014 9.292014 18.054837 9.31 28.21-.149185 3.379316-.665556 6.732374-1.54 10l-73.64-56.89c25.56982-21.367938 57.827277-33.085376 91.15-33.110022 38.169959-.021201 74.785006 15.121405 101.790246 42.096639s42.188543 63.573424 42.209754 101.743383v.16c0 21.63-5.29 41.79-13.9 60.11z"/></svg>