<svg id="Layer_1" data-name="Layer 1" xmlns="http://www.w3.org/2000/svg" viewBox="0 0 642 642"><path d="M517.18,441.11v.18h-.37v-.2a.68.68,0,0,1,.13-.16H517A.36.36,0,0,1,517.18,441.11ZM352,508.07a66.37,66.37,0,0,1,9.57-34.4L347,462.39A144.15,144.15,0,0,1,321,465c-75.85,0-137.25-58.71-142.9-133.11L73.2,250.82c-13.79,17.3-26.48,35.59-36.72,55.59a32.35,32.35,0,0,0,0,29.19C90.71,441.41,198.07,513,321,513a283,283,0,0,0,31-1.74Zm70.84-148.81-11-8.54A94.76,94.76,0,0,0,295.69,228.79,47.65,47.65,0,0,1,305,257a46.63,46.63,0,0,1-1.54,10l-73.61-56.89A142.31,142.31,0,0,1,321,177,143.92,143.92,0,0,1,465,320.84V321c0,2.26-.07,4.5-.18,6.73A124.61,124.61,0,0,1,599.2,347.26c2.17-3.85,4.29-7.73,6.31-11.67a32.35,32.35,0,0,0,0-29.19C551.29,200.59,443.93,129,321,129a308.15,308.15,0,0,0-147.32,37.7L46.46,68.37A16,16,0,0,0,24,71.17h0L4.37,96.45A16,16,0,0,0,7.18,118.9L394.31,418.11A124.47,124.47,0,0,1,422.84,359.26ZM642,508.07V615.21A26.79,26.79,0,0,1,615.21,642H418.79A26.79,26.79,0,0,1,392,615.21V508.07a26.79,26.79,0,0,1,26.79-26.79h13.39V441.11a84.82,84.82,0,0,1,169.64,0v40.18h13.39A26.79,26.79,0,0,1,642,508.07Zm-97.91,52a26.7,26.7,0,1,0-26.7,26.7A26.7,26.7,0,0,0,544.09,560.11Zm13.09-119a40.18,40.18,0,1,0-80.36,0v40.18h80.36Z"/></svg>