<svg height="642" viewBox="0 0 642 642" width="642" xmlns="http://www.w3.org/2000/svg"><path d="m517.18 441.11v.18h-.37v-.2c.03495-.05963.078787-.113583.13-.16h.06c.079919.036077.143923.100081.18.18zm-165.18 66.96c-.012278-12.125582 3.297507-24.022827 9.57-34.4l-14.57-11.28c-8.569777 1.655347-17.272189 2.528936-26 2.61-75.85 0-137.25-58.71-142.9-133.11l-104.9-81.07c-13.79 17.3-26.48 35.59-36.72 55.59-4.6392709 9.176998-4.6392709 20.013002 0 29.19 54.23 105.81 161.59 177.4 284.52 177.4 10.357389-.012285 20.706293-.593159 31-1.74zm59.84-157.35c11.589325-33.501894 3.509926-70.670781-20.941113-96.338583s-61.184073-35.541359-95.208887-25.591417c6.030108 8.171014 9.292014 18.054837 9.31 28.21-.149106 3.379324-.665479 6.73239-1.54 10l-73.61-56.89c25.56982-21.367938 57.827277-33.085376 91.15-33.11 38.169959-.021223 74.785006 15.121383 101.790246 42.096617s42.188543 63.573424 42.209754 101.743383v.16c0 2.26-.07 4.5-.18 6.73 44.717757-20.611803 97.379494-12.958256 134.38 19.53 2.17-3.85 4.29-7.73 6.31-11.67 4.639271-9.176998 4.639271-20.013002 0-29.19-54.22-105.81-161.58-177.4-284.51-177.4-51.485002.062388-102.133833 13.023703-147.32 37.7l-127.22-98.33c-3.3492342-2.6082596-7.5976977-3.7786394-11.8101325-3.2534917-4.2124349.5251477-8.0435158 2.7027726-10.6498675 6.0534917l-19.63 25.28c-5.42252309 6.975607-4.16453325 17.026096 2.81 22.45l387.13 299.21c4.094203-21.809079 13.944236-42.127144 28.53-58.85zm230.16 157.35v107.14c0 14.795708-11.994292 26.79-26.79 26.79h-196.42c-14.795708 0-26.79-11.994292-26.79-26.79v-107.14c0-14.795708 11.994292-26.79 26.79-26.79h13.39v-40.17c0-46.844792 37.975208-84.82 84.82-84.82s84.82 37.975208 84.82 84.82v40.18h13.39c14.791804 0 26.784479 11.988197 26.79 26.78zm-97.91 52c0-14.746003-11.953997-26.7-26.7-26.7s-26.7 11.953997-26.7 26.7 11.953997 26.7 26.7 26.7c14.730396 0 26.677932-11.929621 26.7-26.66zm13.09-119c0-22.190801-17.989199-40.18-40.18-40.18s-40.18 17.989199-40.18 40.18v40.18h80.36z"/></svg>