<svg id="Layer_1" data-name="Layer 1" xmlns="http://www.w3.org/2000/svg" viewBox="0 0 642 642"><path d="M321.18,464.81c-75.85,0-137.25-58.71-142.9-133.11L73.38,250.63c-13.79,17.3-26.48,35.59-36.72,55.59a32.35,32.35,0,0,0,0,29.19c54.23,105.81,161.59,177.4,284.52,177.4,26.91,0,52.87-4,77.89-10.46L347.18,462.2A144.13,144.13,0,0,1,321.18,464.81ZM635,522.91,524.45,437.47A331.25,331.25,0,0,0,605.7,335.4a32.35,32.35,0,0,0,0-29.19c-54.23-105.81-161.59-177.4-284.52-177.4a308.15,308.15,0,0,0-147.32,37.7L46.64,68.18A16,16,0,0,0,24.18,71h0L4.55,96.26a16,16,0,0,0,2.81,22.45L595.72,573.44a16,16,0,0,0,22.45-2.8h0l19.64-25.27A16,16,0,0,0,635,522.91Zm-183.72-142L412,350.53A94.76,94.76,0,0,0,295.87,228.6a47.65,47.65,0,0,1,9.31,28.21,46.64,46.64,0,0,1-1.54,10L230,209.92a142.31,142.31,0,0,1,91.15-33.11,143.92,143.92,0,0,1,144,143.84q0,.08,0,.16c0,21.63-5.29,41.79-13.9,60.11Z"/></svg>