<svg height="280" viewBox="0 0 280 280" width="280" xmlns="http://www.w3.org/2000/svg"><path d="m15.1887496 28.3209036c1.8372608-.2306801 3.6908766.278321 5.1526834 1.4149219l55.4853583 42.8853583c19.7073625-10.7622479 41.7971957-16.4151579 64.2517137-16.4423676 53.61433 0 100.438006 31.223053 124.089719 77.3707168 2.023358 4.002429 2.023358 8.728412 0 12.730841-8.744289 17.041161-20.789909 32.173424-35.436137 44.516511l48.214953 37.263551c1.462038 1.136087 2.412632 2.806649 2.642491 4.643879.229858 1.83723-.279866 3.690494-1.416945 5.15176l-8.565732 11.021184c-2.366883 3.040449-6.7501 3.587131-9.791278 1.221183l-256.60560715-198.3246102c-3.04185251-2.3655658-3.59050852-6.7489563-1.22554517-9.7912773l8.56137072-11.0168224c1.1354471-1.4627032 2.8056943-2.4141484 4.6429552-2.6448285zm16.8149887 80.9881304 45.7507788 35.357633c2.4641745 32.448598 29.2429909 58.054205 62.3239879 58.054205 3.806524-.035307 7.601973-.416312 11.339564-1.138317l22.631152 17.510903c-10.912149 2.817445-22.234268 4.561994-33.970716 4.561994-53.6143305 0-100.4380066-31.223053-124.08972-77.370717-2.023358-4.002429-2.023358-8.728412 0-12.730841 4.4660437-8.722741 10.0006231-16.699688 16.0149533-24.24486zm108.0616827-32.1956481c-14.533275.0107493-28.601948 5.1211581-39.753895 14.4405082l32.117134 24.8118379c.381378-1.425133.606586-2.887526.671652-4.361371-.007845-4.429043-1.430483-8.739744-4.060437-12.3034264 14.838282-4.3352473 30.855457-.0271144 41.516873 11.1667754 10.661416 11.19389 14.184428 27.401861 9.131726 42.011418l17.122816 13.243387.313867-.676003c3.461886-7.57657 5.614729-15.862441 5.738372-24.722354l.00563-.807024v-.069782c-.009251-16.647334-6.631252-32.609162-18.409239-44.3740611-11.777986-11.7648995-27.747165-18.3691515-44.394499-18.359905z"/></svg>