<svg height="280" viewBox="0 0 280 280" width="280" xmlns="http://www.w3.org/2000/svg"><path d="m225.482866 155.391277c20.430751 0 36.993146 16.562396 36.993146 36.993147v17.523987h5.839876c6.451254 0 11.681704 5.228497 11.684112 11.679751v46.727726c0 6.452957-5.231155 11.684112-11.684112 11.684112h-85.666044c-6.452957 0-11.684112-5.231155-11.684112-11.684112v-46.727726c0-6.452957 5.231155-11.684112 11.684112-11.684112h5.839876v-17.519626c0-20.430751 16.562395-36.993147 36.993146-36.993147zm.170094 77.231153c-6.431279 0-11.64486 5.213581-11.64486 11.64486 0 6.431278 5.213581 11.64486 11.64486 11.64486 6.424471 0 11.635235-5.20295 11.644859-11.627415v-.017445c0-6.431279-5.213581-11.64486-11.644859-11.64486zm-193.7277264-123.23053 45.7507789 35.357633c2.4641744 32.448598 29.2429905 58.054205 62.3239875 58.054205 3.806522-.035355 7.601966-.416359 11.339564-1.138317l6.354517 4.919626c-2.735667 4.52587-4.179187 9.714699-4.173832 15.003115v1.391277c-4.489467.50018-9.003008.753521-13.520249.758879-53.6143302 0-100.4380062-31.223053-124.0897196-77.370717-2.023358-4.002429-2.023358-8.728412 0-12.730841 4.4660436-8.722741 10.000623-16.699688 16.0149532-24.24486zm193.5576324 65.451091c-9.678231 0-17.523987 7.845756-17.523987 17.523987v17.523988h35.047975v-17.523988c0-9.678231-7.845757-17.523987-17.523988-17.523987zm-210.3707743-146.4432678c1.837199-.2290363 3.6901115.2814097 5.1508366 1.4189684l55.4853583 42.8853582c19.7073625-10.7622478 41.7971954-16.4151578 64.2517134-16.4423676 53.61433 0 100.438006 31.223053 124.085358 77.3707168 2.023358 4.002429 2.023358 8.728412 0 12.730841-.880997 1.71838-1.805607 3.410592-2.752025 5.08972-16.137292-14.169333-39.105028-17.507329-58.608099-8.517758.047975-.972585.078504-1.949532.078504-2.935202v-.069782c-.009251-16.647334-6.631252-32.609162-18.409238-44.3740611-11.777986-11.7648995-27.747166-18.3691514-44.3945-18.3598952-14.533275.0107396-28.601948 5.1211483-39.753894 14.4404984l32.10405 24.8118379c.381411-1.425126.60662-2.887522.671651-4.361371-.007844-4.429043-1.430483-8.739744-4.060436-12.3034264 14.839483-4.3395385 30.86012-.0333142 41.524125 11.1613654 10.664004 11.19468 14.18773 27.40541 9.133196 42.016828l4.797507 3.72461c-6.361392 7.293458-10.657356 16.154919-12.44299 25.666667l-168.84174483-130.4965732c-3.0418525-2.3655658-3.59050851-6.7489563-1.22554517-9.7912772l8.5613707-11.0255452c1.1367266-1.4613728 2.807603-2.4111158 4.644802-2.6401522z"/></svg>