<svg height="642" viewBox="0 0 642 642" width="642" xmlns="http://www.w3.org/2000/svg"><path d="m517.18 441.29h-.36v-.2c.034685-.059814.078553-.113805.13-.16h.05c.074186.042345.130897.10969.16.19zm-163.44 51.63c4.834269-20.567224 19.078449-37.65357 38.44-46.11v-5.71c-.011603-14.464709 2.502831-28.820333 7.43-42.42-3.620968 2.172758-7.095131 4.581288-10.4 7.21l-102.49-64.05c3.034597-13.727628 3.034597-27.952372 0-41.68l102.49-64.06c36.530241 29.032153 88.661266 27.532375 123.461993-3.551928 34.800726-31.084303 42.153522-82.715973 17.413637-122.279373-24.739885-39.5633991-74.379809-55.5562387-117.562317-37.8758685s-67.353125 63.8937265-57.243313 109.4471695l-102.49 64.06c-39.286222-31.276918-96.038663-26.992633-130.184171 9.827703-34.145508 36.820335-34.145508 93.734259 0 130.554594 34.145508 36.820336 90.897949 41.104621 130.184171 9.827703l102.49 64.05c-1.516049 6.843009-2.280577 13.831065-2.28 20.84.001367 3.984768.248503 7.965659.74 11.92zm288.26 122.29c0 14.795708-11.994292 26.79-26.79 26.79h-196.42c-14.795708 0-26.79-11.994292-26.79-26.79v-107.14c0-14.795708 11.994292-26.79 26.79-26.79h13.39v-40.17c0-46.844792 37.975208-84.82 84.82-84.82s84.82 37.975208 84.82 84.82v40.18h13.39c14.791804 0 26.784479 11.988197 26.79 26.78zm-97.91-55.14c0-14.746003-11.953997-26.7-26.7-26.7s-26.7 11.953997-26.7 26.7 11.953997 26.7 26.7 26.7c14.730396 0 26.677932-11.929621 26.7-26.66zm13.09-119c0-22.190801-17.989199-40.18-40.18-40.18s-40.18 17.989199-40.18 40.18v40.18h80.36z"/></svg>