<svg id="Layer_1" data-name="Layer 1" xmlns="http://www.w3.org/2000/svg" viewBox="0 0 642 642"><path d="M517.18,441.29h-.36v-.2a.66.66,0,0,1,.13-.16H517a.36.36,0,0,1,.16.19ZM353,481a96.91,96.91,0,0,0,.74,11.92,67.06,67.06,0,0,1,38.44-46.11v-5.71a124.24,124.24,0,0,1,7.43-42.42,96.32,96.32,0,0,0-10.4,7.21L286.72,341.84a96.55,96.55,0,0,0,0-41.68L389.21,236.1a95.83,95.83,0,1,0-33.93-54.26L252.79,245.9a96,96,0,1,0,0,150.21l102.49,64.05A96.31,96.31,0,0,0,353,481Zm289,27.07V615.21A26.79,26.79,0,0,1,615.21,642H418.79A26.79,26.79,0,0,1,392,615.21V508.07a26.79,26.79,0,0,1,26.79-26.79h13.39V441.11a84.82,84.82,0,0,1,169.64,0v40.18h13.39A26.79,26.79,0,0,1,642,508.07Zm-97.91,52a26.7,26.7,0,1,0-26.7,26.7A26.7,26.7,0,0,0,544.09,560.11Zm13.09-119a40.18,40.18,0,1,0-80.36,0v40.18h80.36Z"/></svg>