<svg height="280" viewBox="0 0 280 280" width="280" xmlns="http://www.w3.org/2000/svg"><path d="m195.856075 167.912773c-9.475046-.014847-18.672462 3.198634-26.076636 9.110903l-44.699688-27.934579c1.3235-5.987128 1.3235-12.191066 0-18.178194l44.699688-27.93894c15.932193 12.661998 38.668465 12.007889 53.846352-1.549128 15.177887-13.5570165 18.384714-36.0755023 7.594733-53.3305674-10.789981-17.2550652-32.439792-24.2301354-51.273285-16.5190705-18.833492 7.7110649-29.375194 27.8664228-24.965931 47.733968l-44.699688 27.9389409c-17.1341777-13.6410234-41.8860215-11.7724878-56.7781433 4.286225-14.8921218 16.058714-14.8921218 40.880986 0 56.939699s39.6439656 17.927249 56.7781433 4.286225l44.699688 27.93458c-3.857876 17.347614 3.655862 35.240666 18.74251 44.633003s34.458887 8.237408 48.322738-2.880891c13.863851-11.1183 19.198437-29.777339 13.306763-46.543707-5.891674-16.766369-21.725836-27.986745-39.497244-27.988467z"/></svg>