<svg height="642" viewBox="0 0 642 642" width="642" xmlns="http://www.w3.org/2000/svg"><path d="m449.07 385c-21.724927-.034041-42.813287 7.334012-59.79 20.89l-102.49-64.05c3.034597-13.727628 3.034597-27.952372 0-41.68l102.49-64.06c36.530241 29.032153 88.661266 27.532375 123.461993-3.551928 34.800726-31.084303 42.153522-82.715973 17.413637-122.279373-24.739885-39.5633991-74.379809-55.5562387-117.562317-37.8758685s-67.353125 63.8937265-57.243313 109.4471695l-102.49 64.06c-39.286222-31.276918-96.038663-26.992633-130.184171 9.827703-34.145508 36.820335-34.145508 93.734259 0 130.554594 34.145508 36.820336 90.897949 41.104621 130.184171 9.827703l102.49 64.05c-8.845559 39.775602 8.382368 80.801812 42.973896 102.337099 34.591529 21.535287 79.009307 18.887201 110.797136-6.605471 31.787829-25.492673 44.019273-68.275183 30.510506-106.718071s-49.814239-64.169608-90.561538-64.173557z"/></svg>