<svg height="280" viewBox="0 0 280 280" width="280" xmlns="http://www.w3.org/2000/svg"><path d="m225.482866 155.391277c20.430751 0 36.993146 16.562396 36.993146 36.993147v17.523987h5.839876c6.451254 0 11.681704 5.228497 11.684112 11.679751v46.727726c0 6.452957-5.231155 11.684112-11.684112 11.684112h-85.666044c-6.452957 0-11.684112-5.231155-11.684112-11.684112v-46.727726c0-6.452957 5.231155-11.684112 11.684112-11.684112h5.839876v-17.519626c0-20.430751 16.562395-36.993147 36.993146-36.993147zm.170094 77.231153c-6.431279 0-11.64486 5.213581-11.64486 11.64486 0 6.431278 5.213581 11.64486 11.64486 11.64486 6.424471 0 11.635235-5.20295 11.644859-11.627415v-.017445c0-6.431279-5.213581-11.64486-11.644859-11.64486zm-45.73625-201.0492329c18.833492-7.7110649 40.483304-.7359947 51.273284 16.5190705 10.789981 17.2550651 7.583155 39.7735509-7.594732 53.3305674-15.177888 13.557017-37.91416 14.211126-53.846352 1.549128l-44.699689 27.93894c1.323501 5.987128 1.323501 12.191066 0 18.178194l44.699689 27.934579c1.441376-1.146479 2.956587-2.196928 4.535825-3.144548-2.148921 5.931318-3.245559 12.192339-3.240498 18.500934v2.490343c-8.44429 3.688163-14.656705 11.140152-16.765109 20.11028-.21436-1.724634-.322145-3.460848-.322742-5.198754-.000251-3.056856.333188-6.104606.994393-9.089096l-44.699689-27.93458c-17.1341773 13.641024-41.8860211 11.772488-56.7781429-4.286225s-14.8921218-40.880985 0-56.939699c14.8921218-16.0587128 39.6439656-17.9272484 56.7781429-4.286225l44.699689-27.9389409c-4.409264-19.8675452 6.132438-40.0229031 24.965931-47.733968zm45.566156 143.2697939c-9.678231 0-17.523987 7.845756-17.523987 17.523987v17.523988h35.047975v-17.523988c0-9.678231-7.845757-17.523987-17.523988-17.523987z"/></svg>