<svg height="642" viewBox="0 0 642 642" width="642" xmlns="http://www.w3.org/2000/svg"><path d="m555.666667 449c11.7824 0 21.333333 9.550933 21.333333 21.333333v64c0 11.7824-9.550933 21.333334-21.333333 21.333334h-234.666667c-11.7824 0-21.333333-9.550934-21.333333-21.333334v-64c0-11.7824 9.550933-21.333333 21.333333-21.333333zm-362.666667-213.333333v64h64v64h-64v89.6c0 9.425066 7.64096 17.066666 17.066667 17.066666h46.933333v64h-64c-35.346133 0-64-28.6528-64-64v-234.666666zm362.666667 42.666666c11.7824 0 21.333333 9.550934 21.333333 21.333334v64c0 11.7824-9.550933 21.333333-21.333333 21.333333h-234.666667c-11.7824 0-21.333333-9.550933-21.333333-21.333333v-64c0-11.7824 9.550933-21.333334 21.333333-21.333334zm0-191.9999997c11.7824 0 21.333333 9.55136 21.333333 21.3333337v64c0 11.781973-9.550933 21.333333-21.333333 21.333333h-469.3333337c-11.7819733 0-21.3333333-9.55136-21.3333333-21.333333v-64c0-11.7819737 9.55136-21.3333337 21.3333333-21.3333337z" fill-rule="evenodd"/></svg>