<svg height="280" viewBox="0 0 280 280" width="280" xmlns="http://www.w3.org/2000/svg"><path d="m250 200c5.523 0 10 4.477 10 10v30c0 5.523-4.477 10-10 10h-110c-5.523 0-10-4.477-10-10v-30c0-5.523 4.477-10 10-10zm-170-100v30h30v30h-30v42c0 4.418 3.5817 8 8 8h22v30h-30c-16.5685 0-30-13.431-30-30v-110zm170 20c5.523 0 10 4.477 10 10v30c0 5.523-4.477 10-10 10h-110c-5.523 0-10-4.477-10-10v-30c0-5.523 4.477-10 10-10zm0-90c5.523 0 10 4.4772 10 10v30c0 5.5228-4.477 10-10 10h-220c-5.5228 0-10-4.4772-10-10v-30c0-5.5228 4.4772-10 10-10z" fill-rule="evenodd"/></svg>