<svg height="642" viewBox="0 0 642 642" width="642" xmlns="http://www.w3.org/2000/svg"><path d="m306 66.0192379c9.282032-5.3589839 20.717968-5.3589839 30 0l198.319817 114.5000001c9.282033 5.358984 15 15.262794 15 25.980762v229c0 10.717968-5.717967 20.621778-15 25.980762l-198.319817 114.5c-9.282032 5.358984-20.717968 5.358984-30 0l-198.319817-114.5c-9.2820328-5.358984-15.0000005-15.262794-15.0000005-25.980762v-229c0-10.717968 5.7179677-20.621778 15.0000005-25.980762zm31 109.9807621h-30l-.313828.003218c-8.139368.167051-14.686148 6.817348-14.686172 14.996738l-.001 78.038044-67.582309-39.018766c-7.174389-4.14213-16.34824-1.684002-20.490375 5.490385l-15 25.980762-.166513.295945c-3.907387 7.128831-1.419221 16.109025 5.656876 20.194425l67.582321 39.019249-67.582321 39.019249c-7.174376 4.142142-9.632494 13.315988-5.490363 20.49037l15 25.980762.173041.29218c4.220083 6.948356 13.241325 9.283614 20.317442 5.198143l67.582201-39.020704.001 78.040044c.000024 8.284254 6.715746 14.999956 15 14.999956h30l.313829-.003218c8.139402-.167052 14.686195-6.817402 14.686171-14.996826l-.001-78.039956 67.584239 39.020725c7.174394 4.142185 16.348295 1.68407 20.490445-5.490344l15-25.980762.166513-.295944c3.907372-7.128804 1.419242-16.108963-5.656805-20.194386l-67.584392-39.020289 67.584175-39.018165c7.17448-4.142094 9.632673-13.316015 5.490509-20.490454l-15-25.980762-.173039-.292177c-4.220049-6.948303-13.241191-9.28359-20.317298-5.19823l-67.584347 39.018788.001-78.037956c.000024-8.284289-6.715712-15.000044-15-15.000044z"/></svg>