<svg height="280" viewBox="0 0 280 280" width="280" xmlns="http://www.w3.org/2000/svg"><path d="m220.685358 77.9376947c10.964486 0 19.713396 3.0035306 26.246729 9.0105919 6.533334 6.0070613 9.8 14.4928344 9.8 25.4573204.029673 5.374091-1.436648 10.650431-4.234891 15.23863-2.792084 4.640477-6.817258 8.415021-11.627414 10.903427 5.646521 2.326064 9.965732 5.938733 12.957632 10.838006 2.991901 4.899273 4.486397 10.727518 4.483494 17.484735 0 11.01973-3.529807 19.68432-10.589413 25.993769-7.059605 6.30945-16.100727 9.477259-27.123364 9.503427-9.690966 0-18.024092-2.975908-24.999377-8.927726-6.975286-5.951817-10.319003-14.465212-10.031153-25.540187l.165732-.497196h22.923365c0 4.652129 1.218276 8.500312 3.654828 11.544548 2.436553 3.044237 5.454621 4.566356 9.054206 4.566356 4.096781 0 7.350364-1.536657 9.760748-4.609969 2.410384-3.073313 3.614122-7.184632 3.611215-12.333957 0-6.422845-1.176117-11.11568-3.528349-14.078504-2.352233-2.962825-5.826791-4.444237-10.423676-4.444237h-11.775701l-.039252-18.282866h11.7757c4.207269 0 7.335826-1.498858 9.38567-4.496573 2.049844-2.997716 3.067498-7.188993 3.05296-12.573832 0-4.719003-1.017653-8.548287-3.05296-11.487851-2.035306-2.9395634-4.970509-4.4107991-8.805607-4.4137067-3.102389 0-5.774455 1.3084112-8.0162 3.9252337-2.241744 2.616822-3.362616 6.030322-3.362616 10.240498h-22.818692l-.165732-.497196c-.290758-9.563032 2.850883-17.3727932 9.424922-23.4292834 6.574039-6.0564901 14.673105-9.0876427 24.297196-9.0934579zm-152.5738315 1.6791277v121.0062306h-23.5862929v-96.272897l-22.4261682.497196v-17.0093458zm68.5171335-1.7009345c11.072067 0 19.709035 3.2114226 25.910904 9.6342679 6.201869 6.4228452 9.30135 15.1833852 9.298442 26.2816202.056631 7.196701-1.730102 14.288079-5.190031 20.598754-3.460021 6.312357-9.231568 14.562616-17.314642 24.750778l-15.779439 22.591901h40.861682l.004362 18.849844h-71.426169v-16.041122l32.971963-41.77757c4.361371-6.210592 7.503012-11.618691 9.424922-16.224299 1.921911-4.605607 2.877051-8.793977 2.865421-12.565109 0-5.158047-.9973-9.318795-2.991901-12.482243-1.9946-3.1634473-4.873104-4.7437173-8.635514-4.7408097-3.875804 0-6.851713 1.9175493-8.927725 5.7526477-2.076013 3.835099-3.114019 8.865213-3.114019 15.090343h-23.006231l-.165732-.436137c-.220976-10.964486 2.879959-20.2527519 9.302804-27.8647976s15.059813-11.4180685 25.910903-11.4180685z"/></svg>