<svg height="642" viewBox="0 0 642 642" width="642" xmlns="http://www.w3.org/2000/svg"><path d="m113 196.81h416c8.836556 0 16-7.163444 16-16v-40c0-8.836556-7.163444-16-16-16h-416c-8.836556 0-16 7.163444-16 16v40c0 8.836556 7.163444 16 16 16zm0 160h416c8.836556 0 16-7.163444 16-16v-40c0-8.836556-7.163444-16-16-16h-416c-8.836556 0-16 7.163444-16 16v40c0 8.836556 7.163444 16 16 16zm0 160h416c8.836556 0 16-7.163444 16-16v-40c0-8.836556-7.163444-16-16-16h-416c-8.836556 0-16 7.163444-16 16v40c0 8.836556 7.163444 16 16 16z"/></svg>