<svg id="Layer_1" data-name="Layer 1" xmlns="http://www.w3.org/2000/svg" viewBox="0 0 642 642"><path d="M97,181V141a16,16,0,0,1,16-16H529a16,16,0,0,1,16,16v40a16,16,0,0,1-16,16H113A16,16,0,0,1,97,181Zm16,176H424.85A124.78,124.78,0,0,1,545,319.45V301a16,16,0,0,0-16-16H113a16,16,0,0,0-16,16v40A16,16,0,0,0,113,357ZM352,508.07a66.88,66.88,0,0,1,40.18-61.26V445H113a16,16,0,0,0-16,16v40a16,16,0,0,0,16,16H352Zm290,0V615.21A26.79,26.79,0,0,1,615.21,642H418.79A26.79,26.79,0,0,1,392,615.21V508.07a26.79,26.79,0,0,1,26.79-26.79h13.39V441.11a84.82,84.82,0,0,1,169.64,0v40.18h13.39A26.79,26.79,0,0,1,642,508.07Zm-97.91,52a26.7,26.7,0,1,0-26.7,26.7A26.7,26.7,0,0,0,544.09,560.11Zm13.09-119a40.18,40.18,0,1,0-80.36,0v40.18h80.36Z"/></svg>