<svg id="Layer_1" data-name="Layer 1" xmlns="http://www.w3.org/2000/svg" viewBox="0 0 642 642"><path d="M156.17,460H102.09V239.26L50.67,240.4v-39l105.5-18.85Z"/><path d="M399.92,460H236.15V423.22l75.6-95.79q15-21.36,21.61-37.2t6.57-28.81q0-17.74-6.86-28.62t-19.8-10.87q-13.33,0-20.47,13.19t-7.14,34.6H232.91l-.38-1q-.76-37.71,21.33-63.89t59.41-26.18q38.08,0,59.41,22.09T394,261a96.66,96.66,0,0,1-11.9,47.23q-11.9,21.71-39.7,56.75l-36.18,51.8h93.69Z"/><path d="M479.14,297.53h27q14.47,0,21.52-10.31t7-28.83q0-16.23-7-26.34t-20.19-10.12q-10.67,0-18.38,9t-7.71,23.48H429.06l-.38-1.14q-1-32.89,21.61-53.72T506,178.7q37.71,0,60.18,20.66t22.47,58.37a66.4,66.4,0,0,1-9.71,34.94,67.09,67.09,0,0,1-26.66,25q19.42,8,29.71,24.85t10.28,40.09q0,37.9-24.28,59.6T505.8,464q-33.33,0-57.32-20.47t-23-58.56l.38-1.14h52.56q0,16,8.38,26.47t20.76,10.47q14.09,0,22.38-10.57t8.28-28.28q0-22.09-8.09-32.28t-23.9-10.19h-27Z"/></svg>