<svg height="280" viewBox="0 0 280 280" width="280" xmlns="http://www.w3.org/2000/svg"><path d="m230.716511 193.998131c3.85395 0 6.978193 3.124243 6.978193 6.978193v17.445483c0 3.85395-3.124243 6.978193-6.978193 6.978193h-181.4330219c-3.8539497 0-6.9781931-3.124243-6.9781931-6.978193v-17.445483c0-3.85395 3.1242434-6.978193 6.9781931-6.978193zm0-69.781932c3.85395 0 6.978193 3.124244 6.978193 6.978194v17.445482c0 3.85395-3.124243 6.978194-6.978193 6.978194h-181.4330219c-3.8539497 0-6.9781931-3.124244-6.9781931-6.978194v-17.445482c0-3.85395 3.1242434-6.978194 6.9781931-6.978194zm0-69.7819311c3.85395 0 6.978193 3.1242435 6.978193 6.9781932v17.4454828c0 3.8539497-3.124243 6.9781932-6.978193 6.9781932h-181.4330219c-3.8539497 0-6.9781931-3.1242435-6.9781931-6.9781932v-17.4454828c0-3.8539497 3.1242434-6.9781932 6.9781931-6.9781932z"/></svg>