<svg height="280" viewBox="0 0 280 280" width="280" xmlns="http://www.w3.org/2000/svg"><path d="m225.482866 155.391277c20.430751 0 36.993146 16.562396 36.993146 36.993147v17.523987h5.839876c6.451254 0 11.681704 5.228497 11.684112 11.679751v46.727726c0 6.452957-5.231155 11.684112-11.684112 11.684112h-85.666044c-6.452957 0-11.684112-5.231155-11.684112-11.684112v-46.727726c0-6.452957 5.231155-11.684112 11.684112-11.684112h5.839876v-17.519626c0-20.430751 16.562395-36.993147 36.993146-36.993147zm.170094 77.231153c-6.431279 0-11.64486 5.213581-11.64486 11.64486 0 6.431278 5.213581 11.64486 11.64486 11.64486 6.424471 0 11.635235-5.20295 11.644859-11.627415v-.017445c0-6.431279-5.213581-11.64486-11.644859-11.64486zm-.170094-57.779439c-9.678231 0-17.523987 7.845756-17.523987 17.523987v17.523988h35.047975v-17.523988c0-9.678231-7.845757-17.523987-17.523988-17.523987zm-157.5719626-95.3875393v121.0062303h-23.5862928v-96.255451l-22.4261682.497196v-17.0398756zm68.5171336-1.6791297c11.072067-.0029056 19.709035 3.208517 25.910904 9.6342699s9.302804 15.1746621 9.302804 26.2467291c.056631 7.196702-1.730102 14.288079-5.190032 20.598754-3.46002 6.323987-9.231568 14.574247-17.314641 24.750779l-15.77944 22.5919h38.755141c-.714391 3.546337-1.073798 7.155009-1.072898 10.772586v2.490342c-3.110776 1.360341-5.960681 3.252406-8.421806 5.591278h-59.824923v-16.028038l32.971963-41.77757c4.373001-6.201869 7.514642-11.605607 9.424922-16.202492 1.910281-4.596885 2.865421-8.785255 2.865421-12.565109-.002908-5.158048-1.000208-9.318796-2.991901-12.482243-1.991692-3.1634478-4.870197-4.7451716-8.635514-4.7451716-3.875804 0-6.851713 1.9175494-8.927725 5.7526476-2.076013 3.835099-3.114019 8.865213-3.114019 15.090343h-23.006231l-.165732-.436137c-.218068-10.964486 2.882866-20.2527518 9.302804-27.8647975s15.056905-11.4180705 25.910903-11.4180705zm84.047975.0174454c10.964486 0 19.713396 3.0035327 26.246729 9.010594 6.533334 6.0070612 9.800442 14.4928346 9.800442 25.4573206.029231 5.374091-1.43709 10.650431-4.235333 15.23863-2.792084 4.640476-6.817258 8.415021-11.627414 10.903426 2.717687 1.102548 5.248204 2.619387 7.501558 4.496574-12.377209-5.676529-26.432953-6.505992-39.391901-2.324611v-10.955763h11.775701c4.207269 0 7.335826-1.498858 9.38567-4.496574 2.049844-2.997715 3.067498-7.188992 3.05296-12.573831 0-4.719003-1.017653-8.548287-3.05296-11.487851-2.035306-2.9395636-4.971962-4.4107993-8.809969-4.4137069-3.102388 0-5.774455 1.3084112-8.016199 3.9252339-2.241745 2.616822-3.349533 6.018691-3.323365 10.205607h-22.857943l-.165733-.475389c-.290758-9.563032 2.850883-17.3727936 9.424923-23.4292837 6.574039-6.0564901 14.671651-9.0832814 24.292834-9.0803759z"/></svg>