<svg height="642" viewBox="0 0 642 642" width="642" xmlns="http://www.w3.org/2000/svg"><g fill="#000" fill-rule="nonzero"><path d="m156.17 460h-54.08v-220.74l-51.42 1.14v-39l105.5-18.85z"/><path d="m399.92 460h-163.77v-36.78l75.6-95.79c10-14.24 17.203333-26.64 21.61-37.2s6.596667-20.163333 6.57-28.81c0-11.826667-2.286667-21.366667-6.86-28.62s-11.173333-10.876667-19.8-10.87c-8.886667 0-15.71 4.396667-20.47 13.19s-7.14 20.326667-7.14 34.6h-52.75l-.38-1c-.506667-25.14 6.603333-46.436667 21.33-63.89s34.53-26.18 59.41-26.18c25.386667 0 45.19 7.363333 59.41 22.09s21.326667 34.813333 21.32 60.26c.129847 16.501009-3.966876 32.760525-11.9 47.23-7.933333 14.473333-21.166667 33.39-39.7 56.75l-36.18 51.8h93.69z"/><path d="m479.14 297.53h27c9.646667 0 16.82-3.436667 21.52-10.31s7.033333-16.483333 7-28.83c0-10.82-2.333333-19.6-7-26.34s-11.396667-10.113333-20.19-10.12c-7.113333 0-13.24 3-18.38 9s-7.71 13.826667-7.71 23.48h-52.32l-.38-1.14c-.666667-21.926667 6.536667-39.833333 21.61-53.72s33.643333-20.836667 55.71-20.85c25.14 0 45.2 6.886667 60.18 20.66s22.47 33.23 22.47 58.37c.068036 12.322022-3.294029 24.419916-9.71 34.94-6.401851 10.63995-15.631 19.294441-26.66 25 12.946667 5.333333 22.85 13.616667 29.71 24.85s10.286667 24.596667 10.28001 40.09c0 25.266667-8.093343 45.133333-24.28001 59.6s-36.916667 21.73-62.19 21.79c-22.22 0-41.326667-6.823333-57.32-20.47s-23.66-33.166667-23-58.56l.38-1.14h52.56c0 10.666667 2.793333 19.49 8.38 26.47s12.506667 10.47 20.76 10.47c9.393333 0 16.853333-3.523333 22.38-10.57s8.286667-16.473333 8.28-28.28c0-14.726667-2.696667-25.486667-8.09-32.28s-13.36-10.19-23.9-10.19h-27z"/></g></svg>