<svg height="642" viewBox="0 0 642 642" width="642" xmlns="http://www.w3.org/2000/svg"><path d="m97 181v-40c0-8.836556 7.163444-16 16-16h416c8.836556 0 16 7.163444 16 16v40c0 8.836556-7.163444 16-16 16h-416c-8.836556 0-16-7.163444-16-16zm16 176h311.85c30.339369-33.281442 76.25833-47.632312 120.15-37.55v-18.45c0-8.836556-7.163444-16-16-16h-416c-8.836556 0-16 7.163444-16 16v40c0 8.836556 7.163444 16 16 16zm239 151.07c.023543-26.592068 15.79894-50.643855 40.18-61.26v-1.81h-279.18c-8.836556 0-16 7.163444-16 16v40c0 8.836556 7.163444 16 16 16h239zm290 0v107.14c0 14.795708-11.994292 26.79-26.79 26.79h-196.42c-14.795708 0-26.79-11.994292-26.79-26.79v-107.14c0-14.795708 11.994292-26.79 26.79-26.79h13.39v-40.17c0-46.844792 37.975208-84.82 84.82-84.82s84.82 37.975208 84.82 84.82v40.18h13.39c14.791804 0 26.784479 11.988197 26.79 26.78zm-97.91 52c0-14.746003-11.953997-26.7-26.7-26.7s-26.7 11.953997-26.7 26.7 11.953997 26.7 26.7 26.7c14.730396 0 26.677932-11.929621 26.7-26.66zm13.09-119c0-22.190801-17.989199-40.18-40.18-40.18s-40.18 17.989199-40.18 40.18v40.18h80.36z"/></svg>