<svg id="Layer_1" data-name="Layer 1" xmlns="http://www.w3.org/2000/svg" viewBox="0 0 642 642"><path d="M428.21,252.91q-1-32.89,21.61-53.72t55.7-20.82q37.71,0,60.18,20.66t22.47,58.37a66.4,66.4,0,0,1-9.71,34.94,67.09,67.09,0,0,1-26.66,25A65.12,65.12,0,0,1,569,327.65a124.76,124.76,0,0,0-90.32-5.33V297.2h27q14.47,0,21.52-10.31t7-28.83q0-16.23-7-26.34T507,221.6q-10.67,0-18.38,9T481,254H428.59Zm88.79,188h-.05a.67.67,0,0,0-.13.16v.2h.37v-.18a.36.36,0,0,0-.16-.19ZM50.21,240.07l51.42-1.14V459.63h54.08V182.18L50.21,201Zm261.08,87-75.6,95.79v36.75H372.86a67,67,0,0,1,19.31-12.82v-5.71a124.92,124.92,0,0,1,2.46-24.7H305.77l36.18-51.8q27.8-35,39.7-56.75a96.66,96.66,0,0,0,11.9-47.23q0-38.08-21.33-60.18t-59.41-22.09q-37.33,0-59.41,26.18t-21.33,63.89l.38,1H285.2q0-21.41,7.14-34.6t20.47-13.19q12.95,0,19.8,10.88t6.86,28.62q0,13-6.57,28.81T311.29,327.09ZM642,508.07V615.21A26.79,26.79,0,0,1,615.21,642H418.79A26.79,26.79,0,0,1,392,615.21V508.07a26.79,26.79,0,0,1,26.79-26.79h13.39V441.11a84.82,84.82,0,0,1,169.64,0v40.18h13.39A26.79,26.79,0,0,1,642,508.07Zm-97.91,52a26.7,26.7,0,1,0-26.7,26.7A26.7,26.7,0,0,0,544.09,560.11Zm13.09-119a40.18,40.18,0,1,0-80.36,0v40.18h80.36Z"/></svg>