<svg height="280" viewBox="0 0 280 280" width="280" xmlns="http://www.w3.org/2000/svg"><path d="m140 28.3489097c46.23053 0 83.738318 37.5077881 83.738318 83.7383173 0 33.761371-11.775701 43.177571-75.133334 135.058567-1.955252 2.823101-5.170904 4.507559-8.604984 4.507559s-6.649732-1.684458-8.604984-4.507559h-.017446c-63.3707164-91.880996-75.1158878-101.297196-75.1158878-135.058567 0-46.2305292 37.5077882-83.7383173 83.7383178-83.7383173zm0 48.847352c-19.269748 0-34.890966 15.6212174-34.890966 34.8909653 0 19.269749 15.621218 34.890966 34.890966 34.890966s34.890966-15.621217 34.890966-34.890966c0-19.2697479-15.621218-34.8909653-34.890966-34.8909653z"/></svg>