<svg height="280" viewBox="0 0 280 280" width="280" xmlns="http://www.w3.org/2000/svg"><path d="m225.482866 155.391277c20.430751 0 36.993146 16.562396 36.993146 36.993147v17.523987h5.839876c6.451254 0 11.681704 5.228497 11.684112 11.679751v46.727726c0 6.452957-5.231155 11.684112-11.684112 11.684112h-85.666044c-6.452957 0-11.684112-5.231155-11.684112-11.684112v-46.727726c.002408-6.451254 5.232858-11.679751 11.684112-11.679751h5.839876v-17.523987c0-20.430751 16.562395-36.993147 36.993146-36.993147zm.170094 77.25296c-6.431279 0-11.64486 5.213581-11.64486 11.64486 0 6.431278 5.213581 11.644859 11.64486 11.644859 6.431278 0 11.644859-5.213581 11.644859-11.644859 0-6.431279-5.213581-11.64486-11.644859-11.64486zm-85.65296-204.2996887c46.23053 0 83.738318 37.5077881 83.738318 83.7383177 0 9.922118-1.003116 17.742056-4.056075 26.168224-27.302181 2.904673-48.638006 26.072274-48.638006 54.128972v2.490343c-10.632721 4.631-17.512585 15.12031-17.523988 26.717757v18.448598c-1.602077 2.311527-3.240498 4.681205-4.915265 7.109034-1.955252 2.823101-5.170904 4.507559-8.604984 4.507559s-6.649732-1.684458-8.604984-4.507559c-63.3576328-91.880996-75.1333338-101.297196-75.1333338-135.058567 0-46.2305292 37.5077882-83.7426787 83.7383178-83.7426787zm94.24486 148.8636567c-5.421941-3.130359-12.102047-3.130359-17.523988 0s-8.761993 8.915501-8.761993 15.176219v17.523987h35.047975v-17.523987c0-6.260718-3.340053-12.04586-8.761994-15.176219zm-94.24486-100.0119433c-19.269748 0-34.890966 15.6212174-34.890966 34.8909653 0 19.269749 15.621218 34.890966 34.890966 34.890966s34.890966-15.621217 34.890966-34.890966c0-19.2697479-15.621218-34.8909653-34.890966-34.8909653z"/></svg>