<svg height="642" viewBox="0 0 642 642" width="642" xmlns="http://www.w3.org/2000/svg"><path d="m517.18 441.11v.18h-.37v-.2c.03495-.05963.078787-.113583.13-.16h.06c.079919.036077.143923.100081.18.18zm-165.18 71.89h-239c-26.509668 0-48-21.490332-48-48v-288c0-26.509668 21.490332-48 48-48h416c26.509668 0 48 21.490332 48 48v154.68c-25.192923-13.828509-54.386982-18.537001-82.65-13.33l-68.87-68.87c-2.251622-2.259454-5.310182-3.529463-8.5-3.529463s-6.248378 1.270009-8.5 3.529463l-135.48 135.52-55.52-55.52c-2.251622-2.259454-5.310182-3.529463-8.5-3.529463s-6.248378 1.270009-8.5 3.529463l-71.48 71.52v48h258.65c-21.911015 11.562804-35.6305 34.295201-35.65 59.07zm-175-216c30.927946 0 56-25.072054 56-56s-25.072054-56-56-56-56 25.072054-56 56 25.072054 56 56 56zm465 211.07v107.14c0 14.795708-11.994292 26.79-26.79 26.79h-196.42c-14.795708 0-26.79-11.994292-26.79-26.79v-107.14c0-14.795708 11.994292-26.79 26.79-26.79h13.39v-40.17c0-46.844792 37.975208-84.82 84.82-84.82s84.82 37.975208 84.82 84.82v40.18h13.39c14.791804 0 26.784479 11.988197 26.79 26.78zm-97.91 52c0-14.746003-11.953997-26.7-26.7-26.7s-26.7 11.953997-26.7 26.7 11.953997 26.7 26.7 26.7c14.730396 0 26.677932-11.929621 26.7-26.66zm13.09-119c0-22.190801-17.989199-40.18-40.18-40.18s-40.18 17.989199-40.18 40.18v40.18h80.36z"/></svg>