<svg height="642" viewBox="0 0 642 642" width="642" xmlns="http://www.w3.org/2000/svg"><path d="m352 508.07c.026145-26.59129 15.80069-50.641779 40.18-61.26v-5.71c0-64.33 48.92-117.45 111.52-124.11 7-19.32 9.3-37.25 9.3-60 0-106-86-192-192-192s-192 86.01-192 192.01c0 77.41 27 99 172.27 309.67 4.483115 6.472966 11.856144 10.335188 19.73 10.335188s15.246885-3.862222 19.73-10.335188c3.84-5.566667 7.596667-11 11.27-16.3zm-31-171.07c-44.18278 0-80-35.81722-80-80s35.81722-80 80-80 80 35.81722 80 80-35.81722 80-80 80zm280.82 144.29v-40.18c0-46.844792-37.975208-84.82-84.82-84.82s-84.82 37.975208-84.82 84.82v40.18h-13.39c-14.791804 0-26.784479 11.988197-26.79 26.78v107.14c0 14.795708 11.994292 26.79 26.79 26.79h196.42c14.795708 0 26.79-11.994292 26.79-26.79v-107.14c-.005521-14.791803-11.998196-26.78-26.79-26.78zm-84.43 105.53c-14.746003 0-26.7-11.953997-26.7-26.7s11.953997-26.7 26.7-26.7 26.7 11.953997 26.7 26.7-11.953997 26.7-26.7 26.7zm39.79-105.53h-80.36v-40.18c0-14.354932 7.658264-27.619436 20.09-34.796902 12.431735-7.177466 27.748265-7.177466 40.18 0 12.431736 7.177466 20.09 20.44197 20.09 34.796902z"/></svg>