<svg height="642" viewBox="0 0 642 642" width="642" xmlns="http://www.w3.org/2000/svg"><path d="m529 512.81h-416c-26.509668 0-48-21.490332-48-48v-288c0-26.509668 21.490332-48 48-48h416c26.509668 0 48 21.490332 48 48v288c0 26.509668-21.490332 48-48 48zm-408-272c0 30.927946 25.072054 56 56 56s56-25.072054 56-56-25.072054-56-56-56-56 25.072054-56 56zm8 208h384v-112l-87.52-87.51c-2.251622-2.259454-5.310182-3.529463-8.5-3.529463s-6.248378 1.270009-8.5 3.529463l-135.48 135.51-55.51-55.52c-2.251622-2.259454-5.310182-3.529463-8.5-3.529463s-6.248378 1.270009-8.5 3.529463l-71.49 71.52z"/></svg>