<svg id="Layer_1" data-name="Layer 1" xmlns="http://www.w3.org/2000/svg" viewBox="0 0 642 642"><path d="M517.18,441.11v.18h-.37v-.2a.68.68,0,0,1,.13-.16H517A.36.36,0,0,1,517.18,441.11ZM352,513H113a48,48,0,0,1-48-48V177a48,48,0,0,1,48-48H529a48,48,0,0,1,48,48V331.68a124.78,124.78,0,0,0-82.65-13.33l-68.87-68.87a12,12,0,0,0-17,0L273,385l-55.52-55.52a12,12,0,0,0-17,0L129,401v48H387.65A66.85,66.85,0,0,0,352,508.07ZM121,241a56,56,0,1,0,56-56A56,56,0,0,0,121,241ZM642,508.07V615.21A26.79,26.79,0,0,1,615.21,642H418.79A26.79,26.79,0,0,1,392,615.21V508.07a26.79,26.79,0,0,1,26.79-26.79h13.39V441.11a84.82,84.82,0,0,1,169.64,0v40.18h13.39A26.79,26.79,0,0,1,642,508.07Zm-97.91,52a26.7,26.7,0,1,0-26.7,26.7A26.7,26.7,0,0,0,544.09,560.11Zm13.09-119a40.18,40.18,0,1,0-80.36,0v40.18h80.36Z"/></svg>