<svg height="280" viewBox="0 0 280 280" width="280" xmlns="http://www.w3.org/2000/svg"><path d="m230.716511 56.1788162c11.561849 0 20.934579 9.3727305 20.934579 20.9345794v125.6074764c0 11.561849-9.37273 20.93458-20.934579 20.93458h-181.4330219c-11.561849 0-20.9345794-9.372731-20.9345794-20.93458v-125.6074764c0-11.5618489 9.3727304-20.9345794 20.9345794-20.9345794zm-48.856075 51.0108258c-1.391198 0-2.725149.553898-3.707165 1.53933l-59.08785 59.100935-24.2099693-24.214331c-.982016-.985431-2.3159673-1.539329-3.7071651-1.539329s-2.7251491.553898-3.7071651 1.539329l-31.1794393 31.192524v20.934579h167.4766358v-48.847352l-38.170717-38.166355c-.982016-.985432-2.315967-1.53933-3.707165-1.53933zm-104.6641743-26.5871498c-13.4888238 0-24.423676 10.9348522-24.423676 24.4236758 0 13.488824 10.9348522 24.423676 24.423676 24.423676s24.4236763-10.934852 24.4236763-24.423676c0-13.4888236-10.9348525-24.4236758-24.4236763-24.4236758z"/></svg>