<svg height="280" viewBox="0 0 280 280" width="280" xmlns="http://www.w3.org/2000/svg"><path d="m225.482866 155.391277c20.430751 0 36.993146 16.562396 36.993146 36.993147v17.523987h5.839876c6.451254 0 11.681704 5.228497 11.684112 11.679751v46.727726c0 6.452957-5.231155 11.684112-11.684112 11.684112h-85.666044c-6.452957 0-11.684112-5.231155-11.684112-11.684112v-46.727726c0-6.452957 5.231155-11.684112 11.684112-11.684112h5.839876v-17.519626c0-20.430751 16.562395-36.993147 36.993146-36.993147zm.170094 77.231153c-6.431279 0-11.64486 5.213581-11.64486 11.64486 0 6.431278 5.213581 11.64486 11.64486 11.64486 6.424471 0 11.635235-5.20295 11.644859-11.627415v-.017445c0-6.431279-5.213581-11.64486-11.644859-11.64486zm5.063551-176.3607478c11.561849 0 20.934579 9.3727305 20.934579 20.9345795v67.4616823c-10.987567-6.031126-23.720179-8.084673-36.046729-5.813707l-30.03676-30.03676c-.982016-.985432-2.315967-1.53933-3.707165-1.53933s-2.725149.553898-3.707165 1.53933l-59.08785 59.105296-24.2143307-24.214331c-.982016-.985431-2.3159673-1.539329-3.7071651-1.539329-1.3911977 0-2.725149.553898-3.7071651 1.539329l-31.1750779 31.192524v20.934579h112.8068538c-9.556206 5.042968-15.539782 14.957409-15.548287 25.762617v2.150156h-104.2367599c-11.561849 0-20.9345794-9.372731-20.9345794-20.93458v-125.6074763c0-11.561849 9.3727304-20.9345795 20.9345794-20.9345795zm-5.233645 118.5813088c-9.678231 0-17.523987 7.845756-17.523987 17.523987v17.523988h35.047975v-17.523988c0-9.678231-7.845757-17.523987-17.523988-17.523987zm-148.2866043-94.1576327c-13.4888238 0-24.423676 10.9348522-24.423676 24.4236757 0 13.488824 10.9348522 24.423676 24.423676 24.423676s24.4236763-10.934852 24.4236763-24.423676c0-13.4888235-10.9348525-24.4236757-24.4236763-24.4236757z"/></svg>