<svg id="Layer_1" data-name="Layer 1" xmlns="http://www.w3.org/2000/svg" viewBox="0 0 642 642"><path d="M352,508.07a66.89,66.89,0,0,1,40.18-61.26v-5.71c0-64.33,48.92-117.45,111.52-124.11,7-19.32,9.3-37.25,9.3-60,0-106-86-192-192-192S129,151,129,257c0,77.41,27,99,172.27,309.67a24,24,0,0,0,39.46,0q5.76-8.35,11.27-16.3ZM321,337a80,80,0,1,1,80-80A80,80,0,0,1,321,337ZM615.21,481.29H601.82V441.11a84.82,84.82,0,0,0-169.64,0v40.18H418.79A26.79,26.79,0,0,0,392,508.07V615.21A26.79,26.79,0,0,0,418.79,642H615.21A26.79,26.79,0,0,0,642,615.21V508.07A26.79,26.79,0,0,0,615.21,481.29ZM517.39,586.82a26.7,26.7,0,1,1,26.7-26.7A26.7,26.7,0,0,1,517.39,586.82Zm39.79-105.53H476.82V441.11a40.18,40.18,0,1,1,80.36,0Z"/></svg>