<svg height="642" viewBox="0 0 642 642" width="642" xmlns="http://www.w3.org/2000/svg"><path d="m517.18 441.11v.18h-.37v-.2c.03482-.059721.078672-.113693.13-.16h.06c.079919.036077.143923.100081.18.18zm-165.18 103.89h-239c-26.509668 0-48-21.490332-48-48v-352c0-26.509668 21.490332-48 48-48h416c26.509668 0 48 21.490332 48 48v186.68c-18.375089-10.126664-39.019233-15.425328-60-15.4-1.34 0-2.67 0-4 .07v-91.35h-160v96h130c-33.608084 9.60672-61.681353 32.804773-77.45 64h-52.55v96h4.74c-3.793467 8.519998-5.749278 17.743657-5.74 27.07zm-63-160h-160v96h160zm0-64v-96h-160v96zm353 187.07v107.14c0 14.795708-11.994292 26.79-26.79 26.79h-196.42c-14.795708 0-26.79-11.994292-26.79-26.79v-107.14c0-14.795708 11.994292-26.79 26.79-26.79h13.39v-40.17c0-46.844792 37.975208-84.82 84.82-84.82s84.82 37.975208 84.82 84.82v40.18h13.39c14.791804 0 26.784479 11.988197 26.79 26.78zm-97.91 52c0-14.746003-11.953997-26.7-26.7-26.7s-26.7 11.953997-26.7 26.7 11.953997 26.7 26.7 26.7c14.730396 0 26.677932-11.929621 26.7-26.66zm13.09-119c0-22.190801-17.989199-40.18-40.18-40.18s-40.18 17.989199-40.18 40.18v40.18h80.36z"/></svg>