<svg id="Layer_1" data-name="Layer 1" xmlns="http://www.w3.org/2000/svg" viewBox="0 0 642 642"><path d="M517.18,441.11v.18h-.37v-.2a.67.67,0,0,1,.13-.16H517A.36.36,0,0,1,517.18,441.11ZM352,545H113a48,48,0,0,1-48-48V145a48,48,0,0,1,48-48H529a48,48,0,0,1,48,48V331.68a124,124,0,0,0-60-15.4c-1.34,0-2.67,0-4,.07V225H353v96H483a125.4,125.4,0,0,0-77.45,64H353v96h4.74A66.39,66.39,0,0,0,352,508.07ZM289,385H129v96H289Zm0-64V225H129v96ZM642,508.07V615.21A26.79,26.79,0,0,1,615.21,642H418.79A26.79,26.79,0,0,1,392,615.21V508.07a26.79,26.79,0,0,1,26.79-26.79h13.39V441.11a84.82,84.82,0,0,1,169.64,0v40.18h13.39A26.79,26.79,0,0,1,642,508.07Zm-97.91,52a26.7,26.7,0,1,0-26.7,26.7A26.7,26.7,0,0,0,544.09,560.11Zm13.09-119a40.18,40.18,0,1,0-80.36,0v40.18h80.36Z"/></svg>