<svg height="280" viewBox="0 0 280 280" width="280" xmlns="http://www.w3.org/2000/svg"><path d="m225.482866 155.391277c20.430751 0 36.993146 16.562396 36.993146 36.993147v17.523987h5.839876c6.451254 0 11.681704 5.228497 11.684112 11.679751v46.727726c0 6.452957-5.231155 11.684112-11.684112 11.684112h-85.666044c-6.452957 0-11.684112-5.231155-11.684112-11.684112v-46.727726c0-6.452957 5.231155-11.684112 11.684112-11.684112h5.839876v-17.519626c0-20.430751 16.562395-36.993147 36.993146-36.993147zm.170094 77.231153c-6.431279 0-11.64486 5.213581-11.64486 11.64486 0 6.431278 5.213581 11.64486 11.64486 11.64486 6.424471 0 11.635235-5.20295 11.644859-11.627415v-.017445c0-6.431279-5.213581-11.64486-11.644859-11.64486zm5.063551-190.317134c11.561849 0 20.934579 9.3727304 20.934579 20.9345794v81.4180686c-8.014057-4.416614-17.017734-6.727557-26.168224-6.716511-.584424 0-1.164486 0-1.744548.03053v-39.8411219h-69.781932v41.8691589h56.69782c-14.657732 4.189847-26.901525 14.307378-33.778817 27.912773h-22.919003v41.869158h2.06729c-1.654472 3.715887-2.507473 7.738667-2.503427 11.806231v16.106542h-104.2367599c-11.561849 0-20.9345794-9.37273-20.9345794-20.934579v-153.5202496c0-11.561849 9.3727304-20.9345794 20.9345794-20.9345794zm-5.233645 132.537695c-9.678231 0-17.523987 7.845756-17.523987 17.523987v17.523988h35.047975v-17.523988c0-9.678231-7.845757-17.523987-17.523988-17.523987zm-99.439252-6.930218h-69.7819318v41.869158h69.7819318zm0-69.7819319h-69.7819318v41.8691589h69.7819318z"/></svg>