<svg id="Layer_1" data-name="Layer 1" xmlns="http://www.w3.org/2000/svg" viewBox="0 0 642 642"><path d="M517,440.92a.36.36,0,0,1,.16.19v.18h-.37v-.2a.67.67,0,0,1,.13-.16H517ZM97,353H289V545H97Zm64,128h64V417H161ZM545,289H353V97H545ZM481,161H417v64h64ZM97,97H289V289H97Zm64,128h64V161H161ZM392.18,446.82v-5.71A124.43,124.43,0,0,1,428.67,353H353V496.58A67,67,0,0,1,392.18,446.82ZM642,508.07V615.21A26.79,26.79,0,0,1,615.21,642H418.79A26.79,26.79,0,0,1,392,615.21V508.07a26.79,26.79,0,0,1,26.79-26.79h13.39V441.11a84.82,84.82,0,0,1,169.64,0v40.18h13.39A26.79,26.79,0,0,1,642,508.07Zm-97.91,52a26.7,26.7,0,1,0-26.7,26.7A26.7,26.7,0,0,0,544.09,560.11Zm13.09-119a40.18,40.18,0,1,0-80.36,0v40.18h80.36Z"/></svg>