<svg id="Layer_1" data-name="Layer 1" xmlns="http://www.w3.org/2000/svg" viewBox="0 0 642 642"><path d="M453.79,196.81H113.07a16,16,0,0,1-16-16v-40a16,16,0,0,1,16-16H453.79a65.78,65.78,0,0,0,0,72Zm55.28-72a36,36,0,1,0,36,36A36,36,0,0,0,509.07,124.81Zm-254,196a65.6,65.6,0,0,1,10.73-36H113.07a16,16,0,0,0-16,16v40a16,16,0,0,0,16,16H265.79A65.59,65.59,0,0,1,255.07,320.81Zm274-36H376.34a65.78,65.78,0,0,1,0,72H529.07a16,16,0,0,0,16-16v-40A16,16,0,0,0,529.07,284.81Zm-208,0a36,36,0,1,0,36,36A36,36,0,0,0,321.07,284.81Zm208,160H188.34a65.78,65.78,0,0,1,0,72H529.07a16,16,0,0,0,16-16v-40A16,16,0,0,0,529.07,444.81Zm-396,0a36,36,0,1,0,36,36A36,36,0,0,0,133.07,444.81Z"/></svg>