<svg id="Layer_1" data-name="Layer 1" xmlns="http://www.w3.org/2000/svg" viewBox="0 0 642 642"><path d="M289,273V241a16,16,0,0,1,16-16H497a16,16,0,0,1,16,16v32a16,16,0,0,1-16,16H305A16,16,0,0,1,289,273Zm16,144h89.52a124.69,124.69,0,0,1,34.14-64H305a16,16,0,0,0-16,16v32A16,16,0,0,0,305,417Zm0-256H561a16,16,0,0,0,16-16V113a16,16,0,0,0-16-16H305a16,16,0,0,0-16,16v32A16,16,0,0,0,305,161Zm47,347.07A66.39,66.39,0,0,1,357.74,481H305a16,16,0,0,0-16,16v32a16,16,0,0,0,16,16h47ZM241,417H193V113a16,16,0,0,0-16-16H145a16,16,0,0,0-16,16V417H81c-14.19,0-21.37,17.24-11.29,27.31l80,96a16,16,0,0,0,22.62,0l80-96C262.35,434.26,255.22,417,241,417Zm401,91.07V615.21A26.79,26.79,0,0,1,615.21,642H418.79A26.79,26.79,0,0,1,392,615.21V508.07a26.79,26.79,0,0,1,26.79-26.79h13.39V441.11a84.82,84.82,0,0,1,169.64,0v40.18h13.39A26.79,26.79,0,0,1,642,508.07Zm-97.91,52a26.7,26.7,0,1,0-26.7,26.7A26.7,26.7,0,0,0,544.09,560.11Zm13.09-119a40.18,40.18,0,1,0-80.36,0v40.18h80.36Z"/></svg>