<svg height="280" viewBox="0 0 280 280" width="280" xmlns="http://www.w3.org/2000/svg"><path d="m230.74704 193.998131c3.85395 0 6.978194 3.124243 6.978194 6.978193v17.445483c0 3.85395-3.124244 6.978193-6.978194 6.978193h-148.6049839c6.2369958-9.538202 6.2369958-21.863667 0-31.401869zm-172.7102799 0c4.1641468 0 8.1577409 1.654201 11.1022373 4.598697 2.9444964 2.944497 4.5986973 6.938091 4.5986973 11.102237 0 8.671387-7.0295478 15.700935-15.7009346 15.700935-8.6713867 0-15.7009346-7.029548-15.7009346-15.700935 0-8.671386 7.0295479-15.700934 15.7009346-15.700934zm57.8884739-69.781932c-3.057096 4.665565-4.683716 10.123004-4.679751 15.700935-.005515 5.577524 1.6196 11.034999 4.675389 15.700935h-66.6068533c-3.8539497 0-6.9781932-3.124244-6.9781932-6.978194v-17.445482c0-3.85395 3.1242435-6.978194 6.9781932-6.978194zm114.821806 0c3.85395 0 6.978194 3.124244 6.978194 6.978194v17.445482c0 3.85395-3.124244 6.978194-6.978194 6.978194h-66.611214c6.236995-9.538203 6.236995-21.863668 0-31.40187zm-90.71651 0c4.164146 0 8.15774 1.654201 11.102237 4.598698 2.944496 2.944496 4.598697 6.93809 4.598697 11.102237 0 8.671387-7.029548 15.700935-15.700934 15.700935-8.671387 0-15.700935-7.029548-15.700935-15.700935s7.029548-15.700935 15.700935-15.700935zm57.884112-69.7819311c-6.236996 9.5382021-6.236996 21.8636671 0 31.4018692h-148.6006233c-3.8539497 0-6.9781932-3.1242435-6.9781932-6.9781932v-17.4454828c0-3.8539497 3.1242435-6.9781932 6.9781932-6.9781932zm24.109657 0c8.671387 0 15.700935 7.0295479 15.700935 15.7009346s-7.029548 15.7009346-15.700935 15.7009346-15.700935-7.0295479-15.700935-15.7009346 7.029548-15.7009346 15.700935-15.7009346z"/></svg>