<svg height="280" viewBox="0 0 280 280" width="280" xmlns="http://www.w3.org/2000/svg"><path d="m225.482866 155.391277c20.430751 0 36.993146 16.562396 36.993146 36.993147v17.523987h5.839876c6.451254 0 11.681704 5.228497 11.684112 11.679751v46.727726c0 6.452957-5.231155 11.684112-11.684112 11.684112h-85.666044c-6.452957 0-11.684112-5.231155-11.684112-11.684112v-46.727726c0-6.452957 5.231155-11.684112 11.684112-11.684112h5.839876v-17.519626c0-20.430751 16.562395-36.993147 36.993146-36.993147zm.170094 77.231153c-6.431279 0-11.64486 5.213581-11.64486 11.64486 0 6.431278 5.213581 11.64486 11.64486 11.64486 6.424471 0 11.635235-5.20295 11.644859-11.627415v-.017445c0-6.431279-5.213581-11.64486-11.644859-11.64486zm-.170094-57.779439c-9.678231 0-17.523987 7.845756-17.523987 17.523987v17.523988h35.047975v-17.523988c0-9.678231-7.845757-17.523987-17.523988-17.523987zm-52.772586 4.234891c-1.096591 4.350477-1.650336 8.819988-1.648598 13.306542v2.490342c-3.136872 1.365531-6.009575 3.271318-8.487227 5.63053h-3.598131v-21.427414zm-97.1190027-99.583178v121.010592h-23.5862929v-96.268536l-22.4261682.505919v-17.0267911zm61.6261677 99.583178v21.427414h-23.337694v-21.427414zm113.199377-99.583178v64.509034c-7.300761-3.780106-15.367261-5.845954-23.586292-6.040498v-33.72648l-22.426169.488474v-17.0093461z"/></svg>