<svg height="280" viewBox="0 0 280 280" width="280" xmlns="http://www.w3.org/2000/svg"><path d="m225.482866 155.391277c20.430751 0 36.993146 16.562396 36.993146 36.993147v17.523987h5.839876c6.451254 0 11.681704 5.228497 11.684112 11.679751v46.727726c0 6.452957-5.231155 11.684112-11.684112 11.684112h-85.666044c-6.452957 0-11.684112-5.231155-11.684112-11.684112v-46.727726c0-6.452957 5.231155-11.684112 11.684112-11.684112h5.839876v-17.519626c0-20.430751 16.562395-36.993147 36.993146-36.993147zm.170094 77.231153c-6.431279 0-11.64486 5.213581-11.64486 11.64486 0 6.431278 5.213581 11.64486 11.64486 11.64486 6.424471 0 11.635235-5.20295 11.644859-11.627415v-.017445c0-6.431279-5.213581-11.64486-11.644859-11.64486zm-167.6467295-38.541433c8.6713868 0 15.7009346 7.029548 15.7009346 15.700934 0 8.671387-7.0295478 15.700935-15.7009346 15.700935-8.6713867 0-15.7009345-7.029548-15.7009345-15.700935 0-8.671386 7.0295478-15.700934 15.7009345-15.700934zm113.0380065 0v.789408c-10.633484 4.630095-17.51372 15.11997-17.523988 26.717757v3.894704h-71.4087225c6.2369958-9.538202 6.2369958-21.863667 0-31.401869zm54.438629-19.238006c-9.678231 0-17.523987 7.845756-17.523987 17.523987v17.523988h35.047975v-17.523988c0-9.678231-7.845757-17.523987-17.523988-17.523987zm5.233645-50.543926c3.85395 0 6.978193 3.124244 6.978193 6.978194v8.046729c-19.142784-4.39727-39.169746 1.861676-52.401869 16.376947h-21.187539c6.236996-9.538203 6.236996-21.863667 0-31.40187zm-90.716511 0c8.671387 0 15.700935 7.029548 15.700935 15.700935s-7.029548 15.700935-15.700935 15.700935-15.700935-7.029548-15.700935-15.700935 7.029548-15.700935 15.700935-15.700935zm-24.105296 0c-6.236996 9.538203-6.236996 21.863667 0 31.40187h-66.6112149c-3.8539497 0-6.9781931-3.124244-6.9781931-6.978194v-17.445482c0-3.85395 3.1242434-6.978194 6.9781931-6.978194zm106.099065-69.781931c8.671387 0 15.700935 7.0295478 15.700935 15.7009345 0 8.6713868-7.029548 15.7009346-15.700935 15.7009346-8.671386 0-15.700934-7.0295478-15.700934-15.7009346 0-8.6713867 7.029548-15.7009345 15.700934-15.7009345zm-24.105295 0c-6.236996 9.5382021-6.236996 21.863667 0 31.4018691h-148.6049849c-3.8539497 0-6.9781931-3.1242435-6.9781931-6.9781931v-17.4454829c0-3.8539497 3.1242434-6.9781931 6.9781931-6.9781931z"/></svg>