<svg height="642" viewBox="0 0 642 642" width="642" xmlns="http://www.w3.org/2000/svg"><path d="m113.07 196.81c-8.836556 0-16-7.163444-16-16v-40c0-8.836556 7.163444-16 16-16h340.72c-14.30054 21.869735-14.30054 50.130265 0 72zm360-36c0 19.882251 16.117749 36 36 36s36-16.117749 36-36-16.117749-36-36-36-36 16.117749-36 36zm-207.27 124h-152.73c-8.836556 0-16 7.163444-16 16v40c0 8.836556 7.163444 16 16 16h152.72c-7.006489-10.698324-10.732645-23.211534-10.72-36-.009091-12.789398 3.720517-25.302527 10.73-36zm263.27 0h-152.73c14.30054 21.869735 14.30054 50.130265 0 72h152.73c8.836556 0 16-7.163444 16-16v-40c0-8.836556-7.163444-16-16-16zm-244 36c0 19.882251 16.117749 36 36 36s36-16.117749 36-36c0-9.547794-3.792846-18.704534-10.544156-25.455844s-15.90805-10.544156-25.455844-10.544156c-19.882251 0-36 16.117749-36 36zm-96.73 124c14.30054 21.869735 14.30054 50.130265 0 72h340.73c8.836556 0 16-7.163444 16-16v-40c0-8.836556-7.163444-16-16-16zm-91.27 36c0 19.882251 16.117749 36 36 36s36-16.117749 36-36c0-9.547794-3.792846-18.704534-10.544156-25.455844s-15.90805-10.544156-25.455844-10.544156c-19.882251 0-36 16.117749-36 36z"/></svg>