<svg height="280" viewBox="0 0 280 280" width="280" xmlns="http://www.w3.org/2000/svg"><path d="m160.934579 209.781931c3.85395 0 6.978194 3.124244 6.978194 6.978194v13.956386c0 3.85395-3.124244 6.978193-6.978194 6.978193h-27.912772c-3.85395 0-6.978193-3.124243-6.978193-6.978193v-13.956386c0-3.85395 3.124243-6.978194 6.978193-6.978194zm-83.7383173-167.476635c3.8539496 0 6.9781931 3.1242434 6.9781931 6.9781931v132.5856699h20.9345792c6.201869 0 9.311527 7.527726 4.941433 11.910903l-34.8909654 41.869159c-2.7247836 2.722998-7.1406371 2.722998-9.8654206 0l-34.8909657-41.869159c-4.3962617-4.3919-1.2647975-11.910903 4.9239875-11.910903h20.9345794v-132.5856699c0-3.8539497 3.1242435-6.9781931 6.9781932-6.9781931zm111.6510903 111.65109c3.85395 0 6.978193 3.124244 6.978193 6.978193v13.956387c0 3.853949-3.124243 6.978193-6.978193 6.978193h-55.825545c-3.85395 0-6.978193-3.124244-6.978193-6.978193v-13.956387c0-3.853949 3.124243-6.978193 6.978193-6.978193zm27.912773-55.8255449c3.853949 0 6.978193 3.1242439 6.978193 6.9781929v13.956387c0 3.853949-3.124244 6.978193-6.978193 6.978193h-83.738318c-3.85395 0-6.978193-3.124244-6.978193-6.978193v-13.956387c0-3.853949 3.124243-6.9781929 6.978193-6.9781929zm27.912772-55.8255451c3.85395 0 6.978193 3.1242434 6.978193 6.9781931v13.9563863c0 3.8539496-3.124243 6.9781931-6.978193 6.9781931h-111.65109c-3.85395 0-6.978193-3.1242435-6.978193-6.9781931v-13.9563863c0-3.8539497 3.124243-6.9781931 6.978193-6.9781931z"/></svg>