<svg id="Layer_1" data-name="Layer 1" xmlns="http://www.w3.org/2000/svg" viewBox="0 0 642 642"><path d="M372.76,459.73h-8.25V410.6H396a124.63,124.63,0,0,0-3.78,30.51v5.71A67,67,0,0,0,372.76,459.73Zm147.33-143.4a124,124,0,0,1,54.08,13.85V182.27l-105.5,18.85v39L520.09,239ZM67.82,240.16,119.24,239V459.73h54.08V182.27L67.82,201.12ZM261.11,459.73h53.51V410.6H261.11ZM642,508.07V615.21A26.79,26.79,0,0,1,615.21,642H418.79A26.79,26.79,0,0,1,392,615.21V508.07a26.79,26.79,0,0,1,26.79-26.79h13.39V441.11a84.82,84.82,0,0,1,169.64,0v40.18h13.39A26.79,26.79,0,0,1,642,508.07Zm-97.91,52a26.7,26.7,0,1,0-26.7,26.7A26.7,26.7,0,0,0,544.09,560.11Zm13.09-119a40.18,40.18,0,1,0-80.36,0v40.18h80.36Z"/></svg>