<svg height="280" viewBox="0 0 280 280" width="280" xmlns="http://www.w3.org/2000/svg"><path d="m225.482866 155.391277c20.430751 0 36.993146 16.562396 36.993146 36.993147v17.523987h5.839876c6.451254 0 11.681704 5.228497 11.684112 11.679751v46.727726c0 6.452957-5.231155 11.684112-11.684112 11.684112h-85.666044c-6.452957 0-11.684112-5.231155-11.684112-11.684112v-46.727726c0-6.452957 5.231155-11.684112 11.684112-11.684112h5.839876v-17.519626c0-20.430751 16.562395-36.993147 36.993146-36.993147zm.170094 77.231153c-6.431279 0-11.64486 5.213581-11.64486 11.64486 0 6.431278 5.213581 11.64486 11.64486 11.64486 6.424471 0 11.635235-5.20295 11.644859-11.627415v-.017445c0-6.431279-5.213581-11.64486-11.644859-11.64486zm-69.629284-22.840499c-1.654472 3.715887-2.507473 7.738667-2.503427 11.806231v16.106542h-20.498442c-3.85395 0-6.978193-3.124243-6.978193-6.978193v-13.956386c0-3.85395 3.124243-6.978194 6.978193-6.978194zm-78.8274143-167.476635c3.8539496 0 6.9781931 3.1242434 6.9781931 6.9781931v132.5856699h20.9345792c6.201869 0 9.311527 7.527726 4.941433 11.910903l-34.8909654 41.869159c-2.7247836 2.722998-7.1406371 2.722998-9.8654206 0l-34.8909657-41.869159c-4.3962617-4.3919-1.2647975-11.910903 4.9239875-11.910903h20.9345794v-132.5856699c0-3.8539497 3.1242435-6.9781931 6.9781932-6.9781931zm148.2866043 132.537695c-9.678231 0-17.523987 7.845756-17.523987 17.523987v17.523988h35.047975v-17.523988c0-9.678231-7.845757-17.523987-17.523988-17.523987zm-38.528349-20.886605c-7.619674 7.623129-12.802249 17.338559-14.889719 27.912773h-39.042991c-3.85395 0-6.978193-3.124244-6.978193-6.978193v-13.956387c0-3.853949 3.124243-6.978193 6.978193-6.978193zm29.805608-55.8255449c3.853949 0 6.978193 3.1242439 6.978193 6.9781929v13.956387c0 3.853949-3.124244 6.978193-6.978193 6.978193h-83.738318c-3.85395 0-6.978193-3.124244-6.978193-6.978193v-13.956387c0-3.853949 3.124243-6.9781929 6.978193-6.9781929zm27.912772-55.8255451c3.85395 0 6.978193 3.1242434 6.978193 6.9781931v13.9563863c0 3.8539496-3.124243 6.9781931-6.978193 6.9781931h-111.65109c-3.85395 0-6.978193-3.1242435-6.978193-6.9781931v-13.9563863c0-3.8539497 3.124243-6.9781931 6.978193-6.9781931z"/></svg>