<svg height="642" viewBox="0 0 642 642" width="642" xmlns="http://www.w3.org/2000/svg"><path d="m372.76 459.73h-8.25v-49.13h31.49c-2.514327 9.975024-3.783985 20.222973-3.78 30.51v5.71c-7.1924 3.130968-13.779098 7.500663-19.46 12.91zm147.33-143.4c18.845065.446063 37.340397 5.182756 54.08 13.85v-147.91l-105.5 18.85v39l51.42-1.12zm-452.27-76.17 51.42-1.16v220.73h54.08v-277.46l-105.5 18.85zm193.29 219.57h53.51v-49.13h-53.51zm380.89 155.48c0 14.795708-11.994292 26.79-26.79 26.79h-196.42c-14.795708 0-26.79-11.994292-26.79-26.79v-107.14c0-14.795708 11.994292-26.79 26.79-26.79h13.39v-40.17c0-46.844792 37.975208-84.82 84.82-84.82s84.82 37.975208 84.82 84.82v40.18h13.39c14.791804 0 26.784479 11.988197 26.79 26.78zm-97.91-55.14c0-14.746003-11.953997-26.7-26.7-26.7s-26.7 11.953997-26.7 26.7 11.953997 26.7 26.7 26.7c14.730396 0 26.677932-11.929621 26.7-26.66zm13.09-119c0-22.190801-17.989199-40.18-40.18-40.18s-40.18 17.989199-40.18 40.18v40.18h80.36z"/></svg>