<svg id="Layer_1" data-name="Layer 1" xmlns="http://www.w3.org/2000/svg" viewBox="0 0 642 642"><path d="M369,481H305a16,16,0,0,0-16,16v32a16,16,0,0,0,16,16h64a16,16,0,0,0,16-16V497A16,16,0,0,0,369,481ZM241,417H193V113a16,16,0,0,0-16-16H145a16,16,0,0,0-16,16V417H81c-14.19,0-21.37,17.24-11.29,27.31l80,96a16,16,0,0,0,22.62,0l80-96C262.35,434.26,255.22,417,241,417ZM497,225H305a16,16,0,0,0-16,16v32a16,16,0,0,0,16,16H497a16,16,0,0,0,16-16V241A16,16,0,0,0,497,225ZM433,353H305a16,16,0,0,0-16,16v32a16,16,0,0,0,16,16H433a16,16,0,0,0,16-16V369A16,16,0,0,0,433,353ZM561,97H305a16,16,0,0,0-16,16v32a16,16,0,0,0,16,16H561a16,16,0,0,0,16-16V113A16,16,0,0,0,561,97Z"/></svg>