<svg height="642" viewBox="0 0 642 642" width="642" xmlns="http://www.w3.org/2000/svg"><path d="m289 273v-32c0-8.836556 7.163444-16 16-16h192c8.836556 0 16 7.163444 16 16v32c0 8.836556-7.163444 16-16 16h-192c-8.836556 0-16-7.163444-16-16zm16 144h89.52c4.786271-24.245161 16.669175-46.521256 34.14-64h-123.66c-8.836556 0-16 7.163444-16 16v32c0 8.836556 7.163444 16 16 16zm0-256h256c8.836556 0 16-7.163444 16-16v-32c0-8.836556-7.163444-16-16-16h-256c-8.836556 0-16 7.163444-16 16v32c0 8.836556 7.163444 16 16 16zm47 347.07c-.009278-9.326343 1.946533-18.550002 5.74-27.07h-52.74c-8.836556 0-16 7.163444-16 16v32c0 8.836556 7.163444 16 16 16h47zm-111-91.07h-48v-304c0-8.836556-7.163444-16-16-16h-32c-8.836556 0-16 7.163444-16 16v304h-48c-14.19 0-21.37 17.24-11.29 27.31l80 96c6.247539 6.243446 16.372461 6.243446 22.62 0l80-96c10.02-10.05 2.89-27.31-11.33-27.31zm401 91.07v107.14c0 14.795708-11.994292 26.79-26.79 26.79h-196.42c-14.795708 0-26.79-11.994292-26.79-26.79v-107.14c0-14.795708 11.994292-26.79 26.79-26.79h13.39v-40.17c0-46.844792 37.975208-84.82 84.82-84.82s84.82 37.975208 84.82 84.82v40.18h13.39c14.791804 0 26.784479 11.988197 26.79 26.78zm-97.91 52c0-14.746003-11.953997-26.7-26.7-26.7s-26.7 11.953997-26.7 26.7 11.953997 26.7 26.7 26.7c14.730396 0 26.677932-11.929621 26.7-26.66zm13.09-119c0-22.190801-17.989199-40.18-40.18-40.18s-40.18 17.989199-40.18 40.18v40.18h80.36z"/></svg>