<svg height="280" viewBox="0 0 280 280" width="280" xmlns="http://www.w3.org/2000/svg"><g transform="translate(45.779111 31.781262)"><path d="m30.6577103 37.7493928 50.1392088 50.1392087c-6.1103957 6.1103957-9.889754 14.5518285-9.889754 23.8759785 0 18.648299 15.1174332 33.765732 33.7657319 33.765732 9.32415 0 17.765583-3.779359 23.875978-9.889754l3.69555 3.696699c-2.91331 6.491678-4.533817 13.689547-4.533817 21.265905l-.000264 4.133321-.063525.023494c-10.191714 3.754493-17.460198 13.551885-17.460198 25.046923l.000226 26.487843c-1.825994.094764-3.664369.142734-5.51395.142734-57.8099687 0-104.672897-46.862928-104.672897-104.672897 0-28.9049848 11.7157321-55.0732091 30.6577103-74.0151872z"/><path d="m118.659813.00006076v59.31467464c.016768 5.7739649 4.693325 10.4505223 10.46729 10.4672897h59.314674l.000785 39.5592179c-2.841189-.480851-5.760759-.731227-8.738807-.731227l-.859802.006965c-15.586347.252709-29.505471 7.363877-38.870984 18.447115l-118.782569-118.78060066c.4149276-1.96427291 1.3912737-3.78376469 2.8328098-5.22530085 1.964511-1.96451092 4.6309597-3.06507256 7.409189-3.05813373zm16.616823-.00002982c2.778702-.00675126 5.446085 1.09158277 7.41433 3.05302225l42.697819 42.74143301c1.953999 1.955387 3.052036 4.6063632 3.05296 7.3707165v2.6604362h-55.825546v-55.82560796z"/><path d="m179.703755 123.610016c20.43075 0 36.993146 16.562395 36.993146 36.993146v17.523988h5.839876c6.451254-.000001 11.681704 5.228497 11.684112 11.67975v46.727726c0 6.452957-5.231155 11.684112-11.684112 11.684112h-85.666044c-6.452957 0-11.684112-5.231155-11.684112-11.684112v-46.727726c0-6.452957 5.231155-11.684112 11.684112-11.684112h5.839875v-17.519626c0-20.430751 16.562396-36.993146 36.993147-36.993146zm.170093 77.231152c-6.431278 0-11.64486 5.213582-11.64486 11.64486 0 6.431279 5.213582 11.64486 11.64486 11.64486 6.424472 0 11.635235-5.20295 11.64486-11.627414v-.017446c0-6.431278-5.213581-11.64486-11.64486-11.64486zm-.170093-57.779439c-9.678231 0-17.523988 7.845757-17.523988 17.523988v17.523987h35.047975v-17.523987c0-9.678231-7.845756-17.523988-17.523987-17.523988z"/></g></svg>