<svg id="Layer_1" data-name="Layer 1" xmlns="http://www.w3.org/2000/svg" viewBox="0 0 642 642"><path d="M517.18,441.11v.18h-.36v-.2a.66.66,0,0,1,.13-.16H517A.36.36,0,0,1,517.18,441.11ZM352,559a242.23,242.23,0,0,1-31,2C188.45,561,81,453.55,81,321S188.45,81,321,81,561,188.45,561,321c0,1.1,0,2.19,0,3.29A124.81,124.81,0,0,0,392.18,441.11v5.71A66.89,66.89,0,0,0,352,508.07ZM321,398.42A77.42,77.42,0,1,0,243.58,321,77.51,77.51,0,0,0,321,398.42ZM642,508.07V615.21A26.79,26.79,0,0,1,615.21,642H418.79A26.79,26.79,0,0,1,392,615.21V508.07a26.79,26.79,0,0,1,26.79-26.79h13.39V441.11a84.82,84.82,0,0,1,169.64,0v40.18h13.39A26.79,26.79,0,0,1,642,508.07Zm-97.91,52a26.7,26.7,0,1,0-26.7,26.7A26.7,26.7,0,0,0,544.09,560.11Zm13.09-119a40.18,40.18,0,1,0-80.36,0v40.18h80.36Z"/></svg>