<svg height="280" viewBox="0 0 280 280" width="280" xmlns="http://www.w3.org/2000/svg"><g transform="translate(41.674455 42.141745)"><path d="m20.9345794 153.847352c11.561849 0 20.9345795 9.37273 20.9345795 20.934579s-9.3727305 20.93458-20.9345795 20.93458c-11.56184893 0-20.9345794-9.372731-20.9345794-20.93458s9.37273047-20.934579 20.9345794-20.934579zm146.5424206 6.978137 27.912 27.912-118.6288754.000829c-3.773659 0-6.8476996-2.995423-6.9741468-6.738293l-.0040463-.2399v-13.956387c0-3.853949 3.1242435-6.978193 6.9781931-6.978193zm-146.5424206-76.7600684c11.561849 0 20.9345795 9.3727304 20.9345795 20.9345794s-9.3727305 20.934579-20.9345795 20.934579c-11.56184893 0-20.9345794-9.37273-20.9345794-20.934579s9.37273047-20.9345794 20.9345794-20.9345794zm76.7604206 6.9780685 27.912 27.9119999-48.8468754.000897c-3.773659 0-6.8476996-2.995422-6.9741468-6.738293l-.0040463-.2399v-13.9563861c0-3.8539497 3.1242435-6.9781932 6.9781931-6.9781932zm-76.7604206-76.76h.0010011l20.9335784 20.9345794c0 11.561849-9.3727305 20.9345795-20.9345795 20.9345795-11.56184893 0-20.9345794-9.3727305-20.9345794-20.9345795 0-11.5618489 9.37273047-20.9345794 20.9345794-20.9345794z"/><path d="m131.65109 0v40c0 13.8071 11.193 25 25 25h40l-.000137 105-164.1420002-164.1420625c3.6192875-3.6193125 8.6192875-5.8579375 14.1421375-5.8579375zm15 0 50 50h-40c-5.523 0-10-4.4772-10-10z"/></g></svg>