<svg height="642" viewBox="0 0 642 642" width="642" xmlns="http://www.w3.org/2000/svg"><path d="m225 337v-32c0-8.836556 7.163444-16 16-16h320c8.836556 0 16 7.163444 16 16v26.68c-48.670511-26.738355-109.160602-18.043899-148.33 21.32h-187.67c-8.836556 0-16-7.163444-16-16zm-160 144c0 26.509668 21.490332 48 48 48s48-21.490332 48-48-21.490332-48-48-48-48 21.490332-48 48zm176-288h320c8.836556 0 16-7.163444 16-16v-32c0-8.836556-7.163444-16-16-16h-320c-8.836556 0-16 7.163444-16 16v32c0 8.836556 7.163444 16 16 16zm111 315.07c.0195-24.774799 13.738985-47.507196 35.65-59.07h-146.65c-8.836556 0-16 7.163444-16 16v32c0 8.836556 7.163444 16 16 16h111zm-239-235.07c-26.509668 0-48 21.490332-48 48s21.490332 48 48 48 48-21.490332 48-48-21.490332-48-48-48zm0-160c-26.509668 0-48 21.490332-48 48s21.490332 48 48 48 48-21.490332 48-48-21.490332-48-48-48zm529 395.07v107.14c0 14.795708-11.994292 26.79-26.79 26.79h-196.42c-14.795708 0-26.79-11.994292-26.79-26.79v-107.14c0-14.795708 11.994292-26.79 26.79-26.79h13.39v-40.17c0-46.844792 37.975208-84.82 84.82-84.82s84.82 37.975208 84.82 84.82v40.18h13.39c14.791804 0 26.784479 11.988197 26.79 26.78zm-97.91 52c0-14.746003-11.953997-26.7-26.7-26.7s-26.7 11.953997-26.7 26.7 11.953997 26.7 26.7 26.7c14.730396 0 26.677932-11.929621 26.7-26.66zm13.09-119c0-22.190801-17.989199-40.18-40.18-40.18s-40.18 17.989199-40.18 40.18v40.18h80.36z"/></svg>