<svg height="642" viewBox="0 0 642 642" width="642" xmlns="http://www.w3.org/2000/svg"><path d="m517.18 441.29h-.36v-.2c.034685-.059814.078553-.113805.13-.16h.05c.079919.036077.143923.100081.18.18zm-165.18 117.71c-10.279898 1.329254-20.634518 2-31 2-132.55 0-240-107.45-240-240s107.45-240 240-240 240 107.45 240 240v3.29c-38.34312-14.448449-81.33582-9.156264-115.030337 14.159655s-53.798456 61.685323-53.789663 102.660345v5.71c-24.375986 10.616769-40.149882 34.662342-40.18 61.25zm46.42-238c0-42.757885-34.662115-77.42-77.42-77.42s-77.42 34.662115-77.42 77.42c.049595 42.737325 34.682675 77.370405 77.42 77.42 42.757885 0 77.42-34.662115 77.42-77.42zm243.58 187.07v107.14c0 14.795708-11.994292 26.79-26.79 26.79h-196.42c-14.795708 0-26.79-11.994292-26.79-26.79v-107.14c0-14.795708 11.994292-26.79 26.79-26.79h13.39v-40.17c0-46.844792 37.975208-84.82 84.82-84.82s84.82 37.975208 84.82 84.82v40.18h13.39c14.791804 0 26.784479 11.988197 26.79 26.78zm-97.91 52c0-14.746003-11.953997-26.7-26.7-26.7s-26.7 11.953997-26.7 26.7 11.953997 26.7 26.7 26.7c14.730396 0 26.677932-11.929621 26.7-26.66zm13.09-119c0-22.190801-17.989199-40.18-40.18-40.18s-40.18 17.989199-40.18 40.18v40.18h80.36z"/></svg>