<svg height="280" viewBox="0 0 280 280" width="280" xmlns="http://www.w3.org/2000/svg"><path d="m225.482866 155.391277c20.430751 0 36.993146 16.562396 36.993146 36.993147v17.523987h5.839876c6.451254 0 11.681704 5.228497 11.684112 11.679751v46.727726c0 6.452957-5.231155 11.684112-11.684112 11.684112h-85.666044c-6.452957 0-11.684112-5.231155-11.684112-11.684112v-46.727726c0-6.452957 5.231155-11.684112 11.684112-11.684112h5.839876v-17.519626c0-20.430751 16.562395-36.993147 36.993146-36.993147zm.170094 77.231153c-6.431279 0-11.64486 5.213581-11.64486 11.64486 0 6.431278 5.213581 11.64486 11.64486 11.64486 6.424471 0 11.635235-5.20295 11.644859-11.627415v-.017445c0-6.431279-5.213581-11.64486-11.644859-11.64486zm-85.65296-197.2953272c57.809969 0 104.672897 46.8629284 104.672897 104.6728972v1.434891c-16.722856-6.301504-35.473566-3.993386-50.168994 6.17555-14.695428 10.168937-23.463501 26.903256-23.459666 44.773983v2.490342c-10.631272 4.630367-17.510852 15.117532-17.523988 26.713396v22.212461c-4.483444.579737-8.999478.872274-13.520249.872274-57.8099688 0-104.6728972-46.862928-104.6728972-104.672897 0-57.8099688 46.8629284-104.6728972 104.6728972-104.6728972zm85.482866 139.5158882c-9.678231 0-17.523987 7.845756-17.523987 17.523987v17.523988h35.047975v-17.523988c0-9.678231-7.845757-17.523987-17.523988-17.523987zm-85.482866-68.608723c-18.648299 0-33.765732 15.117433-33.765732 33.765732.02163 18.639332 15.1264 33.744102 33.765732 33.765732 18.648299 0 33.765732-15.117433 33.765732-33.765732s-15.117433-33.765732-33.765732-33.765732z"/></svg>