<svg height="642" viewBox="0 0 642 642" width="642" xmlns="http://www.w3.org/2000/svg"><path d="m113 113c-26.509668 0-48 21.490332-48 48s21.490332 48 48 48 48-21.490332 48-48-21.490332-48-48-48zm0 160c-26.509668 0-48 21.490332-48 48s21.490332 48 48 48 48-21.490332 48-48-21.490332-48-48-48zm-48 208c0 26.509668 21.490332 48 48 48s48-21.490332 48-48-21.490332-48-48-48-48 21.490332-48 48zm496-32h-320c-8.836556 0-16 7.163444-16 16v32c0 8.836556 7.163444 16 16 16h320c8.836556 0 16-7.163444 16-16v-32c0-8.836556-7.163444-16-16-16zm0-320h-320c-8.836556 0-16 7.163444-16 16v32c0 8.836556 7.163444 16 16 16h320c8.836556 0 16-7.163444 16-16v-32c0-8.836556-7.163444-16-16-16zm0 160h-320c-8.836556 0-16 7.163444-16 16v32c0 8.836556 7.163444 16 16 16h320c8.836556 0 16-7.163444 16-16v-32c0-8.836556-7.163444-16-16-16z"/></svg>