<svg height="280" viewBox="0 0 280 280" width="280" xmlns="http://www.w3.org/2000/svg"><g transform="translate(45.779111 31.781262)"><path d="m30.6577103 37.7493928 50.1392088 50.1392087c-6.1103957 6.1103957-9.889754 14.5518285-9.889754 23.8759785 0 18.648299 15.1174332 33.765732 33.7657319 33.765732 9.32415 0 17.765583-3.779359 23.875978-9.889754l50.138217 50.1402c-18.941899 18.941396-45.109715 30.656719-74.014195 30.656719-57.8099687 0-104.672897-46.862928-104.672897-104.672897 0-28.9049848 11.7157321-55.0732091 30.6577103-74.0151872z"/><path d="m118.659813.00006076v59.31467464c.016768 5.7739649 4.693325 10.4505223 10.46729 10.4672897h59.314674l-.000238 105.7509749-167.251139-167.24950466c.3923092-1.85719726 1.2864976-3.58496767 2.6012311-4.986228l.2315787-.23907285c1.964511-1.96451092 4.6309597-3.06507256 7.409189-3.05813373zm16.616823-.00002982c2.778702-.00675126 5.446085 1.09158277 7.41433 3.05302225l42.697819 42.74143301c1.953999 1.955387 3.052036 4.6063632 3.05296 7.3707165v2.6604362h-55.825546v-55.82560796z"/></g></svg>