<svg height="280" viewBox="0 0 280 280" width="280" xmlns="http://www.w3.org/2000/svg"><path d="m225.482866 155.391277c20.430751 0 36.993146 16.562396 36.993146 36.993147v17.523987h5.839876c6.451254 0 11.681704 5.228497 11.684112 11.679751v46.727726c0 6.452957-5.231155 11.684112-11.684112 11.684112h-85.666044c-6.452957 0-11.684112-5.231155-11.684112-11.684112v-46.727726c0-6.452957 5.231155-11.684112 11.684112-11.684112h5.839876v-17.519626c0-20.430751 16.562395-36.993147 36.993146-36.993147zm.170094 77.231153c-6.431279 0-11.64486 5.213581-11.64486 11.64486 0 6.431278 5.213581 11.64486 11.64486 11.64486 6.424471 0 11.635235-5.20295 11.644859-11.627415v-.017445c0-6.431279-5.213581-11.64486-11.644859-11.64486zm-176.3694709-43.775078c11.561849 0 20.9345794 9.37273 20.9345794 20.934579s-9.3727304 20.93458-20.9345794 20.93458-20.9345794-9.372731-20.9345794-20.93458 9.3727304-20.934579 20.9345794-20.934579zm119.7850469 6.978193c-9.556206 5.042968-15.539782 14.957409-15.548287 25.762617v2.150156h-48.411215c-3.853949 0-6.9781929-3.124244-6.9781929-6.978193v-13.956387c0-3.853949 3.1242439-6.978193 6.9781929-6.978193zm56.41433-20.982554c-9.678231 0-17.523987 7.845756-17.523987 17.523987v17.523988h35.047975v-17.523988c0-9.678231-7.845757-17.523987-17.523988-17.523987zm-176.1993769-55.77757c11.561849 0 20.9345794 9.37273 20.9345794 20.934579s-9.3727304 20.934579-20.9345794 20.934579-20.9345794-9.37273-20.9345794-20.934579 9.3727304-20.934579 20.9345794-20.934579zm195.3894079 6.978193c3.85395 0 6.978193 3.124243 6.978193 6.978193v11.636137c-21.227014-11.661588-47.608985-7.869613-64.692211 9.298442h-81.849845c-3.853949 0-6.9781929-3.124243-6.9781929-6.978193v-13.956386c0-3.85395 3.1242439-6.978193 6.9781929-6.978193zm-195.3894079-76.7601249c11.561849 0 20.9345794 9.3727305 20.9345794 20.9345794 0 11.561849-9.3727304 20.9345795-20.9345794 20.9345795s-20.9345794-9.3727305-20.9345794-20.9345795c0-11.5618489 9.3727304-20.9345794 20.9345794-20.9345794zm195.3894079 6.9781931c3.85395 0 6.978193 3.1242435 6.978193 6.9781932v13.9563863c0 3.8539496-3.124243 6.9781931-6.978193 6.9781931h-139.563863c-3.853949 0-6.9781929-3.1242435-6.9781929-6.9781931v-13.9563863c0-3.8539497 3.1242439-6.9781932 6.9781929-6.9781932z"/></svg>