<svg height="280" viewBox="0 0 280 280" width="280" xmlns="http://www.w3.org/2000/svg"><g transform="translate(41.674455 42.141745)"><path d="m20.9345794 153.847352c11.561849 0 20.9345795 9.37273 20.9345795 20.934579s-9.3727305 20.93458-20.9345795 20.93458c-11.56184893 0-20.9345794-9.372731-20.9345794-20.93458s9.37273047-20.934579 20.9345794-20.934579zm93.3566976 25.599065-.000277 9.291072-37.5308754.000829c-3.773659 0-6.8476996-2.995423-6.9741468-6.738293l-.0040463-.2399v-13.956387c0-3.853949 3.1242435-6.978193 6.9781931-6.978193l45.1023274-.000036c-4.685037 4.80805-7.571175 11.377432-7.571175 18.620908zm-93.3566976-95.3809964c11.561849 0 20.9345795 9.3727304 20.9345795 20.9345794s-9.3727305 20.934579-20.9345795 20.934579c-11.56184893 0-20.9345794-9.37273-20.9345794-20.934579s9.37273047-20.9345794 20.9345794-20.9345794zm76.7604206 6.9780685 27.912 27.9119999-48.8468754.000897c-3.773659 0-6.8476996-2.995422-6.9741468-6.738293l-.0040463-.2399v-13.9563861c0-3.8539497 3.1242435-6.9781932 6.9781931-6.9781932zm-76.7594195-76.76 20.9335784 20.9345794c0 11.561849-9.3727305 20.9345795-20.9345795 20.9345795-11.56184893 0-20.9345794-9.3727305-20.9345794-20.9345795 0-11.5618489 9.37273047-20.9345794 20.9345794-20.9345794z"/><path d="m131.65109 0v40c0 13.8071 11.193 25 25 25h40l.000492 34.8478764c-4.107764-1.0436891-8.410694-1.5983437-12.843171-1.5983437l-.859802.0069656c-15.769839.2556839-29.832969 7.5322617-39.199857 18.8401997l-111.2397992-111.2387605c3.6192875-3.6193125 8.6192875-5.8579375 14.1421375-5.8579375zm15 0 50 50h-40c-5.523 0-10-4.4772-10-10z"/><path d="m183.808411 113.249533c20.430751 0 36.993147 16.562396 36.993147 36.993146v17.523988h5.839875c6.451254-.000001 11.681704 5.228497 11.684112 11.67975v46.727726c0 6.452957-5.231155 11.684112-11.684112 11.684112h-85.666044c-6.452957 0-11.684112-5.231155-11.684112-11.684112v-46.727726c0-6.452957 5.231155-11.684112 11.684112-11.684112h5.839876v-17.519626c0-20.43075 16.562396-36.993146 36.993146-36.993146zm.170094 77.231152c-6.431279 0-11.64486 5.213582-11.64486 11.64486 0 6.431279 5.213581 11.64486 11.64486 11.64486 6.424471 0 11.635235-5.20295 11.644859-11.627414v-.017446c0-6.431278-5.213581-11.64486-11.644859-11.64486zm-.170094-57.779439c-9.678231 0-17.523987 7.845757-17.523987 17.523988v17.523987h35.047975v-17.523987c0-9.678231-7.845757-17.523988-17.523988-17.523988z"/></g></svg>