<svg id="Layer_1" data-name="Layer 1" xmlns="http://www.w3.org/2000/svg" viewBox="0 0 642 642"><path d="M225,337V305a16,16,0,0,1,16-16H561a16,16,0,0,1,16,16v26.68A124.61,124.61,0,0,0,428.67,353H241A16,16,0,0,1,225,337ZM113,433a48,48,0,1,0,48,48A48,48,0,0,0,113,433ZM241,193H561a16,16,0,0,0,16-16V145a16,16,0,0,0-16-16H241a16,16,0,0,0-16,16v32A16,16,0,0,0,241,193ZM352,508.07A66.85,66.85,0,0,1,387.65,449H241a16,16,0,0,0-16,16v32a16,16,0,0,0,16,16H352ZM113,273a48,48,0,1,0,48,48A48,48,0,0,0,113,273Zm0-160a48,48,0,1,0,48,48A48,48,0,0,0,113,113ZM642,508.07V615.21A26.79,26.79,0,0,1,615.21,642H418.79A26.79,26.79,0,0,1,392,615.21V508.07a26.79,26.79,0,0,1,26.79-26.79h13.39V441.11a84.82,84.82,0,0,1,169.64,0v40.18h13.39A26.79,26.79,0,0,1,642,508.07Zm-97.91,52a26.7,26.7,0,1,0-26.7,26.7A26.7,26.7,0,0,0,544.09,560.11Zm13.09-119a40.18,40.18,0,1,0-80.36,0v40.18h80.36Z"/></svg>