<svg height="280" viewBox="0 0 280 280" width="280" xmlns="http://www.w3.org/2000/svg"><path d="m49.2834891 188.847352c11.561849 0 20.9345794 9.37273 20.9345794 20.934579s-9.3727304 20.93458-20.9345794 20.93458-20.9345794-9.372731-20.9345794-20.93458 9.3727304-20.934579 20.9345794-20.934579zm195.3894079 6.978193c3.85395 0 6.978193 3.124244 6.978193 6.978193v13.956387c0 3.853949-3.124243 6.978193-6.978193 6.978193h-139.563863c-3.853949 0-6.9781929-3.124244-6.9781929-6.978193v-13.956387c0-3.853949 3.1242439-6.978193 6.9781929-6.978193zm-195.3894079-76.760124c11.561849 0 20.9345794 9.37273 20.9345794 20.934579s-9.3727304 20.934579-20.9345794 20.934579-20.9345794-9.37273-20.9345794-20.934579 9.3727304-20.934579 20.9345794-20.934579zm195.3894079 6.978193c3.85395 0 6.978193 3.124243 6.978193 6.978193v13.956386c0 3.85395-3.124243 6.978193-6.978193 6.978193h-139.563863c-3.853949 0-6.9781929-3.124243-6.9781929-6.978193v-13.956386c0-3.85395 3.1242439-6.978193 6.9781929-6.978193zm-195.3894079-76.7601249c11.561849 0 20.9345794 9.3727305 20.9345794 20.9345794 0 11.561849-9.3727304 20.9345795-20.9345794 20.9345795s-20.9345794-9.3727305-20.9345794-20.9345795c0-11.5618489 9.3727304-20.9345794 20.9345794-20.9345794zm195.3894079 6.9781931c3.85395 0 6.978193 3.1242435 6.978193 6.9781932v13.9563863c0 3.8539496-3.124243 6.9781931-6.978193 6.9781931h-139.563863c-3.853949 0-6.9781929-3.1242435-6.9781929-6.9781931v-13.9563863c0-3.8539497 3.1242439-6.9781932 6.9781929-6.9781932z"/></svg>