<svg id="Layer_1" data-name="Layer 1" xmlns="http://www.w3.org/2000/svg" viewBox="0 0 642 642"><path d="M427.73,354v-2.4q0-41.13,21.33-67.51t61.13-26.37q33.51,0,53.23,21.52,19.06,20.82,19.13,55.72a124,124,0,0,0-52.78-18,37.87,37.87,0,0,0-2.53-5.78q-5.62-10.24-17-10.24-16.19,0-22.28,13.73a54.31,54.31,0,0,0-2.11,5.59A124.87,124.87,0,0,0,427.73,354Zm-214,87.67a154.26,154.26,0,0,0,6.47,25.9h-53.7a92.18,92.18,0,0,1-4.09-11.24,91.24,91.24,0,0,1-2.76-12.38A64.41,64.41,0,0,1,141,464a43.81,43.81,0,0,1-25.42,7.52q-25.52,0-40.85-16.76T59.44,410q0-30.28,19.52-47t58-16.76h20.38V329.47q0-15-5.43-23.14t-16.28-8.09q-9.14,0-13.71,6.47t-4.57,18.85L65,323.38l-.57-1.14q-1-26.85,19.9-45.7t54.94-18.85q32.18,0,52.27,18.76t20.09,53.42v83.41A180.24,180.24,0,0,0,213.68,441.64Zm-56.37-64.37H136.94q-12.38,0-17.9,8.57t-5.52,21.71q0,10.28,4.76,16.76a15.22,15.22,0,0,0,12.95,6.47,27.85,27.85,0,0,0,15.14-4.38,32.51,32.51,0,0,0,11-11.24ZM517,440.93h-.05a.67.67,0,0,0-.13.16v.2h.37v-.18a.36.36,0,0,0-.16-.19ZM366.72,466.31a67.13,67.13,0,0,1-27.16,5.22q-14.47,0-25.23-6.67T296,445.45l-3.24,22.09H245.87V170.47h54.08V279a52.17,52.17,0,0,1,17-15.81,44.43,44.43,0,0,1,22.19-5.52q33.51,0,50.84,25.8t17.33,68.84v28c0,.41,0,.81,0,1.21a124.06,124.06,0,0,0-15.16,59.57v2.55q-1,1.59-2.06,3.12c-.37.53-.76,1-1.15,1.55A67.21,67.21,0,0,0,366.72,466.31Zm-13.26-86.06v-28q0-24.22-6-37.76t-22.18-13.54a25.63,25.63,0,0,0-15,4.39,32.32,32.32,0,0,0-10.28,12.4V414a25.59,25.59,0,0,0,10.19,10.58,31.21,31.21,0,0,0,15.33,3.53q16.38,0,22.19-12.11T353.46,380.25ZM642,508.07V615.21A26.79,26.79,0,0,1,615.21,642H418.79A26.79,26.79,0,0,1,392,615.21V508.07a26.79,26.79,0,0,1,26.79-26.79h13.39V441.11a84.82,84.82,0,0,1,169.64,0v40.18h13.39A26.79,26.79,0,0,1,642,508.07Zm-97.91,52a26.7,26.7,0,1,0-26.7,26.7A26.7,26.7,0,0,0,544.09,560.11Zm13.09-119a40.18,40.18,0,1,0-80.36,0v40.18h80.36Z"/></svg>