<svg height="280" viewBox="0 0 280 280" width="280" xmlns="http://www.w3.org/2000/svg"><path d="m130.876012 74.4922118v47.3426792c1.922186-2.82614 4.456367-5.182928 7.414331-6.895327 2.971425-1.642804 6.322344-2.476021 9.717134-2.4162 9.743302 0 17.134371 3.750779 22.173208 11.252337s7.558256 17.50945 7.558256 30.023676v12.216199c0 12.124611-2.504881 21.786501-7.514642 28.98567s-12.360125 10.798754-22.05109 10.798754c-4.207269 0-7.875182-.969678-11.003739-2.909034-3.128556-1.939356-5.800623-4.762617-8.016199-8.469782l-1.413084 9.634268h-20.450467v-129.5632402zm91.710904 38.0311522c9.743302 0 17.481828 3.128557 23.215576 9.38567 5.733749 6.257113 8.516303 14.700727 8.347664 25.330841l-.165732.436137h-21.523365c0-4.896365-.81703-8.833229-2.45109-11.810591-1.63406-2.977363-4.105504-4.466044-7.41433-4.466044-4.707373 0-7.946418 1.996054-9.717134 5.988162-1.770717 3.992108-2.657529 9.337695-2.660436 16.03676v11.566355c0 6.876428.885358 12.255452 2.656074 16.137072 1.770717 3.88162 5.063552 5.820976 9.878505 5.818068 3.198339 0 5.620353-1.190654 7.266044-3.571962 1.64569-2.381309 2.459813-5.813707 2.442367-10.297196h21.427415l.248598.497196c.165732 9.414745-2.727311 17.138733-8.679128 23.171962-5.951817 6.03323-13.523157 9.051298-22.714019 9.054206-11.630322 0-20.558048-3.792939-26.783177-11.378816-6.22513-7.585878-9.339149-17.385878-9.342056-29.4v-11.544548c0-11.958879 3.100934-21.773417 9.302803-29.443614s15.090343-11.50675 26.665421-11.509658zm-161.7850468 0c9.3565939 0 16.9555555 2.727311 22.7968847 8.181932s8.7619938 13.220768 8.7619938 23.298442v36.382555c-.0233034 4.146343.2814898 8.28803.9115264 12.386293.6124142 3.839784 1.556551 7.61925 2.8218069 11.29595l-23.4161994-.013084c-.7001004-1.59372-1.2959547-3.231226-1.7838006-4.902181-.5260128-1.769689-.9282305-3.57384-1.2037383-5.399377-2.0411155 3.466924-4.8030979 6.454981-8.0990654 8.761994-3.2681677 2.211911-7.141049 3.357626-11.0866044 3.279751-7.4201454 0-13.3588785-2.436553-17.8161994-7.309658s-6.6859813-11.377362-6.6859813-19.512772c0-8.804154 2.8377986-15.636968 8.5133957-20.498443 5.675597-4.861474 14.1075804-7.298027 25.2959501-7.309657h8.8797508v-7.322741c0-4.361371-.7894081-7.725442-2.3682243-10.092212-1.5788162-2.366771-3.9455867-3.542887-7.1003115-3.528349-2.6575286 0-4.650675.940602-5.9794393 2.821807-1.3287643 1.881204-1.9931464 4.621599-1.9931464 8.221184l-22.8404985-.082867-.2485981-.497196c-.290758-7.806853 2.6022845-14.450675 8.6791277-19.931464s14.0639668-8.224091 23.9613708-8.229907zm7.9115264 52.161994h-8.9102803c-3.5995847 0-6.2018692 1.245898-7.8068536 3.737695-1.6049844 2.491796-2.4074767 5.647975-2.4074767 9.468536 0 2.988993.6920042 5.425545 2.0760125 7.309657 1.2852041 1.834691 3.4090558 2.897436 5.6479751 2.826168 2.3390599.01232 4.631927-.651007 6.6031153-1.91028 1.9762702-1.216799 3.6236402-2.900112 4.7975077-4.902181zm66.6897194-31.388785c-1.933226 1.389063-3.483176 3.245101-4.505296 5.395016v42.004361c.99864 1.939376 2.543718 3.543589 4.444237 4.61433 2.060646 1.075654 4.362424 1.605678 6.685981 1.539564 4.762617 0 7.988578-1.76054 9.677882-5.28162s2.533956-8.719834 2.533956-15.596261l-.004361-12.2162c0-7.04216-.872274-12.531672-2.616822-16.468536-1.744549-3.936864-4.969055-5.905296-9.673521-5.905296-2.326839-.058459-4.613892.610885-6.542056 1.914642z"/></svg>