<svg height="642" viewBox="0 0 642 642" width="642" xmlns="http://www.w3.org/2000/svg"><path d="m427.73 351.6c0-27.42 7.11-49.923333 21.33-67.51s34.596667-26.376667 61.13-26.370008c22.34 0 40.083333 7.173341 53.23 21.520008 12.706667 13.88 19.083333 32.453333 19.13 55.72-15.99849-9.929501-34.048208-16.085146-52.78-18-.681086-1.993688-1.527356-3.927063-2.53-5.78-3.746667-6.826667-9.413333-10.24-17-10.24-10.793333 0-18.22 4.576667-22.28 13.73-.805376 1.823203-1.509775 3.68936-2.11 5.59-22.092594 5.72414-42.193962 17.393447-58.12 33.74zm-214 90.07c1.404178 8.804077 3.568949 17.469852 6.47 25.9h-53.7c-1.60523-3.654171-2.971439-7.40874-4.09-11.24-1.206072-4.057645-2.1283-8.194305-2.76-12.38-4.707729 7.942817-11.068111 14.780654-18.65 20.05-7.493442 5.071597-16.373405 7.698557-25.42 7.52-17.0133333 0-30.63-5.586667-40.85-16.76s-15.3166667-26.093333-15.2901041-44.76c0-20.186667 6.5067708-35.853333 19.5201041-47s32.346667-16.733333 58-16.76h20.38v-16.77c0-10-1.81-17.713333-5.43-23.14s-9.046667-8.123333-16.28-8.09c-6.093333 0-10.663333 2.156667-13.71 6.47s-4.57 10.596667-4.57 18.85l-52.35-.18-.57-1.14c-.6666667-17.9 5.9666667-33.133333 19.9-45.7s32.246667-18.85 54.94-18.85c21.453333 0 38.876667 6.253333 52.27 18.76s20.09 30.313333 20.09 53.42v83.41c-.064558 9.492567.620908 18.975401 2.05 28.36zm-56.37-64.37h-20.42c-8.253333 0-14.22 2.856667-17.9 8.57s-5.52 12.95-5.52 21.71c0 6.853333 1.586667 12.44 4.76 16.76 2.949054 4.202893 7.818354 6.635663 12.95 6.47 5.36313.028246 10.620347-1.492666 15.14-4.38 4.531305-2.789947 8.308489-6.649542 11-11.24zm359.64 63.63h-.05c-.051328.046307-.09518.100279-.13.16v.2h.37v-.18c-.029103-.08031-.085814-.147655-.16-.19zm-150.28 25.38c-8.592877 3.606309-17.842484 5.384031-27.16 5.22-9.646667 0-18.056667-2.223333-25.23-6.67s-13.283333-10.916667-18.33-19.41l-3.24 22.09h-46.89v-297.07h54.08v108.53c4.407296-6.479935 10.217811-11.883714 17-15.81 6.788393-3.744464 14.438417-5.647489 22.19-5.52 22.34 0 39.286667 8.6 50.84 25.8s17.33 40.146667 17.33 68.84v28 1.21c-9.970463 18.270546-15.183818 38.756004-15.16 59.57v2.55c-.666667 1.06-1.353333 2.1-2.06 3.12-.37.53-.76 1-1.15 1.55-8.612108 4.336628-16.190278 10.47556-22.22 18zm-13.26-86.06v-28c0-16.146667-2-28.733333-6-37.76s-11.393333-13.54-22.18-13.54c-5.33511-.134039-10.578996 1.400672-15 4.39-4.418211 3.199555-7.954698 7.465356-10.28 12.4v96.26c2.289737 4.446712 5.832381 8.124943 10.19 10.58 4.724766 2.466319 10.002414 3.68159 15.33 3.53 10.92 0 18.316667-4.036667 22.19-12.11s5.79-19.99 5.75-35.75zm288.54 127.82v107.14c0 14.795708-11.994292 26.79-26.79 26.79h-196.42c-14.795708 0-26.79-11.994292-26.79-26.79v-107.14c0-14.795708 11.994292-26.79 26.79-26.79h13.39v-40.17c0-46.844792 37.975208-84.82 84.82-84.82s84.82 37.975208 84.82 84.82v40.18h13.39c14.791804 0 26.784479 11.988197 26.79 26.78zm-97.91 52c0-14.746003-11.953997-26.7-26.7-26.7s-26.7 11.953997-26.7 26.7 11.953997 26.7 26.7 26.7c14.730396 0 26.677932-11.929621 26.7-26.66zm13.09-119c0-22.190801-17.989199-40.18-40.18-40.18s-40.18 17.989199-40.18 40.18v40.18h80.36z"/></svg>