<svg height="642" viewBox="0 0 642 642" width="642" xmlns="http://www.w3.org/2000/svg"><path d="m321.46 72.81c-137 0-248 111-248 248s111 248 248 248 248-111 248-248-111-248-248-248zm92.49 313-20 25c-2.650716 3.314059-6.509441 5.439306-10.727197 5.908154-4.217757.468848-8.449003-.757113-11.762804-3.408154l-67-49.72c-9.482738-7.592267-15.00152-19.082373-15-31.23v-155.55c0-8.836556 7.163445-16 16-16h32c8.836557 0 16 7.163444 16 16v144l58 42.5c3.31406 2.650716 5.439307 6.509441 5.908155 10.727197.468848 4.217757-.757113 8.449003-3.408155 11.762803z"/></svg>