<svg height="280" viewBox="0 0 280 280" width="280" xmlns="http://www.w3.org/2000/svg"><path d="m140.200623 31.7551402c59.750779 0 108.161994 48.4112149 108.161994 108.1619938 0 59.750779-48.411215 108.161994-108.161994 108.161994-59.7507788 0-108.1619937-48.411215-108.1619937-108.161994 0-59.7507789 48.4112149-108.1619938 108.1619937-108.1619938zm6.978193 38.3800623h-13.956386c-3.85395 0-6.978194 3.1242435-6.978194 6.9781931v67.8411214c-.000663 5.298031 2.406283 10.309292 6.542057 13.620561l29.221184 21.684735c1.445271 1.156217 3.290674 1.690904 5.130194 1.486422s3.522453-1.13138 4.678528-2.576765l8.722742-10.903426c1.160578-1.449633 1.695265-3.295036 1.490783-5.134556s-1.13138-3.522453-2.576764-4.678528l-25.295951-18.535826v-62.8037384c0-3.8539496-3.124243-6.9781931-6.978193-6.9781931z"/></svg>