<svg height="280" viewBox="0 0 280 280" width="280" xmlns="http://www.w3.org/2000/svg"><path d="m225.482866 155.391277c20.430751 0 36.993146 16.562396 36.993146 36.993147v17.523987h5.839876c6.451254 0 11.681704 5.228497 11.684112 11.679751v46.727726c0 6.452957-5.231155 11.684112-11.684112 11.684112h-85.666044c-6.452957 0-11.684112-5.231155-11.684112-11.684112v-46.727726c0-6.452957 5.231155-11.684112 11.684112-11.684112h5.839876v-17.519626c0-20.430751 16.562395-36.993147 36.993146-36.993147zm.170094 77.231153c-6.431279 0-11.64486 5.213581-11.64486 11.64486 0 6.431278 5.213581 11.64486 11.64486 11.64486 6.424471 0 11.635235-5.20295 11.644859-11.627415v-.017445c0-6.431279-5.213581-11.64486-11.644859-11.64486zm-85.65296-200.7844238c59.750779 0 108.161994 48.411215 108.161994 108.1619938 0 .962409-.013084 1.921911-.039253 2.878505-23.752461-10.874801-51.881454-3.327105-66.999377 17.97757-.448239-.899818-1.086641-1.691497-1.871028-2.320249l-25.29595-18.535826v-62.8037383c0-3.8539497-3.124243-6.9781932-6.978193-6.9781932h-13.956386c-3.85395 0-6.978193 3.1242435-6.978193 6.9781932v67.8411213c-.000664 5.298031 2.406282 10.309292 6.542056 13.620561l29.221184 21.684735c1.445271 1.156217 3.290674 1.690904 5.130194 1.486422s3.522453-1.13138 4.678528-2.576765l1.530841-1.94081c-1.404492 4.899285-2.112166 9.971921-2.10218 15.068536v2.490343c-10.633484 4.630095-17.51372 15.11997-17.523988 26.717757v25.736449c-4.485098.558433-9.000519.837383-13.520249.837383-59.7507788 0-108.1619938-48.411215-108.1619938-108.161994 0-59.7507788 48.411215-108.1619938 108.1619938-108.1619938zm85.482866 143.0049848c-9.678231 0-17.523987 7.845756-17.523987 17.523987v17.523988h35.047975v-17.523988c0-9.678231-7.845757-17.523987-17.523988-17.523987z"/></svg>