<svg id="Layer_1" data-name="Layer 1" xmlns="http://www.w3.org/2000/svg" viewBox="0 0 642 642"><path d="M166.64,467.87a92.18,92.18,0,0,1-4.09-11.24,91.24,91.24,0,0,1-2.76-12.38,64.41,64.41,0,0,1-18.57,20.09,43.81,43.81,0,0,1-25.42,7.52q-25.52,0-40.85-16.76T59.62,410.36q0-30.28,19.52-47t58-16.76H157.5V329.81q0-15-5.43-23.14t-16.28-8.09q-9.14,0-13.71,6.47t-4.57,18.85l-52.37-.19-.57-1.14q-1-26.85,19.9-45.7T139.41,258q32.18,0,52.27,18.76t20.09,53.42V413.6A180.24,180.24,0,0,0,213.86,442a154.26,154.26,0,0,0,6.47,25.9Zm-35.23-36.75a27.85,27.85,0,0,0,15.14-4.38,32.51,32.51,0,0,0,11-11.24v-37.9H137.12q-12.38,0-17.9,8.57t-5.52,21.71q0,10.28,4.76,16.76A15.22,15.22,0,0,0,131.41,431.12Z"/><path d="M407.53,380.65q0,41.7-17.23,66.46t-50.56,24.76q-14.47,0-25.23-6.67t-18.38-19.42l-3.24,22.09H246V170.8h54.08V279.35a52.17,52.17,0,0,1,17-15.81A44.43,44.43,0,0,1,339.36,258q33.51,0,50.84,25.8t17.33,68.84Zm-53.89-28.11q0-24.22-6-37.76t-22.18-13.54a25.63,25.63,0,0,0-15,4.39A32.32,32.32,0,0,0,300.13,318v96.31a25.59,25.59,0,0,0,10.19,10.58,31.21,31.21,0,0,0,15.33,3.53q16.38,0,22.19-12.11t5.81-35.76Z"/><path d="M510.74,428.64q11,0,16.66-8.19T533,396.84h49.13l.57,1.14q.57,32.38-19.9,53.13t-52.08,20.76q-40,0-61.41-26.09t-21.42-67.41V351.9q0-41.13,21.33-67.51T510.36,258q33.51,0,53.23,21.52t19.14,58.08l-.38,1H533q0-16.84-5.62-27.08t-17-10.24q-16.19,0-22.28,13.73T482,351.78V378.3q0,23.65,6.09,37T510.74,428.64Z"/></svg>