<svg height="280" viewBox="0 0 280 280" width="280" xmlns="http://www.w3.org/2000/svg"><path d="m225.482866 155.391277c20.430751 0 36.993146 16.562396 36.993146 36.993147v17.523987h5.839876c6.451254 0 11.681704 5.228497 11.684112 11.679751v46.727726c0 6.452957-5.231155 11.684112-11.684112 11.684112h-85.666044c-6.452957 0-11.684112-5.231155-11.684112-11.684112v-46.727726c0-6.452957 5.231155-11.684112 11.684112-11.684112h5.839876v-17.519626c0-20.430751 16.562395-36.993147 36.993146-36.993147zm.170094 77.231153c-6.431279 0-11.64486 5.213581-11.64486 11.64486 0 6.431278 5.213581 11.64486 11.64486 11.64486 6.424471 0 11.635235-5.20295 11.644859-11.627415v-.017445c0-6.431279-5.213581-11.64486-11.644859-11.64486zm-.170094-57.779439c-9.678231 0-17.523987 7.845756-17.523987 17.523987v17.523988h35.047975v-17.523988c0-9.678231-7.845757-17.523987-17.523988-17.523987zm-94.663551-100.4947044v47.3339564c1.922185-2.82614 4.456366-5.182928 7.41433-6.895327 2.96067-1.6331 6.297129-2.46308 9.677881-2.407477 9.743303 0 17.134372 3.750779 22.173209 11.252337 5.038837 7.501557 7.558256 17.509449 7.558256 30.023676v12.739564c-4.348489 7.968462-6.622226 16.90293-6.611838 25.980685v1.112149c-.290758.462306-.590239.915888-.898443 1.360748-.16137.231153-.331464.436137-.501557.676013-3.75606 1.891364-7.061181 4.56878-9.690966 7.850467-3.747672 1.572845-7.781769 2.348176-11.845483 2.276635-4.207269 0-7.875182-.969678-11.003738-2.909034-3.128557-1.939356-5.793354-4.761163-7.994393-8.46542l-1.413084 9.634267h-20.450467v-129.5632394zm-70.078505 38.0398754c9.3565939 0 16.9555555 2.72731 22.7968847 8.181931s8.7619938 13.220769 8.7619938 23.298443v36.378193c-.0281561 4.140061.270801 8.275876.894081 12.368847l.0218068.013084c.6124142 3.839785 1.556551 7.619251 2.8218069 11.295951h-23.4205608c-.7001004-1.59372-1.2959546-3.231227-1.7838006-4.902181-.5260128-1.769689-.9282305-3.57384-1.2037383-5.399377-2.0532151 3.464157-4.8272135 6.446391-8.1339564 8.744548-3.2681677 2.211912-7.141049 3.357626-11.0866044 3.279751-7.4201453 0-13.3588785-2.436552-17.8161993-7.309657-4.4573209-4.873105-6.6801662-11.38027-6.6685813-19.521496 0-8.804153 2.837844-15.636967 8.5134411-20.498442s14.1075805-7.298027 25.2959501-7.309657h8.8884736v-7.314019c0-4.361371-.7894081-7.725441-2.3682243-10.092212-1.5788162-2.36677-3.9455868-3.542887-7.1003116-3.528349-2.6575285 0-4.6506749.940603-5.9794392 2.821807-1.3287643 1.881205-1.9931464 4.621599-1.9931464 8.221184l-22.8317757-.078505-.2485982-.497196c-.290758-7.806854 2.6022846-14.450675 8.6791278-19.931464s14.0639667-8.221184 23.9613707-8.221184zm7.8897196 52.166355h-8.905919c-3.5995846 0-6.2018692 1.245898-7.8068536 3.737695-1.6049844 2.491796-2.4074766 5.647975-2.4074766 9.468536 0 2.988992.6920041 5.425545 2.0760124 7.309657 1.2861918 1.833037 3.4098742 2.894059 5.6479751 2.821807 2.3390599.012319 4.631927-.651007 6.6031153-1.910281 1.9762703-1.216799 3.6236402-2.900111 4.7975078-4.90218zm66.6940814-31.384424c-1.926946 1.395445-3.469339 3.255919-4.48349 5.4081v41.982555c.99864 1.939376 2.543718 3.543588 4.444237 4.61433 2.060646 1.075653 4.362424 1.605678 6.685982 1.539564 4.762616 0 7.988577-1.76054 9.677881-5.28162s2.525234-8.71838 2.507788-15.591901v-12.211838c0-7.042159-.872274-12.531671-2.616822-16.468535s-4.969055-5.905296-9.67352-5.905296c-2.32684-.05846-4.613892.610885-6.542056 1.914641zm87.188162-20.76885c9.743302 0 17.481827 3.12856 23.215576 9.385673 5.541848 6.053582 8.322949 14.154102 8.343302 24.301558-6.977535-4.330624-14.849686-7.015329-23.019315-7.850468-.297047-.869521-.666136-1.712738-1.103426-2.520872-1.634061-2.977362-4.105504-4.466044-7.414331-4.466044-4.707372 0-7.946417 1.996054-9.717134 5.988162-.351254.795167-.658469 1.609067-.920249 2.438007-9.635399 2.496509-18.402351 7.585927-25.348286 14.715264v-1.046729c0-11.958878 3.100934-21.773416 9.302803-29.443613 6.20187-7.670198 15.088889-11.503842 26.66106-11.500938z"/></svg>