<svg id="Layer_1" data-name="Layer 1" xmlns="http://www.w3.org/2000/svg" viewBox="0 0 642 642"><path d="M517.18,441.11v.18h-.37v-.2a.68.68,0,0,1,.13-.16H517A.36.36,0,0,1,517.18,441.11ZM352,508.07a66.88,66.88,0,0,1,40.18-61.26v-5.71A124.49,124.49,0,0,1,397,406.55L393.49,411A16,16,0,0,1,371,413.5h0l-67-49.72a40,40,0,0,1-15-31.23V177a16,16,0,0,1,16-16h32a16,16,0,0,1,16,16V321l58,42.5a15.91,15.91,0,0,1,4.29,5.32A124.71,124.71,0,0,1,568.91,327.6q.09-3.29.09-6.6C569,184,458,73,321,73S73,184,73,321,184,569,321,569a250.58,250.58,0,0,0,31-1.92Zm290,0V615.21A26.79,26.79,0,0,1,615.21,642H418.79A26.79,26.79,0,0,1,392,615.21V508.07a26.79,26.79,0,0,1,26.79-26.79h13.39V441.11a84.82,84.82,0,0,1,169.64,0v40.18h13.39A26.79,26.79,0,0,1,642,508.07Zm-97.91,52a26.7,26.7,0,1,0-26.7,26.7A26.7,26.7,0,0,0,544.09,560.11Zm13.09-119a40.18,40.18,0,1,0-80.36,0v40.18h80.36Z"/></svg>