<svg id="Layer_1" data-name="Layer 1" xmlns="http://www.w3.org/2000/svg" viewBox="0 0 642 642"><polygon points="344.97 416.86 344.97 273.07 416.86 273.07 416.86 225.14 225.14 225.14 225.14 273.07 297.03 273.07 297.03 416.86 344.97 416.86"/><path d="M352.63,464.8H129.27V177.2H512.73v55.89c1.52-.06,3-.09,4.59-.09a124,124,0,0,1,43.35,7.78V177.2a47.93,47.93,0,0,0-47.93-47.93H129.27A47.93,47.93,0,0,0,81.34,177.2V464.8a47.93,47.93,0,0,0,47.93,47.93H352.63Z"/><path d="M517.22,357.63v.05h.17v-.08l-.08-.08h0S517.24,357.6,517.22,357.63Z"/><path d="M615.28,397.69H601.92V357.61a84.61,84.61,0,0,0-169.22,0v40.08H419.34a26.73,26.73,0,0,0-26.72,26.72V531.28A26.73,26.73,0,0,0,419.34,558H615.28A26.73,26.73,0,0,0,642,531.28V424.41A26.73,26.73,0,0,0,615.28,397.69ZM517.7,503a26.64,26.64,0,1,1,26.64-26.64A26.64,26.64,0,0,1,517.7,503Zm39.69-105.27H477.23V357.61a40.08,40.08,0,0,1,80.16,0Z"/></svg>