<svg height="642" viewBox="0 0 642 642" width="642" xmlns="http://www.w3.org/2000/svg"><g fill="#000" fill-rule="nonzero"><path d="m344.97 273.07h71.89v-47.93h-191.72v47.93h71.89v143.79h47.94z"/><path d="m352.63 464.8h-223.36v-287.6h383.46v55.89c1.52-.06 3-.09 4.59-.09 14.798477-.014194 29.480009 2.620692 43.35 7.78v-63.58c0-26.471008-21.458992-47.93-47.93-47.93h-383.47c-26.471008 0-47.93 21.458992-47.93 47.93v287.6c0 26.471008 21.458992 47.93 47.93 47.93h223.36z"/><path d="m517.22 357.63v.05h.17v-.08l-.08-.08s-.07.08-.09.11z"/><path d="m601.92 397.69v-40.08c0-46.728813-37.881187-84.61-84.61-84.61s-84.61 37.881187-84.61 84.61v40.08h-13.36c-14.754762.005519-26.714481 11.965238-26.72 26.72v106.87c.005519 14.754762 11.965238 26.714481 26.72 26.72h195.94c14.754762-.005519 26.714481-11.965238 26.72-26.72v-106.87c-.005519-14.754762-11.965238-26.714481-26.72-26.72zm-84.22 105.31c-14.712866 0-26.64-11.927134-26.64-26.64s11.927134-26.64 26.64-26.64 26.64 11.927134 26.64 26.64-11.927134 26.64-26.64 26.64zm39.69-105.27h-80.16v-40.12c0-22.135572 17.944428-40.079998 40.08-40.079998s40.08 17.944426 40.08 40.079998z"/></g></svg>