<svg height="280" viewBox="0 0 280 280" width="280" xmlns="http://www.w3.org/2000/svg"><path d="m225.482866 155.391277c20.430751 0 36.993146 16.562396 36.993146 36.993147v17.523987h5.839876c6.451254 0 11.681704 5.228497 11.684112 11.679751v46.727726c0 6.452957-5.231155 11.684112-11.684112 11.684112h-85.666044c-6.452957 0-11.684112-5.231155-11.684112-11.684112v-46.727726c0-6.452957 5.231155-11.684112 11.684112-11.684112h5.839876v-17.519626c0-20.430751 16.562395-36.993147 36.993146-36.993147zm.170094 77.235514c-6.431279 0-11.64486 5.213582-11.64486 11.64486 0 6.431279 5.213581 11.64486 11.64486 11.64486 6.426172 0 11.637639-5.205608 11.644859-11.631776v-.013084c0-6.431278-5.213581-11.64486-11.644859-11.64486zm-64.631153-176.3651088c5.529061 0 10.831667 2.1964112 14.741304 6.1060481s6.106048 9.2122424 6.106048 14.741304v82.7264797c-7.03893 9.388895-10.837829 20.810082-10.824922 32.544548v2.490343c-10.633484 4.630095-17.51372 15.11997-17.523988 26.717757v2.150156h-118.2803736c-11.5136746 0-20.847352-9.333678-20.847352-20.847352v-125.7819317c0-11.5136746 9.3336774-20.8473521 20.847352-20.8473521zm64.461059 118.5856698c-9.678231 0-17.523987 7.845756-17.523987 17.523988v17.523987h35.047975v-17.523987c0-9.678232-7.845757-17.523988-17.523988-17.523988zm18.143302-102.1433022c9.28972-6.3676012 21.981309.1744549 21.981309 11.2523365v71.6791277c-10.293903-11.274282-24.857855-17.695085-40.124611-17.68972-10.532466-.01199-20.839523 3.049812-29.657321 8.809969v-41.079751z"/></svg>