<svg id="Layer_1" data-name="Layer 1" xmlns="http://www.w3.org/2000/svg" viewBox="0 0 642 642"><path d="M352,513H80.8A47.8,47.8,0,0,1,33,465.2V176.8A47.8,47.8,0,0,1,80.8,129H369.2A47.8,47.8,0,0,1,417,176.8V366.48a124.17,124.17,0,0,0-24.82,74.62v5.71A66.88,66.88,0,0,0,352,508.07ZM517,316.29a124.52,124.52,0,0,1,92,40.56V192.5c0-25.4-29.1-40.4-50.4-25.8L449,242.3v94.19A124.08,124.08,0,0,1,517,316.29Zm0,124.64h-.07a.67.67,0,0,0-.13.16v.2h.37v-.18A.36.36,0,0,0,517,440.92Zm125,67.15V615.21A26.79,26.79,0,0,1,615.21,642H418.79A26.79,26.79,0,0,1,392,615.21V508.07a26.79,26.79,0,0,1,26.79-26.79h13.39V441.11a84.82,84.82,0,0,1,169.64,0v40.18h13.39A26.79,26.79,0,0,1,642,508.07Zm-97.91,52a26.7,26.7,0,1,0-26.7,26.7A26.7,26.7,0,0,0,544.09,560.11Zm13.09-119a40.18,40.18,0,1,0-80.36,0v40.18h80.36Z"/></svg>