<svg height="1200" viewBox="0 0 1200 1200" width="1200" xmlns="http://www.w3.org/2000/svg"><path d="m840.000001 570.61511c-15.977519-5.580609-33.140317-8.61511-51.000001-8.61511-3.018406 0-6.016907.086675-8.993145.257668l-.006855-82.257668h-120v-120h-240v480h210.6989c-29.052792 15.666329-52.817387 35.978256-70.047482 60h-140.651418c-33.09 0-60-26.91-60-60v-480c0-33.06 26.91-60 60-60h282.42l137.58 137.58v133.035104zm-159.839265 36.116894c-15.835579 15.632262-28.330431 34.640956-36.304935 55.846462-7.340658 7.533615-10.974232 11.883209-13.910453 16.837117-3.657504 6.170837-5.470739 12.561414-5.470739 20.786918h-50c0-17.355864 4.30293-32.521134 12.458339-46.280709 5.879502-9.919729 11.945532-16.966415 23.436982-28.606911.334998-.339344 2.239146-2.265403 2.776173-2.809874 14.756271-14.960795 18.701553-21.484892 18.701553-32.48024 0-11.403985-3.487602-19.540009-9.568625-25.046122-5.62097-5.089554-13.672391-7.994655-22.308668-7.978579-8.648097.016097-16.735608 2.960313-22.389113 8.086341-6.095874 5.527124-9.58125 13.637567-9.58125 24.93836h-50c0-25.211614 9.291837-46.833645 25.996143-61.979426 15.105398-13.696053 35.187041-21.006669 55.881151-21.045189 20.724201-.038576 40.83449 7.217585 55.961595 20.914548 16.722538 15.141562 26.008767 36.804867 26.008767 62.110067 0 5.811636-.570514 11.368952-1.68692 16.707237zm-81.160736 184.267996c-16.568542 0-30-13.431458-30-30s13.431458-30 30-30 30 13.431458 30 30-13.431458 30-30 30zm190 31c-57.9075 0-105-47.0925-105-105s47.0925-105 105-105 105 47.0925 105 105-47.0925 105-105 105zm210 209.75h-420v-26.25c0-92.74125 86.3625-157.5 210-157.5 123.66375 0 210 64.75875 210 157.5z" fill-rule="evenodd"/></svg>