<?xml version="1.0" encoding="UTF-8"?>
<svg width="1200px" height="1200px" viewBox="0 0 1200 1200" version="1.1" xmlns="http://www.w3.org/2000/svg" xmlns:xlink="http://www.w3.org/1999/xlink">
    <title>Icons/question-new</title>
    <g id="Icons/question-new" stroke="none" stroke-width="1" fill="none" fill-rule="evenodd">
        <path d="M772.57125,345 L918.75,491.17875 L918.75,791.25 C918.75,826.408125 890.158125,855 855,855 L855,855 L345,855 C309.841875,855 281.25,826.408125 281.25,791.25 L281.25,791.25 L281.25,408.75 C281.25,373.62375 309.841875,345 345,345 L345,345 L772.57125,345 Z M727.5,408.75 L345,408.75 L345,791.25 L855.031875,791.25 L855,536.25 L727.5,536.25 L727.5,408.75 Z M759.375,663.75 L759.375,727.5 L408.75,727.5 L408.75,663.75 L759.375,663.75 Z M631.875,536.25 L631.875,600 L408.75,600 L408.75,536.25 L631.875,536.25 Z" id="Shape" fill="#000000"></path>
    </g>
</svg>