<?xml version="1.0" encoding="UTF-8"?>
<svg width="1200px" height="1200px" viewBox="0 0 1200 1200" version="1.1" xmlns="http://www.w3.org/2000/svg" xmlns:xlink="http://www.w3.org/1999/xlink">
    <title>Icons/question-shared-new</title>
    <g id="Icons/question-shared-new" stroke="none" stroke-width="1" fill="none" fill-rule="evenodd">
        <path d="M840,781 C963.66375,781 1050,845.75875 1050,938.5 L1050,964.75 L630,964.75 L630,938.5 C630,845.75875 716.3625,781 840,781 Z M772.57125,345 L918.75,491.17875 L918.752973,516.528239 C895.661428,502.853955 868.732562,495 840,495 C799.431777,495 762.459279,510.657113 734.80659,536.247254 L727.5,536.25 L727.5,408.75 L345,408.75 L345,791.25 L653.014904,791.247816 C629.352384,808.942828 610.750945,830.451704 598.24588,854.997099 L345,855 C309.841875,855 281.25,826.408125 281.25,791.25 L281.25,791.25 L281.25,408.75 C281.25,373.62375 309.841875,345 345,345 L345,345 L772.57125,345 Z M840,545 C897.9075,545 945,592.0925 945,650 C945,707.9075 897.9075,755 840,755 C782.0925,755 735,707.9075 735,650 C735,592.0925 782.0925,545 840,545 Z M685,663.75 L685,727.5 L408.75,727.5 L408.75,663.75 L685,663.75 Z M631.875,536.25 L631.875,600 L408.75,600 L408.75,536.25 L631.875,536.25 Z" id="Shape" fill="#000000"></path>
    </g>
</svg>