<?xml version="1.0" encoding="UTF-8"?>
<svg width="40px" height="40px" viewBox="0 0 40 40" version="1.1" xmlns="http://www.w3.org/2000/svg" xmlns:xlink="http://www.w3.org/1999/xlink">
    <!-- Generator: Sketch 50.2 (55047) - http://www.bohemiancoding.com/sketch -->
    <title>Icons/Questions block</title>
    <desc>Created with Sketch.</desc>
    <defs>
        <path d="M31.001,23 L15,23 L15,11 L27,11 L27,15 L31,15 L31.001,23 Z M28.414,9 L15,9 C13.897,9 13,9.898 13,11 L13,23 C13,24.103 13.897,25 15,25 L31,25 C32.103,25 33,24.103 33,23 L33,13.586 L28.414,9 Z M24,15 L17,15 L17,17 L24,17 L24,15 Z M17,21 L28,21 L28,19 L17,19 L17,21 Z M12,13 L10,13 L10,26 C10,27.103 10.897,28 12,28 L27,28 L27,26 L12,26 L12,13 Z M9,16 L7,16 L7,29 C7,30.103 7.897,31 9,31 L24,31 L24,29 L9,29 L9,16 Z" id="path-1"></path>
    </defs>
    <g id="Icons/Questions-block" stroke="none" stroke-width="1" fill="none" fill-rule="evenodd">
        <mask id="mask-2" fill="white">
            <use xlink:href="#path-1"></use>
        </mask>
        <use id="Mask" fill="#414453" opacity="0" xlink:href="#path-1"></use>
        <g id="Atoms/Colors/Idle" mask="url(#mask-2)" fill="#59636B" opacity="0.25">
            <rect id="State" x="-2" y="-2" width="40" height="40"></rect>
        </g>
    </g>
</svg>