<svg height="642" viewBox="0 0 642 642" width="642" xmlns="http://www.w3.org/2000/svg"><path d="m500.964539 440.729979c71.625576 0 121.631206 37.508023 121.631206 91.223405v15.2039h-243.262412v-15.2039c0-53.715382 50.020834-91.223405 121.631206-91.223405zm-54.131336-305.667479 106.588672 106.588672.000465 49.426191c-14.80937-10.559032-32.919791-16.77528-52.457801-16.77528-2.0947 0-4.17299.071452-6.232563.212046l-80.763226.001496v-92.96875h-278.90625v278.90625l242.17308-.002084c-12.338737 13.23431-20.808126 28.931281-24.602887 46.486273l-217.570193.000186c-25.636133 0-46.484375-20.848242-46.484375-46.484375v-278.90625c0-25.612891 20.848242-46.484375 46.484375-46.484375zm54.131336 168.977172c33.539805 0 60.815603 27.275798 60.815603 60.815603s-27.275798 60.815603-60.815603 60.815603-60.815603-27.275798-60.815603-60.815603 27.275798-60.815603 60.815603-60.815603zm-90.515582 63.444961c.489619 17.095352 5.738001 33.017364 14.464317 46.485208l-243.366399-.001091v-46.484375zm-66.206769-92.969008v46.484375h-162.695313v-46.484375z" fill-rule="evenodd"/></svg>