<svg height="1200" viewBox="0 0 1200 1200" width="1200" xmlns="http://www.w3.org/2000/svg"><path d="m702.42 300 137.58 137.58v402.42c0 33.09-26.91 60-60 60h-360c-33.09 0-60-26.91-60-60v-480c0-33.06 26.91-60 60-60zm77.61 540-.03-360h-120v-120h-240v480zm-181.03-49c-16.568542 0-30-13.431458-30-30s13.431458-30 30-30 30 13.431458 30 30-13.431458 30-30 30zm25.474609-90.797499h-50c0-17.355864 4.30293-32.521134 12.458339-46.280709 5.879502-9.919729 11.945532-16.966415 23.436982-28.606911.334998-.339344 2.239146-2.265403 2.776173-2.809874 14.756271-14.960795 18.701553-21.484892 18.701553-32.48024 0-11.403985-3.487602-19.540009-9.568625-25.046122-5.62097-5.089554-13.672391-7.994655-22.308668-7.978579-8.648097.016097-16.735608 2.960313-22.389113 8.086341-6.095874 5.527124-9.58125 13.637567-9.58125 24.93836h-50c0-25.211614 9.291837-46.833645 25.996143-61.979426 15.105398-13.696053 35.187041-21.006669 55.881151-21.045189 20.724201-.038576 40.83449 7.217585 55.961595 20.914548 16.722538 15.141562 26.008767 36.804867 26.008767 62.110067 0 15.39301-4.002366 29.001879-11.54958 41.482294-5.39003 8.913198-11.051069 15.460471-21.554148 26.109124-.562132.569924-2.476865 2.50669-2.791592 2.8255-8.770668 8.884425-12.803793 13.56956-16.006988 18.973898-3.657504 6.170837-5.470739 12.561414-5.470739 20.786918z" fill-rule="evenodd"/></svg>