<svg height="1200" viewBox="0 0 1200 1200" width="1200" xmlns="http://www.w3.org/2000/svg"><path d="m650 913c0 33.09-26.91 60-60 60h-360c-33.09 0-60-26.91-60-60v-480c0-33.06 26.91-60 60-60h99.666667l40 60h-139.666667v480h360.03l-.012456-149.473684 59.982456 89.973684zm-136.762334-202.470703c0 21.699327-3.598597 40.632243-10.795898 56.799316-7.197302 16.167073-17.133726 29.138135-29.809571 38.913575l37.866211 29.970703-34.96582 29.648437-50.43457-40.605469c-4.726586.644535-9.453102.966797-14.179688.966797-15.14656 0-29.003843-2.658665-41.572265-7.976074-12.568423-5.317409-23.391068-12.971141-32.468262-22.961426-9.077194-9.990284-16.140112-22.128835-21.188965-36.416015-5.048853-14.287181-7.573242-30.400301-7.573242-48.339844v-9.506836c0-17.939543 2.497534-34.052663 7.492676-48.339844s12.004349-26.425731 21.027832-36.416015c9.023482-9.990285 19.819273-17.670872 32.387695-23.041993 12.568422-5.37112 26.425706-8.05664 41.572266-8.05664 14.931715 0 28.681577 2.68552 41.25 8.05664 12.568422 5.371121 23.391068 13.051708 32.468261 23.041993 9.077194 9.990284 16.166967 22.128834 21.269532 36.416015 5.102564 14.287181 7.653808 30.400301 7.653808 48.339844zm-57.524414-9.829102v9.829102c0 23.095818-3.840293 40.793395-11.520996 53.093262-7.680702 12.299866-18.7719 18.449707-33.273926 18.449707-15.039137 0-26.372032-6.149841-33.999023-18.449707-7.626991-12.299867-11.44043-29.997444-11.44043-53.093262v-9.829102c0-23.310663 3.759728-41.00824 11.279297-53.093261 7.519569-12.085022 18.798753-18.127442 33.837891-18.127442 14.502025 0 25.646933 6.04242 33.435058 18.127442 7.788125 12.085021 11.682129 29.782598 11.682129 53.093261zm373.953415 122.299805-40-60h180.363333l-.03-360h-120v-120h-240v210.5l-60-90v-120.5c0-33.06 26.91-60 60-60h282.42l137.58 137.58v402.42c0 33.09-26.91 60-60 60zm-135.959774-203.93966v-171.99784h91.933594c15.820391 0 29.97064 1.435533 42.451172 4.306641 12.480531 2.871108 23.056597 7.236298 31.728515 13.095703 8.671919 5.859404 15.292946 13.212846 19.863282 22.060547 4.570335 8.8477 6.855468 19.247987 6.855468 31.201172 0 5.859404-.644525 11.513644-1.933593 16.96289-1.289069 5.449246-3.369127 10.576148-6.240235 15.380859-2.871108 4.804712-6.591774 9.11131-11.162109 12.919922-4.570336 3.808613-10.136686 6.943347-16.699219 9.404297 7.617226 1.992198 14.062474 4.863263 19.335938 8.613282 5.273463 3.750018 9.550764 8.085912 12.832031 13.007812 3.281266 4.9219 5.654289 10.224581 7.11914 15.908203s2.197266 11.455049 2.197266 17.314453c0 25.312627-8.085857 44.267515-24.257812 56.865235-16.171956 12.597719-40.13656 18.896484-71.894532 18.896484h-46.169132zm61.699219-24.868934v61.347656h40.429687c6.210969 0 11.51365-.761711 15.908203-2.285156 4.394554-1.523445 7.968737-3.603502 10.722657-6.240234s4.775384-5.712873 6.064453-9.228516c1.289069-3.515642 1.933594-7.324198 1.933594-11.425781 0-4.9219-.585932-9.37498-1.757813-13.359375s-3.046862-7.353502-5.625-10.107422-5.917948-4.89257-10.019531-6.416016c-4.101583-1.523445-9.082002-2.285156-14.941406-2.285156zm0-40.429687h32.167969c13.476629-.117188 23.085908-2.578101 28.828125-7.382813 5.742216-4.804711 8.613281-11.894484 8.613281-21.269531 0-10.781304-3.105438-18.544898-9.316406-23.291016-6.210969-4.746117-16.2304-7.11914-30.058594-7.11914h-30.234375zm-387.298512-326.761719 478.029074 717.043653-49.577626 32.956347-478.388827-717.583254z" fill-rule="evenodd"/></svg>