<svg height="40" viewBox="0 0 40 40" width="40" xmlns="http://www.w3.org/2000/svg"><path d="m23.414 10 4.586 4.586v13.414c0 1.103-.897 2-2 2h-12c-1.103 0-2-.897-2-2v-16c0-1.102.897-2 2-2zm2.587 18-.001-12h-4v-4h-8v16zm-2.5597445-6.7490234c0 .7233109-.1199532 1.3544081-.3598632 1.8933105-.2399101.5389024-.5711242.9712712-.9936524 1.2971191l1.262207.9990235-1.1655273.9882812-1.6811523-1.3535156c-.1575529.0214845-.3151034.0322266-.4726563.0322266-.5048853 0-.9667948-.0886222-1.3857422-.2658692-.4189474-.1772469-.7797022-.4323713-1.0822754-.7653808-.3025731-.3330095-.5380037-.7376279-.7062988-1.2138672-.1682951-.4762394-.2524414-1.0133434-.2524414-1.6113281v-.3168946c0-.5979847.0832511-1.1350887.2497559-1.6113281.1665047-.4762394.4001449-.8808577.7009277-1.2138672.3007827-.3330095.6606424-.589029 1.0795898-.7680664.4189474-.1790373.8808569-.2685547 1.3857422-.2685547.4977239 0 .9560526.0895174 1.375.2685547.4189474.1790374.7797023.4350569 1.0822754.7680664s.5388989.7376278.7089844 1.2138672.2551269 1.0133434.2551269 1.6113281zm-1.9174804-.3276368c0-.7770221-.1298002-1.3669413-.3894043-1.7697753-.2596042-.4028341-.6311011-.6042481-1.114502-.6042481-.5013046 0-.8772774.201414-1.1279297.6042481-.2506523.402834-.3759765.9927532-.3759765 1.7697753v.3276368c0 .7698606.1271146 1.3597798.3813476 1.7697754.2542331.4099955.6319962.6149902 1.1333008.6149902.4834009 0 .8531075-.2049947 1.1091309-.6149902.2560234-.4099956.3840332-.9999148.3840332-1.7697754z" fill-rule="evenodd"/></svg>