<svg height="1200" viewBox="0 0 1200 1200" width="1200" xmlns="http://www.w3.org/2000/svg"><path d="m702.42 300 137.58 137.58v402.42c0 33.09-26.91 60-60 60h-360c-33.09 0-60-26.91-60-60v-480c0-33.06 26.91-60 60-60zm77.61 540-.03-360h-120v-120h-240v480zm-76.792334-202.470703c0 21.699327-3.598597 40.632243-10.795898 56.799316-7.197302 16.167073-17.133726 29.138135-29.809571 38.913575l37.866211 29.970703-34.96582 29.648437-50.43457-40.605469c-4.726586.644535-9.453102.966797-14.179688.966797-15.14656 0-29.003843-2.658665-41.572265-7.976074-12.568423-5.317409-23.391068-12.971141-32.468262-22.961426-9.077194-9.990284-16.140112-22.128835-21.188965-36.416015-5.048853-14.287181-7.573242-30.400301-7.573242-48.339844v-9.506836c0-17.939543 2.497534-34.052663 7.492676-48.339844s12.004349-26.425731 21.027832-36.416015c9.023482-9.990285 19.819273-17.670872 32.387695-23.041993 12.568422-5.37112 26.425706-8.05664 41.572266-8.05664 14.931715 0 28.681577 2.68552 41.25 8.05664 12.568422 5.371121 23.391068 13.051708 32.468261 23.041993 9.077194 9.990284 16.166967 22.128834 21.269532 36.416015 5.102564 14.287181 7.653808 30.400301 7.653808 48.339844zm-57.524414-9.829102c0-23.310663-3.894004-41.00824-11.682129-53.093261-7.788125-12.085022-18.933033-18.127442-33.435058-18.127442-15.039138 0-26.318322 6.04242-33.837891 18.127442-7.519569 12.085021-11.279297 29.782598-11.279297 53.093261v9.829102c0 23.095818 3.813439 40.793395 11.44043 53.093262 7.626991 12.299866 18.959886 18.449707 33.999023 18.449707 14.502026 0 25.593224-6.149841 33.273926-18.449707 7.680703-12.299867 11.520996-29.997444 11.520996-53.093262z" fill-rule="evenodd"/></svg>