<svg height="280" viewBox="0 0 280 280" width="280" xmlns="http://www.w3.org/2000/svg"><path d="m243.4 20c-9.2 0-16.6 7.4-16.6 16.6v20.4c-29.2-30.3-73.5-44.2-116.7-33.2-21.1 5.5-40.3 16.5-55.6 32s-26 34.9-31.2 56.1c-5.1 21.2-4.3 43.4 2.2 64.1 6.5 20.8 18.6 39.4 34.9 53.8 16.3 14.5 36.3 24.2 57.7 28.1 7.2 1.3 14.6 2 21.9 2 14.3 0 28.5-2.6 42-7.6 20.4-7.6 38.3-20.7 51.9-37.7 5.7-7.2 4.5-17.6-2.7-23.3s-17.6-4.5-23.3 2.7c-9.8 12.4-22.8 21.8-37.5 27.3-14.8 5.5-30.7 6.9-46.2 4s-29.9-9.9-41.7-20.4c-11.8-10.4-20.5-23.9-25.2-38.9s-5.3-31.1-1.6-46.4 11.5-29.4 22.5-40.6 25-19.2 40.2-23.1c33.3-8.6 67.5 3.6 88.4 28.6h-28c-9.2 0-16.6 7.4-16.6 16.6s7.4 16.6 16.6 16.6h56.8.3 7.5c9.2 0 16.6-7.4 16.6-16.6v-64.5c0-9.2-7.4-16.6-16.6-16.6z" fill="#1d1d1b"/></svg>
