<svg height="642" viewBox="0 0 642 642" width="642" xmlns="http://www.w3.org/2000/svg"><path d="m321 102.25c120.61875 0 218.75 98.13125 218.75 218.75s-98.13125 218.75-218.75 218.75-218.75-98.13125-218.75-218.75 98.13125-218.75 218.75-218.75zm0 43.75c-96.490625 0-175 78.509375-175 175s78.509375 175 175 175 175-78.509375 175-175-78.509375-175-175-175zm72.034375 72.023437 30.93125 30.93125-72.034375 72.034375 72.034375 72.034375-30.93125 30.93125-72.034375-72.0125-72.034375 72.0125-30.93125-30.93125 72.034375-72.034375-72.034375-72.034375 30.93125-30.93125 72.034375 72.034375z" fill-rule="evenodd"/></svg>