<svg height="1200" viewBox="0 0 1200 1200" width="1200" xmlns="http://www.w3.org/2000/svg"><path d="m839.488636 480c33.058665 0 59.943182 26.91 59.943182 60v120c0 33.09-26.884517 60-59.943182 60h-119.886363v60c0 16.53 13.457244 30 29.971591 30h59.943181v60h-59.943181c-23.018182 0-44.028267-8.7-59.943182-22.98-15.914915 14.28-36.925 22.98-59.943182 22.98h-59.943182v-60h59.943182c16.514347 0 29.971591-13.47 29.971591-30v-60h-299.715909c-33.058665 0-59.943182-26.91-59.943182-60v-120c0-33.09 26.884517-60 59.943182-60h299.715909v-60c0-16.53-13.457244-30-29.971591-30h-59.943182v-60h59.943182c23.018182 0 44.028267 8.7 59.943182 22.98 15.914915-14.28 36.925-22.98 59.943182-22.98h59.943181v60h-59.943181c-16.514347 0-29.971591 13.47-29.971591 30v60zm-.089914 180 .089914-120h-119.886363v120zm-479.45554-120v120h299.715909v-120z" fill-rule="evenodd"/></svg>