<?xml version="1.0" encoding="UTF-8"?>
<svg width="40px" height="40px" viewBox="0 0 40 40" version="1.1" xmlns="http://www.w3.org/2000/svg" xmlns:xlink="http://www.w3.org/1999/xlink">
    <!-- Generator: Sketch 50.2 (55047) - http://www.bohemiancoding.com/sketch -->
    <title>Icons/rename</title>
    <desc>Created with Sketch.</desc>
    <defs>
        <path d="M27.9799574,22 L23.9867424,22 L23.9867424,18 L27.9829545,18 L27.9799574,22 Z M11.9981061,18 L21.9886364,18 L21.9886364,22 L11.9981061,22 L11.9981061,18 Z M27.9829545,16 L23.9867424,16 L23.9867424,14 C23.9867424,13.449 24.4353172,13 24.9857955,13 L26.9839015,13 L26.9839015,11 L24.9857955,11 C24.2185227,11 23.5181866,11.29 22.9876894,11.766 C22.4571922,11.29 21.7568561,11 20.9895833,11 L18.9914773,11 L18.9914773,13 L20.9895833,13 C21.5400616,13 21.9886364,13.449 21.9886364,14 L21.9886364,16 L11.9981061,16 C10.8961506,16 10,16.897 10,18 L10,22 C10,23.103 10.8961506,24 11.9981061,24 L21.9886364,24 L21.9886364,26 C21.9886364,26.551 21.5400616,27 20.9895833,27 L18.9914773,27 L18.9914773,29 L20.9895833,29 C21.7568561,29 22.4571922,28.71 22.9876894,28.234 C23.5181866,28.71 24.2185227,29 24.9857955,29 L26.9839015,29 L26.9839015,27 L24.9857955,27 C24.4353172,27 23.9867424,26.551 23.9867424,26 L23.9867424,24 L27.9829545,24 C29.08491,24 29.9810606,23.103 29.9810606,22 L29.9810606,18 C29.9810606,16.897 29.08491,16 27.9829545,16 L27.9829545,16 Z" id="path-1"></path>
    </defs>
    <g id="Icons/rename" stroke="none" stroke-width="1" fill="none" fill-rule="evenodd">
        <mask id="mask-2" fill="white">
            <use xlink:href="#path-1"></use>
        </mask>
        <use id="Mask" fill="#000000" xlink:href="#path-1"></use>
    </g>
</svg>