<svg height="40" viewBox="0 0 40 40" width="40" xmlns="http://www.w3.org/2000/svg"><path d="m27.9799574 22h-3.993215v-4h3.9962121zm-15.9818513-4h9.9905303v4h-9.9905303zm15.9848484-2h-3.9962121v-2c0-.551.4485748-1 .9990531-1h1.998106v-2h-1.998106c-.7672728 0-1.4676089.29-1.9981061.766-.5304972-.476-1.2308333-.766-1.9981061-.766h-1.998106v2h1.998106c.5504783 0 .9990531.449.9990531 1v2h-9.9905303c-1.1019555 0-1.9981061.897-1.9981061 2v4c0 1.103.8961506 2 1.9981061 2h9.9905303v2c0 .551-.4485748 1-.9990531 1h-1.998106v2h1.998106c.7672728 0 1.4676089-.29 1.9981061-.766.5304972.476 1.2308333.766 1.9981061.766h1.998106v-2h-1.998106c-.5504783 0-.9990531-.449-.9990531-1v-2h3.9962121c1.1019555 0 1.9981061-.897 1.9981061-2v-4c0-1.103-.8961506-2-1.9981061-2z" fill-rule="evenodd"/></svg>