<svg height="1200" viewBox="0 0 1200 1200" width="1200" xmlns="http://www.w3.org/2000/svg"><path d="m839.398722 660h-119.796449v-120h119.886363zm-479.45554-120h299.715909v120h-299.715909zm479.545454-60h-119.886363v-60c0-16.53 13.457244-30 29.971591-30h59.943181v-60h-59.943181c-23.018182 0-44.028267 8.7-59.943182 22.98-15.914915-14.28-36.925-22.98-59.943182-22.98h-59.943182v60h59.943182c16.514347 0 29.971591 13.47 29.971591 30v60h-299.715909c-33.058665 0-59.943182 26.91-59.943182 60v120c0 33.09 26.884517 60 59.943182 60h299.715909v60c0 16.53-13.457244 30-29.971591 30h-59.943182v60h59.943182c23.018182 0 44.028267-8.7 59.943182-22.98 15.914915 14.28 36.925 22.98 59.943182 22.98h59.943181v-60h-59.943181c-16.514347 0-29.971591-13.47-29.971591-30v-60h119.886363c33.058665 0 59.943182-26.91 59.943182-60v-120c0-33.09-26.884517-60-59.943182-60z" fill-rule="evenodd"/></svg>