<svg height="642" viewBox="0 0 642 642" width="642" xmlns="http://www.w3.org/2000/svg"><path d="m342.647135 124.125c16.784091 0 32.103945 6.34375 43.70857 16.75625 11.604626-10.4125 26.92448-16.75625 43.708571-16.75625h43.70857v43.75h-43.70857c-12.041711 0-21.854285 9.821875-21.854285 21.875v43.75h87.41714c24.105276 0 43.70857 19.621875 43.70857 43.75v87.5c0 24.128125-19.603294 43.75-43.70857 43.75h-87.41714v43.75c0 12.053125 9.812574 21.875 21.854285 21.875h43.70857v43.75h-43.70857c-16.784091 0-32.103945-6.34375-43.708571-16.75625-11.604625 10.4125-26.924479 16.75625-43.70857 16.75625h-43.70857v-43.75h43.70857c12.041711 0 21.854285-9.821875 21.854285-21.875v-43.75h-218.54285c-24.105276 0-43.70857-19.621875-43.70857-43.75v-87.5c0-24.128125 19.603294-43.75 43.70857-43.75h218.54285v-43.75c0-12.053125-9.812574-21.875-21.854285-21.875h-43.70857v-43.75zm152.979996 153.125h-87.41714v87.5h87.351577zm-131.125711 0h-218.54285v87.5h218.54285z" fill-rule="evenodd"/></svg>