<svg height="280" viewBox="0 0 280 280" width="280" xmlns="http://www.w3.org/2000/svg"><path d="m233.142452 66.4644 35.858 35.8576c3.905 3.906 3.905 10.237 0 14.142l-7.072 7.071c-3.905 3.906-10.236 3.906-14.142 0l-17.322-17.322v98.787c0 24.853-20.147 45-45 45h-65c-5.523 0-10-4.477-10-10v-10c0-5.523 4.477-10 10-10h65c8.284 0 15-6.716 15-15v-98.787l-17.322 17.322c-3.906 3.906-10.237 3.906-14.142 0l-7.072-7.071c-3.905-3.905-3.905-10.236 0-14.142l35.858-35.8576c9.763-9.7631 25.593-9.7631 35.356 0zm-72.677999-36.4644c5.523 0 10 4.4772 10 10v10c0 5.5228-4.477 10-10 10h-65.0000005c-8.2843 0-15 6.7157-15 15v98.787l17.3223-17.322c3.9057005-3.906 10.2367005-3.906 14.1417005 0l7.072 7.071c3.905 3.905 3.905 10.236 0 14.142l-35.8583005 35.858c-9.7631 9.763-25.5922 9.763-35.3554 0l-35.8578-35.858c-3.90527-3.906-3.90527-10.237 0-14.142l7.071-7.071c3.9053-3.906 10.2369-3.906 14.1422 0l17.3223 17.322v-98.787c0-24.8528 20.1472-45 45-45z"/></svg>