<svg height="642" viewBox="0 0 642 642" width="642" xmlns="http://www.w3.org/2000/svg"><path d="m321 496v43.75h-43.75v-43.75zm218.75 0v43.75h-175v-43.75zm-437.5-350h131.25v131.25h-43.75l-.000652-72.004078c-27.228011 30.849485-43.749348 71.372399-43.749348 115.754078 0 64.774686 35.192358 121.329756 87.499951 151.588088l.000049 48.960001c-77.258337-33.755607-131.25-110.846634-131.25-200.548089 0-49.246221 16.273222-94.691628 43.735589-131.252143l-43.735589.002143zm218.75 262.5v43.75h-43.75v-43.75zm218.75 0v43.75h-175v-43.75zm-218.75-87.5v43.75h-43.75v-43.75zm218.75 0v43.75h-175v-43.75zm-218.75-218.75c105.829409 0 194.10613 75.151986 214.374207 175h-44.887472c-19.426872-75.478691-87.94376-131.25-169.486735-131.25-15.107383 0-29.767652 1.914327-43.751464 5.513642l-.000235-44.887504c14.136586-2.869693 28.768218-4.376138 43.751699-4.376138z" fill-rule="evenodd"/></svg>