<svg height="642" viewBox="0 0 642 642" width="642" xmlns="http://www.w3.org/2000/svg"><path d="m233.5 146v131.25h-43.75l-.000652-72.004078c-27.228011 30.849485-43.749348 71.372399-43.749348 115.754078 0 96.649831 78.350169 175 175 175 15.107743 0 29.76835-1.914419 43.752463-5.513899l.000237 44.887558c-14.136897 2.869825-28.768866 4.376341-43.7527 4.376341-120.812289 0-218.75-97.937711-218.75-218.75 0-49.246221 16.273222-94.691628 43.735589-131.252143l-43.735589.002143v-43.75zm175 350v-131.25h43.75l.00153 72.003084c27.227488-30.849362 43.74847-71.371882 43.74847-115.753084 0-96.649831-78.350169-175-175-175-15.107383 0-29.767652 1.914327-43.751464 5.513642l-.000235-44.887504c14.136586-2.869693 28.768218-4.376138 43.751699-4.376138 120.812289 0 218.75 97.937711 218.75 218.75 0 49.246669-16.273518 94.692454-43.736338 131.25314l43.736338-.00314v43.75z" fill-rule="evenodd"/></svg>