<svg height="1200" viewBox="0 0 1200 1200" width="1200" xmlns="http://www.w3.org/2000/svg"><path d="m780 758.749463c37.341805-42.307992 60-97.882675 60-158.749463 0-132.54834-107.45166-240-240-240-20.717974 0-40.822805 2.62518-60 7.561049v-61.559962c19.386596-3.935271 39.45205-6.001087 60-6.001087 165.685425 0 300 134.314575 300 300 0 67.536359-22.316692 129.860375-59.978035 180.000008l-60.021965-.000008v60h-60v-16.053863-16.053864c13.851091-8.012429 26.827042-17.369326 38.749464-27.892273zm-360-317.498926c-37.341805 42.307992-60 97.882675-60 158.749463 0 132.54834 107.45166 240 240 240 20.717974 0 40.822805-2.62518 60-7.561049v61.559962c-19.386596 3.935271-39.45205 6.001087-60 6.001087-165.685425 0-300-134.314575-300-300 0-67.536359 22.316692-129.860375 59.978035-180.000008l-59.978035.000008v-60h119.970753c.009748-.007324.019497-.014648.029247-.021971v.021971h60v30h3.719785c-1.24679.691843-2.486777 1.39447-3.71983 2.107753l.000045 27.892247v120h-60v-98.749467z" fill-rule="evenodd"/></svg>