<svg height="1200" viewBox="0 0 1200 1200" width="1200" xmlns="http://www.w3.org/2000/svg"><path d="m720 807.892273v-147.892273h60v98.749464c37.341805-42.307992 60-97.882676 60-158.749464 0-132.54834-107.45166-240-240-240-20.717974 0-40.822805 2.62518-60 7.561049v-61.559962c19.386596-3.935271 39.45205-6.001087 60-6.001087 165.685425 0 300 134.314575 300 300 0 67.536355-22.316689 129.860368-59.978029 180h59.978029v60h-119.970753-60.029247zm-60 24.546678v61.559962c-19.386596 3.935271-39.45205 6.001087-60 6.001087-165.685425 0-300-134.314575-300-300 0-67.536355 22.316689-129.860368 59.978029-180h-59.978029v-60h119.970753 60.029247v180h-60v-98.749464c-37.341805 42.307992-60 97.882676-60 158.749464 0 132.54834 107.45166 240 240 240 20.717974 0 40.822805-2.62518 60-7.561049z" fill-rule="evenodd"/></svg>