<svg height="40" viewBox="0 0 40 40" width="40" xmlns="http://www.w3.org/2000/svg"><path d="m26 25.2916488v-3.2916488h-2v4.9297424c.4617016-.2670799.8942341-.5789769 1.2916488-.9297424h.7083512v-.7083512c1.2447268-1.4102664 2-3.2627559 2-5.2916488 0-4.418278-3.581722-8-8-8-.6905991 0-1.3607602.087506-2 .252035v-2.0519988c.6462199-.1311757 1.3150683-.2000362 2-.2000362 5.5228475 0 10 4.4771525 10 10 0 2.2512118-.7438896 4.3286789-1.9992676 6h1.9992676v2h-6v-.5351288-.5351288zm-12-10.5832976c-1.2447268 1.4102664-2 3.2627559-2 5.2916488 0 4.418278 3.581722 8 8 8 .6905991 0 1.3607602-.087506 2-.252035v2.0519988c-.6462199.1311757-1.3150683.2000362-2 .2000362-5.5228475 0-10-4.4771525-10-10 0-2.2512118.7438896-4.3286789 1.9992676-6h-1.9992676v-2h3.9990251c.0003249-.0002441.0006499-.0004883.0009749-.0007324v.0007324h2v1h.1239928c-.0415593.0230612-.0828916.0464818-.1239928.0702576v.9297424 4h-2z" fill-rule="evenodd"/></svg>