<svg height="642" viewBox="0 0 642 642" width="642" xmlns="http://www.w3.org/2000/svg"><path d="m533.316532 152.536625 82.147418 82.146502c8.946 8.948291 8.946 23.452037 0 32.398037l-16.201309 16.199018c-8.946 8.948291-23.449745 8.948291-32.398036 0l-39.683128-39.683127v226.312036c0 56.935964-46.154945 103.090909-103.090909 103.090909h-148.909091c-12.652691 0-22.909091-10.2564-22.909091-22.909091v-22.909091c0-12.652691 10.2564-22.909091 22.909091-22.909091h148.909091c18.977891 0 34.363637-15.385745 34.363637-34.363636v-226.312036l-39.683128 39.683127c-8.948291 8.948291-23.452036 8.948291-32.398036 0l-16.201309-16.199018c-8.946-8.946-8.946-23.449746 0-32.398037l82.147418-82.146502c22.366146-22.366374 58.631236-22.366374 80.997382 0zm-166.498691-83.536625c12.652691 0 22.909091 10.2568582 22.909091 22.9090909v22.9090911c0 12.652233-10.2564 22.909091-22.909091 22.909091h-148.909091c-18.978578 0-34.363636 15.385058-34.363636 34.363636v226.312036l39.683814-39.683127c8.947604-8.948291 23.451349-8.948291 32.397349 0l16.20131 16.199018c8.946 8.946 8.946 23.449746 0 32.398037l-82.148106 82.147418c-22.366374 22.366145-58.629404 22.366145-80.996007 0l-82.1469602-82.147418c-8.9466186-8.948291-8.9466186-23.452037 0-32.398037l16.1990182-16.199018c8.9466872-8.948291 23.4518072-8.948291 32.3984945 0l39.6838145 39.683127v-226.312036c0-56.935505 46.155404-103.090909 103.090909-103.090909z"/></svg>