<svg height="1200" viewBox="0 0 1200 1200" width="1200" xmlns="http://www.w3.org/2000/svg"><path d="m480 392.107727v147.892273h-60v-98.749464c-37.341805 42.307992-60 97.882676-60 158.749464 0 88.833855 48.263806 166.395095 119.999933 207.892234l.000067 67.145145c-105.954291-46.293403-180-152.01824-180-275.037379 0-67.536355 22.316689-129.860368 59.978029-180h-59.978029v-60h119.970753 60.029247zm60-24.546678v-61.559962c19.386596-3.935271 39.45205-6.001087 60-6.001087 145.137475 0 266.202693 103.065581 293.998913 240h-61.559962c-26.642568-103.513633-120.608585-180-232.438951-180-20.717974 0-40.822805 2.62518-60 7.561049zm60 292.438951h-60v-60h60zm0 120h-60v-60h60zm0 120h-60v-60h60zm300-240h-240v-60h240zm0 120h-240v-60h240zm0 120h-240v-60h240z" fill-rule="evenodd"/></svg>