<svg height="1200" viewBox="0 0 1200 1200" width="1200" xmlns="http://www.w3.org/2000/svg"><path d="m809.517045 780h-419.602272v-300h419.602272zm-449.573863-390h479.545454v30h-479.545454zm539.488636 60v-90c0-16.56-13.397301-30-29.971591-30h-539.488636c-16.544318 0-29.971591 13.44-29.971591 30v90c0 16.56 13.427273 30 29.971591 30v300h-29.971591v60h269.744318v60h59.943182v-60h269.744318v-60h-29.971591v-300c16.57429 0 29.971591-13.44 29.971591-30zm-242.806108 76.60495c-5.275-10.56-16.274574-17.22-28.053409-16.56-11.808807.51-22.208949 7.86-26.584801 18.84l-43.069176 107.76-27.783665-27.84c-10.100426-10.11-25.955398-11.67-37.824148-3.75l-73.310511 48.9v72.12l86.108381-57.45 42.559659 42.6c7.16321 7.14 17.383523 10.29 27.244176 8.19 9.860653-2.04 18.042898-8.88 21.789347-18.24l35.156676-87.99 30.091477 60.27c3.836364 7.68 10.819744 13.35 19.121875 15.57 8.362074 2.22 17.14375.72 24.30696-4.05l73.28054-48.9v-72.12l-78.285796 52.26z" fill-rule="evenodd"/></svg>