<svg height="642" viewBox="0 0 642 642" width="642" xmlns="http://www.w3.org/2000/svg"><path d="m517.481416 124.125c12.085419 0 21.854285 9.8 21.854285 21.875v65.625c0 12.075-9.768866 21.875-21.854285 21.875v218.75h21.854285v43.75h-196.688566v43.75h-43.70857v-43.75h-196.688565v-43.75h21.854285v-218.75c-12.063565 0-21.854285-9.8-21.854285-21.875v-65.625c0-12.075 9.79072-21.875 21.854285-21.875zm-43.70857 109.375h-305.959991v218.75h305.959991zm-131.938876 21.907776c8.588734-.48125 16.609256 4.375 20.45561 12.075l32.628448 65.340625 57.083392-38.10625v52.5875l-53.433726 35.65625c-5.223175 3.478125-11.62648 4.571875-17.723826 2.953125-6.053637-1.61875-11.145685-5.753125-13.943033-11.353125l-21.941703-43.946875-25.635076 64.159375c-2.731786 6.825-8.698005 11.8125-15.888065 13.3-7.19006 1.53125-14.642371-.765625-19.865545-5.971875l-31.033085-31.0625-62.787361 41.890625v-52.5875l53.455581-35.65625c8.654297-5.775 20.215214-4.6375 27.580108 2.734375l20.258922 20.3 31.404608-78.575c3.190725-8.00625 10.774162-13.365625 19.384751-13.7375zm153.793161-87.532776h-349.668561v21.875h349.668561z" fill-rule="evenodd"/></svg>