<svg height="40" viewBox="0 0 40 40" width="40" xmlns="http://www.w3.org/2000/svg"><path d="m21.895 18.5483983c-.176-.352-.543-.574-.936-.552-.394.017-.741.262-.887.628l-1.437 3.592-.927-.928c-.337-.337-.866-.389-1.262-.125l-2.446 1.63v2.404l2.873-1.915 1.42 1.42c.239.238.58.343.909.273.329-.068.602-.296.727-.608l1.173-2.933 1.004 2.009c.128.256.361.445.638.519.279.074.572.024.811-.135l2.445-1.63v-2.404l-2.612 1.742zm-8.895 10.4526017v-18.001h10v4h4l.001 14.001zm11.414-20.001h-11.414c-1.103 0-2 .897-2 2v18.001c0 1.103.897 2 2 2h14c1.103 0 2-.897 2-2v-15.415z" fill-rule="evenodd"/></svg>