<svg height="1200" viewBox="0 0 1200 1200" width="1200" xmlns="http://www.w3.org/2000/svg"><path d="m672.42 240 137.58 137.58v282.42h-60v-240h-120v-120h-300v540.03h330v60h-330c-33.09 0-60-26.91-60-60v-540.03c0-33.12 26.91-60 60-60zm-75.573 286.464 44.79 89.58 78.36-52.26v72.12l-73.35 48.9c-7.17 4.77-15.96 6.27-24.33 4.05-8.31-2.19-15.3-7.89-19.14-15.54l-30.12-60.27-35.19 87.96c-3.75 9.39-11.94 16.2-21.81 18.27s-20.1-1.05-27.27-8.22l-42.6-42.6-86.19 57.45v-72.12l73.38-48.9c11.88-7.89 27.75-6.36 37.86 3.75l27.81 27.87 43.11-107.79c4.38-10.95 14.79-18.3 26.61-18.84 11.79-.63 22.8 6 28.08 16.59zm303.15 283.536h90v60h-90v90h-60v-90h-90v-60h90v-90h60z" fill-rule="evenodd"/></svg>