<svg height="40" viewBox="0 0 40 40" width="40" xmlns="http://www.w3.org/2000/svg"><path d="m26.9839015 26h-13.9867424v-10h13.9867424zm-14.9857954-13h15.9848484v1h-15.9848484zm17.9829545 2v-3c0-.552-.4465767-1-.999053-1h-17.9829546c-.5514772 0-.999053.448-.999053 1v3c0 .552.4475758 1 .999053 1v10h-.999053v2h8.9914773v2h1.998106v-2h8.9914773v-2h-.999053v-10c.5524763 0 .999053-.448.999053-1zm-8.0935369 2.5534983c-.1758334-.352-.5424858-.574-.9351137-.552-.3936269.017-.7402983.262-.88616.628l-1.4356392 3.592-.9261222-.928c-.3366808-.337-.8651799-.389-1.2608049-.125l-2.4436837 1.63v2.404l2.8702794-1.915 1.4186553 1.42c.2387736.238.5794507.343.9081392.273.3286884-.068.6014299-.296.7263115-.608l1.1718892-2.933 1.0030493 2.009c.1278788.256.3606581.445.6373958.519.2787358.074.5714583.024.810232-.135l2.4426847-1.63v-2.404l-2.6095266 1.742z" fill-rule="evenodd"/></svg>