<svg height="642" viewBox="0 0 642 642" width="642" xmlns="http://www.w3.org/2000/svg"><path d="m429.33397 342.907776c8.588734-.48125 16.609256 4.375 20.45561 12.075l32.628448 65.340625 57.083392-38.10625v52.5875l-53.433726 35.65625c-5.223175 3.478125-11.62648 4.571875-17.723826 2.953125-6.053637-1.61875-11.145685-5.753125-13.943033-11.353125l-21.941703-43.946875-25.635076 64.159375c-2.731786 6.825-8.698005 11.8125-15.888065 13.3-7.19006 1.53125-14.642371-.765625-19.865545-5.971875l-31.033085-31.0625-62.787361 41.890625v-52.5875l53.455581-35.65625c8.654297-5.775 20.215214-4.6375 27.580108 2.734375l20.258922 20.3 31.404608-78.575c3.190725-8.00625 10.774162-13.365625 19.384751-13.7375zm-195.83397 65.592224v43.75h-87.5v-43.75zm131.25-87.5v43.75h-218.75v-43.75zm131.25-87.521875v43.75h-350v-43.75zm0-87.478125v43.75h-350v-43.75z" fill-rule="evenodd"/></svg>