<svg height="40" viewBox="0 0 40 40" width="40" xmlns="http://www.w3.org/2000/svg"><path d="m22.414 8 4.586 4.586v9.414h-2v-8h-4v-4h-10v18.001h11v2h-11c-1.103 0-2-.897-2-2v-18.001c0-1.104.897-2 2-2zm-2.5191 9.5488 1.493 2.986 2.612-1.742v2.404l-2.445 1.63c-.239.159-.532.209-.811.135-.277-.073-.51-.263-.638-.518l-1.004-2.009-1.173 2.932c-.125.313-.398.54-.727.609s-.67-.035-.909-.274l-1.42-1.42-2.873 1.915v-2.404l2.446-1.63c.396-.263.925-.212 1.262.125l.927.929 1.437-3.593c.146-.365.493-.61.887-.628.393-.021.76.2.936.553zm10.105 9.4512h3v2h-3v3h-2v-3h-3v-2h3v-3h2z" fill-rule="evenodd"/></svg>