<svg height="1200" viewBox="0 0 1200 1200" width="1200" xmlns="http://www.w3.org/2000/svg"><path d="m732.42 270 137.58 137.58v462.45c0 33.09-26.91 60-60 60h-420c-33.09 0-60-26.91-60-60v-540.03c0-33.09 26.91-60 60-60zm-342.42 600.03h420.03l-.03-420.03h-120v-120h-300zm266.85-313.57805 44.79 89.61 78.36-52.26v72.12l-73.35 48.9c-7.17 4.77-15.96 6.27-24.33 4.05-8.31-2.22-15.3-7.89-19.14-15.57l-30.12-60.27-35.19 87.99c-3.75 9.36-11.94 16.2-21.81 18.24-9.87 2.1-20.1-1.05-27.27-8.19l-42.6-42.6-86.19 57.45v-72.12l73.38-48.9c11.88-7.92 27.75-6.36 37.86 3.75l27.81 27.84 43.11-107.76c4.38-10.98 14.79-18.33 26.61-18.84 11.79-.66 22.8 6 28.08 16.56z" fill-rule="evenodd"/></svg>