<svg height="1200" viewBox="0 0 1200 1200" width="1200" xmlns="http://www.w3.org/2000/svg"><path d="m656.85 556.45195c-5.28-10.56-16.29-17.22-28.08-16.56-11.82.51-22.23 7.86-26.61 18.84l-43.11 107.76-27.81-27.84c-10.11-10.11-25.98-11.67-37.86-3.75l-73.38 48.9v72.12l86.19-57.45 42.6 42.6c7.17 7.14 17.4 10.29 27.27 8.19 9.87-2.04 18.06-8.88 21.81-18.24l35.19-87.99 30.12 60.27c3.84 7.68 10.83 13.35 19.14 15.57 8.37 2.22 17.16.72 24.33-4.05l73.35-48.9v-72.12l-78.36 52.26zm-266.85 313.57805v-540.03h300v120h120l.03 420.03zm342.42-600.03h-342.42c-33.09 0-60 26.91-60 60v540.03c0 33.09 26.91 60 60 60h420c33.09 0 60-26.91 60-60v-462.45z" fill-rule="evenodd"/></svg>