<svg height="642" viewBox="0 0 642 642" width="642" xmlns="http://www.w3.org/2000/svg"><path d="m539.747813 408.5v65.625h65.625v43.75h-65.625v65.625h-43.75v-65.625h-65.625v-43.75h65.625v-65.625zm-165.941563-350 100.31875 100.31875v205.93125h-43.75v-175h-87.5v-87.5h-218.75v393.771875h240.625v43.75h-240.625c-24.128125 0-43.75-19.621875-43.75-43.75v-393.771875c0-24.15 19.621875-43.75 43.75-43.75zm-75.580312 196.783125c8.596875-.459375 16.625 4.375 20.475 12.096875l32.659375 65.31875 57.1375-38.10625v52.5875l-53.484375 35.65625c-5.228125 3.478125-11.6375 4.571875-17.740625 2.953125-6.059375-1.596875-11.15625-5.753125-13.95625-11.33125l-21.9625-43.946875-25.659375 64.1375c-2.734375 6.846875-8.70625 11.8125-15.903125 13.321875s-14.65625-.765625-19.884375-5.99375l-31.0625-31.0625-62.846875 41.890625v-52.5875l53.50625-35.65625c8.6625-5.753125 20.234375-4.6375 27.60625 2.734375l20.278125 20.321875 31.434375-78.596875c3.19375-7.984375 10.784375-13.34375 19.403125-13.7375z" fill-rule="evenodd"/></svg>