<svg height="642" viewBox="0 0 642 642" width="642" xmlns="http://www.w3.org/2000/svg"><path d="m417.55625 80.375 100.31875 100.31875v337.203125c0 24.128125-19.621875 43.75-43.75 43.75h-306.25c-24.128125 0-43.75-19.621875-43.75-43.75v-393.771875c0-24.128125 19.621875-43.75 43.75-43.75zm-30.93125 43.75h-218.75v393.771875h306.271875l-.021875-306.271875h-87.5zm-44.646875 153.046213c8.596875-.48125 16.625 4.375 20.475 12.075l32.659375 65.340625 57.1375-38.10625v52.5875l-53.484375 35.65625c-5.228125 3.478125-11.6375 4.571875-17.740625 2.953125-6.059375-1.61875-11.15625-5.753125-13.95625-11.353125l-21.9625-43.946875-25.659375 64.159375c-2.734375 6.825-8.70625 11.8125-15.903125 13.3-7.196875 1.53125-14.65625-.765625-19.884375-5.971875l-31.0625-31.0625-62.846875 41.890625v-52.5875l53.50625-35.65625c8.6625-5.775 20.234375-4.6375 27.60625 2.734375l20.278125 20.3 31.434375-78.575c3.19375-8.00625 10.784375-13.365625 19.403125-13.7375z" fill-rule="evenodd"/></svg>