<svg height="40" viewBox="0 0 40 40" width="40" xmlns="http://www.w3.org/2000/svg"><path d="m28 14h-16v-2h16zm0 3.999h-16v-2h16zm-6 4.001h-10v-2h10zm-6 4h-4v-2h4zm9.8875237-4.4465017 1.4915861 2.987 2.6095266-1.742v2.404l-2.4426847 1.63c-.2387737.159-.5314962.209-.810232.135-.2767377-.074-.509517-.263-.6373958-.519l-1.0030493-2.009-1.1718892 2.933c-.1248816.312-.3976231.54-.7263115.608-.3286885.07-.6693656-.035-.9081392-.273l-1.4186553-1.42-2.8702794 1.915v-2.404l2.4436837-1.63c.395625-.264.9241241-.212 1.2608049.125l.9261222.928 1.4356392-3.592c.1458617-.366.4925331-.611.88616-.628.3926279-.022.7592803.2.9351137.552z" fill-rule="evenodd"/></svg>