<svg height="1200" viewBox="0 0 1200 1200" width="1200" xmlns="http://www.w3.org/2000/svg"><path d="m899.431818 450c0 16.56-13.397301 30-29.971591 30v300h29.971591v60h-269.744318v60h-59.943182v-60h-269.744318v-60h29.971591v-300c-16.544318 0-29.971591-13.44-29.971591-30v-90c0-16.56 13.427273-30 29.971591-30h539.488636c16.57429 0 29.971591 13.44 29.971591 30zm-89.914773 330v-300h-419.602272v300zm-449.573863-390v30h479.545454v-30zm296.682528 136.60495 44.747585 89.61 78.285796-52.26v72.12l-73.28054 48.9c-7.16321 4.77-15.944886 6.27-24.30696 4.05-8.302131-2.22-15.285511-7.89-19.121875-15.57l-30.091477-60.27-35.156676 87.99c-3.746449 9.36-11.928694 16.2-21.789347 18.24-9.860653 2.1-20.080966-1.05-27.244176-8.19l-42.559659-42.6-86.108381 57.45v-72.12l73.310511-48.9c11.86875-7.92 27.723722-6.36 37.824148 3.75l27.783665 27.84 43.069176-107.76c4.375852-10.98 14.775994-18.33 26.584801-18.84 11.778835-.66 22.778409 6 28.053409 16.56z" fill-rule="evenodd"/></svg>