<svg height="280" viewBox="0 0 280 280" width="280" xmlns="http://www.w3.org/2000/svg"><path d="m225.692829 54.135514c5.2709 0 9.531464 4.2741433 9.531464 9.5404985v28.6214953c0 5.2663551-4.260564 9.5404982-9.531464 9.5404982v95.404985h9.531464v19.080997h-85.783175v19.080996h-19.062928v-19.080996h-85.7831744v-19.080997h9.5314639v-95.404985c-5.2613681 0-9.5314639-4.2741431-9.5314639-9.5404982v-28.6214953c0-5.2663552 4.2700958-9.5404985 9.5314639-9.5404985zm-19.062927 47.702492h-133.4404948v95.404985h133.4404948zm-57.543436 9.554793c3.745866-.209891 7.243913 1.9081 8.921451 5.266356l14.230475 28.497468 24.896184-16.619548v22.935358l-23.304429 15.551013c-2.27802 1.516939-5.070739 1.993964-7.730017 1.287967-2.640216-.705997-4.861047-2.509151-6.081074-4.951519l-9.56959-19.166861-11.180407 27.982282c-1.191433 2.976635-3.793523 5.151869-6.929375 5.800623-3.135851.667835-6.38608-.333917-8.6641-2.604556l-13.534679-13.547508-27.3838957 18.270055v-22.935359l23.3139607-15.551012c3.77446-2.518692 8.816604-2.022586 12.028707 1.192562l8.835667 8.853583 13.696714-34.269471c1.391594-3.491822 4.699012-5.829244 8.454408-5.991433zm67.074899-38.1762881h-152.5034217v9.5404984h152.5034217z" fill-rule="evenodd"/></svg>