<svg height="642" viewBox="0 0 642 642" width="642" xmlns="http://www.w3.org/2000/svg"><path d="m321 102.25c120.622396 0 218.75 98.127604 218.75 218.75s-98.127604 218.75-218.75 218.75c-18.903646 0-37.169271-2.661458-54.6875-7.200521v-37.661458c17.28125 5.432291 35.638021 8.403646 54.6875 8.403646 100.533854 0 182.291667-81.776042 182.291667-182.291667s-81.757813-182.291667-182.291667-182.291667c-100.515625 0-182.291667 81.776042-182.291667 182.291667 0 50.822917 21 96.723958 54.6875 129.773438v-56.856771h36.458334v109.375h-109.375v-36.458334h37.898437c-34.799479-38.736979-56.127604-89.778646-56.127604-145.833333 0-120.622396 98.145833-218.75 218.75-218.75zm18.229167 91.145833v120.057292l67.57552 67.575521-25.776041 25.794271-78.257813-78.257813v-135.169271z" fill-rule="evenodd"/></svg>