<svg height="1200" viewBox="0 0 1200 1200" width="1200" xmlns="http://www.w3.org/2000/svg"><path d="m600 900c-25.925 0-50.975-3.65-75-9.875v-51.65c23.7 7.45 48.875 11.525 75 11.525 137.875 0 250-112.15 250-250s-112.125-250-250-250c-137.85 0-250 112.15-250 250 0 69.7 28.8 132.65 75 177.975v-77.975h50v150h-150v-50h51.975c-47.725-53.125-76.975-123.125-76.975-200 0-165.425 134.6-300 300-300 165.425 0 300 134.575 300 300s-134.575 300-300 300m-25-475v185.375l107.325 107.325 35.35-35.375-92.675-92.675v-164.65z" fill-rule="evenodd"/></svg>