<svg height="40" viewBox="0 0 40 40" width="40" xmlns="http://www.w3.org/2000/svg"><path d="m20 30c-.8641667 0-1.6991667-.1216667-2.5-.3291667v-1.7216666c.79.2483333 1.6291667.3841666 2.5.3841666 4.5958333 0 8.3333333-3.7383333 8.3333333-8.3333333s-3.7375-8.3333333-8.3333333-8.3333333c-4.595 0-8.3333333 3.7383333-8.3333333 8.3333333 0 2.3233333.96 4.4216667 2.5 5.9325v-2.5991667h1.6666666v5h-5v-1.6666666h1.7325c-1.5908333-1.7708334-2.5658333-4.1041667-2.5658333-6.6666667 0-5.5141667 4.4866667-10 10-10 5.5141667 0 10 4.4858333 10 10s-4.4858333 10-10 10m-.8333333-15.8333333v6.1791666l3.5775 3.5775 1.1783333-1.1791666-3.0891667-3.0891667v-5.4883333z" fill-rule="evenodd"/></svg>