<svg height="280" viewBox="0 0 280 280" width="280" xmlns="http://www.w3.org/2000/svg"><path d="m117.316686 30.9926986c23.046698 0 44.757869 8.9960445 61.029786 25.2895203 16.294827 16.284043 25.294202 37.9964146 25.294202 61.0344671 0 15.816453-4.287067 31.074453-12.367531 44.439037l-.428788.701643-.286672.458317 55.521235 55.530835c3.762735 3.763319 3.899334 9.779313.409964 13.706192l-.201384.220016-.209129.215378-13.490265 13.490265c-3.834238 3.834239-10.007453 3.903952-13.926745.20914l-.21539-.20914-55.523286-55.523686-.430884.269659c-13.056056 8.083517-28.002736 12.512328-43.548961 12.801231l-.8334.011514-.792752.003587c-23.0466976 0-44.7578692-8.996045-61.0297858-25.289521-16.2948272-16.284043-25.2942016-37.996414-25.2942016-61.034467 0-23.0380525 8.9993744-44.7504241 25.2871824-61.0274456 16.2789358-16.3004973 37.9901074-25.2965418 61.036805-25.2965418zm0 39.0809969c-12.635214 0-24.4663927 4.902047-33.4028463 13.8463825-8.9380972 8.9302153-13.8401442 20.761394-13.8401442 33.396608 0 12.643726 4.9013194 24.475207 13.8432641 33.409267 8.9327821 8.932782 20.7662604 13.833724 33.3997264 13.833724s24.466945-4.900942 33.402847-13.836842c8.938824-8.930942 13.840144-20.762423 13.840144-33.406149 0-12.635214-4.902047-24.4663927-13.846383-33.4028463-8.930215-8.9380972-20.761394-13.8401442-33.396608-13.8401442z"/></svg>