<svg height="1200" viewBox="0 0 1200 1200" width="1200" xmlns="http://www.w3.org/2000/svg"><path d="m540 720c-48.06 0-93.27-18.72-127.26-52.71-34.02-33.99-52.74-79.2-52.74-127.29 0-48.06 18.72-93.27 52.74-127.26 33.99-34.02 79.2-52.74 127.26-52.74s93.27 18.72 127.26 52.74c34.02 33.99 52.74 79.2 52.74 127.26 0 48.09-18.72 93.3-52.74 127.29-33.99 33.99-79.2 52.71-127.26 52.71zm351.21 128.79-161.76-161.79c32.64-41.88 50.55-93.03 50.55-147 0-64.11-24.99-124.38-70.32-169.68-45.3-45.36-105.57-70.32-169.68-70.32s-124.38 24.96-169.68 70.32c-45.33 45.3-70.32 105.57-70.32 169.68s24.99 124.38 70.32 169.68c45.3 45.36 105.57 70.32 169.68 70.32 53.97 0 105.12-17.88 147-50.58l161.79 161.79z" fill-rule="evenodd"/></svg>