<svg height="642" viewBox="0 0 642 642" width="642" xmlns="http://www.w3.org/2000/svg"><path d="m277.25 102.25c46.746875 0 90.69375 18.2 123.725 51.275 33.053125 33.03125 51.275 76.978125 51.275 123.725 0 39.353125-13.059375 76.65-36.859375 107.1875l117.95 117.971875-30.93125 30.93125-117.971875-117.971875c-30.5375 23.84375-67.834375 36.88125-107.1875 36.88125-46.746875 0-90.69375-18.2-123.725-51.275-33.053125-33.03125-51.275-76.978125-51.275-123.725s18.221875-90.69375 51.275-123.725c33.03125-33.075 76.978125-51.275 123.725-51.275zm0 43.75c-35.04375 0-68.009375 13.65-92.79375 38.45625-24.80625 24.784375-38.45625 57.75-38.45625 92.79375 0 35.065625 13.65 68.03125 38.45625 92.815625 24.784375 24.784375 57.75 38.434375 92.79375 38.434375s68.009375-13.65 92.79375-38.434375c24.80625-24.784375 38.45625-57.75 38.45625-92.815625 0-35.04375-13.65-68.009375-38.45625-92.79375-24.784375-24.80625-57.75-38.45625-92.79375-38.45625z" fill-rule="evenodd"/></svg>