<?xml version="1.0" encoding="UTF-8"?>
<svg width="40px" height="40px" viewBox="0 0 40 40" version="1.1" xmlns="http://www.w3.org/2000/svg" xmlns:xlink="http://www.w3.org/1999/xlink">
    <!-- Generator: Sketch 50.2 (55047) - http://www.bohemiancoding.com/sketch -->
    <title>Icons/search</title>
    <desc>Created with Sketch.</desc>
    <defs>
        <path d="M18,24 C16.398,24 14.891,23.376 13.758,22.243 C12.624,21.11 12,19.603 12,18 C12,16.398 12.624,14.891 13.758,13.758 C14.891,12.624 16.398,12 18,12 C19.602,12 21.109,12.624 22.242,13.758 C23.376,14.891 24,16.398 24,18 C24,19.603 23.376,21.11 22.242,22.243 C21.109,23.376 19.602,24 18,24 L18,24 Z M29.707,28.293 L24.315,22.9 C25.403,21.504 26,19.799 26,18 C26,15.863 25.167,13.854 23.656,12.344 C22.146,10.832 20.137,10 18,10 C15.863,10 13.854,10.832 12.344,12.344 C10.833,13.854 10,15.863 10,18 C10,20.137 10.833,22.146 12.344,23.656 C13.854,25.168 15.863,26 18,26 C19.799,26 21.504,25.404 22.9,24.314 L28.293,29.707 L29.707,28.293 Z" id="path-1"></path>
    </defs>
    <g id="Icons/search" stroke="none" stroke-width="1" fill="none" fill-rule="evenodd">
        <mask id="mask-2" fill="white">
            <use xlink:href="#path-1"></use>
        </mask>
        <use id="Mask" fill="#000000" xlink:href="#path-1"></use>
    </g>
</svg>