<svg height="1200" viewBox="0 0 1200 1200" width="1200" xmlns="http://www.w3.org/2000/svg"><path d="m891.21 848.79-42.42 42.42-161.79-161.79c-41.88 32.7-93.03 50.58-147 50.58-64.11 0-124.38-24.96-169.68-70.32-45.33-45.3-70.32-105.57-70.32-169.68s24.99-124.38 70.32-169.68c45.3-45.36 105.57-70.32 169.68-70.32s124.38 24.96 169.68 70.32c45.33 45.3 70.32 105.57 70.32 169.68 0 53.97-17.91 105.12-50.55 147zm-351.21-128.79c48.06 0 93.27-18.72 127.26-52.71 34.02-33.99 52.74-79.2 52.74-127.29 0-48.06-18.72-93.27-52.74-127.26-33.99-34.02-79.2-52.74-127.26-52.74s-93.27 18.72-127.26 52.74c-34.02 33.99-52.74 79.2-52.74 127.26 0 48.09 18.72 93.3 52.74 127.29 33.99 33.99 79.2 52.71 127.26 52.71z" fill-rule="evenodd"/></svg>