<svg height="280" viewBox="0 0 280 280" width="280" xmlns="http://www.w3.org/2000/svg"><path d="m120.919003 44.5950156c20.388045 0 39.554907 7.9376947 53.961059 22.3629283 14.415693 14.4061527 22.362929 33.5730141 22.362929 53.9610591 0 17.163357-5.695678 33.429907-16.07574 46.748442l51.442367 51.451909-13.490264 13.490264-51.451909-51.451908c-13.318535 10.399144-29.585085 16.085281-46.748442 16.085281-20.388045 0-39.5549064-7.937695-53.9610591-22.362929-14.4156931-14.406152-22.3629283-33.573014-22.3629283-53.961059s7.9472352-39.5549064 22.3629283-53.9610591c14.4061527-14.4252336 33.5730141-22.3629283 53.9610591-22.3629283zm0 19.0809969c-15.283878 0-29.6614095 5.953271-40.4707943 16.7721962-10.8189252 10.8093848-16.7721962 25.1869163-16.7721962 40.4707943 0 15.293419 5.953271 29.67095 16.7721962 40.480335 10.8093848 10.809385 25.1869163 16.762656 40.4707943 16.762656 15.283879 0 29.66141-5.953271 40.470795-16.762656 10.818925-10.809385 16.772196-25.186916 16.772196-40.480335 0-15.283878-5.953271-29.6614095-16.772196-40.4707943-10.809385-10.8189252-25.186916-16.7721962-40.470795-16.7721962z" fill-rule="evenodd"/></svg>