<?xml version="1.0" encoding="UTF-8"?>
<svg width="40px" height="40px" viewBox="0 0 40 40" version="1.1" xmlns="http://www.w3.org/2000/svg" xmlns:xlink="http://www.w3.org/1999/xlink">
    <!-- Generator: Sketch 50.2 (55047) - http://www.bohemiancoding.com/sketch -->
    <title>Icons/Select many</title>
    <desc>Created with Sketch.</desc>
    <defs>
        <path d="M15.1969697,15.2 L13.5984848,15.2 L13.5984848,13.6 L15.1969697,13.6 L15.1969697,15.2 Z M15.9962121,12 C16.4381932,12 16.7954545,12.3584 16.7954545,12.8 L16.7954545,16 C16.7954545,16.4424 16.4381932,16.8 15.9962121,16.8 L12.7992424,16.8 C12.3580606,16.8 12,16.4424 12,16 L12,12.8 C12,12.3584 12.3580606,12 12.7992424,12 L15.9962121,12 Z M15.1969697,20.8 L13.5984848,20.8 L13.5984848,19.2 L15.1969697,19.2 L15.1969697,20.8 Z M15.9962121,17.6 C16.4381932,17.6 16.7954545,17.9584 16.7954545,18.4 L16.7954545,21.6 C16.7954545,22.0424 16.4381932,22.4 15.9962121,22.4 L12.7992424,22.4 C12.3580606,22.4 12,22.0424 12,21.6 L12,18.4 C12,17.9584 12.3580606,17.6 12.7992424,17.6 L15.9962121,17.6 Z M15.1969697,26.4 L13.5984848,26.4 L13.5984848,24.8 L15.1969697,24.8 L15.1969697,26.4 Z M15.9962121,23.2 C16.4381932,23.2 16.7954545,23.5584 16.7954545,24 L16.7954545,27.2 C16.7954545,27.6424 16.4381932,28 15.9962121,28 L12.7992424,28 C12.3580606,28 12,27.6424 12,27.2 L12,24 C12,23.5584 12.3580606,23.2 12.7992424,23.2 L15.9962121,23.2 Z M18.4,15.2 L18.4,13.6 L27.9909091,13.6 L27.9909091,15.2 L18.4,15.2 Z M18.4,20.8 L18.4,19.2 L27.9909091,19.2 L27.9909091,20.8 L18.4,20.8 Z M18.4,26.4 L18.4,24.8 L27.9909091,24.8 L27.9909091,26.4 L18.4,26.4 Z" id="path-1"></path>
    </defs>
    <g id="Icons/Select-many" stroke="none" stroke-width="1" fill="none" fill-rule="evenodd">
        <mask id="mask-2" fill="white">
            <use xlink:href="#path-1"></use>
        </mask>
        <use id="Mask" fill="#414453" opacity="0" xlink:href="#path-1"></use>
        <g id="Atoms/Colors/Idle" mask="url(#mask-2)" fill="#59636B" opacity="0.25">
            <rect id="State" x="-2" y="-2" width="40" height="40"></rect>
        </g>
    </g>
</svg>