<svg height="1200" viewBox="0 0 1200 1200" width="1200" xmlns="http://www.w3.org/2000/svg"><path d="m455.909091 456h-47.954546v-48h47.954546zm23.977273-96c13.259431 0 23.977272 10.752 23.977272 24v96c0 13.272-10.717841 24-23.977272 24h-95.909091c-13.235455 0-23.977273-10.728-23.977273-24v-96c0-13.248 10.741818-24 23.977273-24zm-23.977273 264h-47.954546v-48h47.954546zm23.977273-96c13.259431 0 23.977272 10.752 23.977272 24v96c0 13.272-10.717841 24-23.977272 24h-95.909091c-13.235455 0-23.977273-10.728-23.977273-24v-96c0-13.248 10.741818-24 23.977273-24zm-23.977273 264h-47.954546v-48h47.954546zm23.977273-96c13.259431 0 23.977272 10.752 23.977272 24v96c0 13.272-10.717841 24-23.977272 24h-95.909091c-13.235455 0-23.977273-10.728-23.977273-24v-96c0-13.248 10.741818-24 23.977273-24zm72.113636-240v-48h287.727273v48zm0 168v-48h287.727273v48zm0 168v-48h287.727273v48z" fill-rule="evenodd"/></svg>