<svg height="40" viewBox="0 0 40 40" width="40" xmlns="http://www.w3.org/2000/svg"><path d="m15.1969697 15.2h-1.5984849v-1.6h1.5984849zm.7992424-3.2c.4419811 0 .7992424.3584.7992424.8v3.2c0 .4424-.3572613.8-.7992424.8h-3.1969697c-.4411818 0-.7992424-.3576-.7992424-.8v-3.2c0-.4416.3580606-.8.7992424-.8zm-.7992424 8.8h-1.5984849v-1.6h1.5984849zm.7992424-3.2c.4419811 0 .7992424.3584.7992424.8v3.2c0 .4424-.3572613.8-.7992424.8h-3.1969697c-.4411818 0-.7992424-.3576-.7992424-.8v-3.2c0-.4416.3580606-.8.7992424-.8zm-.7992424 8.8h-1.5984849v-1.6h1.5984849zm.7992424-3.2c.4419811 0 .7992424.3584.7992424.8v3.2c0 .4424-.3572613.8-.7992424.8h-3.1969697c-.4411818 0-.7992424-.3576-.7992424-.8v-3.2c0-.4416.3580606-.8.7992424-.8zm2.4037879-8v-1.6h9.5909091v1.6zm0 5.6v-1.6h9.5909091v1.6zm0 5.6v-1.6h9.5909091v1.6z" fill-rule="evenodd"/></svg>