<svg height="642" viewBox="0 0 642 642" width="642" xmlns="http://www.w3.org/2000/svg"><path d="m233.41714 391c9.668336 0 17.483428 7.84 17.483428 17.5v70c0 9.6775-7.815092 17.5-17.483428 17.5h-69.933712c-9.650852 0-17.483428-7.8225-17.483428-17.5v-70c0-9.66 7.832576-17.5 17.483428-17.5zm-17.483428 35h-34.966856v35h34.966856zm279.867424 0v35h-209.801136v-35zm-262.383996-157.5c9.668336 0 17.483428 7.84 17.483428 17.5v70c0 9.6775-7.815092 17.5-17.483428 17.5h-69.933712c-9.650852 0-17.483428-7.8225-17.483428-17.5v-70c0-9.66 7.832576-17.5 17.483428-17.5zm-17.483428 35h-34.966856v35h34.966856zm279.867424 0v35h-209.801136v-35zm-262.383996-157.5c9.668336 0 17.483428 7.84 17.483428 17.5v70c0 9.6775-7.815092 17.5-17.483428 17.5h-69.933712c-9.650852 0-17.483428-7.8225-17.483428-17.5v-70c0-9.66 7.832576-17.5 17.483428-17.5zm-17.483428 35h-34.966856v35h34.966856zm279.867424 0v35h-209.801136v-35z" fill-rule="evenodd"/></svg>