<svg height="642" viewBox="0 0 642 642" width="642" xmlns="http://www.w3.org/2000/svg"><path d="m364.75 102.25v49.503125c19.709375 5.140625 38.15 13.3875 54.534375 24.565625l33.20625-33.20625 46.396875 46.396875-33.20625 33.20625c11.178125 16.384375 19.446875 34.825 24.565625 54.534375h49.503125v87.5h-49.503125c-5.11875 19.73125-13.3875 38.15-24.565625 54.534375l33.20625 33.20625-46.396875 46.396875-33.20625-33.184375c-16.384375 11.15625-34.825 19.425-54.534375 24.54375v49.503125h-87.5v-49.503125c-19.709375-5.11875-38.15-13.3875-54.534375-24.54375l-33.20625 33.184375-46.396875-46.396875 33.20625-33.20625c-11.178125-16.384375-19.446875-34.803125-24.565625-54.534375h-49.503125v-87.5h49.503125c5.11875-19.709375 13.3875-38.15 24.565625-54.534375l-33.20625-33.20625 46.396875-46.396875 33.20625 33.20625c16.384375-11.178125 34.825-19.425 54.534375-24.565625v-49.503125zm-43.75 109.375c-60.320312 0-109.375 49.054687-109.375 109.375s49.054688 109.375 109.375 109.375 109.375-49.054687 109.375-109.375-49.054688-109.375-109.375-109.375z" fill-rule="evenodd"/></svg>