<svg height="1200" viewBox="0 0 1200 1200" width="1200" xmlns="http://www.w3.org/2000/svg"><path d="m600 750c-82.725 0-150-67.275-150-150s67.275-150 150-150 150 67.275 150 150-67.275 150-150 150zm300-90v-120h-67.89c-7.02-27.03-18.36-52.32-33.69-74.79l45.54-45.54-63.63-63.63-45.54 45.54c-22.47-15.33-47.76-26.64-74.79-33.69v-67.89h-120v67.89c-27.03 7.05-52.32 18.36-74.79 33.69l-45.54-45.54-63.63 63.63 45.54 45.54c-15.33 22.47-26.67 47.76-33.69 74.79h-67.89v120h67.89c7.02 27.06 18.36 52.32 33.69 74.79l-45.54 45.54 63.63 63.63 45.54-45.51c22.47 15.3 47.76 26.64 74.79 33.66v67.89h120v-67.89c27.03-7.02 52.32-18.36 74.79-33.66l45.54 45.51 63.63-63.63-45.54-45.54c15.33-22.47 26.67-47.73 33.69-74.79z" fill-rule="evenodd"/></svg>