<svg height="280" viewBox="0 0 280 280" width="280" xmlns="http://www.w3.org/2000/svg"><path d="m150 20c5.523 0 10 4.4772 10 10v12.0004c12.767 2.5916 24.652 7.6157 35.148 14.5675l8.492-8.4918c3.905-3.9052 10.237-3.9053 14.142 0l14.142 14.1421c3.905 3.9053 3.905 10.2369 0 14.1422l-8.492 8.4918c6.952 10.4961 11.976 22.3798 14.568 35.1478h12c5.523 0 10 4.477 10 10v20c0 5.523-4.477 10-10 10h-12c-2.592 12.768-7.616 24.652-14.568 35.148l8.492 8.492c3.905 3.905 3.905 10.237 0 14.142l-14.142 14.142c-3.906 3.905-10.237 3.905-14.142 0l-8.492-8.492c-10.496 6.952-22.381 11.976-35.148 14.568v12c0 5.523-4.477 10-10 10h-20c-5.523 0-10-4.477-10-10v-12c-12.767-2.592-24.6517-7.616-35.1478-14.568l-8.4918 8.492c-3.9053 3.905-10.2369 3.905-14.1422 0l-14.1421-14.142c-3.9052-3.905-3.9052-10.237 0-14.142l8.4919-8.492c-6.9518-10.496-11.976-22.38-14.5676-35.148h-12.0004c-5.5228 0-10-4.477-10-10v-20c0-5.523 4.4772-10 10-10h12.0004c2.5916-12.767 7.6157-24.6517 14.5675-35.1478l-8.4918-8.4918c-3.9052-3.9052-3.9052-10.2369 0-14.1421l14.1422-14.1422c3.9052-3.9052 10.2369-3.9052 14.1421 0l8.4918 8.4918c10.4961-6.9518 22.3808-11.9759 35.1478-14.5675v-12.0004c0-5.5228 4.477-10 10-10zm-10 70c-27.614 0-50 22.386-50 50s22.386 50 50 50 50-22.386 50-50-22.386-50-50-50z" fill-rule="evenodd"/></svg>