<svg height="642" viewBox="0 0 642 642" width="642" xmlns="http://www.w3.org/2000/svg"><path d="m343.916667 46c12.656875 0 22.916666 10.26025 22.916666 22.9166667v27.5009166c29.257709 5.9390837 56.494167 17.4526457 80.5475 33.3838547l19.460834-19.460375c8.948958-8.949417 23.459791-8.949646 32.40875 0l32.40875 32.408979c8.948958 8.949645 8.948958 23.459562 0 32.409208l-19.460834 19.460375c15.931667 24.053562 27.445 51.287042 33.385 80.547042h27.5c12.656875 0 22.916667 10.259791 22.916667 22.916666v45.833334c0 12.656875-10.259792 22.916666-22.916667 22.916666h-27.5c-5.94 29.26-17.453333 56.494167-33.385 80.5475l19.460834 19.460834c8.948958 8.948958 8.948958 23.459791 0 32.40875l-32.40875 32.40875c-8.95125 8.948958-23.459792 8.948958-32.40875 0l-19.460834-19.460834c-24.053333 15.931667-51.289791 27.445-80.5475 33.385v27.5c0 12.656875-10.259791 22.916667-22.916666 22.916667h-45.833334c-12.656875 0-22.916666-10.259792-22.916666-22.916667v-27.5c-29.257709-5.94-56.49348-17.453333-80.547042-33.385l-19.460375 19.460834c-8.949646 8.948958-23.459563 8.948958-32.409208 0l-32.408979-32.40875c-8.949417-8.948959-8.949417-23.459792 0-32.40875l19.460604-19.460834c-15.931209-24.053333-27.445-51.2875-33.3840837-80.5475h-27.5009166c-12.6564167 0-22.9166667-10.259791-22.9166667-22.916666v-45.833334c0-12.656875 10.26025-22.916666 22.9166667-22.916666h27.5009166c5.9390837-29.257709 17.4526457-56.49348 33.3838547-80.547042l-19.460375-19.460375c-8.949417-8.949417-8.949417-23.459563 0-32.408979l32.409208-32.409208c8.949416-8.949417 23.459562-8.949417 32.408979 0l19.460375 19.460375c24.053562-15.931209 51.289333-27.444771 80.547042-33.3838547v-27.5009166c0-12.6564167 10.259791-22.9166667 22.916666-22.9166667zm-22.916667 160.416667c-63.282083 0-114.583333 51.30125-114.583333 114.583333s51.30125 114.583333 114.583333 114.583333 114.583333-51.30125 114.583333-114.583333-51.30125-114.583333-114.583333-114.583333z" fill-rule="evenodd"/></svg>