<svg height="40" viewBox="0 0 40 40" width="40" xmlns="http://www.w3.org/2000/svg"><path d="m20 25c-2.7575 0-5-2.2425-5-5s2.2425-5 5-5 5 2.2425 5 5-2.2425 5-5 5zm10-3v-4h-2.263c-.234-.901-.612-1.744-1.123-2.493l1.518-1.518-2.121-2.121-1.518 1.518c-.749-.511-1.592-.888-2.493-1.123v-2.263h-4v2.263c-.901.235-1.744.612-2.493 1.123l-1.518-1.518-2.121 2.121 1.518 1.518c-.511.749-.889 1.592-1.123 2.493h-2.263v4h2.263c.234.902.612 1.744 1.123 2.493l-1.518 1.518 2.121 2.121 1.518-1.517c.749.51 1.592.888 2.493 1.122v2.263h4v-2.263c.901-.234 1.744-.612 2.493-1.122l1.518 1.517 2.121-2.121-1.518-1.518c.511-.749.889-1.591 1.123-2.493z" fill-rule="evenodd"/></svg>