<svg height="1200" viewBox="0 0 1200 1200" width="1200" xmlns="http://www.w3.org/2000/svg"><path d="m510.009 480c-33.09 0-60 26.88-60 60 0 33.09 26.91 60 60 60s60-26.91 60-60c0-33.12-26.91-60-60-60m0 180c-66.18 0-120-53.82-120-120s53.82-120 120-120 120 53.82 120 120-53.82 120-120 120zm-175.239 180c17.94-54.24 84.99-90 175.23-90s157.32 35.76 175.26 90zm415.23 60h-480v-30c0-105.99 98.7-180 240-180 141.33 0 240 74.01 240 180zm180.009-510v60h-90v90h-60v-90h-90v-60h90v-90h60v90z" fill-rule="evenodd"/></svg>