<svg height="290" viewBox="0 0 280 290" width="280" xmlns="http://www.w3.org/2000/svg"><path d="m250 150c11.046 0 20 8.954 20 20v90c0 11.046-8.954 20-20 20h-59.038l20-20h39.038v-90h-39.038l-20-20zm-130-140c11.046 0 20 8.9543 20 20v90c0 11.046-8.954 20-20 20h-30v45c0 8.284 6.7157 15 15 15h65.251l-17.322-17.322c-3.905-3.906-3.905-10.237 0-14.142l7.071-7.071c3.905-3.906 10.237-3.906 14.142 0l35.858 35.857c9.763 9.763 9.763 25.593 0 35.356l-35.858 35.858c-3.905 3.905-10.237 3.905-14.142 0l-7.071-7.071c-3.905-3.906-3.905-10.237 0-14.143l17.322-17.322h-65.251c-24.8528 0-45-20.147-45-45v-45h-30c-11.0457 0-20-8.954-20-20v-90c0-11.0457 8.9543-20 20-20zm-24.5892357 41.5803329-.1897643.1754671-29.2911 28.2324-11.1509-10.7478c-2.3666205-2.2810718-6.1659435-2.3395608-8.6059434-.1754671l-.1897566.1754671-4.1617 4.0111c-2.36808 2.2825725-2.427282 5.9479241-.1775133 8.2995429l.1776133.1782571 15.3125 14.7591c4.7767383 4.604557 12.4719084 4.681299 17.3460229.2302278l.2453771-.2302278 33.4524-32.2436c2.368275-2.2825725 2.427482-5.9478291.177621-8.2995358l-.177621-.1782642-4.161-4.0112c-2.366718-2.2810718-6.1661383-2.3395608-8.6062357-.1754671z"/></svg>