<svg height="280" viewBox="0 0 280 280" width="280" xmlns="http://www.w3.org/2000/svg"><path d="m250 200c5.523 0 10 4.477 10 10v30c0 5.523-4.477 10-10 10h-220c-5.5228 0-10-4.477-10-10v-30c0-5.523 4.4772-10 10-10zm-100-80c5.523 0 10 4.477 10 10v30c0 5.523-4.477 10-10 10h-120c-5.5228 0-10-4.477-10-10v-30c0-5.523 4.4772-10 10-10zm57.183-77.0529c4.067-3.9295 11.567-3.9295 15.634 0l34.805 33.6194c5.522 5.3344.811 13.4338-7.817 13.4338h-19.805v59.9997c0 5.523-4.478 10-10 10h-10c-5.523 0-10-4.477-10-10v-59.9997h-19.805c-8.628 0-13.34-8.0994-7.817-13.4338zm-137.183-2.9471c5.5228 0 10 4.4772 10 10v30c0 5.5229-4.4772 10-10 10h-40c-5.5228 0-10-4.4771-10-10v-30c0-5.5228 4.4772-10 10-10z"/></svg>