<svg height="642" viewBox="0 0 642 642" width="642" xmlns="http://www.w3.org/2000/svg"><path d="m504.333333 286.570937c12.654584 0 22.916667 10.278051 22.916667 22.952326v137.713958h45.386458c19.770209 0 30.568542 18.589089 17.913959 30.834155l-79.761459 77.163426c-9.320208 9.020264-26.507708 9.020264-35.830208 0l-79.759167-77.163426c-12.656875-12.245066-1.858541-30.834155 17.913959-30.834155h45.386458v-137.713958c0-12.674275 10.259792-22.952326 22.916667-22.952326zm-321.833333 160.666284c.552285 0 1 .447715 1 1v112.761631c0 .552285-.447715 1-1 1h-135.5c-.5522847 0-1-.447715-1-1v-112.761631c0-.552285.4477153-1 1-1zm183.333333-183.618611c.552285 0 1 .447716 1 1v112.761632c0 .552285-.447715 1-1 1h-318.833333c-.5522847 0-1-.447715-1-1v-112.761632c0-.552284.4477153-1 1-1zm229.166667-183.61861c.552285 0 1 .4477153 1 1v112.761632c0 .552284-.447715 1-1 1h-548c-.5522847 0-1-.447716-1-1v-112.761632c0-.5522847.4477153-1 1-1z"/></svg>