<svg height="642" viewBox="0 0 642 642" width="642" xmlns="http://www.w3.org/2000/svg"><path d="m595 447.238109c.552285 0 1 .447715 1 1v112.761891c0 .552285-.447715 1-1 1h-548c-.5522847 0-1-.447715-1-1v-112.761891c0-.552285.4477153-1 1-1zm-229.166667-183.619026c.552285 0 1 .447715 1 1v112.761891c0 .552285-.447715 1-1 1h-318.833333c-.5522847 0-1-.447715-1-1v-112.761891c0-.552285.4477153-1 1-1zm109.127709-176.8547302c9.320208-9.0191371 26.507708-9.0191371 35.827916 0l79.761459 77.1645182c12.654583 12.243717 1.85625 30.833766-17.913959 30.833766h-45.386458v137.713581c0 12.676598-10.262083 22.952378-22.916667 22.952378h-22.916666c-12.656875 0-22.916667-10.27578-22.916667-22.952378v-137.713581h-45.386458c-19.7725 0-30.570834-18.590049-17.913959-30.833766zm-292.461042-6.7642954c.552285 0 1 .4477152 1 1v112.7618906c0 .552285-.447715 1-1 1h-135.5c-.5522847 0-1-.447715-1-1v-112.7618906c0-.5522848.4477153-1 1-1z"/></svg>