<svg height="280" viewBox="0 0 280 280" width="280" xmlns="http://www.w3.org/2000/svg"><path d="m70 200c5.5228 0 10 4.477 10 10v30c0 5.523-4.4772 10-10 10h-40c-5.5228 0-10-4.477-10-10v-30c0-5.523 4.4772-10 10-10zm150-70c5.522 0 10 4.478 10 10v60h19.804c8.628 0 13.34 8.099 7.818 13.434l-34.805 33.619c-4.067 3.93-11.567 3.93-15.635 0l-34.804-33.619c-5.523-5.335-.811-13.434 7.817-13.434h19.805v-60c0-5.522 4.477-10 10-10zm-70-10c5.523 0 10 4.477 10 10v30c0 5.523-4.477 10-10 10h-120c-5.5228 0-10-4.477-10-10v-30c0-5.523 4.4772-10 10-10zm100-80c5.523 0 10 4.4772 10 10v30c0 5.5228-4.477 10-10 10h-220c-5.5228 0-10-4.4772-10-10v-30c0-5.5228 4.4772-10 10-10z"/></svg>