<svg version="1.1" id="Layer_1" xmlns="http://www.w3.org/2000/svg" xmlns:xlink="http://www.w3.org/1999/xlink" x="0px" y="0px"
	 viewBox="0 0 280 280" style="enable-background:new 0 0 280 280;" xml:space="preserve">
<path d="M250,200c5.5,0,10,4.5,10,10v30c0,5.5-4.5,10-10,10H30c-5.5,0-10-4.5-10-10v-30c0-5.5,4.5-10,10-10H250z M150,40
	c5.5,0,10,4.5,10,10v30c0,5.5-4.5,10-10,10H30c-5.5,0-10-4.5-10-10V50c0-5.5,4.5-10,10-10H150z M70,120c5.5,0,10,4.5,10,10v30
	c0,5.5-4.5,10-10,10H30c-5.5,0-10-4.5-10-10v-30c0-5.5,4.5-10,10-10H70z"/>
</svg>
