<?xml version="1.0" encoding="UTF-8" standalone="no"?>
<svg width="280" height="280" viewBox="0 0 13 13" fill="none" version="1.1" id="svg1"
    xmlns="http://www.w3.org/2000/svg"
    xmlns:svg="http://www.w3.org/2000/svg">
    <path style="baseline-shift:baseline;display:inline;overflow:visible;opacity:1;vector-effect:none;fill:#000000;fill-opacity:1;stroke:none;stroke-width:0.924118;stroke-linecap:round;stroke-linejoin:round;enable-background:accumulate;stop-color:#000000;stop-opacity:1" d="m 4.3522606,2.7964369 c 0,0.8090529 -0.3213485,1.584798 -0.8934338,2.1568757 -0.5720757,0.5720834 -1.4169146,0.8799833 -2.1568757,0.893434 -0.73996133,0.01345 -0.79459193,1.2923204 0,1.2923204 0.7945918,0 1.5847979,0.3213486 2.1568757,0.8934339 0.5720853,0.5720776 0.8934338,1.347812 0.8934338,2.1568751 1.459e-4,0.862605 1.2942713,0.862605 1.2941255,0 0,-0.8090672 0.3213505,-1.5847995 0.8934338,-2.1568751 0.5720777,-0.5720853 1.3538905,-0.858996 2.1550708,-0.8934339 0.8011806,-0.034438 0.7945912,-1.2923204 0,-1.2923204 -0.7945911,0 -1.5829951,-0.3213506 -2.1550708,-0.893434 C 5.9677366,4.381237 5.6463861,3.6054938 5.6463861,2.7964369 c -0.012647,-0.8338239 -1.2814793,-0.8338615 -1.2941255,0 z M 4.9984238,4.9334586 C 5.1864337,5.2588364 5.3544722,5.5981542 5.624727,5.8684055 5.8952579,6.13894 6.2357172,6.3047883 6.5614789,6.4929067 6.2357176,6.6810265 5.8952573,6.8468742 5.624727,7.117408 5.3544722,7.3876592 5.1864337,7.7269765 4.9984208,8.0523549 4.8104978,7.7273083 4.643933,7.3874176 4.3739197,7.117408 4.1033894,6.8468742 3.7629293,6.6810265 3.4371678,6.4929067 3.7629297,6.3047883 4.1033887,6.13894 4.3739197,5.8684055 4.643933,5.5983957 4.8104978,5.2585047 4.9984208,4.9334586 Z" id="path1" />
    <path d="m 10.544334,8.3415829 c -0.353898,-5.978e-4 -0.6425988,0.2832773 -0.6479662,0.6371356 0,0.1554393 -0.061529,0.305174 -0.1714666,0.415131 -0.1100213,0.1099993 -0.2578495,0.1714671 -0.4133264,0.1714671 -0.8200704,0.040478 -0.8200704,1.2518424 0,1.2923214 0.1554647,0 0.303299,0.06146 0.4133264,0.171467 0.1099348,0.109956 0.1714666,0.259689 0.1714666,0.415129 0,0.862752 1.2941272,0.862752 1.2941272,0 0,-0.15544 0.06153,-0.305173 0.171467,-0.415129 0.110038,-0.110018 0.257888,-0.171467 0.413325,-0.171467 0.82007,-0.04048 0.82007,-1.2518435 0,-1.2923214 -0.155449,0 -0.303293,-0.061456 -0.413325,-0.1714671 C 11.252026,9.2838925 11.190495,9.1341578 11.190495,8.9787185 11.185138,8.625563 10.897529,8.3419716 10.544334,8.3415829 Z" style="baseline-shift:baseline;display:inline;overflow:visible;vector-effect:none;fill:#000000;stroke:none;stroke-width:0.924118;stroke-linecap:round;stroke-linejoin:round;enable-background:accumulate;stop-color:#000000" id="path1-5" />
    <path d="M 10.53603,0.93711826 C 10.182132,0.93652036 9.8934302,1.2203953 9.8880638,1.5742538 c 0,0.1554393 -0.061529,0.305174 -0.1714676,0.4151311 -0.1100213,0.1099995 -0.2578485,0.1714672 -0.4133254,0.1714672 -0.8200707,0.040476 -0.8200707,1.2518427 0,1.292321 0.1554647,0 0.303298,0.061463 0.4133254,0.1714672 0.1099348,0.109957 0.1714676,0.2596899 0.1714676,0.4151302 0,0.8627505 1.2941262,0.8627505 1.2941262,0 0,-0.1554403 0.06153,-0.3051732 0.171467,-0.4151302 0.110039,-0.110018 0.257889,-0.1714672 0.413325,-0.1714672 0.820071,-0.040476 0.820071,-1.2518428 0,-1.292321 -0.155448,0 -0.303292,-0.061454 -0.413325,-0.1714672 C 11.243721,1.8794278 11.18219,1.7296931 11.18219,1.5742538 11.17683,1.2210987 10.889225,0.93750726 10.53603,0.93711826 Z" style="baseline-shift:baseline;display:inline;overflow:visible;vector-effect:none;fill:#000000;fill-opacity:1;stroke:none;stroke-width:0.924118;stroke-linecap:round;stroke-linejoin:round;enable-background:accumulate;stop-color:#000000" id="path1-5-2" />
</svg>
