<svg height="280" viewBox="0 0 280 280" width="280" xmlns="http://www.w3.org/2000/svg"><path d="m223.960959 91.8075699c26.721721 46.2833791 10.863864 105.4657061-35.419514 132.1874271-42.349104 24.450266-95.4974337 13.252162-124.6972725-24.28369-12.9117487-16.447591-20.6120853-37.180194-20.6120853-59.711307 0-6.021796 4.8816305-10.903427 10.9034268-10.903427 5.9615784 0 10.8056802 4.784486 10.9019661 10.723119l.0014607.180308c0 13.376916 3.5039028 25.935451 9.6439757 36.807873.1636965.227318.3184076.464152.4649711.708762l.0914191.155421c1.7780649 3.079699 3.7416617 5.985497 5.868521 8.711429 13.7273548 17.404546 35.0049633 28.577574 58.8921723 28.577574 40.985851 0 74.289051-32.893341 74.951017-73.721441l.010042-1.239618c0-.604066.049123-1.196659.143591-1.774002-.294208-11.7118-3.347076-23.516428-9.417868-34.436439l-.611112-1.078562c-3.010898-5.2150289-1.224098-11.8834601 3.990931-14.8943583 5.215029-3.0108981 11.88346-1.2240974 14.894358 3.9909312zm-43.481117-28.3169056c3.453961-4.9327667 10.252746-6.1315761 15.185513-2.6776156s6.131576 10.2527462 2.677616 15.185513c-3.453961 4.9327668-10.252746 6.1315762-15.185513 2.6776157s-6.131576-10.2527463-2.677616-15.1855131zm-65.640003-16.8246422c5.816608-1.5585556 11.79536 1.8932784 13.353916 7.709887 1.558555 5.8166086-1.893279 11.7953604-7.709887 13.353916-5.816609 1.5585556-11.795361-1.8932784-13.353916-7.709887-1.558556-5.8166086 1.893278-11.7953605 7.709887-13.353916zm29.408105 7.0179999c1.045674-5.9303117 6.700827-9.890093 12.631139-8.844419 5.930312 1.0456739 9.890093 6.7008277 8.844419 12.6311394s-6.700828 9.890093-12.631139 8.844419c-5.930312-1.0456739-9.890093-6.7008277-8.844419-12.6311394z" fill-rule="evenodd"/></svg>