<svg height="642" viewBox="0 0 642 642" width="642" xmlns="http://www.w3.org/2000/svg"><path d="m499.068805 199.063501.018172.00438c6.088688 1.692709 11.543529 5.680827 14.952954 11.586125.80865 1.400624 1.466367 2.846971 1.978197 4.320207 57.730629 105.430167 20.917272 238.20223-83.71953 298.614316-97.09862 56.059914-218.957391 30.38628-285.909256-55.674179-.306784-.396798-.614777-.791778-.921459-1.187825-.088759-.120667-.179784-.23957-.270704-.358587-28.890511-37.456347-46.072179-84.405646-46.072179-135.367938 0-13.807119 11.192881-25 25-25 13.669048 0 24.775881 10.970143 24.996651 24.586579l.003349.413421c0 30.670295 8.033393 59.464291 22.110797 84.392607.376062.522675.731178 1.066243 1.067574 1.627677l.209611.356358c4.079774 7.066377 8.585558 13.733453 13.46618 19.987517 31.475375 39.898465 80.257061 65.510841 135.020838 65.510841 93.974702 0 170.334182-75.419733 171.851974-169.032733l.023026-2.842267c0-1.385606.112724-2.744883.329501-4.069162-.675432-26.854126-7.675219-53.919232-21.594094-78.956207l-1.401193-2.472989c-6.903559-11.957315-2.80668-27.247075 9.150635-34.150635 6.217804-3.589851 13.336702-4.205183 19.708956-2.287506zm-276.976467-73.340929.386245.003429c8.493344.141078 16.702722 4.6089 21.259071 12.500729 6.90356 11.957315 2.806681 27.247075-9.150635 34.150635-3.826341 2.209139-7.993924 3.291833-12.118753 3.350974l-.386566.002549c-8.629981-.009906-17.019931-4.492757-21.645316-12.504158-6.903559-11.957316-2.806681-27.247076 9.150635-34.150636 3.945914-2.278174 8.254732-3.358401 12.505319-3.353522zm176.219046 12.504158c6.903559-11.957316 22.193319-16.054195 34.150635-9.150636 11.957316 6.90356 16.054195 22.19332 9.150635 34.150636-6.903559 11.957315-22.193319 16.054194-34.150635 9.150635-11.957316-6.90356-16.054194-22.19332-9.150635-34.150635zm-77.286865-39.0102236c13.807119 0 25 11.1928816 25 24.9999996 0 13.807119-11.192881 25-25 25s-25-11.192881-25-25c0-13.807118 11.192881-24.9999996 25-24.9999996z" fill-rule="evenodd"/></svg>