<svg height="280" viewBox="0 0 280 280" width="280" xmlns="http://www.w3.org/2000/svg"><path d="m165.9776 39.4212c.321 13.813-10.617 25.27-24.43 25.591-.494.011-1.06.005-1.548-.012-8.044-.311-16.101.653-23.862 2.887-7.764 2.219-15.202 5.76-21.973 10.392-13.547 9.273-24.201 23.112-29.58 38.98-2.711 7.923-4.158 16.335-4.243 24.881-.088 8.527 1.184 17.055 3.797 25.228 2.605 8.172 6.586 15.963 11.705 23 5.143 7.017 11.414 13.292 18.575 18.402 14.283 10.306 32.031 15.847 50.105 15.484 9.008-.162 17.999-1.77 26.568-4.783 8.564-3.02 16.694-7.45 23.968-13.083 14.568-11.249 25.581-27.385 30.566-45.487 2.522-9.03 3.598-18.551 3.151-28.05-.439-9.488-2.407-18.931-5.845-27.88l-.026-.068c-1.981-5.157.594-10.944 5.752-12.925 4.961-1.905 10.516.433 12.694 5.202 4.85 10.677 7.988 22.193 9.231 33.942 1.252 11.736.639 23.723-1.878 35.391-4.966 23.365-17.819 45.108-36.077 61.032-9.114 7.974-19.552 14.527-30.825 19.279-11.271 4.746-23.369 7.68-35.636 8.637-12.244.966-24.728-.017-36.808-2.98-12.081-2.946-23.717-7.892-34.309-14.559-10.607-6.65-20.14-15.055-28.192-24.759-8.027-9.722-14.564-20.767-19.169-32.644-4.616-11.868-7.314-24.543-7.958-37.312-.655-12.75.725-25.724 4.158-38.199 3.413-12.482 8.902-24.43 16.127-35.249 7.225-10.823 16.214-20.503 26.537-28.583 10.332-8.063 21.999-14.547 34.477-18.981 12.466-4.455 25.711-6.888 38.97-7.195l.388-.009c13.813-.321 25.27 10.617 25.59 24.43z" fill-rule="evenodd"/></svg>