<svg height="280" viewBox="0 0 280 280" width="280" xmlns="http://www.w3.org/2000/svg"><path d="m232.1416 101.0757c9.479 19.13 12.708 41.732 8.668 63.517-3.944 21.806-15.331 42.576-32.175 58.144-8.405 7.792-18.141 14.305-28.769 19.14-10.627 4.829-22.139 7.97-33.928 9.215-11.773 1.254-23.872.637-35.677-1.928-11.807-2.547-23.284-7.064-33.827-13.324-10.559-6.242-20.153-14.262-28.348-23.642-8.17-9.398-14.932-20.183-19.809-31.89-9.806-23.447-11.949-50.235-5.585-75.66 3.153-12.7 8.431-24.958 15.535-36.148 7.103-11.192 16.058-21.302 26.46-29.831 10.411-8.511 22.272-15.463 35.067-20.331 12.781-4.888 26.465-7.718 40.246-8.338 13.8-.62 25.491 10.064 26.111 23.864.621 13.8-10.064 25.491-23.864 26.111-.343.016-.686.024-1.027.025h-1.22c-8.566.001-17.061 1.362-25.137 4.03-8.081 2.653-15.714 6.663-22.563 11.742-13.71 10.173-24.057 24.825-28.911 41.127-2.451 8.143-3.587 16.68-3.359 25.25.225 8.552 1.813 17.005 4.696 25.007 2.877 8.003 7.084 15.534 12.346 22.247 5.286 6.693 11.618 12.583 18.731 17.285 14.196 9.491 31.366 14.133 48.49 13.197 8.533-.45 16.938-2.265 24.862-5.36 7.919-3.104 15.346-7.494 21.912-12.945 13.154-10.891 22.701-26.056 26.665-42.598 2.011-8.253 2.695-16.888 2.011-25.414-.676-8.508-2.714-16.861-6.021-24.701-2.144-5.084.238-10.944 5.323-13.089 4.886-2.061 10.49.06 12.822 4.742z" fill-rule="evenodd"/></svg>