<svg height="642" viewBox="0 0 642 642" width="642" xmlns="http://www.w3.org/2000/svg"><path d="m513.510484 210.501642c61.26909 106.121176 24.90929 241.817797-81.211886 303.086887-97.09862 56.059914-218.957391 30.38628-285.909256-55.674179-.306784-.396798-.614777-.791778-.921459-1.187825-.088759-.120667-.179784-.23957-.270704-.358587-28.890511-37.456347-46.072179-84.405646-46.072179-135.367938 0-13.807119 11.192881-25 25-25 13.669048 0 24.775881 10.970143 24.996651 24.586579l.003349.413421c0 30.669884 8.033177 59.46352 22.110231 84.391605.376266.523123.731572 1.066959 1.06814 1.628679l.209611.356358c4.084204 7.07405 8.595344 13.747932 13.48208 20.007889 31.475814 39.886671 80.250332 65.490469 135.004938 65.490469 93.974702 0 170.334182-75.419733 171.851974-169.032733l.023026-2.842267c0-1.385606.112724-2.744883.329501-4.069162-.675362-26.853854-7.67515-53.919106-21.594094-78.956207l-1.401193-2.472989c-6.903559-11.957315-2.80668-27.247075 9.150635-34.150635 11.957316-6.903559 27.247076-2.80668 34.150635 9.150635zm-99.695989-64.926619c7.919438-11.310129 23.508082-14.058828 34.818212-6.13939s14.058828 23.508083 6.13939 34.818212c-7.919438 11.31013-23.508082 14.058828-34.818212 6.13939-11.310129-7.919438-14.058828-23.508082-6.13939-34.818212zm-150.50315-38.576501c13.336652-3.573545 27.045076 4.341017 30.618622 17.67767 3.573545 13.336652-4.341017 27.045076-17.67767 30.618621-13.336653 3.573546-27.045076-4.341017-30.618622-17.677669-3.573545-13.336653 4.341017-27.045077 17.67767-30.618622zm67.428583 16.091271c2.397581-13.597357 15.364041-22.67657 28.961398-20.278989 13.597358 2.397581 22.676571 15.364041 20.27899 28.961398-2.397581 13.597358-15.364041 22.676571-28.961399 20.27899-13.597357-2.397581-22.67657-15.364041-20.278989-28.961399z" fill-rule="evenodd"/></svg>