<svg height="280" viewBox="0 0 280 280" width="280" xmlns="http://www.w3.org/2000/svg"><path d="m77.9867601 173.391745c15.7799844 0 28.6214949 12.84151 28.6214949 28.621495 0 15.779984-12.8415105 28.621495-28.6214949 28.621495s-28.6214953-12.841511-28.6214953-28.621495c0-15.779985 12.8415109-28.621495 28.6214953-28.621495zm-19.0809969-66.78349c63.1294778 0 114.4859818 51.356504 114.4859818 114.485982h-19.080997c0-52.615849-42.798676-95.404985-95.4049848-95.404985zm0-57.2429902c94.6894468 0 171.7289718 77.0395252 171.7289718 171.7289722h-19.080997c0-84.166277-68.481698-152.6479753-152.6479748-152.6479753zm19.0809969 143.1074762c-5.2568146 0-9.5404984 4.283684-9.5404984 9.540499s4.2836838 9.540498 9.5404984 9.540498c5.2568147 0 9.5404985-4.283683 9.5404985-9.540498s-4.2836838-9.540499-9.5404985-9.540499z" fill-rule="evenodd"/></svg>