<svg height="642" viewBox="0 0 642 642" width="642" xmlns="http://www.w3.org/2000/svg"><path d="m178.8125 397.5625c36.18125 0 65.625 29.44375 65.625 65.625s-29.44375 65.625-65.625 65.625-65.625-29.44375-65.625-65.625 29.44375-65.625 65.625-65.625zm-43.75-153.125c144.746875 0 262.5 117.753125 262.5 262.5h-43.75c0-120.640625-98.13125-218.75-218.75-218.75zm0-131.25c217.109375 0 393.75 176.640625 393.75 393.75h-43.75c0-192.98125-157.01875-350-350-350zm43.75 328.125c-12.053125 0-21.875 9.821875-21.875 21.875s9.821875 21.875 21.875 21.875 21.875-9.821875 21.875-21.875-9.821875-21.875-21.875-21.875z" fill-rule="evenodd"/></svg>