<svg height="40" viewBox="0 0 40 40" width="40" xmlns="http://www.w3.org/2000/svg"><path d="m26.9839015 26h-13.9867424v-10h13.9867424zm-14.9857954-13h15.9848484v1h-15.9848484zm17.9829545 2v-3c0-.552-.4465767-1-.999053-1h-17.9829546c-.5514772 0-.999053.448-.999053 1v3c0 .552.4475758 1 .999053 1v10h-.999053v2h8.9914773v2h1.998106v-2h8.9914773v-2h-.999053v-10c.5524763 0 .999053-.448.999053-1zm-15.9810606 10h3v-2h-3zm4 0h8v-2h-8zm-4-3h3v-2h-3zm4 0h8v-2h-8zm-4-3h3v-2h-3zm4 0h8v-2h-8z" fill-rule="evenodd"/></svg>