<svg height="280" viewBox="0 0 280 280" width="280" xmlns="http://www.w3.org/2000/svg"><path d="m240 30c11.046 0 20 8.9543 20 20v180c0 11.046-8.954 20-20 20h-200c-11.0457 0-20-8.954-20-20v-180c0-11.0457 8.9543-20 20-20zm-150 160h-30c-5.5228 0-10 4.477-10 10v10c0 5.523 4.4772 10 10 10h30c5.5228 0 10-4.477 10-10v-10c0-5.523-4.4772-10-10-10zm130 0h-90c-5.523 0-10 4.477-10 10v10c0 5.523 4.477 10 10 10h90c5.523 0 10-4.477 10-10v-10c0-5.523-4.477-10-10-10zm0-50h-90c-5.523 0-10 4.477-10 10v10c0 5.523 4.477 10 10 10h90c5.523 0 10-4.477 10-10v-10c0-5.523-4.477-10-10-10zm-130 0h-30c-5.5228 0-10 4.477-10 10v10c0 5.523 4.4772 10 10 10h30c5.5228 0 10-4.477 10-10v-10c0-5.523-4.4772-10-10-10zm130-50h-90c-5.523 0-10 4.4771-10 10v10c0 5.523 4.477 10 10 10h90c5.523 0 10-4.477 10-10v-10c0-5.5228-4.477-10-10-10zm-130 0h-30c-5.5228 0-10 4.4771-10 10v10c0 5.523 4.4772 10 10 10h30c5.5228 0 10-4.477 10-10v-10c0-5.5228-4.4772-10-10-10z" fill-rule="evenodd"/></svg>