<svg height="1200" viewBox="0 0 1200 1200" width="1200" xmlns="http://www.w3.org/2000/svg"><path d="m899.431818 450c0 16.56-13.397301 30-29.971591 30v300h29.971591v60h-269.744318v60h-59.943182v-60h-269.744318v-60h29.971591v-300c-16.544318 0-29.971591-13.44-29.971591-30v-90c0-16.56 13.427273-30 29.971591-30h539.488636c16.57429 0 29.971591 13.44 29.971591 30zm-89.914773 330v-300h-419.602272v300zm-449.573863-390v30h479.545454v-30zm60.056818 360v-60h90v60zm120 0v-60h240v60zm-120-90v-60h90v60zm120 0v-60h240v60zm-120-90v-60h90v60zm120 0v-60h240v60z" fill-rule="evenodd"/></svg>