<svg height="1200" viewBox="0 0 1200 1200" width="1200" xmlns="http://www.w3.org/2000/svg"><path d="m809.517045 780h-419.602272v-300h419.602272zm-449.573863-390h479.545454v30h-479.545454zm539.488636 60v-90c0-16.56-13.397301-30-29.971591-30h-539.488636c-16.544318 0-29.971591 13.44-29.971591 30v90c0 16.56 13.427273 30 29.971591 30v300h-29.971591v60h269.744318v60h59.943182v-60h269.744318v-60h-29.971591v-300c16.57429 0 29.971591-13.44 29.971591-30zm-479.431818 300h90v-60h-90zm120 0h240v-60h-240zm-120-90h90v-60h-90zm120 0h240v-60h-240zm-120-90h90v-60h-90zm120 0h240v-60h-240z" fill-rule="evenodd"/></svg>