<svg height="642" viewBox="0 0 642 642" width="642" xmlns="http://www.w3.org/2000/svg"><path d="m517.481416 124.125c12.085419 0 21.854285 9.8 21.854285 21.875v65.625c0 12.075-9.768866 21.875-21.854285 21.875v218.75h21.854285v43.75h-196.688566v43.75h-43.70857v-43.75h-196.688565v-43.75h21.854285v-218.75c-12.063565 0-21.854285-9.8-21.854285-21.875v-65.625c0-12.075 9.79072-21.875 21.854285-21.875zm-43.70857 109.375h-305.959991v218.75h305.959991zm-218.397846 153.125v43.75h-65.625v-43.75zm196.875 0v43.75h-175v-43.75zm-196.875-65.625v43.75h-65.625v-43.75zm196.875 0v43.75h-175v-43.75zm-196.875-65.625v43.75h-65.625v-43.75zm196.875 0v43.75h-175v-43.75zm43.377131-87.5h-349.668561v21.875h349.668561z" fill-rule="evenodd"/></svg>