<svg height="1200" viewBox="0 0 1200 1200" width="1200" xmlns="http://www.w3.org/2000/svg"><path d="m360 527.58 300 300 167.58-167.58-300-300h-167.58zm300 372.42c-7.68 0-15.36-2.94-21.21-8.79l-330-330c-5.61-5.61-8.79-13.26-8.79-21.21v-210c0-16.56 13.44-30 30-30h210c7.95 0 15.57 3.18 21.21 8.79l330 330c11.73 11.73 11.73 30.69 0 42.42l-210 210c-5.85 5.85-13.53 8.79-21.21 8.79zm-150-449.997c0 33.09-26.88 60-60 60-33.18 0-60-26.91-60-60 0-33.15 26.82-60 60-60 33.12 0 60 26.85 60 60" fill-rule="evenodd"/></svg>