<svg height="642" viewBox="0 0 642 642" width="642" xmlns="http://www.w3.org/2000/svg"><path d="m277.25 102.25c5.796875 0 11.353125 2.31875 15.465625 6.409375l240.625 240.625c8.553125 8.553125 8.553125 22.378125 0 30.93125l-153.125 153.125c-4.265625 4.265625-9.865625 6.409375-15.465625 6.409375s-11.2-2.14375-15.465625-6.409375l-240.625-240.625c-4.090625-4.090625-6.409375-9.66875-6.409375-15.465625v-153.125c0-12.075 9.8-21.875 21.875-21.875zm-9.05625 43.75h-122.19375v122.19375l218.75 218.75 122.19375-122.19375zm-56.56875 21.877188c24.15 0 43.75 19.578125 43.75 43.75 0 24.128125-19.6 43.75-43.75 43.75-24.19375 0-43.75-19.621875-43.75-43.75 0-24.171875 19.55625-43.75 43.75-43.75z" fill-rule="evenodd"/></svg>