<svg height="280" viewBox="0 0 280 280" width="280" xmlns="http://www.w3.org/2000/svg"><path d="m117.946 35c7.536 0 14.764 2.9937 20.092 8.3225l101.414 101.4135c7.397 7.398 7.397 19.392 0 26.789l-67.927 67.927c-7.397 7.397-19.391 7.397-26.789 0l-101.4135-101.414c-5.3288-5.328-8.3225-12.556-8.3225-20.092v-45.0596c0-20.9241 16.9623-37.8864 37.8864-37.8864zm-27.946 30c-13.8071 0-25 11.1929-25 25 0 13.807 11.1929 25 25 25 13.807 0 25-11.193 25-25 0-13.8071-11.193-25-25-25z" fill-rule="evenodd"/></svg>