<svg height="642" viewBox="0 0 642 642" width="642" xmlns="http://www.w3.org/2000/svg"><path d="m270.433555 80.25c17.278992 0 33.851783 6.8641346 46.068141 19.0823263l232.528091 232.5269447c16.960284 16.962577 16.960284 44.463139 0 61.423423l-155.747093 155.747093c-16.960284 16.960284-44.460846 16.960284-61.423423 0l-232.5269447-232.528091c-12.2181917-12.216358-19.0823263-28.789149-19.0823263-46.068141v-103.315349c0-47.976029 38.892177-86.868206 86.868206-86.868206zm-64.076262 68.785796c-31.657746 0-57.321497 25.663751-57.321497 57.321497 0 31.657516 25.663751 57.321497 57.321497 57.321497 31.657516 0 57.321497-25.663981 57.321497-57.321497 0-31.657746-25.663981-57.321497-57.321497-57.321497z" fill-rule="evenodd"/></svg>