<?xml version="1.0" encoding="UTF-8"?>
<svg width="1200px" height="1200px" viewBox="0 0 1200 1200" version="1.1" xmlns="http://www.w3.org/2000/svg" xmlns:xlink="http://www.w3.org/1999/xlink">
    <title>Icons/template-new</title>
    <g id="Icons/template-new" stroke="none" stroke-width="1" fill="none" fill-rule="evenodd">
        <path d="M855,345 C890.209125,345 918.75,373.541863 918.75,408.75 L918.75,408.75 L918.75,791.25 C918.75,826.459125 890.209125,855 855,855 L855,855 L345,855 C309.791863,855 281.25,826.459125 281.25,791.25 L281.25,791.25 L281.25,408.75 C281.25,373.541863 309.791863,345 345,345 L345,345 Z M855,408.75 L345,408.75 L345,791.25 L855,791.25 L855,408.75 Z M727.5,472.5 L727.5,536.25 L631.875,536.25 L631.875,727.5 L568.125,727.5 L568.125,536.25 L472.5,536.25 L472.5,472.5 L727.5,472.5 Z" id="Shape" fill="#000000"></path>
    </g>
</svg>