<?xml version="1.0" encoding="UTF-8"?>
<svg width="1200px" height="1200px" viewBox="0 0 1200 1200" version="1.1" xmlns="http://www.w3.org/2000/svg" xmlns:xlink="http://www.w3.org/1999/xlink">
    <title>Icons/template-shared-new</title>
    <g id="Icons/template-shared-new" stroke="none" stroke-width="1" fill="none" fill-rule="evenodd">
        <path d="M840,781 C963.66375,781 1050,845.75875 1050,938.5 L1050,964.75 L630,964.75 L630,938.5 C630,845.75875 716.3625,781 840,781 Z M855,345 C890.209125,345 918.75,373.541863 918.75,408.75 L918.75,408.75 L918.752973,516.528239 C899.728065,505.262125 878.0984,497.946825 855.001289,495.719652 L855,408.75 L345,408.75 L345,791.25 L653.014904,791.247816 C629.352384,808.942828 610.750945,830.451704 598.24588,854.997099 L345,855 C309.791863,855 281.25,826.459125 281.25,791.25 L281.25,791.25 L281.25,408.75 C281.25,373.541863 309.791863,345 345,345 L345,345 Z M840,545 C897.9075,545 945,592.0925 945,650 C945,707.9075 897.9075,755 840,755 C782.0925,755 735,707.9075 735,650 C735,592.0925 782.0925,545 840,545 Z M727.5,472.5 L727.5,536.25 L631.875,536.25 L631.875,727.5 L568.125,727.5 L568.125,536.25 L472.5,536.25 L472.5,472.5 L727.5,472.5 Z" id="Shape" fill="#000000"></path>
    </g>
</svg>