<svg height="280" viewBox="0 0 280 280" width="280" xmlns="http://www.w3.org/2000/svg"><path d="m222.991256 119.750369c19.547325 0 35.430573 15.687775 35.746283 35.159863l.004789.591209v16.935386h5.645129c6.137057.002295 11.129716 4.899099 11.286463 10.998896l.003794.291361v45.156802c-.002296 6.137057-4.899099 11.129717-10.998896 11.286463l-.291361.003794h-82.792401c-6.137057-.002295-11.129716-4.899099-11.286463-10.998896l-.003794-.291361v-45.156802c.002295-6.137057 4.899099-11.129717 10.998896-11.286463l.291361-.003794h5.645128v-16.935386c0-19.744772 16.006301-35.751072 35.751072-35.751072zm-1.931005-60.7316104c11.185048 0 20.252321 9.0672729 20.252321 20.252321v26.8650654c-5.86062-2.180012-12.064148-3.293356-18.31709-3.287358-.671838 0-1.297197.012676-1.939457.038028v-23.6157354h-162.0270187v121.5223764h94.3784357v20.252322h-94.3784357c-11.1850481 0-20.252321-9.067273-20.252321-20.252322v-121.5223764c0-11.1850481 9.0672729-20.252321 20.252321-20.252321zm2.095796 135.4028014c-6.216768 0-11.256454 5.039686-11.256454 11.256454s5.039686 11.256454 11.256454 11.256454 11.256454-5.039686 11.256454-11.256454-5.039686-11.256454-11.256454-11.256454zm-42.608889-94.893934v20.252321h-30.376369v60.756963h-20.256546v-60.756963h-30.3763693v-20.252321zm42.444098 39.03843c-9.245647 0-16.760847 7.408928-16.932389 16.613573l-.002996.321812v16.952287h33.870771v-16.952287c0-9.353155-7.582231-16.935385-16.935386-16.935385z"/></svg>