<svg height="642" viewBox="0 0 642 642" width="642" xmlns="http://www.w3.org/2000/svg"><g transform="translate(88.58 135.06)"><path d="m255.740166 278.885344v-139.307037h69.648674v-46.4356788h-185.742715v46.4356788h69.648674v139.307037z"/><path d="m263.161349 325.330711h-216.3962703v-278.6334499h371.5048073v54.1475089c1.472611-.05813 2.906469-.087194 4.446897-.087194 14.337102-.013752 28.560906 2.538986 41.99847 7.537441v-61.5977559c0-25.6457173-20.789961-46.43567893-46.435678-46.43567893h-371.5144963c-25.6457173 0-46.43567893 20.78996163-46.43567893 46.43567893v278.6334499c0 25.645717 20.78996163 46.435679 46.43567893 46.435679h216.3962703z"/><path d="m422.619901 221.501967v.048441h.1647v-.077506l-.077506-.077506s-.067818.077506-.087194.106571z"/><path d="m517.622669 260.31301h-12.943473v-38.83042c0-45.271941-36.70016-81.9721-81.972101-81.9721s-81.972101 36.700159-81.972101 81.9721v38.83042h-12.943473c-14.29475.005347-25.8816 11.592196-25.886946 25.886946v103.538098c.005346 14.29475 11.592196 25.881599 25.886946 25.886946h189.831148c14.29475-.005347 25.8816-11.592196 25.886946-25.886946v-103.538098c-.005346-14.29475-11.592196-25.881599-25.886946-25.886946zm-94.537733 102.026734c-14.254161 0-25.809441-11.555281-25.809441-25.809441s11.55528-25.809441 25.809441-25.809441c14.25416 0 25.80944 11.555281 25.80944 25.809441s-11.55528 25.809441-25.80944 25.809441zm38.452579-101.987981h-77.66084v-38.869173c0-21.445448 17.384972-38.830418 38.83042-38.830418s38.83042 17.38497 38.83042 38.830418z"/></g></svg>