<svg height="1200" viewBox="0 0 1200 1200" width="1200" xmlns="http://www.w3.org/2000/svg"><path d="m840.000001 570.61511c-15.977519-5.580609-33.140317-8.61511-51.000001-8.61511-3.018406 0-6.016907.086675-8.993145.257668l-.006855-82.257668h-120v-120h-240v480h210.6989c-29.052792 15.666329-52.817387 35.978256-70.047482 60h-140.651418c-33.09 0-60-26.91-60-60v-480c0-33.06 26.91-60 60-60h282.42l137.58 137.58v133.035104zm-141.676886 18.442507h-70.415039v190.942383h-56.557617v-190.942383h-69.125976v-43.666992h196.098632zm90.676885 232.942383c-57.9075 0-105-47.0925-105-105s47.0925-105 105-105 105 47.0925 105 105-47.0925 105-105 105zm210 209.75h-420v-26.25c0-92.74125 86.3625-157.5 210-157.5 123.66375 0 210 64.75875 210 157.5z" fill-rule="evenodd"/></svg>