<svg height="1200" viewBox="0 0 1200 1200" width="1200" xmlns="http://www.w3.org/2000/svg"><g transform="translate(281.25 345)"><path d="m350.729371 382.471329v-191.049651h95.518181v-63.683216h-254.732867v63.683216h95.518182v191.049651z"/><path d="m360.906993 446.167832h-296.772028v-382.125874h509.492308v74.259441c2.01958-.079721 3.986014-.119581 6.098601-.119581 19.662312-.018859 39.169243 3.482039 57.597902 10.337063v-84.476923c0-35.1712694-28.511947-63.68321674-63.683217-63.68321674h-509.505594c-35.1712694 0-63.68321675 28.51194734-63.68321675 63.68321674v382.125874c0 35.17127 28.51194735 63.683217 63.68321675 63.683217h296.772028z"/><path d="m579.593007 303.774126v.066433h.225874v-.106293l-.106294-.106294s-.093007.106294-.11958.146154z"/><path d="m709.882517 357.000699h-17.751048v-53.253147c0-62.087233-50.331648-112.418881-112.418882-112.418881-62.087233 0-112.418881 50.331648-112.418881 112.418881v53.253147h-17.751049c-19.604229.007333-35.494765 15.897869-35.502098 35.502098v141.995105c.007333 19.604229 15.897869 35.494765 35.502098 35.502098h260.33986c19.60423-.007333 35.494766-15.897869 35.502098-35.502098v-141.995105c-.007332-19.604229-15.897868-35.494765-35.502098-35.502098zm-129.651748 139.922378c-19.548563 0-35.395804-15.847241-35.395804-35.395804s15.847241-35.395804 35.395804-35.395804 35.395804 15.847241 35.395804 35.395804-15.847241 35.395804-35.395804 35.395804zm52.734965-139.869231h-106.506293v-53.306294c0-29.4109 23.842246-53.253144 53.253146-53.253144s53.253147 23.842244 53.253147 53.253144z"/></g></svg>