<svg height="642" viewBox="0 0 642 642" width="642" xmlns="http://www.w3.org/2000/svg"><path d="m500.368794 443.894146c71.625577 0 121.631206 37.508023 121.631206 91.223404v15.203901h-243.262411v-15.203901c0-53.715381 50.020833-91.223404 121.631205-91.223404zm6.570581-308.834146c25.67332 0 46.484375 20.811775 46.484375 46.484375l.001466 113.127638c-13.253897-9.612872-29.204624-15.725389-46.48455-16.969917l-.001291-96.157721h-371.875v278.90625l244.648427-.001493c-13.225173 13.093998-22.488986 28.803417-26.935724 46.485748l-217.712703.00012c-25.6726 0-46.484375-20.811055-46.484375-46.484375v-278.90625c0-25.6726 20.811775-46.484375 46.484375-46.484375zm-6.570581 172.143839c33.539805 0 60.815603 27.275798 60.815603 60.815602 0 33.539805-27.275798 60.815603-60.815603 60.815603s-60.815603-27.275798-60.815603-60.815603c0-33.539804 27.275798-60.815602 60.815603-60.815602zm-86.398169-79.175089v46.484375h-69.726563v139.453125h-46.484375v-139.453125h-69.726562v-46.484375z" fill-rule="evenodd"/></svg>