<svg height="1200" viewBox="0 0 1200 1200" width="1200" xmlns="http://www.w3.org/2000/svg"><path d="m600 900c-148.86 0-270-121.11-270-270s121.14-270 270-270 270 121.11 270 270-121.14 270-270 270zm0-480c-115.8 0-210 94.2-210 210s94.2 210 210 210 210-94.2 210-210-94.2-210-210-210zm277.17 62.97-127.17-127.14c16.23-15.96 38.43-25.83 62.94-25.83 49.74 0 90 40.29 90 90 0 24.54-9.87 46.74-25.77 62.97zm-551.4 0c-15.9-16.23-25.77-38.43-25.77-62.97 0-49.71 40.26-90 90-90 24.51 0 46.71 9.87 62.94 25.83zm343.02 258.24-90-90c-5.64-5.64-8.79-13.26-8.79-21.21v-150h60v137.58l81.21 81.21z" fill-rule="evenodd"/></svg>