<svg height="642" viewBox="0 0 642 642" width="642" xmlns="http://www.w3.org/2000/svg"><path d="m321 146c108.54375 0 196.875 88.309375 196.875 196.875s-88.33125 196.875-196.875 196.875-196.875-88.309375-196.875-196.875 88.33125-196.875 196.875-196.875zm0 43.75c-84.4375 0-153.125 68.6875-153.125 153.125s68.6875 153.125 153.125 153.125 153.125-68.6875 153.125-153.125-68.6875-153.125-153.125-153.125zm21.875 43.75v100.31875l59.215625 59.215625-30.93125 30.93125-65.625-65.625c-4.1125-4.1125-6.409375-9.66875-6.409375-15.465625v-109.375zm133.39375-109.375c36.26875 0 65.625 29.378125 65.625 65.625 0 17.89375-7.196875 34.08125-18.790625 45.915625l-92.728125-92.70625c11.834375-11.6375 28.021875-18.834375 45.89375-18.834375zm-308.39375 0c17.871875 0 34.059375 7.196875 45.89375 18.834375l-92.728125 92.70625c-11.59375-11.834375-18.790625-28.021875-18.790625-45.915625 0-36.246875 29.35625-65.625 65.625-65.625z" fill-rule="evenodd"/></svg>