<svg height="280" viewBox="0 0 280 280" width="280" xmlns="http://www.w3.org/2000/svg"><path d="m220 90v150c0 11.046-8.954 20-20 20h-120c-11.0457 0-20-8.954-20-20v-150zm-110 40c-5.42939 0-9.847937 4.326523-9.996158 9.720088l-.003842.279912v70c0 5.523 4.477 10 10 10 5.42939 0 9.847937-4.326523 9.996158-9.720088l.003842-.279912v-70c0-5.523-4.477-10-10-10zm60 0c-5.523 0-10 4.477-10 10v70c0 5.523 4.477 10 10 10s10-4.477 10-10v-70c0-5.523-4.477-10-10-10zm-10-110c5.523 0 10 4.4772 10 10v10h60c5.523 0 10 4.4772 10 10v10c0 5.5228-4.477 10-10 10h-180c-5.5228 0-10-4.4772-10-10v-10c0-5.5228 4.4772-10 10-10h60v-10c0-5.5228 4.477-10 10-10z"/></svg>