<svg height="642" viewBox="0 0 642 642" width="642" xmlns="http://www.w3.org/2000/svg"><path d="m504.333333 206.416667v343.75c0 25.31375-20.519583 45.833333-45.833333 45.833333h-275c-25.313063 0-45.833333-20.519583-45.833333-45.833333v-343.75zm-252.083333 91.666666c-12.656875 0-22.916667 10.259792-22.916667 22.916667v160.416667c0 12.656875 10.259792 22.916666 22.916667 22.916666s22.916667-10.259791 22.916667-22.916666v-160.416667c0-12.656875-10.259792-22.916667-22.916667-22.916667zm137.5 0c-12.656875 0-22.916667 10.259792-22.916667 22.916667v160.416667c0 12.656875 10.259792 22.916666 22.916667 22.916666s22.916667-10.259791 22.916667-22.916666v-160.416667c0-12.656875-10.259792-22.916667-22.916667-22.916667zm-22.916667-252.083333c12.656875 0 22.916667 10.26025 22.916667 22.9166667v22.9166666h137.5c12.656875 0 22.916667 10.2602497 22.916667 22.9166667v22.916667c0 12.656416-10.259792 22.916666-22.916667 22.916666h-412.5c-12.656417 0-22.9166667-10.26025-22.9166667-22.916666v-22.916667c0-12.656417 10.2602497-22.9166667 22.9166667-22.9166667h137.5v-22.9166666c0-12.6564167 10.259792-22.9166667 22.916667-22.9166667z"/></svg>