<svg height="1200" viewBox="0 0 1200 1200" width="1200" xmlns="http://www.w3.org/2000/svg"><path d="m707.449315 360.02971c47.60548-.846575 72.936986 16.50411 97.142466 38.556165 20.539726-1.758904 47.227397-13.232877 62.958904-21.221918 5.09589-2.786301 13.89863-4.438356 19.00274-7.224657-8.983562 24.271232-24.871233 42.123287-43.594521 56.547945-4.150685 3.205479-8.276712 7.528767-13.487671 9.567123v.29589c26.671233-.271232 48.665753-12.304109 69.558904-18.830137v.30411c-10.972603 17.441096-25.824658 35.128767-41.671233 47.827397-6.40274 5.071233-12.79726 10.150685-19.191781 15.238356.353425 28.241096-.410959 55.183562-5.69589 78.912329-30.690411 137.942466-112.010959 231.591781-240.756165 271.717808-46.224657 14.4-120.920547 20.317809-173.884931 7.167124-26.268493-6.517809-49.989041-13.873973-72.254795-23.613699-12.369863-5.408219-23.827397-11.260274-34.783561-17.926027-3.591781-2.20274-7.191781-4.397261-10.791781-6.583562 11.942466.361644 25.750685 1.668493 39.279452 1.49589 12.312329-.164383 23.934247-1.438356 35.079452-3.887671 27.79726-6.09863 52.479452-14.161644 73.750685-26.605479 10.306849-6.024658 25.947945-13.117808 33.279452-21.813699-13.808219.246575-26.326027-2.958904-36.575342-6.583562-39.764384-14.038356-62.893151-39.838356-77.950685-78.616438 12.041096 1.323288 46.750685 4.463014 54.863013-2.383562-15.164383-.838356-29.753424-9.624657-40.175342-16.142465-31.980822-20.013699-58.060274-53.580822-57.863014-105.221918 4.191781 1.99726 8.391781 3.986301 12.591781 5.983562 8.030137 3.378082 16.2 5.202739 25.783562 7.167123 4.052054.838356 12.139726 3.221918 16.791781 1.49589h-.6c-6.189042-7.2-16.265754-11.991781-22.487672-19.726027-20.523287-25.495891-44.531507-63.024658-32.367123-109.767123 3.082192-11.860274 12.764384-24.057535 17.975342-33.715069.197261.106849.40274.19726.6.30411 2.383562 5.005479 7.717809 8.671233 11.095891 12.854794 10.471233 12.978082 23.4 24.665754 36.575342 34.972603 44.876713 35.09589 85.290411 56.663014 150.20548 72.632877 16.463013 4.052054 35.49863 7.142465 55.167123 7.175342-5.531507-16.093151-3.747945-42.123288.6-57.690411 10.939726-39.156164 34.693151-67.380822 69.550685-82.504109 8.342466-3.60822 17.589041-6.246576 27.287671-8.367124 4.997261-.6 9.994521-1.191781 14.991781-1.791781" fill-rule="evenodd"/></svg>