<svg height="40" viewBox="0 0 40 40" width="40" xmlns="http://www.w3.org/2000/svg"><path d="m23.5816438 12.0009903c1.5868494-.0282191 2.4312329.550137 3.2380822 1.2852055.6846576-.0586301 1.5742466-.4410959 2.0986302-.7073972.169863-.0928767.4632876-.1479452.6334246-.2408219-.299452.809041-.8290411 1.4041095-1.4531507 1.8849315-.1383561.1068493-.2758904.2509589-.449589.3189041v.009863c.8890411-.0090411 1.6221918-.410137 2.3186301-.6276713v.010137c-.3657534.5813699-.8608219 1.1709589-1.3890411 1.5942466-.2134246.1690411-.4265753.3383562-.639726.5079452.0117808.9413699-.0136986 1.8394521-.189863 2.630411-1.0230137 4.5980822-3.7336986 7.719726-8.0252055 9.0572602-1.5408219.48-4.0306849.6772603-5.7961644.2389042-.8756164-.2172603-1.6663013-.4624658-2.4084931-.7871233-.4123288-.180274-.7942466-.3753425-1.1594521-.5975343-.119726-.0734246-.239726-.1465753-.359726-.219452.3980822.0120548.8583562.0556164 1.3093151.049863.4104109-.0054795.7978082-.0479452 1.169315-.1295891.9265754-.2032876 1.7493151-.4720548 2.4583562-.8868493.3435616-.2008219.8649315-.4372602 1.1093151-.7271233-.460274.0082192-.8775343-.0986301-1.2191781-.219452-1.3254795-.4679452-2.0964384-1.3279452-2.5983562-2.620548.4013699.0441096 1.5583562.1487672 1.8287671-.079452-.5054794-.0279452-.9917808-.3208219-1.339178-.5380822-1.0660274-.6671233-1.9353425-1.7860274-1.9287672-3.5073973.1397261.0665754.2797261.1328767.4197261.1994521.2676712.1126027.54.1734246.859452.2389041.1350685.0279452.4046576.1073973.5597261.049863h-.02c-.2063014-.24-.5421918-.399726-.7495891-.6575342-.6841096-.8498631-1.4843836-2.100822-1.0789041-3.6589041.1027397-.3953425.4254795-.8019179.5991781-1.1238357.0065753.0035617.0134246.0065754.02.010137.079452.1668493.2572603.2890411.369863.4284932.3490411.4326027.78.8221918 1.2191781 1.1657534 1.4958904 1.169863 2.8430137 1.8887671 5.0068493 2.4210959.5487671.1350685 1.1832877.2380822 1.8389041.2391781-.1843836-.5364384-.1249315-1.4041096.02-1.9230137.3646575-1.3052055 1.1564384-2.2460274 2.3183562-2.750137.2780822-.120274.5863013-.2082192.909589-.2789041.1665754-.02.3331507-.0397261.499726-.0597261" fill-rule="evenodd"/></svg>