<svg height="642" viewBox="0 0 642 642" width="642" xmlns="http://www.w3.org/2000/svg"><path d="m393 345c13.2552 0 24 10.7448 24 24v168c0 13.2552-10.7448 24-24 24h-144c-13.2552 0-24-10.7448-24-24v-168c0-13.2552 10.7448-24 24-24zm192 0c13.2552 0 24 10.7448 24 24v144c0 26.5104-21.4896 48-48 48h-72c-13.2552 0-24-10.7448-24-24v-168c0-13.2552 10.7448-24 24-24zm-432 0c13.2552 0 24 10.7448 24 24v168c0 13.25472-10.7448 24-24 24h-72c-26.5104 0-48-21.49032-48-48v-144c0-13.2552 10.7448-24 24-24zm216 48h-96v120h96zm24-312c13.2552 0 24 10.74528 24 24v168c0 13.2552-10.7448 24-24 24h-144c-13.2552 0-24-10.7448-24-24v-168c0-13.25472 10.7448-24 24-24zm168 0c26.5104 0 48 21.49032 48 48v144c0 13.2552-10.7448 24-24 24h-96c-13.2552 0-24-10.7448-24-24v-168c0-13.25472 10.7448-24 24-24zm-408 0c13.2552 0 24 10.7448 24 24v168c0 13.2552-10.7448 24-24 24h-96c-13.2552 0-24-10.7448-24-24v-144c0-26.5104 21.4896-48 48-48zm216 48h-96v120h96z" fill-rule="evenodd"/></svg>