<svg height="280" viewBox="0 0 280 280" width="280" xmlns="http://www.w3.org/2000/svg"><path d="m171.401869 150.46729c5.781084 0 10.46729 4.686205 10.46729 10.467289v73.271028c0 5.781085-4.686206 10.46729-10.46729 10.46729h-62.803738c-5.781084 0-10.4672899-4.686205-10.4672899-10.46729v-73.271028c0-5.781084 4.6862059-10.467289 10.4672899-10.467289zm83.738318 0c5.781084 0 10.46729 4.686205 10.46729 10.467289v62.803739c0 11.562168-9.372412 20.934579-20.93458 20.934579h-31.401869c-5.781084 0-10.46729-4.686205-10.46729-10.46729v-73.271028c0-5.781084 4.686206-10.467289 10.46729-10.467289zm-188.411215 0c5.7810841 0 10.4672897 4.686205 10.4672897 10.467289v73.271028c0 5.780875-4.6862056 10.46729-10.4672897 10.46729h-31.4018692c-11.5621682 0-20.9345794-9.372725-20.9345794-20.934579v-62.803739c0-5.781084 4.6862056-10.467289 10.4672897-10.467289zm94.205607 20.934579h-41.869158v52.336449h41.869158zm10.46729-136.0747662c5.781084 0 10.46729 4.686415 10.46729 10.4672897v73.2710285c0 5.781084-4.686206 10.467289-10.46729 10.467289h-62.803738c-5.781084 0-10.4672899-4.686205-10.4672899-10.467289v-73.2710285c0-5.7808747 4.6862059-10.4672897 10.4672899-10.4672897zm73.271028 0c11.562168 0 20.93458 9.3727252 20.93458 20.9345794v62.8037388c0 5.781084-4.686206 10.467289-10.46729 10.467289h-41.869159c-5.781084 0-10.46729-4.686205-10.46729-10.467289v-73.2710285c0-5.7808747 4.686206-10.4672897 10.46729-10.4672897zm-177.943925 0c5.7810841 0 10.4672897 4.6862056 10.4672897 10.4672897v73.2710285c0 5.781084-4.6862056 10.467289-10.4672897 10.467289h-41.8691589c-5.7810841 0-10.4672897-4.686205-10.4672897-10.467289v-62.8037388c0-11.5621682 9.3724112-20.9345794 20.9345794-20.9345794zm94.205607 20.9345794h-41.869158v52.3364488h41.869158z" fill-rule="evenodd"/></svg>