<svg height="642" viewBox="0 0 642 642" width="642" xmlns="http://www.w3.org/2000/svg"><path d="m298.060234 396.243938 46.427 46.427.314766 26.552062 74.103234 47.865937 8.869 8.869001-15.776175 41.415735-66.193059-44.490673.707674 85.656062h-51.025348l.706674-85.656062-66.192059 44.490673-16.737152-43.935025 83.932211-54.215648zm48.452785-362.7830005-.708019 85.2650625 66.249078-44.5279499 16.644992 44.3866459-83.89707 54.191304-1.289 108.893 93.735-55.403 4.813717-99.468172 46.948717-8.285067-5.072434 80.062239 72.711071-43.413919 26.472682 43.905913-74.883753 42.232006 72.20007 35.55582-30.138286 35.745409-89.388784-45.295229-94.43 53.499 94.451 53.511 89.386499-44.893032 30.119571 35.723212-72.20007 35.55482 74.942925 42.266378-26.569385 43.418264-72.67854-43.043642.162234 2.570938 116.588532 116.588062-38.183766 38.183766-520.1837662-520.183766 38.1837662-38.1837662 76.989234 76.9897032 42.449049 7.491891 1.776951 36.734109 96.514 96.514001-1.032234-87.269938-83.89607-54.191304 16.644992-44.3866459 66.248078 44.5279499-.707019-85.2650625zm-254.8315179 295.9610305 89.3854989 44.893032 60.683234-34.381062 33.895 33.894999-70.895234 41.904063-4.807673 98.963149-46.964636 8.978533 5.088309-80.333682-72.6775398 43.043642-26.5693852-43.418264 74.941925-42.266378-72.1990696-35.55482zm-17.0032673-156.56003 98.4670002 98.466999-81.4450176 41.271292-30.138286-35.745409 72.1990696-35.55582-74.8827533-42.232006z"/></svg>