<svg height="1200" viewBox="0 0 1200 1200" width="1200" xmlns="http://www.w3.org/2000/svg"><path d="m610.806572 715.97654 44.069404-44.069404c31.834689 53.675648 50.124024 116.287931 50.124024 183.092864h-60c0-50.140777-12.360303-97.443589-34.193427-139.02346zm-127.435163-127.12328c-41.42468-21.62187-88.496275-33.85326-138.371409-33.85326v-60c66.546489 0 128.932705 18.1481 182.469508 49.755161l-44.098099 44.0981zm258.345761-3.787319 43.077115-43.077114c63.067173 88.355262 100.205715 196.428957 100.205715 313.011173h-60c0-100.005745-30.746663-192.969485-83.28283-269.934059zm-127.373184-127.185256c-76.849453-52.29089-169.593681-82.880685-269.343986-82.880685v-60c116.327552 0 224.183715 36.976468 312.431878 99.792792zm-269.343986 439.049613-42.426407-42.426407 581.930298-581.930298 42.426407 42.426407z" fill-rule="evenodd"/></svg>