<svg height="642" viewBox="0 0 642 642" width="642" xmlns="http://www.w3.org/2000/svg"><path d="m528.450754 82.251578 30.935921 30.935922-424.324175 424.324175-30.935922-30.935921zm-130.888254 424.685922h-43.75c0-36.560633-9.012548-71.051956-24.932249-101.370401l32.134205-32.133594c23.212347 39.138223 36.548044 84.79257 36.548044 133.503995zm131.25 0h-43.75c0-72.920578-22.419271-140.706398-60.726625-196.826275l31.410078-31.410871c45.986407 64.425681 73.066547 143.229354 73.066547 228.237146zm-393.75-262.5c48.523128 0 94.012768 13.232796 133.04983 36.279301l-32.153226 32.155777c-30.205687-15.766202-64.529004-24.685078-100.896604-24.685078zm0-131.25c84.822341 0 163.467603 26.962114 227.815293 72.765849l-31.418166 31.418304c-56.036151-38.12897-123.662326-60.434153-196.397127-60.434153z" fill-rule="evenodd"/></svg>