<svg height="280" viewBox="0 0 280 280" width="280" xmlns="http://www.w3.org/2000/svg"><path d="m230.476964 35.8729624 13.492302 13.4923023-185.0635029 185.0635033-13.4923023-13.492302zm-57.08522 185.2212746h-19.080996c0-15.94538-3.930673-30.988265-10.873791-44.211223l14.015374-14.013902c10.12343 17.069426 15.939413 36.980647 15.939413 58.225125zm57.242991 0h-19.080997c0-31.803539-9.77798-61.367596-26.485402-85.843632l13.699446-13.698941c20.05633 28.098408 31.866953 62.467571 31.866953 99.542573zm-171.7289719-114.485982c21.1632877 0 41.0034893 5.771615 58.0292969 15.823536l-14.024581 14.023521c-13.1738114-6.876214-28.1434708-10.76606-44.0047159-10.76606zm0-57.2429903c36.9942483 0 71.2944319 11.759229 99.3588789 31.7360154l-13.702482 13.70278c-24.439507-16.6295938-53.9339112-26.3577986-85.6563969-26.3577986z" fill-rule="evenodd"/></svg>