<svg height="642" viewBox="0 0 642 642" width="642" xmlns="http://www.w3.org/2000/svg"><path d="m189.75 452.255469v43.75h262.5v-43.75h43.75v43.75c0 24.128125-19.621875 43.75-43.75 43.75h-262.5c-24.128125 0-43.75-19.621875-43.75-43.75v-43.75zm146.715625-343.590625 109.375 109.375c6.25625 6.25625 8.1375 15.6625 4.746875 23.84375s-11.375 13.496875-20.2125 13.496875h-43.75v131.25c0 12.075-9.8 21.875-21.875 21.875h-87.5c-12.075 0-21.875-9.8-21.875-21.875v-131.25h-43.75c-8.8375 0-16.821875-5.315625-20.2125-13.496875s-1.509375-17.5875 4.746875-23.84375l109.375-109.375c8.553125-8.553125 22.378125-8.553125 30.93125 0zm-15.465625 46.396875-56.56875 56.56875h12.81875c12.075 0 21.875 9.8 21.875 21.875v131.25h43.75v-131.25c0-12.075 9.8-21.875 21.875-21.875h12.81875z" fill-rule="evenodd"/></svg>