<svg height="642" viewBox="0 0 642 642" width="642" xmlns="http://www.w3.org/2000/svg"><path d="m187.431813 458.5 68.750687 68.75c35.798125 35.798125 93.836875 35.798125 129.635 0l68.75-68.75h72.6825c25.31375 0 45.833333 20.519583 45.833333 45.833333v45.833334c0 25.31375-20.519583 45.833333-45.833333 45.833333h-412.5c-25.3130625 0-45.8333333-20.519583-45.8333333-45.833333v-45.833334c0-25.31375 20.5202708-45.833333 45.8333333-45.833333zm165.976651-399.0765625 146.178312 146.1785415c8.949646 8.948958 8.949646 23.459792 0 32.40875l-24.882458 24.882917c-8.949646 8.948958-23.459563 8.948958-32.409209 0l-75.462062-75.462292v297.916667c0 12.656646-10.259792 22.916666-22.916667 22.916666h-45.833333c-12.656875 0-22.916667-10.26025-22.916667-22.916666v-297.916667l-75.462291 75.462292c-8.948959 8.948958-23.459792 8.948958-32.40875 0l-24.882917-24.882917c-8.948958-8.948958-8.948958-23.459792 0-32.40875l146.178542-146.1785415c17.897916-17.8979167 46.919583-17.8979167 64.8175 0z"/></svg>