<svg height="1200" viewBox="0 0 1200 1200" width="1200" xmlns="http://www.w3.org/2000/svg"><path d="m780 900.0075h-360c-33.09 0-60-26.91-60-60v-60h60v60h360v-60h60v60c0 33.09-26.91 60-60 60m-210-240h60v-180c0-16.56 13.44-30 30-30h17.58l-77.58-77.58-77.58 77.58h17.58c16.56 0 30 13.44 30 30zm90 60h-120c-16.56 0-30-13.44-30-30v-180h-60c-12.12 0-23.07-7.29-27.72-18.51s-2.07-24.12 6.51-32.7l150-150c11.73-11.73 30.69-11.73 42.42 0l150 150c8.58 8.58 11.16 21.48 6.51 32.7s-15.6 18.51-27.72 18.51h-60v180c0 16.56-13.44 30-30 30z" fill-rule="evenodd"/></svg>