<svg height="280" viewBox="0 0 280 280" width="280" xmlns="http://www.w3.org/2000/svg"><path d="m81.7459618 199.968847 29.9847232 29.984424c15.61289 15.612889 40.92574 15.612889 56.53863 0l29.984423-29.984424h31.699533c11.040265 0 19.989616 8.949351 19.989616 19.989616v19.989616c0 11.040265-8.949351 19.989616-19.989616 19.989616h-179.906542c-11.039965 0-19.9896158-8.949351-19.9896158-19.989616v-19.989616c0-11.040265 8.9496508-19.989616 19.9896158-19.989616zm72.3885702-174.052083 63.753782 63.7538811c3.903272 3.9029725 3.903272 10.2316849 0 14.1346569l-10.852163 10.852363c-3.903272 3.902972-10.231585 3.902972-14.134857 0l-32.911803-32.9119031v129.9325031c0 5.520032-4.474676 9.994807-9.994808 9.994807h-19.989616c-5.520132 0-9.994808-4.474875-9.994808-9.994807v-129.9325031l-32.9119026 32.9119031c-3.9029725 3.902972-10.2316849 3.902972-14.1346573 0l-10.8523625-10.852363c-3.9029724-3.902972-3.9029724-10.2316844 0-14.1346569l63.7538814-63.7538811c7.805945-7.8059449 20.463369-7.8059449 28.269314 0z"/></svg>