<svg height="642" viewBox="0 0 642 642" width="642" xmlns="http://www.w3.org/2000/svg"><path d="m442.041667 342.875c103.053125 0 175 53.965625 175 131.25v21.875h-204.166667v-26.666667c0-5.80571-.276057-11.503472-.818514-17.084545l157.946639.001212c-13.08125-39.55-61.99375-65.625-127.79375-65.625-17.504143 0-33.811662 1.845246-48.566758 5.298537-7.710658-13.93192-17.595129-26.424163-29.364916-37.221663 22.938311-7.665579 49.153522-11.826874 77.763966-11.826874zm-241.354167 0c103.053125 0 175 53.965625 175 131.25v21.875h-350v-21.875c0-77.284375 71.96875-131.25 175-131.25zm241.354167-196.875c48.25625 0 87.5 39.24375 87.5 87.5s-39.24375 87.5-87.5 87.5-87.5-39.24375-87.5-87.5 39.24375-87.5 87.5-87.5zm-241.354167 0c48.25625 0 87.5 39.24375 87.5 87.5s-39.24375 87.5-87.5 87.5-87.5-39.24375-87.5-87.5 39.24375-87.5 87.5-87.5zm241.354167 43.75c-24.128125 0-43.75 19.6-43.75 43.75 0 24.128125 19.621875 43.75 43.75 43.75s43.75-19.621875 43.75-43.75c0-24.15-19.621875-43.75-43.75-43.75z" fill-rule="evenodd"/></svg>