<svg width="280" height="280" viewBox="0 0 24 24" xmlns="http://www.w3.org/2000/svg">
<path d="M8.92308 11.1818C11.0472 11.1818 12.7692 9.35026 12.7692 7.09091C12.7692 4.83156 11.0472 3 8.92308 3C6.7989 3 5.07692 4.83156 5.07692 7.09091C5.07692 9.35026 6.7989 11.1818 8.92308 11.1818Z"/>
<path d="M8.15385 12.8182C4.75517 12.8182 2 16.5669 2 20.1818C2 20.6337 2.3444 21 2.76923 21H15.0769C15.5018 21 15.8462 20.6337 15.8462 20.1818C15.8462 16.5669 13.091 12.8182 9.69231 12.8182H8.15385Z"/>
<path d="M16.795 16.9091C16.4188 15.8738 15.8774 14.9096 15.2144 14.0826C14.8578 13.6379 14.4578 13.2234 14.0201 12.8548C14.7583 11.9419 15.7637 11.3306 16.8718 11.3306H17.8974C20.1632 11.3306 22 13.8865 22 16.3512C22 16.6593 21.7704 16.9091 21.4872 16.9091H16.795Z"/>
<path d="M19.9487 7.42562C19.9487 8.96608 18.8007 10.2149 17.3846 10.2149C15.9685 10.2149 14.8205 8.96608 14.8205 7.42562C14.8205 5.88516 15.9685 4.63636 17.3846 4.63636C18.8007 4.63636 19.9487 5.88516 19.9487 7.42562Z"/>
</svg>
