<svg height="642" viewBox="0 0 642 642" width="642" xmlns="http://www.w3.org/2000/svg"><path d="m299.125 343.105417c103.053125 0 175 53.965625 175 131.25v21.875h-350v-21.875c0-77.284375 71.96875-131.25 175-131.25zm0 43.75c-65.8 0-114.690625 26.075-127.771875 65.625h255.565625c-13.08125-39.55-61.99375-65.625-127.79375-65.625zm.006562-240.625c48.25625 0 87.5 39.24375 87.5 87.5s-39.24375 87.5-87.5 87.5-87.5-39.24375-87.5-87.5 39.24375-87.5 87.5-87.5zm0 43.75c-24.128125 0-43.75 19.6-43.75 43.75 0 24.128125 19.621875 43.75 43.75 43.75s43.75-19.621875 43.75-43.75c0-24.15-19.621875-43.75-43.75-43.75zm325.8075-118.278125 3.871875 3.871875c14.918751 14.91875 14.918751 39.189063 0 54.129688l-92.804687 92.815625c-7.240625 7.229687-16.84375 11.210937-27.070313 11.210937-10.226562 0-19.840625-3.98125-27.070312-11.210937l-3.871875-3.860938 23.198437-23.209375 3.871876 3.860938c1.399999 1.4 3.018749 1.607812 3.871874 1.607812.842188 0 2.471875-.207812 3.860938-1.607812l92.815625-92.804688c2.121875-2.132812 2.121875-5.6 0-7.721875l-3.871875-3.8828125zm-127.604531 50.275313 23.198438 23.198437-77.339063 77.339063-23.198437-23.198438zm15.47-108.2889067c14.448438-14.44843755 39.670313-14.45937505 54.140625.0109375l3.860938 3.8609375-23.198438 23.209375-3.871875-3.871875c-1.389062-1.3890625-3.01875-1.596875-3.871875-1.596875-.842187 0-2.471875.2078125-3.860937 1.596875l-92.804688 92.8046877c-1.4 1.4-1.607812 3.029687-1.607812 3.860937 0 .853125.207812 2.482813 1.607812 3.882813l3.860938 3.860937-23.198438 23.209375-3.860937-3.871875c-7.240625-7.240625-11.221875-16.854687-11.221875-27.08125 0-10.226562 3.98125-19.840625 11.221875-27.059375zm92.804688.0032812 23.198437 23.209375-77.339062 77.3390625-23.198438-23.209375z" fill-rule="evenodd"/></svg>