<svg height="642" viewBox="0 0 642 642" width="642" xmlns="http://www.w3.org/2000/svg"><path d="m299.125 342.875c103.053125 0 175 53.965625 175 131.25v21.875h-350v-21.875c0-77.284375 71.96875-131.25 175-131.25zm0 43.75c-65.8 0-114.690625 26.075-127.771875 65.625h255.565625c-13.08125-39.55-61.99375-65.625-127.79375-65.625zm.006562-240.625c48.25625 0 87.5 39.24375 87.5 87.5s-39.24375 87.5-87.5 87.5-87.5-39.24375-87.5-87.5 39.24375-87.5 87.5-87.5zm0 43.75c-24.128125 0-43.75 19.6-43.75 43.75 0 24.128125 19.621875 43.75 43.75 43.75s43.75-19.621875 43.75-43.75c0-24.15-19.621875-43.75-43.75-43.75zm240.625-131.25v65.625h65.625v43.75h-65.625v65.625h-43.75v-65.625h-65.625v-43.75h65.625v-65.625z" fill-rule="evenodd"/></svg>