<svg height="642" viewBox="0 0 642 642" width="642" xmlns="http://www.w3.org/2000/svg"><path d="m275.166667 343.916667c101.252708 0 183.333333 104.997291 183.333333 206.25 0 12.656875-10.259792 22.916666-22.916667 22.916666h-366.6666663c-12.6564167 0-22.9166667-10.259791-22.9166667-22.916666 0-101.252709 82.081083-206.25 183.333333-206.25zm229.166666-137.5c12.656875 0 22.916667 10.26025 22.916667 22.916666v45.833334h45.833333c12.656875 0 22.916667 10.259791 22.916667 22.916666s-10.259792 22.916667-22.916667 22.916667h-45.833333v45.833333c0 12.656875-10.259792 22.916667-22.916667 22.916667s-22.916666-10.259792-22.916666-22.916667v-45.833333h-45.833334c-12.656875 0-22.916666-10.259792-22.916666-22.916667s10.259791-22.916666 22.916666-22.916666h45.833334v-45.833334c0-12.656416 10.259791-22.916666 22.916666-22.916666zm-252.083333-137.5000003c63.282083 0 114.583333 51.3007913 114.583333 114.5833333 0 63.282083-51.30125 114.583333-114.583333 114.583333-63.282542 0-114.583333-51.30125-114.583333-114.583333 0-63.282542 51.300791-114.5833333 114.583333-114.5833333z"/></svg>