<svg height="1200" viewBox="0 0 1200 1200" width="1200" xmlns="http://www.w3.org/2000/svg"><path d="m726 840v-36.571429c0-7.96154-.378537-15.775059-1.122372-23.428571h216.612372c-17.94-54.24-85.02-90-175.26-90-24.002733 0-46.364786 2.530001-66.598384 7.26482-10.582445-19.105507-24.138677-36.238047-40.280592-51.046255 31.464574-10.512451 67.414562-16.218565 106.648976-16.218565 141.33 0 240 74.01 240 180v30zm40-240c-66.18 0-120-53.82-120-120s53.82-120 120-120 120 53.82 120 120-53.82 120-120 120zm0-180c-33.09 0-60 26.88-60 60 0 33.09 26.91 60 60 60s60-26.91 60-60c0-33.12-26.91-60-60-60zm-91 420h-480v-30c0-105.99 98.7-180 240-180 141.33 0 240 74.01 240 180zm-240-240c-66.18 0-120-53.82-120-120s53.82-120 120-120 120 53.82 120 120-53.82 120-120 120z" fill-rule="evenodd"/></svg>