<svg height="280" viewBox="0 0 280 280" width="280" xmlns="http://www.w3.org/2000/svg"><path d="m120 150c44.183 0 80 45.817 80 90 0 5.523-4.477 10-10 10h-160c-5.5228 0-10-4.477-10-10 0-44.183 35.8172-90 80-90zm100-60c5.523 0 10 4.4772 10 10v20h20c5.523 0 10 4.477 10 10s-4.477 10-10 10h-20v20c0 5.523-4.477 10-10 10s-10-4.477-10-10v-20h-20c-5.523 0-10-4.477-10-10s4.477-10 10-10h20v-20c0-5.5228 4.477-10 10-10zm-110-60c27.614 0 50 22.3858 50 50 0 27.614-22.386 50-50 50-27.6142 0-50-22.386-50-50 0-27.6142 22.3858-50 50-50z"/></svg>