<svg height="1200" viewBox="0 0 1200 1200" width="1200" xmlns="http://www.w3.org/2000/svg"><path d="m570 630.316c141.33 0 240 74.01 240 180v30h-480v-30c0-105.99 98.7-180 240-180zm-175.23 150h350.49c-17.94-54.24-85.02-90-175.26-90s-157.29 35.76-175.23 90zm175.239-180c-66.18 0-120-53.82-120-120s53.82-120 120-120 120 53.82 120 120-53.82 120-120 120zm0-180c-33.09 0-60 26.88-60 60 0 33.09 26.91 60 60 60s60-26.91 60-60c0-33.12-26.91-60-60-60zm177.129-71.601-5.295-5.31c-9.93-9.93-15.39-23.115-15.39-37.14s5.46-27.21 15.39-37.11l127.275-127.29c19.815-19.815 54.405-19.83 74.25.015l5.295 5.295-31.815 31.83-5.31-5.31c-1.905-1.905-4.14-2.19-5.31-2.19-1.155 0-3.39.285-5.295 2.19l-127.275 127.275c-1.92 1.92-2.205 4.155-2.205 5.295 0 1.17.285 3.405 2.205 5.325l5.295 5.295zm275.7645-127.2885 5.31 5.31c20.46 20.46 20.46 53.745 0 74.235l-127.275 127.29c-9.93 9.915-23.1 15.375-37.125 15.375s-27.21-5.46-37.125-15.375l-5.31-5.295 31.815-31.83 5.31 5.295c1.92 1.92 4.14 2.205 5.31 2.205 1.155 0 3.39-.285 5.295-2.205l127.29-127.275c2.91-2.925 2.91-7.68 0-10.59l-5.31-5.325zm-100.7595 58.338-31.815-31.83 106.065-106.065 31.815 31.83zm-148.491 148.491-31.815-31.815 106.065-106.065 31.815 31.815z" fill-rule="evenodd"/></svg>