<svg height="642" viewBox="0 0 642 642" width="642" xmlns="http://www.w3.org/2000/svg"><path d="m386.625 189.75c24.128125 0 43.75 19.621875 43.75 43.75v30.23125l55.846875-27.9125c6.759375-3.390625 14.83125-3.040625 21.284375.9625 6.43125 3.98125 10.36875 11.003125 10.36875 18.59375v131.25c0 7.590625-3.9375 14.634375-10.36875 18.615625-3.521875 2.165625-7.503125 3.259375-11.50625 3.259375-3.346875 0-6.69375-.765625-9.778125-2.296875l-55.846875-27.934375v30.23125c0 24.128125-19.621875 43.75-43.75 43.75h-196.875c-24.128125 0-43.75-19.621875-43.75-43.75v-175c0-24.128125 19.621875-43.75 43.75-43.75zm0 43.75h-196.875v175h196.809375zm87.5 57.26875-43.75 21.875v16.7125l43.75 21.875z" fill-rule="evenodd"/></svg>