<svg height="1200" viewBox="0 0 1200 1200" width="1200" xmlns="http://www.w3.org/2000/svg"><path d="m810 641.46-60-30v-22.92l60-30zm-120.09 78.54h-269.91v-240h270zm165.87-235.5c-8.85-5.49-19.92-5.97-29.19-1.32l-76.59 38.28v-41.46c0-33.09-26.91-60-60-60h-270c-33.09 0-60 26.91-60 60v240c0 33.09 26.91 60 60 60h270c33.09 0 60-26.91 60-60v-41.46l76.59 38.31c4.23 2.1 8.82 3.15 13.41 3.15 5.49 0 10.95-1.5 15.78-4.47 8.82-5.46 14.22-15.12 14.22-25.53v-180c0-10.41-5.4-20.04-14.22-25.5z" fill-rule="evenodd"/></svg>