<svg height="1200" viewBox="0 0 1200 1200" width="1200" xmlns="http://www.w3.org/2000/svg"><path d="m855.78 484.5c8.82 5.46 14.22 15.09 14.22 25.5v180c0 10.41-5.4 20.07-14.22 25.53-4.83 2.97-10.29 4.47-15.78 4.47-4.59 0-9.18-1.05-13.41-3.15l-76.59-38.31v41.46c0 33.09-26.91 60-60 60h-270c-33.09 0-60-26.91-60-60v-240c0-33.09 26.91-60 60-60h270c33.09 0 60 26.91 60 60v41.46l76.59-38.28c9.27-4.65 20.34-4.17 29.19 1.32zm-45.78 156.96v-82.92l-60 30v22.92zm-120.09 78.54.09-240h-270v240z" fill-rule="evenodd"/></svg>