<svg height="1200" viewBox="0 0 1200 1200" width="1200" xmlns="http://www.w3.org/2000/svg"><path d="m479.857955 450h419.602272v-60h-419.602272zm0 210h419.602272v-60h-419.602272zm0 210h419.602272v-60h-419.602272zm-149.857955-119.002473c0-.550919.441796-.997527.995349-.997527h88.009302c.549716 0 .995349.457307.995349.997527v148.004946c0 .550919-.441796.997527-.995349.997527h-88.009302c-.549716 0-.995349-.457307-.995349-.997527zm30 29.997822c0-.549716.447365-.995349.998154-.995349h28.003692c.551265 0 .998154.441796.998154.995349v88.009302c0 .549716-.447365.995349-.998154.995349h-28.003692c-.551265 0-.998154-.441796-.998154-.995349zm-29.983303-104.282349h-.016697v-120h.016667l-.016667-16.683 44.957386-.03c24.786506 0 44.957387 20.19 44.957387 45 0 11.55-4.345881 21.99-11.47912 29.97 7.133239 7.98 11.47912 18.48 11.47912 30 0 24.81-20.170881 45-44.957387 45l-44.927414.03zm29.983303-16.733019 14.957386-.009981c8.242188 0 14.985796-6.69 14.985796-15 0-8.25-6.743608-15-14.985796-15v.03h-14.957386zm0-59.979981h14.957386v-.03c8.242188 0 14.985796-6.69 14.985796-14.97s-6.743608-15-14.985796-15l-14.957386.009988zm30 210h30v30h-30zm-30-450h30v30h-30zm-15-30c-8.28 0-15 8.4-15 18.75v131.25h30v-60h30.933838l-.933838 60h30v-131.25c0-10.35-6.72-18.75-15-18.75z" fill-rule="evenodd"/></svg>