<svg height="642" viewBox="0 0 642 642" width="642" xmlns="http://www.w3.org/2000/svg"><path d="m573.083335 458.499963c12.656874 0 22.916665 10.259791 22.916665 22.916665v45.83333c0 12.656875-10.259791 22.916666-22.916665 22.916666h-320.833313c-12.656874 0-22.916666-10.259791-22.916666-22.916666v-45.83333c0-12.656874 10.259792-22.916665 22.916666-22.916665zm-323.876646-160.416657c21.967915 0 33.967081 22.272707 19.905415 36.943956l-88.624474 92.450411c-10.358561 10.807499-29.449977 10.807499-39.808539 0l-88.6242441-92.450411c-14.0630408-14.671249-2.0629582-36.943956 19.9042695-36.943956zm323.876646 0c12.656874 0 22.916665 10.259791 22.916665 22.916665v45.833331c0 12.656874-10.259791 22.916665-22.916665 22.916665h-261.192692l6.852083-7.147708c23.145832-24.14729 29.70229-56.083955 22.203957-84.518953zm-392.595705-198.1455082 88.624474 92.4520152c14.061666 14.670561 2.0625 36.943497-19.905415 36.943497h-177.2475726c-21.9669986 0-33.9673103-22.272936-19.9042695-36.943497l88.6242441-92.4520152c10.358562-10.8058951 29.449978-10.8058951 39.808539 0zm392.595705 37.7288522c12.656874 0 22.916665 10.26002 22.916665 22.916665v45.83333c0 12.656416-10.259791 22.916665-22.916665 22.916665h-232.136652c7.498333-28.435456.941875-60.371892-22.203957-84.518723l-6.852083-7.147937z"/></svg>