<svg height="1200" viewBox="0 0 1200 1200" width="1200" xmlns="http://www.w3.org/2000/svg"><path d="m569.857955 420h419.602272v-60h-419.602272zm0 210h419.602272v-60h-419.602272zm0 210v-60h419.602272v60zm-51.286526-30-5.838145 7.725c-2.531752 3.345-63.161541 82.275-148.44757 82.275s-145.915818-78.93-148.44757-82.275l-5.838144-7.725 5.838144-7.725c2.531752-3.345 63.161541-82.275 148.44757-82.275s145.915818 78.93 148.44757 82.275zm-154.285715 65.210417c55.052733 0 101.809568-45.859226 119.058466-65.210417-17.248898-19.318586-64.005733-65.210417-119.058466-65.210417s-101.809567 45.891831-119.058465 65.210417c17.248898 19.351191 64.005732 65.210417 119.058465 65.210417zm0-26.638988c-21.302411 0-38.571428-17.269017-38.571428-38.571429s17.269017-38.571429 38.571428-38.571429c21.302412 0 38.571429 17.269017 38.571429 38.571429s-17.269017 38.571429-38.571429 38.571429zm154.285715-248.571429-5.838145 7.725c-2.531752 3.345-63.161541 82.275-148.44757 82.275s-145.915818-78.93-148.44757-82.275l-5.838144-7.725 5.838144-7.725c2.531752-3.345 63.161541-82.275 148.44757-82.275s145.915818 78.93 148.44757 82.275zm-154.285715 65.210417c55.052733 0 101.809568-45.859226 119.058466-65.210417-17.248898-19.318586-64.005733-65.210417-119.058466-65.210417s-101.809567 45.891831-119.058465 65.210417c17.248898 19.351191 64.005732 65.210417 119.058465 65.210417zm0-26.638988c-21.302411 0-38.571428-17.269017-38.571428-38.571429s17.269017-38.571429 38.571428-38.571429c21.302412 0 38.571429 17.269017 38.571429 38.571429s-17.269017 38.571429-38.571429 38.571429zm154.285715-248.571429-5.838145 7.725c-2.531752 3.345-63.161541 82.275-148.44757 82.275s-145.915818-78.93-148.44757-82.275l-5.838144-7.725 5.838144-7.725c2.531752-3.345 63.161541-82.275 148.44757-82.275s145.915818 78.93 148.44757 82.275zm-154.285715 65.210417c55.052733 0 101.809568-45.859226 119.058466-65.210417-17.248898-19.318586-64.005733-65.210417-119.058466-65.210417s-101.809567 45.891831-119.058465 65.210417c17.248898 19.351191 64.005732 65.210417 119.058465 65.210417zm0-26.638988c-21.302411 0-38.571428-17.269017-38.571428-38.571429s17.269017-38.571429 38.571428-38.571429c21.302412 0 38.571429 17.269017 38.571429 38.571429s-17.269017 38.571429-38.571429 38.571429z" fill-rule="evenodd"/></svg>