<svg height="280" viewBox="0 0 280 280" width="280" xmlns="http://www.w3.org/2000/svg"><path d="m249.942887 199.968831c5.520132 0 9.994808 4.474675 9.994808 9.994807v19.989615c0 5.520132-4.474676 9.994807-9.994808 9.994807h-139.927301c-5.520132 0-9.994807-4.474675-9.994807-9.994807v-19.989615c0-5.520132 4.474675-9.994807 9.994807-9.994807zm-141.254612-69.963651c9.581023 0 14.814304 9.713953 8.68149 16.112629l-38.6524184 40.321051c-4.5177528 4.713552-12.8442269 4.713552-17.3619797 0l-38.6523184-40.321051c-6.1334134-6.398676-.8997326-16.112629 8.6809898-16.112629zm141.254612 0c5.520132 0 9.994808 4.474675 9.994808 9.994808v19.989614c0 5.520132-4.474676 9.994807-9.994808 9.994807h-113.915815l2.988447-3.11738c10.094755-10.531529 12.95427-24.460292 9.683969-36.861849zm-171.2255404-86.4186015 38.6524184 40.3217511c6.132814 6.3983757.899533 16.1124284-8.68149 16.1124284h-77.3042367c-9.5806224 0-14.8144032-9.7140527-8.6809898-16.1124284l38.6523184-40.3217511c4.5177528-4.7128515 12.8442269-4.7128515 17.3619797 0zm171.2255404 16.4549509c5.520132 0 9.994808 4.4747752 9.994808 9.9948073v19.9896145c0 5.5199322-4.474676 9.9948068-9.994808 9.9948068h-101.243399c3.270301-12.4017563.410786-26.3304197-9.683969-36.8617482l-2.988447-3.1174804z"/></svg>