<svg height="642" viewBox="0 0 642 642" width="642" xmlns="http://www.w3.org/2000/svg"><path d="m321 167.875c145.104702 0 248.259552 134.290625 252.567046 139.981771l9.932954 13.143229-9.932954 13.143229c-4.307494 5.691146-107.462344 139.981771-252.567046 139.981771s-248.2595518-134.290625-252.5670463-139.981771l-9.9329537-13.143229 9.9329537-13.143229c4.3074945-5.691146 107.4623443-139.981771 252.5670463-139.981771zm0 42.17672c-93.666108 0-173.217667 78.079852-202.56475 110.94828 29.347083 32.923902 108.898642 110.94828 202.56475 110.94828s173.217667-78.024378 202.56475-110.94828c-29.347083-32.868428-108.898642-110.94828-202.56475-110.94828zm0 45.32328c36.243687 0 65.625 29.381313 65.625 65.625s-29.381313 65.625-65.625 65.625-65.625-29.381313-65.625-65.625 29.381313-65.625 65.625-65.625z" fill-rule="evenodd"/></svg>