<svg height="1200" viewBox="0 0 1200 1200" width="1200" xmlns="http://www.w3.org/2000/svg"><path d="m406.542055 752.53543c-91.733464-54.757198-149.200039-129.595917-152.919718-134.51043l-13.622337-18.025 13.622337-18.025c5.907421-7.805 147.376928-191.975 346.377663-191.975 50.578656 0 97.440857 11.897182 139.305442 29.772043l146.198449-146.19845 42.426407 42.426407-581.930298 581.930298-42.426407-42.426407zm286.751034-286.751035c-29.309686-11.038795-60.677436-17.942036-93.293089-17.942036-128.456377 0-237.555657 107.08094-277.803086 152.157641 23.25991 26.094825 69.515985 72.847927 129.214584 107.665986l67.851683-67.851683c-5.930602-12.003364-9.263181-25.519651-9.263181-39.814303 0-49.705627 40.294373-90 90-90 14.294652 0 27.810939 3.332579 39.814303 9.263181zm-166.306271 336.011898 50.701216-50.701215c7.364633.697142 14.805247 1.062563 22.311966 1.062563 128.456377 0 237.555657-107.004861 277.803086-152.157641-15.909141-17.818072-42.576312-45.324242-76.944588-72.075366l44.810147-44.810167c60.939198 47.000916 97.756435 94.959523 100.709018 98.860533l13.622337 18.025-13.622337 18.025c-5.907421 7.805-147.376928 191.975-346.377663 191.975-25.322904 0-49.714226-2.982199-73.013182-8.203707z" fill-rule="evenodd"/></svg>