<?xml version="1.0" encoding="UTF-8"?>
<svg width="40px" height="40px" viewBox="0 0 40 40" version="1.1" xmlns="http://www.w3.org/2000/svg" xmlns:xlink="http://www.w3.org/1999/xlink">
    <!-- Generator: Sketch 50.2 (55047) - http://www.bohemiancoding.com/sketch -->
    <title>Icons/View all</title>
    <desc>Created with Sketch.</desc>
    <defs>
        <path d="M15.9952652,15 L29.9820076,15 L29.9820076,13 L15.9952652,13 L15.9952652,15 Z M15.9952652,22 L29.9820076,22 L29.9820076,20 L15.9952652,20 L15.9952652,22 Z M15.9952652,29 L29.9820076,29 L29.9820076,27 L15.9952652,27 L15.9952652,29 Z M11,25.9998075 C11,25.4476291 11.4426603,25 11.9989566,25 L13.0010434,25 C13.5527519,25 14,25.4437166 14,25.9998075 L14,29.0001925 C14,29.5523709 13.5573397,30 13.0010434,30 L11.9989566,30 C11.4472481,30 11,29.5562834 11,29.0001925 L11,25.9998075 Z M12,26.495389 C12,26.2217932 12.2319336,26 12.5,26 L12.5,26 C12.7761424,26 13,26.2157526 13,26.495389 L13,28.504611 C13,28.7782068 12.7680664,29 12.5,29 L12.5,29 C12.2238576,29 12,28.7842474 12,28.504611 L12,26.495389 Z M11.0005566,22.5571 L11,22.5571 L11,18.5571 L11.0005556,18.5571 L11,18.001 L12.4985795,18 C13.3247964,18 13.9971591,18.673 13.9971591,19.5 C13.9971591,19.885 13.8522964,20.233 13.6145218,20.499 C13.8522964,20.765 13.9971591,21.115 13.9971591,21.499 C13.9971591,22.326 13.3247964,22.999 12.4985795,22.999 L11.0009991,23 L11.0005566,22.5571 Z M12,21.9993327 L12.4985795,21.999 C12.7733191,21.999 12.9981061,21.776 12.9981061,21.499 C12.9981061,21.224 12.7733191,20.999 12.4985795,20.999 L12.4985795,21 L12,21 L12,21.9993327 Z M12,20 L12.4985795,20 L12.4985795,19.999 C12.7733191,19.999 12.9981061,19.776 12.9981061,19.5 C12.9981061,19.224 12.7733191,19 12.4985795,19 L12,19.0003329 L12,20 Z M13,27 L14,27 L14,28 L13,28 L13,27 Z M12,12 L13,12 L13,13 L12,13 L12,12 Z M11.5,11 C11.224,11 11,11.28 11,11.625 L11,16 L12,16 L12,14 L13.0311279,14 L13,16 L14,16 L14,11.625 C14,11.28 13.776,11 13.5,11 L11.5,11 Z" id="path-1"></path>
    </defs>
    <g id="Icons/View-all" stroke="none" stroke-width="1" fill="none" fill-rule="evenodd">
        <mask id="mask-2" fill="white">
            <use xlink:href="#path-1"></use>
        </mask>
        <use id="Mask" fill="#414453" opacity="0" xlink:href="#path-1"></use>
        <g id="Atoms/Colors/Idle" mask="url(#mask-2)" fill="#59636B" opacity="0.25">
            <rect id="State" x="-2" y="-2" width="40" height="40"></rect>
        </g>
    </g>
</svg>