<svg height="1200" viewBox="0 0 1200 1200" width="1200" xmlns="http://www.w3.org/2000/svg"><path d="m960 600-13.622337 18.025c-5.907421 7.805-147.376928 191.975-346.377663 191.975s-340.470242-184.17-346.377663-191.975l-13.622337-18.025 13.622337-18.025c5.907421-7.805 147.376928-191.975 346.377663-191.975s340.470242 184.17 346.377663 191.975zm-360 152.157641c128.456377 0 237.555657-107.004861 277.803086-152.157641-40.247429-45.076701-149.346709-152.157641-277.803086-152.157641s-237.555657 107.08094-277.803086 152.157641c40.247429 45.15278 149.346709 152.157641 277.803086 152.157641zm0-62.157641c-49.705627 0-90-40.294373-90-90s40.294373-90 90-90 90 40.294373 90 90-40.294373 90-90 90z" fill-rule="evenodd"/></svg>