<svg height="40" viewBox="0 0 40 40" width="40" xmlns="http://www.w3.org/2000/svg"><path d="m15.9952652 15h13.9867424v-2h-13.9867424zm0 7h13.9867424v-2h-13.9867424zm0 7h13.9867424v-2h-13.9867424zm-4.9952652-3.0001925c0-.5521784.4426603-.9998075.9989566-.9998075h1.0020868c.5517085 0 .9989566.4437166.9989566.9998075v3.000385c0 .5521784-.4426603.9998075-.9989566.9998075h-1.0020868c-.5517085 0-.9989566-.4437166-.9989566-.9998075zm1 .4955815c0-.2735958.2319336-.495389.5-.495389.2761424 0 .5.2157526.5.495389v2.009222c0 .2735958-.2319336.495389-.5.495389-.2761424 0-.5-.2157526-.5-.495389zm-.9994434-3.938289h-.0005566v-4h.0005556l-.0005556-.5561 1.4985795-.001c.8262169 0 1.4985796.673 1.4985796 1.5 0 .385-.1448627.733-.3826373.999.2377746.266.3826373.616.3826373 1 0 .827-.6723627 1.5-1.4985796 1.5l-1.4975804.001zm.9994434-.5577673.4985795-.0003327c.2747396 0 .4995266-.223.4995266-.5 0-.275-.224787-.5-.4995266-.5v.001h-.4985795zm0-1.9993327h.4985795v-.001c.2747396 0 .4995266-.223.4995266-.499s-.224787-.5-.4995266-.5l-.4985795.0003329zm1 7h1v1h-1zm-1-15h1v1h-1zm-.5-1c-.276 0-.5.28-.5.625v4.375h1v-2h1.0311279l-.0311279 2h1v-4.375c0-.345-.224-.625-.5-.625z" fill-rule="evenodd"/></svg>