<svg height="642" viewBox="0 0 642 642" width="642" xmlns="http://www.w3.org/2000/svg"><path d="m188.745449 430.375c.554798 0 1.004551.440684 1.004551.995876v42.754124h-21.875v-20.870449c0-.550444-.446267-1.004551-.996766-1.004551h-19.881468c-.539876 0-.996766.449753-.996766 1.004551v63.615898c0 .550444.446267 1.004551.996766 1.004551h19.881468c.539876 0 .996766-.449753.996766-1.004551v-20.870449h21.875v42.754124c0 .550007-.454107.995876-1.004551.995876h-63.615898c-.554798 0-1.004551-.440684-1.004551-.995876v-107.383248c0-.550007.454107-.995876 1.004551-.995876zm350.610967 43.75v43.75h-305.959991v-43.75zm-382.449988-196.875c18.073493 0 32.781427 14.721875 32.781427 32.8125 0 8.421875-3.168871 16.034375-8.370191 21.853125 5.20132 5.81875 8.370191 13.475 8.370191 21.875 0 18.090625-14.707934 32.8125-32.781427 32.8125l-32.759574.021875-.009854-9.689-.012.000562v-87.5l.012-.000562-.012-12.164125zm382.449988 43.75v43.75h-305.959991v-43.75zm-382.449988 21.853125v.021875h-10.906428v21.86l10.906428-.006875c5.914532 0 10.770765-4.724493 10.923441-10.649866l.003701-.287634c0-6.015625-4.917214-10.9375-10.927142-10.9375zm0-43.728125-10.906428.007v21.868h10.906428v-.021875c6.009928 0 10.927142-4.878125 10.927142-10.915625s-4.917214-10.9375-10.927142-10.9375zm21.906072-175c6.0375 0 10.9375 6.125 10.9375 13.671875v95.703125h-21.875l.680923-43.75h-22.555923v43.75h-21.875v-95.703125c0-7.546875 4.9-13.671875 10.9375-13.671875zm360.543916 43.75v43.75h-305.959991v-43.75zm-371.481416-21.875h-21.875v21.875h21.875z" fill-rule="evenodd"/></svg>