<svg height="40" viewBox="0 0 40 40" width="40" xmlns="http://www.w3.org/2000/svg"><path d="m32 20-.4540779.6008333c-.196914.2601667-4.9125643 6.3991667-11.5459221 6.3991667s-11.34900808-6.139-11.54592212-6.3991667l-.45407788-.6008333.45407788-.6008333c.19691404-.2601667 4.91256432-6.3991667 11.54592212-6.3991667s11.3490081 6.139 11.5459221 6.3991667zm-12 5.0719214c4.2818792 0 7.9185219-3.5668287 9.2601029-5.0719214-1.341581-1.5025567-4.9782237-5.0719214-9.2601029-5.0719214s-7.9185219 3.5693647-9.2601029 5.0719214c1.341581 1.5050927 4.9782237 5.0719214 9.2601029 5.0719214zm0-2.0719214c-1.6568542 0-3-1.3431458-3-3s1.3431458-3 3-3 3 1.3431458 3 3-1.3431458 3-3 3z" fill-rule="evenodd"/></svg>