<svg height="642" viewBox="0 0 642 642" width="642" xmlns="http://www.w3.org/2000/svg"><path d="m321 87.875c145.104702 0 248.259552 134.290625 252.567046 139.981771l9.932954 13.143229-9.932954 13.143229c-1.163023 1.53661-9.532019 12.448121-23.987073 27.560068l.67583-.69847c14.040042 14.743883 22.166466 25.339441 23.311243 26.851944l9.932954 13.143229-9.932954 13.143229c-1.163023 1.53661-9.532019 12.448121-23.987073 27.560068l.67583-.69847c14.040042 14.743883 22.166466 25.339441 23.311243 26.851944l9.932954 13.143229-9.932954 13.143229c-4.307494 5.691146-107.462344 139.981771-252.567046 139.981771s-248.2595518-134.290625-252.5670463-139.981771l-9.9329537-13.143229 9.9329537-13.143229c1.1447776-1.512503 9.2712009-12.108061 23.3112428-26.851944.2244161.226011.4493766.461725.6758307.69847l-1.5810147-1.661556c-13.4840805-14.245791-21.2861102-24.418814-22.4060588-25.898512l-9.9329537-13.143229 9.9329537-13.143229c1.1447776-1.512503 9.2712009-12.108061 23.3112428-26.851944.2244161.226011.4493766.461725.6758307.69847l-1.5810147-1.661556c-13.4840805-14.245791-21.2861102-24.418814-22.4060588-25.898512l-9.9329537-13.143229 9.9329537-13.143229c4.3074945-5.691146 107.4623443-139.981771 252.5670463-139.981771zm196.7035 304.042335c-44.913646 38.576641-113.99382 82.207665-196.7035 82.207665s-151.789854-43.631024-196.7035-82.207665l1.377662 1.178371c-2.671277 2.847676-5.089722 5.497223-7.238912 7.904294 29.347083 32.923902 108.898642 110.94828 202.56475 110.94828s173.217667-78.024378 202.56475-110.94828c-2.14919-2.407071-4.567635-5.056618-7.241159-7.900216zm0-80c-44.913646 38.576641-113.99382 82.207665-196.7035 82.207665s-151.789854-43.631024-196.7035-82.207665l1.377662 1.178371c-2.671277 2.847676-5.089722 5.497223-7.238912 7.904294 29.347083 32.923902 108.898642 110.94828 202.56475 110.94828s173.217667-78.024378 202.56475-110.94828c-2.14919-2.407071-4.567635-5.056618-7.241159-7.900216zm-196.7035-181.865615c-93.666108 0-173.217667 78.079852-202.56475 110.94828 29.347083 32.923902 108.898642 110.94828 202.56475 110.94828s173.217667-78.024378 202.56475-110.94828c-29.347083-32.868428-108.898642-110.94828-202.56475-110.94828zm0 45.32328c36.243687 0 65.625 29.381313 65.625 65.625s-29.381313 65.625-65.625 65.625-65.625-29.381313-65.625-65.625 29.381313-65.625 65.625-65.625z" fill-rule="evenodd"/></svg>