<svg height="40" viewBox="0 0 40 40" width="40" xmlns="http://www.w3.org/2000/svg"><path d="m18.9952652 14h13.9867424v-2h-13.9867424zm0 7h13.9867424v-2h-13.9867424zm0 7v-2h13.9867424v2zm-1.7095509-1-.1946048.2575c-.0843918.1115-2.1053847 2.7425-4.9482524 2.7425-2.8428676 0-4.86386056-2.631-4.94825229-2.7425l-.19460481-.2575.19460481-.2575c.08439173-.1115 2.10538469-2.7425 4.94825229-2.7425 2.8428677 0 4.8638606 2.631 4.9482524 2.7425zm-5.1428572 2.1736806c1.8350911 0 3.3936523-1.5286409 3.9686156-2.1736806-.5749633-.6439529-2.1335245-2.1736806-3.9686156-2.1736806s-3.3936522 1.5297277-3.96861547 2.1736806c.57496327.6450397 2.13352437 2.1736806 3.96861547 2.1736806zm0-.8879663c-.7100803 0-1.2857142-.5756339-1.2857142-1.2857143s.5756339-1.2857143 1.2857142-1.2857143c.7100804 0 1.2857143.5756339 1.2857143 1.2857143s-.5756339 1.2857143-1.2857143 1.2857143zm5.1428572-8.2857143-.1946048.2575c-.0843918.1115-2.1053847 2.7425-4.9482524 2.7425-2.8428676 0-4.86386056-2.631-4.94825229-2.7425l-.19460481-.2575.19460481-.2575c.08439173-.1115 2.10538469-2.7425 4.94825229-2.7425 2.8428677 0 4.8638606 2.631 4.9482524 2.7425zm-5.1428572 2.1736806c1.8350911 0 3.3936523-1.5286409 3.9686156-2.1736806-.5749633-.6439529-2.1335245-2.1736806-3.9686156-2.1736806s-3.3936522 1.5297277-3.96861547 2.1736806c.57496327.6450397 2.13352437 2.1736806 3.96861547 2.1736806zm0-.8879663c-.7100803 0-1.2857142-.5756339-1.2857142-1.2857143s.5756339-1.2857143 1.2857142-1.2857143c.7100804 0 1.2857143.5756339 1.2857143 1.2857143s-.5756339 1.2857143-1.2857143 1.2857143zm5.1428572-8.2857143-.1946048.2575c-.0843918.1115-2.1053847 2.7425-4.9482524 2.7425-2.8428676 0-4.86386056-2.631-4.94825229-2.7425l-.19460481-.2575.19460481-.2575c.08439173-.1115 2.10538469-2.7425 4.94825229-2.7425 2.8428677 0 4.8638606 2.631 4.9482524 2.7425zm-5.1428572 2.1736806c1.8350911 0 3.3936523-1.5286409 3.9686156-2.1736806-.5749633-.6439529-2.1335245-2.1736806-3.9686156-2.1736806s-3.3936522 1.5297277-3.96861547 2.1736806c.57496327.6450397 2.13352437 2.1736806 3.96861547 2.1736806zm0-.8879663c-.7100803 0-1.2857142-.5756339-1.2857142-1.2857143s.5756339-1.2857143 1.2857142-1.2857143c.7100804 0 1.2857143.5756339 1.2857143 1.2857143s-.5756339 1.2857143-1.2857143 1.2857143z" fill-rule="evenodd"/></svg>