<svg height="642" viewBox="0 0 642 642" width="642" xmlns="http://www.w3.org/2000/svg"><path d="m149.125 408.5c62.18773 0 106.396951 57.553125 108.24302 59.992188l4.25698 5.632812-4.25698 5.632812c-1.846069 2.439063-46.05529 59.992188-108.24302 59.992188-62.1877296 0-106.3969508-57.553125-108.2430198-59.992188l-4.2569802-5.632812 4.2569802-5.632812c1.846069-2.439063 46.0552902-59.992188 108.2430198-59.992188zm0 18.075737c-40.142618 0-74.2361429 33.462794-86.8134644 47.549263 12.5773215 14.110244 46.6708464 47.549263 86.8134644 47.549263s74.236143-33.439019 86.813464-47.549263c-12.577321-14.086469-46.670846-47.549263-86.813464-47.549263zm0 19.424263c15.533009 0 28.125 12.591991 28.125 28.125s-12.591991 28.125-28.125 28.125-28.125-12.591991-28.125-28.125 12.591991-28.125 28.125-28.125zm455.856416 6.25v43.75h-305.959991v-43.75zm-455.856416-196.875c62.18773 0 106.396951 57.553125 108.24302 59.992188l4.25698 5.632812-4.25698 5.632812c-1.846069 2.439063-46.05529 59.992188-108.24302 59.992188-62.1877296 0-106.3969508-57.553125-108.2430198-59.992188l-4.2569802-5.632812 4.2569802-5.632812c1.846069-2.439063 46.0552902-59.992188 108.2430198-59.992188zm0 18.075737c-40.142618 0-74.2361429 33.462794-86.8134644 47.549263 12.5773215 14.110244 46.6708464 47.549263 86.8134644 47.549263s74.236143-33.439019 86.813464-47.549263c-12.577321-14.086469-46.670846-47.549263-86.813464-47.549263zm0 19.424263c15.533009 0 28.125 12.591991 28.125 28.125s-12.591991 28.125-28.125 28.125-28.125-12.591991-28.125-28.125 12.591991-28.125 28.125-28.125zm455.856416 6.25v43.75h-305.959991v-43.75zm-455.856416-196.875c62.18773 0 106.396951 57.553125 108.24302 59.992188l4.25698 5.632812-4.25698 5.632812c-1.846069 2.439063-46.05529 59.992188-108.24302 59.992188-62.1877296 0-106.3969508-57.553125-108.2430198-59.992188l-4.2569802-5.632812 4.2569802-5.632812c1.846069-2.439063 46.0552902-59.992188 108.2430198-59.992188zm0 18.075737c-40.142618 0-74.2361429 33.462794-86.8134644 47.549263 12.5773215 14.110244 46.6708464 47.549263 86.8134644 47.549263s74.236143-33.439019 86.813464-47.549263c-12.577321-14.086469-46.670846-47.549263-86.813464-47.549263zm0 19.424263c15.533009 0 28.125 12.591991 28.125 28.125s-12.591991 28.125-28.125 28.125-28.125-12.591991-28.125-28.125 12.591991-28.125 28.125-28.125zm455.856416 6.25v43.75h-305.959991v-43.75z" fill-rule="evenodd"/></svg>