<svg height="642" viewBox="0 0 642 642" width="642" xmlns="http://www.w3.org/2000/svg"><path d="m321.000278 137.615203c168.269305 0 287.8935 160.828467 292.888444 167.643504 6.815037 9.313656 6.815037 22.16893 0 31.482586-4.994944 6.815037-124.619139 167.643504-292.888444 167.643504-168.270222 0-287.8935006-160.828467-292.8886732-167.643504-6.8154731-9.313656-6.8154731-22.16893 0-31.482586 4.9951726-6.815037 124.6184512-167.643504 292.8886732-167.643504zm0 91.692398c-50.639419 0-91.692399 41.05298-91.692399 91.692399s41.05298 91.692399 91.692399 91.692399 91.692398-41.05298 91.692398-91.692399-41.052979-91.692399-91.692398-91.692399z" fill-rule="evenodd"/></svg>