<svg height="642" viewBox="0 0 642 642" width="642" xmlns="http://www.w3.org/2000/svg"><path d="m529.179921 82.980745 30.935921 30.935922-424.324175 424.324175-30.935922-30.935921 75.081243-75.081126c-66.889027-39.927128-108.7917672-94.497066-111.5040343-98.080566l-9.9329537-13.143229 9.9329537-13.143229c4.3074945-5.691146 107.4623443-139.981771 252.5670463-139.981771 36.880208 0 71.05051 8.674999 101.57673 21.708715zm-29.04605 152.790594c44.434543 34.271382 71.280258 69.240955 73.433175 72.085432l9.932954 13.143229-9.932954 13.143229c-4.307494 5.691146-107.462344 139.981771-252.567046 139.981771-18.463859 0-36.248495-2.174341-53.236684-5.9814l36.968397-36.970025c5.369766.508281 10.794928.774705 16.268287.774705 93.666108 0 173.217667-78.024378 202.56475-110.94828-11.600275-12.992188-31.04476-33.048444-56.104526-52.554251zm-179.133871-25.719619c-93.666108 0-173.217667 78.079852-202.56475 110.94828 16.960375 19.027503 50.688833 53.118375 94.21915 78.506555l49.474935-49.475428c-4.324355-8.75242-6.754335-18.607997-6.754335-29.031127 0-36.243687 29.381313-65.625 65.625-65.625 10.42313 0 20.278707 2.42998 29.031127 6.754335l38.993976-38.995298c-21.371329-8.048878-44.243267-13.082317-68.025103-13.082317z" fill-rule="evenodd"/></svg>