<svg height="642" viewBox="0 0 642 642" width="642" xmlns="http://www.w3.org/2000/svg"><path d="m577.941189 460.058824v48.941176h-416v-48.941176zm-309.183435-171.722353c9.041882 0 13.568941 11.415529 7.177223 18.091105l-97.268141 101.584753c-3.961788 4.140424-10.387765 4.140424-14.349553 0l-97.2661834-101.584753c-6.3922071-6.675576-1.8649035-18.091105 7.1750212-18.091105zm309.183435 24.898823v48.941177h-287.945412l20.971294-21.903624c7.456189-7.788988 12.264659-17.171012 14.596706-27.037553zm-399.271906-217.1314446 97.265694 101.5862216c6.394165 6.675576 1.867106 18.091105-7.174776 18.091105h-194.5318779c-9.0399247 0-13.5672282-11.415529-7.1750212-18.091105l97.2664281-101.5862216c3.961788-4.1384659 10.387765-4.1384659 14.349553 0zm399.271906 70.3079156v48.941176h-251.508706c2.706447-16.928753-1.387482-35.083482-13.148047-48.941176z"/></svg>