<svg height="280" viewBox="0 0 280 280" width="280" xmlns="http://www.w3.org/2000/svg"><path d="m140 60c73.405993 0 125.590993 70.16 127.769993 73.133 2.973 4.063 2.973 9.671 0 13.734-2.179 2.973-54.364 73.133-127.769993 73.133-73.4064075 0-125.5910075-70.16-127.7701075-73.133-2.97319-4.063-2.97319-9.671 0-13.734 2.1791-2.973 54.3637-73.133 127.7701075-73.133zm-.000007 40c-22.091 0-40.0000005 17.909-40.0000005 40s17.9090005 40 40.0000005 40 40-17.909 40-40-17.909-40-40-40z" fill-rule="evenodd"/></svg>