<svg height="280" viewBox="0 0 280 280" width="280" xmlns="http://www.w3.org/2000/svg"><path d="m126.13756 40.1508757c6.161165-10.8679281 21.564137-10.8679521 27.724941-.000012l103.969278 183.3967973c6.160805 10.867208-1.540801 24.452418-13.86241 24.452418h-207.938436c-12.3222092 0-20.023647-13.58521-13.8625064-24.452418zm13.862531 149.6947603c-9.467767 0-17.142853 7.440005-17.142853 16.616412s7.675086 16.615213 17.142853 16.615213c9.468007 0 17.143213-7.438806 17.143213-16.615213s-7.675206-16.616412-17.143213-16.616412zm8.571606-91.3841486h-17.142973c-4.733883 0-8.571486 3.7195226-8.571486 8.3077266v58.153603c0 4.588804 3.837483 8.307606 8.571366 8.307606h17.143093c4.734004 0 8.571607-3.718802 8.571607-8.307606v-58.153603c0-4.588204-3.837603-8.3077266-8.571607-8.3077266z" fill-rule="evenodd"/></svg>
