<?xml version="1.0" encoding="UTF-8"?>
<svg xmlns="http://www.w3.org/2000/svg" xmlns:xlink="http://www.w3.org/1999/xlink" width="280px" height="280px" viewBox="0 0 280 280" version="1.1">
<g id="surface1">
<path style=" stroke:none;fill-rule:evenodd;fill:rgb(0%,0%,0%);fill-opacity:1;" d="M 156.171875 19.8125 C 148.984375 6.730469 131.015625 6.730469 123.828125 19.8125 L 2.53125 240.566406 C -4.65625 253.648438 4.328125 270.003906 18.703125 270.003906 L 261.296875 270.003906 C 275.675781 270.003906 284.660156 253.648438 277.46875 240.566406 Z M 160 170 C 160 175.523438 155.523438 180 150 180 L 130 180 C 124.476562 180 120 175.523438 120 170 L 120 100 C 120 94.480469 124.476562 90 130 90 L 150 90 C 155.523438 90 160 94.480469 160 100 Z M 120 220 C 120 208.957031 128.953125 200.003906 140 200.003906 C 151.046875 200.003906 160 208.957031 160 220 C 160 231.046875 151.046875 240.003906 140 240.003906 C 128.953125 240.003906 120 231.046875 120 220 Z M 120 220 "/>
</g>
</svg>
