<svg height="1200" viewBox="0 0 1200 1200" width="1200" xmlns="http://www.w3.org/2000/svg"><path d="m940.284649 832.05c5.574716 16.71 3.296875 33.87-6.234091 47.13-9.530966 13.23-25.086222 20.82-42.709517 20.82h-599.431818c-17.623296 0-33.178551-7.59-42.679546-20.82-9.530966-13.26-11.808807-30.42-6.234091-47.16l48.913637-146.91v-355.11c0-16.56 13.427272-30 29.971591-30h539.488636c16.57429 0 29.971591 13.44 29.971591 30v355.11zm-636.746449 7.95h576.203835l-39.95213-120h-496.299574zm527.859659-180v-300h-479.545454v300zm-299.706918 150v-60h119.886364v60zm-119.715909-210v-60h60v60zm60-180v60h-60v-60zm60 180v-60h180v60zm120-180v60h-120v-60z" fill-rule="evenodd"/></svg>