<svg height="1200" viewBox="0 0 1200 1200" width="1200" xmlns="http://www.w3.org/2000/svg"><path d="m303.5382 840 39.952131-120h496.299574l39.95213 120zm527.859659-180h-479.545454v-300h479.545454zm108.88679 172.05-48.943608-146.94v-355.11c0-16.56-13.397301-30-29.971591-30h-539.488636c-16.544319 0-29.971591 13.44-29.971591 30v355.11l-48.913637 146.91c-5.574716 16.74-3.296875 33.9 6.234091 47.16 9.500995 13.23 25.05625 20.82 42.679546 20.82h599.431818c17.623295 0 33.178551-7.59 42.709517-20.82 9.530966-13.26 11.808807-30.42 6.234091-47.13zm-408.593708-22.05h119.886364v-60h-119.886364zm-119.715909-210h60v-60h-60zm60-180h-60v60h60zm60 180h180v-60h-180zm120-180h-120v60h120z" fill-rule="evenodd"/></svg>