<?xml version="1.0" encoding="UTF-8"?>
<svg width="40px" height="40px" viewBox="0 0 40 40" version="1.1" xmlns="http://www.w3.org/2000/svg" xmlns:xlink="http://www.w3.org/1999/xlink">
    <!-- Generator: Sketch 50.2 (55047) - http://www.bohemiancoding.com/sketch -->
    <title>Icons/Webform</title>
    <desc>Created with Sketch.</desc>
    <defs>
        <path d="M10.11794,28 L11.4496777,24 L27.9929968,24 L29.3247345,28 L10.11794,28 Z M27.713262,22 L11.7284135,22 L11.7284135,12 L27.713262,12 L27.713262,22 Z M31.3428216,27.735 L29.711368,22.837 L29.711368,11 C29.711368,10.448 29.2647913,10 28.712315,10 L10.7293605,10 C10.1778832,10 9.73030742,10.448 9.73030742,11 L9.73030742,22.837 L8.09985288,27.734 C7.91402902,28.292 7.98995705,28.864 8.30765591,29.306 C8.62435572,29.747 9.14286424,30 9.73030742,30 L29.711368,30 C30.2988112,30 30.8173197,29.747 31.1350186,29.306 C31.4527175,28.864 31.5286455,28.292 31.3428216,27.735 L31.3428216,27.735 Z M17.7230314,27 L21.7192435,27 L21.7192435,25 L17.7230314,25 L17.7230314,27 Z M13.7325011,20 L15.7325011,20 L15.7325011,18 L13.7325011,18 L13.7325011,20 Z M15.7325011,14 L13.7325011,14 L13.7325011,16 L15.7325011,16 L15.7325011,14 Z M17.7325011,20 L23.7325011,20 L23.7325011,18 L17.7325011,18 L17.7325011,20 Z M21.7325011,14 L17.7325011,14 L17.7325011,16 L21.7325011,16 L21.7325011,14 Z" id="path-1"></path>
    </defs>
    <g id="Icons/Webform" stroke="none" stroke-width="1" fill="none" fill-rule="evenodd">
        <mask id="mask-2" fill="white">
            <use xlink:href="#path-1"></use>
        </mask>
        <use id="Mask" fill="#414453" opacity="0" xlink:href="#path-1"></use>
        <g id="Atoms/Colors/Idle" mask="url(#mask-2)" fill="#59636B" opacity="0.25">
            <rect id="State" x="-2" y="-2" width="40" height="40"></rect>
        </g>
    </g>
</svg>