<svg height="40" viewBox="0 0 40 40" width="40" xmlns="http://www.w3.org/2000/svg"><path d="m10.11794 28 1.3317377-4h16.5433191l1.3317377 4zm17.595322-6h-15.9848485v-10h15.9848485zm3.6295596 5.735-1.6314536-4.898v-11.837c0-.552-.4465767-1-.999053-1h-17.9829545c-.5514773 0-.99905308.448-.99905308 1v11.837l-1.63045454 4.897c-.18582386.558-.10989583 1.13.20780303 1.572.31669981.441.83520833.694 1.42265151.694h19.98106058c.5874432 0 1.1059517-.253 1.4236506-.694.3176989-.442.3936269-1.014.207803-1.571zm-13.6197902-.735h3.9962121v-2h-3.9962121zm-3.9905303-7h2v-2h-2zm2-6h-2v2h2zm2 6h6v-2h-6zm4-6h-4v2h4z" fill-rule="evenodd"/></svg>