<svg height="40" viewBox="0 0 40 40" width="40" xmlns="http://www.w3.org/2000/svg"><path d="m13.1328 11v5h-2v-5c0-1.102.897-2 2-2h11.414l4.586 4.586v2.414h-2v-1h-4v-4zm14 18v-1h2v1c0 1.103-.897 2-2 2h-14c-1.103 0-2-.897-2-2v-1h2v1zm-9-11h2v6h3v2h-5zm8.5 2c-.276 0-.5.225-.5.5s.224.5.5.5h1c1.378 0 2.5 1.122 2.5 2.5s-1.122 2.5-2.5 2.5h-3.5v-2h3.5c.276 0 .5-.225.5-.5s-.224-.5-.5-.5h-1c-1.378 0-2.5-1.122-2.5-2.5s1.122-2.5 2.5-2.5h3.5v2zm-14.2998 6h-2.333l2.4-4-2.4-4h2.333l1.233 2.056 1.234-2.056h2.333l-2.401 4 2.401 4h-2.333l-1.234-2.056z" fill-rule="evenodd"/></svg>