<svg height="642" viewBox="0 0 642 642" width="642" xmlns="http://www.w3.org/2000/svg"><path d="m170.78 496v21.875h306.25v-21.875h43.75v21.875c0 24.128125-19.621875 43.75-43.75 43.75h-306.25c-24.128125 0-43.75-19.621875-43.75-43.75v-21.875zm153.125-218.75v131.25h65.625v43.75h-109.375v-175zm218.75 0v43.75h-76.5625c-6.0375 0-10.9375 4.921875-10.9375 10.9375s4.9 10.9375 10.9375 10.9375h21.875c30.14375 0 54.6875 24.54375 54.6875 54.6875s-24.54375 54.6875-54.6875 54.6875h-76.5625v-43.75h76.5625c6.0375 0 10.9375-4.921875 10.9375-10.9375s-4.9-10.9375-10.9375-10.9375h-21.875c-30.14375 0-54.6875-24.54375-54.6875-54.6875s24.54375-54.6875 54.6875-54.6875zm-389.370625 0 26.971875 44.975 26.99375-44.975h51.034375l-52.521875 87.5 52.521875 87.5h-51.034375l-26.99375-44.975-26.971875 44.975h-51.034375l52.5-87.5-52.5-87.5zm267.176875-196.875 100.31875 100.31875v52.80625h-43.75v-21.875h-87.5v-87.5h-218.75v109.375h-43.75v-109.375c0-24.10625 19.621875-43.75 43.75-43.75z" fill-rule="evenodd"/></svg>