<svg height="1200" viewBox="0 0 1200 1200" width="1200" xmlns="http://www.w3.org/2000/svg"><path d="m393.984 330v150h-60v-150c0-33.06 26.91-60 60-60h342.42l137.58 137.58v72.42h-60v-30h-120v-120zm420 540v-30h60v30c0 33.09-26.91 60-60 60h-420c-33.09 0-60-26.91-60-60v-30h60v30zm-270-330h60v180h90v60h-150zm255 60c-8.28 0-15 6.75-15 15s6.72 15 15 15h30c41.34 0 75 33.66 75 75s-33.66 75-75 75h-105v-60h105c8.28 0 15-6.75 15-15s-6.72-15-15-15h-30c-41.34 0-75-33.66-75-75s33.66-75 75-75h105v60zm-428.994 180h-69.99l72-120-72-120h69.99l36.99 61.68 37.02-61.68h69.99l-72.03 120 72.03 120h-69.99l-37.02-61.68z" fill-rule="evenodd"/></svg>