<svg height="642" viewBox="0 0 642 642" width="642" xmlns="http://www.w3.org/2000/svg"><path d="m170.78 496v21.875h306.25v-21.875h43.75v21.875c0 24.128125-19.621875 43.75-43.75 43.75h-306.25c-24.128125 0-43.75-19.621875-43.75-43.75v-21.875zm303.345-218.75v131.25h65.625v43.75h-109.375v-175zm-320.840625 0 26.971875 44.975 26.99375-44.975h51.034375l-52.521875 87.5 52.521875 87.5h-51.034375l-26.99375-44.975-26.971875 44.975h-51.034375l52.5-87.5-52.5-87.5zm215.140625 9.747692c5.359375-8.028125 15.35625-11.615625 24.54375-8.79375 9.23125 2.778125 15.53125 11.2875 15.53125 20.9125v153.125h-43.75v-80.871875l-3.675 5.5125c-8.115625 12.184375-28.284375 12.184375-36.4 0l-3.675-5.5125v80.871875h-43.75v-153.125c0-9.625 6.321875-18.134375 15.553125-20.9125 9.165625-2.821875 19.184375.765625 24.521875 8.79375l25.55 38.325zm52.03625-206.622692 100.31875 100.31875v52.80625h-43.75v-21.875h-87.5v-87.5h-218.75v109.375h-43.75v-109.375c0-24.10625 19.621875-43.75 43.75-43.75z" fill-rule="evenodd"/></svg>