<svg height="40" viewBox="0 0 40 40" width="40" xmlns="http://www.w3.org/2000/svg"><path d="m13.1328 11h10v4h4v1h2v-2.414l-4.586-4.586h-11.414c-1.103 0-2 .898-2 2v5h2zm14 18h-14v-1h-2v1c0 1.103.897 2 2 2h14c1.103 0 2-.897 2-2v-1h-2zm-2.1328-11v8h5v-2h-3v-6zm-5 4.3026088.168.252c.371.557 1.293.557 1.664 0l.168-.252v3.697h2v-7c0-.44-.288-.829-.71-.956-.42-.129-.877.035-1.122.402l-1.168 1.752-1.168-1.752c-.244-.367-.702-.531-1.121-.402-.422.127-.711.516-.711.956v7h2zm-7.667 3.6973912 1.233-2.056 1.234 2.056h2.333l-2.401-4 2.401-4h-2.333l-1.234 2.056-1.233-2.056h-2.333l2.4 4-2.4 4z" fill-rule="evenodd"/></svg>