<svg height="1200" viewBox="0 0 1200 1200" width="1200" xmlns="http://www.w3.org/2000/svg"><path d="m393.984 330h300v120h120v30h60v-72.42l-137.58-137.58h-342.42c-33.09 0-60 26.94-60 60v150h60zm420 540h-420v-30h-60v30c0 33.09 26.91 60 60 60h420c33.09 0 60-26.91 60-60v-30h-60zm-63.984-330v240h150v-60h-90v-180zm-150 129.078264 5.04 7.56c11.13 16.71 38.79 16.71 49.92 0l5.04-7.56v110.91h60v-210c0-13.2-8.64-24.87-21.3-28.68-12.6-3.87-26.31 1.05-33.66 12.06l-35.04 52.56-35.04-52.56c-7.32-11.01-21.06-15.93-33.63-12.06-12.66 3.81-21.33 15.48-21.33 28.68v210h60zm-230.01 110.921736 36.99-61.68 37.02 61.68h69.99l-72.03-120 72.03-120h-69.99l-37.02 61.68-36.99-61.68h-69.99l72 120-72 120z" fill-rule="evenodd"/></svg>