<svg height="1200" viewBox="0 0 1200 1200" width="1200" xmlns="http://www.w3.org/2000/svg"><path d="m393.984 330v150h-60v-150c0-33.06 26.91-60 60-60h342.42l137.58 137.58v72.42h-60v-30h-120v-120zm420 540v-30h60v30c0 33.09-26.91 60-60 60h-420c-33.09 0-60-26.91-60-60v-30h60v30zm-63.984-330h60v180h90v60h-150zm-150 129.078264v110.91h-60v-210c0-13.2 8.67-24.87 21.33-28.68 12.57-3.87 26.31 1.05 33.63 12.06l35.04 52.56 35.04-52.56c7.35-11.01 21.06-15.93 33.66-12.06 12.66 3.81 21.3 15.48 21.3 28.68v210h-60v-110.91l-5.04 7.56c-11.13 16.71-38.79 16.71-49.92 0zm-230.01 110.921736h-69.99l72-120-72-120h69.99l36.99 61.68 37.02-61.68h69.99l-72.03 120 72.03 120h-69.99l-37.02-61.68z" fill-rule="evenodd"/></svg>