<?xml version="1.0" encoding="UTF-8" standalone="no"?>
<svg width="18px" height="17px" viewBox="0 0 18 17" version="1.1" xmlns="http://www.w3.org/2000/svg" xmlns:xlink="http://www.w3.org/1999/xlink">
    <!-- Generator: Sketch 3.7.2 (28276) - http://www.bohemiancoding.com/sketch -->
    <title>Media File</title>
    <desc>Created with Sketch.</desc>
    <defs></defs>
    <g id="Page-1" stroke="none" stroke-width="1" fill="none" fill-rule="evenodd">
        <g id="Media-File" transform="translate(1.000000, 1.000000)" stroke="#494949" stroke-width="1.5">
            <path d="M8.35355445,14.0232578 L14.7508808,7.25750102 C14.7508808,7.25750102 17.5982435,4.34987243 14.5031371,1.20937466 C14.3532733,1.05734017 14.3612931,1.05284387 14.0145098,0.815725414 C13.1758623,0.242322696 10.3791788,-0.955770289 8.13146432,1.41269669 L1.05984773,8.77117549 C1.05984773,8.77117549 -1.19665954,11.1187421 0.875440934,13.4141317 C1.0076708,13.5605828 1.16081975,13.6855407 1.32918697,13.7858923 C2.03647424,14.2076558 4.01972901,15.0795936 5.87017416,13.0181108 L12.9028513,5.784738 C13.2056707,5.47325754 13.4091125,5.07071451 13.4609029,4.63467151 C13.5277183,4.07223781 13.3735548,3.32590019 12.4895907,2.59003748 C12.4895907,2.59003748 10.9628841,1.35735752 9.69667559,2.8319487 C9.66701204,2.86643686 9.63691368,2.90072738 9.60536596,2.93338738 L2.99218167,9.78032475" id="Page-1"></path>
        </g>
    </g>
</svg>