<?xml version="1.0" encoding="UTF-8" standalone="no"?>
<svg width="25px" height="28px" viewBox="0 0 25 28" version="1.1" xmlns="http://www.w3.org/2000/svg" xmlns:xlink="http://www.w3.org/1999/xlink">
    <!-- Generator: Sketch 3.7.2 (28276) - http://www.bohemiancoding.com/sketch -->
    <title>edit</title>
    <desc>Created with Sketch.</desc>
    <defs></defs>
    <g id="Page-1" stroke="none" stroke-width="1" fill="none" fill-rule="evenodd">
        <path d="M14.1062267,6.47377829 L8.10622669,6.47377829 L8.10622669,2.47377829 C8.07522669,1.48577829 8.12722669,1.44177829 9.10622669,1.47377829 L13.1062267,1.47377829 C14.0862267,1.48077829 14.1102267,1.44077829 14.1062267,2.47377829 L14.1062267,6.47377829 L14.1062267,6.47377829 Z M14.1062267,21.4737783 C12.0522267,21.4727783 8.68822669,21.4737783 8.10622669,21.4737783 L8.10622669,8.47377829 L14.1062267,8.47377829 L14.1062267,21.4737783 L14.1062267,21.4737783 Z M11.1062267,28.7307783 L8.10622669,23.4737783 L14.1062267,23.4737783 L11.1062267,28.7307783 L11.1062267,28.7307783 Z M14.1062267,-0.526221706 L8.10622669,-0.526221706 C6.89622669,-0.526221706 6.10622669,0.252778294 6.10622669,1.47377829 L6.10622669,23.6867783 L10.1062267,30.7487783 C10.7102267,31.6797783 11.5022267,31.6797783 12.1062267,30.7487783 L16.1062267,23.6867783 L16.1062267,1.47377829 C16.1062267,0.252778294 15.3162267,-0.525221706 14.1062267,-0.526221706 L14.1062267,-0.526221706 Z" id="edit" fill="#9FAFB9" transform="translate(11.106227, 15.460403) rotate(40.000000) translate(-11.106227, -15.460403) "></path>
    </g>
</svg>