<?xml version="1.0" encoding="UTF-8" standalone="no"?>
<svg width="48px" height="48px" viewBox="0 0 48 48" version="1.1" xmlns="http://www.w3.org/2000/svg" xmlns:xlink="http://www.w3.org/1999/xlink">
    <!-- Generator: Sketch 3.6.1 (26313) - http://www.bohemiancoding.com/sketch -->
    <title>32x32 Icon</title>
    <desc>Created with Sketch.</desc>
    <defs></defs>
    <g id="Page-1" stroke="none" stroke-width="1" fill="none" fill-rule="evenodd">
        <g id="32x32-Icon" fill="#979797">
            <g id="Github" transform="translate(6.000000, 6.000000)">
                <path d="M17.9983425,0 C8.05881089,0 0,8.05881089 0,18.0005525 C0,25.9532828 5.15706437,32.6993462 12.3097701,35.0806348 C13.2103502,35.2452807 13.5385371,34.6894625 13.5385371,34.2120998 C13.5385371,33.7855674 13.523067,32.6529359 13.514227,31.1512324 C8.50744345,32.2385586 7.45105743,28.7378986 7.45105743,28.7378986 C6.63224777,26.6593818 5.45210105,26.1046687 5.45210105,26.1046687 C3.81779674,24.9886123 5.57586175,25.0107124 5.57586175,25.0107124 C7.38254704,25.1377881 8.33285245,26.866018 8.33285245,26.866018 C9.93842659,29.6163786 12.5462414,28.8218791 13.5716873,28.3621965 C13.7352282,27.1986249 14.1993309,26.4052304 14.7142638,25.9554928 C10.717456,25.5013352 6.5151171,23.9565364 6.5151171,17.0590871 C6.5151171,15.094386 7.2167961,13.4877068 8.36821265,12.2291046 C8.1825716,11.773842 7.56487308,9.94395163 8.54390865,7.46542251 C8.54390865,7.46542251 10.0555573,6.98142976 13.4943368,9.31078302 C14.92974,8.91077074 16.4701188,8.71186961 18.0005525,8.70523957 C19.5287762,8.71186961 21.069155,8.91077074 22.5067682,9.31078302 C25.9433377,6.98142976 27.4516713,7.46542251 27.4516713,7.46542251 C28.4340219,9.94395163 27.8163234,11.773842 27.6306823,12.2291046 C28.7843089,13.4877068 29.4815679,15.094386 29.4815679,17.0590871 C29.4815679,23.9742165 25.2725989,25.4958102 21.2625311,25.9411277 C21.9089598,26.4969459 22.484668,27.5953221 22.484668,29.2749317 C22.484668,31.6805304 22.4625679,33.6220265 22.4625679,34.2120998 C22.4625679,34.6938826 22.7863348,35.2541208 23.700175,35.0784248 C30.8473557,32.6927162 36,25.9510728 36,18.0005525 C36,8.05881089 27.9400841,0 17.9983425,0"></path>
            </g>
        </g>
    </g>
</svg>