<svg width="36" height="35" viewBox="0 0 36 35" xmlns="http://www.w3.org/2000/svg"><title>Github</title><path d="M17.998 0C8.058 0 0 8.033 0 17.943c0 7.928 5.157 14.653 12.31 17.026.9.164 1.229-.39 1.229-.865 0-.426-.016-1.555-.025-3.052-5.007 1.084-6.063-2.405-6.063-2.405-.819-2.072-1.999-2.625-1.999-2.625-1.634-1.113.124-1.09.124-1.09 1.807.126 2.757 1.849 2.757 1.849 1.605 2.741 4.213 1.95 5.239 1.491.163-1.16.627-1.95 1.142-2.399-3.997-.453-8.199-1.992-8.199-8.868 0-1.959.702-3.56 1.853-4.815-.185-.454-.803-2.278.176-4.748 0 0 1.512-.483 4.95 1.84a17.245 17.245 0 0 1 4.507-.604 17.27 17.27 0 0 1 4.506.603c3.436-2.322 4.945-1.84 4.945-1.84.982 2.471.364 4.295.179 4.75 1.153 1.254 1.85 2.855 1.85 4.814 0 6.893-4.208 8.41-8.218 8.854.646.554 1.222 1.649 1.222 3.323 0 2.398-.022 4.333-.022 4.922 0 .48.323 1.038 1.237.863C30.847 32.59 36 25.87 36 17.943 36 8.033 27.94 0 17.998 0" fill="#8A9AA4" fill-rule="evenodd"/></svg>