<?xml version="1.0" encoding="UTF-8" standalone="no"?>
<svg width="48px" height="48px" viewBox="0 0 48 48" version="1.1" xmlns="http://www.w3.org/2000/svg" xmlns:xlink="http://www.w3.org/1999/xlink">
    <!-- Generator: Sketch 3.6.1 (26313) - http://www.bohemiancoding.com/sketch -->
    <title>32x32 Icon</title>
    <desc>Created with Sketch.</desc>
    <defs></defs>
    <g id="Page-1" stroke="none" stroke-width="1" fill="none" fill-rule="evenodd">
        <g id="32x32-Icon" stroke="#7D8A93" stroke-width="1.5">
            <g id="projects-icon" transform="translate(6.000000, 6.000000)">
                <path d="M3.95763397,6.94942474 C3.95763397,6.94942474 6.26689911,8.7064743 5.96115112,10.4069138 C5.65540314,12.1073532 4.68021393,12.7428818 9.11956787,16.2828827 C13.5589218,19.8228836 13.3898926,18.2618332 13.3898926,18.2618332 C13.3898926,18.2618332 13.8283539,16.7889023 14.8881912,18.3681107 C15.9480286,19.947319 16.6743469,20.4306412 16.6743469,20.4306412" id="Path-131"></path>
                <path d="M19.9729538,0.287857056 C19.9729538,0.287857056 15.034523,0.40561676 15.5595016,2.10926056 C16.0844803,3.81290436 14.5757675,4.32292938 14.5757675,4.32292938 C14.5757675,4.32292938 13.4195327,6.38040043 15.5595016,6.38040043 C15.9453582,6.38040043 17.407729,5.92964172 17.407729,5.92964172 C17.407729,5.92964172 17.8014755,3.64894867 19.5943069,5.17181396 C20.1082797,5.60839223 20.0531545,6.00080559 20.3785149,6.38040052 C21.1880713,7.32490256 22.5588608,8.00819397 22.5588608,8.00819397 C22.5588608,8.00819397 23.6843872,9.37858582 20.355072,10.3879547 C17.0257568,11.3973236 18.0828122,13.3792114 18.0828122,13.3792114 C18.0828122,13.3792114 17.8746414,14.1418457 15.5595016,13.3316803 C13.2443619,12.5215149 10.7820893,15.2211761 12.8502274,16.2866211 C14.9183654,17.352066 15.0788498,18.5058975 15.0788498,18.5058975" id="Path-132"></path>
                <path d="M29.224968,5.48156738 C29.224968,5.48156738 28.2866287,5.38410187 27.4406815,6.40762329 C26.5947342,7.43114471 26.1936569,9.16069035 24.8673248,7.32112885 C23.5409927,5.48156734 24.3546295,5.1758194 24.3546295,5.1758194 C24.3546295,5.1758194 25.3164673,4.53468323 22.9804993,3.92051697 C20.6445312,3.30635071 20.030365,0.183982849 20.030365,0.183982849" id="Path-133"></path>
                <circle id="Oval-31" cx="17.5" cy="17.5" r="17.5"></circle>
                <path d="M18.927002,34.4961166 C18.927002,34.4961166 18.0308533,33.229599 18.7432861,31.1820221 C19.455719,29.1344452 19.1096497,26.4225006 18.5344696,25.7159424 C17.9592895,25.0093842 14.636383,23.015213 17.3365784,20.1665497 C20.0367737,17.3178864 21.5807343,19.6864319 21.5807343,19.6864319 C21.5807343,19.6864319 22.7556605,20.5467986 25.0654602,22.4229431 C27.3752599,24.2990876 28.5831637,22.9724883 27.4374771,24.7410202 C26.2917905,26.5095521 26.8767166,27.2902107 26.8767166,27.2902107 C26.8767166,27.2902107 26.8605614,28.1062507 25.2178001,28.465271 C23.5750389,28.8242913 22.7722168,30.7533073 22.7722168,30.7533073 L18.927002,34.4961166 Z" id="Path-130"></path>
            </g>
        </g>
    </g>
</svg>