<svg width="78" height="36" viewBox="0 0 78 36" xmlns="http://www.w3.org/2000/svg" xmlns:xlink="http://www.w3.org/1999/xlink"><title>Grid + Multiple pages</title><defs><rect id="a" width="10.398" height="10.356" rx="1"/><mask id="j" x="0" y="0" width="10.398" height="10.356" fill="#fff"><use xlink:href="#a"/></mask><rect id="b" x="11.883" width="10.398" height="10.356" rx="1"/><mask id="k" x="0" y="0" width="10.398" height="10.356" fill="#fff"><use xlink:href="#b"/></mask><rect id="c" x="23.766" width="10.398" height="10.356" rx="1"/><mask id="l" x="0" y="0" width="10.398" height="10.356" fill="#fff"><use xlink:href="#c"/></mask><rect id="d" y="11.836" width="10.398" height="10.356" rx="1"/><mask id="m" x="0" y="0" width="10.398" height="10.356" fill="#fff"><use xlink:href="#d"/></mask><rect id="e" x="11.883" y="11.836" width="10.398" height="10.356" rx="1"/><mask id="n" x="0" y="0" width="10.398" height="10.356" fill="#fff"><use xlink:href="#e"/></mask><rect id="f" x="23.766" y="11.836" width="10.398" height="10.356" rx="1"/><mask id="o" x="0" y="0" width="10.398" height="10.356" fill="#fff"><use xlink:href="#f"/></mask><rect id="g" y="23.671" width="10.398" height="10.356" rx="1"/><mask id="p" x="0" y="0" width="10.398" height="10.356" fill="#fff"><use xlink:href="#g"/></mask><rect id="h" x="11.883" y="23.671" width="10.398" height="10.356" rx="1"/><mask id="q" x="0" y="0" width="10.398" height="10.356" fill="#fff"><use xlink:href="#h"/></mask><rect id="i" x="23.766" y="23.671" width="10.398" height="10.356" rx="1"/><mask id="r" x="0" y="0" width="10.398" height="10.356" fill="#fff"><use xlink:href="#i"/></mask></defs><g fill="none" fill-rule="evenodd"><g transform="translate(0 1.972)" stroke="#8A9AA4" stroke-width="2.4"><use mask="url(#j)" xlink:href="#a"/><use mask="url(#k)" xlink:href="#b"/><use mask="url(#l)" xlink:href="#c"/><use mask="url(#m)" xlink:href="#d"/><use mask="url(#n)" xlink:href="#e"/><use mask="url(#o)" xlink:href="#f"/><use mask="url(#p)" xlink:href="#g"/><use mask="url(#q)" xlink:href="#h"/><use mask="url(#r)" xlink:href="#i"/></g><g stroke="#8A9AA4" stroke-width="1.5"><path d="M77.115 8.934l-.172 19.044c0 2.131-1.838 3.859-4.12 3.859H54.316c-2.275 0-4.12-1.724-4.12-3.859V4.858c0-2.13 1.838-3.858 4.12-3.858h14.392l8.407 7.934z"/><path d="M72.823 34.86H51.76c-2.276 0-4.121-1.724-4.121-3.858V5.463" stroke-linecap="round"/><path d="M68.701 1.14v5.744c0 1.1.906 1.993 2.001 1.993h3.02c1.052 0 2.803.007 3.14.01"/></g><text font-family="Roboto-Regular, Roboto" font-size="10.4" fill="#8A9AA4" transform="translate(0 1)"><tspan x="38" y="21">+</tspan></text></g></svg>