<svg width="36" height="36" viewBox="0 0 36 36" xmlns="http://www.w3.org/2000/svg" xmlns:xlink="http://www.w3.org/1999/xlink"><title>Grid theme</title><defs><rect id="a" width="10.695" height="10.695" rx="1"/><mask id="j" x="0" y="0" width="10.695" height="10.695" fill="#fff"><use xlink:href="#a"/></mask><rect id="b" x="12.222" width="10.695" height="10.695" rx="1"/><mask id="k" x="0" y="0" width="10.695" height="10.695" fill="#fff"><use xlink:href="#b"/></mask><rect id="c" x="24.445" width="10.695" height="10.695" rx="1"/><mask id="l" x="0" y="0" width="10.695" height="10.695" fill="#fff"><use xlink:href="#c"/></mask><rect id="d" y="12.222" width="10.695" height="10.695" rx="1"/><mask id="m" x="0" y="0" width="10.695" height="10.695" fill="#fff"><use xlink:href="#d"/></mask><rect id="e" x="12.222" y="12.222" width="10.695" height="10.695" rx="1"/><mask id="n" x="0" y="0" width="10.695" height="10.695" fill="#fff"><use xlink:href="#e"/></mask><rect id="f" x="24.445" y="12.222" width="10.695" height="10.695" rx="1"/><mask id="o" x="0" y="0" width="10.695" height="10.695" fill="#fff"><use xlink:href="#f"/></mask><rect id="g" y="24.445" width="10.695" height="10.695" rx="1"/><mask id="p" x="0" y="0" width="10.695" height="10.695" fill="#fff"><use xlink:href="#g"/></mask><rect id="h" x="12.222" y="24.445" width="10.695" height="10.695" rx="1"/><mask id="q" x="0" y="0" width="10.695" height="10.695" fill="#fff"><use xlink:href="#h"/></mask><rect id="i" x="24.445" y="24.445" width="10.695" height="10.695" rx="1"/><mask id="r" x="0" y="0" width="10.695" height="10.695" fill="#fff"><use xlink:href="#i"/></mask></defs><g stroke="#8A9AA4" stroke-width="2.4" fill="none" fill-rule="evenodd"><use mask="url(#j)" xlink:href="#a"/><use mask="url(#k)" xlink:href="#b"/><use mask="url(#l)" xlink:href="#c"/><use mask="url(#m)" xlink:href="#d"/><use mask="url(#n)" xlink:href="#e"/><use mask="url(#o)" xlink:href="#f"/><use mask="url(#p)" xlink:href="#g"/><use mask="url(#q)" xlink:href="#h"/><use mask="url(#r)" xlink:href="#i"/></g></svg>