<?xml version="1.0" encoding="UTF-8" standalone="no"?>
<svg width="48px" height="48px" viewBox="0 0 48 48" version="1.1" xmlns="http://www.w3.org/2000/svg" xmlns:xlink="http://www.w3.org/1999/xlink">
    <!-- Generator: Sketch 3.6.1 (26313) - http://www.bohemiancoding.com/sketch -->
    <title>32x32 Icon</title>
    <desc>Created with Sketch.</desc>
    <defs></defs>
    <g id="Page-1" stroke="none" stroke-width="1" fill="none" fill-rule="evenodd">
        <g id="32x32-Icon" fill="#000000">
            <g id="Group" transform="translate(8.000000, 8.000000)">
                <path d="M15.984,0 C7.152,0 0,7.168 0,16 C0,24.832 7.152,32 15.984,32 C24.832,32 32,24.832 32,16 C32,7.168 24.832,0 15.984,0 L15.984,0 Z M27.072,9.6 L22.352,9.6 C21.84,7.6 21.104,5.68 20.144,3.904 C23.088,4.912 25.536,6.96 27.072,9.6 L27.072,9.6 Z M16,3.264 C17.328,5.184 18.368,7.312 19.056,9.6 L12.944,9.6 C13.632,7.312 14.672,5.184 16,3.264 L16,3.264 Z M3.616,19.2 C3.36,18.176 3.2,17.104 3.2,16 C3.2,14.896 3.36,13.824 3.616,12.8 L9.024,12.8 C8.896,13.856 8.8,14.912 8.8,16 C8.8,17.088 8.896,18.144 9.024,19.2 L3.616,19.2 L3.616,19.2 Z M4.928,22.4 L9.648,22.4 C10.16,24.4 10.896,26.32 11.856,28.096 C8.912,27.088 6.464,25.056 4.928,22.4 L4.928,22.4 Z M9.648,9.6 L4.928,9.6 C6.464,6.944 8.912,4.912 11.856,3.904 C10.896,5.68 10.16,7.6 9.648,9.6 L9.648,9.6 Z M16,28.736 C14.672,26.816 13.632,24.688 12.944,22.4 L19.056,22.4 C18.368,24.688 17.328,26.816 16,28.736 L16,28.736 Z M19.744,19.2 L12.256,19.2 C12.112,18.144 12,17.088 12,16 C12,14.912 12.112,13.84 12.256,12.8 L19.744,12.8 C19.888,13.84 20,14.912 20,16 C20,17.088 19.888,18.144 19.744,19.2 L19.744,19.2 Z M20.144,28.096 C21.104,26.32 21.84,24.4 22.352,22.4 L27.072,22.4 C25.536,25.04 23.088,27.088 20.144,28.096 L20.144,28.096 Z M22.976,19.2 C23.104,18.144 23.2,17.088 23.2,16 C23.2,14.912 23.104,13.856 22.976,12.8 L28.384,12.8 C28.64,13.824 28.8,14.896 28.8,16 C28.8,17.104 28.64,18.176 28.384,19.2 L22.976,19.2 L22.976,19.2 Z" id="Shape"></path>
            </g>
        </g>
    </g>
</svg>