<?xml version="1.0" encoding="UTF-8" standalone="no"?>
<svg width="48px" height="48px" viewBox="0 0 48 48" version="1.1" xmlns="http://www.w3.org/2000/svg" xmlns:xlink="http://www.w3.org/1999/xlink">
    <!-- Generator: Sketch 3.6.1 (26313) - http://www.bohemiancoding.com/sketch -->
    <title>32x32 Icon</title>
    <desc>Created with Sketch.</desc>
    <defs></defs>
    <g id="Page-1" stroke="none" stroke-width="1" fill="none" fill-rule="evenodd">
        <g id="32x32-Icon" stroke="#2196F3" stroke-width="1.5">
            <g id="Library-icon" transform="translate(10.000000, 7.000000)">
                <path d="M0.264150943,31.1634077 L0.264150943,3.09663846 C0.264150943,1.54156154 1.5125283,0.269176923 3.03773585,0.269176923 L24.9622642,0.269176923 C26.4874717,0.269176923 27.7358491,1.54156154 27.7358491,3.09663846 L27.7358491,31.9037923 C27.7358491,33.4583308 26.4874717,34.7307154 24.9622642,34.7307154 L3.23584906,34.7307154" id="Stroke-1"></path>
                <path d="M27.6698113,27.5961538 L3.76415094,27.5961538 C1.83901887,27.5961538 0.264150943,29.2013077 0.264150943,31.1634615 L0.264150943,31.1634615 C0.264150943,33.1256154 1.83901887,34.7307692 3.76415094,34.7307692 L24.9622642,34.7307692" id="Stroke-3"></path>
                <path d="M3,27.7307692 L3,0.269230769" id="Stroke-5"></path>
                <path d="M8.71698113,11 L21.3962264,11" id="Stroke-7"></path>
                <path d="M8.71698113,16 L19.2830189,16" id="Stroke-9"></path>
            </g>
        </g>
    </g>
</svg>