<?xml version="1.0" encoding="UTF-8" standalone="no"?>
<svg width="39px" height="32px" viewBox="0 0 39 32" version="1.1" xmlns="http://www.w3.org/2000/svg" xmlns:xlink="http://www.w3.org/1999/xlink">
    <!-- Generator: Sketch 3.7.2 (28276) - http://www.bohemiancoding.com/sketch -->
    <title>folder share</title>
    <desc>Created with Sketch.</desc>
    <defs></defs>
    <g id="Page-1" stroke="none" stroke-width="1" fill="none" fill-rule="evenodd">
        <g id="Block-Select" transform="translate(-838.000000, -79.000000)" stroke="#A5B3BC">
            <g id="Select!" transform="translate(286.000000, 79.000000)">
                <g id="folder-share" transform="translate(553.212453, 1.000000)">
                    <g id="Folder-share">
                        <polygon id="Shape" stroke-width="1.5" points="18.974359 12.3333333 18.974359 8.53846154 26.5641026 16.1282051 18.974359 23.7179487 18.974359 19.9230769 11.3846154 19.9230769 11.3846154 12.3333333"></polygon>
                        <path d="M14.7051282,0 L3.67628205,0 C1.65432692,0 0.0183814103,1.65432692 0.0183814103,3.67628205 L0,25.7339744 C0,27.7559295 1.65432692,29.4102564 3.67628205,29.4102564 L33.0865385,29.4102564 C35.1084936,29.4102564 36.7628205,27.7559295 36.7628205,25.7339744 L36.7628205,7.3525641 C36.7628205,5.33060897 35.1084936,3.67628205 33.0865385,3.67628205 L18.3814103,3.67628205 L14.7051282,0 L14.7051282,0 Z" id="Shape" stroke-width="2"></path>
                    </g>
                </g>
            </g>
        </g>
    </g>
</svg>