<svg width="41" height="36" viewBox="0 0 41 36" xmlns="http://www.w3.org/2000/svg"><title>notifications copy</title><g transform="translate(0 1)" fill="none" fill-rule="evenodd"><path d="M10.997 34.323a2.595 2.595 0 0 0 2.587-2.587H8.41a2.595 2.595 0 0 0 2.588 2.587zm8.41-7.762v-7.116c0-4.01-2.717-7.245-6.47-8.15v-.906c0-1.035-.905-1.94-1.94-1.94s-1.94.905-1.94 1.94v.906c-3.753.905-6.47 4.14-6.47 8.15v7.116L0 29.148v1.294h21.994v-1.294l-2.588-2.587z" fill="#DBEDF7"/><ellipse stroke="#414553" fill="#FF5469" cx="27.639" cy="12.153" rx="12.069" ry="12.069"/></g></svg>