<?xml version="1.0" encoding="UTF-8" standalone="no"?>
<svg width="38px" height="38px" viewBox="0 0 38 38" version="1.1" xmlns="http://www.w3.org/2000/svg" xmlns:xlink="http://www.w3.org/1999/xlink">
    <!-- Generator: Sketch 3.7.2 (28276) - http://www.bohemiancoding.com/sketch -->
    <title>edit</title>
    <desc>Created with Sketch.</desc>
    <defs></defs>
    <g id="Page-1" stroke="none" stroke-width="1" fill="none" fill-rule="evenodd">
        <g id="Block-Select" transform="translate(-787.000000, -81.000000)" fill="#9FAFB9">
            <g id="Select!" transform="translate(286.000000, 79.000000)">
                <path d="M515.106227,8.47377829 L509.106227,8.47377829 L509.106227,4.47377829 C509.075227,3.48577829 509.127227,3.44177829 510.106227,3.47377829 L514.106227,3.47377829 C515.086227,3.48077829 515.110227,3.44077829 515.106227,4.47377829 L515.106227,8.47377829 L515.106227,8.47377829 Z M515.106227,23.4737783 C513.052227,23.4727783 509.688227,23.4737783 509.106227,23.4737783 L509.106227,10.4737783 L515.106227,10.4737783 L515.106227,23.4737783 L515.106227,23.4737783 Z M512.106227,30.7307783 L509.106227,25.4737783 L515.106227,25.4737783 L512.106227,30.7307783 L512.106227,30.7307783 Z M515.106227,1.47377829 L509.106227,1.47377829 C507.896227,1.47377829 507.106227,2.25277829 507.106227,3.47377829 L507.106227,25.6867783 L511.106227,32.7487783 C511.710227,33.6797783 512.502227,33.6797783 513.106227,32.7487783 L517.106227,25.6867783 L517.106227,3.47377829 C517.106227,2.25277829 516.316227,1.47477829 515.106227,1.47377829 L515.106227,1.47377829 Z" id="edit" transform="translate(512.106227, 17.460403) rotate(40.000000) translate(-512.106227, -17.460403) "></path>
            </g>
        </g>
    </g>
</svg>