<?xml version="1.0" encoding="UTF-8" standalone="no"?>
<svg width="28px" height="35px" viewBox="0 0 28 35" version="1.1" xmlns="http://www.w3.org/2000/svg" xmlns:xlink="http://www.w3.org/1999/xlink">
    <!-- Generator: Sketch 3.7.2 (28276) - http://www.bohemiancoding.com/sketch -->
    <title>project</title>
    <desc>Created with Sketch.</desc>
    <defs>
        <rect id="path-1" x="0" y="0" width="28" height="35" rx="3"></rect>
        <mask id="mask-2" maskContentUnits="userSpaceOnUse" maskUnits="objectBoundingBox" x="0" y="0" width="28" height="35" fill="white">
            <use xlink:href="#path-1"></use>
        </mask>
    </defs>
    <g id="Page-1" stroke="none" stroke-width="1" fill="none" fill-rule="evenodd">
        <g id="project">
            <path d="M14,31.824 C14.5522847,31.824 15,31.3762847 15,30.824 C15,30.2717153 14.5522847,29.824 14,29.824 C13.4477153,29.824 13,30.2717153 13,30.824 C13,31.3762847 13.4477153,31.824 14,31.824 L14,31.824 Z" id="Shape" stroke="#8A9AA4"></path>
            <path d="M7,21.46 L9,21.46 L9,23.46 L7,23.46 L7,21.46 Z M7,16.442 L9,16.442 L9,18.442 L7,18.442 L7,16.442 Z M7,6.407 L9,6.407 L9,8.407 L7,8.407 L7,6.407 Z M7,11.425 L9,11.425 L9,13.425 L7,13.425 L7,11.425 Z" id="Shape" fill="#8A9AA4"></path>
            <path d="M11.5,7.5 L20.5,7.5 M11.5,12.5 L20.5,12.5 M11.5,17.5 L20.5,17.5 M11.5,22.5 L20.5,22.5" id="Shape" stroke="#8A9AA4"></path>
            <use id="Rectangle-3" stroke="#8A9AA4" mask="url(#mask-2)" stroke-width="2" xlink:href="#path-1"></use>
            <rect id="Rectangle-2" stroke="#8A9AA4" x="4" y="4" width="20" height="24"></rect>
        </g>
    </g>
</svg>