<svg width="38" height="37" viewBox="0 0 38 37" xmlns="http://www.w3.org/2000/svg"><title>Settings Icon</title><g stroke="#8A9AA4" stroke-width="1.5" fill="none" fill-rule="evenodd"><path d="M32.163 20.215c.073-.56.127-1.12.127-1.715s-.054-1.155-.127-1.715l3.825-2.887a.862.862 0 0 0 .217-1.12L32.58 6.721c-.217-.385-.707-.525-1.106-.385l-4.513 1.75a13.364 13.364 0 0 0-3.063-1.715l-.689-4.637c-.054-.42-.435-.735-.888-.735h-7.25c-.454 0-.834.315-.889.735l-.688 4.637c-1.106.438-2.121 1.033-3.064 1.715l-4.513-1.75a.899.899 0 0 0-1.106.385l-3.625 6.055a.843.843 0 0 0 .218 1.12l3.824 2.888c-.072.56-.127 1.137-.127 1.715 0 .577.055 1.155.127 1.715l-3.824 2.887a.862.862 0 0 0-.218 1.12l3.625 6.055c.218.385.707.525 1.106.385l4.513-1.75c.943.7 1.958 1.278 3.064 1.715l.688 4.638c.055.42.435.735.889.735h7.25c.453 0 .834-.315.888-.735l.689-4.637c1.105-.438 2.12-1.033 3.063-1.715l4.513 1.75c.417.157.889 0 1.106-.386l3.625-6.055a.862.862 0 0 0-.217-1.12l-3.825-2.887z"/><path d="M18.835 24.375c-3.472 0-6.297-2.804-6.297-6.25s2.825-6.25 6.297-6.25c3.472 0 6.297 2.804 6.297 6.25s-2.825 6.25-6.297 6.25z"/></g></svg>