<svg width="37" height="36" viewBox="0 0 37 36" xmlns="http://www.w3.org/2000/svg"><title>share</title><g fill="none" fill-rule="evenodd"><path d="M33.963 19.057l-.084 10.47A5.472 5.472 0 0 1 28.394 35H6.484A5.472 5.472 0 0 1 1 29.526V7.661a5.472 5.472 0 0 1 5.485-5.473l14.157.085" stroke="#9FAFB9" stroke-width="2"/><path d="M25.133 22.315v-5.873s-2.592-.022-3.31-.022c-4.57 0-10.784 3.555-13.15 6.584.036-4.112 5.41-12.906 13.15-13.147.571-.021 3.31.011 3.31.011V3.951l8.392 9.188-8.392 9.176zm10.625-10.008L24.811.32a1.125 1.125 0 0 0-1.572 0c-.25.251-.338.58-.301.908V7.68c-9.089 0-16.458 7.35-16.458 16.417 0 2.33.49 4.54 1.365 6.552 1.3-6.847 7.84-12.043 15.074-12.043 0 .372.019 6.443.019 6.443-.037.317.051.656.301.896.002.011.007.011.009.011a1.064 1.064 0 0 0 1.623-.077l10.887-11.91c.232-.23.33-.536.315-.831a1.07 1.07 0 0 0-.315-.832z" fill="#9FAFB9"/></g></svg>