<svg width="44" height="35" viewBox="0 0 44 35" xmlns="http://www.w3.org/2000/svg"><title>Shared Folder</title><path d="M39.375 4.375h-17.5L17.5 0H4.375C1.969 0 .022 1.969.022 4.375L0 30.625A4.388 4.388 0 0 0 4.375 35h35a4.388 4.388 0 0 0 4.375-4.375V8.75a4.388 4.388 0 0 0-4.375-4.375zm-10.938 6.563a4.388 4.388 0 0 1 4.375 4.374 4.388 4.388 0 0 1-4.374 4.376 4.388 4.388 0 0 1-4.375-4.375 4.388 4.388 0 0 1 4.375-4.376zm8.75 17.5h-17.5V26.25c0-2.91 5.841-4.375 8.75-4.375 2.91 0 8.75 1.466 8.75 4.375v2.188z" fill="#8A9AA4" fill-rule="evenodd"/></svg>