<svg width="28" height="35" viewBox="0 0 28 35" xmlns="http://www.w3.org/2000/svg" xmlns:xlink="http://www.w3.org/1999/xlink">
    <title>Trash icon</title>
    <defs>
        <path d="M26 9.002V29.832C26 32.134 24.216 34 22.01 34H5.99C3.786 34 2 32.133 2 29.83V9" id="a" />
        <mask id="c" x="0" y="0" width="24" height="26.001" fill="#fff">
            <use xlink:href="#a" />
        </mask>
        <rect id="b" y="3" width="28" height="7" rx="3" />
        <mask id="d" x="0" y="0" width="28" height="7" fill="#fff">
            <use xlink:href="#b" />
        </mask>
        <path d="M5.75.5v15" id="e" />
        <path d="M.75.5v15" id="f" />
        <path d="M10.75.5v15" id="g" />
    </defs>
    <g transform="translate(0 1)" stroke="#8A9AA4" fill="none" fill-rule="evenodd">
        <use mask="url(#c)" stroke-width="3" xlink:href="#a" />
        <use mask="url(#d)" stroke-width="3" xlink:href="#b" />
        <path d="M9 4.002V1.998C9 .894 9.887 0 11 0h6c1.105 0 2 .898 2 1.998v2.004" stroke-width="1.5" />
        <g stroke-linecap="round">
            <g transform="translate(8 14)">
                <use stroke-width="1.5" xlink:href="#e" />
                <use xlink:href="#e" />
            </g>
            <g transform="translate(8 14)">
                <use stroke-width="1.5" xlink:href="#f" />
                <use xlink:href="#f" />
            </g>
            <g transform="translate(8 14)">
                <use stroke-width="1.5" xlink:href="#g" />
                <use xlink:href="#g" />
            </g>
        </g>
    </g>
</svg>
