<?xml version="1.0" encoding="UTF-8" standalone="no"?>
<svg width="38px" height="38px" viewBox="0 0 38 38" version="1.1" xmlns="http://www.w3.org/2000/svg" xmlns:xlink="http://www.w3.org/1999/xlink">
    <!-- Generator: Sketch 3.7.2 (28276) - http://www.bohemiancoding.com/sketch -->
    <title>trash</title>
    <desc>Created with Sketch.</desc>
    <defs></defs>
    <g id="Page-1" stroke="none" stroke-width="1" fill="none" fill-rule="evenodd">
        <g id="Block-Select" transform="translate(-968.000000, -79.000000)" fill="#9FAFB9">
            <g id="Select!" transform="translate(286.000000, 79.000000)">
                <path d="M705.106227,8 L685.106227,8 C684.554227,8 684.106227,7.553 684.106227,7 C684.106227,6.448 684.554227,6 685.106227,6 L705.106227,6 C705.658227,6 706.106227,6.448 706.106227,7 C706.106227,7.553 705.658227,8 705.106227,8 L705.106227,8 Z M704.106227,28 C704.106227,29.104 703.210227,30 702.106227,30 L688.106227,30 C687.002227,30 686.106227,29.104 686.106227,28 L686.106227,10 L704.106227,10 L704.106227,28 L704.106227,28 Z M692.106227,3 C692.106227,2.447 692.554227,2 693.106227,2 L697.106227,2 C697.658227,2 698.106227,2.447 698.106227,3 L698.106227,4 L692.106227,4 L692.106227,3 L692.106227,3 Z M706.106227,4 L700.106227,4 L700.106227,2 C700.106227,0.896 699.210227,0 698.106227,0 L692.106227,0 C691.002227,0 690.106227,0.896 690.106227,2 L690.106227,4 L684.106227,4 C683.002227,4 682.106227,4.896 682.106227,6 L682.106227,8 C682.106227,9.104 683.002227,10 684.106227,10 L684.106227,28 C684.106227,30.209 685.897227,32 688.106227,32 L702.106227,32 C704.315227,32 706.106227,30.209 706.106227,28 L706.106227,10 C707.210227,10 708.106227,9.104 708.106227,8 L708.106227,6 C708.106227,4.896 707.210227,4 706.106227,4 L706.106227,4 Z M695.106227,28 C695.658227,28 696.106227,27.553 696.106227,27 L696.106227,15 C696.106227,14.448 695.658227,14 695.106227,14 C694.554227,14 694.106227,14.448 694.106227,15 L694.106227,27 C694.106227,27.553 694.554227,28 695.106227,28 L695.106227,28 Z M690.106227,28 C690.658227,28 691.106227,27.553 691.106227,27 L691.106227,15 C691.106227,14.448 690.658227,14 690.106227,14 C689.554227,14 689.106227,14.448 689.106227,15 L689.106227,27 C689.106227,27.553 689.554227,28 690.106227,28 L690.106227,28 Z M700.106227,28 C700.658227,28 701.106227,27.553 701.106227,27 L701.106227,15 C701.106227,14.448 700.658227,14 700.106227,14 C699.554227,14 699.106227,14.448 699.106227,15 L699.106227,27 C699.106227,27.553 699.554227,28 700.106227,28 L700.106227,28 Z" id="trash"></path>
            </g>
        </g>
    </g>
</svg>