<svg viewBox="0 0 175 40" xmlns="http://www.w3.org/2000/svg"><path d="m27.94 20 7.49-8.61c.21-.2 0-.55-.27-.55h-1.74a2.87 2.87 0 0 0 -2.15 1l-6.27 7.33v-7.85a.39.39 0 0 0 -.41-.41h-2.06a.4.4 0 0 0 -.42.41v17.42a.4.4 0 0 0 .42.42h2.08a.4.4 0 0 0 .41-.42v-7.74l6.25 7.22a2.87 2.87 0 0 0 2.15 1h1.88a.36.36 0 0 0 .27-.55z" fill="#fff"/><path d="m60.84 19.72a5 5 0 0 0 2.29-1.52 4.18 4.18 0 0 0 .87-2.64 3.91 3.91 0 0 0 -.7-2.36 4.79 4.79 0 0 0 -2-1.67 7.56 7.56 0 0 0 -3.19-.62h-6.57a.4.4 0 0 0 -.42.41v17.42a.4.4 0 0 0 .42.42h6.87a7.79 7.79 0 0 0 3.19-.62 5.15 5.15 0 0 0 2.08-1.74 4.48 4.48 0 0 0 .7-2.5 4.38 4.38 0 0 0 -1-2.91 3.55 3.55 0 0 0 -2.54-1.67zm-6.84-6.45h3.68a3.37 3.37 0 0 1 2.32.73 2.42 2.42 0 0 1 .84 1.95 2.42 2.42 0 0 1 -.84 1.9 3.78 3.78 0 0 1 -2.29.69h-3.71zm6.49 12.63a3.62 3.62 0 0 1 -2.43.76h-4.06v-5.66h4a3.76 3.76 0 0 1 2.43.77 2.68 2.68 0 0 1 .9 2.15 2.2 2.2 0 0 1 -.84 1.98z" fill="#fff"/><g fill="#64c0ff"><path d="m12.67 23.47v1.94a1.94 1.94 0 0 1 -1.94 1.95h-4.24a1.94 1.94 0 0 1 -1.94-1.95v-10.82a1.94 1.94 0 0 1 1.94-1.95h4.24a1.94 1.94 0 0 1 1.94 1.95v.27a3.44 3.44 0 0 1 1.18-.2 3.23 3.23 0 0 1 1.39.27v-.34a4.5 4.5 0 0 0 -4.51-4.51h-4.24a4.5 4.5 0 0 0 -4.49 4.51v10.82a4.5 4.5 0 0 0 4.51 4.51h4.24a4.5 4.5 0 0 0 4.51-4.51v-4.92z"/><path d="m10.59 22.85 4.58-5.28a.36.36 0 0 0 -.07-.57 1.89 1.89 0 0 0 -2.71.2l-2.84 3.29c-.07.07-.21.07-.21 0l-1-1.32a.52.52 0 0 0 -.84 0 1.91 1.91 0 0 0 -.06 2.57l.83 1a1.47 1.47 0 0 0 2.32.11z"/><path d="m88.39 16.39v8.68a1.93 1.93 0 0 0 .48 1.52 2.33 2.33 0 0 0 1.6.42h1.53a.3.3 0 0 1 .28.28v1.52a.3.3 0 0 1 -.28.28h-2a4.39 4.39 0 0 1 -3-1 4 4 0 0 1 -1-3.05v-8.65h-1.6a.3.3 0 0 1 -.27-.28v-1.45a.3.3 0 0 1 .27-.28h1.6v-3.38a.3.3 0 0 1 .28-.28h1.72a.3.3 0 0 1 .28.28v3.4h3.54a.3.3 0 0 1 .28.28v1.45a.3.3 0 0 1 -.28.28z"/><path d="m96.44 28.4a7 7 0 0 1 -2.64-2.64 8.47 8.47 0 0 1 -1-4 8 8 0 0 1 1-4 7 7 0 0 1 2.64-2.64 8.24 8.24 0 0 1 7.49 0 6.83 6.83 0 0 1 2.64 2.64 8.16 8.16 0 0 1 1 4 8.37 8.37 0 0 1 -1 4 7 7 0 0 1 -2.7 2.64 7.85 7.85 0 0 1 -3.82 1 8.4 8.4 0 0 1 -3.61-1zm6.18-1.81a4.87 4.87 0 0 0 1.87-1.87 5.72 5.72 0 0 0 .69-3 5.73 5.73 0 0 0 -.69-3 4.11 4.11 0 0 0 -1.8-1.8 5.06 5.06 0 0 0 -2.43-.63 4.63 4.63 0 0 0 -2.43.63 5 5 0 0 0 -1.83 1.83 6.63 6.63 0 0 0 -.69 3 6.94 6.94 0 0 0 .69 3.04 4 4 0 0 0 1.74 1.8 4.84 4.84 0 0 0 2.43.63 4.94 4.94 0 0 0 2.45-.63z"/><path d="m112.54 28.4a7 7 0 0 1 -2.64-2.64 8.47 8.47 0 0 1 -1-4 8 8 0 0 1 1-4 7 7 0 0 1 2.64-2.64 8.26 8.26 0 0 1 7.5 0 6.88 6.88 0 0 1 2.63 2.64 8.16 8.16 0 0 1 1 4 8.37 8.37 0 0 1 -1 4 7 7 0 0 1 -2.7 2.64 7.85 7.85 0 0 1 -3.82 1 8.4 8.4 0 0 1 -3.61-1zm6.18-1.81a4.8 4.8 0 0 0 1.87-1.87 5.72 5.72 0 0 0 .7-3 5.73 5.73 0 0 0 -.7-3 4.06 4.06 0 0 0 -1.8-1.8 5.06 5.06 0 0 0 -2.43-.63 4.66 4.66 0 0 0 -2.43.63 5 5 0 0 0 -1.81 1.8 6.63 6.63 0 0 0 -.69 3 6.8 6.8 0 0 0 .63 3.05 3.93 3.93 0 0 0 1.73 1.8 4.84 4.84 0 0 0 2.43.63 5.13 5.13 0 0 0 2.5-.61z"/><path d="m127.88 10.84v18a.3.3 0 0 1 -.28.28h-1.87a.3.3 0 0 1 -.28-.28v-18a.3.3 0 0 1 .28-.28h1.87a.3.3 0 0 1 .28.28z"/><path d="m134.89 15a6.64 6.64 0 0 1 3.33-.83 6.81 6.81 0 0 1 3.54 1 7.14 7.14 0 0 1 2.5 2.64 8 8 0 0 1 .9 4 8.35 8.35 0 0 1 -.9 4 6.68 6.68 0 0 1 -6 3.68 6.64 6.64 0 0 1 -3.33-.83 5.36 5.36 0 0 1 -2.15-2.15v2.42a.3.3 0 0 1 -.28.28h-1.87a.3.3 0 0 1 -.28-.28v-18a.3.3 0 0 1 .28-.28h1.87a.3.3 0 0 1 .28.28v6.25a5.17 5.17 0 0 1 2.11-2.18zm7.11 3.82a4.25 4.25 0 0 0 -1.84-1.82 5.26 5.26 0 0 0 -5 0 4.25 4.25 0 0 0 -1.81 1.87 5.71 5.71 0 0 0 -.69 2.92 5.7 5.7 0 0 0 .69 2.91 4.67 4.67 0 0 0 1.81 1.87 5.26 5.26 0 0 0 5 0 4.25 4.25 0 0 0 1.84-1.92 6.51 6.51 0 0 0 .69-2.91 5.4 5.4 0 0 0 -.69-2.92z"/><path d="m150 28.4a7 7 0 0 1 -2.64-2.64 8.47 8.47 0 0 1 -1-4 8 8 0 0 1 1-4 7 7 0 0 1 2.64-2.62 8.24 8.24 0 0 1 7.49 0 6.83 6.83 0 0 1 2.64 2.64 8.16 8.16 0 0 1 1 4 8.37 8.37 0 0 1 -1 4 7 7 0 0 1 -2.7 2.64 7.88 7.88 0 0 1 -3.82 1 8.4 8.4 0 0 1 -3.61-1.02zm6.25-1.81a4.87 4.87 0 0 0 1.87-1.87 5.72 5.72 0 0 0 .69-3 5.73 5.73 0 0 0 -.69-3 4.08 4.08 0 0 0 -1.81-1.8 5 5 0 0 0 -2.42-.63 4.63 4.63 0 0 0 -2.43.63 5 5 0 0 0 -1.81 1.8 6.63 6.63 0 0 0 -.69 3 6.94 6.94 0 0 0 .62 3.05 4 4 0 0 0 1.74 1.8 4.81 4.81 0 0 0 2.43.63 5.13 5.13 0 0 0 2.45-.61z"/><path d="m170.08 28.81-3.34-5.2-3.19 5.2a.59.59 0 0 1 -.48.28h-2c-.14 0-.2-.14-.14-.21l4.59-7.08-4.52-7.21c-.07-.07 0-.21.14-.21h2.22a.53.53 0 0 1 .49.28l3.33 5.2 3.19-5.2a.59.59 0 0 1 .49-.28h2c.14 0 .21.14.14.21l-4.58 7.08 4.58 7.21c.07.07 0 .21-.14.21h-2.22a.54.54 0 0 1 -.56-.28z"/></g><path d="m41.89 16a5.28 5.28 0 1 1 -5.28 5.28 5.27 5.27 0 0 1 5.28-5.28m0-2.77a8.05 8.05 0 1 0 8 8.05 8.06 8.06 0 0 0 -8-8z" fill="#fff"/><path d="m73.26 16a5.28 5.28 0 1 1 -5.26 5.32 5.27 5.27 0 0 1 5.26-5.32m0-2.77a8.05 8.05 0 1 0 8 8.05 8.06 8.06 0 0 0 -8-8z" fill="#fff"/></svg>