<?xml version="1.0" standalone="no"?>
<!DOCTYPE svg PUBLIC "-//W3C//DTD SVG 20010904//EN"
 "http://www.w3.org/TR/2001/REC-SVG-20010904/DTD/svg10.dtd">
<svg version="1.0" xmlns="http://www.w3.org/2000/svg"
 width="260.000000pt" height="260.000000pt" viewBox="0 0 260.000000 260.000000"
 preserveAspectRatio="xMidYMid meet">
<metadata>
Created by potrace 1.11, written by Peter Selinger 2001-2013
</metadata>
<g transform="translate(0.000000,260.000000) scale(0.100000,-0.100000)"
fill="#000000" stroke="none">
<path d="M537 2590 c-44 -14 -95 -57 -120 -103 l-22 -42 -3 -1115 c-2 -752 1
-1131 8 -1165 13 -63 59 -121 114 -146 39 -18 83 -19 786 -19 703 0 747 1 786
19 55 25 101 83 114 146 7 34 10 413 8 1165 l-3 1115 -25 45 c-14 24 -45 58
-68 75 l-44 30 -751 2 c-414 1 -765 -2 -780 -7z m1121 -545 c47 -20 79 -50
103 -97 18 -35 19 -67 19 -648 0 -585 -1 -612 -19 -649 -29 -56 -81 -97 -141
-110 -68 -15 -563 -15 -631 0 -35 8 -64 23 -91 47 -77 70 -73 28 -76 686 -3
655 -2 663 60 722 67 64 62 63 416 64 269 0 329 -3 360 -15z"/>
<path d="M1115 1756 c-43 -20 -74 -53 -96 -100 -17 -37 -19 -70 -19 -361 0
-359 2 -370 73 -432 47 -41 71 -45 259 -41 l156 3 39 31 c79 65 78 56 78 439
0 383 1 374 -78 439 l-39 31 -171 2 c-129 2 -179 -1 -202 -11z"/>
</g>
</svg>
