<?xml version="1.0" encoding="utf-8"?>
<svg version="1.1" xmlns="http://www.w3.org/2000/svg" xmlns:xlink="http://www.w3.org/1999/xlink" x="0px" y="0px" viewBox="0 0 16 16" style="enable-background:new 0 0 16 16;" xml:space="preserve"> <path d="M12.1,0H3.9C3.1,0,2.4,0.7,2.4,1.5v13.1c0,0.8,0.7,1.5,1.5,1.5h8.2c0.8,0,1.5-0.7,1.5-1.5V1.5C13.6,0.7,12.9,0,12.1,0z M11,11.3c0,0.8-0.6,1.4-1.4,1.4h-3c-0.8,0-1.4-0.6-1.4-1.4V4.7c0-0.8,0.6-1.4,1.4-1.4h3C10.3,3.3,11,4,11,4.7V11.3z M9.9,6.4v3.1 c0,0.8-0.6,1.4-1.4,1.4h-1c-0.8,0-1.4-0.6-1.4-1.4V6.4c0-0.8,0.6-1.4,1.4-1.4h1C9.3,5.1,9.9,5.7,9.9,6.4z"/> </svg>