<?xml version="1.0" encoding="UTF-8" standalone="no"?>
<svg
   xmlns:dc="http://purl.org/dc/elements/1.1/"
   xmlns:cc="http://creativecommons.org/ns#"
   xmlns:rdf="http://www.w3.org/1999/02/22-rdf-syntax-ns#"
   xmlns:svg="http://www.w3.org/2000/svg"
   xmlns="http://www.w3.org/2000/svg"
   width="56.209141mm"
   height="80.668633mm"
   viewBox="0 0 56.209141 80.668633"
   version="1.1"
   id="svg867">
  <defs
     id="defs861" />
  <metadata
     id="metadata864">
    <rdf:RDF>
      <cc:Work
         rdf:about="">
        <dc:format>image/svg+xml</dc:format>
        <dc:type
           rdf:resource="http://purl.org/dc/dcmitype/StillImage" />
        <dc:title></dc:title>
      </cc:Work>
    </rdf:RDF>
  </metadata>
  <g
     style="fill:#000000"
     transform="matrix(0.35277777,0,0,-0.35277777,48.888649,80.668634)"
     id="g26">
    <path
       id="path28"
       style="fill:#000000;fill-opacity:1;fill-rule:evenodd;stroke:none"
       d="m 0,0 h -117.831 c -11.46,0 -20.751,9.291 -20.751,20.751 v 187.164 c 0,11.461 9.291,20.752 20.751,20.752 H 0 c 11.461,0 20.751,-9.291 20.751,-20.752 V 20.751 C 20.751,9.291 11.461,0 0,0" />
  </g>
  <g
     transform="matrix(0.35277777,0,0,-0.35277777,35.843209,63.970494)"
     id="g30">
    <path
       id="path32"
       style="fill:#ffffff;fill-opacity:1;fill-rule:evenodd;stroke:none"
       d="m 0,0 h -43.206 c -11.265,0 -20.397,9.132 -20.397,20.397 v 93.206 c 0,11.265 9.132,20.397 20.397,20.397 H 0 c 11.265,0 20.397,-9.132 20.397,-20.397 V 20.397 C 20.397,9.132 11.265,0 0,0" />
  </g>
  <g
     style="fill:#000000"
     transform="matrix(0.35277777,0,0,-0.35277777,30.749309,55.268634)"
     id="g34">
    <path
       id="path36"
       style="fill:#000000;fill-opacity:1;fill-rule:evenodd;stroke:none"
       d="M 0,0 H -14.327 C -25.098,0 -33.83,8.732 -33.83,19.503 V 64.497 C -33.83,75.268 -25.098,84 -14.327,84 H 0 C 10.771,84 19.503,75.268 19.503,64.497 V 19.503 C 19.503,8.732 10.771,0 0,0" />
  </g>
</svg>
