<svg viewBox="0 0 250 250" xmlns="http://www.w3.org/2000/svg"><path d="m125 9c30.98 0 60.11 12.07 82.02 33.98s33.98 51.04 33.98 82.02-12.07 60.11-33.98 82.02-51.04 33.98-82.02 33.98-60.11-12.07-82.02-33.98-33.98-51.04-33.98-82.02 12.07-60.11 33.98-82.02 51.04-33.98 82.02-33.98m0-4c-66.27 0-120 53.73-120 120s53.73 120 120 120 120-53.73 120-120-53.73-120-120-120z" fill="#52c5d0"/><path d="m125 29c52.93 0 96 43.07 96 96s-43.07 96-96 96-96-43.07-96-96 43.07-96 96-96m0-4c-55.23 0-100 44.77-100 100s44.77 100 100 100 100-44.77 100-100-44.77-100-100-100z" fill="#52c5d0"/><path d="m125 207c-28.86 0-55.06-14.74-70.09-39.42l-1.06-1.75 70.66-40.79 71.4 41.22-1.08 1.75c-15.07 24.41-41.17 38.99-69.82 38.99z" fill="#fdb670"/><path d="m124.5 127.34 68.61 39.61c-14.09 22.82-39.32 38.04-68.11 38.04s-54.35-15.4-68.38-38.46zm0-4.62-2 1.15-67.88 39.19-3.55 2.05 2.13 3.5c7.36 12.1 17.74 22.22 30.02 29.27 12.66 7.27 27.11 11.11 41.78 11.11s28.95-3.8 41.55-10.99c12.21-6.97 22.57-16.98 29.96-28.95l2.16-3.51-3.57-2.06-68.61-39.61-2-1.15z" fill="#fff"/><path d="m35.54 174.04c-8.21-14.94-12.54-31.9-12.54-49.04 0-26.8 10.31-52.12 29.04-71.28 18.7-19.13 43.7-30.03 70.41-30.69l2.05-.05v102.05l-87.97 50.79-.98-1.79z" fill="#fe6b7d"/><path d="m122.5 25.03v98.85l-85.2 49.19c-7.84-14.27-12.3-30.65-12.3-48.07 0-54.39 43.43-98.64 97.5-99.97m4-4.1-4.1.1c-27.23.67-52.73 11.78-71.79 31.29-19.1 19.54-29.61 45.35-29.61 72.68 0 17.48 4.42 34.76 12.79 50l1.97 3.58 3.54-2.04 85.2-49.19 2-1.15z" fill="#fff"/><path d="m124.5 125.03v-122.04l2.02.02c32.27.4 62.54 13.26 85.24 36.22 22.72 22.98 35.23 53.44 35.23 85.76 0 20.83-5.35 41.4-15.47 59.49l-.99 1.77-106.04-61.22z" fill="#52c5d0"/><path d="m126.5 5.02c65.58.8 118.5 54.21 118.5 119.98 0 21.25-5.53 41.2-15.22 58.51l-103.28-59.63zm-4-4.05v125.22l2 1.15 103.28 59.63 3.51 2.03 1.98-3.54c10.29-18.38 15.73-39.29 15.73-60.46 0-32.85-12.72-63.81-35.81-87.17-23.08-23.33-53.84-36.41-86.64-36.81z" fill="#fff"/></svg>