<svg xmlns:xlink="http://www.w3.org/1999/xlink" xmlns="http://www.w3.org/2000/svg">
  <defs>
    <path id="check-square-a" d="M0 0h35v35H0z" />
    <path d="M23 24.831h1.48V3.308h-3.588v18.03h-8.087v3.588H23v-.095z" id="check-square-b" />
    <rect id="grid-multiple-a" width="10.398" height="10.356" rx="1" />
    <mask id="grid-multiple-j" x="0" y="0" width="10.398" height="10.356" fill="#fff">
      <use xlink:href="#grid-multiple-a" />
    </mask>
    <rect id="grid-multiple-b" x="11.883" width="10.398" height="10.356" rx="1" />
    <mask id="grid-multiple-k" x="0" y="0" width="10.398" height="10.356" fill="#fff">
      <use xlink:href="#grid-multiple-b" />
    </mask>
    <rect id="grid-multiple-c" x="23.766" width="10.398" height="10.356" rx="1" />
    <mask id="grid-multiple-l" x="0" y="0" width="10.398" height="10.356" fill="#fff">
      <use xlink:href="#grid-multiple-c" />
    </mask>
    <rect id="grid-multiple-d" y="11.836" width="10.398" height="10.356" rx="1" />
    <mask id="grid-multiple-m" x="0" y="0" width="10.398" height="10.356" fill="#fff">
      <use xlink:href="#grid-multiple-d" />
    </mask>
    <rect id="grid-multiple-e" x="11.883" y="11.836" width="10.398" height="10.356" rx="1" />
    <mask id="grid-multiple-n" x="0" y="0" width="10.398" height="10.356" fill="#fff">
      <use xlink:href="#grid-multiple-e" />
    </mask>
    <rect id="grid-multiple-f" x="23.766" y="11.836" width="10.398" height="10.356" rx="1" />
    <mask id="grid-multiple-o" x="0" y="0" width="10.398" height="10.356" fill="#fff">
      <use xlink:href="#grid-multiple-f" />
    </mask>
    <rect id="grid-multiple-g" y="23.671" width="10.398" height="10.356" rx="1" />
    <mask id="grid-multiple-p" x="0" y="0" width="10.398" height="10.356" fill="#fff">
      <use xlink:href="#grid-multiple-g" />
    </mask>
    <rect id="grid-multiple-h" x="11.883" y="23.671" width="10.398" height="10.356" rx="1" />
    <mask id="grid-multiple-q" x="0" y="0" width="10.398" height="10.356" fill="#fff">
      <use xlink:href="#grid-multiple-h" />
    </mask>
    <rect id="grid-multiple-i" x="23.766" y="23.671" width="10.398" height="10.356" rx="1" />
    <mask id="grid-multiple-r" x="0" y="0" width="10.398" height="10.356" fill="#fff">
      <use xlink:href="#grid-multiple-i" />
    </mask>
    <rect id="grid-a" width="10.695" height="10.695" rx="1" />
    <mask id="grid-j" x="0" y="0" width="10.695" height="10.695" fill="#fff">
      <use xlink:href="#grid-a" />
    </mask>
    <rect id="grid-b" x="12.222" width="10.695" height="10.695" rx="1" />
    <mask id="grid-k" x="0" y="0" width="10.695" height="10.695" fill="#fff">
      <use xlink:href="#grid-b" />
    </mask>
    <rect id="grid-c" x="24.445" width="10.695" height="10.695" rx="1" />
    <mask id="grid-l" x="0" y="0" width="10.695" height="10.695" fill="#fff">
      <use xlink:href="#grid-c" />
    </mask>
    <rect id="grid-d" y="12.222" width="10.695" height="10.695" rx="1" />
    <mask id="grid-m" x="0" y="0" width="10.695" height="10.695" fill="#fff">
      <use xlink:href="#grid-d" />
    </mask>
    <rect id="grid-e" x="12.222" y="12.222" width="10.695" height="10.695" rx="1" />
    <mask id="grid-n" x="0" y="0" width="10.695" height="10.695" fill="#fff">
      <use xlink:href="#grid-e" />
    </mask>
    <rect id="grid-f" x="24.445" y="12.222" width="10.695" height="10.695" rx="1" />
    <mask id="grid-o" x="0" y="0" width="10.695" height="10.695" fill="#fff">
      <use xlink:href="#grid-f" />
    </mask>
    <rect id="grid-g" y="24.445" width="10.695" height="10.695" rx="1" />
    <mask id="grid-p" x="0" y="0" width="10.695" height="10.695" fill="#fff">
      <use xlink:href="#grid-g" />
    </mask>
    <rect id="grid-h" x="12.222" y="24.445" width="10.695" height="10.695" rx="1" />
    <mask id="grid-q" x="0" y="0" width="10.695" height="10.695" fill="#fff">
      <use xlink:href="#grid-h" />
    </mask>
    <rect id="grid-i" x="24.445" y="24.445" width="10.695" height="10.695" rx="1" />
    <mask id="grid-r" x="0" y="0" width="10.695" height="10.695" fill="#fff">
      <use xlink:href="#grid-i" />
    </mask>
    <rect id="group-path-1" x="0" y="0" width="11.6923077" height="7.2" rx="1" />
    <mask id="group-mask-2" maskContentUnits="userSpaceOnUse" maskUnits="objectBoundingBox" x="0" y="0" width="11.6923077" height="7.2" fill="white">
      <use xlink:href="#group-path-1" /> </mask>
    <rect id="group-path-3" x="0" y="8.8" width="11.6923077" height="7.2" rx="1" />
    <mask id="group-mask-4" maskContentUnits="userSpaceOnUse" maskUnits="objectBoundingBox" x="0" y="0" width="11.6923077" height="7.2" fill="white">
      <use xlink:href="#group-path-3" /> </mask>
    <rect id="group-path-5" x="4.30769231" y="4" width="11.6923077" height="7.2" rx="1" />
    <mask id="group-mask-6" maskContentUnits="userSpaceOnUse" maskUnits="objectBoundingBox" x="0" y="0" width="11.6923077" height="7.2" fill="white">
      <use xlink:href="#group-path-5" /> </mask>
    <path id="help-a" d="M16.528 25.278h1.944v1.944h-1.944z" />
    <mask id="help-b" x="0" y="0" width="1.944" height="1.944" fill="#fff">
      <use xlink:href="#help-a" />
    </mask>
    <path id="hover-a" d="M163 273h35v35h-35z" />
    <mask id="hover-b" x="0" y="0" width="35" height="35" fill="#fff">
      <use xlink:href="#hover-a" />
    </mask>
    <mask id="hover-c" x="0" y="0" width="35" height="35" fill="#fff">
      <use xlink:href="#hover-a" />
    </mask>
    <rect id="layout-path-1" x="0" y="0" width="4.86956522" height="4.86956522" rx="1" />
    <mask id="layout-mask-2" maskContentUnits="userSpaceOnUse" maskUnits="objectBoundingBox" x="0" y="0" width="4.86956522" height="4.86956522" fill="white">
      <use xlink:href="#layout-path-1" /> </mask>
    <rect id="layout-path-3" x="5.56521739" y="0" width="4.86956522" height="4.86956522" rx="1" />
    <mask id="layout-mask-4" maskContentUnits="userSpaceOnUse" maskUnits="objectBoundingBox" x="0" y="0" width="4.86956522" height="4.86956522" fill="white">
      <use xlink:href="#layout-path-3" /> </mask>
    <rect id="layout-path-5" x="11.1304348" y="0" width="4.86956522" height="4.86956522" rx="1" />
    <mask id="layout-mask-6" maskContentUnits="userSpaceOnUse" maskUnits="objectBoundingBox" x="0" y="0" width="4.86956522" height="4.86956522" fill="white">
      <use xlink:href="#layout-path-5" /> </mask>
    <rect id="layout-path-7" x="0" y="5.56521739" width="4.86956522" height="4.86956522" rx="1" />
    <mask id="layout-mask-8" maskContentUnits="userSpaceOnUse" maskUnits="objectBoundingBox" x="0" y="0" width="4.86956522" height="4.86956522" fill="white">
      <use xlink:href="#layout-path-7" /> </mask>
    <rect id="layout-path-9" x="5.56521739" y="5.56521739" width="4.86956522" height="4.86956522" rx="1" />
    <mask id="layout-mask-10" maskContentUnits="userSpaceOnUse" maskUnits="objectBoundingBox" x="0" y="0" width="4.86956522" height="4.86956522" fill="white">
      <use xlink:href="#layout-path-9" /> </mask>
    <rect id="layout-path-11" x="11.1304348" y="5.56521739" width="4.86956522" height="4.86956522" rx="1" />
    <mask id="layout-mask-12" maskContentUnits="userSpaceOnUse" maskUnits="objectBoundingBox" x="0" y="0" width="4.86956522" height="4.86956522" fill="white">
      <use xlink:href="#layout-path-11" /> </mask>
    <rect id="layout-path-13" x="0" y="11.1304348" width="4.86956522" height="4.86956522" rx="1" />
    <mask id="layout-mask-14" maskContentUnits="userSpaceOnUse" maskUnits="objectBoundingBox" x="0" y="0" width="4.86956522" height="4.86956522" fill="white">
      <use xlink:href="#layout-path-13" /> </mask>
    <rect id="layout-path-15" x="5.56521739" y="11.1304348" width="4.86956522" height="4.86956522" rx="1" />
    <mask id="layout-mask-16" maskContentUnits="userSpaceOnUse" maskUnits="objectBoundingBox" x="0" y="0" width="4.86956522" height="4.86956522" fill="white">
      <use xlink:href="#layout-path-15" /> </mask>
    <rect id="layout-path-17" x="11.1304348" y="11.1304348" width="4.86956522" height="4.86956522" rx="1" />
    <mask id="layout-mask-18" maskContentUnits="userSpaceOnUse" maskUnits="objectBoundingBox" x="0" y="0" width="4.86956522" height="4.86956522" fill="white">
      <use xlink:href="#layout-path-17" /> </mask>
    <path d="M9.987 26.873l-5.58.129 8.015-12.457 3.8 6.175 6.204-9.283 9.055 15.303-1.901.01-17.452.098.016-.024z" id="photo-gallery-a" />
    <mask id="photo-gallery-b" x="0" y="0" width="27.143" height="15.565" fill="#fff">
      <use xlink:href="#photo-gallery-a" />
    </mask>
    <rect id="project-path-1" x="0" y="0" width="28" height="35" rx="3" />
    <mask id="project-mask-2" maskContentUnits="userSpaceOnUse" maskUnits="objectBoundingBox" x="0" y="0" width="28" height="35" fill="white">
      <use xlink:href="#project-path-1" /> </mask>
    <path d="M26 9.002V29.832C26 32.134 24.216 34 22.01 34H5.99C3.786 34 2 32.133 2 29.83V9" id="trash-a" />
    <mask id="trash-c" x="0" y="0" width="24" height="26.001" fill="#fff">
      <use xlink:href="#trash-a" /> </mask>
    <rect id="trash-b" y="3" width="28" height="7" rx="3" />
    <mask id="trash-d" x="0" y="0" width="28" height="7" fill="#fff">
      <use xlink:href="#trash-b" /> </mask>
    <path d="M5.75.5v15" id="trash-e" />
    <path d="M.75.5v15" id="trash-f" />
    <path d="M10.75.5v15" id="trash-g" /> </defs>
  <symbol viewBox="0 0 18 17" id="ki-attach">
    <title>Media File</title>
    <desc>Created with Sketch.</desc>
    <!-- Generator: Sketch 3.7.2 (28276) - http://www.bohemiancoding.com/sketch -->
    <g id="attach-Page-1" stroke-width="1" fill-rule="evenodd">
      <g id="attach-Media-File" transform="translate(1.000000, 1.000000)" stroke-width="1.5">
        <path d="M8.35355445,14.0232578 L14.7508808,7.25750102 C14.7508808,7.25750102 17.5982435,4.34987243 14.5031371,1.20937466 C14.3532733,1.05734017 14.3612931,1.05284387 14.0145098,0.815725414 C13.1758623,0.242322696 10.3791788,-0.955770289 8.13146432,1.41269669 L1.05984773,8.77117549 C1.05984773,8.77117549 -1.19665954,11.1187421 0.875440934,13.4141317 C1.0076708,13.5605828 1.16081975,13.6855407 1.32918697,13.7858923 C2.03647424,14.2076558 4.01972901,15.0795936 5.87017416,13.0181108 L12.9028513,5.784738 C13.2056707,5.47325754 13.4091125,5.07071451 13.4609029,4.63467151 C13.5277183,4.07223781 13.3735548,3.32590019 12.4895907,2.59003748 C12.4895907,2.59003748 10.9628841,1.35735752 9.69667559,2.8319487 C9.66701204,2.86643686 9.63691368,2.90072738 9.60536596,2.93338738 L2.99218167,9.78032475"
        id="attach-Page-1" /> </g>
    </g>
  </symbol>
  <symbol viewBox="0 0 35 35" id="ki-block">
    <title>Block icon</title>
    <g fill-rule="evenodd">
      <path d="M17.5 35C27.165 35 35 27.165 35 17.5S27.165 0 17.5 0 0 7.835 0 17.5 7.835 35 17.5 35z" />
      <text font-family="Roboto-Bold, Roboto" font-size="16" font-weight="bold">
        <tspan x="13" y="23">B</tspan>
      </text>
    </g>
  </symbol>
  <symbol viewBox="0 0 35 35" id="ki-check-round">
    <title>Active icon</title>
    <path d="M14 26.25L5.25 17.5l2.468-2.467L14 21.297 27.282 8.015 29.75 10.5 14 26.25zM0 17.5C0 27.16 7.84 35 17.5 35S35 27.16 35 17.5 27.16 0 17.5 0 0 7.84 0 17.5z" fill-rule="evenodd" />
  </symbol>
  <symbol viewBox="0 0 35 35" id="ki-check-square">
    <title>Check</title>
    <g fill-rule="evenodd">
      <use xlink:href="#check-square-a" />
      <use transform="rotate(45 18.642 14.117)" xlink:href="#check-square-b" />
    </g>
  </symbol>
  <symbol viewBox="0 0 39 29" id="ki-check">
    <title>Check</title>
    <path d="M11.78 27.313l1.693 1.693 24.64-24.641L34.008.258 13.365 20.9l-9.258-9.258L0 15.749 11.672 27.42l.108-.108z" fill-rule="evenodd" />
  </symbol>
  <symbol viewBox="0 0 39 32" id="ki-download">
    <title>folder share</title>
    <desc>Created with Sketch.</desc>
    <!-- Generator: Sketch 3.7.2 (28276) - http://www.bohemiancoding.com/sketch -->
    <g id="download-Page-1" stroke-width="1" fill-rule="evenodd">
      <g id="download-folder-share" transform="translate(1.000000, 1.000000)">
        <g id="download-Folder-share">
          <polygon id="download-Shape" stroke-width="1.5" points="18.974359 12.3333333 18.974359 8.53846154 26.5641026 16.1282051 18.974359 23.7179487 18.974359 19.9230769 11.3846154 19.9230769 11.3846154 12.3333333" />
          <path d="M14.7051282,0 L3.67628205,0 C1.65432692,0 0.0183814103,1.65432692 0.0183814103,3.67628205 L0,25.7339744 C0,27.7559295 1.65432692,29.4102564 3.67628205,29.4102564 L33.0865385,29.4102564 C35.1084936,29.4102564 36.7628205,27.7559295 36.7628205,25.7339744 L36.7628205,7.3525641 C36.7628205,5.33060897 35.1084936,3.67628205 33.0865385,3.67628205 L18.3814103,3.67628205 L14.7051282,0 L14.7051282,0 Z"
          id="download-Shape" stroke-width="2" /> </g>
      </g>
    </g>
  </symbol>
  <symbol viewBox="0 0 20 17" id="ki-download2">
    <title>Download</title>
    <desc>Created with Sketch.</desc>
    <!-- Generator: Sketch 3.7.2 (28276) - http://www.bohemiancoding.com/sketch -->
    <g id="download2-Page-1" stroke-width="1" fill-rule="evenodd">
      <g id="download2-Download" transform="translate(1.000000, 1.000000)" stroke-width="1.2">
        <polygon id="download2-Shape" points="11.9010989 6.05802663 15.1538462 6.05802663 8.64835165 12.1160533 2.14285714 6.05802663 5.3956044 6.05802663 5.3956044 0 11.9010989 1.11284144e-15" />
        <path d="M0.428571429,15.3650794 L17.5928437,15.3650794" id="download2-Line" stroke-linecap="square" /> </g>
    </g>
  </symbol>
  <symbol viewBox="0 0 37 35" id="ki-drafts">
    <title>Drafts Icon</title>
    <path d="M18.421 22.105L3.205 12.6l15.216-8.916L33.637 12.6 18.42 22.105zm18.403-9.21a3.651 3.651 0 0 0-1.732-3.132L18.422 0 1.75 9.763A3.668 3.668 0 0 0 0 12.895v18.42A3.695 3.695 0 0 0 3.684 35h29.474a3.695 3.695 0 0 0 3.684-3.684l-.018-18.421z"
    fill-rule="evenodd" />
  </symbol>
  <symbol viewBox="0 0 25 28" id="ki-edit">
    <title>edit</title>
    <desc>Created with Sketch.</desc>
    <!-- Generator: Sketch 3.7.2 (28276) - http://www.bohemiancoding.com/sketch -->
    <g id="edit-Page-1" stroke-width="1" fill-rule="evenodd">
      <path d="M14.1062267,6.47377829 L8.10622669,6.47377829 L8.10622669,2.47377829 C8.07522669,1.48577829 8.12722669,1.44177829 9.10622669,1.47377829 L13.1062267,1.47377829 C14.0862267,1.48077829 14.1102267,1.44077829 14.1062267,2.47377829 L14.1062267,6.47377829 L14.1062267,6.47377829 Z M14.1062267,21.4737783 C12.0522267,21.4727783 8.68822669,21.4737783 8.10622669,21.4737783 L8.10622669,8.47377829 L14.1062267,8.47377829 L14.1062267,21.4737783 L14.1062267,21.4737783 Z M11.1062267,28.7307783 L8.10622669,23.4737783 L14.1062267,23.4737783 L11.1062267,28.7307783 L11.1062267,28.7307783 Z M14.1062267,-0.526221706 L8.10622669,-0.526221706 C6.89622669,-0.526221706 6.10622669,0.252778294 6.10622669,1.47377829 L6.10622669,23.6867783 L10.1062267,30.7487783 C10.7102267,31.6797783 11.5022267,31.6797783 12.1062267,30.7487783 L16.1062267,23.6867783 L16.1062267,1.47377829 C16.1062267,0.252778294 15.3162267,-0.525221706 14.1062267,-0.526221706 L14.1062267,-0.526221706 Z"
      id="edit-edit" transform="translate(11.106227, 15.460403) rotate(40.000000) translate(-11.106227, -15.460403) " /> </g>
  </symbol>
  <symbol viewBox="0 0 38 37" id="ki-expand">
    <title>Expand icon</title>
    <g stroke-width="1.5" fill-rule="evenodd" stroke-linecap="square">
      <path d="M1 15.693V1h15.324M21.484 15.693V1h15.324M1 35.804V21.112h15.324M21.484 35.804V21.112h15.324" />
    </g>
  </symbol>
  <symbol viewBox="0 0 45 37" id="ki-folder-share">
    <title>folder share</title>
    <g fill-rule="evenodd">
      <path stroke-width="1.5" d="M23.137 15.389v-4.427l8.854 8.854-8.854 8.855v-4.427h-8.855v-8.855z" />
      <path d="M18.156 1H5.289C2.93 1 1.021 2.93 1.021 5.289L1 31.023a4.302 4.302 0 0 0 4.289 4.289h34.312a4.302 4.302 0 0 0 4.289-4.289V9.578a4.302 4.302 0 0 0-4.289-4.289H22.445L18.156 1z" stroke-width="2" />
    </g>
  </symbol>
  <symbol viewBox="0 0 44 35" id="ki-folder">
    <title>folder</title>
    <path d="M4.375 0C1.969 0 .022 1.969.022 4.375L0 30.625A4.388 4.388 0 0 0 4.375 35h35a4.388 4.388 0 0 0 4.375-4.375V8.75a4.388 4.388 0 0 0-4.375-4.375h-17.5L17.5 0H4.375z" fill-rule="evenodd" />
  </symbol>
  <symbol viewBox="0 0 36 35" id="ki-github">
    <title>Github</title>
    <path d="M17.998 0C8.058 0 0 8.033 0 17.943c0 7.928 5.157 14.653 12.31 17.026.9.164 1.229-.39 1.229-.865 0-.426-.016-1.555-.025-3.052-5.007 1.084-6.063-2.405-6.063-2.405-.819-2.072-1.999-2.625-1.999-2.625-1.634-1.113.124-1.09.124-1.09 1.807.126 2.757 1.849 2.757 1.849 1.605 2.741 4.213 1.95 5.239 1.491.163-1.16.627-1.95 1.142-2.399-3.997-.453-8.199-1.992-8.199-8.868 0-1.959.702-3.56 1.853-4.815-.185-.454-.803-2.278.176-4.748 0 0 1.512-.483 4.95 1.84a17.245 17.245 0 0 1 4.507-.604 17.27 17.27 0 0 1 4.506.603c3.436-2.322 4.945-1.84 4.945-1.84.982 2.471.364 4.295.179 4.75 1.153 1.254 1.85 2.855 1.85 4.814 0 6.893-4.208 8.41-8.218 8.854.646.554 1.222 1.649 1.222 3.323 0 2.398-.022 4.333-.022 4.922 0 .48.323 1.038 1.237.863C30.847 32.59 36 25.87 36 17.943 36 8.033 27.94 0 17.998 0"
    fill-rule="evenodd" />
  </symbol>
  <symbol viewBox="0 0 37 37" id="ki-globe">
    <title>Globe icon</title>
    <g transform="translate(1 1)" stroke-width="1.5" fill-rule="evenodd">
      <circle cx="17.5" cy="17.5" r="17.5" />
      <path d="M1.5 11.75h32.062M1.5 21.75h32.062" stroke-linecap="square" />
      <path d="M17 0S4 17 17 35M18.222 0s13 17 0 35" />
    </g>
  </symbol>
  <symbol viewBox="0 0 78 36" id="ki-grid-multiple">
    <title>Grid + Multiple pages</title>
    <g fill-rule="evenodd">
      <g transform="translate(0 1.972)" stroke-width="2.4">
        <use mask="url(#grid-multiple-j)" xlink:href="#grid-multiple-a" />
        <use mask="url(#grid-multiple-k)" xlink:href="#grid-multiple-b" />
        <use mask="url(#grid-multiple-l)" xlink:href="#grid-multiple-c" />
        <use mask="url(#grid-multiple-m)" xlink:href="#grid-multiple-d" />
        <use mask="url(#grid-multiple-n)" xlink:href="#grid-multiple-e" />
        <use mask="url(#grid-multiple-o)" xlink:href="#grid-multiple-f" />
        <use mask="url(#grid-multiple-p)" xlink:href="#grid-multiple-g" />
        <use mask="url(#grid-multiple-q)" xlink:href="#grid-multiple-h" />
        <use mask="url(#grid-multiple-r)" xlink:href="#grid-multiple-i" />
      </g>
      <g stroke-width="1.5">
        <path d="M77.115 8.934l-.172 19.044c0 2.131-1.838 3.859-4.12 3.859H54.316c-2.275 0-4.12-1.724-4.12-3.859V4.858c0-2.13 1.838-3.858 4.12-3.858h14.392l8.407 7.934z" />
        <path d="M72.823 34.86H51.76c-2.276 0-4.121-1.724-4.121-3.858V5.463" stroke-linecap="round" />
        <path d="M68.701 1.14v5.744c0 1.1.906 1.993 2.001 1.993h3.02c1.052 0 2.803.007 3.14.01" />
      </g>
      <text font-family="Roboto-Regular, Roboto" font-size="10.4" transform="translate(0 1)">
        <tspan x="38" y="21">+</tspan>
      </text>
    </g>
  </symbol>
  <symbol viewBox="0 0 36 36" id="ki-grid">
    <title>Grid theme</title>
    <g stroke-width="2.4" fill-rule="evenodd">
      <use mask="url(#grid-j)" xlink:href="#grid-a" />
      <use mask="url(#grid-k)" xlink:href="#grid-b" />
      <use mask="url(#grid-l)" xlink:href="#grid-c" />
      <use mask="url(#grid-m)" xlink:href="#grid-d" />
      <use mask="url(#grid-n)" xlink:href="#grid-e" />
      <use mask="url(#grid-o)" xlink:href="#grid-f" />
      <use mask="url(#grid-p)" xlink:href="#grid-g" />
      <use mask="url(#grid-q)" xlink:href="#grid-h" />
      <use mask="url(#grid-r)" xlink:href="#grid-i" />
    </g>
  </symbol>
  <symbol viewBox="0 0 16 16" id="ki-group">
    <title>Group</title>
    <desc>Created with Sketch.</desc>
    <!-- Generator: Sketch 3.7.2 (28276) - http://www.bohemiancoding.com/sketch -->
    <g id="group-Page-1" stroke-width="1" fill-rule="evenodd">
      <g id="group-Group" stroke-width="2.4">
        <use id="group-Rectangle-124" mask="url(#group-mask-2)" xlink:href="#group-path-1" />
        <use id="group-Rectangle-124-Copy-2" mask="url(#group-mask-4)" xlink:href="#group-path-3" />
        <use id="group-Rectangle-124-Copy" mask="url(#group-mask-6)" xlink:href="#group-path-5" /> </g>
    </g>
  </symbol>
  <symbol viewBox="0 0 37 37" id="ki-help">
    <title>Help icon</title>
    <g transform="translate(1 1)" stroke-width="2" fill-rule="evenodd">
      <ellipse cx="17.5" cy="17.5" rx="17.5" ry="17.5" />
      <path d="M12.64 12.083s-.14-4.305 5.03-4.305c5.169 0 4.515 4.835 4.515 4.835s.031 1.852-4.224 6.465c-.01.033-.5.409-.48 2.718" stroke-linecap="square" />
      <use mask="url(#help-b)" xlink:href="#help-a" />
    </g>
  </symbol>
  <symbol viewBox="0 0 35 35" id="ki-hover">
    <title>Hover square</title>
    <use mask="url(#hover-c)" xlink:href="#hover-a" stroke-width="3" transform="translate(-163 -273)" fill-rule="evenodd" />
  </symbol>
  <symbol viewBox="-1 0 37 35" id="ki-inactive">
    <title>inactive</title>
    <desc>Created with Sketch.</desc>
    <!-- Generator: Sketch 3.7.2 (28276) - http://www.bohemiancoding.com/sketch -->
    <g id="inactive-inactive" stroke-width="1" fill-rule="evenodd">
      <g id="inactive-Group" transform="translate(0.842000, 0.000000)">
        <path d="M17.5,35 C27.1649831,35 35,27.1649831 35,17.5 C35,7.83501688 27.1649831,0 17.5,0 C7.83501688,0 -2.44249065e-15,7.83501688 -2.44249065e-15,17.5 C-2.44249065e-15,27.1649831 7.83501688,35 17.5,35 Z M6.447,15.658 L28.552,15.658 L28.552,21.184 L6.447,21.184 L6.447,15.658 Z"
        id="inactive-Combined-Shape" /> </g>
    </g>
  </symbol>
  <symbol viewBox="0 0 16 16" id="ki-layout">
    <title>Style</title>
    <desc>Created with Sketch.</desc>
    <!-- Generator: Sketch 3.7.2 (28276) - http://www.bohemiancoding.com/sketch -->
    <g id="layout-Page-1" stroke-width="1" fill-rule="evenodd">
      <g id="layout-Style" stroke-width="2.4">
        <g>
          <use id="layout-Rectangle-118" mask="url(#layout-mask-2)" xlink:href="#layout-path-1" />
          <use id="layout-Rectangle-118-Copy" mask="url(#layout-mask-4)" xlink:href="#layout-path-3" />
          <use id="layout-Rectangle-118-Copy-2" mask="url(#layout-mask-6)" xlink:href="#layout-path-5" />
          <use id="layout-Rectangle-118-Copy-5" mask="url(#layout-mask-8)" xlink:href="#layout-path-7" />
          <use id="layout-Rectangle-118-Copy-4" mask="url(#layout-mask-10)" xlink:href="#layout-path-9" />
          <use id="layout-Rectangle-118-Copy-3" mask="url(#layout-mask-12)" xlink:href="#layout-path-11" />
          <use id="layout-Rectangle-118-Copy-8" mask="url(#layout-mask-14)" xlink:href="#layout-path-13" />
          <use id="layout-Rectangle-118-Copy-7" mask="url(#layout-mask-16)" xlink:href="#layout-path-15" />
          <use id="layout-Rectangle-118-Copy-6" mask="url(#layout-mask-18)" xlink:href="#layout-path-17" /> </g>
      </g>
    </g>
  </symbol>
  <symbol viewBox="0 0 30 37" id="ki-library">
    <title>Library Icon</title>
    <g stroke-width="1.5" fill-rule="evenodd">
      <path d="M1.264 32.163V4.097c0-1.555 1.249-2.828 2.774-2.828h21.924c1.525 0 2.774 1.273 2.774 2.828v28.807c0 1.554-1.249 2.827-2.774 2.827H4.236" />
      <path d="M23.371 1.098v14.135l-2.889-1.663L18 15.233V1M28.67 28.596H4.764c-1.925 0-3.5 1.605-3.5 3.567 0 1.963 1.575 3.568 3.5 3.568h21.198M5 28.73V1.27" />
    </g>
  </symbol>
  <symbol viewBox="0 0 37 37" id="ki-logout">
    <title>Logout Icon</title>
    <g stroke-width="2" fill-rule="evenodd">
      <path d="M6.804 5.108A17.456 17.456 0 0 0 1 18.126c0 9.665 7.835 17.5 17.5 17.5S36 27.79 36 18.126c0-5.227-2.292-9.92-5.925-13.126" />
      <path d="M19 1.5v18.248" stroke-linecap="square" />
    </g>
  </symbol>
  <symbol viewBox="0 0 30 37" id="ki-map-view">
    <title>Map view icon</title>
    <g stroke-width="1.5" fill-rule="evenodd">
      <path d="M1 13.593c0 9.445 13.716 21.59 13.716 21.59s13.716-12.145 13.716-21.59C28.432 6.631 22.3 1 14.716 1 7.133 1 1 6.631 1 13.593z" />
      <path d="M14.486 20.452c-2.988 0-5.414-2.443-5.414-5.453 0-3.01 2.426-5.453 5.414-5.453 2.99 0 5.415 2.443 5.415 5.453 0 3.01-2.426 5.453-5.415 5.453z" />
    </g>
  </symbol>
  <symbol viewBox="0 0 33 37" id="ki-multiple-pages">
    <title>Multiple pages</title>
    <g stroke-width="1.5" fill-rule="evenodd">
      <path d="M31.318 9.16l-.176 19.59c0 2.191-1.891 3.968-4.239 3.968H7.868c-2.34 0-4.238-1.773-4.238-3.969V4.97C3.63 2.777 5.52 1 7.868 1h14.803l8.647 8.16z" />
      <path d="M26.903 35.828H5.238c-2.34 0-4.238-1.774-4.238-3.97V5.592" stroke-linecap="round" />
      <path d="M22.664 1.143V7.094a2 2 0 0 0 2.005 2.008h3.158c1.083 0 2.857.007 3.231.01" />
    </g>
  </symbol>
  <symbol viewBox="0 0 41 36" id="ki-notifications">
    <title>notifications copy</title>
    <g transform="translate(0 1)" fill-rule="evenodd">
      <path d="M10.997 34.323a2.595 2.595 0 0 0 2.587-2.587H8.41a2.595 2.595 0 0 0 2.588 2.587zm8.41-7.762v-7.116c0-4.01-2.717-7.245-6.47-8.15v-.906c0-1.035-.905-1.94-1.94-1.94s-1.94.905-1.94 1.94v.906c-3.753.905-6.47 4.14-6.47 8.15v7.116L0 29.148v1.294h21.994v-1.294l-2.588-2.587z"
      />
      <ellipse cx="27.639" cy="12.153" rx="12.069" ry="12.069" />
    </g>
  </symbol>
  <symbol viewBox="0 0 37 37" id="ki-photo-gallery">
    <title>Photo Gallery Icon</title>
    <g transform="translate(1 1)" fill-rule="evenodd">
      <path d="M3.889.25C1.75.25 0 1.958 0 4.044v26.544c0 2.085 1.75 3.792 3.889 3.792H31.11c2.139 0 3.889-1.707 3.889-3.792V4.043C35 1.957 33.25.25 31.111.25H3.89z" stroke-width="1.5" />
      <use mask="url(#photo-gallery-b)" stroke-width="3" xlink:href="#photo-gallery-a" />
    </g>
  </symbol>
  <symbol viewBox="0 0 28 35" id="ki-project">
    <title>project</title>
    <desc>Created with Sketch.</desc>
    <!-- Generator: Sketch 3.7.2 (28276) - http://www.bohemiancoding.com/sketch -->
    <g id="project-Page-1" stroke-width="1" fill-rule="evenodd">
      <g id="project-project">
        <path d="M14,31.824 C14.5522847,31.824 15,31.3762847 15,30.824 C15,30.2717153 14.5522847,29.824 14,29.824 C13.4477153,29.824 13,30.2717153 13,30.824 C13,31.3762847 13.4477153,31.824 14,31.824 L14,31.824 Z" id="project-Shape" />
        <path d="M7,21.46 L9,21.46 L9,23.46 L7,23.46 L7,21.46 Z M7,16.442 L9,16.442 L9,18.442 L7,18.442 L7,16.442 Z M7,6.407 L9,6.407 L9,8.407 L7,8.407 L7,6.407 Z M7,11.425 L9,11.425 L9,13.425 L7,13.425 L7,11.425 Z" id="project-Shape" />
        <path d="M11.5,7.5 L20.5,7.5 M11.5,12.5 L20.5,12.5 M11.5,17.5 L20.5,17.5 M11.5,22.5 L20.5,22.5" id="project-Shape" />
        <use id="project-Rectangle-3" mask="url(#project-mask-2)" stroke-width="2" xlink:href="#project-path-1" />
        <rect id="project-Rectangle-2" x="4" y="4" width="20" height="24" /> </g>
    </g>
  </symbol>
  <symbol viewBox="0 0 37 37" id="ki-question">
    <title>Question icon</title>
    <g transform="translate(1 1)" fill-rule="evenodd">
      <circle stroke-width="2" cx="17.5" cy="17.5" r="17.5" />
      <text font-family="Roboto-Bold, Roboto" font-size="16" font-weight="bold">
        <tspan x="12" y="23">Q</tspan>
      </text>
    </g>
  </symbol>
  <symbol viewBox="0 0 36 36" id="ki-results">
    <title>Results</title>
    <g fill-rule="evenodd">
      <path d="M4.79 1.25C2.705 1.25 1 2.95 1 5.028v26.444c0 2.078 1.705 3.778 3.79 3.778h26.528c2.084 0 3.79-1.7 3.79-3.778V5.028c0-2.078-1.706-3.778-3.79-3.778H4.79z" stroke-width="1.5" />
      <path d="M10.45 1.836v32.381" stroke-width="1.5" stroke-linecap="square" />
      <path d="M1.61 9.125H34.7M1.61 17.875H34.7M1.61 27.875H34.7" stroke-linecap="square" />
    </g>
  </symbol>
  <symbol viewBox="0 0 38 37" id="ki-settings">
    <title>Settings Icon</title>
    <g stroke-width="1.5" fill-rule="evenodd">
      <path d="M32.163 20.215c.073-.56.127-1.12.127-1.715s-.054-1.155-.127-1.715l3.825-2.887a.862.862 0 0 0 .217-1.12L32.58 6.721c-.217-.385-.707-.525-1.106-.385l-4.513 1.75a13.364 13.364 0 0 0-3.063-1.715l-.689-4.637c-.054-.42-.435-.735-.888-.735h-7.25c-.454 0-.834.315-.889.735l-.688 4.637c-1.106.438-2.121 1.033-3.064 1.715l-4.513-1.75a.899.899 0 0 0-1.106.385l-3.625 6.055a.843.843 0 0 0 .218 1.12l3.824 2.888c-.072.56-.127 1.137-.127 1.715 0 .577.055 1.155.127 1.715l-3.824 2.887a.862.862 0 0 0-.218 1.12l3.625 6.055c.218.385.707.525 1.106.385l4.513-1.75c.943.7 1.958 1.278 3.064 1.715l.688 4.638c.055.42.435.735.889.735h7.25c.453 0 .834-.315.888-.735l.689-4.637c1.105-.438 2.12-1.033 3.063-1.715l4.513 1.75c.417.157.889 0 1.106-.386l3.625-6.055a.862.862 0 0 0-.217-1.12l-3.825-2.887z"
      />
      <path d="M18.835 24.375c-3.472 0-6.297-2.804-6.297-6.25s2.825-6.25 6.297-6.25c3.472 0 6.297 2.804 6.297 6.25s-2.825 6.25-6.297 6.25z" />
    </g>
  </symbol>
  <symbol viewBox="0 0 37 36" id="ki-share">
    <title>share</title>
    <g fill-rule="evenodd">
      <path d="M33.963 19.057l-.084 10.47A5.472 5.472 0 0 1 28.394 35H6.484A5.472 5.472 0 0 1 1 29.526V7.661a5.472 5.472 0 0 1 5.485-5.473l14.157.085" stroke-width="2" />
      <path d="M25.133 22.315v-5.873s-2.592-.022-3.31-.022c-4.57 0-10.784 3.555-13.15 6.584.036-4.112 5.41-12.906 13.15-13.147.571-.021 3.31.011 3.31.011V3.951l8.392 9.188-8.392 9.176zm10.625-10.008L24.811.32a1.125 1.125 0 0 0-1.572 0c-.25.251-.338.58-.301.908V7.68c-9.089 0-16.458 7.35-16.458 16.417 0 2.33.49 4.54 1.365 6.552 1.3-6.847 7.84-12.043 15.074-12.043 0 .372.019 6.443.019 6.443-.037.317.051.656.301.896.002.011.007.011.009.011a1.064 1.064 0 0 0 1.623-.077l10.887-11.91c.232-.23.33-.536.315-.831a1.07 1.07 0 0 0-.315-.832z"
      />
    </g>
  </symbol>
  <symbol viewBox="0 0 44 35" id="ki-shared-folder">
    <title>Shared Folder</title>
    <path d="M39.375 4.375h-17.5L17.5 0H4.375C1.969 0 .022 1.969.022 4.375L0 30.625A4.388 4.388 0 0 0 4.375 35h35a4.388 4.388 0 0 0 4.375-4.375V8.75a4.388 4.388 0 0 0-4.375-4.375zm-10.938 6.563a4.388 4.388 0 0 1 4.375 4.374 4.388 4.388 0 0 1-4.374 4.376 4.388 4.388 0 0 1-4.375-4.375 4.388 4.388 0 0 1 4.375-4.376zm8.75 17.5h-17.5V26.25c0-2.91 5.841-4.375 8.75-4.375 2.91 0 8.75 1.466 8.75 4.375v2.188z"
    fill-rule="evenodd" />
  </symbol>
  <symbol viewBox="0 0 32 36" id="ki-single-page">
    <title>Single Page</title>
    <g stroke-width="1.5" fill-rule="evenodd">
      <path d="M30.4 9.79l-.188 21.098c0 2.361-2.008 4.275-4.5 4.275H5.5c-2.485 0-4.5-1.91-4.5-4.275V5.275C1 2.914 3.008 1 5.5 1h15.718l9.181 8.79z" />
      <path d="M21.21 1.154v6.563c0 1.11.9 2.01 2.003 2.01h3.56c1.106 0 2.894.007 3.35.01" />
    </g>
  </symbol>
  <symbol viewBox="0 0 28 35" id="ki-trash">
    <title>Trash icon</title>
    <g transform="translate(0 1)" fill-rule="evenodd">
      <use mask="url(#trash-c)" stroke-width="3" xlink:href="#trash-a" />
      <use mask="url(#trash-d)" stroke-width="3" xlink:href="#trash-b" />
      <path d="M9 4.002V1.998C9 .894 9.887 0 11 0h6c1.105 0 2 .898 2 1.998v2.004" stroke-width="1.5" />
      <g stroke-linecap="round">
        <g transform="translate(8 14)">
          <use stroke-width="1.5" xlink:href="#trash-e" />
          <use xlink:href="#trash-e" /> </g>
        <g transform="translate(8 14)">
          <use stroke-width="1.5" xlink:href="#trash-f" />
          <use xlink:href="#trash-f" /> </g>
        <g transform="translate(8 14)">
          <use stroke-width="1.5" xlink:href="#trash-g" />
          <use xlink:href="#trash-g" /> </g>
      </g>
    </g>
  </symbol>
  <symbol viewBox="0 0 38 22" id="ki-view">
    <title>eye copy</title>
    <desc>Created with Sketch.</desc>
    <!-- Generator: Sketch 3.7.2 (28276) - http://www.bohemiancoding.com/sketch -->
    <g id="view-Page-1" stroke-width="1" fill-rule="evenodd">
      <g id="view-eye-copy">
        <path d="M18.9393079,15.053225 C16.512705,15.053225 14.5380246,13.0824318 14.5380246,10.6606056 C14.5380246,8.23883548 16.5122566,6.26804224 18.9393079,6.26804224 C21.3663592,6.26804224 23.3405912,8.23838791 23.3405912,10.6606056 C23.3405912,13.0828793 21.3659108,15.053225 18.9393079,15.053225 M18.9393079,4.27442322 C15.4108146,4.27442322 12.5405295,7.13905822 12.5405295,10.6606056 C12.5405295,14.182209 15.4108146,17.046844 18.9393079,17.046844 C22.4678012,17.046844 25.3380863,14.182209 25.3380863,10.6606056 C25.3380863,7.13905822 22.4673527,4.27442322 18.9393079,4.27442322"
        id="view-Fill-1" />
        <path d="M35.6336171,11.2454267 C33.1489404,13.6736306 26.5484168,19.3216676 18.9392799,19.3216676 C11.3293021,19.3216676 4.72967544,13.6736306 2.24544711,11.2454267 C2.08535152,11.0892827 1.99751196,10.8815569 1.99751196,10.660628 C1.99751196,10.4396991 2.08535152,10.2324209 2.24499866,10.0762769 C4.72967544,7.64762548 11.3297505,1.99964435 18.9392799,1.99964435 C26.5479684,1.99964435 33.1489404,7.64762548 35.6336171,10.0762769 C35.7932643,10.2324209 35.8811038,10.4396991 35.8811038,10.660628 C35.8815523,10.8816129 35.7932643,11.0892827 35.6336171,11.2454267 M37.0310341,8.65151209 C34.3711267,6.05211486 27.283926,0.00602533374 18.9392799,0.00602533374 C10.5941853,0.00602533374 3.50698464,6.05256243 0.847581687,8.65195966 C0.300980824,9.18607165 1.68167636e-05,9.89915339 1.68167636e-05,10.660628 C-0.000431630258,11.4221026 0.300532377,12.135632 0.847581687,12.6701915 C3.50698464,15.2695887 10.5937369,21.3152307 18.9392799,21.3152307 C27.2844305,21.3152307 34.3716312,15.2691412 37.0314826,12.6697439 C37.5780834,12.1351844 37.8790474,11.4216551 37.878599,10.6601805 C37.878599,9.89915339 37.577635,9.18562408 37.0310341,8.65151209"
        id="view-Fill-3" /> </g>
    </g>
  </symbol>
  <symbol viewBox="0 0 21 14" id="ki-view2">
    <title>PREVIEW</title>
    <desc>Created with Sketch.</desc>
    <!-- Generator: Sketch 3.7.2 (28276) - http://www.bohemiancoding.com/sketch -->
    <g id="view2-Page-1" stroke-width="1" fill-rule="evenodd">
      <g id="view2-PREVIEW" transform="translate(1.000000, 1.000000)" stroke-width="1.2">
        <path d="M18.9689976,5.99068571 C8.26476829,19.4044952 0.0547292683,5.99068571 0.0547292683,5.99068571 C0.0547292683,5.99068571 8.26476829,-7.42312381 18.9689976,5.99068571 L18.9689976,5.99068571 Z" id="view2-Stroke-1" />
        <path d="M12.632201,5.99068571 C12.632201,7.76154286 11.2351912,9.19706667 9.51184488,9.19706667 C7.78859122,9.19706667 6.39158146,7.76154286 6.39158146,5.99068571 C6.39158146,4.21982857 7.78859122,2.78430476 9.51184488,2.78430476 C11.2351912,2.78430476 12.632201,4.21982857 12.632201,5.99068571 L12.632201,5.99068571 Z"
        id="view2-Stroke-3" /> </g>
    </g>
  </symbol>
</svg>