<svg id="Layer_1" data-name="Layer 1" xmlns="http://www.w3.org/2000/svg" viewBox="0 0 698.49 304.4"><defs><style>.cls-1{fill:#f6f6f6;}</style></defs><path class="cls-1" d="M118.62,127.52a4.57,4.57,0,1,0,4.56,4.57A4.58,4.58,0,0,0,118.62,127.52Zm36.48,33.62a8,8,0,1,0-8-8A8,8,0,0,0,155.1,161.14Zm-18.23-8a6.09,6.09,0,1,0-6.09,6.09A6.09,6.09,0,0,0,136.87,153.15Zm42.56-8a8,8,0,1,0,8,8A8,8,0,0,0,179.43,145.16Zm0-28a6.09,6.09,0,1,0-6.09-6.09A6.09,6.09,0,0,0,179.43,117.11Zm-36.49,21.06a6.09,6.09,0,1,0-6.09-6.08A6.09,6.09,0,0,0,142.94,138.17Zm-12.16-23.72a3.43,3.43,0,1,0-3.42-3.43A3.43,3.43,0,0,0,130.78,114.45Zm-24.32-6.85a3.43,3.43,0,1,0,3.42,3.42A3.43,3.43,0,0,0,106.46,107.6ZM203.75,103a8,8,0,1,0,8,8A8,8,0,0,0,203.75,103Zm-12.16,21a8,8,0,1,0,8,8A8,8,0,0,0,191.59,124ZM167.27,138.1a6.09,6.09,0,1,0-6.09-6.09A6.09,6.09,0,0,0,167.27,138.1Zm-24.33,28.13a8,8,0,1,0,8,8A8,8,0,0,0,142.94,166.23Zm24.33,1.9a6.09,6.09,0,1,0,6.08,6.09A6.09,6.09,0,0,0,167.27,168.13ZM155.1,189.2a6.09,6.09,0,1,0,6.09,6.08A6.08,6.08,0,0,0,155.1,189.2Z"/><path class="cls-1" d="M333.1,134.05c-15.55,0-25.6,10.26-25.6,27.46s9.82,26.59,25.82,26.59c13.09,0,19.71-5.94,22.35-15.43a.59.59,0,0,0-.4-.72l-7.29-2a.57.57,0,0,0-.7.39c-1.7,5.48-5,9.83-14,9.83-9.93,0-15.44-5.74-16.22-16.22h38.31a.57.57,0,0,0,.57-.52c.19-2.14.29-4.23.29-5.65C356.27,143.53,348.54,134.05,333.1,134.05ZM317.22,157c1.1-10.26,6.62-15.33,15.66-15.33,9.49,0,14,5.51,14.45,15.33Zm93.42-21.62H402.2a.58.58,0,0,0-.58.58v50.36a.58.58,0,0,0,.58.58h8.44a.58.58,0,0,0,.58-.58V136A.58.58,0,0,0,410.64,135.37Zm-17.55-.55H391.9c-7.94,0-13.24,4-15.88,15.22l-.78-.11V136a.58.58,0,0,0-.58-.58h-8.11a.58.58,0,0,0-.58.58v50.36a.58.58,0,0,0,.58.58H375a.57.57,0,0,0,.57-.58v-24.9c0-11.59,4.53-16,15.67-16h1.85a.8.8,0,0,0,.8-.8v-9A.8.8,0,0,0,393.09,134.82Zm179.2-.77c-15.56,0-25.59,10.26-25.59,27.46s9.82,26.59,25.81,26.59c13.09,0,19.71-5.94,22.36-15.43a.6.6,0,0,0-.41-.72l-7.29-2a.57.57,0,0,0-.7.39c-1.7,5.48-5,9.83-14,9.83-9.93,0-15.45-5.74-16.22-16.22H594.6a.57.57,0,0,0,.57-.52c.19-2.14.28-4.23.28-5.65C595.45,143.53,587.73,134.05,572.29,134.05ZM556.41,157c1.1-10.26,6.62-15.33,15.66-15.33,9.49,0,14,5.51,14.45,15.33Zm-39.73-22.94c-15.55,0-25.6,10.26-25.6,27.46s9.82,26.59,25.82,26.59c13.09,0,19.71-5.94,22.35-15.43a.59.59,0,0,0-.4-.72l-7.29-2a.57.57,0,0,0-.7.39c-1.7,5.48-5,9.83-14,9.83-9.93,0-15.44-5.74-16.22-16.22H539a.57.57,0,0,0,.57-.52c.19-2.14.29-4.23.29-5.65C539.85,143.53,532.12,134.05,516.68,134.05ZM500.8,157c1.1-10.26,6.62-15.33,15.66-15.33,9.49,0,14,5.51,14.45,15.33ZM305.48,135.37h-9.11a.57.57,0,0,0-.54.38L280.7,178.38a.36.36,0,0,1-.34.24h-.79a.37.37,0,0,1-.34-.24L264,135.75a.56.56,0,0,0-.54-.38h-9.33a.5.5,0,0,0-.47.69l20,50.47a.58.58,0,0,0,.54.36h11.46a.59.59,0,0,0,.54-.37L306,136.06A.5.5,0,0,0,305.48,135.37Zm146.15,42.76a26.08,26.08,0,0,1-7.19,1.15c-5.74,0-7.95-3-7.95-8.83V143.31h15.86a.57.57,0,0,0,.58-.57V136a.58.58,0,0,0-.58-.58H436.49V121.5a.58.58,0,0,0-.57-.58h-8.45a.58.58,0,0,0-.58.58v13.87h-7.25a.58.58,0,0,0-.58.58v6.79a.57.57,0,0,0,.58.57h7.25v28.25c0,9.59,4.75,16.65,15.56,16.65A32.22,32.22,0,0,0,453,186.6a.59.59,0,0,0,.4-.64l-1.05-7.36Zm36.43-43.31h-1.18c-7.95,0-13.25,4-15.89,15.22l-.77-.11V136a.58.58,0,0,0-.58-.58h-8.11a.58.58,0,0,0-.58.58v50.36a.58.58,0,0,0,.58.58H470a.58.58,0,0,0,.58-.58v-24.9c0-11.59,4.52-16,15.66-16h1.85a.8.8,0,0,0,.8-.8v-9A.8.8,0,0,0,488.06,134.82Zm-81.85-18.63a6,6,0,1,0,6,6A6,6,0,0,0,406.21,116.19Z"/></svg>