<?xml version="1.0" encoding="utf-8"?>
<!-- Generator: Adobe Illustrator 16.0.0, SVG Export Plug-In . SVG Version: 6.00 Build 0)  -->
<!DOCTYPE svg PUBLIC "-//W3C//DTD SVG 1.1//EN" "http://www.w3.org/Graphics/SVG/1.1/DTD/svg11.dtd">
<svg version="1.1" id="Layer_1" xmlns="http://www.w3.org/2000/svg" xmlns:xlink="http://www.w3.org/1999/xlink" x="0px" y="0px"
	 width="320px" height="320px" viewBox="0 0 320 320" enable-background="new 0 0 320 320" xml:space="preserve">
<g>
	<path fill-rule="evenodd" clip-rule="evenodd" fill="#2196F3" d="M162.229,268.843H44.398c-11.46,0-20.751-9.291-20.751-20.751
		V60.928c0-11.461,9.291-20.752,20.751-20.752h117.831c11.461,0,20.751,9.291,20.751,20.752v187.164
		C182.98,259.552,173.69,268.843,162.229,268.843"/>
	<path fill-rule="evenodd" clip-rule="evenodd" fill="#FFFFFF" d="M125.25,221.51H82.044c-11.265,0-20.397-9.132-20.397-20.396
		v-93.207c0-11.265,9.132-20.397,20.397-20.397h43.206c11.265,0,20.397,9.132,20.397,20.397v93.207
		C145.647,212.378,136.515,221.51,125.25,221.51"/>
	<path fill-rule="evenodd" clip-rule="evenodd" fill="#2196F3" d="M110.811,196.843H96.483c-10.771,0-19.503-8.731-19.503-19.503
		v-44.994c0-10.771,8.732-19.503,19.503-19.503h14.327c10.771,0,19.503,8.732,19.503,19.503v44.994
		C130.313,188.111,121.582,196.843,110.811,196.843"/>
</g>
</svg>