<?xml version="1.0" encoding="UTF-8"?>
<svg width="212px" height="56px" viewBox="0 0 212 56" version="1.1" xmlns="http://www.w3.org/2000/svg" xmlns:xlink="http://www.w3.org/1999/xlink">
    <!-- Generator: Sketch 48.2 (47327) - http://www.bohemiancoding.com/sketch -->
    <title>Group 4</title>
    <desc>Created with Sketch.</desc>
    <defs></defs>
    <g id="Crear-Encuesta" stroke="none" stroke-width="1" fill="none" fill-rule="evenodd" transform="translate(-16.000000, 0.000000)">
        <g id="Group-4" transform="translate(16.000000, 0.000000)">
            <g id="Group-7" transform="translate(1.000000, 25.000000)" fill="#575757">
                <path d="M9.21379962,5.08368201 C9.21379962,7.80334728 7.25935728,9.87447699 4.08837429,9.87447699 L2.61257089,9.87447699 L2.61257089,14.790795 L0,14.790795 L0,0.669456067 L4.08837429,0.669456067 C6.8405482,0.669456067 9.21379962,2.05020921 9.21379962,5.08368201 Z M6.44168242,5.18828452 C6.44168242,3.74476987 5.52429112,2.9916318 4.02854442,2.9916318 L2.61257089,2.9916318 L2.61257089,7.71966527 L4.02854442,7.71966527 C5.56417769,7.71966527 6.44168242,6.73640167 6.44168242,5.18828452 Z M13.5016068,15 C11.5072779,15 10.7893195,13.8912134 10.7893195,12.0711297 L10.7893195,0.355648536 L13.3620038,0.355648536 L13.3620038,11.9246862 C13.3620038,12.7824268 13.860586,12.9079498 14.9375236,12.9079498 L14.9375236,14.832636 C14.9375236,14.832636 14.1796786,15 13.5016068,15 Z M24.4305293,14.790795 L22.6555766,14.790795 L22.2965974,13.5774059 C21.7980151,14.2887029 20.820794,15 19.444707,15 C17.4902647,15 16.1740076,13.6820084 16.1740076,11.7154812 C16.1740076,9.81171548 17.5102079,8.68200837 19.8635161,8.68200837 L21.9176749,8.68200837 L21.9176749,8.15899582 C21.9176749,6.84100418 21.1997164,6.42259414 20.202552,6.42259414 C19.0458412,6.42259414 18.06862,6.73640167 17.2708885,7.11297071 L16.6127599,5.16736402 C17.5899811,4.72803347 18.9261815,4.33054393 20.4618147,4.33054393 C23.2339319,4.33054393 24.4305293,5.66945607 24.4305293,8.28451883 L24.4305293,14.790795 Z M21.9176749,12.4476987 L21.9176749,10.3138075 L20.3022684,10.3138075 C19.2253308,10.3138075 18.7267486,10.8577406 18.7267486,11.6317992 C18.7267486,12.5732218 19.2053875,13.1380753 20.1826087,13.1380753 C20.8008507,13.1380753 21.4390359,12.8451883 21.9176749,12.4476987 Z M32.9463138,14.3096234 C32.3679584,14.665272 31.3508507,15 30.3137996,15 C28.5787335,15 27.441966,14.1422594 27.441966,11.5690377 L27.441966,6.48535565 L25.9861059,6.48535565 L25.9861059,4.53974895 L27.441966,4.53974895 L27.441966,2.76150628 L30.0146503,1.88284519 L30.0146503,4.53974895 L32.6272212,4.53974895 L32.6272212,6.48535565 L30.0146503,6.48535565 L30.0146503,11.5062762 C30.0146503,12.2175732 30.3536862,12.6778243 31.0517013,12.6778243 C31.5901701,12.6778243 32.1485822,12.5104603 32.547448,12.3012552 L32.9463138,14.3096234 Z M42.4193762,14.790795 L40.6444234,14.790795 L40.2854442,13.5774059 C39.786862,14.2887029 38.8096408,15 37.4335539,15 C35.4791115,15 34.1628544,13.6820084 34.1628544,11.7154812 C34.1628544,9.81171548 35.4990548,8.68200837 37.8523629,8.68200837 L39.9065217,8.68200837 L39.9065217,8.15899582 C39.9065217,6.84100418 39.1885633,6.42259414 38.1913989,6.42259414 C37.0346881,6.42259414 36.0574669,6.73640167 35.2597353,7.11297071 L34.6016068,5.16736402 C35.578828,4.72803347 36.9150284,4.33054393 38.4506616,4.33054393 C41.2227788,4.33054393 42.4193762,5.66945607 42.4193762,8.28451883 L42.4193762,14.790795 Z M39.9065217,12.4476987 L39.9065217,10.3138075 L38.2911153,10.3138075 C37.2141777,10.3138075 36.7155955,10.8577406 36.7155955,11.6317992 C36.7155955,12.5732218 37.1942344,13.1380753 38.1714556,13.1380753 C38.7896975,13.1380753 39.4278828,12.8451883 39.9065217,12.4476987 Z M50.7955577,0.209205021 L50.6160681,2.36401674 C50.2770321,2.25941423 49.8781664,2.19665272 49.3795841,2.19665272 C48.4821361,2.19665272 47.9636106,2.71966527 47.9636106,3.80753138 L47.9636106,4.53974895 L50.1374291,4.53974895 L50.1374291,6.50627615 L47.9636106,6.50627615 L47.9636106,14.790795 L45.3510397,14.790795 L45.3510397,6.50627615 L43.9151229,6.50627615 L43.9151229,4.53974895 L45.3510397,4.53974895 L45.3510397,3.68200837 C45.3510397,1.27615063 46.6473535,0 49.2000945,0 C49.8382798,0 50.3767486,0.10460251 50.7955577,0.209205021 Z M55.7215501,4.33054393 C58.6731569,4.33054393 60.3085066,6.63179916 60.3085066,9.64435146 C60.3085066,13.1380753 58.6332703,15 55.7215501,15 C52.7898866,15 51.1345936,13.1589958 51.1345936,9.64435146 C51.1345936,6.63179916 52.7300567,4.33054393 55.7215501,4.33054393 Z M55.7215501,12.9916318 C56.9979206,12.9916318 57.6361059,12.0920502 57.6361059,9.64435146 C57.6361059,7.17573222 56.9380907,6.31799163 55.7215501,6.31799163 C54.5050095,6.31799163 53.8269376,7.19665272 53.8269376,9.64435146 C53.8269376,12.0292887 54.4451796,12.9916318 55.7215501,12.9916318 Z M67.8670132,4.49790795 L67.8071834,6.82008368 C67.4880907,6.71548117 67.0293951,6.65271967 66.5906427,6.65271967 C65.8926276,6.65271967 65.2743856,6.9665272 64.8356333,7.34309623 L64.8356333,14.790795 L62.2430057,14.790795 L62.2430057,4.53974895 L64.057845,4.53974895 L64.337051,5.92050209 L64.3968809,5.92050209 C64.6960302,5.18828452 65.573535,4.35146444 66.7302457,4.35146444 C67.2487713,4.35146444 67.6476371,4.43514644 67.8670132,4.49790795 Z M77.918431,7.05020921 C77.9982042,7.46861925 78.0181474,7.94979079 78.0181474,8.45188285 L78.0181474,14.790795 L75.3856333,14.790795 L75.3856333,8.70292887 C75.3856333,7.15481172 74.8471645,6.42259414 73.6306238,6.42259414 C72.952552,6.42259414 72.4340265,6.73640167 71.9753308,7.05020921 L71.9753308,14.790795 L69.3627599,14.790795 L69.3627599,4.53974895 L71.1177694,4.53974895 L71.5565217,5.73221757 C72.1149338,5.0209205 73.0722117,4.33054393 74.4482987,4.33054393 C76.0437618,4.33054393 77.0010397,4.83263598 77.4996219,5.77405858 C78.0779773,5.041841 79.0950851,4.33054393 80.4512287,4.33054393 C83.2432892,4.33054393 84.0609641,5.85774059 84.0609641,8.45188285 L84.0609641,14.790795 L81.4085066,14.790795 L81.4085066,8.70292887 C81.4085066,7.15481172 80.7902647,6.42259414 79.573724,6.42259414 C78.9355388,6.42259414 78.3571834,6.73640167 77.918431,7.05020921 Z M93.9727788,14.790795 L92.1978261,14.790795 L91.8388469,13.5774059 C91.3402647,14.2887029 90.3630435,15 88.9869565,15 C87.0325142,15 85.7162571,13.6820084 85.7162571,11.7154812 C85.7162571,9.81171548 87.0524575,8.68200837 89.4057656,8.68200837 L91.4599244,8.68200837 L91.4599244,8.15899582 C91.4599244,6.84100418 90.741966,6.42259414 89.7448015,6.42259414 C88.5880907,6.42259414 87.6108696,6.73640167 86.813138,7.11297071 L86.1550095,5.16736402 C87.1322306,4.72803347 88.468431,4.33054393 90.0040643,4.33054393 C92.7761815,4.33054393 93.9727788,5.66945607 93.9727788,8.28451883 L93.9727788,14.790795 Z M91.4599244,12.4476987 L91.4599244,10.3138075 L89.844518,10.3138075 C88.7675803,10.3138075 88.2689981,10.8577406 88.2689981,11.6317992 C88.2689981,12.5732218 88.7476371,13.1380753 89.7248582,13.1380753 C90.3431002,13.1380753 90.9812854,12.8451883 91.4599244,12.4476987 Z M104.522779,4.33054393 C105.579773,4.33054393 106.417391,4.70711297 106.95586,5.33472803 C106.796314,4.74895397 106.716541,4.22594142 106.716541,3.45188285 L106.716541,0.355648536 L109.309168,0.355648536 L109.309168,14.790795 L107.19518,14.790795 L106.89603,13.6610879 C106.497164,14.2887029 105.55983,15 104.303403,15 C102.089698,15 100.314745,13.3263598 100.314745,9.66527197 C100.314745,6.27615063 102.149527,4.33054393 104.522779,4.33054393 Z M106.716541,12.1338912 L106.716541,6.88284519 C106.317675,6.63179916 105.699433,6.38075314 104.941588,6.38075314 C103.705104,6.38075314 102.927316,7.25941423 102.927316,9.64435146 C102.927316,12.0920502 103.665217,13.0125523 104.901701,13.0125523 C105.55983,13.0125523 106.217958,12.6778243 106.716541,12.1338912 Z M119.978828,10.3974895 L113.896125,10.3974895 C113.896125,12.0292887 114.773629,12.9288703 116.408979,12.9288703 C117.406144,12.9288703 118.423251,12.5313808 119.280813,12.0711297 L119.779395,13.9958159 C118.96172,14.4560669 117.62552,15 116.089887,15 C113.07845,15 111.283554,13.0334728 111.283554,9.64435146 C111.283554,6.48535565 112.739414,4.33054393 115.87051,4.33054393 C118.822117,4.33054393 119.978828,6.63179916 119.978828,9.20502092 L119.978828,10.3974895 Z M117.465974,8.78661088 C117.465974,7.46861925 117.087051,6.33891213 115.730907,6.33891213 C114.434594,6.33891213 113.896125,7.57322176 113.896125,8.78661088 L117.465974,8.78661088 Z M134.657089,10.3974895 L128.574386,10.3974895 C128.574386,12.0292887 129.45189,12.9288703 131.08724,12.9288703 C132.084405,12.9288703 133.101512,12.5313808 133.959074,12.0711297 L134.457656,13.9958159 C133.639981,14.4560669 132.303781,15 130.768147,15 C127.756711,15 125.961815,13.0334728 125.961815,9.64435146 C125.961815,6.48535565 127.417675,4.33054393 130.548771,4.33054393 C133.500378,4.33054393 134.657089,6.63179916 134.657089,9.20502092 L134.657089,10.3974895 Z M132.144234,8.78661088 C132.144234,7.46861925 131.765312,6.33891213 130.409168,6.33891213 C129.112854,6.33891213 128.574386,7.57322176 128.574386,8.78661088 L132.144234,8.78661088 Z M145.346692,14.790795 L142.694234,14.790795 L142.694234,8.70292887 C142.694234,7.15481172 142.135822,6.42259414 140.939225,6.42259414 C140.261153,6.42259414 139.682798,6.73640167 139.224102,7.05020921 L139.224102,14.790795 L136.611531,14.790795 L136.611531,4.53974895 L138.406427,4.53974895 L138.805293,5.71129707 C139.363705,5.0209205 140.440643,4.33054393 141.896503,4.33054393 C144.369471,4.33054393 145.346692,5.85774059 145.346692,8.45188285 L145.346692,14.790795 Z M154.779868,12.1548117 L155.258507,14.1004184 C154.700095,14.4142259 153.383837,15 151.908034,15 C148.996314,15 147.241304,13.2635983 147.241304,9.66527197 C147.241304,6.31799163 148.996314,4.33054393 151.888091,4.33054393 C153.184405,4.33054393 154.301229,4.60251046 155.238563,5.16736402 L154.560491,7.0292887 C153.862476,6.58995816 152.965028,6.40167364 152.107467,6.40167364 C150.751323,6.40167364 149.893762,7.36401674 149.893762,9.66527197 C149.893762,11.9874477 150.711437,12.9288703 152.12741,12.9288703 C153.144518,12.9288703 154.141682,12.5313808 154.779868,12.1548117 Z M165.529301,14.790795 L163.814178,14.790795 L163.415312,13.5355649 C162.956616,14.1631799 161.919565,15 160.363989,15 C157.930907,15 156.814083,13.5774059 156.814083,10.7531381 L156.814083,4.53974895 L159.406711,4.53974895 L159.406711,10.7740586 C159.406711,12.3430962 159.94518,12.9079498 161.121834,12.9079498 C161.799905,12.9079498 162.418147,12.6359833 162.876843,12.3012552 L162.876843,4.53974895 L165.529301,4.53974895 L165.529301,14.790795 Z M176.019471,10.3974895 L169.936767,10.3974895 C169.936767,12.0292887 170.814272,12.9288703 172.449622,12.9288703 C173.446786,12.9288703 174.463894,12.5313808 175.321456,12.0711297 L175.820038,13.9958159 C175.002363,14.4560669 173.666163,15 172.130529,15 C169.119093,15 167.324197,13.0334728 167.324197,9.64435146 C167.324197,6.48535565 168.780057,4.33054393 171.911153,4.33054393 C174.86276,4.33054393 176.019471,6.63179916 176.019471,9.20502092 L176.019471,10.3974895 Z M173.506616,8.78661088 C173.506616,7.46861925 173.127694,6.33891213 171.77155,6.33891213 C170.475236,6.33891213 169.936767,7.57322176 169.936767,8.78661088 L173.506616,8.78661088 Z M181.583648,6.29707113 C180.6862,6.29707113 180.247448,6.65271967 180.247448,7.23849372 C180.247448,8.82845188 184.475425,8.34728033 184.475425,11.6945607 C184.475425,13.5564854 183.159168,15 180.626371,15 C179.449716,15 178.352836,14.6443515 177.694707,14.2468619 L178.233176,12.3430962 C178.691871,12.6778243 179.649149,13.0543933 180.546597,13.0543933 C181.404159,13.0543933 181.982514,12.5523013 181.982514,11.9246862 C181.982514,10.083682 177.814367,10.6903766 177.814367,7.19665272 C177.814367,5.69037657 178.911248,4.33054393 181.543762,4.33054393 C182.56087,4.33054393 183.617864,4.53974895 184.295936,4.83263598 L183.936957,6.82008368 C183.278828,6.50627615 182.44121,6.29707113 181.583648,6.29707113 Z M192.771834,14.3096234 C192.193478,14.665272 191.176371,15 190.139319,15 C188.404253,15 187.267486,14.1422594 187.267486,11.5690377 L187.267486,6.48535565 L185.811626,6.48535565 L185.811626,4.53974895 L187.267486,4.53974895 L187.267486,2.76150628 L189.84017,1.88284519 L189.84017,4.53974895 L192.452741,4.53974895 L192.452741,6.48535565 L189.84017,6.48535565 L189.84017,11.5062762 C189.84017,12.2175732 190.179206,12.6778243 190.877221,12.6778243 C191.41569,12.6778243 191.974102,12.5104603 192.372968,12.3012552 L192.771834,14.3096234 Z M202.244896,14.790795 L200.469943,14.790795 L200.110964,13.5774059 C199.612382,14.2887029 198.635161,15 197.259074,15 C195.304631,15 193.988374,13.6820084 193.988374,11.7154812 C193.988374,9.81171548 195.324575,8.68200837 197.677883,8.68200837 L199.732042,8.68200837 L199.732042,8.15899582 C199.732042,6.84100418 199.014083,6.42259414 198.016919,6.42259414 C196.860208,6.42259414 195.882987,6.73640167 195.085255,7.11297071 L194.427127,5.16736402 C195.404348,4.72803347 196.740548,4.33054393 198.276181,4.33054393 C201.048299,4.33054393 202.244896,5.66945607 202.244896,8.28451883 L202.244896,14.790795 Z M199.732042,12.4476987 L199.732042,10.3138075 L198.116635,10.3138075 C197.039698,10.3138075 196.541115,10.8577406 196.541115,11.6317992 C196.541115,12.5732218 197.019754,13.1380753 197.996975,13.1380753 C198.615217,13.1380753 199.253403,12.8451883 199.732042,12.4476987 Z M208.108223,6.29707113 C207.210775,6.29707113 206.772023,6.65271967 206.772023,7.23849372 C206.772023,8.82845188 211,8.34728033 211,11.6945607 C211,13.5564854 209.683743,15 207.150945,15 C205.974291,15 204.87741,14.6443515 204.219282,14.2468619 L204.75775,12.3430962 C205.216446,12.6778243 206.173724,13.0543933 207.071172,13.0543933 C207.928733,13.0543933 208.507089,12.5523013 208.507089,11.9246862 C208.507089,10.083682 204.338941,10.6903766 204.338941,7.19665272 C204.338941,5.69037657 205.435822,4.33054393 208.068336,4.33054393 C209.085444,4.33054393 210.142439,4.53974895 210.82051,4.83263598 L210.461531,6.82008368 C209.803403,6.50627615 208.965784,6.29707113 208.108223,6.29707113 Z" id="Plataforma-de-encues"></path>
            </g>
            <g id="Group-8" transform="translate(1.000000, 44.000000)" fill="#575757">
                <path d="M6.45762405,5.01650165 L6.45762405,8.77887789 C5.29856332,9.32013201 4.53434746,9.46534653 3.64276228,9.46534653 C1.33737776,9.46534653 0,7.59075908 0,4.77887789 C0,2.21782178 1.3119039,0.290429043 3.75739466,0.290429043 C4.82729687,0.290429043 5.62972353,0.541254125 6.25383315,0.937293729 L5.83351443,1.72937294 C5.36224798,1.42574257 4.59803211,1.18811881 3.75739466,1.18811881 C1.94875045,1.18811881 1.01895449,2.75907591 1.01895449,4.75247525 C1.01895449,7.06270627 1.92327659,8.59405941 3.70644694,8.59405941 C4.38150429,8.59405941 4.92919232,8.50165017 5.47688036,8.27722772 L5.47688036,5.82178218 L4.05034408,5.82178218 L4.01213329,5.01650165 L6.45762405,5.01650165 Z M12.9789328,6.38943894 L8.7757455,6.38943894 C8.7757455,7.98679868 9.56543523,8.68646865 10.7499698,8.68646865 C11.5523965,8.68646865 12.2656646,8.30363036 12.6859833,8.03960396 L12.927985,8.75247525 C12.4057709,9.08250825 11.5906073,9.46534653 10.6480744,9.46534653 C8.94132561,9.46534653 7.80773874,8.29042904 7.80773874,6.05940594 C7.80773874,4.01320132 8.7757455,2.73267327 10.4824943,2.73267327 C12.2401908,2.73267327 12.9789328,4.1980198 12.9789328,5.82178218 L12.9789328,6.38943894 Z M12.0363999,5.68976898 C12.0363999,4.56765677 11.6670289,3.49834983 10.4442835,3.49834983 C9.25974888,3.49834983 8.7757455,4.58085809 8.7757455,5.68976898 L12.0363999,5.68976898 Z M19.3728721,9.33333333 L18.3793915,9.33333333 L18.3793915,5.42574257 C18.3793915,4.1980198 18.0100205,3.52475248 16.9528552,3.52475248 C16.3032718,3.52475248 15.8065314,3.90759076 15.4244235,4.2640264 L15.4244235,9.33333333 L14.4564168,9.33333333 L14.4564168,2.86468647 L15.1060002,2.86468647 L15.2970542,3.63036304 C15.6536883,3.24752475 16.3160087,2.73267327 17.2585416,2.73267327 C18.7232887,2.73267327 19.3728721,3.64356436 19.3728721,5.25412541 L19.3728721,9.33333333 Z M25.8941809,6.38943894 L21.6909936,6.38943894 C21.6909936,7.98679868 22.4806833,8.68646865 23.6652179,8.68646865 C24.4676446,8.68646865 25.1809127,8.30363036 25.6012314,8.03960396 L25.8432331,8.75247525 C25.321019,9.08250825 24.5058554,9.46534653 23.5633225,9.46534653 C21.8565737,9.46534653 20.7229868,8.29042904 20.7229868,6.05940594 C20.7229868,4.01320132 21.6909936,2.73267327 23.3977424,2.73267327 C25.1554389,2.73267327 25.8941809,4.1980198 25.8941809,5.82178218 L25.8941809,6.38943894 Z M24.951648,5.68976898 C24.951648,4.56765677 24.582277,3.49834983 23.3595316,3.49834983 C22.174997,3.49834983 21.6909936,4.58085809 21.6909936,5.68976898 L24.951648,5.68976898 Z M30.6068453,2.87788779 L30.5431607,3.7359736 C30.3648437,3.669967 30.0846312,3.61716172 29.740734,3.61716172 C29.1420983,3.61716172 28.6580949,3.97359736 28.3396716,4.31683168 L28.3396716,9.33333333 L27.3716649,9.33333333 L27.3716649,2.86468647 L28.0212483,2.86468647 L28.1995654,3.68316832 C28.4670409,3.31353135 29.014729,2.77227723 29.8171556,2.77227723 C30.2756851,2.77227723 30.5558976,2.86468647 30.6068453,2.87788779 Z M36.211095,9.33333333 L35.5487746,9.33333333 L35.3831945,8.50165017 C35.0138235,8.99009901 34.3387661,9.46534653 33.4599179,9.46534653 C32.1862248,9.46534653 31.4474828,8.58085809 31.4474828,7.48514851 C31.4474828,6.3630363 32.2371725,5.6369637 33.6509719,5.6369637 L35.2685621,5.6369637 L35.2685621,5.12211221 C35.2685621,4 34.7972957,3.52475248 33.8547628,3.52475248 C33.065073,3.52475248 32.4282265,3.7359736 31.969697,3.94719472 L31.7149583,3.22112211 C32.2116987,2.99669967 32.9504407,2.73267327 33.9821321,2.73267327 C35.4596161,2.73267327 36.211095,3.52475248 36.211095,5.06930693 L36.211095,9.33333333 Z M35.2685621,7.9339934 L35.2685621,6.32343234 L33.803815,6.32343234 C32.7466498,6.32343234 32.3900157,6.79867987 32.3900157,7.44554455 C32.3900157,8.22442244 32.7975975,8.73927393 33.7019196,8.73927393 C34.3132923,8.73927393 34.8991911,8.36963696 35.2685621,7.9339934 Z M42.1465049,9.33333333 L41.9809248,8.55445545 C41.6242907,9.04290429 40.9237595,9.46534653 40.1850175,9.46534653 C38.7075335,9.46534653 37.6758421,8.330033 37.6758421,6.08580858 C37.6758421,4.11881188 38.618375,2.73267327 40.286913,2.73267327 C41.0638657,2.73267327 41.5988169,2.99669967 41.9554509,3.28712871 C41.9172401,2.94389439 41.9045032,2.61386139 41.9045032,2.2310231 L41.9045032,0.224422442 L42.87251,0.224422442 L42.87251,9.33333333 L42.1465049,9.33333333 Z M41.9045032,7.89438944 L41.9045032,3.96039604 C41.6115538,3.74917492 41.0893396,3.49834983 40.3888084,3.49834983 C39.2170107,3.49834983 38.6565858,4.44884488 38.6565858,6.08580858 C38.6565858,7.68316832 39.1533261,8.71287129 40.3251237,8.71287129 C40.8855487,8.71287129 41.395026,8.4620462 41.9045032,7.89438944 Z M46.9992756,2.73267327 C48.7314982,2.73267327 49.6867681,4.15841584 49.6867681,6.08580858 C49.6867681,8.2640264 48.6678136,9.46534653 46.9992756,9.46534653 C45.3052638,9.46534653 44.337257,8.29042904 44.337257,6.08580858 C44.337257,4.18481848 45.2033683,2.73267327 46.9992756,2.73267327 Z M46.9992756,8.71287129 C48.2092841,8.71287129 48.6932875,7.81518152 48.6932875,6.08580858 C48.6932875,4.3960396 48.1455994,3.48514851 46.9992756,3.48514851 C45.827478,3.48514851 45.3180007,4.43564356 45.3180007,6.08580858 C45.3180007,7.669967 45.7637933,8.71287129 46.9992756,8.71287129 Z M54.3866956,2.87788779 L54.323011,3.7359736 C54.144694,3.669967 53.8644815,3.61716172 53.5205843,3.61716172 C52.9219486,3.61716172 52.4379452,3.97359736 52.1195219,4.31683168 L52.1195219,9.33333333 L51.1515152,9.33333333 L51.1515152,2.86468647 L51.8010986,2.86468647 L51.9794157,3.68316832 C52.2468912,3.31353135 52.7945793,2.77227723 53.5970059,2.77227723 C54.0555354,2.77227723 54.3357479,2.86468647 54.3866956,2.87788779 Z M62.5510685,9.33333333 L62.3854883,8.55445545 C62.0288543,9.04290429 61.3283231,9.46534653 60.5895811,9.46534653 C59.1120971,9.46534653 58.0804057,8.330033 58.0804057,6.08580858 C58.0804057,4.11881188 59.0229385,2.73267327 60.6914765,2.73267327 C61.4684293,2.73267327 62.0033804,2.99669967 62.3600145,3.28712871 C62.3218037,2.94389439 62.3090668,2.61386139 62.3090668,2.2310231 L62.3090668,0.224422442 L63.2770735,0.224422442 L63.2770735,9.33333333 L62.5510685,9.33333333 Z M62.3090668,7.89438944 L62.3090668,3.96039604 C62.0161173,3.74917492 61.4939032,3.49834983 60.793372,3.49834983 C59.6215743,3.49834983 59.0611493,4.44884488 59.0611493,6.08580858 C59.0611493,7.68316832 59.5578897,8.71287129 60.7296873,8.71287129 C61.2901123,8.71287129 61.7995895,8.4620462 62.3090668,7.89438944 Z M69.9257515,6.38943894 L65.7225643,6.38943894 C65.7225643,7.98679868 66.512254,8.68646865 67.6967886,8.68646865 C68.4992153,8.68646865 69.2124834,8.30363036 69.6328021,8.03960396 L69.8748038,8.75247525 C69.3525896,9.08250825 68.5374261,9.46534653 67.5948932,9.46534653 C65.8881444,9.46534653 64.7545575,8.29042904 64.7545575,6.05940594 C64.7545575,4.01320132 65.7225643,2.73267327 67.4293131,2.73267327 C69.1870095,2.73267327 69.9257515,4.1980198 69.9257515,5.82178218 L69.9257515,6.38943894 Z M68.9832186,5.68976898 C68.9832186,4.56765677 68.6138476,3.49834983 67.3911023,3.49834983 C66.2065677,3.49834983 65.7225643,4.58085809 65.7225643,5.68976898 L68.9832186,5.68976898 Z M75.5300012,9.33333333 L74.5492575,9.33333333 L74.5492575,0.422442244 L75.5300012,0.422442244 L75.5300012,9.33333333 Z M82.4716286,9.33333333 L81.478148,9.33333333 L81.478148,5.42574257 C81.478148,4.1980198 81.108777,3.52475248 80.0516117,3.52475248 C79.4020283,3.52475248 78.9052879,3.90759076 78.52318,4.2640264 L78.52318,9.33333333 L77.5551732,9.33333333 L77.5551732,2.86468647 L78.2047567,2.86468647 L78.3958107,3.63036304 C78.7524448,3.24752475 79.4147652,2.73267327 80.3572981,2.73267327 C81.8220452,2.73267327 82.4716286,3.64356436 82.4716286,5.25412541 L82.4716286,9.33333333 Z M87.6300857,0.132013201 L87.5409272,0.95049505 C87.3498732,0.884488449 87.03145,0.831683168 86.7385005,0.831683168 C85.8978631,0.831683168 85.5284921,1.32013201 85.5284921,2.34983498 L85.5284921,2.86468647 L87.0059761,2.86468647 L87.0059761,3.63036304 L85.5284921,3.63036304 L85.5284921,9.33333333 L84.5732223,9.33333333 L84.5732223,3.63036304 L83.5670047,3.63036304 L83.5670047,2.86468647 L84.5732223,2.86468647 L84.5732223,2.28382838 C84.5732223,0.805280528 85.2610165,0 86.662079,0 C86.9805022,0 87.3243994,0.0528052805 87.6300857,0.132013201 Z M90.5595799,2.73267327 C92.2918025,2.73267327 93.2470723,4.15841584 93.2470723,6.08580858 C93.2470723,8.2640264 92.2281178,9.46534653 90.5595799,9.46534653 C88.865568,9.46534653 87.8975613,8.29042904 87.8975613,6.08580858 C87.8975613,4.18481848 88.7636726,2.73267327 90.5595799,2.73267327 Z M90.5595799,8.71287129 C91.7695883,8.71287129 92.2535917,7.81518152 92.2535917,6.08580858 C92.2535917,4.3960396 91.7059037,3.48514851 90.5595799,3.48514851 C89.3877822,3.48514851 88.878305,4.43564356 88.878305,6.08580858 C88.878305,7.669967 89.3240975,8.71287129 90.5595799,8.71287129 Z M97.9469999,2.87788779 L97.8833152,3.7359736 C97.7049982,3.669967 97.4247857,3.61716172 97.0808886,3.61716172 C96.4822528,3.61716172 95.9982494,3.97359736 95.6798261,4.31683168 L95.6798261,9.33333333 L94.7118194,9.33333333 L94.7118194,2.86468647 L95.3614029,2.86468647 L95.5397199,3.68316832 C95.8071955,3.31353135 96.3548835,2.77227723 97.1573102,2.77227723 C97.6158397,2.77227723 97.8960522,2.86468647 97.9469999,2.87788779 Z M103.780514,4.2640264 C103.856936,4.55445545 103.88241,4.88448845 103.88241,5.25412541 L103.88241,9.33333333 L102.901666,9.33333333 L102.901666,5.42574257 C102.901666,4.1980198 102.557769,3.52475248 101.500604,3.52475248 C100.838283,3.52475248 100.379754,3.90759076 99.9976458,4.2640264 L99.9976458,9.33333333 L99.029639,9.33333333 L99.029639,2.86468647 L99.6664856,2.86468647 L99.8702765,3.64356436 C100.226911,3.26072607 100.85102,2.73267327 101.768079,2.73267327 C102.697875,2.73267327 103.296511,3.07590759 103.602197,3.72277228 C103.958831,3.31353135 104.646626,2.73267327 105.550948,2.73267327 C107.079379,2.73267327 107.754437,3.61716172 107.754437,5.25412541 L107.754437,9.33333333 L106.773693,9.33333333 L106.773693,5.42574257 C106.773693,4.1980198 106.327901,3.52475248 105.270735,3.52475248 C104.684836,3.52475248 104.162622,3.88118812 103.780514,4.2640264 Z M114.237535,6.38943894 L110.034347,6.38943894 C110.034347,7.98679868 110.824037,8.68646865 112.008572,8.68646865 C112.810998,8.68646865 113.524267,8.30363036 113.944585,8.03960396 L114.186587,8.75247525 C113.664373,9.08250825 112.849209,9.46534653 111.906676,9.46534653 C110.199928,9.46534653 109.066341,8.29042904 109.066341,6.05940594 C109.066341,4.01320132 110.034347,2.73267327 111.741096,2.73267327 C113.498793,2.73267327 114.237535,4.1980198 114.237535,5.82178218 L114.237535,6.38943894 Z M113.295002,5.68976898 C113.295002,4.56765677 112.925631,3.49834983 111.702885,3.49834983 C110.518351,3.49834983 110.034347,4.58085809 110.034347,5.68976898 L113.295002,5.68976898 Z M117.600085,3.49834983 C116.810395,3.49834983 116.428287,3.85478548 116.428287,4.44884488 C116.428287,5.8349835 119.523361,5.34653465 119.523361,7.5379538 C119.523361,8.58085809 118.746408,9.46534653 117.358083,9.46534653 C116.606604,9.46534653 115.906073,9.18811881 115.473017,8.91089109 L115.75323,8.17161716 C116.058916,8.42244224 116.733973,8.71287129 117.345346,8.71287129 C118.109562,8.71287129 118.580828,8.27722772 118.580828,7.6039604 C118.580828,6.04620462 115.523965,6.62706271 115.523965,4.43564356 C115.523965,3.56435644 116.160811,2.73267327 117.587348,2.73267327 C118.249668,2.73267327 118.950199,2.86468647 119.459676,3.15511551 L119.230412,3.89438944 C118.746408,3.63036304 118.236931,3.49834983 117.600085,3.49834983 Z M128.031631,9.33333333 L127.866051,8.55445545 C127.509417,9.04290429 126.808886,9.46534653 126.070144,9.46534653 C124.59266,9.46534653 123.560968,8.330033 123.560968,6.08580858 C123.560968,4.11881188 124.503501,2.73267327 126.172039,2.73267327 C126.948992,2.73267327 127.483943,2.99669967 127.840577,3.28712871 C127.802366,2.94389439 127.789629,2.61386139 127.789629,2.2310231 L127.789629,0.224422442 L128.757636,0.224422442 L128.757636,9.33333333 L128.031631,9.33333333 Z M127.789629,7.89438944 L127.789629,3.96039604 C127.49668,3.74917492 126.974466,3.49834983 126.273935,3.49834983 C125.102137,3.49834983 124.541712,4.44884488 124.541712,6.08580858 C124.541712,7.68316832 125.038452,8.71287129 126.21025,8.71287129 C126.770675,8.71287129 127.280152,8.4620462 127.789629,7.89438944 Z M135.406314,6.38943894 L131.203127,6.38943894 C131.203127,7.98679868 131.992817,8.68646865 133.177351,8.68646865 C133.979778,8.68646865 134.693046,8.30363036 135.113365,8.03960396 L135.355366,8.75247525 C134.833152,9.08250825 134.017989,9.46534653 133.075456,9.46534653 C131.368707,9.46534653 130.23512,8.29042904 130.23512,6.05940594 C130.23512,4.01320132 131.203127,2.73267327 132.909876,2.73267327 C134.667572,2.73267327 135.406314,4.1980198 135.406314,5.82178218 L135.406314,6.38943894 Z M134.463781,5.68976898 C134.463781,4.56765677 134.09441,3.49834983 132.871665,3.49834983 C131.68713,3.49834983 131.203127,4.58085809 131.203127,5.68976898 L134.463781,5.68976898 Z M145.927019,4.79207921 C145.927019,7.76237624 144.691537,9.46534653 142.449837,9.46534653 C141.303513,9.46534653 140.36098,9.22772277 139.673186,9.01650165 L139.673186,0.422442244 L142.093203,0.422442244 C144.487746,0.422442244 145.927019,1.49174917 145.927019,4.79207921 Z M144.895328,4.77887789 C144.895328,2.2310231 144.041953,1.24092409 142.029518,1.24092409 L140.65393,1.24092409 L140.65393,8.34323432 C141.023301,8.4620462 141.723832,8.60726073 142.488048,8.60726073 C144.003743,8.60726073 144.895328,7.55115512 144.895328,4.77887789 Z M152.028009,9.33333333 L151.365689,9.33333333 L151.200109,8.50165017 C150.830738,8.99009901 150.15568,9.46534653 149.276832,9.46534653 C148.003139,9.46534653 147.264397,8.58085809 147.264397,7.48514851 C147.264397,6.3630363 148.054087,5.6369637 149.467886,5.6369637 L151.085476,5.6369637 L151.085476,5.12211221 C151.085476,4 150.61421,3.52475248 149.671677,3.52475248 C148.881987,3.52475248 148.245141,3.7359736 147.786611,3.94719472 L147.531873,3.22112211 C148.028613,2.99669967 148.767355,2.73267327 149.799046,2.73267327 C151.27653,2.73267327 152.028009,3.52475248 152.028009,5.06930693 L152.028009,9.33333333 Z M151.085476,7.9339934 L151.085476,6.32343234 L149.620729,6.32343234 C148.563564,6.32343234 148.20693,6.79867987 148.20693,7.44554455 C148.20693,8.22442244 148.614512,8.73927393 149.518834,8.73927393 C150.130206,8.73927393 150.716105,8.36963696 151.085476,7.9339934 Z M158.600266,9.33333333 L157.606785,9.33333333 L157.606785,5.42574257 C157.606785,4.1980198 157.237414,3.52475248 156.180249,3.52475248 C155.530665,3.52475248 155.033925,3.90759076 154.651817,4.2640264 L154.651817,9.33333333 L153.68381,9.33333333 L153.68381,2.86468647 L154.333394,2.86468647 L154.524448,3.63036304 C154.881082,3.24752475 155.543402,2.73267327 156.485935,2.73267327 C157.950682,2.73267327 158.600266,3.64356436 158.600266,5.25412541 L158.600266,9.33333333 Z M158.128999,0.765676568 C158.039841,1.53135314 157.517626,1.99339934 156.753411,1.71617162 L155.492454,1.25412541 C155.059399,1.09570957 154.740975,1.26732673 154.575395,1.62376238 L154.053181,1.38613861 C154.218761,0.686468647 154.791923,0.198019802 155.59435,0.501650165 L156.804358,0.95049505 C157.199203,1.09570957 157.492153,0.937293729 157.632259,0.567656766 L158.128999,0.765676568 Z M162.599662,2.73267327 C164.331885,2.73267327 165.287154,4.15841584 165.287154,6.08580858 C165.287154,8.2640264 164.2682,9.46534653 162.599662,9.46534653 C160.90565,9.46534653 159.937643,8.29042904 159.937643,6.08580858 C159.937643,4.18481848 160.803755,2.73267327 162.599662,2.73267327 Z M162.599662,8.71287129 C163.80967,8.71287129 164.293674,7.81518152 164.293674,6.08580858 C164.293674,4.3960396 163.745986,3.48514851 162.599662,3.48514851 C161.427864,3.48514851 160.918387,4.43564356 160.918387,6.08580858 C160.918387,7.669967 161.36418,8.71287129 162.599662,8.71287129 Z M170.458348,7.06270627 L169.897923,9.33333333 L168.942654,9.33333333 L171.298986,0.422442244 L173.40058,0.422442244 L175.578595,9.33333333 L174.508693,9.33333333 L173.986478,7.06270627 L170.458348,7.06270627 Z M172.661837,1.29372937 L171.935832,1.29372937 L170.662139,6.19141914 L173.795424,6.19141914 L172.661837,1.29372937 Z M178.979355,2.73267327 C179.488833,2.73267327 180.507787,2.82508251 182.010745,2.86468647 L182.010745,3.56435644 C181.654111,3.6039604 181.017264,3.52475248 180.49505,3.43234323 C180.915369,3.74917492 181.348424,4.2640264 181.348424,4.97689769 C181.348424,6.50825083 179.934625,7.15511551 178.992092,7.15511551 C178.750091,7.15511551 178.457141,7.10231023 178.176929,7.00990099 C177.718399,7.04950495 177.514608,7.23432343 177.514608,7.47194719 C177.514608,8.27722772 181.603163,7.45874587 181.603163,9.7689769 C181.603163,11.2739274 180.265785,12 178.928408,12 C177.705662,12 176.444706,11.3267327 176.444706,10.0858086 C176.444706,9.22772277 177.081553,8.69966997 178.024085,8.55445545 C177.25987,8.47524752 176.623023,8.1980198 176.623023,7.57755776 C176.623023,7.12871287 176.915972,6.79867987 177.565556,6.71947195 C177.068816,6.40264026 176.610286,5.9009901 176.610286,4.97689769 C176.610286,3.28712871 178.075033,2.73267327 178.979355,2.73267327 Z M180.635156,9.82178218 C180.635156,9.16171617 180.112942,8.80528053 178.864723,8.67326733 C177.92219,8.69966997 177.374502,9.20132013 177.374502,9.98019802 C177.374502,10.7854785 178.151455,11.30033 178.953881,11.30033 C179.909151,11.30033 180.635156,10.8514851 180.635156,9.82178218 Z M178.979355,6.4290429 C179.616202,6.4290429 180.444102,6.12541254 180.444102,4.96369637 C180.444102,3.76237624 179.590728,3.47194719 178.979355,3.47194719 C178.367983,3.47194719 177.501871,3.76237624 177.501871,4.96369637 C177.501871,6.12541254 178.329772,6.4290429 178.979355,6.4290429 Z M186.417723,2.87788779 L186.354038,3.7359736 C186.175721,3.669967 185.895509,3.61716172 185.551612,3.61716172 C184.952976,3.61716172 184.468973,3.97359736 184.150549,4.31683168 L184.150549,9.33333333 L183.182543,9.33333333 L183.182543,2.86468647 L183.832126,2.86468647 L184.010443,3.68316832 C184.277919,3.31353135 184.825607,2.77227723 185.628033,2.77227723 C186.086563,2.77227723 186.366775,2.86468647 186.417723,2.87788779 Z M188.939635,9.33333333 L187.997102,9.33333333 L187.997102,3.669967 L187.309308,3.52475248 L187.309308,2.86468647 L188.939635,2.86468647 L188.939635,9.33333333 Z M189.767536,0.937293729 L186.901726,1.86138614 L186.76162,1.26732673 L189.576482,0.184818482 L189.767536,0.937293729 Z M195.027888,8.14521452 L195.257153,8.89768977 C194.875045,9.12211221 194.085356,9.46534653 193.181033,9.46534653 C191.601654,9.46534653 190.45533,8.50165017 190.45533,6.0990099 C190.45533,3.90759076 191.614391,2.73267327 193.181033,2.73267327 C193.894302,2.73267327 194.658517,2.89108911 195.218942,3.24752475 L194.93873,3.96039604 C194.454727,3.669967 193.868828,3.5379538 193.231981,3.5379538 C192.111131,3.5379538 191.423337,4.4620462 191.423337,6.0990099 C191.423337,7.92079208 192.111131,8.68646865 193.231981,8.68646865 C193.957986,8.68646865 194.582096,8.42244224 195.027888,8.14521452 Z M198.976337,2.73267327 C200.70856,2.73267327 201.66383,4.15841584 201.66383,6.08580858 C201.66383,8.2640264 200.644875,9.46534653 198.976337,9.46534653 C197.282325,9.46534653 196.314318,8.29042904 196.314318,6.08580858 C196.314318,4.18481848 197.18043,2.73267327 198.976337,2.73267327 Z M198.976337,8.71287129 C200.186346,8.71287129 200.670349,7.81518152 200.670349,6.08580858 C200.670349,4.3960396 200.122661,3.48514851 198.976337,3.48514851 C197.804539,3.48514851 197.295062,4.43564356 197.295062,6.08580858 C197.295062,7.669967 197.740855,8.71287129 198.976337,8.71287129 Z M204.657008,9.46534653 C203.472474,9.46534653 203.179524,8.76567657 203.179524,7.55115512 L203.179524,0.224422442 L204.134794,0.224422442 L204.134794,7.92079208 C204.134794,8.47524752 204.376796,8.69966997 205.06459,8.69966997 L205.268381,8.69966997 L205.268381,9.38613861 C205.268381,9.38613861 204.962695,9.46534653 204.657008,9.46534653 Z M211,9.33333333 L210.33768,9.33333333 L210.172099,8.50165017 C209.802728,8.99009901 209.127671,9.46534653 208.248823,9.46534653 C206.97513,9.46534653 206.236388,8.58085809 206.236388,7.48514851 C206.236388,6.3630363 207.026078,5.6369637 208.439877,5.6369637 L210.057467,5.6369637 L210.057467,5.12211221 C210.057467,4 209.586201,3.52475248 208.643668,3.52475248 C207.853978,3.52475248 207.217131,3.7359736 206.758602,3.94719472 L206.503863,3.22112211 C207.000604,2.99669967 207.739346,2.73267327 208.771037,2.73267327 C210.248521,2.73267327 211,3.52475248 211,5.06930693 L211,9.33333333 Z M210.057467,7.9339934 L210.057467,6.32343234 L208.59272,6.32343234 C207.535555,6.32343234 207.178921,6.79867987 207.178921,7.44554455 C207.178921,8.22442244 207.586502,8.73927393 208.490825,8.73927393 C209.102197,8.73927393 209.688096,8.36963696 210.057467,7.9339934 Z" id="Generador-de-Informe"></path>
            </g>
            <g id="Group-15">
                <polygon id="Fill-1" fill="#EA3C46" points="87.9407407 8 212 8 212 0 87.9407407 0"></polygon>
                <polygon id="Fill-2" fill="#0B69B3" points="0 8 87.9407407 8 87.9407407 0 0 0"></polygon>
            </g>
        </g>
    </g>
</svg>