<?xml version="1.0" encoding="UTF-8" standalone="no"?>
<svg width="38px" height="38px" viewBox="0 0 38 38" version="1.1" xmlns="http://www.w3.org/2000/svg" xmlns:xlink="http://www.w3.org/1999/xlink">
    <!-- Generator: Sketch 3.7.2 (28276) - http://www.bohemiancoding.com/sketch -->
    <title>eye copy</title>
    <desc>Created with Sketch.</desc>
    <defs>
        <polyline id="path-1" points="0 0.0060421174 37.8786382 0.0060421174 37.8786382 21.3152475 0 21.3152475"></polyline>
    </defs>
    <g id="Page-1" stroke="none" stroke-width="1" fill="none" fill-rule="evenodd">
        <g id="Block-Select" transform="translate(-719.000000, -84.000000)">
            <g id="Select!" transform="translate(286.000000, 79.000000)">
                <g id="eye-copy" transform="translate(433.000000, 5.000000)">
                    <path d="M18.9393079,15.053225 C16.512705,15.053225 14.5380246,13.0824318 14.5380246,10.6606056 C14.5380246,8.23883548 16.5122566,6.26804224 18.9393079,6.26804224 C21.3663592,6.26804224 23.3405912,8.23838791 23.3405912,10.6606056 C23.3405912,13.0828793 21.3659108,15.053225 18.9393079,15.053225 M18.9393079,4.27442322 C15.4108146,4.27442322 12.5405295,7.13905822 12.5405295,10.6606056 C12.5405295,14.182209 15.4108146,17.046844 18.9393079,17.046844 C22.4678012,17.046844 25.3380863,14.182209 25.3380863,10.6606056 C25.3380863,7.13905822 22.4673527,4.27442322 18.9393079,4.27442322" id="Fill-1" fill="#9FAFB9"></path>
                    <g id="Group-5">
                        <mask id="mask-2" fill="white">
                            <use xlink:href="#path-1"></use>
                        </mask>
                        <g id="Clip-4"></g>
                        <path d="M35.6336171,11.2454267 C33.1489404,13.6736306 26.5484168,19.3216676 18.9392799,19.3216676 C11.3293021,19.3216676 4.72967544,13.6736306 2.24544711,11.2454267 C2.08535152,11.0892827 1.99751196,10.8815569 1.99751196,10.660628 C1.99751196,10.4396991 2.08535152,10.2324209 2.24499866,10.0762769 C4.72967544,7.64762548 11.3297505,1.99964435 18.9392799,1.99964435 C26.5479684,1.99964435 33.1489404,7.64762548 35.6336171,10.0762769 C35.7932643,10.2324209 35.8811038,10.4396991 35.8811038,10.660628 C35.8815523,10.8816129 35.7932643,11.0892827 35.6336171,11.2454267 M37.0310341,8.65151209 C34.3711267,6.05211486 27.283926,0.00602533374 18.9392799,0.00602533374 C10.5941853,0.00602533374 3.50698464,6.05256243 0.847581687,8.65195966 C0.300980824,9.18607165 1.68167636e-05,9.89915339 1.68167636e-05,10.660628 C-0.000431630258,11.4221026 0.300532377,12.135632 0.847581687,12.6701915 C3.50698464,15.2695887 10.5937369,21.3152307 18.9392799,21.3152307 C27.2844305,21.3152307 34.3716312,15.2691412 37.0314826,12.6697439 C37.5780834,12.1351844 37.8790474,11.4216551 37.878599,10.6601805 C37.878599,9.89915339 37.577635,9.18562408 37.0310341,8.65151209" id="Fill-3" fill="#9FAFB9" mask="url(#mask-2)"></path>
                    </g>
                </g>
            </g>
        </g>
    </g>
</svg>