<?xml version="1.0" encoding="UTF-8" standalone="no"?>
<svg width="48px" height="48px" viewBox="0 0 48 48" version="1.1" xmlns="http://www.w3.org/2000/svg" xmlns:xlink="http://www.w3.org/1999/xlink">
    <!-- Generator: Sketch 3.6.1 (26313) - http://www.bohemiancoding.com/sketch -->
    <title>32x32 Icon</title>
    <desc>Created with Sketch.</desc>
    <defs>
        <path id="path-1" d="M0.848632812,7.63378906 L0.848632812,31.2490234 C0.848632812,31.2490234 0.587890625,36.4472656 4.64746094,36.4472656 L25.1615515,36.4472656"></path>
    </defs>
    <g id="Page-1" stroke="none" stroke-width="1" fill="none" fill-rule="evenodd">
        <g id="32x32-Icon" stroke="#7D8A93">
            <g id="Forms-Icon" transform="translate(9.000000, 6.000000)">
                <g id="forms-icon-path" stroke-linecap="round">
                    <use stroke-width="1.6" xlink:href="#path-1"></use>
                    <use stroke-width="1" xlink:href="#path-1"></use>
                </g>
                <path d="M30.1665039,9.2331543 L30,28.9957423 C30,31.2072328 28.2129147,33 25.9944797,33 L8.00552025,33 C5.7933325,33 4,31.2109725 4,28.9957423 L4,5.0042577 C4,2.79276724 5.78708529,1 8.00552025,1 L21.9944797,1 L30.1665039,9.2331543 Z" id="Rectangle-1081" stroke-width="1.5"></path>
                <path d="M21,0.988769531 C21,0.988769531 21,1.88836333 21,2.98763433 L21,7.70258479 C21,8.80652734 21.9012322,9.70144959 22.9982547,9.70144959 L26.6294396,9.70144959 L26.7585665,9.70144959 C27.8675252,9.70144959 29.6674889,9.70920628 30.1520996,9.7133784 L30.1520996,9.7133784" id="Path-1782" stroke-width="1.5"></path>
            </g>
        </g>
    </g>
</svg>