<?xml version="1.0" encoding="UTF-8" standalone="no"?>
<svg width="48px" height="48px" viewBox="0 0 48 48" version="1.1" xmlns="http://www.w3.org/2000/svg" xmlns:xlink="http://www.w3.org/1999/xlink">
    <!-- Generator: Sketch 3.6.1 (26313) - http://www.bohemiancoding.com/sketch -->
    <title>32x32 Icon</title>
    <desc>Created with Sketch.</desc>
    <defs></defs>
    <g id="Page-1" stroke="none" stroke-width="1" fill="none" fill-rule="evenodd">
        <g id="32x32-Icon" fill="#000000">
            <path d="M36.2251298,26.060839 C36.2909252,25.5344758 36.3402718,25.0081125 36.3402718,24.4488516 C36.3402718,23.8895906 36.2909252,23.3632274 36.2251298,22.8368641 L39.6958375,20.1228036 C40.0083657,19.8760708 40.09061,19.4319518 39.8932237,19.0700771 L36.6034534,13.3787745 C36.4060672,13.0168997 35.9619482,12.8853089 35.6000735,13.0168997 L31.5043094,14.6617849 C30.6489692,14.0038308 29.7278335,13.4610187 28.7244535,13.0497974 L28.0993972,8.69085177 C28.0500506,8.29607933 27.7046247,8 27.2934034,8 L20.7138628,8 C20.3026415,8 19.9572156,8.29607933 19.9078691,8.69085177 L19.2828127,13.0497974 C18.2794328,13.4610187 17.3582971,14.0202797 16.5029568,14.6617849 L12.4071928,13.0168997 C12.0288692,12.8688601 11.6011991,13.0168997 11.4038128,13.3787745 L8.11404253,19.0700771 C7.90020746,19.4319518 7.99890057,19.8760708 8.31142874,20.1228036 L11.7821364,22.8368641 C11.716341,23.3632274 11.6669945,23.9060395 11.6669945,24.4488516 C11.6669945,24.9916637 11.716341,25.5344758 11.7821364,26.060839 L8.31142874,28.7748995 C7.99890057,29.0216323 7.91665631,29.4657513 8.11404253,29.827626 L11.4038128,35.5189287 C11.6011991,35.8808034 12.045318,36.0123942 12.4071928,35.8808034 L16.5029568,34.2359182 C17.3582971,34.8938723 18.2794328,35.4366844 19.2828127,35.8479057 L19.9078691,40.2068514 C19.9572156,40.6016238 20.3026415,40.8977031 20.7138628,40.8977031 L27.2934034,40.8977031 C27.7046247,40.8977031 28.0500506,40.6016238 28.0993972,40.2068514 L28.7244535,35.8479057 C29.7278335,35.4366844 30.6489692,34.8774234 31.5043094,34.2359182 L35.6000735,35.8808034 C35.9783971,36.0288431 36.4060672,35.8808034 36.6034534,35.5189287 L39.8932237,29.827626 C40.09061,29.4657513 40.0083657,29.0216323 39.6958375,28.7748995 L36.2251298,26.060839 L36.2251298,26.060839 Z M24.0036331,30.2059496 C20.8290048,30.2059496 18.2465351,27.6234799 18.2465351,24.4488516 C18.2465351,21.2742232 20.8290048,18.6917535 24.0036331,18.6917535 C27.1782615,18.6917535 29.7607312,21.2742232 29.7607312,24.4488516 C29.7607312,27.6234799 27.1782615,30.2059496 24.0036331,30.2059496 L24.0036331,30.2059496 Z" id="Shape"></path>
        </g>
    </g>
</svg>