<?xml version="1.0" encoding="UTF-8" standalone="no"?>
<svg width="38px" height="38px" viewBox="0 0 38 38" version="1.1" xmlns="http://www.w3.org/2000/svg" xmlns:xlink="http://www.w3.org/1999/xlink">
    <!-- Generator: Sketch 3.7.2 (28276) - http://www.bohemiancoding.com/sketch -->
    <title>share</title>
    <desc>Created with Sketch.</desc>
    <defs></defs>
    <g id="Page-1" stroke="none" stroke-width="1" fill="none" fill-rule="evenodd">
        <g id="Block-Select" transform="translate(-906.000000, -79.000000)">
            <g id="Select!" transform="translate(286.000000, 79.000000)">
                <g id="share" transform="translate(621.212453, 0.000000)">
                    <path d="M28.254291,16.3348389 L28.1818182,25.3083417 C28.1818182,27.899473 26.0866253,30 23.4806818,30 L4.70113643,30 C2.10477047,30 0,27.9090313 0,25.3083417 L0,6.56665833 C0,3.97552698 2.09519287,1.875 4.70113643,1.875 L16.8357008,1.94824219" id="Rectangle-50" stroke="#9FAFB9" stroke-width="2"></path>
                    <path d="M20.6854545,19.1273438 L20.6854545,14.0929688 C20.6854545,14.0929688 18.4637879,14.0742188 17.8484848,14.0742188 C13.9312121,14.0742188 8.60484848,17.1210938 6.57763636,19.7179688 C6.60769697,16.1929688 11.2144848,8.65546875 17.8484848,8.44921875 C18.3379091,8.43046875 20.6854545,8.45859375 20.6854545,8.45859375 L20.6854545,3.38671875 L27.8783939,11.2617188 L20.6854545,19.1273438 L20.6854545,19.1273438 Z M29.7928788,10.5492188 L20.4092727,0.27421875 C20.0372727,-0.09140625 19.4341818,-0.09140625 19.0621818,0.27421875 C18.848,0.48984375 18.7719091,0.77109375 18.8038485,1.05234375 L18.8038485,6.58359375 C11.0134545,6.58359375 4.6969697,12.8835938 4.6969697,20.6554688 C4.6969697,22.6523438 5.11781818,24.5460938 5.86745455,26.2710938 C6.98063636,20.4023438 12.5878788,15.9492188 18.7878788,15.9492188 C18.7878788,16.2679688 18.8038485,21.4710938 18.8038485,21.4710938 C18.7719091,21.7429688 18.848,22.0335938 19.0621818,22.2398438 C19.0640606,22.2492188 19.0678182,22.2492188 19.069697,22.2492188 C19.2406667,22.4273438 19.4783333,22.5398438 19.7451212,22.5398438 C20.0372727,22.5398438 20.2880909,22.3992188 20.4609394,22.1835938 L29.7928788,11.9742188 C29.9910909,11.7773438 30.0756364,11.5148438 30.0624848,11.2617188 C30.0756364,10.9992188 29.9910909,10.7460938 29.7928788,10.5492188 L29.7928788,10.5492188 Z" id="Fill-11" fill="#9FAFB9"></path>
                </g>
            </g>
        </g>
    </g>
</svg>